<?xml version="1.0" encoding="UTF-8" standalone="no"?>
<!DOCTYPE svg PUBLIC "-//W3C//DTD SVG 1.1//EN"
 "http://www.w3.org/Graphics/SVG/1.1/DTD/svg11.dtd">
<!-- Generated by graphviz version 2.34.0 (20140110.0949)
 -->
<!-- Title: include/BackoffTimer.h Pages: 1 -->
<svg width="487pt" height="252pt"
 viewBox="0.00 0.00 487.00 252.00" xmlns="http://www.w3.org/2000/svg" xmlns:xlink="http://www.w3.org/1999/xlink">
<g id="graph0" class="graph" transform="scale(1 1) rotate(0) translate(4 248)">
<title>include/BackoffTimer.h</title>
<!-- Node1 -->
<g id="node1" class="node"><title>Node1</title>
<polygon fill="#bfbfbf" stroke="black" points="100.5,-224.5 100.5,-243.5 217.5,-243.5 217.5,-224.5 100.5,-224.5"/>
<text text-anchor="middle" x="159" y="-231.5" font-family="Helvetica,sans-Serif" font-size="10.00">include/BackoffTimer.h</text>
</g>
<!-- Node2 -->
<g id="node2" class="node"><title>Node2</title>
<g id="a_node2"><a xlink:href="_timer_8h.html" target="_top" xlink:title="Timer.h">
<polygon fill="none" stroke="black" points="134,-168.5 134,-187.5 184,-187.5 184,-168.5 134,-168.5"/>
<text text-anchor="middle" x="159" y="-175.5" font-family="Helvetica,sans-Serif" font-size="10.00">Timer.h</text>
</a>
</g>
</g>
<!-- Node1&#45;&gt;Node2 -->
<g id="edge1" class="edge"><title>Node1&#45;&gt;Node2</title>
<path fill="none" stroke="midnightblue" d="M159,-224.083C159,-217.006 159,-206.861 159,-197.986"/>
<polygon fill="midnightblue" stroke="midnightblue" points="162.5,-197.751 159,-187.751 155.5,-197.751 162.5,-197.751"/>
</g>
<!-- Node3 -->
<g id="node3" class="node"><title>Node3</title>
<polygon fill="none" stroke="#bfbfbf" points="-0.5,-112.5 -0.5,-131.5 58.5,-131.5 58.5,-112.5 -0.5,-112.5"/>
<text text-anchor="middle" x="29" y="-119.5" font-family="Helvetica,sans-Serif" font-size="10.00">functional</text>
</g>
<!-- Node2&#45;&gt;Node3 -->
<g id="edge2" class="edge"><title>Node2&#45;&gt;Node3</title>
<path fill="none" stroke="midnightblue" d="M138.401,-168.444C117.007,-159.557 83.3188,-145.563 58.9756,-135.451"/>
<polygon fill="midnightblue" stroke="midnightblue" points="60.0801,-132.12 49.5025,-131.516 57.3948,-138.585 60.0801,-132.12"/>
</g>
<!-- Node4 -->
<g id="node4" class="node"><title>Node4</title>
<polygon fill="none" stroke="#bfbfbf" points="84.5,-0.5 84.5,-19.5 165.5,-19.5 165.5,-0.5 84.5,-0.5"/>
<text text-anchor="middle" x="125" y="-7.5" font-family="Helvetica,sans-Serif" font-size="10.00">event2/event.h</text>
</g>
<!-- Node2&#45;&gt;Node4 -->
<g id="edge3" class="edge"><title>Node2&#45;&gt;Node4</title>
<path fill="none" stroke="midnightblue" d="M156.078,-168.474C150.294,-151.234 137.396,-110.901 131,-76 128.188,-60.6536 126.665,-43.0147 125.858,-29.9873"/>
<polygon fill="midnightblue" stroke="midnightblue" points="129.348,-29.6985 125.319,-19.8996 122.358,-30.0722 129.348,-29.6985"/>
</g>
<!-- Node5 -->
<g id="node5" class="node"><title>Node5</title>
<g id="a_node5"><a xlink:href="_module_8h.html" target="_top" xlink:title="Module.h">
<polygon fill="none" stroke="black" points="177,-112.5 177,-131.5 233,-131.5 233,-112.5 177,-112.5"/>
<text text-anchor="middle" x="205" y="-119.5" font-family="Helvetica,sans-Serif" font-size="10.00">Module.h</text>
</a>
</g>
</g>
<!-- Node2&#45;&gt;Node5 -->
<g id="edge4" class="edge"><title>Node2&#45;&gt;Node5</title>
<path fill="none" stroke="midnightblue" d="M166.596,-168.083C173.227,-160.298 183.021,-148.801 191.058,-139.367"/>
<polygon fill="midnightblue" stroke="midnightblue" points="193.725,-141.633 197.545,-131.751 188.396,-137.094 193.725,-141.633"/>
</g>
<!-- Node13 -->
<g id="node13" class="node"><title>Node13</title>
<g id="a_node13"><a xlink:href="defines_8h.html" target="_top" xlink:title="defines.h">
<polygon fill="none" stroke="black" points="251,-112.5 251,-131.5 307,-131.5 307,-112.5 251,-112.5"/>
<text text-anchor="middle" x="279" y="-119.5" font-family="Helvetica,sans-Serif" font-size="10.00">defines.h</text>
</a>
</g>
</g>
<!-- Node2&#45;&gt;Node13 -->
<g id="edge15" class="edge"><title>Node2&#45;&gt;Node13</title>
<path fill="none" stroke="midnightblue" d="M178.014,-168.444C197.588,-159.636 228.308,-145.812 250.729,-135.722"/>
<polygon fill="midnightblue" stroke="midnightblue" points="252.392,-138.812 260.075,-131.516 249.519,-132.428 252.392,-138.812"/>
</g>
<!-- Node5&#45;&gt;Node4 -->
<g id="edge6" class="edge"><title>Node5&#45;&gt;Node4</title>
<path fill="none" stroke="midnightblue" d="M187.824,-112.412C174.052,-104.681 155.23,-92.0744 144,-76 134.426,-62.2961 129.626,-43.7631 127.25,-29.9929"/>
<polygon fill="midnightblue" stroke="midnightblue" points="130.666,-29.1543 125.773,-19.7567 123.737,-30.1541 130.666,-29.1543"/>
</g>
<!-- Node6 -->
<g id="node6" class="node"><title>Node6</title>
<polygon fill="none" stroke="#bfbfbf" points="188.5,-0.5 188.5,-19.5 261.5,-19.5 261.5,-0.5 188.5,-0.5"/>
<text text-anchor="middle" x="225" y="-7.5" font-family="Helvetica,sans-Serif" font-size="10.00">event2/dns.h</text>
</g>
<!-- Node5&#45;&gt;Node6 -->
<g id="edge5" class="edge"><title>Node5&#45;&gt;Node6</title>
<path fill="none" stroke="midnightblue" d="M206.569,-112.368C209.797,-94.617 217.242,-53.6664 221.619,-29.5974"/>
<polygon fill="midnightblue" stroke="midnightblue" points="225.093,-30.0562 223.438,-19.5914 218.205,-28.804 225.093,-30.0562"/>
</g>
<!-- Node7 -->
<g id="node7" class="node"><title>Node7</title>
<polygon fill="none" stroke="#bfbfbf" points="259.5,-56.5 259.5,-75.5 332.5,-75.5 332.5,-56.5 259.5,-56.5"/>
<text text-anchor="middle" x="296" y="-63.5" font-family="Helvetica,sans-Serif" font-size="10.00">libconfig.h++</text>
</g>
<!-- Node5&#45;&gt;Node7 -->
<g id="edge7" class="edge"><title>Node5&#45;&gt;Node7</title>
<path fill="none" stroke="midnightblue" d="M219.621,-112.324C233.949,-103.822 256.013,-90.7288 272.749,-80.7975"/>
<polygon fill="midnightblue" stroke="midnightblue" points="274.602,-83.7677 281.416,-75.6545 271.03,-77.7478 274.602,-83.7677"/>
</g>
<!-- Node8 -->
<g id="node8" class="node"><title>Node8</title>
<polygon fill="none" stroke="#bfbfbf" points="351,-56.5 351,-75.5 381,-75.5 381,-56.5 351,-56.5"/>
<text text-anchor="middle" x="366" y="-63.5" font-family="Helvetica,sans-Serif" font-size="10.00">set</text>
</g>
<!-- Node5&#45;&gt;Node8 -->
<g id="edge8" class="edge"><title>Node5&#45;&gt;Node8</title>
<path fill="none" stroke="midnightblue" d="M231.394,-112.491C258.846,-103.59 303.035,-89.1121 341,-76 341.101,-75.9652 341.202,-75.9302 341.303,-75.8952"/>
<polygon fill="midnightblue" stroke="midnightblue" points="342.687,-79.1184 350.952,-72.489 340.357,-72.5177 342.687,-79.1184"/>
</g>
<!-- Node9 -->
<g id="node9" class="node"><title>Node9</title>
<g id="a_node9"><a xlink:href="_string_8h.html" target="_top" xlink:title="String.h">
<polygon fill="none" stroke="black" points="399,-56.5 399,-75.5 449,-75.5 449,-56.5 399,-56.5"/>
<text text-anchor="middle" x="424" y="-63.5" font-family="Helvetica,sans-Serif" font-size="10.00">String.h</text>
</a>
</g>
</g>
<!-- Node5&#45;&gt;Node9 -->
<g id="edge9" class="edge"><title>Node5&#45;&gt;Node9</title>
<path fill="none" stroke="midnightblue" d="M233.145,-114.158C277.025,-103.49 359.209,-83.5073 388.742,-76.2332"/>
<polygon fill="midnightblue" stroke="midnightblue" points="389.904,-79.5509 398.764,-73.7407 388.215,-72.7579 389.904,-79.5509"/>
</g>
<!-- Node12 -->
<g id="node12" class="node"><title>Node12</title>
<g id="a_node12"><a xlink:href="_event_8h.html" target="_top" xlink:title="Event.h">
<polygon fill="none" stroke="black" points="153,-56.5 153,-75.5 203,-75.5 203,-56.5 153,-56.5"/>
<text text-anchor="middle" x="178" y="-63.5" font-family="Helvetica,sans-Serif" font-size="10.00">Event.h</text>
</a>
</g>
</g>
<!-- Node5&#45;&gt;Node12 -->
<g id="edge12" class="edge"><title>Node5&#45;&gt;Node12</title>
<path fill="none" stroke="midnightblue" d="M200.541,-112.083C196.846,-104.691 191.477,-93.9533 186.906,-84.8111"/>
<polygon fill="midnightblue" stroke="midnightblue" points="189.978,-83.1301 182.376,-75.7511 183.717,-86.2606 189.978,-83.1301"/>
</g>
<!-- Node10 -->
<g id="node10" class="node"><title>Node10</title>
<polygon fill="none" stroke="#bfbfbf" points="371.5,-0.5 371.5,-19.5 412.5,-19.5 412.5,-0.5 371.5,-0.5"/>
<text text-anchor="middle" x="392" y="-7.5" font-family="Helvetica,sans-Serif" font-size="10.00">string</text>
</g>
<!-- Node9&#45;&gt;Node10 -->
<g id="edge10" class="edge"><title>Node9&#45;&gt;Node10</title>
<path fill="none" stroke="midnightblue" d="M418.716,-56.083C414.289,-48.6127 407.837,-37.7244 402.382,-28.5199"/>
<polygon fill="midnightblue" stroke="midnightblue" points="405.295,-26.5697 397.186,-19.7511 399.273,-30.1383 405.295,-26.5697"/>
</g>
<!-- Node11 -->
<g id="node11" class="node"><title>Node11</title>
<polygon fill="none" stroke="#bfbfbf" points="430.5,-0.5 430.5,-19.5 479.5,-19.5 479.5,-0.5 430.5,-0.5"/>
<text text-anchor="middle" x="455" y="-7.5" font-family="Helvetica,sans-Serif" font-size="10.00">stdint.h</text>
</g>
<!-- Node9&#45;&gt;Node11 -->
<g id="edge11" class="edge"><title>Node9&#45;&gt;Node11</title>
<path fill="none" stroke="midnightblue" d="M429.119,-56.083C433.408,-48.6127 439.658,-37.7244 444.942,-28.5199"/>
<polygon fill="midnightblue" stroke="midnightblue" points="448.033,-30.1662 449.976,-19.7511 441.962,-26.6811 448.033,-30.1662"/>
</g>
<!-- Node12&#45;&gt;Node4 -->
<g id="edge14" class="edge"><title>Node12&#45;&gt;Node4</title>
<path fill="none" stroke="midnightblue" d="M169.248,-56.083C161.53,-48.2195 150.095,-36.5688 140.783,-27.0813"/>
<polygon fill="midnightblue" stroke="midnightblue" points="143.092,-24.4363 133.589,-19.7511 138.096,-29.3396 143.092,-24.4363"/>
</g>
<!-- Node12&#45;&gt;Node6 -->
<g id="edge13" class="edge"><title>Node12&#45;&gt;Node6</title>
<path fill="none" stroke="midnightblue" d="M185.761,-56.083C192.537,-48.2982 202.543,-36.8015 210.755,-27.3665"/>
<polygon fill="midnightblue" stroke="midnightblue" points="213.458,-29.592 217.383,-19.7511 208.178,-24.9963 213.458,-29.592"/>
</g>
</g>
</svg>
