<?xml version="1.0" encoding="UTF-8" standalone="no"?>
<!DOCTYPE svg PUBLIC "-//W3C//DTD SVG 1.1//EN"
 "http://www.w3.org/Graphics/SVG/1.1/DTD/svg11.dtd">
<!-- Generated by graphviz version 2.34.0 (20140110.0949)
 -->
<!-- Title: include/Closable.h Pages: 1 -->
<svg width="637pt" height="196pt"
 viewBox="0.00 0.00 637.00 196.00" xmlns="http://www.w3.org/2000/svg" xmlns:xlink="http://www.w3.org/1999/xlink">
<g id="graph0" class="graph" transform="scale(1 1) rotate(0) translate(4 192)">
<title>include/Closable.h</title>
<!-- Node1 -->
<g id="node1" class="node"><title>Node1</title>
<polygon fill="#bfbfbf" stroke="black" points="293.5,-168.5 293.5,-187.5 390.5,-187.5 390.5,-168.5 293.5,-168.5"/>
<text text-anchor="middle" x="342" y="-175.5" font-family="Helvetica,sans-Serif" font-size="10.00">include/Closable.h</text>
</g>
<!-- Node2 -->
<g id="node2" class="node"><title>Node2</title>
<g id="a_node2"><a xlink:href="_socket_8h.html" target="_top" xlink:title="include/Socket.h">
<polygon fill="none" stroke="black" points="164.5,-112.5 164.5,-131.5 253.5,-131.5 253.5,-112.5 164.5,-112.5"/>
<text text-anchor="middle" x="209" y="-119.5" font-family="Helvetica,sans-Serif" font-size="10.00">include/Socket.h</text>
</a>
</g>
</g>
<!-- Node1&#45;&gt;Node2 -->
<g id="edge1" class="edge"><title>Node1&#45;&gt;Node2</title>
<path fill="none" stroke="midnightblue" d="M311.552,-164.638C286.593,-154.504 251.923,-140.427 229.976,-131.516"/>
<polygon fill="midnightblue" stroke="midnightblue" points="310.344,-167.924 320.926,-168.444 312.977,-161.439 310.344,-167.924"/>
</g>
<!-- Node7 -->
<g id="node7" class="node"><title>Node7</title>
<g id="a_node7"><a xlink:href="_files_8h.html" target="_top" xlink:title="include/Files.h">
<polygon fill="none" stroke="black" points="436,-112.5 436,-131.5 516,-131.5 516,-112.5 436,-112.5"/>
<text text-anchor="middle" x="476" y="-119.5" font-family="Helvetica,sans-Serif" font-size="10.00">include/Files.h</text>
</a>
</g>
</g>
<!-- Node1&#45;&gt;Node7 -->
<g id="edge6" class="edge"><title>Node1&#45;&gt;Node7</title>
<path fill="none" stroke="midnightblue" d="M372.677,-164.638C397.823,-154.504 432.754,-140.427 454.867,-131.516"/>
<polygon fill="midnightblue" stroke="midnightblue" points="371.2,-161.459 363.233,-168.444 373.816,-167.952 371.2,-161.459"/>
</g>
<!-- Node3 -->
<g id="node3" class="node"><title>Node3</title>
<g id="a_node3"><a xlink:href="_d_n_s_8h.html" target="_top" xlink:title="include/DNS.h">
<polygon fill="none" stroke="black" points="0,-56.5 0,-75.5 80,-75.5 80,-56.5 0,-56.5"/>
<text text-anchor="middle" x="40" y="-63.5" font-family="Helvetica,sans-Serif" font-size="10.00">include/DNS.h</text>
</a>
</g>
</g>
<!-- Node2&#45;&gt;Node3 -->
<g id="edge2" class="edge"><title>Node2&#45;&gt;Node3</title>
<path fill="none" stroke="midnightblue" d="M172.397,-109.304C140.553,-99.1294 95.1584,-84.6246 66.6533,-75.5164"/>
<polygon fill="midnightblue" stroke="midnightblue" points="171.631,-112.734 182.221,-112.444 173.761,-106.066 171.631,-112.734"/>
</g>
<!-- Node4 -->
<g id="node4" class="node"><title>Node4</title>
<g id="a_node4"><a xlink:href="_listener_8h.html" target="_top" xlink:title="include/Listener.h">
<polygon fill="none" stroke="black" points="237.5,-0.5 237.5,-19.5 330.5,-19.5 330.5,-0.5 237.5,-0.5"/>
<text text-anchor="middle" x="284" y="-7.5" font-family="Helvetica,sans-Serif" font-size="10.00">include/Listener.h</text>
</a>
</g>
</g>
<!-- Node2&#45;&gt;Node4 -->
<g id="edge3" class="edge"><title>Node2&#45;&gt;Node4</title>
<path fill="none" stroke="midnightblue" d="M172.094,-108.824C143.099,-97.235 110.203,-78.2884 127,-56 140.354,-38.2811 196.055,-25.4088 237.336,-18.0794"/>
<polygon fill="midnightblue" stroke="midnightblue" points="171.108,-112.193 181.699,-112.466 173.59,-105.648 171.108,-112.193"/>
</g>
<!-- Node5 -->
<g id="node5" class="node"><title>Node5</title>
<g id="a_node5"><a xlink:href="_simple_h_t_t_p_socket_8h.html" target="_top" xlink:title="include/SimpleHTTPSocket.h">
<polygon fill="none" stroke="black" points="136,-56.5 136,-75.5 282,-75.5 282,-56.5 136,-56.5"/>
<text text-anchor="middle" x="209" y="-63.5" font-family="Helvetica,sans-Serif" font-size="10.00">include/SimpleHTTPSocket.h</text>
</a>
</g>
</g>
<!-- Node2&#45;&gt;Node5 -->
<g id="edge4" class="edge"><title>Node2&#45;&gt;Node5</title>
<path fill="none" stroke="midnightblue" d="M209,-101.805C209,-92.9102 209,-82.7798 209,-75.7511"/>
<polygon fill="midnightblue" stroke="midnightblue" points="205.5,-102.083 209,-112.083 212.5,-102.083 205.5,-102.083"/>
</g>
<!-- Node6 -->
<g id="node6" class="node"><title>Node6</title>
<g id="a_node6"><a xlink:href="_statsd_client_8h.html" target="_top" xlink:title="include/StatsdClient.h">
<polygon fill="none" stroke="black" points="300.5,-56.5 300.5,-75.5 413.5,-75.5 413.5,-56.5 300.5,-56.5"/>
<text text-anchor="middle" x="357" y="-63.5" font-family="Helvetica,sans-Serif" font-size="10.00">include/StatsdClient.h</text>
</a>
</g>
</g>
<!-- Node2&#45;&gt;Node6 -->
<g id="edge5" class="edge"><title>Node2&#45;&gt;Node6</title>
<path fill="none" stroke="midnightblue" d="M242.147,-108.906C269.972,-98.7536 309.02,-84.5063 333.659,-75.5164"/>
<polygon fill="midnightblue" stroke="midnightblue" points="240.646,-105.728 232.451,-112.444 243.045,-112.304 240.646,-105.728"/>
</g>
<!-- Node8 -->
<g id="node8" class="node"><title>Node8</title>
<g id="a_node8"><a xlink:href="_pipe_8h.html" target="_top" xlink:title="include/Pipe.h">
<polygon fill="none" stroke="black" points="538,-56.5 538,-75.5 616,-75.5 616,-56.5 538,-56.5"/>
<text text-anchor="middle" x="577" y="-63.5" font-family="Helvetica,sans-Serif" font-size="10.00">include/Pipe.h</text>
</a>
</g>
</g>
<!-- Node7&#45;&gt;Node8 -->
<g id="edge7" class="edge"><title>Node7&#45;&gt;Node8</title>
<path fill="none" stroke="midnightblue" d="M501.083,-107.59C519.757,-97.6052 544.704,-84.2672 560.813,-75.6545"/>
<polygon fill="midnightblue" stroke="midnightblue" points="499.396,-104.522 492.227,-112.324 502.696,-110.696 499.396,-104.522"/>
</g>
<!-- Node10 -->
<g id="node10" class="node"><title>Node10</title>
<g id="a_node10"><a xlink:href="_logger_8h.html" target="_top" xlink:title="include/Logger.h">
<polygon fill="none" stroke="black" points="432,-56.5 432,-75.5 520,-75.5 520,-56.5 432,-56.5"/>
<text text-anchor="middle" x="476" y="-63.5" font-family="Helvetica,sans-Serif" font-size="10.00">include/Logger.h</text>
</a>
</g>
</g>
<!-- Node7&#45;&gt;Node10 -->
<g id="edge9" class="edge"><title>Node7&#45;&gt;Node10</title>
<path fill="none" stroke="midnightblue" d="M476,-101.805C476,-92.9102 476,-82.7798 476,-75.7511"/>
<polygon fill="midnightblue" stroke="midnightblue" points="472.5,-102.083 476,-112.083 479.5,-102.083 472.5,-102.083"/>
</g>
<!-- Node9 -->
<g id="node9" class="node"><title>Node9</title>
<g id="a_node9"><a xlink:href="_job_thread_8h.html" target="_top" xlink:title="include/JobThread.h">
<polygon fill="none" stroke="black" points="525,-0.5 525,-19.5 629,-19.5 629,-0.5 525,-0.5"/>
<text text-anchor="middle" x="577" y="-7.5" font-family="Helvetica,sans-Serif" font-size="10.00">include/JobThread.h</text>
</a>
</g>
</g>
<!-- Node8&#45;&gt;Node9 -->
<g id="edge8" class="edge"><title>Node8&#45;&gt;Node9</title>
<path fill="none" stroke="midnightblue" d="M577,-45.8045C577,-36.9102 577,-26.7798 577,-19.7511"/>
<polygon fill="midnightblue" stroke="midnightblue" points="573.5,-46.083 577,-56.083 580.5,-46.083 573.5,-46.083"/>
</g>
<!-- Node10&#45;&gt;Node4 -->
<g id="edge10" class="edge"><title>Node10&#45;&gt;Node4</title>
<path fill="none" stroke="midnightblue" d="M435.817,-53.6986C399.581,-43.507 347.086,-28.7429 314.281,-19.5164"/>
<polygon fill="midnightblue" stroke="midnightblue" points="435.003,-57.1053 445.577,-56.4435 436.898,-50.3667 435.003,-57.1053"/>
</g>
</g>
</svg>
