<?xml version="1.0" encoding="UTF-8" standalone="no"?>
<!DOCTYPE svg PUBLIC "-//W3C//DTD SVG 1.1//EN"
 "http://www.w3.org/Graphics/SVG/1.1/DTD/svg11.dtd">
<!-- Generated by graphviz version 2.34.0 (20140110.0949)
 -->
<!-- Title: include/Closable.h Pages: 1 -->
<svg width="473pt" height="196pt"
 viewBox="0.00 0.00 473.00 196.00" xmlns="http://www.w3.org/2000/svg" xmlns:xlink="http://www.w3.org/1999/xlink">
<g id="graph0" class="graph" transform="scale(1 1) rotate(0) translate(4 192)">
<title>include/Closable.h</title>
<!-- Node1 -->
<g id="node1" class="node"><title>Node1</title>
<polygon fill="#bfbfbf" stroke="black" points="229.5,-168.5 229.5,-187.5 326.5,-187.5 326.5,-168.5 229.5,-168.5"/>
<text text-anchor="middle" x="278" y="-175.5" font-family="Helvetica,sans-Serif" font-size="10.00">include/Closable.h</text>
</g>
<!-- Node2 -->
<g id="node2" class="node"><title>Node2</title>
<g id="a_node2"><a xlink:href="_socket_8h.html" target="_top" xlink:title="include/Socket.h">
<polygon fill="none" stroke="black" points="141.5,-112.5 141.5,-131.5 230.5,-131.5 230.5,-112.5 141.5,-112.5"/>
<text text-anchor="middle" x="186" y="-119.5" font-family="Helvetica,sans-Serif" font-size="10.00">include/Socket.h</text>
</a>
</g>
</g>
<!-- Node1&#45;&gt;Node2 -->
<g id="edge1" class="edge"><title>Node1&#45;&gt;Node2</title>
<path fill="none" stroke="midnightblue" d="M254.45,-163.177C237.521,-153.241 215.217,-140.149 200.745,-131.655"/>
<polygon fill="midnightblue" stroke="midnightblue" points="252.823,-166.28 263.219,-168.324 256.366,-160.243 252.823,-166.28"/>
</g>
<!-- Node6 -->
<g id="node6" class="node"><title>Node6</title>
<g id="a_node6"><a xlink:href="_files_8h.html" target="_top" xlink:title="include/Files.h">
<polygon fill="none" stroke="black" points="331,-112.5 331,-131.5 411,-131.5 411,-112.5 331,-112.5"/>
<text text-anchor="middle" x="371" y="-119.5" font-family="Helvetica,sans-Serif" font-size="10.00">include/Files.h</text>
</a>
</g>
</g>
<!-- Node1&#45;&gt;Node6 -->
<g id="edge5" class="edge"><title>Node1&#45;&gt;Node6</title>
<path fill="none" stroke="midnightblue" d="M301.806,-163.177C318.919,-153.241 341.465,-140.149 356.095,-131.655"/>
<polygon fill="midnightblue" stroke="midnightblue" points="299.832,-160.276 292.942,-168.324 303.347,-166.329 299.832,-160.276"/>
</g>
<!-- Node3 -->
<g id="node3" class="node"><title>Node3</title>
<g id="a_node3"><a xlink:href="_d_n_s_8h.html" target="_top" xlink:title="include/DNS.h">
<polygon fill="none" stroke="black" points="0,-56.5 0,-75.5 80,-75.5 80,-56.5 0,-56.5"/>
<text text-anchor="middle" x="40" y="-63.5" font-family="Helvetica,sans-Serif" font-size="10.00">include/DNS.h</text>
</a>
</g>
</g>
<!-- Node2&#45;&gt;Node3 -->
<g id="edge2" class="edge"><title>Node2&#45;&gt;Node3</title>
<path fill="none" stroke="midnightblue" d="M153.301,-108.906C125.852,-98.7536 87.3318,-84.5063 63.0259,-75.5164"/>
<polygon fill="midnightblue" stroke="midnightblue" points="152.273,-112.257 162.866,-112.444 154.701,-105.692 152.273,-112.257"/>
</g>
<!-- Node4 -->
<g id="node4" class="node"><title>Node4</title>
<g id="a_node4"><a xlink:href="_listener_8h.html" target="_top" xlink:title="include/Listener.h">
<polygon fill="none" stroke="black" points="98.5,-56.5 98.5,-75.5 191.5,-75.5 191.5,-56.5 98.5,-56.5"/>
<text text-anchor="middle" x="145" y="-63.5" font-family="Helvetica,sans-Serif" font-size="10.00">include/Listener.h</text>
</a>
</g>
</g>
<!-- Node2&#45;&gt;Node4 -->
<g id="edge3" class="edge"><title>Node2&#45;&gt;Node4</title>
<path fill="none" stroke="midnightblue" d="M172.983,-103.855C165.883,-94.5048 157.396,-83.3265 151.644,-75.7511"/>
<polygon fill="midnightblue" stroke="midnightblue" points="170.395,-106.235 179.23,-112.083 175.97,-102.002 170.395,-106.235"/>
</g>
<!-- Node5 -->
<g id="node5" class="node"><title>Node5</title>
<g id="a_node5"><a xlink:href="_simple_h_t_t_p_socket_8h.html" target="_top" xlink:title="include/SimpleHTTPSocket.h">
<polygon fill="none" stroke="black" points="210,-56.5 210,-75.5 356,-75.5 356,-56.5 210,-56.5"/>
<text text-anchor="middle" x="283" y="-63.5" font-family="Helvetica,sans-Serif" font-size="10.00">include/SimpleHTTPSocket.h</text>
</a>
</g>
</g>
<!-- Node2&#45;&gt;Node5 -->
<g id="edge4" class="edge"><title>Node2&#45;&gt;Node5</title>
<path fill="none" stroke="midnightblue" d="M210.335,-107.453C228.243,-97.4835 252.054,-84.2279 267.454,-75.6545"/>
<polygon fill="midnightblue" stroke="midnightblue" points="208.62,-104.402 201.585,-112.324 212.025,-110.518 208.62,-104.402"/>
</g>
<!-- Node7 -->
<g id="node7" class="node"><title>Node7</title>
<g id="a_node7"><a xlink:href="_pipe_8h.html" target="_top" xlink:title="include/Pipe.h">
<polygon fill="none" stroke="black" points="374,-56.5 374,-75.5 452,-75.5 452,-56.5 374,-56.5"/>
<text text-anchor="middle" x="413" y="-63.5" font-family="Helvetica,sans-Serif" font-size="10.00">include/Pipe.h</text>
</a>
</g>
</g>
<!-- Node6&#45;&gt;Node7 -->
<g id="edge6" class="edge"><title>Node6&#45;&gt;Node7</title>
<path fill="none" stroke="midnightblue" d="M384.11,-104.144C391.428,-94.7357 400.241,-83.4046 406.194,-75.7511"/>
<polygon fill="midnightblue" stroke="midnightblue" points="381.312,-102.041 377.935,-112.083 386.838,-106.338 381.312,-102.041"/>
</g>
<!-- Node8 -->
<g id="node8" class="node"><title>Node8</title>
<g id="a_node8"><a xlink:href="_job_thread_8h.html" target="_top" xlink:title="include/JobThread.h">
<polygon fill="none" stroke="black" points="361,-0.5 361,-19.5 465,-19.5 465,-0.5 361,-0.5"/>
<text text-anchor="middle" x="413" y="-7.5" font-family="Helvetica,sans-Serif" font-size="10.00">include/JobThread.h</text>
</a>
</g>
</g>
<!-- Node7&#45;&gt;Node8 -->
<g id="edge7" class="edge"><title>Node7&#45;&gt;Node8</title>
<path fill="none" stroke="midnightblue" d="M413,-45.8045C413,-36.9102 413,-26.7798 413,-19.7511"/>
<polygon fill="midnightblue" stroke="midnightblue" points="409.5,-46.083 413,-56.083 416.5,-46.083 409.5,-46.083"/>
</g>
</g>
</svg>
