<?xml version="1.0" encoding="UTF-8" standalone="no"?>
<!DOCTYPE svg PUBLIC "-//W3C//DTD SVG 1.1//EN"
 "http://www.w3.org/Graphics/SVG/1.1/DTD/svg11.dtd">
<!-- Generated by graphviz version 2.34.0 (20140110.0949)
 -->
<!-- Title: include/Closable.h Pages: 1 -->
<svg width="698pt" height="196pt"
 viewBox="0.00 0.00 698.00 196.00" xmlns="http://www.w3.org/2000/svg" xmlns:xlink="http://www.w3.org/1999/xlink">
<g id="graph0" class="graph" transform="scale(1 1) rotate(0) translate(4 192)">
<title>include/Closable.h</title>
<!-- Node1 -->
<g id="node1" class="node"><title>Node1</title>
<polygon fill="#bfbfbf" stroke="black" points="365.5,-168.5 365.5,-187.5 462.5,-187.5 462.5,-168.5 365.5,-168.5"/>
<text text-anchor="middle" x="414" y="-175.5" font-family="Helvetica,sans-Serif" font-size="10.00">include/Closable.h</text>
</g>
<!-- Node2 -->
<g id="node2" class="node"><title>Node2</title>
<g id="a_node2"><a xlink:href="_socket_8h.html" target="_top" xlink:title="include/Socket.h">
<polygon fill="none" stroke="black" points="238.5,-112.5 238.5,-131.5 327.5,-131.5 327.5,-112.5 238.5,-112.5"/>
<text text-anchor="middle" x="283" y="-119.5" font-family="Helvetica,sans-Serif" font-size="10.00">include/Socket.h</text>
</a>
</g>
</g>
<!-- Node1&#45;&gt;Node2 -->
<g id="edge1" class="edge"><title>Node1&#45;&gt;Node2</title>
<path fill="none" stroke="midnightblue" d="M383.683,-164.503C359.124,-154.38 325.182,-140.388 303.66,-131.516"/>
<polygon fill="midnightblue" stroke="midnightblue" points="382.663,-167.868 393.243,-168.444 385.331,-161.397 382.663,-167.868"/>
</g>
<!-- Node7 -->
<g id="node7" class="node"><title>Node7</title>
<g id="a_node7"><a xlink:href="_files_8h.html" target="_top" xlink:title="include/Files.h">
<polygon fill="none" stroke="black" points="505,-112.5 505,-131.5 585,-131.5 585,-112.5 505,-112.5"/>
<text text-anchor="middle" x="545" y="-119.5" font-family="Helvetica,sans-Serif" font-size="10.00">include/Files.h</text>
</a>
</g>
</g>
<!-- Node1&#45;&gt;Node7 -->
<g id="edge6" class="edge"><title>Node1&#45;&gt;Node7</title>
<path fill="none" stroke="midnightblue" d="M444.317,-164.503C468.876,-154.38 502.818,-140.388 524.34,-131.516"/>
<polygon fill="midnightblue" stroke="midnightblue" points="442.669,-161.397 434.757,-168.444 445.337,-167.868 442.669,-161.397"/>
</g>
<!-- Node3 -->
<g id="node3" class="node"><title>Node3</title>
<g id="a_node3"><a xlink:href="_d_n_s_8h.html" target="_top" xlink:title="include/DNS.h">
<polygon fill="none" stroke="black" points="0,-56.5 0,-75.5 80,-75.5 80,-56.5 0,-56.5"/>
<text text-anchor="middle" x="40" y="-63.5" font-family="Helvetica,sans-Serif" font-size="10.00">include/DNS.h</text>
</a>
</g>
</g>
<!-- Node2&#45;&gt;Node3 -->
<g id="edge2" class="edge"><title>Node2&#45;&gt;Node3</title>
<path fill="none" stroke="midnightblue" d="M234.478,-110.217C188.56,-100.013 120.553,-84.9006 78.3239,-75.5164"/>
<polygon fill="midnightblue" stroke="midnightblue" points="233.975,-113.691 244.496,-112.444 235.493,-106.858 233.975,-113.691"/>
</g>
<!-- Node4 -->
<g id="node4" class="node"><title>Node4</title>
<g id="a_node4"><a xlink:href="_listener_8h.html" target="_top" xlink:title="include/Listener.h">
<polygon fill="none" stroke="black" points="98.5,-56.5 98.5,-75.5 191.5,-75.5 191.5,-56.5 98.5,-56.5"/>
<text text-anchor="middle" x="145" y="-63.5" font-family="Helvetica,sans-Serif" font-size="10.00">include/Listener.h</text>
</a>
</g>
</g>
<!-- Node2&#45;&gt;Node4 -->
<g id="edge3" class="edge"><title>Node2&#45;&gt;Node4</title>
<path fill="none" stroke="midnightblue" d="M251.751,-108.772C225.829,-98.6287 189.638,-84.4669 166.764,-75.5164"/>
<polygon fill="midnightblue" stroke="midnightblue" points="250.546,-112.059 261.133,-112.444 253.096,-105.54 250.546,-112.059"/>
</g>
<!-- Node5 -->
<g id="node5" class="node"><title>Node5</title>
<g id="a_node5"><a xlink:href="_simple_h_t_t_p_socket_8h.html" target="_top" xlink:title="include/SimpleHTTPSocket.h">
<polygon fill="none" stroke="black" points="210,-56.5 210,-75.5 356,-75.5 356,-56.5 210,-56.5"/>
<text text-anchor="middle" x="283" y="-63.5" font-family="Helvetica,sans-Serif" font-size="10.00">include/SimpleHTTPSocket.h</text>
</a>
</g>
</g>
<!-- Node2&#45;&gt;Node5 -->
<g id="edge4" class="edge"><title>Node2&#45;&gt;Node5</title>
<path fill="none" stroke="midnightblue" d="M283,-101.805C283,-92.9102 283,-82.7798 283,-75.7511"/>
<polygon fill="midnightblue" stroke="midnightblue" points="279.5,-102.083 283,-112.083 286.5,-102.083 279.5,-102.083"/>
</g>
<!-- Node6 -->
<g id="node6" class="node"><title>Node6</title>
<g id="a_node6"><a xlink:href="_statsd_client_8h.html" target="_top" xlink:title="include/StatsdClient.h">
<polygon fill="none" stroke="black" points="374.5,-56.5 374.5,-75.5 487.5,-75.5 487.5,-56.5 374.5,-56.5"/>
<text text-anchor="middle" x="431" y="-63.5" font-family="Helvetica,sans-Serif" font-size="10.00">include/StatsdClient.h</text>
</a>
</g>
</g>
<!-- Node2&#45;&gt;Node6 -->
<g id="edge5" class="edge"><title>Node2&#45;&gt;Node6</title>
<path fill="none" stroke="midnightblue" d="M316.147,-108.906C343.972,-98.7536 383.02,-84.5063 407.659,-75.5164"/>
<polygon fill="midnightblue" stroke="midnightblue" points="314.646,-105.728 306.451,-112.444 317.045,-112.304 314.646,-105.728"/>
</g>
<!-- Node8 -->
<g id="node8" class="node"><title>Node8</title>
<g id="a_node8"><a xlink:href="_pipe_8h.html" target="_top" xlink:title="include/Pipe.h">
<polygon fill="none" stroke="black" points="506,-56.5 506,-75.5 584,-75.5 584,-56.5 506,-56.5"/>
<text text-anchor="middle" x="545" y="-63.5" font-family="Helvetica,sans-Serif" font-size="10.00">include/Pipe.h</text>
</a>
</g>
</g>
<!-- Node7&#45;&gt;Node8 -->
<g id="edge7" class="edge"><title>Node7&#45;&gt;Node8</title>
<path fill="none" stroke="midnightblue" d="M545,-101.805C545,-92.9102 545,-82.7798 545,-75.7511"/>
<polygon fill="midnightblue" stroke="midnightblue" points="541.5,-102.083 545,-112.083 548.5,-102.083 541.5,-102.083"/>
</g>
<!-- Node10 -->
<g id="node10" class="node"><title>Node10</title>
<g id="a_node10"><a xlink:href="_logger_8h.html" target="_top" xlink:title="include/Logger.h">
<polygon fill="none" stroke="black" points="602,-56.5 602,-75.5 690,-75.5 690,-56.5 602,-56.5"/>
<text text-anchor="middle" x="646" y="-63.5" font-family="Helvetica,sans-Serif" font-size="10.00">include/Logger.h</text>
</a>
</g>
</g>
<!-- Node7&#45;&gt;Node10 -->
<g id="edge9" class="edge"><title>Node7&#45;&gt;Node10</title>
<path fill="none" stroke="midnightblue" d="M570.083,-107.59C588.757,-97.6052 613.704,-84.2672 629.813,-75.6545"/>
<polygon fill="midnightblue" stroke="midnightblue" points="568.396,-104.522 561.227,-112.324 571.696,-110.696 568.396,-104.522"/>
</g>
<!-- Node9 -->
<g id="node9" class="node"><title>Node9</title>
<g id="a_node9"><a xlink:href="_job_thread_8h.html" target="_top" xlink:title="include/JobThread.h">
<polygon fill="none" stroke="black" points="493,-0.5 493,-19.5 597,-19.5 597,-0.5 493,-0.5"/>
<text text-anchor="middle" x="545" y="-7.5" font-family="Helvetica,sans-Serif" font-size="10.00">include/JobThread.h</text>
</a>
</g>
</g>
<!-- Node8&#45;&gt;Node9 -->
<g id="edge8" class="edge"><title>Node8&#45;&gt;Node9</title>
<path fill="none" stroke="midnightblue" d="M545,-45.8045C545,-36.9102 545,-26.7798 545,-19.7511"/>
<polygon fill="midnightblue" stroke="midnightblue" points="541.5,-46.083 545,-56.083 548.5,-46.083 541.5,-46.083"/>
</g>
</g>
</svg>
