<?xml version="1.0" encoding="UTF-8" standalone="no"?>
<!DOCTYPE svg PUBLIC "-//W3C//DTD SVG 1.1//EN"
 "http://www.w3.org/Graphics/SVG/1.1/DTD/svg11.dtd">
<!-- Generated by graphviz version 2.34.0 (20140110.0949)
 -->
<!-- Title: include/Compressor.h Pages: 1 -->
<svg width="313pt" height="196pt"
 viewBox="0.00 0.00 312.70 196.00" xmlns="http://www.w3.org/2000/svg" xmlns:xlink="http://www.w3.org/1999/xlink">
<g id="graph0" class="graph" transform="scale(1 1) rotate(0) translate(4 192)">
<title>include/Compressor.h</title>
<!-- Node1 -->
<g id="node1" class="node"><title>Node1</title>
<polygon fill="#bfbfbf" stroke="black" points="89.7008,-168.5 89.7008,-187.5 201.701,-187.5 201.701,-168.5 89.7008,-168.5"/>
<text text-anchor="middle" x="145.701" y="-175.5" font-family="Helvetica,sans-Serif" font-size="10.00">include/Compressor.h</text>
</g>
<!-- Node2 -->
<g id="node2" class="node"><title>Node2</title>
<polygon fill="none" stroke="#bfbfbf" points="42.2008,-0.5 42.2008,-19.5 91.2008,-19.5 91.2008,-0.5 42.2008,-0.5"/>
<text text-anchor="middle" x="66.7008" y="-7.5" font-family="Helvetica,sans-Serif" font-size="10.00">stdint.h</text>
</g>
<!-- Node1&#45;&gt;Node2 -->
<g id="edge1" class="edge"><title>Node1&#45;&gt;Node2</title>
<path fill="none" stroke="midnightblue" d="M120.32,-168.491C85.4404,-155.177 24.5285,-125.669 2.70084,-76 -6.78994,-54.4035 16.4321,-35.9327 37.5114,-24.262"/>
<polygon fill="midnightblue" stroke="midnightblue" points="39.3506,-27.2509 46.6158,-19.5394 36.1274,-21.0371 39.3506,-27.2509"/>
</g>
<!-- Node3 -->
<g id="node3" class="node"><title>Node3</title>
<g id="a_node3"><a xlink:href="defines_8h.html" target="_top" xlink:title="defines.h">
<polygon fill="none" stroke="black" points="11.7008,-56.5 11.7008,-75.5 67.7008,-75.5 67.7008,-56.5 11.7008,-56.5"/>
<text text-anchor="middle" x="39.7008" y="-63.5" font-family="Helvetica,sans-Serif" font-size="10.00">defines.h</text>
</a>
</g>
</g>
<!-- Node1&#45;&gt;Node3 -->
<g id="edge2" class="edge"><title>Node1&#45;&gt;Node3</title>
<path fill="none" stroke="midnightblue" d="M131.059,-168.431C117.742,-160.186 98.0373,-146.814 83.7008,-132 69.822,-117.659 57.4226,-98.4532 49.3521,-84.6424"/>
<polygon fill="midnightblue" stroke="midnightblue" points="52.2541,-82.6639 44.2814,-75.6862 46.1626,-86.1127 52.2541,-82.6639"/>
</g>
<!-- Node4 -->
<g id="node4" class="node"><title>Node4</title>
<g id="a_node4"><a xlink:href="_string_8h.html" target="_top" xlink:title="String.h">
<polygon fill="none" stroke="black" points="187.701,-56.5 187.701,-75.5 237.701,-75.5 237.701,-56.5 187.701,-56.5"/>
<text text-anchor="middle" x="212.701" y="-63.5" font-family="Helvetica,sans-Serif" font-size="10.00">String.h</text>
</a>
</g>
</g>
<!-- Node1&#45;&gt;Node4 -->
<g id="edge3" class="edge"><title>Node1&#45;&gt;Node4</title>
<path fill="none" stroke="midnightblue" d="M150.958,-168.368C161.966,-150.296 187.621,-108.176 202.159,-84.3074"/>
<polygon fill="midnightblue" stroke="midnightblue" points="205.255,-85.9526 207.468,-75.5914 199.277,-82.3112 205.255,-85.9526"/>
</g>
<!-- Node6 -->
<g id="node6" class="node"><title>Node6</title>
<g id="a_node6"><a xlink:href="_writer_8h.html" target="_top" xlink:title="Writer.h">
<polygon fill="none" stroke="black" points="93.2008,-112.5 93.2008,-131.5 144.201,-131.5 144.201,-112.5 93.2008,-112.5"/>
<text text-anchor="middle" x="118.701" y="-119.5" font-family="Helvetica,sans-Serif" font-size="10.00">Writer.h</text>
</a>
</g>
</g>
<!-- Node1&#45;&gt;Node6 -->
<g id="edge6" class="edge"><title>Node1&#45;&gt;Node6</title>
<path fill="none" stroke="midnightblue" d="M141.242,-168.083C137.547,-160.691 132.177,-149.953 127.606,-140.811"/>
<polygon fill="midnightblue" stroke="midnightblue" points="130.679,-139.13 123.076,-131.751 124.418,-142.261 130.679,-139.13"/>
</g>
<!-- Node8 -->
<g id="node8" class="node"><title>Node8</title>
<polygon fill="none" stroke="#bfbfbf" points="200.701,-112.5 200.701,-131.5 240.701,-131.5 240.701,-112.5 200.701,-112.5"/>
<text text-anchor="middle" x="220.701" y="-119.5" font-family="Helvetica,sans-Serif" font-size="10.00">zlib.h</text>
</g>
<!-- Node1&#45;&gt;Node8 -->
<g id="edge10" class="edge"><title>Node1&#45;&gt;Node8</title>
<path fill="none" stroke="midnightblue" d="M157.751,-168.324C169.164,-160.107 186.532,-147.602 200.136,-137.807"/>
<polygon fill="midnightblue" stroke="midnightblue" points="202.361,-140.517 208.432,-131.834 198.271,-134.837 202.361,-140.517"/>
</g>
<!-- Node9 -->
<g id="node9" class="node"><title>Node9</title>
<polygon fill="none" stroke="#bfbfbf" points="258.701,-112.5 258.701,-131.5 304.701,-131.5 304.701,-112.5 258.701,-112.5"/>
<text text-anchor="middle" x="281.701" y="-119.5" font-family="Helvetica,sans-Serif" font-size="10.00">lzma.h</text>
</g>
<!-- Node1&#45;&gt;Node9 -->
<g id="edge11" class="edge"><title>Node1&#45;&gt;Node9</title>
<path fill="none" stroke="midnightblue" d="M167.25,-168.444C189.732,-159.517 225.189,-145.439 250.681,-135.317"/>
<polygon fill="midnightblue" stroke="midnightblue" points="252.25,-138.46 260.252,-131.516 249.666,-131.954 252.25,-138.46"/>
</g>
<!-- Node4&#45;&gt;Node2 -->
<g id="edge5" class="edge"><title>Node4&#45;&gt;Node2</title>
<path fill="none" stroke="midnightblue" d="M189.567,-56.4435C165.219,-47.4381 126.694,-33.1891 99.2779,-23.049"/>
<polygon fill="midnightblue" stroke="midnightblue" points="100.32,-19.7028 89.7267,-19.5164 97.8916,-26.2681 100.32,-19.7028"/>
</g>
<!-- Node5 -->
<g id="node5" class="node"><title>Node5</title>
<polygon fill="none" stroke="#bfbfbf" points="192.201,-0.5 192.201,-19.5 233.201,-19.5 233.201,-0.5 192.201,-0.5"/>
<text text-anchor="middle" x="212.701" y="-7.5" font-family="Helvetica,sans-Serif" font-size="10.00">string</text>
</g>
<!-- Node4&#45;&gt;Node5 -->
<g id="edge4" class="edge"><title>Node4&#45;&gt;Node5</title>
<path fill="none" stroke="midnightblue" d="M212.701,-56.083C212.701,-49.0059 212.701,-38.8611 212.701,-29.9865"/>
<polygon fill="midnightblue" stroke="midnightblue" points="216.201,-29.751 212.701,-19.7511 209.201,-29.7511 216.201,-29.751"/>
</g>
<!-- Node6&#45;&gt;Node3 -->
<g id="edge7" class="edge"><title>Node6&#45;&gt;Node3</title>
<path fill="none" stroke="midnightblue" d="M106.008,-112.324C93.7997,-103.979 75.1224,-91.2122 60.6979,-81.3524"/>
<polygon fill="midnightblue" stroke="midnightblue" points="62.5928,-78.4082 52.3621,-75.6545 58.6426,-84.1871 62.5928,-78.4082"/>
</g>
<!-- Node6&#45;&gt;Node4 -->
<g id="edge8" class="edge"><title>Node6&#45;&gt;Node4</title>
<path fill="none" stroke="midnightblue" d="M133.804,-112.324C148.604,-103.822 171.395,-90.7288 188.683,-80.7975"/>
<polygon fill="midnightblue" stroke="midnightblue" points="190.708,-83.6707 197.636,-75.6545 187.221,-77.6009 190.708,-83.6707"/>
</g>
<!-- Node7 -->
<g id="node7" class="node"><title>Node7</title>
<g id="a_node7"><a xlink:href="_should_delete_8h.html" target="_top" xlink:title="ShouldDelete.h">
<polygon fill="none" stroke="black" points="86.2008,-56.5 86.2008,-75.5 169.201,-75.5 169.201,-56.5 86.2008,-56.5"/>
<text text-anchor="middle" x="127.701" y="-63.5" font-family="Helvetica,sans-Serif" font-size="10.00">ShouldDelete.h</text>
</a>
</g>
</g>
<!-- Node6&#45;&gt;Node7 -->
<g id="edge9" class="edge"><title>Node6&#45;&gt;Node7</title>
<path fill="none" stroke="midnightblue" d="M120.187,-112.083C121.38,-104.927 123.095,-94.6353 124.586,-85.6911"/>
<polygon fill="midnightblue" stroke="midnightblue" points="128.051,-86.1904 126.242,-75.7511 121.146,-85.0396 128.051,-86.1904"/>
</g>
</g>
</svg>
