<?xml version="1.0" encoding="UTF-8" standalone="no"?>
<!DOCTYPE svg PUBLIC "-//W3C//DTD SVG 1.1//EN"
 "http://www.w3.org/Graphics/SVG/1.1/DTD/svg11.dtd">
<!-- Generated by graphviz version 2.34.0 (20140110.0949)
 -->
<!-- Title: include/DNS.h Pages: 1 -->
<svg width="645pt" height="252pt"
 viewBox="0.00 0.00 644.59 252.00" xmlns="http://www.w3.org/2000/svg" xmlns:xlink="http://www.w3.org/1999/xlink">
<g id="graph0" class="graph" transform="scale(1 1) rotate(0) translate(4 248)">
<title>include/DNS.h</title>
<!-- Node1 -->
<g id="node1" class="node"><title>Node1</title>
<polygon fill="#bfbfbf" stroke="black" points="340.593,-224.5 340.593,-243.5 420.593,-243.5 420.593,-224.5 340.593,-224.5"/>
<text text-anchor="middle" x="380.593" y="-231.5" font-family="Helvetica,sans-Serif" font-size="10.00">include/DNS.h</text>
</g>
<!-- Node2 -->
<g id="node2" class="node"><title>Node2</title>
<polygon fill="none" stroke="#bfbfbf" points="316.093,-0.5 316.093,-19.5 389.093,-19.5 389.093,-0.5 316.093,-0.5"/>
<text text-anchor="middle" x="352.593" y="-7.5" font-family="Helvetica,sans-Serif" font-size="10.00">event2/dns.h</text>
</g>
<!-- Node1&#45;&gt;Node2 -->
<g id="edge1" class="edge"><title>Node1&#45;&gt;Node2</title>
<path fill="none" stroke="midnightblue" d="M340.395,-230.153C266.836,-224.469 113.704,-210.314 65.5934,-188 31.6081,-172.238 17.9403,-166.175 2.59344,-132 -9.03567,-106.104 24.4363,-56.8875 25.5934,-56 73.3042,-19.4088 229.512,-29.0411 305.765,-19.8227"/>
<polygon fill="midnightblue" stroke="midnightblue" points="306.557,-23.2459 315.974,-18.3901 305.585,-16.3138 306.557,-23.2459"/>
</g>
<!-- Node3 -->
<g id="node3" class="node"><title>Node3</title>
<g id="a_node3"><a xlink:href="_should_delete_8h.html" target="_top" xlink:title="ShouldDelete.h">
<polygon fill="none" stroke="black" points="35.0934,-56.5 35.0934,-75.5 118.093,-75.5 118.093,-56.5 35.0934,-56.5"/>
<text text-anchor="middle" x="76.5934" y="-63.5" font-family="Helvetica,sans-Serif" font-size="10.00">ShouldDelete.h</text>
</a>
</g>
</g>
<!-- Node1&#45;&gt;Node3 -->
<g id="edge2" class="edge"><title>Node1&#45;&gt;Node3</title>
<path fill="none" stroke="midnightblue" d="M340.371,-228.127C253.089,-216.639 50.9039,-184.789 10.5934,-132 -4.48554,-112.253 22.6722,-92.6675 46.5798,-80.2402"/>
<polygon fill="midnightblue" stroke="midnightblue" points="48.3992,-83.2456 55.8224,-75.6861 45.3052,-76.9665 48.3992,-83.2456"/>
</g>
<!-- Node4 -->
<g id="node4" class="node"><title>Node4</title>
<g id="a_node4"><a xlink:href="_socket_8h.html" target="_top" xlink:title="Socket.h">
<polygon fill="none" stroke="black" points="260.593,-168.5 260.593,-187.5 316.593,-187.5 316.593,-168.5 260.593,-168.5"/>
<text text-anchor="middle" x="288.593" y="-175.5" font-family="Helvetica,sans-Serif" font-size="10.00">Socket.h</text>
</a>
</g>
</g>
<!-- Node1&#45;&gt;Node4 -->
<g id="edge3" class="edge"><title>Node1&#45;&gt;Node4</title>
<path fill="none" stroke="midnightblue" d="M365.812,-224.324C351.326,-215.822 329.02,-202.729 312.1,-192.797"/>
<polygon fill="midnightblue" stroke="midnightblue" points="313.734,-189.698 303.338,-187.655 310.191,-195.735 313.734,-189.698"/>
</g>
<!-- Node8 -->
<g id="node8" class="node"><title>Node8</title>
<g id="a_node8"><a xlink:href="_string_8h.html" target="_top" xlink:title="String.h">
<polygon fill="none" stroke="black" points="263.593,-56.5 263.593,-75.5 313.593,-75.5 313.593,-56.5 263.593,-56.5"/>
<text text-anchor="middle" x="288.593" y="-63.5" font-family="Helvetica,sans-Serif" font-size="10.00">String.h</text>
</a>
</g>
</g>
<!-- Node1&#45;&gt;Node8 -->
<g id="edge22" class="edge"><title>Node1&#45;&gt;Node8</title>
<path fill="none" stroke="midnightblue" d="M379.039,-224.441C374.975,-203.711 362.572,-149.739 337.593,-112 330,-100.528 318.866,-89.9898 309.128,-81.9998"/>
<polygon fill="midnightblue" stroke="midnightblue" points="311.086,-79.0871 301.056,-75.6748 306.769,-84.5973 311.086,-79.0871"/>
</g>
<!-- Node14 -->
<g id="node14" class="node"><title>Node14</title>
<g id="a_node14"><a xlink:href="_event_8h.html" target="_top" xlink:title="Event.h">
<polygon fill="none" stroke="black" points="547.593,-56.5 547.593,-75.5 597.593,-75.5 597.593,-56.5 547.593,-56.5"/>
<text text-anchor="middle" x="572.593" y="-63.5" font-family="Helvetica,sans-Serif" font-size="10.00">Event.h</text>
</a>
</g>
</g>
<!-- Node1&#45;&gt;Node14 -->
<g id="edge23" class="edge"><title>Node1&#45;&gt;Node14</title>
<path fill="none" stroke="midnightblue" d="M390.646,-224.309C421.491,-197.64 515.091,-116.716 554.644,-82.5186"/>
<polygon fill="midnightblue" stroke="midnightblue" points="557.365,-84.7931 562.641,-75.6051 552.787,-79.4978 557.365,-84.7931"/>
</g>
<!-- Node16 -->
<g id="node16" class="node"><title>Node16</title>
<polygon fill="none" stroke="#bfbfbf" points="520.593,-168.5 520.593,-187.5 564.593,-187.5 564.593,-168.5 520.593,-168.5"/>
<text text-anchor="middle" x="542.593" y="-175.5" font-family="Helvetica,sans-Serif" font-size="10.00">vector</text>
</g>
<!-- Node1&#45;&gt;Node16 -->
<g id="edge24" class="edge"><title>Node1&#45;&gt;Node16</title>
<path fill="none" stroke="midnightblue" d="M406.263,-224.444C434.558,-215.012 480.109,-199.828 510.681,-189.637"/>
<polygon fill="midnightblue" stroke="midnightblue" points="512.048,-192.871 520.428,-186.388 509.835,-186.23 512.048,-192.871"/>
</g>
<!-- Node17 -->
<g id="node17" class="node"><title>Node17</title>
<polygon fill="none" stroke="#bfbfbf" points="582.593,-168.5 582.593,-187.5 636.593,-187.5 636.593,-168.5 582.593,-168.5"/>
<text text-anchor="middle" x="609.593" y="-175.5" font-family="Helvetica,sans-Serif" font-size="10.00">iostream</text>
</g>
<!-- Node1&#45;&gt;Node17 -->
<g id="edge25" class="edge"><title>Node1&#45;&gt;Node17</title>
<path fill="none" stroke="midnightblue" d="M417.995,-224.465C454.855,-216.012 513.038,-202.561 572.533,-188.229"/>
<polygon fill="midnightblue" stroke="midnightblue" points="573.579,-191.577 582.478,-185.828 571.936,-184.773 573.579,-191.577"/>
</g>
<!-- Node5 -->
<g id="node5" class="node"><title>Node5</title>
<polygon fill="none" stroke="#bfbfbf" points="19.5934,-112.5 19.5934,-131.5 125.593,-131.5 125.593,-112.5 19.5934,-112.5"/>
<text text-anchor="middle" x="72.5934" y="-119.5" font-family="Helvetica,sans-Serif" font-size="10.00">event2/bufferevent.h</text>
</g>
<!-- Node4&#45;&gt;Node5 -->
<g id="edge4" class="edge"><title>Node4&#45;&gt;Node5</title>
<path fill="none" stroke="midnightblue" d="M260.355,-169.94C223.831,-160.809 159.809,-144.804 116.809,-134.054"/>
<polygon fill="midnightblue" stroke="midnightblue" points="117.448,-130.606 106.898,-131.576 115.75,-137.397 117.448,-130.606"/>
</g>
<!-- Node6 -->
<g id="node6" class="node"><title>Node6</title>
<g id="a_node6"><a xlink:href="defines_8h.html" target="_top" xlink:title="defines.h">
<polygon fill="none" stroke="black" points="157.593,-56.5 157.593,-75.5 213.593,-75.5 213.593,-56.5 157.593,-56.5"/>
<text text-anchor="middle" x="185.593" y="-63.5" font-family="Helvetica,sans-Serif" font-size="10.00">defines.h</text>
</a>
</g>
</g>
<!-- Node4&#45;&gt;Node6 -->
<g id="edge5" class="edge"><title>Node4&#45;&gt;Node6</title>
<path fill="none" stroke="midnightblue" d="M260.386,-174.828C232.803,-171.032 192.18,-160.607 172.593,-132 163.072,-118.093 168.699,-98.825 175.259,-84.8811"/>
<polygon fill="midnightblue" stroke="midnightblue" points="178.464,-86.3049 179.997,-75.8216 172.261,-83.0609 178.464,-86.3049"/>
</g>
<!-- Node7 -->
<g id="node7" class="node"><title>Node7</title>
<g id="a_node7"><a xlink:href="_closable_8h.html" target="_top" xlink:title="Closable.h">
<polygon fill="none" stroke="black" points="182.093,-112.5 182.093,-131.5 245.093,-131.5 245.093,-112.5 182.093,-112.5"/>
<text text-anchor="middle" x="213.593" y="-119.5" font-family="Helvetica,sans-Serif" font-size="10.00">Closable.h</text>
</a>
</g>
</g>
<!-- Node4&#45;&gt;Node7 -->
<g id="edge6" class="edge"><title>Node4&#45;&gt;Node7</title>
<path fill="none" stroke="midnightblue" d="M276.543,-168.324C265.13,-160.107 247.762,-147.602 234.159,-137.807"/>
<polygon fill="midnightblue" stroke="midnightblue" points="236.023,-134.837 225.863,-131.834 231.933,-140.517 236.023,-134.837"/>
</g>
<!-- Node4&#45;&gt;Node8 -->
<g id="edge7" class="edge"><title>Node4&#45;&gt;Node8</title>
<path fill="none" stroke="midnightblue" d="M297.881,-168.395C306.174,-160.025 317.737,-146.483 322.593,-132 328.439,-114.567 316.877,-96.1238 305.683,-83.3542"/>
<polygon fill="midnightblue" stroke="midnightblue" points="307.987,-80.6977 298.567,-75.8497 302.908,-85.5143 307.987,-80.6977"/>
</g>
<!-- Node10 -->
<g id="node10" class="node"><title>Node10</title>
<g id="a_node10"><a xlink:href="_module_8h.html" target="_top" xlink:title="Module.h">
<polygon fill="none" stroke="black" points="408.593,-112.5 408.593,-131.5 464.593,-131.5 464.593,-112.5 408.593,-112.5"/>
<text text-anchor="middle" x="436.593" y="-119.5" font-family="Helvetica,sans-Serif" font-size="10.00">Module.h</text>
</a>
</g>
</g>
<!-- Node4&#45;&gt;Node10 -->
<g id="edge9" class="edge"><title>Node4&#45;&gt;Node10</title>
<path fill="none" stroke="midnightblue" d="M312.044,-168.444C336.726,-159.438 375.779,-145.189 403.57,-135.049"/>
<polygon fill="midnightblue" stroke="midnightblue" points="405.058,-138.232 413.252,-131.516 402.658,-131.656 405.058,-138.232"/>
</g>
<!-- Node15 -->
<g id="node15" class="node"><title>Node15</title>
<g id="a_node15"><a xlink:href="_writer_8h.html" target="_top" xlink:title="Writer.h">
<polygon fill="none" stroke="black" points="263.093,-112.5 263.093,-131.5 314.093,-131.5 314.093,-112.5 263.093,-112.5"/>
<text text-anchor="middle" x="288.593" y="-119.5" font-family="Helvetica,sans-Serif" font-size="10.00">Writer.h</text>
</a>
</g>
</g>
<!-- Node4&#45;&gt;Node15 -->
<g id="edge18" class="edge"><title>Node4&#45;&gt;Node15</title>
<path fill="none" stroke="midnightblue" d="M288.593,-168.083C288.593,-161.006 288.593,-150.861 288.593,-141.986"/>
<polygon fill="midnightblue" stroke="midnightblue" points="292.094,-141.751 288.593,-131.751 285.094,-141.751 292.094,-141.751"/>
</g>
<!-- Node9 -->
<g id="node9" class="node"><title>Node9</title>
<polygon fill="none" stroke="#bfbfbf" points="257.093,-0.5 257.093,-19.5 298.093,-19.5 298.093,-0.5 257.093,-0.5"/>
<text text-anchor="middle" x="277.593" y="-7.5" font-family="Helvetica,sans-Serif" font-size="10.00">string</text>
</g>
<!-- Node8&#45;&gt;Node9 -->
<g id="edge8" class="edge"><title>Node8&#45;&gt;Node9</title>
<path fill="none" stroke="midnightblue" d="M286.777,-56.083C285.319,-48.9272 283.223,-38.6353 281.401,-29.6911"/>
<polygon fill="midnightblue" stroke="midnightblue" points="284.802,-28.8512 279.376,-19.7511 277.943,-30.2485 284.802,-28.8512"/>
</g>
<!-- Node10&#45;&gt;Node2 -->
<g id="edge10" class="edge"><title>Node10&#45;&gt;Node2</title>
<path fill="none" stroke="midnightblue" d="M426.582,-112.314C416.96,-103.676 402.337,-89.7595 391.593,-76 379.977,-61.1214 369.134,-42.5098 361.845,-29.0194"/>
<polygon fill="midnightblue" stroke="midnightblue" points="364.77,-27.0617 357.01,-19.8481 358.577,-30.3263 364.77,-27.0617"/>
</g>
<!-- Node10&#45;&gt;Node8 -->
<g id="edge14" class="edge"><title>Node10&#45;&gt;Node8</title>
<path fill="none" stroke="midnightblue" d="M413.142,-112.444C388.461,-103.438 349.408,-89.1891 321.617,-79.049"/>
<polygon fill="midnightblue" stroke="midnightblue" points="322.529,-75.6561 311.935,-75.5164 320.129,-82.2321 322.529,-75.6561"/>
</g>
<!-- Node11 -->
<g id="node11" class="node"><title>Node11</title>
<polygon fill="none" stroke="#bfbfbf" points="475.093,-0.5 475.093,-19.5 556.093,-19.5 556.093,-0.5 475.093,-0.5"/>
<text text-anchor="middle" x="515.593" y="-7.5" font-family="Helvetica,sans-Serif" font-size="10.00">event2/event.h</text>
</g>
<!-- Node10&#45;&gt;Node11 -->
<g id="edge11" class="edge"><title>Node10&#45;&gt;Node11</title>
<path fill="none" stroke="midnightblue" d="M425.013,-112.343C409.471,-99.6509 385.273,-75.3952 398.593,-56 413.591,-34.1624 440.78,-22.9179 465.175,-17.1299"/>
<polygon fill="midnightblue" stroke="midnightblue" points="466.003,-20.5322 475.06,-15.0348 464.552,-13.6843 466.003,-20.5322"/>
</g>
<!-- Node12 -->
<g id="node12" class="node"><title>Node12</title>
<polygon fill="none" stroke="#bfbfbf" points="408.093,-56.5 408.093,-75.5 481.093,-75.5 481.093,-56.5 408.093,-56.5"/>
<text text-anchor="middle" x="444.593" y="-63.5" font-family="Helvetica,sans-Serif" font-size="10.00">libconfig.h++</text>
</g>
<!-- Node10&#45;&gt;Node12 -->
<g id="edge12" class="edge"><title>Node10&#45;&gt;Node12</title>
<path fill="none" stroke="midnightblue" d="M437.914,-112.083C438.975,-104.927 440.499,-94.6353 441.824,-85.6911"/>
<polygon fill="midnightblue" stroke="midnightblue" points="445.294,-86.1561 443.297,-75.7511 438.369,-85.1302 445.294,-86.1561"/>
</g>
<!-- Node13 -->
<g id="node13" class="node"><title>Node13</title>
<polygon fill="none" stroke="#bfbfbf" points="499.593,-56.5 499.593,-75.5 529.593,-75.5 529.593,-56.5 499.593,-56.5"/>
<text text-anchor="middle" x="514.593" y="-63.5" font-family="Helvetica,sans-Serif" font-size="10.00">set</text>
</g>
<!-- Node10&#45;&gt;Node13 -->
<g id="edge13" class="edge"><title>Node10&#45;&gt;Node13</title>
<path fill="none" stroke="midnightblue" d="M449.125,-112.324C461.179,-103.979 479.62,-91.2122 493.862,-81.3524"/>
<polygon fill="midnightblue" stroke="midnightblue" points="495.863,-84.2243 502.092,-75.6545 491.878,-78.469 495.863,-84.2243"/>
</g>
<!-- Node10&#45;&gt;Node14 -->
<g id="edge15" class="edge"><title>Node10&#45;&gt;Node14</title>
<path fill="none" stroke="midnightblue" d="M458.143,-112.444C480.624,-103.517 516.081,-89.4387 541.573,-79.3168"/>
<polygon fill="midnightblue" stroke="midnightblue" points="543.142,-82.4598 551.145,-75.5164 540.559,-75.9539 543.142,-82.4598"/>
</g>
<!-- Node14&#45;&gt;Node2 -->
<g id="edge16" class="edge"><title>Node14&#45;&gt;Node2</title>
<path fill="none" stroke="midnightblue" d="M547.358,-58.2558C544.406,-57.4858 541.435,-56.7196 538.593,-56 491.197,-43.9951 436.827,-30.9216 399.164,-21.9753"/>
<polygon fill="midnightblue" stroke="midnightblue" points="399.541,-18.4678 389.004,-19.5657 397.926,-25.2789 399.541,-18.4678"/>
</g>
<!-- Node14&#45;&gt;Node11 -->
<g id="edge17" class="edge"><title>Node14&#45;&gt;Node11</title>
<path fill="none" stroke="midnightblue" d="M563.435,-56.324C555.092,-48.4196 542.561,-36.5482 532.417,-26.9377"/>
<polygon fill="midnightblue" stroke="midnightblue" points="534.585,-24.1705 524.918,-19.8339 529.771,-29.2522 534.585,-24.1705"/>
</g>
<!-- Node15&#45;&gt;Node3 -->
<g id="edge21" class="edge"><title>Node15&#45;&gt;Node3</title>
<path fill="none" stroke="midnightblue" d="M262.981,-114.405C259.82,-113.594 256.633,-112.777 253.593,-112 208.161,-100.383 156.145,-87.1693 120.318,-78.0811"/>
<polygon fill="midnightblue" stroke="midnightblue" points="120.757,-74.5817 110.203,-75.5158 119.036,-81.3668 120.757,-74.5817"/>
</g>
<!-- Node15&#45;&gt;Node6 -->
<g id="edge19" class="edge"><title>Node15&#45;&gt;Node6</title>
<path fill="none" stroke="midnightblue" d="M272.045,-112.324C255.602,-103.703 230.159,-90.3643 211.125,-80.3855"/>
<polygon fill="midnightblue" stroke="midnightblue" points="212.583,-77.198 202.101,-75.6545 209.333,-83.3977 212.583,-77.198"/>
</g>
<!-- Node15&#45;&gt;Node8 -->
<g id="edge20" class="edge"><title>Node15&#45;&gt;Node8</title>
<path fill="none" stroke="midnightblue" d="M288.593,-112.083C288.593,-105.006 288.593,-94.8611 288.593,-85.9865"/>
<polygon fill="midnightblue" stroke="midnightblue" points="292.094,-85.751 288.593,-75.7511 285.094,-85.7511 292.094,-85.751"/>
</g>
</g>
</svg>
