<?xml version="1.0" encoding="UTF-8" standalone="no"?>
<!DOCTYPE svg PUBLIC "-//W3C//DTD SVG 1.1//EN"
 "http://www.w3.org/Graphics/SVG/1.1/DTD/svg11.dtd">
<!-- Generated by graphviz version 2.34.0 (20140110.0949)
 -->
<!-- Title: include/DNS.h Pages: 1 -->
<svg width="643pt" height="252pt"
 viewBox="0.00 0.00 643.28 252.00" xmlns="http://www.w3.org/2000/svg" xmlns:xlink="http://www.w3.org/1999/xlink">
<g id="graph0" class="graph" transform="scale(1 1) rotate(0) translate(4 248)">
<title>include/DNS.h</title>
<!-- Node1 -->
<g id="node1" class="node"><title>Node1</title>
<polygon fill="#bfbfbf" stroke="black" points="339.276,-224.5 339.276,-243.5 419.276,-243.5 419.276,-224.5 339.276,-224.5"/>
<text text-anchor="middle" x="379.276" y="-231.5" font-family="Helvetica,sans-Serif" font-size="10.00">include/DNS.h</text>
</g>
<!-- Node2 -->
<g id="node2" class="node"><title>Node2</title>
<polygon fill="none" stroke="#bfbfbf" points="348.776,-0.5 348.776,-19.5 421.776,-19.5 421.776,-0.5 348.776,-0.5"/>
<text text-anchor="middle" x="385.276" y="-7.5" font-family="Helvetica,sans-Serif" font-size="10.00">event2/dns.h</text>
</g>
<!-- Node1&#45;&gt;Node2 -->
<g id="edge1" class="edge"><title>Node1&#45;&gt;Node2</title>
<path fill="none" stroke="midnightblue" d="M339.077,-230.153C265.518,-224.469 112.386,-210.314 64.2755,-188 24.4739,-169.54 -6.21255,-155.23 1.27555,-112 5.78617,-85.9592 0.564367,-72.4169 21.2755,-56 74.7769,-13.5916 253.833,-29.4152 338.569,-19.7831"/>
<polygon fill="midnightblue" stroke="midnightblue" points="339.213,-23.2283 348.664,-18.4389 338.289,-16.2895 339.213,-23.2283"/>
</g>
<!-- Node3 -->
<g id="node3" class="node"><title>Node3</title>
<g id="a_node3"><a xlink:href="_should_delete_8h.html" target="_top" xlink:title="ShouldDelete.h">
<polygon fill="none" stroke="black" points="30.7755,-56.5 30.7755,-75.5 113.776,-75.5 113.776,-56.5 30.7755,-56.5"/>
<text text-anchor="middle" x="72.2755" y="-63.5" font-family="Helvetica,sans-Serif" font-size="10.00">ShouldDelete.h</text>
</a>
</g>
</g>
<!-- Node1&#45;&gt;Node3 -->
<g id="edge2" class="edge"><title>Node1&#45;&gt;Node3</title>
<path fill="none" stroke="midnightblue" d="M339.053,-228.127C251.771,-216.639 49.586,-184.789 9.27555,-132 -5.54369,-112.593 20.8329,-92.7998 43.8579,-80.2379"/>
<polygon fill="midnightblue" stroke="midnightblue" points="45.4753,-83.3419 52.7458,-75.6354 42.2564,-77.1258 45.4753,-83.3419"/>
</g>
<!-- Node4 -->
<g id="node4" class="node"><title>Node4</title>
<g id="a_node4"><a xlink:href="_socket_8h.html" target="_top" xlink:title="Socket.h">
<polygon fill="none" stroke="black" points="259.276,-168.5 259.276,-187.5 315.276,-187.5 315.276,-168.5 259.276,-168.5"/>
<text text-anchor="middle" x="287.276" y="-175.5" font-family="Helvetica,sans-Serif" font-size="10.00">Socket.h</text>
</a>
</g>
</g>
<!-- Node1&#45;&gt;Node4 -->
<g id="edge3" class="edge"><title>Node1&#45;&gt;Node4</title>
<path fill="none" stroke="midnightblue" d="M364.494,-224.324C350.008,-215.822 327.702,-202.729 310.782,-192.797"/>
<polygon fill="midnightblue" stroke="midnightblue" points="312.416,-189.698 302.02,-187.655 308.873,-195.735 312.416,-189.698"/>
</g>
<!-- Node8 -->
<g id="node8" class="node"><title>Node8</title>
<g id="a_node8"><a xlink:href="_string_8h.html" target="_top" xlink:title="String.h">
<polygon fill="none" stroke="black" points="296.276,-56.5 296.276,-75.5 346.276,-75.5 346.276,-56.5 296.276,-56.5"/>
<text text-anchor="middle" x="321.276" y="-63.5" font-family="Helvetica,sans-Serif" font-size="10.00">String.h</text>
</a>
</g>
</g>
<!-- Node1&#45;&gt;Node8 -->
<g id="edge21" class="edge"><title>Node1&#45;&gt;Node8</title>
<path fill="none" stroke="midnightblue" d="M376.344,-224.484C369.533,-204.712 352.09,-154.169 337.276,-112 334.18,-103.188 330.711,-93.4188 327.796,-85.2404"/>
<polygon fill="midnightblue" stroke="midnightblue" points="331.02,-83.8614 324.362,-75.62 324.428,-86.2146 331.02,-83.8614"/>
</g>
<!-- Node13 -->
<g id="node13" class="node"><title>Node13</title>
<g id="a_node13"><a xlink:href="_event_8h.html" target="_top" xlink:title="Event.h">
<polygon fill="none" stroke="black" points="488.276,-56.5 488.276,-75.5 538.276,-75.5 538.276,-56.5 488.276,-56.5"/>
<text text-anchor="middle" x="513.276" y="-63.5" font-family="Helvetica,sans-Serif" font-size="10.00">Event.h</text>
</a>
</g>
</g>
<!-- Node1&#45;&gt;Node13 -->
<g id="edge22" class="edge"><title>Node1&#45;&gt;Node13</title>
<path fill="none" stroke="midnightblue" d="M388.319,-224.297C405.652,-207.383 444.308,-168.526 472.276,-132 484.024,-116.656 495.603,-97.8671 503.444,-84.4434"/>
<polygon fill="midnightblue" stroke="midnightblue" points="506.495,-86.1578 508.441,-75.7431 500.425,-82.6713 506.495,-86.1578"/>
</g>
<!-- Node15 -->
<g id="node15" class="node"><title>Node15</title>
<polygon fill="none" stroke="#bfbfbf" points="519.276,-168.5 519.276,-187.5 563.276,-187.5 563.276,-168.5 519.276,-168.5"/>
<text text-anchor="middle" x="541.276" y="-175.5" font-family="Helvetica,sans-Serif" font-size="10.00">vector</text>
</g>
<!-- Node1&#45;&gt;Node15 -->
<g id="edge23" class="edge"><title>Node1&#45;&gt;Node15</title>
<path fill="none" stroke="midnightblue" d="M404.945,-224.444C433.24,-215.012 478.791,-199.828 509.363,-189.637"/>
<polygon fill="midnightblue" stroke="midnightblue" points="510.73,-192.871 519.11,-186.388 508.517,-186.23 510.73,-192.871"/>
</g>
<!-- Node16 -->
<g id="node16" class="node"><title>Node16</title>
<polygon fill="none" stroke="#bfbfbf" points="581.276,-168.5 581.276,-187.5 635.276,-187.5 635.276,-168.5 581.276,-168.5"/>
<text text-anchor="middle" x="608.276" y="-175.5" font-family="Helvetica,sans-Serif" font-size="10.00">iostream</text>
</g>
<!-- Node1&#45;&gt;Node16 -->
<g id="edge24" class="edge"><title>Node1&#45;&gt;Node16</title>
<path fill="none" stroke="midnightblue" d="M416.677,-224.465C453.537,-216.012 511.72,-202.561 571.215,-188.229"/>
<polygon fill="midnightblue" stroke="midnightblue" points="572.261,-191.577 581.16,-185.828 570.618,-184.773 572.261,-191.577"/>
</g>
<!-- Node5 -->
<g id="node5" class="node"><title>Node5</title>
<polygon fill="none" stroke="#bfbfbf" points="18.2755,-112.5 18.2755,-131.5 124.276,-131.5 124.276,-112.5 18.2755,-112.5"/>
<text text-anchor="middle" x="71.2755" y="-119.5" font-family="Helvetica,sans-Serif" font-size="10.00">event2/bufferevent.h</text>
</g>
<!-- Node4&#45;&gt;Node5 -->
<g id="edge4" class="edge"><title>Node4&#45;&gt;Node5</title>
<path fill="none" stroke="midnightblue" d="M259.037,-169.94C222.513,-160.809 158.491,-144.804 115.491,-134.054"/>
<polygon fill="midnightblue" stroke="midnightblue" points="116.13,-130.606 105.58,-131.576 114.432,-137.397 116.13,-130.606"/>
</g>
<!-- Node6 -->
<g id="node6" class="node"><title>Node6</title>
<g id="a_node6"><a xlink:href="defines_8h.html" target="_top" xlink:title="defines.h">
<polygon fill="none" stroke="black" points="192.276,-56.5 192.276,-75.5 248.276,-75.5 248.276,-56.5 192.276,-56.5"/>
<text text-anchor="middle" x="220.276" y="-63.5" font-family="Helvetica,sans-Serif" font-size="10.00">defines.h</text>
</a>
</g>
</g>
<!-- Node4&#45;&gt;Node6 -->
<g id="edge5" class="edge"><title>Node4&#45;&gt;Node6</title>
<path fill="none" stroke="midnightblue" d="M259.068,-174.828C231.485,-171.032 190.862,-160.607 171.276,-132 159.063,-114.163 178.94,-94.4342 196.919,-81.4433"/>
<polygon fill="midnightblue" stroke="midnightblue" points="199.143,-84.1633 205.443,-75.645 195.206,-78.3754 199.143,-84.1633"/>
</g>
<!-- Node7 -->
<g id="node7" class="node"><title>Node7</title>
<g id="a_node7"><a xlink:href="_closable_8h.html" target="_top" xlink:title="Closable.h">
<polygon fill="none" stroke="black" points="180.776,-112.5 180.776,-131.5 243.776,-131.5 243.776,-112.5 180.776,-112.5"/>
<text text-anchor="middle" x="212.276" y="-119.5" font-family="Helvetica,sans-Serif" font-size="10.00">Closable.h</text>
</a>
</g>
</g>
<!-- Node4&#45;&gt;Node7 -->
<g id="edge6" class="edge"><title>Node4&#45;&gt;Node7</title>
<path fill="none" stroke="midnightblue" d="M275.225,-168.324C263.812,-160.107 246.445,-147.602 232.841,-137.807"/>
<polygon fill="midnightblue" stroke="midnightblue" points="234.705,-134.837 224.545,-131.834 230.615,-140.517 234.705,-134.837"/>
</g>
<!-- Node4&#45;&gt;Node8 -->
<g id="edge7" class="edge"><title>Node4&#45;&gt;Node8</title>
<path fill="none" stroke="midnightblue" d="M296.563,-168.395C304.856,-160.025 316.419,-146.483 321.276,-132 326.27,-117.105 325.832,-99.1868 324.394,-85.9391"/>
<polygon fill="midnightblue" stroke="midnightblue" points="327.814,-85.1219 322.983,-75.6927 320.88,-86.0767 327.814,-85.1219"/>
</g>
<!-- Node10 -->
<g id="node10" class="node"><title>Node10</title>
<g id="a_node10"><a xlink:href="_module_8h.html" target="_top" xlink:title="Module.h">
<polygon fill="none" stroke="black" points="407.276,-112.5 407.276,-131.5 463.276,-131.5 463.276,-112.5 407.276,-112.5"/>
<text text-anchor="middle" x="435.276" y="-119.5" font-family="Helvetica,sans-Serif" font-size="10.00">Module.h</text>
</a>
</g>
</g>
<!-- Node4&#45;&gt;Node10 -->
<g id="edge9" class="edge"><title>Node4&#45;&gt;Node10</title>
<path fill="none" stroke="midnightblue" d="M310.727,-168.444C335.408,-159.438 374.461,-145.189 402.252,-135.049"/>
<polygon fill="midnightblue" stroke="midnightblue" points="403.74,-138.232 411.934,-131.516 401.34,-131.656 403.74,-138.232"/>
</g>
<!-- Node14 -->
<g id="node14" class="node"><title>Node14</title>
<g id="a_node14"><a xlink:href="_writer_8h.html" target="_top" xlink:title="Writer.h">
<polygon fill="none" stroke="black" points="261.776,-112.5 261.776,-131.5 312.776,-131.5 312.776,-112.5 261.776,-112.5"/>
<text text-anchor="middle" x="287.276" y="-119.5" font-family="Helvetica,sans-Serif" font-size="10.00">Writer.h</text>
</a>
</g>
</g>
<!-- Node4&#45;&gt;Node14 -->
<g id="edge17" class="edge"><title>Node4&#45;&gt;Node14</title>
<path fill="none" stroke="midnightblue" d="M287.276,-168.083C287.276,-161.006 287.276,-150.861 287.276,-141.986"/>
<polygon fill="midnightblue" stroke="midnightblue" points="290.776,-141.751 287.276,-131.751 283.776,-141.751 290.776,-141.751"/>
</g>
<!-- Node9 -->
<g id="node9" class="node"><title>Node9</title>
<polygon fill="none" stroke="#bfbfbf" points="289.776,-0.5 289.776,-19.5 330.776,-19.5 330.776,-0.5 289.776,-0.5"/>
<text text-anchor="middle" x="310.276" y="-7.5" font-family="Helvetica,sans-Serif" font-size="10.00">string</text>
</g>
<!-- Node8&#45;&gt;Node9 -->
<g id="edge8" class="edge"><title>Node8&#45;&gt;Node9</title>
<path fill="none" stroke="midnightblue" d="M319.459,-56.083C318.001,-48.9272 315.905,-38.6353 314.083,-29.6911"/>
<polygon fill="midnightblue" stroke="midnightblue" points="317.484,-28.8512 312.058,-19.7511 310.625,-30.2485 317.484,-28.8512"/>
</g>
<!-- Node10&#45;&gt;Node2 -->
<g id="edge10" class="edge"><title>Node10&#45;&gt;Node2</title>
<path fill="none" stroke="midnightblue" d="M425.844,-112.291C417.296,-103.848 405.036,-90.2567 398.276,-76 391.342,-61.3772 388.103,-43.2058 386.592,-29.7969"/>
<polygon fill="midnightblue" stroke="midnightblue" points="390.077,-29.4777 385.686,-19.8359 383.106,-30.1119 390.077,-29.4777"/>
</g>
<!-- Node10&#45;&gt;Node8 -->
<g id="edge13" class="edge"><title>Node10&#45;&gt;Node8</title>
<path fill="none" stroke="midnightblue" d="M417.212,-112.444C398.701,-103.675 369.695,-89.9355 348.42,-79.8579"/>
<polygon fill="midnightblue" stroke="midnightblue" points="349.79,-76.6343 339.255,-75.5164 346.794,-82.9604 349.79,-76.6343"/>
</g>
<!-- Node11 -->
<g id="node11" class="node"><title>Node11</title>
<polygon fill="none" stroke="#bfbfbf" points="461.776,-0.5 461.776,-19.5 542.776,-19.5 542.776,-0.5 461.776,-0.5"/>
<text text-anchor="middle" x="502.276" y="-7.5" font-family="Helvetica,sans-Serif" font-size="10.00">event2/event.h</text>
</g>
<!-- Node10&#45;&gt;Node11 -->
<g id="edge11" class="edge"><title>Node10&#45;&gt;Node11</title>
<path fill="none" stroke="midnightblue" d="M431.98,-112.366C427.563,-99.2761 421.357,-74.0289 431.276,-56 439.163,-41.6632 453.761,-31.2525 467.679,-24.0792"/>
<polygon fill="midnightblue" stroke="midnightblue" points="469.568,-27.0578 477.115,-19.6217 466.578,-20.7285 469.568,-27.0578"/>
</g>
<!-- Node12 -->
<g id="node12" class="node"><title>Node12</title>
<polygon fill="none" stroke="#bfbfbf" points="440.276,-56.5 440.276,-75.5 470.276,-75.5 470.276,-56.5 440.276,-56.5"/>
<text text-anchor="middle" x="455.276" y="-63.5" font-family="Helvetica,sans-Serif" font-size="10.00">set</text>
</g>
<!-- Node10&#45;&gt;Node12 -->
<g id="edge12" class="edge"><title>Node10&#45;&gt;Node12</title>
<path fill="none" stroke="midnightblue" d="M438.578,-112.083C441.258,-104.849 445.124,-94.4087 448.462,-85.3968"/>
<polygon fill="midnightblue" stroke="midnightblue" points="451.843,-86.3442 452.034,-75.7511 445.279,-83.9129 451.843,-86.3442"/>
</g>
<!-- Node10&#45;&gt;Node13 -->
<g id="edge14" class="edge"><title>Node10&#45;&gt;Node13</title>
<path fill="none" stroke="midnightblue" d="M447.808,-112.324C459.861,-103.979 478.302,-91.2122 492.544,-81.3524"/>
<polygon fill="midnightblue" stroke="midnightblue" points="494.545,-84.2243 500.775,-75.6545 490.56,-78.469 494.545,-84.2243"/>
</g>
<!-- Node13&#45;&gt;Node2 -->
<g id="edge15" class="edge"><title>Node13&#45;&gt;Node2</title>
<path fill="none" stroke="midnightblue" d="M492.994,-56.4435C471.928,-47.5566 438.759,-33.5632 414.79,-23.4514"/>
<polygon fill="midnightblue" stroke="midnightblue" points="416.037,-20.1787 405.463,-19.5164 413.316,-26.6283 416.037,-20.1787"/>
</g>
<!-- Node13&#45;&gt;Node11 -->
<g id="edge16" class="edge"><title>Node13&#45;&gt;Node11</title>
<path fill="none" stroke="midnightblue" d="M511.459,-56.083C510.001,-48.9272 507.905,-38.6353 506.083,-29.6911"/>
<polygon fill="midnightblue" stroke="midnightblue" points="509.484,-28.8512 504.058,-19.7511 502.625,-30.2485 509.484,-28.8512"/>
</g>
<!-- Node14&#45;&gt;Node3 -->
<g id="edge20" class="edge"><title>Node14&#45;&gt;Node3</title>
<path fill="none" stroke="midnightblue" d="M261.666,-114.394C258.504,-113.584 255.316,-112.771 252.276,-112 206.04,-100.276 153.068,-87.059 116.622,-77.9987"/>
<polygon fill="midnightblue" stroke="midnightblue" points="117.349,-74.5729 106.8,-75.5581 115.661,-81.3663 117.349,-74.5729"/>
</g>
<!-- Node14&#45;&gt;Node6 -->
<g id="edge18" class="edge"><title>Node14&#45;&gt;Node6</title>
<path fill="none" stroke="midnightblue" d="M276.511,-112.324C266.509,-104.263 251.389,-92.0765 239.345,-82.3695"/>
<polygon fill="midnightblue" stroke="midnightblue" points="241.218,-79.3841 231.236,-75.8339 236.826,-84.8343 241.218,-79.3841"/>
</g>
<!-- Node14&#45;&gt;Node8 -->
<g id="edge19" class="edge"><title>Node14&#45;&gt;Node8</title>
<path fill="none" stroke="midnightblue" d="M292.89,-112.083C297.643,-104.534 304.594,-93.4948 310.427,-84.2298"/>
<polygon fill="midnightblue" stroke="midnightblue" points="313.399,-86.0783 315.766,-75.7511 307.476,-82.3486 313.399,-86.0783"/>
</g>
</g>
</svg>
