<?xml version="1.0" encoding="UTF-8" standalone="no"?>
<!DOCTYPE svg PUBLIC "-//W3C//DTD SVG 1.1//EN"
 "http://www.w3.org/Graphics/SVG/1.1/DTD/svg11.dtd">
<!-- Generated by graphviz version 2.34.0 (20140110.0949)
 -->
<!-- Title: include/DNS.h Pages: 1 -->
<svg width="857pt" height="252pt"
 viewBox="0.00 0.00 857.00 252.00" xmlns="http://www.w3.org/2000/svg" xmlns:xlink="http://www.w3.org/1999/xlink">
<g id="graph0" class="graph" transform="scale(1 1) rotate(0) translate(4 248)">
<title>include/DNS.h</title>
<!-- Node1 -->
<g id="node1" class="node"><title>Node1</title>
<polygon fill="#bfbfbf" stroke="black" points="490,-224.5 490,-243.5 570,-243.5 570,-224.5 490,-224.5"/>
<text text-anchor="middle" x="530" y="-231.5" font-family="Helvetica,sans-Serif" font-size="10.00">include/DNS.h</text>
</g>
<!-- Node2 -->
<g id="node2" class="node"><title>Node2</title>
<polygon fill="none" stroke="#bfbfbf" points="-0.5,-168.5 -0.5,-187.5 58.5,-187.5 58.5,-168.5 -0.5,-168.5"/>
<text text-anchor="middle" x="29" y="-175.5" font-family="Helvetica,sans-Serif" font-size="10.00">functional</text>
</g>
<!-- Node1&#45;&gt;Node2 -->
<g id="edge1" class="edge"><title>Node1&#45;&gt;Node2</title>
<path fill="none" stroke="midnightblue" d="M489.787,-230.447C409.994,-225.071 226.126,-211.136 73,-188 71.5545,-187.782 70.0846,-187.547 68.6018,-187.299"/>
<polygon fill="midnightblue" stroke="midnightblue" points="69.2103,-183.853 58.7474,-185.52 67.966,-190.741 69.2103,-183.853"/>
</g>
<!-- Node3 -->
<g id="node3" class="node"><title>Node3</title>
<polygon fill="none" stroke="#bfbfbf" points="162.5,-0.5 162.5,-19.5 235.5,-19.5 235.5,-0.5 162.5,-0.5"/>
<text text-anchor="middle" x="199" y="-7.5" font-family="Helvetica,sans-Serif" font-size="10.00">event2/dns.h</text>
</g>
<!-- Node1&#45;&gt;Node3 -->
<g id="edge2" class="edge"><title>Node1&#45;&gt;Node3</title>
<path fill="none" stroke="midnightblue" d="M489.838,-230.362C413.793,-224.903 251.848,-210.924 201,-188 160.481,-169.733 125.482,-155.184 136,-112 144.143,-78.568 168.343,-45.8999 184.269,-27.1441"/>
<polygon fill="midnightblue" stroke="midnightblue" points="186.962,-29.3817 190.917,-19.5527 181.696,-24.7701 186.962,-29.3817"/>
</g>
<!-- Node4 -->
<g id="node4" class="node"><title>Node4</title>
<g id="a_node4"><a xlink:href="_should_delete_8h.html" target="_top" xlink:title="ShouldDelete.h">
<polygon fill="none" stroke="black" points="658.5,-56.5 658.5,-75.5 741.5,-75.5 741.5,-56.5 658.5,-56.5"/>
<text text-anchor="middle" x="700" y="-63.5" font-family="Helvetica,sans-Serif" font-size="10.00">ShouldDelete.h</text>
</a>
</g>
</g>
<!-- Node1&#45;&gt;Node4 -->
<g id="edge3" class="edge"><title>Node1&#45;&gt;Node4</title>
<path fill="none" stroke="midnightblue" d="M553.255,-224.457C587.65,-210.578 651.603,-179.78 685,-132 694.434,-118.503 698.016,-99.9472 699.336,-86.1157"/>
<polygon fill="midnightblue" stroke="midnightblue" points="702.849,-86.0254 699.992,-75.8231 695.863,-85.5803 702.849,-86.0254"/>
</g>
<!-- Node5 -->
<g id="node5" class="node"><title>Node5</title>
<g id="a_node5"><a xlink:href="_socket_8h.html" target="_top" xlink:title="Socket.h">
<polygon fill="none" stroke="black" points="444,-168.5 444,-187.5 500,-187.5 500,-168.5 444,-168.5"/>
<text text-anchor="middle" x="472" y="-175.5" font-family="Helvetica,sans-Serif" font-size="10.00">Socket.h</text>
</a>
</g>
</g>
<!-- Node1&#45;&gt;Node5 -->
<g id="edge4" class="edge"><title>Node1&#45;&gt;Node5</title>
<path fill="none" stroke="midnightblue" d="M520.681,-224.324C512.107,-216.341 499.188,-204.313 488.812,-194.653"/>
<polygon fill="midnightblue" stroke="midnightblue" points="491.192,-192.086 481.488,-187.834 486.422,-197.21 491.192,-192.086"/>
</g>
<!-- Node10 -->
<g id="node10" class="node"><title>Node10</title>
<g id="a_node10"><a xlink:href="_string_8h.html" target="_top" xlink:title="String.h">
<polygon fill="none" stroke="black" points="482,-56.5 482,-75.5 532,-75.5 532,-56.5 482,-56.5"/>
<text text-anchor="middle" x="507" y="-63.5" font-family="Helvetica,sans-Serif" font-size="10.00">String.h</text>
</a>
</g>
</g>
<!-- Node1&#45;&gt;Node10 -->
<g id="edge25" class="edge"><title>Node1&#45;&gt;Node10</title>
<path fill="none" stroke="midnightblue" d="M532.851,-224.23C538.986,-203.924 551.879,-152.334 539,-112 535.659,-101.538 528.9,-91.4277 522.451,-83.4496"/>
<polygon fill="midnightblue" stroke="midnightblue" points="524.944,-80.9815 515.751,-75.7136 519.652,-85.5641 524.944,-80.9815"/>
</g>
<!-- Node17 -->
<g id="node17" class="node"><title>Node17</title>
<g id="a_node17"><a xlink:href="_event_8h.html" target="_top" xlink:title="Event.h">
<polygon fill="none" stroke="black" points="174,-56.5 174,-75.5 224,-75.5 224,-56.5 174,-56.5"/>
<text text-anchor="middle" x="199" y="-63.5" font-family="Helvetica,sans-Serif" font-size="10.00">Event.h</text>
</a>
</g>
</g>
<!-- Node1&#45;&gt;Node17 -->
<g id="edge26" class="edge"><title>Node1&#45;&gt;Node17</title>
<path fill="none" stroke="midnightblue" d="M489.76,-228.608C399.706,-217.865 186.489,-187.037 144,-132 129.993,-113.857 153.131,-93.8463 173.555,-80.8863"/>
<polygon fill="midnightblue" stroke="midnightblue" points="175.545,-83.7742 182.316,-75.6249 171.941,-77.7733 175.545,-83.7742"/>
</g>
<!-- Node19 -->
<g id="node19" class="node"><title>Node19</title>
<polygon fill="none" stroke="#bfbfbf" points="733,-168.5 733,-187.5 777,-187.5 777,-168.5 733,-168.5"/>
<text text-anchor="middle" x="755" y="-175.5" font-family="Helvetica,sans-Serif" font-size="10.00">vector</text>
</g>
<!-- Node1&#45;&gt;Node19 -->
<g id="edge27" class="edge"><title>Node1&#45;&gt;Node19</title>
<path fill="none" stroke="midnightblue" d="M566.262,-224.494C604.331,-215.534 665.916,-200.955 719,-188 720.267,-187.691 721.56,-187.374 722.865,-187.053"/>
<polygon fill="midnightblue" stroke="midnightblue" points="724.06,-190.363 732.925,-184.56 722.377,-183.568 724.06,-190.363"/>
</g>
<!-- Node20 -->
<g id="node20" class="node"><title>Node20</title>
<polygon fill="none" stroke="#bfbfbf" points="795,-168.5 795,-187.5 849,-187.5 849,-168.5 795,-168.5"/>
<text text-anchor="middle" x="822" y="-175.5" font-family="Helvetica,sans-Serif" font-size="10.00">iostream</text>
</g>
<!-- Node1&#45;&gt;Node20 -->
<g id="edge28" class="edge"><title>Node1&#45;&gt;Node20</title>
<path fill="none" stroke="midnightblue" d="M570.078,-226.858C618.641,-219.217 703.15,-205.284 784.96,-188.1"/>
<polygon fill="midnightblue" stroke="midnightblue" points="785.864,-191.486 794.921,-185.989 784.413,-184.638 785.864,-191.486"/>
</g>
<!-- Node6 -->
<g id="node6" class="node"><title>Node6</title>
<polygon fill="none" stroke="#bfbfbf" points="471.5,-112.5 471.5,-131.5 530.5,-131.5 530.5,-112.5 471.5,-112.5"/>
<text text-anchor="middle" x="501" y="-119.5" font-family="Helvetica,sans-Serif" font-size="10.00">stdexcept</text>
</g>
<!-- Node5&#45;&gt;Node6 -->
<g id="edge5" class="edge"><title>Node5&#45;&gt;Node6</title>
<path fill="none" stroke="midnightblue" d="M476.789,-168.083C480.758,-160.691 486.525,-149.953 491.435,-140.811"/>
<polygon fill="midnightblue" stroke="midnightblue" points="494.653,-142.217 496.3,-131.751 488.486,-138.905 494.653,-142.217"/>
</g>
<!-- Node7 -->
<g id="node7" class="node"><title>Node7</title>
<polygon fill="none" stroke="#bfbfbf" points="153,-112.5 153,-131.5 259,-131.5 259,-112.5 153,-112.5"/>
<text text-anchor="middle" x="206" y="-119.5" font-family="Helvetica,sans-Serif" font-size="10.00">event2/bufferevent.h</text>
</g>
<!-- Node5&#45;&gt;Node7 -->
<g id="edge6" class="edge"><title>Node5&#45;&gt;Node7</title>
<path fill="none" stroke="midnightblue" d="M443.533,-171.221C399.373,-162.256 313.678,-144.859 258.195,-133.596"/>
<polygon fill="midnightblue" stroke="midnightblue" points="258.7,-130.127 248.204,-131.568 257.307,-136.987 258.7,-130.127"/>
</g>
<!-- Node8 -->
<g id="node8" class="node"><title>Node8</title>
<g id="a_node8"><a xlink:href="defines_8h.html" target="_top" xlink:title="defines.h">
<polygon fill="none" stroke="black" points="574,-56.5 574,-75.5 630,-75.5 630,-56.5 574,-56.5"/>
<text text-anchor="middle" x="602" y="-63.5" font-family="Helvetica,sans-Serif" font-size="10.00">defines.h</text>
</a>
</g>
</g>
<!-- Node5&#45;&gt;Node8 -->
<g id="edge7" class="edge"><title>Node5&#45;&gt;Node8</title>
<path fill="none" stroke="midnightblue" d="M486.737,-168.346C500.746,-159.837 522.121,-146.109 539,-132 557.173,-116.809 575.785,-96.9752 588.019,-83.2306"/>
<polygon fill="midnightblue" stroke="midnightblue" points="590.789,-85.3812 594.752,-75.5556 585.526,-80.765 590.789,-85.3812"/>
</g>
<!-- Node9 -->
<g id="node9" class="node"><title>Node9</title>
<g id="a_node9"><a xlink:href="_closable_8h.html" target="_top" xlink:title="Closable.h">
<polygon fill="none" stroke="black" points="277.5,-112.5 277.5,-131.5 340.5,-131.5 340.5,-112.5 277.5,-112.5"/>
<text text-anchor="middle" x="309" y="-119.5" font-family="Helvetica,sans-Serif" font-size="10.00">Closable.h</text>
</a>
</g>
</g>
<!-- Node5&#45;&gt;Node9 -->
<g id="edge8" class="edge"><title>Node5&#45;&gt;Node9</title>
<path fill="none" stroke="midnightblue" d="M446.172,-168.444C418.751,-159.359 375.223,-144.939 344.568,-134.783"/>
<polygon fill="midnightblue" stroke="midnightblue" points="345.3,-131.339 334.707,-131.516 343.099,-137.984 345.3,-131.339"/>
</g>
<!-- Node5&#45;&gt;Node10 -->
<g id="edge9" class="edge"><title>Node5&#45;&gt;Node10</title>
<path fill="none" stroke="midnightblue" d="M467.8,-168.235C462.274,-155.409 454.135,-130.987 462,-112 466.92,-100.121 476.667,-89.7428 485.834,-81.9557"/>
<polygon fill="midnightblue" stroke="midnightblue" points="488.253,-84.5058 493.936,-75.5641 483.917,-79.0101 488.253,-84.5058"/>
</g>
<!-- Node13 -->
<g id="node13" class="node"><title>Node13</title>
<g id="a_node13"><a xlink:href="_module_8h.html" target="_top" xlink:title="Module.h">
<polygon fill="none" stroke="black" points="359,-112.5 359,-131.5 415,-131.5 415,-112.5 359,-112.5"/>
<text text-anchor="middle" x="387" y="-119.5" font-family="Helvetica,sans-Serif" font-size="10.00">Module.h</text>
</a>
</g>
</g>
<!-- Node5&#45;&gt;Node13 -->
<g id="edge12" class="edge"><title>Node5&#45;&gt;Node13</title>
<path fill="none" stroke="midnightblue" d="M458.343,-168.324C445.084,-159.9 424.732,-146.971 409.154,-137.074"/>
<polygon fill="midnightblue" stroke="midnightblue" points="410.94,-134.063 400.623,-131.655 407.187,-139.971 410.94,-134.063"/>
</g>
<!-- Node18 -->
<g id="node18" class="node"><title>Node18</title>
<g id="a_node18"><a xlink:href="_writer_8h.html" target="_top" xlink:title="Writer.h">
<polygon fill="none" stroke="black" points="625.5,-112.5 625.5,-131.5 676.5,-131.5 676.5,-112.5 625.5,-112.5"/>
<text text-anchor="middle" x="651" y="-119.5" font-family="Helvetica,sans-Serif" font-size="10.00">Writer.h</text>
</a>
</g>
</g>
<!-- Node5&#45;&gt;Node18 -->
<g id="edge21" class="edge"><title>Node5&#45;&gt;Node18</title>
<path fill="none" stroke="midnightblue" d="M500.363,-168.444C531.542,-159.038 581.683,-143.911 615.461,-133.721"/>
<polygon fill="midnightblue" stroke="midnightblue" points="616.817,-136.968 625.38,-130.729 614.795,-130.266 616.817,-136.968"/>
</g>
<!-- Node11 -->
<g id="node11" class="node"><title>Node11</title>
<polygon fill="none" stroke="#bfbfbf" points="454.5,-0.5 454.5,-19.5 495.5,-19.5 495.5,-0.5 454.5,-0.5"/>
<text text-anchor="middle" x="475" y="-7.5" font-family="Helvetica,sans-Serif" font-size="10.00">string</text>
</g>
<!-- Node10&#45;&gt;Node11 -->
<g id="edge10" class="edge"><title>Node10&#45;&gt;Node11</title>
<path fill="none" stroke="midnightblue" d="M501.716,-56.083C497.289,-48.6127 490.837,-37.7244 485.382,-28.5199"/>
<polygon fill="midnightblue" stroke="midnightblue" points="488.295,-26.5697 480.186,-19.7511 482.273,-30.1383 488.295,-26.5697"/>
</g>
<!-- Node12 -->
<g id="node12" class="node"><title>Node12</title>
<polygon fill="none" stroke="#bfbfbf" points="513.5,-0.5 513.5,-19.5 562.5,-19.5 562.5,-0.5 513.5,-0.5"/>
<text text-anchor="middle" x="538" y="-7.5" font-family="Helvetica,sans-Serif" font-size="10.00">stdint.h</text>
</g>
<!-- Node10&#45;&gt;Node12 -->
<g id="edge11" class="edge"><title>Node10&#45;&gt;Node12</title>
<path fill="none" stroke="midnightblue" d="M512.119,-56.083C516.408,-48.6127 522.658,-37.7244 527.942,-28.5199"/>
<polygon fill="midnightblue" stroke="midnightblue" points="531.033,-30.1662 532.976,-19.7511 524.962,-26.6811 531.033,-30.1662"/>
</g>
<!-- Node13&#45;&gt;Node3 -->
<g id="edge13" class="edge"><title>Node13&#45;&gt;Node3</title>
<path fill="none" stroke="midnightblue" d="M358.962,-113.282C334.607,-105.858 298.954,-93.2234 271,-76 248.947,-62.4125 227.403,-41.6878 213.717,-27.3074"/>
<polygon fill="midnightblue" stroke="midnightblue" points="215.994,-24.6167 206.622,-19.6755 210.867,-29.3827 215.994,-24.6167"/>
</g>
<!-- Node13&#45;&gt;Node10 -->
<g id="edge17" class="edge"><title>Node13&#45;&gt;Node10</title>
<path fill="none" stroke="midnightblue" d="M406.014,-112.444C425.588,-103.636 456.308,-89.8116 478.729,-79.722"/>
<polygon fill="midnightblue" stroke="midnightblue" points="480.392,-82.8119 488.075,-75.5164 477.519,-76.4284 480.392,-82.8119"/>
</g>
<!-- Node14 -->
<g id="node14" class="node"><title>Node14</title>
<polygon fill="none" stroke="#bfbfbf" points="320.5,-0.5 320.5,-19.5 401.5,-19.5 401.5,-0.5 320.5,-0.5"/>
<text text-anchor="middle" x="361" y="-7.5" font-family="Helvetica,sans-Serif" font-size="10.00">event2/event.h</text>
</g>
<!-- Node13&#45;&gt;Node14 -->
<g id="edge14" class="edge"><title>Node13&#45;&gt;Node14</title>
<path fill="none" stroke="midnightblue" d="M394.419,-112.445C404.365,-99.8793 419.809,-75.7799 411,-56 405.432,-43.4981 394.484,-33.0124 384.249,-25.3167"/>
<polygon fill="midnightblue" stroke="midnightblue" points="386.156,-22.3794 375.952,-19.5256 382.149,-28.1193 386.156,-22.3794"/>
</g>
<!-- Node15 -->
<g id="node15" class="node"><title>Node15</title>
<polygon fill="none" stroke="#bfbfbf" points="280.5,-56.5 280.5,-75.5 353.5,-75.5 353.5,-56.5 280.5,-56.5"/>
<text text-anchor="middle" x="317" y="-63.5" font-family="Helvetica,sans-Serif" font-size="10.00">libconfig.h++</text>
</g>
<!-- Node13&#45;&gt;Node15 -->
<g id="edge15" class="edge"><title>Node13&#45;&gt;Node15</title>
<path fill="none" stroke="midnightblue" d="M375.753,-112.324C365.203,-104.185 349.199,-91.8395 336.558,-82.0874"/>
<polygon fill="midnightblue" stroke="midnightblue" points="338.507,-79.1707 328.451,-75.8339 334.231,-84.7132 338.507,-79.1707"/>
</g>
<!-- Node16 -->
<g id="node16" class="node"><title>Node16</title>
<polygon fill="none" stroke="#bfbfbf" points="372,-56.5 372,-75.5 402,-75.5 402,-56.5 372,-56.5"/>
<text text-anchor="middle" x="387" y="-63.5" font-family="Helvetica,sans-Serif" font-size="10.00">set</text>
</g>
<!-- Node13&#45;&gt;Node16 -->
<g id="edge16" class="edge"><title>Node13&#45;&gt;Node16</title>
<path fill="none" stroke="midnightblue" d="M387,-112.083C387,-105.006 387,-94.8611 387,-85.9865"/>
<polygon fill="midnightblue" stroke="midnightblue" points="390.5,-85.751 387,-75.7511 383.5,-85.7511 390.5,-85.751"/>
</g>
<!-- Node13&#45;&gt;Node17 -->
<g id="edge18" class="edge"><title>Node13&#45;&gt;Node17</title>
<path fill="none" stroke="midnightblue" d="M358.855,-112.916C325.571,-103.356 270.152,-87.4373 234.098,-77.0812"/>
<polygon fill="midnightblue" stroke="midnightblue" points="234.604,-73.5852 224.026,-74.1884 232.672,-80.3132 234.604,-73.5852"/>
</g>
<!-- Node17&#45;&gt;Node3 -->
<g id="edge19" class="edge"><title>Node17&#45;&gt;Node3</title>
<path fill="none" stroke="midnightblue" d="M199,-56.083C199,-49.0059 199,-38.8611 199,-29.9865"/>
<polygon fill="midnightblue" stroke="midnightblue" points="202.5,-29.751 199,-19.7511 195.5,-29.7511 202.5,-29.751"/>
</g>
<!-- Node17&#45;&gt;Node14 -->
<g id="edge20" class="edge"><title>Node17&#45;&gt;Node14</title>
<path fill="none" stroke="midnightblue" d="M224.312,-56.5625C251.496,-47.5014 294.898,-33.0342 325.489,-22.837"/>
<polygon fill="midnightblue" stroke="midnightblue" points="326.951,-26.0392 335.331,-19.5565 324.737,-19.3984 326.951,-26.0392"/>
</g>
<!-- Node18&#45;&gt;Node4 -->
<g id="edge24" class="edge"><title>Node18&#45;&gt;Node4</title>
<path fill="none" stroke="midnightblue" d="M659.091,-112.083C666.155,-104.298 676.588,-92.8015 685.149,-83.3665"/>
<polygon fill="midnightblue" stroke="midnightblue" points="687.931,-85.5087 692.059,-75.7511 682.747,-80.8047 687.931,-85.5087"/>
</g>
<!-- Node18&#45;&gt;Node8 -->
<g id="edge22" class="edge"><title>Node18&#45;&gt;Node8</title>
<path fill="none" stroke="midnightblue" d="M642.909,-112.083C635.845,-104.298 625.412,-92.8015 616.851,-83.3665"/>
<polygon fill="midnightblue" stroke="midnightblue" points="619.253,-80.8047 609.941,-75.7511 614.069,-85.5087 619.253,-80.8047"/>
</g>
<!-- Node18&#45;&gt;Node10 -->
<g id="edge23" class="edge"><title>Node18&#45;&gt;Node10</title>
<path fill="none" stroke="midnightblue" d="M628.183,-112.444C604.168,-103.438 566.171,-89.1891 539.131,-79.049"/>
<polygon fill="midnightblue" stroke="midnightblue" points="540.303,-75.7506 529.71,-75.5164 537.845,-82.3049 540.303,-75.7506"/>
</g>
</g>
</svg>
