<?xml version="1.0" encoding="UTF-8" standalone="no"?>
<!DOCTYPE svg PUBLIC "-//W3C//DTD SVG 1.1//EN"
 "http://www.w3.org/Graphics/SVG/1.1/DTD/svg11.dtd">
<!-- Generated by graphviz version 2.34.0 (20140110.0949)
 -->
<!-- Title: include/DNS.h Pages: 1 -->
<svg width="726pt" height="252pt"
 viewBox="0.00 0.00 725.62 252.00" xmlns="http://www.w3.org/2000/svg" xmlns:xlink="http://www.w3.org/1999/xlink">
<g id="graph0" class="graph" transform="scale(1 1) rotate(0) translate(4 248)">
<title>include/DNS.h</title>
<!-- Node1 -->
<g id="node1" class="node"><title>Node1</title>
<polygon fill="#bfbfbf" stroke="black" points="421.62,-224.5 421.62,-243.5 501.62,-243.5 501.62,-224.5 421.62,-224.5"/>
<text text-anchor="middle" x="461.62" y="-231.5" font-family="Helvetica,sans-Serif" font-size="10.00">include/DNS.h</text>
</g>
<!-- Node2 -->
<g id="node2" class="node"><title>Node2</title>
<polygon fill="none" stroke="#bfbfbf" points="397.12,-0.5 397.12,-19.5 470.12,-19.5 470.12,-0.5 397.12,-0.5"/>
<text text-anchor="middle" x="433.62" y="-7.5" font-family="Helvetica,sans-Serif" font-size="10.00">event2/dns.h</text>
</g>
<!-- Node1&#45;&gt;Node2 -->
<g id="edge1" class="edge"><title>Node1&#45;&gt;Node2</title>
<path fill="none" stroke="midnightblue" d="M421.351,-231.471C334.063,-227.665 130.243,-215.979 67.6203,-188 33.4163,-172.718 19.9672,-166.175 4.62035,-132 -13.353,-91.9763 27.5475,-73.8635 67.6203,-56 195.404,0.962763 243.974,-39.8319 386.999,-19.9124"/>
<polygon fill="midnightblue" stroke="midnightblue" points="387.624,-23.3581 397.009,-18.4412 386.606,-16.4325 387.624,-23.3581"/>
</g>
<!-- Node3 -->
<g id="node3" class="node"><title>Node3</title>
<g id="a_node3"><a xlink:href="_should_delete_8h.html" target="_top" xlink:title="ShouldDelete.h">
<polygon fill="none" stroke="black" points="77.1203,-56.5 77.1203,-75.5 160.12,-75.5 160.12,-56.5 77.1203,-56.5"/>
<text text-anchor="middle" x="118.62" y="-63.5" font-family="Helvetica,sans-Serif" font-size="10.00">ShouldDelete.h</text>
</a>
</g>
</g>
<!-- Node1&#45;&gt;Node3 -->
<g id="edge2" class="edge"><title>Node1&#45;&gt;Node3</title>
<path fill="none" stroke="midnightblue" d="M421.441,-230.171C321.236,-222.197 64.6588,-195.826 13.6203,-132 -6.45139,-106.899 32.9876,-88.9071 69.1242,-78.3051"/>
<polygon fill="midnightblue" stroke="midnightblue" points="70.4794,-81.5612 79.1768,-75.511 68.6048,-74.8168 70.4794,-81.5612"/>
</g>
<!-- Node4 -->
<g id="node4" class="node"><title>Node4</title>
<g id="a_node4"><a xlink:href="_socket_8h.html" target="_top" xlink:title="Socket.h">
<polygon fill="none" stroke="black" points="303.62,-168.5 303.62,-187.5 359.62,-187.5 359.62,-168.5 303.62,-168.5"/>
<text text-anchor="middle" x="331.62" y="-175.5" font-family="Helvetica,sans-Serif" font-size="10.00">Socket.h</text>
</a>
</g>
</g>
<!-- Node1&#45;&gt;Node4 -->
<g id="edge3" class="edge"><title>Node1&#45;&gt;Node4</title>
<path fill="none" stroke="midnightblue" d="M441.021,-224.444C419.627,-215.557 385.939,-201.563 361.596,-191.451"/>
<polygon fill="midnightblue" stroke="midnightblue" points="362.7,-188.12 352.123,-187.516 360.015,-194.585 362.7,-188.12"/>
</g>
<!-- Node9 -->
<g id="node9" class="node"><title>Node9</title>
<g id="a_node9"><a xlink:href="_string_8h.html" target="_top" xlink:title="String.h">
<polygon fill="none" stroke="black" points="344.62,-56.5 344.62,-75.5 394.62,-75.5 394.62,-56.5 344.62,-56.5"/>
<text text-anchor="middle" x="369.62" y="-63.5" font-family="Helvetica,sans-Serif" font-size="10.00">String.h</text>
</a>
</g>
</g>
<!-- Node1&#45;&gt;Node9 -->
<g id="edge23" class="edge"><title>Node1&#45;&gt;Node9</title>
<path fill="none" stroke="midnightblue" d="M460.175,-224.424C456.367,-203.657 444.586,-149.608 419.62,-112 411.927,-100.411 400.569,-89.8645 390.622,-81.8992"/>
<polygon fill="midnightblue" stroke="midnightblue" points="392.444,-78.887 382.371,-75.6026 388.197,-84.4517 392.444,-78.887"/>
</g>
<!-- Node15 -->
<g id="node15" class="node"><title>Node15</title>
<g id="a_node15"><a xlink:href="_event_8h.html" target="_top" xlink:title="Event.h">
<polygon fill="none" stroke="black" points="628.62,-56.5 628.62,-75.5 678.62,-75.5 678.62,-56.5 628.62,-56.5"/>
<text text-anchor="middle" x="653.62" y="-63.5" font-family="Helvetica,sans-Serif" font-size="10.00">Event.h</text>
</a>
</g>
</g>
<!-- Node1&#45;&gt;Node15 -->
<g id="edge24" class="edge"><title>Node1&#45;&gt;Node15</title>
<path fill="none" stroke="midnightblue" d="M471.673,-224.309C502.518,-197.64 596.118,-116.716 635.671,-82.5186"/>
<polygon fill="midnightblue" stroke="midnightblue" points="638.392,-84.7931 643.667,-75.6051 633.814,-79.4978 638.392,-84.7931"/>
</g>
<!-- Node17 -->
<g id="node17" class="node"><title>Node17</title>
<polygon fill="none" stroke="#bfbfbf" points="601.62,-168.5 601.62,-187.5 645.62,-187.5 645.62,-168.5 601.62,-168.5"/>
<text text-anchor="middle" x="623.62" y="-175.5" font-family="Helvetica,sans-Serif" font-size="10.00">vector</text>
</g>
<!-- Node1&#45;&gt;Node17 -->
<g id="edge25" class="edge"><title>Node1&#45;&gt;Node17</title>
<path fill="none" stroke="midnightblue" d="M487.29,-224.444C515.585,-215.012 561.136,-199.828 591.708,-189.637"/>
<polygon fill="midnightblue" stroke="midnightblue" points="593.075,-192.871 601.455,-186.388 590.861,-186.23 593.075,-192.871"/>
</g>
<!-- Node18 -->
<g id="node18" class="node"><title>Node18</title>
<polygon fill="none" stroke="#bfbfbf" points="663.62,-168.5 663.62,-187.5 717.62,-187.5 717.62,-168.5 663.62,-168.5"/>
<text text-anchor="middle" x="690.62" y="-175.5" font-family="Helvetica,sans-Serif" font-size="10.00">iostream</text>
</g>
<!-- Node1&#45;&gt;Node18 -->
<g id="edge26" class="edge"><title>Node1&#45;&gt;Node18</title>
<path fill="none" stroke="midnightblue" d="M499.022,-224.465C535.882,-216.012 594.065,-202.561 653.56,-188.229"/>
<polygon fill="midnightblue" stroke="midnightblue" points="654.606,-191.577 663.505,-185.828 652.963,-184.773 654.606,-191.577"/>
</g>
<!-- Node5 -->
<g id="node5" class="node"><title>Node5</title>
<polygon fill="none" stroke="#bfbfbf" points="23.1203,-112.5 23.1203,-131.5 82.1203,-131.5 82.1203,-112.5 23.1203,-112.5"/>
<text text-anchor="middle" x="52.6203" y="-119.5" font-family="Helvetica,sans-Serif" font-size="10.00">stdexcept</text>
</g>
<!-- Node4&#45;&gt;Node5 -->
<g id="edge4" class="edge"><title>Node4&#45;&gt;Node5</title>
<path fill="none" stroke="midnightblue" d="M303.465,-172.111C260.263,-164.525 174.806,-149.187 92.1989,-132.05"/>
<polygon fill="midnightblue" stroke="midnightblue" points="92.9069,-128.623 82.4028,-130.007 91.4773,-135.475 92.9069,-128.623"/>
</g>
<!-- Node6 -->
<g id="node6" class="node"><title>Node6</title>
<polygon fill="none" stroke="#bfbfbf" points="100.62,-112.5 100.62,-131.5 206.62,-131.5 206.62,-112.5 100.62,-112.5"/>
<text text-anchor="middle" x="153.62" y="-119.5" font-family="Helvetica,sans-Serif" font-size="10.00">event2/bufferevent.h</text>
</g>
<!-- Node4&#45;&gt;Node6 -->
<g id="edge5" class="edge"><title>Node4&#45;&gt;Node6</title>
<path fill="none" stroke="midnightblue" d="M303.416,-168.444C273.21,-159.28 225.109,-144.688 191.591,-134.519"/>
<polygon fill="midnightblue" stroke="midnightblue" points="192.278,-131.07 181.693,-131.516 190.246,-137.769 192.278,-131.07"/>
</g>
<!-- Node7 -->
<g id="node7" class="node"><title>Node7</title>
<g id="a_node7"><a xlink:href="defines_8h.html" target="_top" xlink:title="defines.h">
<polygon fill="none" stroke="black" points="238.62,-56.5 238.62,-75.5 294.62,-75.5 294.62,-56.5 238.62,-56.5"/>
<text text-anchor="middle" x="266.62" y="-63.5" font-family="Helvetica,sans-Serif" font-size="10.00">defines.h</text>
</a>
</g>
</g>
<!-- Node4&#45;&gt;Node7 -->
<g id="edge6" class="edge"><title>Node4&#45;&gt;Node7</title>
<path fill="none" stroke="midnightblue" d="M303.281,-168.743C285.603,-161.961 264.254,-150.412 253.62,-132 245.273,-117.547 250.556,-98.608 256.705,-84.9047"/>
<polygon fill="midnightblue" stroke="midnightblue" points="260.013,-86.1156 261.364,-75.6073 253.754,-82.9794 260.013,-86.1156"/>
</g>
<!-- Node8 -->
<g id="node8" class="node"><title>Node8</title>
<g id="a_node8"><a xlink:href="_closable_8h.html" target="_top" xlink:title="Closable.h">
<polygon fill="none" stroke="black" points="263.12,-112.5 263.12,-131.5 326.12,-131.5 326.12,-112.5 263.12,-112.5"/>
<text text-anchor="middle" x="294.62" y="-119.5" font-family="Helvetica,sans-Serif" font-size="10.00">Closable.h</text>
</a>
</g>
</g>
<!-- Node4&#45;&gt;Node8 -->
<g id="edge7" class="edge"><title>Node4&#45;&gt;Node8</title>
<path fill="none" stroke="midnightblue" d="M325.511,-168.083C320.338,-160.534 312.774,-149.495 306.426,-140.23"/>
<polygon fill="midnightblue" stroke="midnightblue" points="309.156,-138.022 300.616,-131.751 303.382,-141.979 309.156,-138.022"/>
</g>
<!-- Node4&#45;&gt;Node9 -->
<g id="edge8" class="edge"><title>Node4&#45;&gt;Node9</title>
<path fill="none" stroke="midnightblue" d="M357.125,-168.472C373.607,-161.478 393.759,-149.792 403.62,-132 412.807,-115.426 399.828,-96.1592 387.346,-82.9296"/>
<polygon fill="midnightblue" stroke="midnightblue" points="389.803,-80.4364 380.227,-75.9037 384.886,-85.4189 389.803,-80.4364"/>
</g>
<!-- Node11 -->
<g id="node11" class="node"><title>Node11</title>
<g id="a_node11"><a xlink:href="_module_8h.html" target="_top" xlink:title="Module.h">
<polygon fill="none" stroke="black" points="489.62,-112.5 489.62,-131.5 545.62,-131.5 545.62,-112.5 489.62,-112.5"/>
<text text-anchor="middle" x="517.62" y="-119.5" font-family="Helvetica,sans-Serif" font-size="10.00">Module.h</text>
</a>
</g>
</g>
<!-- Node4&#45;&gt;Node11 -->
<g id="edge10" class="edge"><title>Node4&#45;&gt;Node11</title>
<path fill="none" stroke="midnightblue" d="M359.87,-168.799C391.781,-159.534 443.884,-144.407 479.41,-134.093"/>
<polygon fill="midnightblue" stroke="midnightblue" points="480.783,-137.339 489.41,-131.19 478.831,-130.617 480.783,-137.339"/>
</g>
<!-- Node16 -->
<g id="node16" class="node"><title>Node16</title>
<g id="a_node16"><a xlink:href="_writer_8h.html" target="_top" xlink:title="Writer.h">
<polygon fill="none" stroke="black" points="344.12,-112.5 344.12,-131.5 395.12,-131.5 395.12,-112.5 344.12,-112.5"/>
<text text-anchor="middle" x="369.62" y="-119.5" font-family="Helvetica,sans-Serif" font-size="10.00">Writer.h</text>
</a>
</g>
</g>
<!-- Node4&#45;&gt;Node16 -->
<g id="edge19" class="edge"><title>Node4&#45;&gt;Node16</title>
<path fill="none" stroke="midnightblue" d="M337.895,-168.083C343.263,-160.455 351.138,-149.264 357.699,-139.941"/>
<polygon fill="midnightblue" stroke="midnightblue" points="360.57,-141.943 363.462,-131.751 354.845,-137.915 360.57,-141.943"/>
</g>
<!-- Node10 -->
<g id="node10" class="node"><title>Node10</title>
<polygon fill="none" stroke="#bfbfbf" points="338.12,-0.5 338.12,-19.5 379.12,-19.5 379.12,-0.5 338.12,-0.5"/>
<text text-anchor="middle" x="358.62" y="-7.5" font-family="Helvetica,sans-Serif" font-size="10.00">string</text>
</g>
<!-- Node9&#45;&gt;Node10 -->
<g id="edge9" class="edge"><title>Node9&#45;&gt;Node10</title>
<path fill="none" stroke="midnightblue" d="M367.804,-56.083C366.346,-48.9272 364.25,-38.6353 362.428,-29.6911"/>
<polygon fill="midnightblue" stroke="midnightblue" points="365.829,-28.8512 360.403,-19.7511 358.97,-30.2485 365.829,-28.8512"/>
</g>
<!-- Node11&#45;&gt;Node2 -->
<g id="edge11" class="edge"><title>Node11&#45;&gt;Node2</title>
<path fill="none" stroke="midnightblue" d="M507.609,-112.314C497.987,-103.676 483.363,-89.7595 472.62,-76 461.003,-61.1214 450.161,-42.5098 442.872,-29.0194"/>
<polygon fill="midnightblue" stroke="midnightblue" points="445.797,-27.0617 438.037,-19.8481 439.604,-30.3263 445.797,-27.0617"/>
</g>
<!-- Node11&#45;&gt;Node9 -->
<g id="edge15" class="edge"><title>Node11&#45;&gt;Node9</title>
<path fill="none" stroke="midnightblue" d="M494.169,-112.444C469.488,-103.438 430.435,-89.1891 402.644,-79.049"/>
<polygon fill="midnightblue" stroke="midnightblue" points="403.556,-75.6561 392.962,-75.5164 401.156,-82.2321 403.556,-75.6561"/>
</g>
<!-- Node12 -->
<g id="node12" class="node"><title>Node12</title>
<polygon fill="none" stroke="#bfbfbf" points="556.12,-0.5 556.12,-19.5 637.12,-19.5 637.12,-0.5 556.12,-0.5"/>
<text text-anchor="middle" x="596.62" y="-7.5" font-family="Helvetica,sans-Serif" font-size="10.00">event2/event.h</text>
</g>
<!-- Node11&#45;&gt;Node12 -->
<g id="edge12" class="edge"><title>Node11&#45;&gt;Node12</title>
<path fill="none" stroke="midnightblue" d="M506.039,-112.343C490.498,-99.6509 466.3,-75.3952 479.62,-56 494.618,-34.1624 521.807,-22.9179 546.202,-17.1299"/>
<polygon fill="midnightblue" stroke="midnightblue" points="547.03,-20.5322 556.087,-15.0348 545.579,-13.6843 547.03,-20.5322"/>
</g>
<!-- Node13 -->
<g id="node13" class="node"><title>Node13</title>
<polygon fill="none" stroke="#bfbfbf" points="489.12,-56.5 489.12,-75.5 562.12,-75.5 562.12,-56.5 489.12,-56.5"/>
<text text-anchor="middle" x="525.62" y="-63.5" font-family="Helvetica,sans-Serif" font-size="10.00">libconfig.h++</text>
</g>
<!-- Node11&#45;&gt;Node13 -->
<g id="edge13" class="edge"><title>Node11&#45;&gt;Node13</title>
<path fill="none" stroke="midnightblue" d="M518.941,-112.083C520.001,-104.927 521.526,-94.6353 522.851,-85.6911"/>
<polygon fill="midnightblue" stroke="midnightblue" points="526.321,-86.1561 524.324,-75.7511 519.396,-85.1302 526.321,-86.1561"/>
</g>
<!-- Node14 -->
<g id="node14" class="node"><title>Node14</title>
<polygon fill="none" stroke="#bfbfbf" points="580.62,-56.5 580.62,-75.5 610.62,-75.5 610.62,-56.5 580.62,-56.5"/>
<text text-anchor="middle" x="595.62" y="-63.5" font-family="Helvetica,sans-Serif" font-size="10.00">set</text>
</g>
<!-- Node11&#45;&gt;Node14 -->
<g id="edge14" class="edge"><title>Node11&#45;&gt;Node14</title>
<path fill="none" stroke="midnightblue" d="M530.152,-112.324C542.206,-103.979 560.647,-91.2122 574.889,-81.3524"/>
<polygon fill="midnightblue" stroke="midnightblue" points="576.89,-84.2243 583.119,-75.6545 572.905,-78.469 576.89,-84.2243"/>
</g>
<!-- Node11&#45;&gt;Node15 -->
<g id="edge16" class="edge"><title>Node11&#45;&gt;Node15</title>
<path fill="none" stroke="midnightblue" d="M539.17,-112.444C561.651,-103.517 597.108,-89.4387 622.6,-79.3168"/>
<polygon fill="midnightblue" stroke="midnightblue" points="624.169,-82.4598 632.172,-75.5164 621.586,-75.9539 624.169,-82.4598"/>
</g>
<!-- Node15&#45;&gt;Node2 -->
<g id="edge17" class="edge"><title>Node15&#45;&gt;Node2</title>
<path fill="none" stroke="midnightblue" d="M628.385,-58.2558C625.433,-57.4858 622.462,-56.7196 619.62,-56 572.224,-43.9951 517.854,-30.9216 480.191,-21.9753"/>
<polygon fill="midnightblue" stroke="midnightblue" points="480.568,-18.4678 470.031,-19.5657 478.953,-25.2789 480.568,-18.4678"/>
</g>
<!-- Node15&#45;&gt;Node12 -->
<g id="edge18" class="edge"><title>Node15&#45;&gt;Node12</title>
<path fill="none" stroke="midnightblue" d="M644.462,-56.324C636.119,-48.4196 623.588,-36.5482 613.443,-26.9377"/>
<polygon fill="midnightblue" stroke="midnightblue" points="615.612,-24.1705 605.945,-19.8339 610.797,-29.2522 615.612,-24.1705"/>
</g>
<!-- Node16&#45;&gt;Node3 -->
<g id="edge22" class="edge"><title>Node16&#45;&gt;Node3</title>
<path fill="none" stroke="midnightblue" d="M344.04,-114.276C340.873,-113.487 337.676,-112.711 334.62,-112 278.547,-98.957 213.866,-85.7187 170.01,-77.0099"/>
<polygon fill="midnightblue" stroke="midnightblue" points="170.643,-73.5675 160.154,-75.0594 169.284,-80.4343 170.643,-73.5675"/>
</g>
<!-- Node16&#45;&gt;Node7 -->
<g id="edge20" class="edge"><title>Node16&#45;&gt;Node7</title>
<path fill="none" stroke="midnightblue" d="M353.072,-112.324C336.629,-103.703 311.186,-90.3643 292.152,-80.3855"/>
<polygon fill="midnightblue" stroke="midnightblue" points="293.61,-77.198 283.128,-75.6545 290.359,-83.3977 293.61,-77.198"/>
</g>
<!-- Node16&#45;&gt;Node9 -->
<g id="edge21" class="edge"><title>Node16&#45;&gt;Node9</title>
<path fill="none" stroke="midnightblue" d="M369.62,-112.083C369.62,-105.006 369.62,-94.8611 369.62,-85.9865"/>
<polygon fill="midnightblue" stroke="midnightblue" points="373.12,-85.751 369.62,-75.7511 366.12,-85.7511 373.12,-85.751"/>
</g>
</g>
</svg>
