<?xml version="1.0" encoding="UTF-8" standalone="no"?>
<!DOCTYPE svg PUBLIC "-//W3C//DTD SVG 1.1//EN"
 "http://www.w3.org/Graphics/SVG/1.1/DTD/svg11.dtd">
<!-- Generated by graphviz version 2.34.0 (20140110.0949)
 -->
<!-- Title: include/DNS.h Pages: 1 -->
<svg width="723pt" height="252pt"
 viewBox="0.00 0.00 722.92 252.00" xmlns="http://www.w3.org/2000/svg" xmlns:xlink="http://www.w3.org/1999/xlink">
<g id="graph0" class="graph" transform="scale(1 1) rotate(0) translate(4 248)">
<title>include/DNS.h</title>
<!-- Node1 -->
<g id="node1" class="node"><title>Node1</title>
<polygon fill="#bfbfbf" stroke="black" points="384.916,-224.5 384.916,-243.5 464.916,-243.5 464.916,-224.5 384.916,-224.5"/>
<text text-anchor="middle" x="424.916" y="-231.5" font-family="Helvetica,sans-Serif" font-size="10.00">include/DNS.h</text>
</g>
<!-- Node2 -->
<g id="node2" class="node"><title>Node2</title>
<polygon fill="none" stroke="#bfbfbf" points="28.4155,-0.5 28.4155,-19.5 101.416,-19.5 101.416,-0.5 28.4155,-0.5"/>
<text text-anchor="middle" x="64.9155" y="-7.5" font-family="Helvetica,sans-Serif" font-size="10.00">event2/dns.h</text>
</g>
<!-- Node1&#45;&gt;Node2 -->
<g id="edge1" class="edge"><title>Node1&#45;&gt;Node2</title>
<path fill="none" stroke="midnightblue" d="M384.876,-230.932C303.604,-226.257 122.222,-213.264 65.9155,-188 25.6262,-169.923 -8.5347,-154.905 1.9155,-112 10.0584,-78.568 34.2587,-45.8999 50.1847,-27.1441"/>
<polygon fill="midnightblue" stroke="midnightblue" points="52.8775,-29.3817 56.8324,-19.5527 47.6112,-24.7701 52.8775,-29.3817"/>
</g>
<!-- Node3 -->
<g id="node3" class="node"><title>Node3</title>
<g id="a_node3"><a xlink:href="_should_delete_8h.html" target="_top" xlink:title="ShouldDelete.h">
<polygon fill="none" stroke="black" points="524.416,-56.5 524.416,-75.5 607.416,-75.5 607.416,-56.5 524.416,-56.5"/>
<text text-anchor="middle" x="565.916" y="-63.5" font-family="Helvetica,sans-Serif" font-size="10.00">ShouldDelete.h</text>
</a>
</g>
</g>
<!-- Node1&#45;&gt;Node3 -->
<g id="edge2" class="edge"><title>Node1&#45;&gt;Node3</title>
<path fill="none" stroke="midnightblue" d="M441.803,-224.379C469.23,-209.464 523.175,-176.155 550.916,-132 559.676,-118.056 563.332,-99.5499 564.852,-85.8507"/>
<polygon fill="midnightblue" stroke="midnightblue" points="568.357,-85.9337 565.691,-75.6798 561.38,-85.3581 568.357,-85.9337"/>
</g>
<!-- Node4 -->
<g id="node4" class="node"><title>Node4</title>
<g id="a_node4"><a xlink:href="_socket_8h.html" target="_top" xlink:title="Socket.h">
<polygon fill="none" stroke="black" points="309.916,-168.5 309.916,-187.5 365.916,-187.5 365.916,-168.5 309.916,-168.5"/>
<text text-anchor="middle" x="337.916" y="-175.5" font-family="Helvetica,sans-Serif" font-size="10.00">Socket.h</text>
</a>
</g>
</g>
<!-- Node1&#45;&gt;Node4 -->
<g id="edge3" class="edge"><title>Node1&#45;&gt;Node4</title>
<path fill="none" stroke="midnightblue" d="M410.937,-224.324C397.366,-215.9 376.535,-202.971 360.591,-193.074"/>
<polygon fill="midnightblue" stroke="midnightblue" points="362.201,-189.954 351.859,-187.655 358.51,-195.902 362.201,-189.954"/>
</g>
<!-- Node9 -->
<g id="node9" class="node"><title>Node9</title>
<g id="a_node9"><a xlink:href="_string_8h.html" target="_top" xlink:title="String.h">
<polygon fill="none" stroke="black" points="347.916,-56.5 347.916,-75.5 397.916,-75.5 397.916,-56.5 347.916,-56.5"/>
<text text-anchor="middle" x="372.916" y="-63.5" font-family="Helvetica,sans-Serif" font-size="10.00">String.h</text>
</a>
</g>
</g>
<!-- Node1&#45;&gt;Node9 -->
<g id="edge24" class="edge"><title>Node1&#45;&gt;Node9</title>
<path fill="none" stroke="midnightblue" d="M424.809,-224.428C424.283,-204.112 421.306,-151.764 404.916,-112 400.677,-101.716 393.706,-91.5101 387.352,-83.4239"/>
<polygon fill="midnightblue" stroke="midnightblue" points="389.929,-81.0488 380.856,-75.5782 384.537,-85.5129 389.929,-81.0488"/>
</g>
<!-- Node16 -->
<g id="node16" class="node"><title>Node16</title>
<g id="a_node16"><a xlink:href="_event_8h.html" target="_top" xlink:title="Event.h">
<polygon fill="none" stroke="black" points="39.9155,-56.5 39.9155,-75.5 89.9155,-75.5 89.9155,-56.5 39.9155,-56.5"/>
<text text-anchor="middle" x="64.9155" y="-63.5" font-family="Helvetica,sans-Serif" font-size="10.00">Event.h</text>
</a>
</g>
</g>
<!-- Node1&#45;&gt;Node16 -->
<g id="edge25" class="edge"><title>Node1&#45;&gt;Node16</title>
<path fill="none" stroke="midnightblue" d="M384.897,-229.415C290.123,-220.012 56.4189,-191.178 9.9155,-132 -4.24665,-113.978 18.9235,-93.9417 39.3984,-80.9428"/>
<polygon fill="midnightblue" stroke="midnightblue" points="41.4136,-83.8152 48.1813,-75.6636 37.8073,-77.8155 41.4136,-83.8152"/>
</g>
<!-- Node18 -->
<g id="node18" class="node"><title>Node18</title>
<polygon fill="none" stroke="#bfbfbf" points="598.916,-168.5 598.916,-187.5 642.916,-187.5 642.916,-168.5 598.916,-168.5"/>
<text text-anchor="middle" x="620.916" y="-175.5" font-family="Helvetica,sans-Serif" font-size="10.00">vector</text>
</g>
<!-- Node1&#45;&gt;Node18 -->
<g id="edge26" class="edge"><title>Node1&#45;&gt;Node18</title>
<path fill="none" stroke="midnightblue" d="M455.972,-224.444C492.38,-214.413 552.401,-197.877 589.123,-187.759"/>
<polygon fill="midnightblue" stroke="midnightblue" points="590.113,-191.117 598.824,-185.086 588.253,-184.368 590.113,-191.117"/>
</g>
<!-- Node19 -->
<g id="node19" class="node"><title>Node19</title>
<polygon fill="none" stroke="#bfbfbf" points="660.916,-168.5 660.916,-187.5 714.916,-187.5 714.916,-168.5 660.916,-168.5"/>
<text text-anchor="middle" x="687.916" y="-175.5" font-family="Helvetica,sans-Serif" font-size="10.00">iostream</text>
</g>
<!-- Node1&#45;&gt;Node19 -->
<g id="edge27" class="edge"><title>Node1&#45;&gt;Node19</title>
<path fill="none" stroke="midnightblue" d="M465.226,-225.63C508.665,-217.55 580.057,-203.875 650.842,-188.156"/>
<polygon fill="midnightblue" stroke="midnightblue" points="651.827,-191.523 660.823,-185.925 650.3,-184.691 651.827,-191.523"/>
</g>
<!-- Node5 -->
<g id="node5" class="node"><title>Node5</title>
<polygon fill="none" stroke="#bfbfbf" points="337.416,-112.5 337.416,-131.5 396.416,-131.5 396.416,-112.5 337.416,-112.5"/>
<text text-anchor="middle" x="366.916" y="-119.5" font-family="Helvetica,sans-Serif" font-size="10.00">stdexcept</text>
</g>
<!-- Node4&#45;&gt;Node5 -->
<g id="edge4" class="edge"><title>Node4&#45;&gt;Node5</title>
<path fill="none" stroke="midnightblue" d="M342.704,-168.083C346.674,-160.691 352.441,-149.953 357.35,-140.811"/>
<polygon fill="midnightblue" stroke="midnightblue" points="360.568,-142.217 362.216,-131.751 354.401,-138.905 360.568,-142.217"/>
</g>
<!-- Node6 -->
<g id="node6" class="node"><title>Node6</title>
<polygon fill="none" stroke="#bfbfbf" points="18.9155,-112.5 18.9155,-131.5 124.916,-131.5 124.916,-112.5 18.9155,-112.5"/>
<text text-anchor="middle" x="71.9155" y="-119.5" font-family="Helvetica,sans-Serif" font-size="10.00">event2/bufferevent.h</text>
</g>
<!-- Node4&#45;&gt;Node6 -->
<g id="edge5" class="edge"><title>Node4&#45;&gt;Node6</title>
<path fill="none" stroke="midnightblue" d="M309.449,-171.221C265.289,-162.256 179.593,-144.859 124.111,-133.596"/>
<polygon fill="midnightblue" stroke="midnightblue" points="124.616,-130.127 114.119,-131.568 123.223,-136.987 124.616,-130.127"/>
</g>
<!-- Node7 -->
<g id="node7" class="node"><title>Node7</title>
<g id="a_node7"><a xlink:href="defines_8h.html" target="_top" xlink:title="defines.h">
<polygon fill="none" stroke="black" points="439.916,-56.5 439.916,-75.5 495.916,-75.5 495.916,-56.5 439.916,-56.5"/>
<text text-anchor="middle" x="467.916" y="-63.5" font-family="Helvetica,sans-Serif" font-size="10.00">defines.h</text>
</a>
</g>
</g>
<!-- Node4&#45;&gt;Node7 -->
<g id="edge6" class="edge"><title>Node4&#45;&gt;Node7</title>
<path fill="none" stroke="midnightblue" d="M352.653,-168.346C366.661,-159.837 388.037,-146.109 404.916,-132 423.089,-116.809 441.7,-96.9752 453.935,-83.2306"/>
<polygon fill="midnightblue" stroke="midnightblue" points="456.704,-85.3812 460.668,-75.5556 451.442,-80.765 456.704,-85.3812"/>
</g>
<!-- Node8 -->
<g id="node8" class="node"><title>Node8</title>
<g id="a_node8"><a xlink:href="_closable_8h.html" target="_top" xlink:title="Closable.h">
<polygon fill="none" stroke="black" points="143.416,-112.5 143.416,-131.5 206.416,-131.5 206.416,-112.5 143.416,-112.5"/>
<text text-anchor="middle" x="174.916" y="-119.5" font-family="Helvetica,sans-Serif" font-size="10.00">Closable.h</text>
</a>
</g>
</g>
<!-- Node4&#45;&gt;Node8 -->
<g id="edge7" class="edge"><title>Node4&#45;&gt;Node8</title>
<path fill="none" stroke="midnightblue" d="M312.088,-168.444C284.666,-159.359 241.138,-144.939 210.483,-134.783"/>
<polygon fill="midnightblue" stroke="midnightblue" points="211.216,-131.339 200.623,-131.516 209.014,-137.984 211.216,-131.339"/>
</g>
<!-- Node4&#45;&gt;Node9 -->
<g id="edge8" class="edge"><title>Node4&#45;&gt;Node9</title>
<path fill="none" stroke="midnightblue" d="M333.715,-168.235C328.19,-155.409 320.051,-130.987 327.916,-112 332.836,-100.121 342.582,-89.7428 351.75,-81.9557"/>
<polygon fill="midnightblue" stroke="midnightblue" points="354.168,-84.5058 359.851,-75.5641 349.833,-79.0101 354.168,-84.5058"/>
</g>
<!-- Node12 -->
<g id="node12" class="node"><title>Node12</title>
<g id="a_node12"><a xlink:href="_module_8h.html" target="_top" xlink:title="Module.h">
<polygon fill="none" stroke="black" points="224.916,-112.5 224.916,-131.5 280.916,-131.5 280.916,-112.5 224.916,-112.5"/>
<text text-anchor="middle" x="252.916" y="-119.5" font-family="Helvetica,sans-Serif" font-size="10.00">Module.h</text>
</a>
</g>
</g>
<!-- Node4&#45;&gt;Node12 -->
<g id="edge11" class="edge"><title>Node4&#45;&gt;Node12</title>
<path fill="none" stroke="midnightblue" d="M324.259,-168.324C310.999,-159.9 290.647,-146.971 275.069,-137.074"/>
<polygon fill="midnightblue" stroke="midnightblue" points="276.856,-134.063 266.538,-131.655 273.102,-139.971 276.856,-134.063"/>
</g>
<!-- Node17 -->
<g id="node17" class="node"><title>Node17</title>
<g id="a_node17"><a xlink:href="_writer_8h.html" target="_top" xlink:title="Writer.h">
<polygon fill="none" stroke="black" points="491.416,-112.5 491.416,-131.5 542.416,-131.5 542.416,-112.5 491.416,-112.5"/>
<text text-anchor="middle" x="516.916" y="-119.5" font-family="Helvetica,sans-Serif" font-size="10.00">Writer.h</text>
</a>
</g>
</g>
<!-- Node4&#45;&gt;Node17 -->
<g id="edge20" class="edge"><title>Node4&#45;&gt;Node17</title>
<path fill="none" stroke="midnightblue" d="M366.279,-168.444C397.458,-159.038 447.599,-143.911 481.377,-133.721"/>
<polygon fill="midnightblue" stroke="midnightblue" points="482.732,-136.968 491.295,-130.729 480.71,-130.266 482.732,-136.968"/>
</g>
<!-- Node10 -->
<g id="node10" class="node"><title>Node10</title>
<polygon fill="none" stroke="#bfbfbf" points="320.416,-0.5 320.416,-19.5 361.416,-19.5 361.416,-0.5 320.416,-0.5"/>
<text text-anchor="middle" x="340.916" y="-7.5" font-family="Helvetica,sans-Serif" font-size="10.00">string</text>
</g>
<!-- Node9&#45;&gt;Node10 -->
<g id="edge9" class="edge"><title>Node9&#45;&gt;Node10</title>
<path fill="none" stroke="midnightblue" d="M367.631,-56.083C363.205,-48.6127 356.752,-37.7244 351.298,-28.5199"/>
<polygon fill="midnightblue" stroke="midnightblue" points="354.21,-26.5697 346.101,-19.7511 348.188,-30.1383 354.21,-26.5697"/>
</g>
<!-- Node11 -->
<g id="node11" class="node"><title>Node11</title>
<polygon fill="none" stroke="#bfbfbf" points="379.416,-0.5 379.416,-19.5 428.416,-19.5 428.416,-0.5 379.416,-0.5"/>
<text text-anchor="middle" x="403.916" y="-7.5" font-family="Helvetica,sans-Serif" font-size="10.00">stdint.h</text>
</g>
<!-- Node9&#45;&gt;Node11 -->
<g id="edge10" class="edge"><title>Node9&#45;&gt;Node11</title>
<path fill="none" stroke="midnightblue" d="M378.035,-56.083C382.323,-48.6127 388.574,-37.7244 393.858,-28.5199"/>
<polygon fill="midnightblue" stroke="midnightblue" points="396.948,-30.1662 398.892,-19.7511 390.878,-26.6811 396.948,-30.1662"/>
</g>
<!-- Node12&#45;&gt;Node2 -->
<g id="edge12" class="edge"><title>Node12&#45;&gt;Node2</title>
<path fill="none" stroke="midnightblue" d="M224.877,-113.282C200.522,-105.858 164.869,-93.2234 136.916,-76 114.863,-62.4125 93.3183,-41.6878 79.6321,-27.3074"/>
<polygon fill="midnightblue" stroke="midnightblue" points="81.9096,-24.6167 72.5376,-19.6755 76.7826,-29.3827 81.9096,-24.6167"/>
</g>
<!-- Node12&#45;&gt;Node9 -->
<g id="edge16" class="edge"><title>Node12&#45;&gt;Node9</title>
<path fill="none" stroke="midnightblue" d="M271.93,-112.444C291.503,-103.636 322.223,-89.8116 344.644,-79.722"/>
<polygon fill="midnightblue" stroke="midnightblue" points="346.307,-82.8119 353.99,-75.5164 343.435,-76.4284 346.307,-82.8119"/>
</g>
<!-- Node13 -->
<g id="node13" class="node"><title>Node13</title>
<polygon fill="none" stroke="#bfbfbf" points="186.416,-0.5 186.416,-19.5 267.416,-19.5 267.416,-0.5 186.416,-0.5"/>
<text text-anchor="middle" x="226.916" y="-7.5" font-family="Helvetica,sans-Serif" font-size="10.00">event2/event.h</text>
</g>
<!-- Node12&#45;&gt;Node13 -->
<g id="edge13" class="edge"><title>Node12&#45;&gt;Node13</title>
<path fill="none" stroke="midnightblue" d="M260.334,-112.445C270.281,-99.8793 285.725,-75.7799 276.916,-56 271.348,-43.4981 260.4,-33.0124 250.164,-25.3167"/>
<polygon fill="midnightblue" stroke="midnightblue" points="252.071,-22.3794 241.868,-19.5256 248.065,-28.1193 252.071,-22.3794"/>
</g>
<!-- Node14 -->
<g id="node14" class="node"><title>Node14</title>
<polygon fill="none" stroke="#bfbfbf" points="146.416,-56.5 146.416,-75.5 219.416,-75.5 219.416,-56.5 146.416,-56.5"/>
<text text-anchor="middle" x="182.916" y="-63.5" font-family="Helvetica,sans-Serif" font-size="10.00">libconfig.h++</text>
</g>
<!-- Node12&#45;&gt;Node14 -->
<g id="edge14" class="edge"><title>Node12&#45;&gt;Node14</title>
<path fill="none" stroke="midnightblue" d="M241.669,-112.324C231.118,-104.185 215.115,-91.8395 202.473,-82.0874"/>
<polygon fill="midnightblue" stroke="midnightblue" points="204.423,-79.1707 194.367,-75.8339 200.147,-84.7132 204.423,-79.1707"/>
</g>
<!-- Node15 -->
<g id="node15" class="node"><title>Node15</title>
<polygon fill="none" stroke="#bfbfbf" points="237.916,-56.5 237.916,-75.5 267.916,-75.5 267.916,-56.5 237.916,-56.5"/>
<text text-anchor="middle" x="252.916" y="-63.5" font-family="Helvetica,sans-Serif" font-size="10.00">set</text>
</g>
<!-- Node12&#45;&gt;Node15 -->
<g id="edge15" class="edge"><title>Node12&#45;&gt;Node15</title>
<path fill="none" stroke="midnightblue" d="M252.916,-112.083C252.916,-105.006 252.916,-94.8611 252.916,-85.9865"/>
<polygon fill="midnightblue" stroke="midnightblue" points="256.416,-85.751 252.916,-75.7511 249.416,-85.7511 256.416,-85.751"/>
</g>
<!-- Node12&#45;&gt;Node16 -->
<g id="edge17" class="edge"><title>Node12&#45;&gt;Node16</title>
<path fill="none" stroke="midnightblue" d="M224.77,-112.916C191.487,-103.356 136.068,-87.4373 100.013,-77.0812"/>
<polygon fill="midnightblue" stroke="midnightblue" points="100.52,-73.5852 89.9419,-74.1884 98.587,-80.3132 100.52,-73.5852"/>
</g>
<!-- Node16&#45;&gt;Node2 -->
<g id="edge18" class="edge"><title>Node16&#45;&gt;Node2</title>
<path fill="none" stroke="midnightblue" d="M64.9155,-56.083C64.9155,-49.0059 64.9155,-38.8611 64.9155,-29.9865"/>
<polygon fill="midnightblue" stroke="midnightblue" points="68.4156,-29.751 64.9155,-19.7511 61.4156,-29.7511 68.4156,-29.751"/>
</g>
<!-- Node16&#45;&gt;Node13 -->
<g id="edge19" class="edge"><title>Node16&#45;&gt;Node13</title>
<path fill="none" stroke="midnightblue" d="M90.228,-56.5625C117.411,-47.5014 160.813,-33.0342 191.405,-22.837"/>
<polygon fill="midnightblue" stroke="midnightblue" points="192.866,-26.0392 201.246,-19.5565 190.652,-19.3984 192.866,-26.0392"/>
</g>
<!-- Node17&#45;&gt;Node3 -->
<g id="edge23" class="edge"><title>Node17&#45;&gt;Node3</title>
<path fill="none" stroke="midnightblue" d="M525.007,-112.083C532.071,-104.298 542.503,-92.8015 551.064,-83.3665"/>
<polygon fill="midnightblue" stroke="midnightblue" points="553.847,-85.5087 557.975,-75.7511 548.663,-80.8047 553.847,-85.5087"/>
</g>
<!-- Node17&#45;&gt;Node7 -->
<g id="edge21" class="edge"><title>Node17&#45;&gt;Node7</title>
<path fill="none" stroke="midnightblue" d="M508.824,-112.083C501.76,-104.298 491.328,-92.8015 482.767,-83.3665"/>
<polygon fill="midnightblue" stroke="midnightblue" points="485.168,-80.8047 475.856,-75.7511 479.984,-85.5087 485.168,-80.8047"/>
</g>
<!-- Node17&#45;&gt;Node9 -->
<g id="edge22" class="edge"><title>Node17&#45;&gt;Node9</title>
<path fill="none" stroke="midnightblue" d="M494.098,-112.444C470.084,-103.438 432.087,-89.1891 405.046,-79.049"/>
<polygon fill="midnightblue" stroke="midnightblue" points="406.218,-75.7506 395.626,-75.5164 403.76,-82.3049 406.218,-75.7506"/>
</g>
</g>
</svg>
