<?xml version="1.0" encoding="UTF-8" standalone="no"?>
<!DOCTYPE svg PUBLIC "-//W3C//DTD SVG 1.1//EN"
 "http://www.w3.org/Graphics/SVG/1.1/DTD/svg11.dtd">
<!-- Generated by graphviz version 2.34.0 (20140110.0949)
 -->
<!-- Title: include/Database.h Pages: 1 -->
<svg width="341pt" height="196pt"
 viewBox="0.00 0.00 341.00 196.00" xmlns="http://www.w3.org/2000/svg" xmlns:xlink="http://www.w3.org/1999/xlink">
<g id="graph0" class="graph" transform="scale(1 1) rotate(0) translate(4 192)">
<title>include/Database.h</title>
<!-- Node1 -->
<g id="node1" class="node"><title>Node1</title>
<polygon fill="#bfbfbf" stroke="black" points="64.5,-168.5 64.5,-187.5 165.5,-187.5 165.5,-168.5 64.5,-168.5"/>
<text text-anchor="middle" x="115" y="-175.5" font-family="Helvetica,sans-Serif" font-size="10.00">include/Database.h</text>
</g>
<!-- Node2 -->
<g id="node2" class="node"><title>Node2</title>
<polygon fill="none" stroke="#bfbfbf" points="-0.5,-112.5 -0.5,-131.5 58.5,-131.5 58.5,-112.5 -0.5,-112.5"/>
<text text-anchor="middle" x="29" y="-119.5" font-family="Helvetica,sans-Serif" font-size="10.00">functional</text>
</g>
<!-- Node1&#45;&gt;Node2 -->
<g id="edge1" class="edge"><title>Node1&#45;&gt;Node2</title>
<path fill="none" stroke="midnightblue" d="M101.183,-168.324C87.767,-159.9 67.1759,-146.971 51.4144,-137.074"/>
<polygon fill="midnightblue" stroke="midnightblue" points="53.1132,-134.008 42.7831,-131.655 49.3908,-139.936 53.1132,-134.008"/>
</g>
<!-- Node3 -->
<g id="node3" class="node"><title>Node3</title>
<g id="a_node3"><a xlink:href="_string_8h.html" target="_top" xlink:title="String.h">
<polygon fill="none" stroke="black" points="0,-56.5 0,-75.5 50,-75.5 50,-56.5 0,-56.5"/>
<text text-anchor="middle" x="25" y="-63.5" font-family="Helvetica,sans-Serif" font-size="10.00">String.h</text>
</a>
</g>
</g>
<!-- Node1&#45;&gt;Node3 -->
<g id="edge2" class="edge"><title>Node1&#45;&gt;Node3</title>
<path fill="none" stroke="midnightblue" d="M109.088,-168.349C100.314,-155.664 83.1411,-131.418 67,-112 58.7171,-102.036 48.8585,-91.4153 40.775,-82.9958"/>
<polygon fill="midnightblue" stroke="midnightblue" points="43.1567,-80.4245 33.678,-75.691 38.136,-85.3023 43.1567,-80.4245"/>
</g>
<!-- Node5 -->
<g id="node5" class="node"><title>Node5</title>
<g id="a_node5"><a xlink:href="_module_8h.html" target="_top" xlink:title="Module.h">
<polygon fill="none" stroke="black" points="115,-112.5 115,-131.5 171,-131.5 171,-112.5 115,-112.5"/>
<text text-anchor="middle" x="143" y="-119.5" font-family="Helvetica,sans-Serif" font-size="10.00">Module.h</text>
</a>
</g>
</g>
<!-- Node1&#45;&gt;Node5 -->
<g id="edge4" class="edge"><title>Node1&#45;&gt;Node5</title>
<path fill="none" stroke="midnightblue" d="M119.624,-168.083C123.456,-160.691 129.024,-149.953 133.765,-140.811"/>
<polygon fill="midnightblue" stroke="midnightblue" points="136.966,-142.24 138.462,-131.751 130.752,-139.018 136.966,-142.24"/>
</g>
<!-- Node11 -->
<g id="node11" class="node"><title>Node11</title>
<g id="a_node11"><a xlink:href="_should_delete_8h.html" target="_top" xlink:title="ShouldDelete.h">
<polygon fill="none" stroke="black" points="189.5,-112.5 189.5,-131.5 272.5,-131.5 272.5,-112.5 189.5,-112.5"/>
<text text-anchor="middle" x="231" y="-119.5" font-family="Helvetica,sans-Serif" font-size="10.00">ShouldDelete.h</text>
</a>
</g>
</g>
<!-- Node1&#45;&gt;Node11 -->
<g id="edge13" class="edge"><title>Node1&#45;&gt;Node11</title>
<path fill="none" stroke="midnightblue" d="M133.381,-168.444C152.216,-159.675 181.731,-145.935 203.379,-135.858"/>
<polygon fill="midnightblue" stroke="midnightblue" points="205.117,-138.91 212.705,-131.516 202.162,-132.564 205.117,-138.91"/>
</g>
<!-- Node4 -->
<g id="node4" class="node"><title>Node4</title>
<polygon fill="none" stroke="#bfbfbf" points="4.5,-0.5 4.5,-19.5 45.5,-19.5 45.5,-0.5 4.5,-0.5"/>
<text text-anchor="middle" x="25" y="-7.5" font-family="Helvetica,sans-Serif" font-size="10.00">string</text>
</g>
<!-- Node3&#45;&gt;Node4 -->
<g id="edge3" class="edge"><title>Node3&#45;&gt;Node4</title>
<path fill="none" stroke="midnightblue" d="M25,-56.083C25,-49.0059 25,-38.8611 25,-29.9865"/>
<polygon fill="midnightblue" stroke="midnightblue" points="28.5001,-29.751 25,-19.7511 21.5001,-29.7511 28.5001,-29.751"/>
</g>
<!-- Node5&#45;&gt;Node3 -->
<g id="edge9" class="edge"><title>Node5&#45;&gt;Node3</title>
<path fill="none" stroke="midnightblue" d="M124.303,-112.444C105.056,-103.636 74.8475,-89.8116 52.7999,-79.722"/>
<polygon fill="midnightblue" stroke="midnightblue" points="54.1595,-76.4951 43.61,-75.5164 51.2466,-82.8603 54.1595,-76.4951"/>
</g>
<!-- Node6 -->
<g id="node6" class="node"><title>Node6</title>
<polygon fill="none" stroke="#bfbfbf" points="260.5,-0.5 260.5,-19.5 333.5,-19.5 333.5,-0.5 260.5,-0.5"/>
<text text-anchor="middle" x="297" y="-7.5" font-family="Helvetica,sans-Serif" font-size="10.00">event2/dns.h</text>
</g>
<!-- Node5&#45;&gt;Node6 -->
<g id="edge5" class="edge"><title>Node5&#45;&gt;Node6</title>
<path fill="none" stroke="midnightblue" d="M171.063,-114.139C216.334,-102.94 300.871,-81.4321 305,-76 315.187,-62.5975 310.914,-42.955 305.5,-28.7738"/>
<polygon fill="midnightblue" stroke="midnightblue" points="308.713,-27.3841 301.547,-19.5802 302.282,-30.1495 308.713,-27.3841"/>
</g>
<!-- Node7 -->
<g id="node7" class="node"><title>Node7</title>
<polygon fill="none" stroke="#bfbfbf" points="125.5,-0.5 125.5,-19.5 206.5,-19.5 206.5,-0.5 125.5,-0.5"/>
<text text-anchor="middle" x="166" y="-7.5" font-family="Helvetica,sans-Serif" font-size="10.00">event2/event.h</text>
</g>
<!-- Node5&#45;&gt;Node7 -->
<g id="edge6" class="edge"><title>Node5&#45;&gt;Node7</title>
<path fill="none" stroke="midnightblue" d="M129.232,-112.397C111.797,-100.352 85.3449,-77.5158 97,-56 104.749,-41.6958 119.234,-31.2188 132.94,-23.992"/>
<polygon fill="midnightblue" stroke="midnightblue" points="134.738,-27.0103 142.212,-19.501 131.686,-20.7104 134.738,-27.0103"/>
</g>
<!-- Node8 -->
<g id="node8" class="node"><title>Node8</title>
<polygon fill="none" stroke="#bfbfbf" points="106.5,-56.5 106.5,-75.5 179.5,-75.5 179.5,-56.5 106.5,-56.5"/>
<text text-anchor="middle" x="143" y="-63.5" font-family="Helvetica,sans-Serif" font-size="10.00">libconfig.h++</text>
</g>
<!-- Node5&#45;&gt;Node8 -->
<g id="edge7" class="edge"><title>Node5&#45;&gt;Node8</title>
<path fill="none" stroke="midnightblue" d="M143,-112.083C143,-105.006 143,-94.8611 143,-85.9865"/>
<polygon fill="midnightblue" stroke="midnightblue" points="146.5,-85.751 143,-75.7511 139.5,-85.7511 146.5,-85.751"/>
</g>
<!-- Node9 -->
<g id="node9" class="node"><title>Node9</title>
<polygon fill="none" stroke="#bfbfbf" points="198,-56.5 198,-75.5 228,-75.5 228,-56.5 198,-56.5"/>
<text text-anchor="middle" x="213" y="-63.5" font-family="Helvetica,sans-Serif" font-size="10.00">set</text>
</g>
<!-- Node5&#45;&gt;Node9 -->
<g id="edge8" class="edge"><title>Node5&#45;&gt;Node9</title>
<path fill="none" stroke="midnightblue" d="M154.247,-112.324C164.797,-104.185 180.801,-91.8395 193.442,-82.0874"/>
<polygon fill="midnightblue" stroke="midnightblue" points="195.769,-84.7132 201.549,-75.8339 191.493,-79.1707 195.769,-84.7132"/>
</g>
<!-- Node10 -->
<g id="node10" class="node"><title>Node10</title>
<g id="a_node10"><a xlink:href="_event_8h.html" target="_top" xlink:title="Event.h">
<polygon fill="none" stroke="black" points="246,-56.5 246,-75.5 296,-75.5 296,-56.5 246,-56.5"/>
<text text-anchor="middle" x="271" y="-63.5" font-family="Helvetica,sans-Serif" font-size="10.00">Event.h</text>
</a>
</g>
</g>
<!-- Node5&#45;&gt;Node10 -->
<g id="edge10" class="edge"><title>Node5&#45;&gt;Node10</title>
<path fill="none" stroke="midnightblue" d="M163.282,-112.444C184.347,-103.557 217.517,-89.5632 241.486,-79.4514"/>
<polygon fill="midnightblue" stroke="midnightblue" points="242.96,-82.6283 250.813,-75.5164 240.239,-76.1787 242.96,-82.6283"/>
</g>
<!-- Node10&#45;&gt;Node6 -->
<g id="edge11" class="edge"><title>Node10&#45;&gt;Node6</title>
<path fill="none" stroke="midnightblue" d="M275.293,-56.083C278.852,-48.6913 284.022,-37.9533 288.424,-28.8111"/>
<polygon fill="midnightblue" stroke="midnightblue" points="291.602,-30.2795 292.787,-19.7511 285.295,-27.2427 291.602,-30.2795"/>
</g>
<!-- Node10&#45;&gt;Node7 -->
<g id="edge12" class="edge"><title>Node10&#45;&gt;Node7</title>
<path fill="none" stroke="midnightblue" d="M254.13,-56.324C237.291,-47.6641 211.193,-34.2424 191.762,-24.249"/>
<polygon fill="midnightblue" stroke="midnightblue" points="193.322,-21.1155 182.828,-19.6545 190.12,-27.3405 193.322,-21.1155"/>
</g>
</g>
</svg>
