<?xml version="1.0" encoding="UTF-8" standalone="no"?>
<!DOCTYPE svg PUBLIC "-//W3C//DTD SVG 1.1//EN"
 "http://www.w3.org/Graphics/SVG/1.1/DTD/svg11.dtd">
<!-- Generated by graphviz version 2.34.0 (20140110.0949)
 -->
<!-- Title: include/Database.h Pages: 1 -->
<svg width="309pt" height="196pt"
 viewBox="0.00 0.00 309.00 196.00" xmlns="http://www.w3.org/2000/svg" xmlns:xlink="http://www.w3.org/1999/xlink">
<g id="graph0" class="graph" transform="scale(1 1) rotate(0) translate(4 192)">
<title>include/Database.h</title>
<!-- Node1 -->
<g id="node1" class="node"><title>Node1</title>
<polygon fill="#bfbfbf" stroke="black" points="64.5,-168.5 64.5,-187.5 165.5,-187.5 165.5,-168.5 64.5,-168.5"/>
<text text-anchor="middle" x="115" y="-175.5" font-family="Helvetica,sans-Serif" font-size="10.00">include/Database.h</text>
</g>
<!-- Node2 -->
<g id="node2" class="node"><title>Node2</title>
<polygon fill="none" stroke="#bfbfbf" points="-0.5,-112.5 -0.5,-131.5 58.5,-131.5 58.5,-112.5 -0.5,-112.5"/>
<text text-anchor="middle" x="29" y="-119.5" font-family="Helvetica,sans-Serif" font-size="10.00">functional</text>
</g>
<!-- Node1&#45;&gt;Node2 -->
<g id="edge1" class="edge"><title>Node1&#45;&gt;Node2</title>
<path fill="none" stroke="midnightblue" d="M101.183,-168.324C87.767,-159.9 67.1759,-146.971 51.4144,-137.074"/>
<polygon fill="midnightblue" stroke="midnightblue" points="53.1132,-134.008 42.7831,-131.655 49.3908,-139.936 53.1132,-134.008"/>
</g>
<!-- Node3 -->
<g id="node3" class="node"><title>Node3</title>
<g id="a_node3"><a xlink:href="_string_8h.html" target="_top" xlink:title="String.h">
<polygon fill="none" stroke="black" points="42,-56.5 42,-75.5 92,-75.5 92,-56.5 42,-56.5"/>
<text text-anchor="middle" x="67" y="-63.5" font-family="Helvetica,sans-Serif" font-size="10.00">String.h</text>
</a>
</g>
</g>
<!-- Node1&#45;&gt;Node3 -->
<g id="edge2" class="edge"><title>Node1&#45;&gt;Node3</title>
<path fill="none" stroke="midnightblue" d="M111.234,-168.368C103.417,-150.456 85.2938,-108.923 74.8319,-84.9482"/>
<polygon fill="midnightblue" stroke="midnightblue" points="77.9564,-83.357 70.749,-75.5914 71.5406,-86.1566 77.9564,-83.357"/>
</g>
<!-- Node5 -->
<g id="node5" class="node"><title>Node5</title>
<g id="a_node5"><a xlink:href="_module_8h.html" target="_top" xlink:title="Module.h">
<polygon fill="none" stroke="black" points="115,-112.5 115,-131.5 171,-131.5 171,-112.5 115,-112.5"/>
<text text-anchor="middle" x="143" y="-119.5" font-family="Helvetica,sans-Serif" font-size="10.00">Module.h</text>
</a>
</g>
</g>
<!-- Node1&#45;&gt;Node5 -->
<g id="edge4" class="edge"><title>Node1&#45;&gt;Node5</title>
<path fill="none" stroke="midnightblue" d="M119.624,-168.083C123.456,-160.691 129.024,-149.953 133.765,-140.811"/>
<polygon fill="midnightblue" stroke="midnightblue" points="136.966,-142.24 138.462,-131.751 130.752,-139.018 136.966,-142.24"/>
</g>
<!-- Node10 -->
<g id="node10" class="node"><title>Node10</title>
<g id="a_node10"><a xlink:href="_should_delete_8h.html" target="_top" xlink:title="ShouldDelete.h">
<polygon fill="none" stroke="black" points="189.5,-112.5 189.5,-131.5 272.5,-131.5 272.5,-112.5 189.5,-112.5"/>
<text text-anchor="middle" x="231" y="-119.5" font-family="Helvetica,sans-Serif" font-size="10.00">ShouldDelete.h</text>
</a>
</g>
</g>
<!-- Node1&#45;&gt;Node10 -->
<g id="edge12" class="edge"><title>Node1&#45;&gt;Node10</title>
<path fill="none" stroke="midnightblue" d="M133.381,-168.444C152.216,-159.675 181.731,-145.935 203.379,-135.858"/>
<polygon fill="midnightblue" stroke="midnightblue" points="205.117,-138.91 212.705,-131.516 202.162,-132.564 205.117,-138.91"/>
</g>
<!-- Node4 -->
<g id="node4" class="node"><title>Node4</title>
<polygon fill="none" stroke="#bfbfbf" points="46.5,-0.5 46.5,-19.5 87.5,-19.5 87.5,-0.5 46.5,-0.5"/>
<text text-anchor="middle" x="67" y="-7.5" font-family="Helvetica,sans-Serif" font-size="10.00">string</text>
</g>
<!-- Node3&#45;&gt;Node4 -->
<g id="edge3" class="edge"><title>Node3&#45;&gt;Node4</title>
<path fill="none" stroke="midnightblue" d="M67,-56.083C67,-49.0059 67,-38.8611 67,-29.9865"/>
<polygon fill="midnightblue" stroke="midnightblue" points="70.5001,-29.751 67,-19.7511 63.5001,-29.7511 70.5001,-29.751"/>
</g>
<!-- Node5&#45;&gt;Node3 -->
<g id="edge8" class="edge"><title>Node5&#45;&gt;Node3</title>
<path fill="none" stroke="midnightblue" d="M130.789,-112.324C119.224,-104.107 101.625,-91.6017 87.8393,-81.8069"/>
<polygon fill="midnightblue" stroke="midnightblue" points="89.612,-78.7729 79.4329,-75.8339 85.5575,-84.4791 89.612,-78.7729"/>
</g>
<!-- Node6 -->
<g id="node6" class="node"><title>Node6</title>
<polygon fill="none" stroke="#bfbfbf" points="228.5,-0.5 228.5,-19.5 301.5,-19.5 301.5,-0.5 228.5,-0.5"/>
<text text-anchor="middle" x="265" y="-7.5" font-family="Helvetica,sans-Serif" font-size="10.00">event2/dns.h</text>
</g>
<!-- Node5&#45;&gt;Node6 -->
<g id="edge5" class="edge"><title>Node5&#45;&gt;Node6</title>
<path fill="none" stroke="midnightblue" d="M171.054,-113.198C200.57,-104.412 244.222,-89.5843 255,-76 265.303,-63.014 267.136,-43.8507 266.792,-29.6938"/>
<polygon fill="midnightblue" stroke="midnightblue" points="270.281,-29.3923 266.17,-19.6272 263.294,-29.824 270.281,-29.3923"/>
</g>
<!-- Node7 -->
<g id="node7" class="node"><title>Node7</title>
<polygon fill="none" stroke="#bfbfbf" points="121.5,-0.5 121.5,-19.5 202.5,-19.5 202.5,-0.5 121.5,-0.5"/>
<text text-anchor="middle" x="162" y="-7.5" font-family="Helvetica,sans-Serif" font-size="10.00">event2/event.h</text>
</g>
<!-- Node5&#45;&gt;Node7 -->
<g id="edge6" class="edge"><title>Node5&#45;&gt;Node7</title>
<path fill="none" stroke="midnightblue" d="M140.892,-112.447C138.149,-99.8827 134.237,-75.7856 139,-56 141.307,-46.4183 146.017,-36.5813 150.578,-28.5579"/>
<polygon fill="midnightblue" stroke="midnightblue" points="153.692,-30.1727 155.895,-19.8095 147.711,-26.537 153.692,-30.1727"/>
</g>
<!-- Node8 -->
<g id="node8" class="node"><title>Node8</title>
<polygon fill="none" stroke="#bfbfbf" points="148,-56.5 148,-75.5 178,-75.5 178,-56.5 148,-56.5"/>
<text text-anchor="middle" x="163" y="-63.5" font-family="Helvetica,sans-Serif" font-size="10.00">set</text>
</g>
<!-- Node5&#45;&gt;Node8 -->
<g id="edge7" class="edge"><title>Node5&#45;&gt;Node8</title>
<path fill="none" stroke="midnightblue" d="M146.303,-112.083C148.982,-104.849 152.849,-94.4087 156.186,-85.3968"/>
<polygon fill="midnightblue" stroke="midnightblue" points="159.568,-86.3442 159.759,-75.7511 153.004,-83.9129 159.568,-86.3442"/>
</g>
<!-- Node9 -->
<g id="node9" class="node"><title>Node9</title>
<g id="a_node9"><a xlink:href="_event_8h.html" target="_top" xlink:title="Event.h">
<polygon fill="none" stroke="black" points="196,-56.5 196,-75.5 246,-75.5 246,-56.5 196,-56.5"/>
<text text-anchor="middle" x="221" y="-63.5" font-family="Helvetica,sans-Serif" font-size="10.00">Event.h</text>
</a>
</g>
</g>
<!-- Node5&#45;&gt;Node9 -->
<g id="edge9" class="edge"><title>Node5&#45;&gt;Node9</title>
<path fill="none" stroke="midnightblue" d="M155.532,-112.324C167.586,-103.979 186.027,-91.2122 200.269,-81.3524"/>
<polygon fill="midnightblue" stroke="midnightblue" points="202.269,-84.2243 208.499,-75.6545 198.285,-78.469 202.269,-84.2243"/>
</g>
<!-- Node9&#45;&gt;Node6 -->
<g id="edge10" class="edge"><title>Node9&#45;&gt;Node6</title>
<path fill="none" stroke="midnightblue" d="M228.266,-56.083C234.545,-48.3768 243.788,-37.0333 251.431,-27.6531"/>
<polygon fill="midnightblue" stroke="midnightblue" points="254.266,-29.7143 257.869,-19.7511 248.839,-25.2926 254.266,-29.7143"/>
</g>
<!-- Node9&#45;&gt;Node7 -->
<g id="edge11" class="edge"><title>Node9&#45;&gt;Node7</title>
<path fill="none" stroke="midnightblue" d="M211.521,-56.324C202.799,-48.3414 189.657,-36.3128 179.102,-26.6529"/>
<polygon fill="midnightblue" stroke="midnightblue" points="181.392,-24.0036 171.652,-19.8339 176.666,-29.1674 181.392,-24.0036"/>
</g>
</g>
</svg>
