<?xml version="1.0" encoding="UTF-8" standalone="no"?>
<!DOCTYPE svg PUBLIC "-//W3C//DTD SVG 1.1//EN"
 "http://www.w3.org/Graphics/SVG/1.1/DTD/svg11.dtd">
<!-- Generated by graphviz version 2.34.0 (20140110.0949)
 -->
<!-- Title: include/Decompressor.h Pages: 1 -->
<svg width="249pt" height="196pt"
 viewBox="0.00 0.00 248.81 196.00" xmlns="http://www.w3.org/2000/svg" xmlns:xlink="http://www.w3.org/1999/xlink">
<g id="graph0" class="graph" transform="scale(1 1) rotate(0) translate(4 192)">
<title>include/Decompressor.h</title>
<!-- Node1 -->
<g id="node1" class="node"><title>Node1</title>
<polygon fill="#bfbfbf" stroke="black" points="57.8106,-168.5 57.8106,-187.5 179.811,-187.5 179.811,-168.5 57.8106,-168.5"/>
<text text-anchor="middle" x="118.811" y="-175.5" font-family="Helvetica,sans-Serif" font-size="10.00">include/Decompressor.h</text>
</g>
<!-- Node2 -->
<g id="node2" class="node"><title>Node2</title>
<polygon fill="none" stroke="#bfbfbf" points="42.3106,-0.5 42.3106,-19.5 91.3106,-19.5 91.3106,-0.5 42.3106,-0.5"/>
<text text-anchor="middle" x="66.8106" y="-7.5" font-family="Helvetica,sans-Serif" font-size="10.00">stdint.h</text>
</g>
<!-- Node1&#45;&gt;Node2 -->
<g id="edge1" class="edge"><title>Node1&#45;&gt;Node2</title>
<path fill="none" stroke="midnightblue" d="M101.702,-168.383C74.7124,-153.698 23.2236,-120.985 2.81063,-76 -6.93711,-54.5183 16.327,-36.0287 37.4865,-24.3221"/>
<polygon fill="midnightblue" stroke="midnightblue" points="39.361,-27.2928 46.628,-19.583 36.1392,-21.0782 39.361,-27.2928"/>
</g>
<!-- Node3 -->
<g id="node3" class="node"><title>Node3</title>
<g id="a_node3"><a xlink:href="defines_8h.html" target="_top" xlink:title="defines.h">
<polygon fill="none" stroke="black" points="11.8106,-56.5 11.8106,-75.5 67.8106,-75.5 67.8106,-56.5 11.8106,-56.5"/>
<text text-anchor="middle" x="39.8106" y="-63.5" font-family="Helvetica,sans-Serif" font-size="10.00">defines.h</text>
</a>
</g>
</g>
<!-- Node1&#45;&gt;Node3 -->
<g id="edge2" class="edge"><title>Node1&#45;&gt;Node3</title>
<path fill="none" stroke="midnightblue" d="M111.662,-168.168C104.461,-159.189 93.1153,-144.814 83.8106,-132 72.2131,-116.029 59.6538,-97.3222 50.9336,-84.0885"/>
<polygon fill="midnightblue" stroke="midnightblue" points="53.7389,-81.9837 45.3312,-75.5369 47.8836,-85.8197 53.7389,-81.9837"/>
</g>
<!-- Node4 -->
<g id="node4" class="node"><title>Node4</title>
<g id="a_node4"><a xlink:href="_string_8h.html" target="_top" xlink:title="String.h">
<polygon fill="none" stroke="black" points="187.811,-56.5 187.811,-75.5 237.811,-75.5 237.811,-56.5 187.811,-56.5"/>
<text text-anchor="middle" x="212.811" y="-63.5" font-family="Helvetica,sans-Serif" font-size="10.00">String.h</text>
</a>
</g>
</g>
<!-- Node1&#45;&gt;Node4 -->
<g id="edge3" class="edge"><title>Node1&#45;&gt;Node4</title>
<path fill="none" stroke="midnightblue" d="M126.187,-168.368C141.837,-150.055 178.587,-107.049 198.828,-83.3624"/>
<polygon fill="midnightblue" stroke="midnightblue" points="201.633,-85.4676 205.469,-75.5914 196.311,-80.92 201.633,-85.4676"/>
</g>
<!-- Node6 -->
<g id="node6" class="node"><title>Node6</title>
<g id="a_node6"><a xlink:href="_writer_8h.html" target="_top" xlink:title="Writer.h">
<polygon fill="none" stroke="black" points="93.3106,-112.5 93.3106,-131.5 144.311,-131.5 144.311,-112.5 93.3106,-112.5"/>
<text text-anchor="middle" x="118.811" y="-119.5" font-family="Helvetica,sans-Serif" font-size="10.00">Writer.h</text>
</a>
</g>
</g>
<!-- Node1&#45;&gt;Node6 -->
<g id="edge6" class="edge"><title>Node1&#45;&gt;Node6</title>
<path fill="none" stroke="midnightblue" d="M118.811,-168.083C118.811,-161.006 118.811,-150.861 118.811,-141.986"/>
<polygon fill="midnightblue" stroke="midnightblue" points="122.311,-141.751 118.811,-131.751 115.311,-141.751 122.311,-141.751"/>
</g>
<!-- Node8 -->
<g id="node8" class="node"><title>Node8</title>
<polygon fill="none" stroke="#bfbfbf" points="200.811,-112.5 200.811,-131.5 240.811,-131.5 240.811,-112.5 200.811,-112.5"/>
<text text-anchor="middle" x="220.811" y="-119.5" font-family="Helvetica,sans-Serif" font-size="10.00">zlib.h</text>
</g>
<!-- Node1&#45;&gt;Node8 -->
<g id="edge10" class="edge"><title>Node1&#45;&gt;Node8</title>
<path fill="none" stroke="midnightblue" d="M135.199,-168.324C151.482,-159.703 176.678,-146.364 195.527,-136.386"/>
<polygon fill="midnightblue" stroke="midnightblue" points="197.263,-139.427 204.463,-131.655 193.988,-133.24 197.263,-139.427"/>
</g>
<!-- Node4&#45;&gt;Node2 -->
<g id="edge5" class="edge"><title>Node4&#45;&gt;Node2</title>
<path fill="none" stroke="midnightblue" d="M189.676,-56.4435C165.328,-47.4381 126.803,-33.1891 99.3876,-23.049"/>
<polygon fill="midnightblue" stroke="midnightblue" points="100.43,-19.7028 89.8365,-19.5164 98.0014,-26.2681 100.43,-19.7028"/>
</g>
<!-- Node5 -->
<g id="node5" class="node"><title>Node5</title>
<polygon fill="none" stroke="#bfbfbf" points="192.311,-0.5 192.311,-19.5 233.311,-19.5 233.311,-0.5 192.311,-0.5"/>
<text text-anchor="middle" x="212.811" y="-7.5" font-family="Helvetica,sans-Serif" font-size="10.00">string</text>
</g>
<!-- Node4&#45;&gt;Node5 -->
<g id="edge4" class="edge"><title>Node4&#45;&gt;Node5</title>
<path fill="none" stroke="midnightblue" d="M212.811,-56.083C212.811,-49.0059 212.811,-38.8611 212.811,-29.9865"/>
<polygon fill="midnightblue" stroke="midnightblue" points="216.311,-29.751 212.811,-19.7511 209.311,-29.7511 216.311,-29.751"/>
</g>
<!-- Node6&#45;&gt;Node3 -->
<g id="edge7" class="edge"><title>Node6&#45;&gt;Node3</title>
<path fill="none" stroke="midnightblue" d="M106.118,-112.324C93.9095,-103.979 75.2322,-91.2122 60.8077,-81.3524"/>
<polygon fill="midnightblue" stroke="midnightblue" points="62.7026,-78.4082 52.4718,-75.6545 58.7524,-84.1871 62.7026,-78.4082"/>
</g>
<!-- Node6&#45;&gt;Node4 -->
<g id="edge8" class="edge"><title>Node6&#45;&gt;Node4</title>
<path fill="none" stroke="midnightblue" d="M133.913,-112.324C148.714,-103.822 171.505,-90.7288 188.793,-80.7975"/>
<polygon fill="midnightblue" stroke="midnightblue" points="190.818,-83.6707 197.745,-75.6545 187.331,-77.6009 190.818,-83.6707"/>
</g>
<!-- Node7 -->
<g id="node7" class="node"><title>Node7</title>
<g id="a_node7"><a xlink:href="_should_delete_8h.html" target="_top" xlink:title="ShouldDelete.h">
<polygon fill="none" stroke="black" points="86.3106,-56.5 86.3106,-75.5 169.311,-75.5 169.311,-56.5 86.3106,-56.5"/>
<text text-anchor="middle" x="127.811" y="-63.5" font-family="Helvetica,sans-Serif" font-size="10.00">ShouldDelete.h</text>
</a>
</g>
</g>
<!-- Node6&#45;&gt;Node7 -->
<g id="edge9" class="edge"><title>Node6&#45;&gt;Node7</title>
<path fill="none" stroke="midnightblue" d="M120.297,-112.083C121.489,-104.927 123.205,-94.6353 124.695,-85.6911"/>
<polygon fill="midnightblue" stroke="midnightblue" points="128.16,-86.1904 126.352,-75.7511 121.256,-85.0396 128.16,-86.1904"/>
</g>
</g>
</svg>
