<?xml version="1.0" encoding="UTF-8" standalone="no"?>
<!DOCTYPE svg PUBLIC "-//W3C//DTD SVG 1.1//EN"
 "http://www.w3.org/Graphics/SVG/1.1/DTD/svg11.dtd">
<!-- Generated by graphviz version 2.34.0 (20140110.0949)
 -->
<!-- Title: include/Decompressor.h Pages: 1 -->
<svg width="261pt" height="196pt"
 viewBox="0.00 0.00 261.00 196.00" xmlns="http://www.w3.org/2000/svg" xmlns:xlink="http://www.w3.org/1999/xlink">
<g id="graph0" class="graph" transform="scale(1 1) rotate(0) translate(4 192)">
<title>include/Decompressor.h</title>
<!-- Node1 -->
<g id="node1" class="node"><title>Node1</title>
<polygon fill="#bfbfbf" stroke="black" points="70,-168.5 70,-187.5 192,-187.5 192,-168.5 70,-168.5"/>
<text text-anchor="middle" x="131" y="-175.5" font-family="Helvetica,sans-Serif" font-size="10.00">include/Decompressor.h</text>
</g>
<!-- Node2 -->
<g id="node2" class="node"><title>Node2</title>
<polygon fill="none" stroke="#bfbfbf" points="-0.5,-112.5 -0.5,-131.5 48.5,-131.5 48.5,-112.5 -0.5,-112.5"/>
<text text-anchor="middle" x="24" y="-119.5" font-family="Helvetica,sans-Serif" font-size="10.00">stdint.h</text>
</g>
<!-- Node1&#45;&gt;Node2 -->
<g id="edge1" class="edge"><title>Node1&#45;&gt;Node2</title>
<path fill="none" stroke="midnightblue" d="M113.809,-168.324C96.6491,-159.664 70.0543,-146.242 50.2527,-136.249"/>
<polygon fill="midnightblue" stroke="midnightblue" points="51.6532,-133.035 41.1487,-131.655 48.4993,-139.285 51.6532,-133.035"/>
</g>
<!-- Node3 -->
<g id="node3" class="node"><title>Node3</title>
<g id="a_node3"><a xlink:href="defines_8h.html" target="_top" xlink:title="defines.h">
<polygon fill="none" stroke="black" points="15,-56.5 15,-75.5 71,-75.5 71,-56.5 15,-56.5"/>
<text text-anchor="middle" x="43" y="-63.5" font-family="Helvetica,sans-Serif" font-size="10.00">defines.h</text>
</a>
</g>
</g>
<!-- Node1&#45;&gt;Node3 -->
<g id="edge2" class="edge"><title>Node1&#45;&gt;Node3</title>
<path fill="none" stroke="midnightblue" d="M124.095,-168.368C109.508,-150.135 75.3406,-107.426 56.3402,-83.6752"/>
<polygon fill="midnightblue" stroke="midnightblue" points="58.8532,-81.2137 49.8731,-75.5914 53.3871,-85.5866 58.8532,-81.2137"/>
</g>
<!-- Node4 -->
<g id="node4" class="node"><title>Node4</title>
<g id="a_node4"><a xlink:href="_string_8h.html" target="_top" xlink:title="String.h">
<polygon fill="none" stroke="black" points="191,-56.5 191,-75.5 241,-75.5 241,-56.5 191,-56.5"/>
<text text-anchor="middle" x="216" y="-63.5" font-family="Helvetica,sans-Serif" font-size="10.00">String.h</text>
</a>
</g>
</g>
<!-- Node1&#45;&gt;Node4 -->
<g id="edge3" class="edge"><title>Node1&#45;&gt;Node4</title>
<path fill="none" stroke="midnightblue" d="M137.67,-168.368C151.759,-150.135 184.762,-107.426 203.115,-83.6752"/>
<polygon fill="midnightblue" stroke="midnightblue" points="206.016,-85.6444 209.361,-75.5914 200.477,-81.3642 206.016,-85.6444"/>
</g>
<!-- Node6 -->
<g id="node6" class="node"><title>Node6</title>
<g id="a_node6"><a xlink:href="_writer_8h.html" target="_top" xlink:title="Writer.h">
<polygon fill="none" stroke="black" points="105.5,-112.5 105.5,-131.5 156.5,-131.5 156.5,-112.5 105.5,-112.5"/>
<text text-anchor="middle" x="131" y="-119.5" font-family="Helvetica,sans-Serif" font-size="10.00">Writer.h</text>
</a>
</g>
</g>
<!-- Node1&#45;&gt;Node6 -->
<g id="edge5" class="edge"><title>Node1&#45;&gt;Node6</title>
<path fill="none" stroke="midnightblue" d="M131,-168.083C131,-161.006 131,-150.861 131,-141.986"/>
<polygon fill="midnightblue" stroke="midnightblue" points="134.5,-141.751 131,-131.751 127.5,-141.751 134.5,-141.751"/>
</g>
<!-- Node8 -->
<g id="node8" class="node"><title>Node8</title>
<polygon fill="none" stroke="#bfbfbf" points="213,-112.5 213,-131.5 253,-131.5 253,-112.5 213,-112.5"/>
<text text-anchor="middle" x="233" y="-119.5" font-family="Helvetica,sans-Serif" font-size="10.00">zlib.h</text>
</g>
<!-- Node1&#45;&gt;Node8 -->
<g id="edge9" class="edge"><title>Node1&#45;&gt;Node8</title>
<path fill="none" stroke="midnightblue" d="M147.388,-168.324C163.671,-159.703 188.867,-146.364 207.716,-136.386"/>
<polygon fill="midnightblue" stroke="midnightblue" points="209.452,-139.427 216.653,-131.655 206.177,-133.24 209.452,-139.427"/>
</g>
<!-- Node5 -->
<g id="node5" class="node"><title>Node5</title>
<polygon fill="none" stroke="#bfbfbf" points="195.5,-0.5 195.5,-19.5 236.5,-19.5 236.5,-0.5 195.5,-0.5"/>
<text text-anchor="middle" x="216" y="-7.5" font-family="Helvetica,sans-Serif" font-size="10.00">string</text>
</g>
<!-- Node4&#45;&gt;Node5 -->
<g id="edge4" class="edge"><title>Node4&#45;&gt;Node5</title>
<path fill="none" stroke="midnightblue" d="M216,-56.083C216,-49.0059 216,-38.8611 216,-29.9865"/>
<polygon fill="midnightblue" stroke="midnightblue" points="219.5,-29.751 216,-19.7511 212.5,-29.7511 219.5,-29.751"/>
</g>
<!-- Node6&#45;&gt;Node3 -->
<g id="edge6" class="edge"><title>Node6&#45;&gt;Node3</title>
<path fill="none" stroke="midnightblue" d="M116.861,-112.324C103.134,-103.9 82.0637,-90.9709 65.9357,-81.0741"/>
<polygon fill="midnightblue" stroke="midnightblue" points="67.4574,-77.9016 57.1036,-75.6545 63.7963,-83.8678 67.4574,-77.9016"/>
</g>
<!-- Node6&#45;&gt;Node4 -->
<g id="edge7" class="edge"><title>Node6&#45;&gt;Node4</title>
<path fill="none" stroke="midnightblue" d="M144.657,-112.324C157.916,-103.9 178.268,-90.9709 193.846,-81.0741"/>
<polygon fill="midnightblue" stroke="midnightblue" points="195.813,-83.9711 202.377,-75.6545 192.06,-78.0626 195.813,-83.9711"/>
</g>
<!-- Node7 -->
<g id="node7" class="node"><title>Node7</title>
<g id="a_node7"><a xlink:href="_should_delete_8h.html" target="_top" xlink:title="ShouldDelete.h">
<polygon fill="none" stroke="black" points="89.5,-56.5 89.5,-75.5 172.5,-75.5 172.5,-56.5 89.5,-56.5"/>
<text text-anchor="middle" x="131" y="-63.5" font-family="Helvetica,sans-Serif" font-size="10.00">ShouldDelete.h</text>
</a>
</g>
</g>
<!-- Node6&#45;&gt;Node7 -->
<g id="edge8" class="edge"><title>Node6&#45;&gt;Node7</title>
<path fill="none" stroke="midnightblue" d="M131,-112.083C131,-105.006 131,-94.8611 131,-85.9865"/>
<polygon fill="midnightblue" stroke="midnightblue" points="134.5,-85.751 131,-75.7511 127.5,-85.7511 134.5,-85.751"/>
</g>
</g>
</svg>
