<?xml version="1.0" encoding="UTF-8" standalone="no"?>
<!DOCTYPE svg PUBLIC "-//W3C//DTD SVG 1.1//EN"
 "http://www.w3.org/Graphics/SVG/1.1/DTD/svg11.dtd">
<!-- Generated by graphviz version 2.34.0 (20140110.0949)
 -->
<!-- Title: include/Event.h Pages: 1 -->
<svg width="872pt" height="252pt"
 viewBox="0.00 0.00 872.00 252.00" xmlns="http://www.w3.org/2000/svg" xmlns:xlink="http://www.w3.org/1999/xlink">
<g id="graph0" class="graph" transform="scale(1 1) rotate(0) translate(4 248)">
<title>include/Event.h</title>
<!-- Node1 -->
<g id="node1" class="node"><title>Node1</title>
<polygon fill="#bfbfbf" stroke="black" points="441,-224.5 441,-243.5 525,-243.5 525,-224.5 441,-224.5"/>
<text text-anchor="middle" x="483" y="-231.5" font-family="Helvetica,sans-Serif" font-size="10.00">include/Event.h</text>
</g>
<!-- Node2 -->
<g id="node2" class="node"><title>Node2</title>
<g id="a_node2"><a xlink:href="_module_8h.html" target="_top" xlink:title="include/Module.h">
<polygon fill="none" stroke="black" points="438,-168.5 438,-187.5 528,-187.5 528,-168.5 438,-168.5"/>
<text text-anchor="middle" x="483" y="-175.5" font-family="Helvetica,sans-Serif" font-size="10.00">include/Module.h</text>
</a>
</g>
</g>
<!-- Node1&#45;&gt;Node2 -->
<g id="edge1" class="edge"><title>Node1&#45;&gt;Node2</title>
<path fill="none" stroke="midnightblue" d="M483,-213.805C483,-204.91 483,-194.78 483,-187.751"/>
<polygon fill="midnightblue" stroke="midnightblue" points="479.5,-214.083 483,-224.083 486.5,-214.083 479.5,-214.083"/>
</g>
<!-- Node8 -->
<g id="node8" class="node"><title>Node8</title>
<g id="a_node8"><a xlink:href="_d_n_s_8h.html" target="_top" xlink:title="include/DNS.h">
<polygon fill="none" stroke="black" points="135,-56.5 135,-75.5 215,-75.5 215,-56.5 135,-56.5"/>
<text text-anchor="middle" x="175" y="-63.5" font-family="Helvetica,sans-Serif" font-size="10.00">include/DNS.h</text>
</a>
</g>
</g>
<!-- Node1&#45;&gt;Node8 -->
<g id="edge17" class="edge"><title>Node1&#45;&gt;Node8</title>
<path fill="none" stroke="midnightblue" d="M430.447,-224.279C371.784,-212.254 276.742,-185.674 213,-132 194.602,-116.508 183.02,-89.7066 177.961,-75.8563"/>
<polygon fill="midnightblue" stroke="midnightblue" points="430.116,-227.781 440.605,-226.29 431.476,-220.914 430.116,-227.781"/>
</g>
<!-- Node16 -->
<g id="node16" class="node"><title>Node16</title>
<g id="a_node16"><a xlink:href="_thread_8h.html" target="_top" xlink:title="include/Thread.h">
<polygon fill="none" stroke="black" points="708.5,-168.5 708.5,-187.5 797.5,-187.5 797.5,-168.5 708.5,-168.5"/>
<text text-anchor="middle" x="753" y="-175.5" font-family="Helvetica,sans-Serif" font-size="10.00">include/Thread.h</text>
</a>
</g>
</g>
<!-- Node1&#45;&gt;Node16 -->
<g id="edge18" class="edge"><title>Node1&#45;&gt;Node16</title>
<path fill="none" stroke="midnightblue" d="M535.019,-222.596C585.974,-212.405 662.697,-197.061 710.218,-187.556"/>
<polygon fill="midnightblue" stroke="midnightblue" points="534.307,-219.169 525.188,-224.562 535.68,-226.033 534.307,-219.169"/>
</g>
<!-- Node3 -->
<g id="node3" class="node"><title>Node3</title>
<g id="a_node3"><a xlink:href="_timer_8h.html" target="_top" xlink:title="include/Timer.h">
<polygon fill="none" stroke="black" points="39.5,-112.5 39.5,-131.5 122.5,-131.5 122.5,-112.5 39.5,-112.5"/>
<text text-anchor="middle" x="81" y="-119.5" font-family="Helvetica,sans-Serif" font-size="10.00">include/Timer.h</text>
</a>
</g>
</g>
<!-- Node2&#45;&gt;Node3 -->
<g id="edge2" class="edge"><title>Node2&#45;&gt;Node3</title>
<path fill="none" stroke="midnightblue" d="M427.588,-169.557C345.993,-158.596 195.342,-138.359 122.538,-128.58"/>
<polygon fill="midnightblue" stroke="midnightblue" points="427.29,-173.048 437.667,-170.91 428.222,-166.11 427.29,-173.048"/>
</g>
<!-- Node6 -->
<g id="node6" class="node"><title>Node6</title>
<g id="a_node6"><a xlink:href="_database_8h.html" target="_top" xlink:title="include/Database.h">
<polygon fill="none" stroke="black" points="233.5,-56.5 233.5,-75.5 334.5,-75.5 334.5,-56.5 233.5,-56.5"/>
<text text-anchor="middle" x="284" y="-63.5" font-family="Helvetica,sans-Serif" font-size="10.00">include/Database.h</text>
</a>
</g>
</g>
<!-- Node2&#45;&gt;Node6 -->
<g id="edge5" class="edge"><title>Node2&#45;&gt;Node6</title>
<path fill="none" stroke="midnightblue" d="M427.619,-175.56C358.698,-172.464 246.887,-162.713 221,-132 203.073,-110.731 240.052,-87.8004 264.583,-75.6732"/>
<polygon fill="midnightblue" stroke="midnightblue" points="427.74,-179.068 437.876,-175.986 428.03,-172.074 427.74,-179.068"/>
</g>
<!-- Node7 -->
<g id="node7" class="node"><title>Node7</title>
<g id="a_node7"><a xlink:href="_socket_8h.html" target="_top" xlink:title="include/Socket.h">
<polygon fill="none" stroke="black" points="385.5,-112.5 385.5,-131.5 474.5,-131.5 474.5,-112.5 385.5,-112.5"/>
<text text-anchor="middle" x="430" y="-119.5" font-family="Helvetica,sans-Serif" font-size="10.00">include/Socket.h</text>
</a>
</g>
</g>
<!-- Node2&#45;&gt;Node7 -->
<g id="edge7" class="edge"><title>Node2&#45;&gt;Node7</title>
<path fill="none" stroke="midnightblue" d="M467.019,-160.718C457.678,-151.2 446.254,-139.561 438.589,-131.751"/>
<polygon fill="midnightblue" stroke="midnightblue" points="464.746,-163.398 474.248,-168.083 469.741,-158.494 464.746,-163.398"/>
</g>
<!-- Node11 -->
<g id="node11" class="node"><title>Node11</title>
<g id="a_node11"><a xlink:href="_global_8h.html" target="_top" xlink:title="include/Global.h">
<polygon fill="none" stroke="black" points="493,-112.5 493,-131.5 579,-131.5 579,-112.5 493,-112.5"/>
<text text-anchor="middle" x="536" y="-119.5" font-family="Helvetica,sans-Serif" font-size="10.00">include/Global.h</text>
</a>
</g>
</g>
<!-- Node2&#45;&gt;Node11 -->
<g id="edge11" class="edge"><title>Node2&#45;&gt;Node11</title>
<path fill="none" stroke="midnightblue" d="M498.981,-160.718C508.322,-151.2 519.746,-139.561 527.411,-131.751"/>
<polygon fill="midnightblue" stroke="midnightblue" points="496.259,-158.494 491.752,-168.083 501.254,-163.398 496.259,-158.494"/>
</g>
<!-- Node12 -->
<g id="node12" class="node"><title>Node12</title>
<g id="a_node12"><a xlink:href="_job_thread_8h.html" target="_top" xlink:title="include/JobThread.h">
<polygon fill="none" stroke="black" points="760,-56.5 760,-75.5 864,-75.5 864,-56.5 760,-56.5"/>
<text text-anchor="middle" x="812" y="-63.5" font-family="Helvetica,sans-Serif" font-size="10.00">include/JobThread.h</text>
</a>
</g>
</g>
<!-- Node2&#45;&gt;Node12 -->
<g id="edge12" class="edge"><title>Node2&#45;&gt;Node12</title>
<path fill="none" stroke="midnightblue" d="M513.951,-164.496C535.017,-155.8 563.425,-143.711 588,-132 605.229,-123.79 608.144,-118.74 626,-112 670.915,-95.0465 724.386,-82.8946 762.444,-75.5252"/>
<polygon fill="midnightblue" stroke="midnightblue" points="512.463,-161.323 504.54,-168.357 515.12,-167.799 512.463,-161.323"/>
</g>
<!-- Node13 -->
<g id="node13" class="node"><title>Node13</title>
<g id="a_node13"><a xlink:href="_pipe_8h.html" target="_top" xlink:title="include/Pipe.h">
<polygon fill="none" stroke="black" points="773,-112.5 773,-131.5 851,-131.5 851,-112.5 773,-112.5"/>
<text text-anchor="middle" x="812" y="-119.5" font-family="Helvetica,sans-Serif" font-size="10.00">include/Pipe.h</text>
</a>
</g>
</g>
<!-- Node2&#45;&gt;Node13 -->
<g id="edge13" class="edge"><title>Node2&#45;&gt;Node13</title>
<path fill="none" stroke="midnightblue" d="M538.512,-168.555C595.247,-159.82 685.869,-145.578 764,-132 766.924,-131.492 769.945,-130.954 772.983,-130.405"/>
<polygon fill="midnightblue" stroke="midnightblue" points="537.676,-165.143 528.323,-170.121 538.739,-172.061 537.676,-165.143"/>
</g>
<!-- Node14 -->
<g id="node14" class="node"><title>Node14</title>
<g id="a_node14"><a xlink:href="_module_thread_8h.html" target="_top" xlink:title="include/ModuleThread.h">
<polygon fill="none" stroke="black" points="635,-112.5 635,-131.5 755,-131.5 755,-112.5 635,-112.5"/>
<text text-anchor="middle" x="695" y="-119.5" font-family="Helvetica,sans-Serif" font-size="10.00">include/ModuleThread.h</text>
</a>
</g>
</g>
<!-- Node2&#45;&gt;Node14 -->
<g id="edge15" class="edge"><title>Node2&#45;&gt;Node14</title>
<path fill="none" stroke="midnightblue" d="M526.346,-165.959C566.387,-155.76 625.033,-140.822 661.565,-131.516"/>
<polygon fill="midnightblue" stroke="midnightblue" points="525.419,-162.583 516.592,-168.444 527.147,-169.367 525.419,-162.583"/>
</g>
<!-- Node15 -->
<g id="node15" class="node"><title>Node15</title>
<g id="a_node15"><a xlink:href="_sub_module_loader_8h.html" target="_top" xlink:title="include/SubModuleLoader.h">
<polygon fill="none" stroke="black" points="230.5,-112.5 230.5,-131.5 367.5,-131.5 367.5,-112.5 230.5,-112.5"/>
<text text-anchor="middle" x="299" y="-119.5" font-family="Helvetica,sans-Serif" font-size="10.00">include/SubModuleLoader.h</text>
</a>
</g>
</g>
<!-- Node2&#45;&gt;Node15 -->
<g id="edge16" class="edge"><title>Node2&#45;&gt;Node15</title>
<path fill="none" stroke="midnightblue" d="M444.046,-165.568C409.335,-155.381 359.323,-140.703 328.019,-131.516"/>
<polygon fill="midnightblue" stroke="midnightblue" points="443.264,-168.986 453.845,-168.444 445.235,-162.269 443.264,-168.986"/>
</g>
<!-- Node4 -->
<g id="node4" class="node"><title>Node4</title>
<g id="a_node4"><a xlink:href="_backoff_timer_8h.html" target="_top" xlink:title="include/BackoffTimer.h">
<polygon fill="none" stroke="black" points="-0.5,-56.5 -0.5,-75.5 116.5,-75.5 116.5,-56.5 -0.5,-56.5"/>
<text text-anchor="middle" x="58" y="-63.5" font-family="Helvetica,sans-Serif" font-size="10.00">include/BackoffTimer.h</text>
</a>
</g>
</g>
<!-- Node3&#45;&gt;Node4 -->
<g id="edge3" class="edge"><title>Node3&#45;&gt;Node4</title>
<path fill="none" stroke="midnightblue" d="M73.2012,-102.69C69.325,-93.589 64.8208,-83.0141 61.7273,-75.7511"/>
<polygon fill="midnightblue" stroke="midnightblue" points="70.0633,-104.254 77.202,-112.083 76.5034,-101.511 70.0633,-104.254"/>
</g>
<!-- Node5 -->
<g id="node5" class="node"><title>Node5</title>
<g id="a_node5"><a xlink:href="_postgres_8h.html" target="_top" xlink:title="include/Postgres.h">
<polygon fill="none" stroke="black" points="122,-0.5 122,-19.5 220,-19.5 220,-0.5 122,-0.5"/>
<text text-anchor="middle" x="171" y="-7.5" font-family="Helvetica,sans-Serif" font-size="10.00">include/Postgres.h</text>
</a>
</g>
</g>
<!-- Node4&#45;&gt;Node5 -->
<g id="edge4" class="edge"><title>Node4&#45;&gt;Node5</title>
<path fill="none" stroke="midnightblue" d="M85.0028,-52.096C106.114,-42.0073 134.862,-28.2697 153.179,-19.5164"/>
<polygon fill="midnightblue" stroke="midnightblue" points="83.4188,-48.9738 75.9052,-56.4435 86.437,-55.2897 83.4188,-48.9738"/>
</g>
<!-- Node6&#45;&gt;Node5 -->
<g id="edge6" class="edge"><title>Node6&#45;&gt;Node5</title>
<path fill="none" stroke="midnightblue" d="M256.997,-52.096C235.886,-42.0073 207.138,-28.2697 188.821,-19.5164"/>
<polygon fill="midnightblue" stroke="midnightblue" points="255.563,-55.2897 266.095,-56.4435 258.581,-48.9738 255.563,-55.2897"/>
</g>
<!-- Node7&#45;&gt;Node8 -->
<g id="edge8" class="edge"><title>Node7&#45;&gt;Node8</title>
<path fill="none" stroke="midnightblue" d="M379.688,-110.346C331.497,-100.141 259.717,-84.94 215.216,-75.5164"/>
<polygon fill="midnightblue" stroke="midnightblue" points="379.086,-113.796 389.594,-112.444 380.537,-106.948 379.086,-113.796"/>
</g>
<!-- Node9 -->
<g id="node9" class="node"><title>Node9</title>
<g id="a_node9"><a xlink:href="_listener_8h.html" target="_top" xlink:title="include/Listener.h">
<polygon fill="none" stroke="black" points="373.5,-56.5 373.5,-75.5 466.5,-75.5 466.5,-56.5 373.5,-56.5"/>
<text text-anchor="middle" x="420" y="-63.5" font-family="Helvetica,sans-Serif" font-size="10.00">include/Listener.h</text>
</a>
</g>
</g>
<!-- Node7&#45;&gt;Node9 -->
<g id="edge9" class="edge"><title>Node7&#45;&gt;Node9</title>
<path fill="none" stroke="midnightblue" d="M426.5,-102.101C424.84,-93.1357 422.937,-82.8579 421.621,-75.7511"/>
<polygon fill="midnightblue" stroke="midnightblue" points="423.086,-102.888 428.349,-112.083 429.969,-101.613 423.086,-102.888"/>
</g>
<!-- Node10 -->
<g id="node10" class="node"><title>Node10</title>
<g id="a_node10"><a xlink:href="_simple_h_t_t_p_socket_8h.html" target="_top" xlink:title="include/SimpleHTTPSocket.h">
<polygon fill="none" stroke="black" points="485,-56.5 485,-75.5 631,-75.5 631,-56.5 485,-56.5"/>
<text text-anchor="middle" x="558" y="-63.5" font-family="Helvetica,sans-Serif" font-size="10.00">include/SimpleHTTPSocket.h</text>
</a>
</g>
</g>
<!-- Node7&#45;&gt;Node10 -->
<g id="edge10" class="edge"><title>Node7&#45;&gt;Node10</title>
<path fill="none" stroke="midnightblue" d="M459.623,-108.503C483.619,-98.3795 516.784,-84.388 537.813,-75.5164"/>
<polygon fill="midnightblue" stroke="midnightblue" points="458.135,-105.332 450.282,-112.444 460.856,-111.781 458.135,-105.332"/>
</g>
<!-- Node13&#45;&gt;Node12 -->
<g id="edge14" class="edge"><title>Node13&#45;&gt;Node12</title>
<path fill="none" stroke="midnightblue" d="M812,-101.805C812,-92.9102 812,-82.7798 812,-75.7511"/>
<polygon fill="midnightblue" stroke="midnightblue" points="808.5,-102.083 812,-112.083 815.5,-102.083 808.5,-102.083"/>
</g>
<!-- Node16&#45;&gt;Node12 -->
<g id="edge19" class="edge"><title>Node16&#45;&gt;Node12</title>
<path fill="none" stroke="midnightblue" d="M807.427,-167.265C827.422,-160.768 848.07,-149.96 860,-132 873.816,-111.201 845.213,-87.9005 826.501,-75.6329"/>
<polygon fill="midnightblue" stroke="midnightblue" points="806.313,-163.944 797.705,-170.12 808.286,-170.66 806.313,-163.944"/>
</g>
<!-- Node16&#45;&gt;Node13 -->
<g id="edge20" class="edge"><title>Node16&#45;&gt;Node13</title>
<path fill="none" stroke="midnightblue" d="M769.895,-161.537C780.415,-151.909 793.569,-139.869 802.348,-131.834"/>
<polygon fill="midnightblue" stroke="midnightblue" points="767.493,-158.99 762.479,-168.324 772.219,-164.154 767.493,-158.99"/>
</g>
<!-- Node16&#45;&gt;Node14 -->
<g id="edge21" class="edge"><title>Node16&#45;&gt;Node14</title>
<path fill="none" stroke="midnightblue" d="M736.087,-161.253C725.797,-151.673 713.034,-139.791 704.488,-131.834"/>
<polygon fill="midnightblue" stroke="midnightblue" points="733.977,-164.071 743.681,-168.324 738.747,-158.948 733.977,-164.071"/>
</g>
</g>
</svg>
