<?xml version="1.0" encoding="UTF-8" standalone="no"?>
<!DOCTYPE svg PUBLIC "-//W3C//DTD SVG 1.1//EN"
 "http://www.w3.org/Graphics/SVG/1.1/DTD/svg11.dtd">
<!-- Generated by graphviz version 2.34.0 (20140110.0949)
 -->
<!-- Title: include/Event.h Pages: 1 -->
<svg width="1187pt" height="252pt"
 viewBox="0.00 0.00 1187.31 252.00" xmlns="http://www.w3.org/2000/svg" xmlns:xlink="http://www.w3.org/1999/xlink">
<g id="graph0" class="graph" transform="scale(1 1) rotate(0) translate(4 248)">
<title>include/Event.h</title>
<!-- Node1 -->
<g id="node1" class="node"><title>Node1</title>
<polygon fill="#bfbfbf" stroke="black" points="725,-224.5 725,-243.5 809,-243.5 809,-224.5 725,-224.5"/>
<text text-anchor="middle" x="767" y="-231.5" font-family="Helvetica,sans-Serif" font-size="10.00">include/Event.h</text>
</g>
<!-- Node2 -->
<g id="node2" class="node"><title>Node2</title>
<g id="a_node2"><a xlink:href="_module_8h.html" target="_top" xlink:title="include/Module.h">
<polygon fill="none" stroke="black" points="588,-168.5 588,-187.5 678,-187.5 678,-168.5 588,-168.5"/>
<text text-anchor="middle" x="633" y="-175.5" font-family="Helvetica,sans-Serif" font-size="10.00">include/Module.h</text>
</a>
</g>
</g>
<!-- Node1&#45;&gt;Node2 -->
<g id="edge1" class="edge"><title>Node1&#45;&gt;Node2</title>
<path fill="none" stroke="midnightblue" d="M736.323,-220.638C711.177,-210.504 676.246,-196.427 654.133,-187.516"/>
<polygon fill="midnightblue" stroke="midnightblue" points="735.184,-223.952 745.767,-224.444 737.8,-217.459 735.184,-223.952"/>
</g>
<!-- Node8 -->
<g id="node8" class="node"><title>Node8</title>
<g id="a_node8"><a xlink:href="_d_n_s_8h.html" target="_top" xlink:title="include/DNS.h">
<polygon fill="none" stroke="black" points="254,-56.5 254,-75.5 334,-75.5 334,-56.5 254,-56.5"/>
<text text-anchor="middle" x="294" y="-63.5" font-family="Helvetica,sans-Serif" font-size="10.00">include/DNS.h</text>
</a>
</g>
</g>
<!-- Node1&#45;&gt;Node8 -->
<g id="edge19" class="edge"><title>Node1&#45;&gt;Node8</title>
<path fill="none" stroke="midnightblue" d="M714.746,-229.766C603.251,-221.669 347.871,-196.363 295,-132 281.819,-115.954 287.069,-89.3948 291.065,-75.7247"/>
<polygon fill="midnightblue" stroke="midnightblue" points="714.535,-233.259 724.757,-230.474 715.029,-226.277 714.535,-233.259"/>
</g>
<!-- Node17 -->
<g id="node17" class="node"><title>Node17</title>
<g id="a_node17"><a xlink:href="_trigger_event_8h.html" target="_top" xlink:title="include/TriggerEvent.h">
<polygon fill="none" stroke="black" points="710,-112.5 710,-131.5 824,-131.5 824,-112.5 710,-112.5"/>
<text text-anchor="middle" x="767" y="-119.5" font-family="Helvetica,sans-Serif" font-size="10.00">include/TriggerEvent.h</text>
</a>
</g>
</g>
<!-- Node1&#45;&gt;Node17 -->
<g id="edge28" class="edge"><title>Node1&#45;&gt;Node17</title>
<path fill="none" stroke="midnightblue" d="M767,-214.348C767,-190.254 767,-149.308 767,-131.591"/>
<polygon fill="midnightblue" stroke="midnightblue" points="763.5,-214.368 767,-224.368 770.5,-214.369 763.5,-214.368"/>
</g>
<!-- Node18 -->
<g id="node18" class="node"><title>Node18</title>
<g id="a_node18"><a xlink:href="_files_8h.html" target="_top" xlink:title="include/Files.h">
<polygon fill="none" stroke="black" points="846,-168.5 846,-187.5 926,-187.5 926,-168.5 846,-168.5"/>
<text text-anchor="middle" x="886" y="-175.5" font-family="Helvetica,sans-Serif" font-size="10.00">include/Files.h</text>
</a>
</g>
</g>
<!-- Node1&#45;&gt;Node18 -->
<g id="edge20" class="edge"><title>Node1&#45;&gt;Node18</title>
<path fill="none" stroke="midnightblue" d="M795.137,-220.232C817.396,-210.131 847.856,-196.309 867.232,-187.516"/>
<polygon fill="midnightblue" stroke="midnightblue" points="793.516,-217.124 785.856,-224.444 796.409,-223.498 793.516,-217.124"/>
</g>
<!-- Node20 -->
<g id="node20" class="node"><title>Node20</title>
<g id="a_node20"><a xlink:href="_thread_8h.html" target="_top" xlink:title="include/Thread.h">
<polygon fill="none" stroke="black" points="1001.5,-168.5 1001.5,-187.5 1090.5,-187.5 1090.5,-168.5 1001.5,-168.5"/>
<text text-anchor="middle" x="1046" y="-175.5" font-family="Helvetica,sans-Serif" font-size="10.00">include/Thread.h</text>
</a>
</g>
</g>
<!-- Node1&#45;&gt;Node20 -->
<g id="edge24" class="edge"><title>Node1&#45;&gt;Node20</title>
<path fill="none" stroke="midnightblue" d="M819.208,-222.895C871.827,-212.711 952.148,-197.165 1001.74,-187.567"/>
<polygon fill="midnightblue" stroke="midnightblue" points="818.224,-219.521 809.071,-224.857 819.554,-226.393 818.224,-219.521"/>
</g>
<!-- Node3 -->
<g id="node3" class="node"><title>Node3</title>
<g id="a_node3"><a xlink:href="_timer_8h.html" target="_top" xlink:title="include/Timer.h">
<polygon fill="none" stroke="black" points="71.5,-112.5 71.5,-131.5 154.5,-131.5 154.5,-112.5 71.5,-112.5"/>
<text text-anchor="middle" x="113" y="-119.5" font-family="Helvetica,sans-Serif" font-size="10.00">include/Timer.h</text>
</a>
</g>
</g>
<!-- Node2&#45;&gt;Node3 -->
<g id="edge2" class="edge"><title>Node2&#45;&gt;Node3</title>
<path fill="none" stroke="midnightblue" d="M577.717,-171.259C473.057,-160.391 248.123,-137.032 154.851,-127.346"/>
<polygon fill="midnightblue" stroke="midnightblue" points="577.455,-174.751 587.763,-172.302 578.178,-167.788 577.455,-174.751"/>
</g>
<!-- Node6 -->
<g id="node6" class="node"><title>Node6</title>
<g id="a_node6"><a xlink:href="_database_8h.html" target="_top" xlink:title="include/Database.h">
<polygon fill="none" stroke="black" points="134.5,-56.5 134.5,-75.5 235.5,-75.5 235.5,-56.5 134.5,-56.5"/>
<text text-anchor="middle" x="185" y="-63.5" font-family="Helvetica,sans-Serif" font-size="10.00">include/Database.h</text>
</a>
</g>
</g>
<!-- Node2&#45;&gt;Node6 -->
<g id="edge5" class="edge"><title>Node2&#45;&gt;Node6</title>
<path fill="none" stroke="midnightblue" d="M577.849,-176.365C509.631,-174.076 390.785,-165.134 295,-132 255.798,-118.44 215.174,-90.0071 196.122,-75.6653"/>
<polygon fill="midnightblue" stroke="midnightblue" points="577.845,-179.866 587.945,-176.667 578.054,-172.869 577.845,-179.866"/>
</g>
<!-- Node7 -->
<g id="node7" class="node"><title>Node7</title>
<g id="a_node7"><a xlink:href="_socket_8h.html" target="_top" xlink:title="include/Socket.h">
<polygon fill="none" stroke="black" points="304.5,-112.5 304.5,-131.5 393.5,-131.5 393.5,-112.5 304.5,-112.5"/>
<text text-anchor="middle" x="349" y="-119.5" font-family="Helvetica,sans-Serif" font-size="10.00">include/Socket.h</text>
</a>
</g>
</g>
<!-- Node2&#45;&gt;Node7 -->
<g id="edge7" class="edge"><title>Node2&#45;&gt;Node7</title>
<path fill="none" stroke="midnightblue" d="M577.973,-166.537C524.299,-156.332 443.662,-140.999 393.79,-131.516"/>
<polygon fill="midnightblue" stroke="midnightblue" points="577.522,-170.014 587.999,-168.444 578.829,-163.137 577.522,-170.014"/>
</g>
<!-- Node12 -->
<g id="node12" class="node"><title>Node12</title>
<g id="a_node12"><a xlink:href="_global_8h.html" target="_top" xlink:title="include/Global.h">
<polygon fill="none" stroke="black" points="412,-112.5 412,-131.5 498,-131.5 498,-112.5 412,-112.5"/>
<text text-anchor="middle" x="455" y="-119.5" font-family="Helvetica,sans-Serif" font-size="10.00">include/Global.h</text>
</a>
</g>
</g>
<!-- Node2&#45;&gt;Node12 -->
<g id="edge12" class="edge"><title>Node2&#45;&gt;Node12</title>
<path fill="none" stroke="midnightblue" d="M594.883,-165.436C561.322,-155.255 513.226,-140.664 483.073,-131.516"/>
<polygon fill="midnightblue" stroke="midnightblue" points="594.21,-168.89 604.795,-168.444 596.242,-162.191 594.21,-168.89"/>
</g>
<!-- Node13 -->
<g id="node13" class="node"><title>Node13</title>
<g id="a_node13"><a xlink:href="_job_thread_8h.html" target="_top" xlink:title="include/JobThread.h">
<polygon fill="none" stroke="black" points="935,-56.5 935,-75.5 1039,-75.5 1039,-56.5 935,-56.5"/>
<text text-anchor="middle" x="987" y="-63.5" font-family="Helvetica,sans-Serif" font-size="10.00">include/JobThread.h</text>
</a>
</g>
</g>
<!-- Node2&#45;&gt;Node13 -->
<g id="edge13" class="edge"><title>Node2&#45;&gt;Node13</title>
<path fill="none" stroke="midnightblue" d="M645.691,-160.015C658.043,-144.82 678.241,-123.261 701,-112 741.152,-92.1342 864.047,-78.1162 934.993,-71.4339"/>
<polygon fill="midnightblue" stroke="midnightblue" points="642.771,-158.067 639.365,-168.1 648.284,-162.381 642.771,-158.067"/>
</g>
<!-- Node14 -->
<g id="node14" class="node"><title>Node14</title>
<g id="a_node14"><a xlink:href="_pipe_8h.html" target="_top" xlink:title="include/Pipe.h">
<polygon fill="none" stroke="black" points="948,-112.5 948,-131.5 1026,-131.5 1026,-112.5 948,-112.5"/>
<text text-anchor="middle" x="987" y="-119.5" font-family="Helvetica,sans-Serif" font-size="10.00">include/Pipe.h</text>
</a>
</g>
</g>
<!-- Node2&#45;&gt;Node14 -->
<g id="edge14" class="edge"><title>Node2&#45;&gt;Node14</title>
<path fill="none" stroke="midnightblue" d="M688.43,-169.517C749.809,-161.075 851.637,-146.608 939,-132 941.927,-131.511 944.951,-130.987 947.99,-130.447"/>
<polygon fill="midnightblue" stroke="midnightblue" points="687.626,-166.094 678.194,-170.92 688.577,-173.029 687.626,-166.094"/>
</g>
<!-- Node15 -->
<g id="node15" class="node"><title>Node15</title>
<g id="a_node15"><a xlink:href="_module_thread_8h.html" target="_top" xlink:title="include/ModuleThread.h">
<polygon fill="none" stroke="black" points="1044,-112.5 1044,-131.5 1164,-131.5 1164,-112.5 1044,-112.5"/>
<text text-anchor="middle" x="1104" y="-119.5" font-family="Helvetica,sans-Serif" font-size="10.00">include/ModuleThread.h</text>
</a>
</g>
</g>
<!-- Node2&#45;&gt;Node15 -->
<g id="edge16" class="edge"><title>Node2&#45;&gt;Node15</title>
<path fill="none" stroke="midnightblue" d="M688.271,-171.135C765.799,-162.835 911.231,-146.998 1035,-132 1037.88,-131.651 1040.82,-131.289 1043.8,-130.918"/>
<polygon fill="midnightblue" stroke="midnightblue" points="687.818,-167.664 678.247,-172.207 688.562,-174.624 687.818,-167.664"/>
</g>
<!-- Node16 -->
<g id="node16" class="node"><title>Node16</title>
<g id="a_node16"><a xlink:href="_sub_module_loader_8h.html" target="_top" xlink:title="include/SubModuleLoader.h">
<polygon fill="none" stroke="black" points="516.5,-112.5 516.5,-131.5 653.5,-131.5 653.5,-112.5 516.5,-112.5"/>
<text text-anchor="middle" x="585" y="-119.5" font-family="Helvetica,sans-Serif" font-size="10.00">include/SubModuleLoader.h</text>
</a>
</g>
</g>
<!-- Node2&#45;&gt;Node16 -->
<g id="edge17" class="edge"><title>Node2&#45;&gt;Node16</title>
<path fill="none" stroke="midnightblue" d="M618.272,-160.431C609.86,-150.967 599.651,-139.483 592.779,-131.751"/>
<polygon fill="midnightblue" stroke="midnightblue" points="615.814,-162.934 625.074,-168.083 621.046,-158.284 615.814,-162.934"/>
</g>
<!-- Node2&#45;&gt;Node17 -->
<g id="edge18" class="edge"><title>Node2&#45;&gt;Node17</title>
<path fill="none" stroke="midnightblue" d="M663.677,-164.638C688.823,-154.504 723.754,-140.427 745.867,-131.516"/>
<polygon fill="midnightblue" stroke="midnightblue" points="662.2,-161.459 654.233,-168.444 664.816,-167.952 662.2,-161.459"/>
</g>
<!-- Node4 -->
<g id="node4" class="node"><title>Node4</title>
<g id="a_node4"><a xlink:href="_backoff_timer_8h.html" target="_top" xlink:title="include/BackoffTimer.h">
<polygon fill="none" stroke="black" points="-0.5,-56.5 -0.5,-75.5 116.5,-75.5 116.5,-56.5 -0.5,-56.5"/>
<text text-anchor="middle" x="58" y="-63.5" font-family="Helvetica,sans-Serif" font-size="10.00">include/BackoffTimer.h</text>
</a>
</g>
</g>
<!-- Node3&#45;&gt;Node4 -->
<g id="edge3" class="edge"><title>Node3&#45;&gt;Node4</title>
<path fill="none" stroke="midnightblue" d="M96.7062,-105.002C86.9594,-95.4329 74.947,-83.6389 66.9131,-75.7511"/>
<polygon fill="midnightblue" stroke="midnightblue" points="94.3301,-107.575 103.918,-112.083 99.2343,-102.58 94.3301,-107.575"/>
</g>
<!-- Node5 -->
<g id="node5" class="node"><title>Node5</title>
<g id="a_node5"><a xlink:href="_postgres_8h.html" target="_top" xlink:title="include/Postgres.h">
<polygon fill="none" stroke="black" points="72,-0.5 72,-19.5 170,-19.5 170,-0.5 72,-0.5"/>
<text text-anchor="middle" x="121" y="-7.5" font-family="Helvetica,sans-Serif" font-size="10.00">include/Postgres.h</text>
</a>
</g>
</g>
<!-- Node4&#45;&gt;Node5 -->
<g id="edge4" class="edge"><title>Node4&#45;&gt;Node5</title>
<path fill="none" stroke="midnightblue" d="M76.0399,-49.5372C87.2731,-39.9087 101.319,-27.8694 110.694,-19.8339"/>
<polygon fill="midnightblue" stroke="midnightblue" points="73.4368,-47.1586 68.122,-56.324 77.9924,-52.4734 73.4368,-47.1586"/>
</g>
<!-- Node6&#45;&gt;Node5 -->
<g id="edge6" class="edge"><title>Node6&#45;&gt;Node5</title>
<path fill="none" stroke="midnightblue" d="M167.009,-49.8197C155.542,-40.1452 141.087,-27.9481 131.47,-19.8339"/>
<polygon fill="midnightblue" stroke="midnightblue" points="164.817,-52.5502 174.717,-56.324 169.331,-47.2002 164.817,-52.5502"/>
</g>
<!-- Node7&#45;&gt;Node8 -->
<g id="edge8" class="edge"><title>Node7&#45;&gt;Node8</title>
<path fill="none" stroke="midnightblue" d="M332.706,-105.002C322.959,-95.4329 310.947,-83.6389 302.913,-75.7511"/>
<polygon fill="midnightblue" stroke="midnightblue" points="330.33,-107.575 339.918,-112.083 335.234,-102.58 330.33,-107.575"/>
</g>
<!-- Node9 -->
<g id="node9" class="node"><title>Node9</title>
<g id="a_node9"><a xlink:href="_listener_8h.html" target="_top" xlink:title="include/Listener.h">
<polygon fill="none" stroke="black" points="735.5,-56.5 735.5,-75.5 828.5,-75.5 828.5,-56.5 735.5,-56.5"/>
<text text-anchor="middle" x="782" y="-63.5" font-family="Helvetica,sans-Serif" font-size="10.00">include/Listener.h</text>
</a>
</g>
</g>
<!-- Node7&#45;&gt;Node9 -->
<g id="edge9" class="edge"><title>Node7&#45;&gt;Node9</title>
<path fill="none" stroke="midnightblue" d="M403.963,-111.924C529.784,-94.1581 665.468,-79.2122 735.23,-71.8383"/>
<polygon fill="midnightblue" stroke="midnightblue" points="403.172,-108.501 393.764,-113.373 404.157,-115.431 403.172,-108.501"/>
</g>
<!-- Node10 -->
<g id="node10" class="node"><title>Node10</title>
<g id="a_node10"><a xlink:href="_simple_h_t_t_p_socket_8h.html" target="_top" xlink:title="include/SimpleHTTPSocket.h">
<polygon fill="none" stroke="black" points="352,-56.5 352,-75.5 498,-75.5 498,-56.5 352,-56.5"/>
<text text-anchor="middle" x="425" y="-63.5" font-family="Helvetica,sans-Serif" font-size="10.00">include/SimpleHTTPSocket.h</text>
</a>
</g>
</g>
<!-- Node7&#45;&gt;Node10 -->
<g id="edge10" class="edge"><title>Node7&#45;&gt;Node10</title>
<path fill="none" stroke="midnightblue" d="M369.576,-106.38C383.312,-96.6204 400.925,-84.1057 412.567,-75.8339"/>
<polygon fill="midnightblue" stroke="midnightblue" points="367.335,-103.679 361.211,-112.324 371.39,-109.385 367.335,-103.679"/>
</g>
<!-- Node11 -->
<g id="node11" class="node"><title>Node11</title>
<g id="a_node11"><a xlink:href="_statsd_client_8h.html" target="_top" xlink:title="include/StatsdClient.h">
<polygon fill="none" stroke="black" points="516.5,-56.5 516.5,-75.5 629.5,-75.5 629.5,-56.5 516.5,-56.5"/>
<text text-anchor="middle" x="573" y="-63.5" font-family="Helvetica,sans-Serif" font-size="10.00">include/StatsdClient.h</text>
</a>
</g>
</g>
<!-- Node7&#45;&gt;Node11 -->
<g id="edge11" class="edge"><title>Node7&#45;&gt;Node11</title>
<path fill="none" stroke="midnightblue" d="M394.263,-110.088C436.582,-99.8865 498.909,-84.8612 537.673,-75.5164"/>
<polygon fill="midnightblue" stroke="midnightblue" points="393.395,-106.697 384.493,-112.444 395.035,-113.502 393.395,-106.697"/>
</g>
<!-- Node14&#45;&gt;Node13 -->
<g id="edge15" class="edge"><title>Node14&#45;&gt;Node13</title>
<path fill="none" stroke="midnightblue" d="M987,-101.805C987,-92.9102 987,-82.7798 987,-75.7511"/>
<polygon fill="midnightblue" stroke="midnightblue" points="983.5,-102.083 987,-112.083 990.5,-102.083 983.5,-102.083"/>
</g>
<!-- Node18&#45;&gt;Node14 -->
<g id="edge21" class="edge"><title>Node18&#45;&gt;Node14</title>
<path fill="none" stroke="midnightblue" d="M911.083,-163.59C929.757,-153.605 954.704,-140.267 970.813,-131.655"/>
<polygon fill="midnightblue" stroke="midnightblue" points="909.396,-160.522 902.227,-168.324 912.696,-166.696 909.396,-160.522"/>
</g>
<!-- Node19 -->
<g id="node19" class="node"><title>Node19</title>
<g id="a_node19"><a xlink:href="_logger_8h.html" target="_top" xlink:title="include/Logger.h">
<polygon fill="none" stroke="black" points="842,-112.5 842,-131.5 930,-131.5 930,-112.5 842,-112.5"/>
<text text-anchor="middle" x="886" y="-119.5" font-family="Helvetica,sans-Serif" font-size="10.00">include/Logger.h</text>
</a>
</g>
</g>
<!-- Node18&#45;&gt;Node19 -->
<g id="edge22" class="edge"><title>Node18&#45;&gt;Node19</title>
<path fill="none" stroke="midnightblue" d="M886,-157.805C886,-148.91 886,-138.78 886,-131.751"/>
<polygon fill="midnightblue" stroke="midnightblue" points="882.5,-158.083 886,-168.083 889.5,-158.083 882.5,-158.083"/>
</g>
<!-- Node19&#45;&gt;Node9 -->
<g id="edge23" class="edge"><title>Node19&#45;&gt;Node9</title>
<path fill="none" stroke="midnightblue" d="M860.172,-107.59C840.943,-97.6052 815.255,-84.2672 798.668,-75.6545"/>
<polygon fill="midnightblue" stroke="midnightblue" points="858.803,-110.822 869.291,-112.324 862.029,-104.61 858.803,-110.822"/>
</g>
<!-- Node20&#45;&gt;Node13 -->
<g id="edge25" class="edge"><title>Node20&#45;&gt;Node13</title>
<path fill="none" stroke="midnightblue" d="M1100.57,-168.764C1145,-159.693 1196.78,-142.22 1173,-112 1156.62,-91.1782 1088.44,-78.8339 1039.38,-72.4861"/>
<polygon fill="midnightblue" stroke="midnightblue" points="1099.81,-165.347 1090.65,-170.68 1101.13,-172.22 1099.81,-165.347"/>
</g>
<!-- Node20&#45;&gt;Node14 -->
<g id="edge26" class="edge"><title>Node20&#45;&gt;Node14</title>
<path fill="none" stroke="midnightblue" d="M1029.11,-161.537C1018.59,-151.909 1005.43,-139.869 996.652,-131.834"/>
<polygon fill="midnightblue" stroke="midnightblue" points="1026.78,-164.154 1036.52,-168.324 1031.51,-158.99 1026.78,-164.154"/>
</g>
<!-- Node20&#45;&gt;Node15 -->
<g id="edge27" class="edge"><title>Node20&#45;&gt;Node15</title>
<path fill="none" stroke="midnightblue" d="M1062.91,-161.253C1073.2,-151.673 1085.97,-139.791 1094.51,-131.834"/>
<polygon fill="midnightblue" stroke="midnightblue" points="1060.25,-158.948 1055.32,-168.324 1065.02,-164.071 1060.25,-158.948"/>
</g>
</g>
</svg>
