<?xml version="1.0" encoding="UTF-8" standalone="no"?>
<!DOCTYPE svg PUBLIC "-//W3C//DTD SVG 1.1//EN"
 "http://www.w3.org/Graphics/SVG/1.1/DTD/svg11.dtd">
<!-- Generated by graphviz version 2.34.0 (20140110.0949)
 -->
<!-- Title: include/Event.h Pages: 1 -->
<svg width="872pt" height="252pt"
 viewBox="0.00 0.00 872.00 252.00" xmlns="http://www.w3.org/2000/svg" xmlns:xlink="http://www.w3.org/1999/xlink">
<g id="graph0" class="graph" transform="scale(1 1) rotate(0) translate(4 248)">
<title>include/Event.h</title>
<!-- Node1 -->
<g id="node1" class="node"><title>Node1</title>
<polygon fill="#bfbfbf" stroke="black" points="407,-224.5 407,-243.5 491,-243.5 491,-224.5 407,-224.5"/>
<text text-anchor="middle" x="449" y="-231.5" font-family="Helvetica,sans-Serif" font-size="10.00">include/Event.h</text>
</g>
<!-- Node2 -->
<g id="node2" class="node"><title>Node2</title>
<g id="a_node2"><a xlink:href="_module_8h.html" target="_top" xlink:title="include/Module.h">
<polygon fill="none" stroke="black" points="404,-168.5 404,-187.5 494,-187.5 494,-168.5 404,-168.5"/>
<text text-anchor="middle" x="449" y="-175.5" font-family="Helvetica,sans-Serif" font-size="10.00">include/Module.h</text>
</a>
</g>
</g>
<!-- Node1&#45;&gt;Node2 -->
<g id="edge1" class="edge"><title>Node1&#45;&gt;Node2</title>
<path fill="none" stroke="midnightblue" d="M449,-213.805C449,-204.91 449,-194.78 449,-187.751"/>
<polygon fill="midnightblue" stroke="midnightblue" points="445.5,-214.083 449,-224.083 452.5,-214.083 445.5,-214.083"/>
</g>
<!-- Node8 -->
<g id="node8" class="node"><title>Node8</title>
<g id="a_node8"><a xlink:href="_d_n_s_8h.html" target="_top" xlink:title="include/DNS.h">
<polygon fill="none" stroke="black" points="254,-56.5 254,-75.5 334,-75.5 334,-56.5 254,-56.5"/>
<text text-anchor="middle" x="294" y="-63.5" font-family="Helvetica,sans-Serif" font-size="10.00">include/DNS.h</text>
</a>
</g>
</g>
<!-- Node1&#45;&gt;Node8 -->
<g id="edge18" class="edge"><title>Node1&#45;&gt;Node8</title>
<path fill="none" stroke="midnightblue" d="M396.826,-227.701C298.264,-216.5 90.7302,-186.827 48,-132 42.5358,-124.989 42.3081,-118.828 48,-112 48.4132,-111.504 184.076,-86.8922 253.735,-74.2824"/>
<polygon fill="midnightblue" stroke="midnightblue" points="396.542,-231.191 406.868,-228.821 397.318,-224.234 396.542,-231.191"/>
</g>
<!-- Node17 -->
<g id="node17" class="node"><title>Node17</title>
<g id="a_node17"><a xlink:href="_thread_8h.html" target="_top" xlink:title="include/Thread.h">
<polygon fill="none" stroke="black" points="655.5,-168.5 655.5,-187.5 744.5,-187.5 744.5,-168.5 655.5,-168.5"/>
<text text-anchor="middle" x="700" y="-175.5" font-family="Helvetica,sans-Serif" font-size="10.00">include/Thread.h</text>
</a>
</g>
</g>
<!-- Node1&#45;&gt;Node17 -->
<g id="edge19" class="edge"><title>Node1&#45;&gt;Node17</title>
<path fill="none" stroke="midnightblue" d="M498.821,-222.281C546.253,-212.077 616.704,-196.92 660.414,-187.516"/>
<polygon fill="midnightblue" stroke="midnightblue" points="497.812,-218.918 488.772,-224.444 499.284,-225.762 497.812,-218.918"/>
</g>
<!-- Node3 -->
<g id="node3" class="node"><title>Node3</title>
<g id="a_node3"><a xlink:href="_timer_8h.html" target="_top" xlink:title="include/Timer.h">
<polygon fill="none" stroke="black" points="251.5,-112.5 251.5,-131.5 334.5,-131.5 334.5,-112.5 251.5,-112.5"/>
<text text-anchor="middle" x="293" y="-119.5" font-family="Helvetica,sans-Serif" font-size="10.00">include/Timer.h</text>
</a>
</g>
</g>
<!-- Node2&#45;&gt;Node3 -->
<g id="edge2" class="edge"><title>Node2&#45;&gt;Node3</title>
<path fill="none" stroke="midnightblue" d="M414.83,-165.172C385.456,-155.004 343.802,-140.585 317.603,-131.516"/>
<polygon fill="midnightblue" stroke="midnightblue" points="413.687,-168.48 424.281,-168.444 415.976,-161.865 413.687,-168.48"/>
</g>
<!-- Node6 -->
<g id="node6" class="node"><title>Node6</title>
<g id="a_node6"><a xlink:href="_database_8h.html" target="_top" xlink:title="include/Database.h">
<polygon fill="none" stroke="black" points="-0.5,-56.5 -0.5,-75.5 100.5,-75.5 100.5,-56.5 -0.5,-56.5"/>
<text text-anchor="middle" x="50" y="-63.5" font-family="Helvetica,sans-Serif" font-size="10.00">include/Database.h</text>
</a>
</g>
</g>
<!-- Node2&#45;&gt;Node6 -->
<g id="edge5" class="edge"><title>Node2&#45;&gt;Node6</title>
<path fill="none" stroke="midnightblue" d="M393.537,-168.969C351.217,-161.884 291.897,-149.873 242,-132 223.661,-125.431 221.09,-119.225 203,-112 163.916,-96.3917 117.306,-83.454 85.8855,-75.5181"/>
<polygon fill="midnightblue" stroke="midnightblue" points="393.21,-172.462 403.644,-170.621 394.34,-165.553 393.21,-172.462"/>
</g>
<!-- Node7 -->
<g id="node7" class="node"><title>Node7</title>
<g id="a_node7"><a xlink:href="_socket_8h.html" target="_top" xlink:title="include/Socket.h">
<polygon fill="none" stroke="black" points="457.5,-112.5 457.5,-131.5 546.5,-131.5 546.5,-112.5 457.5,-112.5"/>
<text text-anchor="middle" x="502" y="-119.5" font-family="Helvetica,sans-Serif" font-size="10.00">include/Socket.h</text>
</a>
</g>
</g>
<!-- Node2&#45;&gt;Node7 -->
<g id="edge7" class="edge"><title>Node2&#45;&gt;Node7</title>
<path fill="none" stroke="midnightblue" d="M464.981,-160.718C474.322,-151.2 485.746,-139.561 493.411,-131.751"/>
<polygon fill="midnightblue" stroke="midnightblue" points="462.259,-158.494 457.752,-168.083 467.254,-163.398 462.259,-158.494"/>
</g>
<!-- Node12 -->
<g id="node12" class="node"><title>Node12</title>
<g id="a_node12"><a xlink:href="_global_8h.html" target="_top" xlink:title="include/Global.h">
<polygon fill="none" stroke="black" points="353,-112.5 353,-131.5 439,-131.5 439,-112.5 353,-112.5"/>
<text text-anchor="middle" x="396" y="-119.5" font-family="Helvetica,sans-Serif" font-size="10.00">include/Global.h</text>
</a>
</g>
</g>
<!-- Node2&#45;&gt;Node12 -->
<g id="edge12" class="edge"><title>Node2&#45;&gt;Node12</title>
<path fill="none" stroke="midnightblue" d="M433.019,-160.718C423.678,-151.2 412.254,-139.561 404.589,-131.751"/>
<polygon fill="midnightblue" stroke="midnightblue" points="430.746,-163.398 440.248,-168.083 435.741,-158.494 430.746,-163.398"/>
</g>
<!-- Node13 -->
<g id="node13" class="node"><title>Node13</title>
<g id="a_node13"><a xlink:href="_job_thread_8h.html" target="_top" xlink:title="include/JobThread.h">
<polygon fill="none" stroke="black" points="760,-56.5 760,-75.5 864,-75.5 864,-56.5 760,-56.5"/>
<text text-anchor="middle" x="812" y="-63.5" font-family="Helvetica,sans-Serif" font-size="10.00">include/JobThread.h</text>
</a>
</g>
</g>
<!-- Node2&#45;&gt;Node13 -->
<g id="edge13" class="edge"><title>Node2&#45;&gt;Node13</title>
<path fill="none" stroke="midnightblue" d="M479.816,-164.608C501.109,-155.878 529.988,-143.704 555,-132 572.644,-123.744 575.627,-118.472 594,-112 624.526,-101.246 708.433,-85.3 762.798,-75.5599"/>
<polygon fill="midnightblue" stroke="midnightblue" points="478.255,-161.465 470.316,-168.481 480.897,-167.947 478.255,-161.465"/>
</g>
<!-- Node14 -->
<g id="node14" class="node"><title>Node14</title>
<g id="a_node14"><a xlink:href="_pipe_8h.html" target="_top" xlink:title="include/Pipe.h">
<polygon fill="none" stroke="black" points="603,-112.5 603,-131.5 681,-131.5 681,-112.5 603,-112.5"/>
<text text-anchor="middle" x="642" y="-119.5" font-family="Helvetica,sans-Serif" font-size="10.00">include/Pipe.h</text>
</a>
</g>
</g>
<!-- Node2&#45;&gt;Node14 -->
<g id="edge14" class="edge"><title>Node2&#45;&gt;Node14</title>
<path fill="none" stroke="midnightblue" d="M489.392,-165.699C525.817,-155.507 578.586,-140.743 611.562,-131.516"/>
<polygon fill="midnightblue" stroke="midnightblue" points="488.269,-162.378 479.581,-168.444 490.155,-169.12 488.269,-162.378"/>
</g>
<!-- Node15 -->
<g id="node15" class="node"><title>Node15</title>
<g id="a_node15"><a xlink:href="_module_thread_8h.html" target="_top" xlink:title="include/ModuleThread.h">
<polygon fill="none" stroke="black" points="699,-112.5 699,-131.5 819,-131.5 819,-112.5 699,-112.5"/>
<text text-anchor="middle" x="759" y="-119.5" font-family="Helvetica,sans-Serif" font-size="10.00">include/ModuleThread.h</text>
</a>
</g>
</g>
<!-- Node2&#45;&gt;Node15 -->
<g id="edge16" class="edge"><title>Node2&#45;&gt;Node15</title>
<path fill="none" stroke="midnightblue" d="M504.235,-167.378C562.691,-157.196 654.068,-141.279 710.03,-131.53"/>
<polygon fill="midnightblue" stroke="midnightblue" points="503.328,-163.984 494.077,-169.148 504.529,-170.88 503.328,-163.984"/>
</g>
<!-- Node16 -->
<g id="node16" class="node"><title>Node16</title>
<g id="a_node16"><a xlink:href="_sub_module_loader_8h.html" target="_top" xlink:title="include/SubModuleLoader.h">
<polygon fill="none" stroke="black" points="57.5,-112.5 57.5,-131.5 194.5,-131.5 194.5,-112.5 57.5,-112.5"/>
<text text-anchor="middle" x="126" y="-119.5" font-family="Helvetica,sans-Serif" font-size="10.00">include/SubModuleLoader.h</text>
</a>
</g>
</g>
<!-- Node2&#45;&gt;Node16 -->
<g id="edge17" class="edge"><title>Node2&#45;&gt;Node16</title>
<path fill="none" stroke="midnightblue" d="M393.574,-167.734C332.791,-157.572 236.065,-141.401 177.069,-131.538"/>
<polygon fill="midnightblue" stroke="midnightblue" points="393.308,-171.238 403.748,-169.435 394.462,-164.334 393.308,-171.238"/>
</g>
<!-- Node4 -->
<g id="node4" class="node"><title>Node4</title>
<g id="a_node4"><a xlink:href="_backoff_timer_8h.html" target="_top" xlink:title="include/BackoffTimer.h">
<polygon fill="none" stroke="black" points="118.5,-56.5 118.5,-75.5 235.5,-75.5 235.5,-56.5 118.5,-56.5"/>
<text text-anchor="middle" x="177" y="-63.5" font-family="Helvetica,sans-Serif" font-size="10.00">include/BackoffTimer.h</text>
</a>
</g>
</g>
<!-- Node3&#45;&gt;Node4 -->
<g id="edge3" class="edge"><title>Node3&#45;&gt;Node4</title>
<path fill="none" stroke="midnightblue" d="M265.28,-108.096C243.608,-98.0073 214.098,-84.2697 195.295,-75.5164"/>
<polygon fill="midnightblue" stroke="midnightblue" points="264.077,-111.396 274.619,-112.444 267.031,-105.05 264.077,-111.396"/>
</g>
<!-- Node5 -->
<g id="node5" class="node"><title>Node5</title>
<g id="a_node5"><a xlink:href="_postgres_8h.html" target="_top" xlink:title="include/Postgres.h">
<polygon fill="none" stroke="black" points="64,-0.5 64,-19.5 162,-19.5 162,-0.5 64,-0.5"/>
<text text-anchor="middle" x="113" y="-7.5" font-family="Helvetica,sans-Serif" font-size="10.00">include/Postgres.h</text>
</a>
</g>
</g>
<!-- Node4&#45;&gt;Node5 -->
<g id="edge4" class="edge"><title>Node4&#45;&gt;Node5</title>
<path fill="none" stroke="midnightblue" d="M159.009,-49.8197C147.542,-40.1452 133.087,-27.9481 123.47,-19.8339"/>
<polygon fill="midnightblue" stroke="midnightblue" points="156.817,-52.5502 166.717,-56.324 161.331,-47.2002 156.817,-52.5502"/>
</g>
<!-- Node6&#45;&gt;Node5 -->
<g id="edge6" class="edge"><title>Node6&#45;&gt;Node5</title>
<path fill="none" stroke="midnightblue" d="M68.0399,-49.5372C79.2731,-39.9087 93.3191,-27.8694 102.694,-19.8339"/>
<polygon fill="midnightblue" stroke="midnightblue" points="65.4368,-47.1586 60.122,-56.324 69.9924,-52.4734 65.4368,-47.1586"/>
</g>
<!-- Node7&#45;&gt;Node8 -->
<g id="edge8" class="edge"><title>Node7&#45;&gt;Node8</title>
<path fill="none" stroke="midnightblue" d="M459.222,-109.894C419.942,-99.6966 362.571,-84.802 326.804,-75.5164"/>
<polygon fill="midnightblue" stroke="midnightblue" points="458.483,-113.318 469.042,-112.444 460.242,-106.543 458.483,-113.318"/>
</g>
<!-- Node9 -->
<g id="node9" class="node"><title>Node9</title>
<g id="a_node9"><a xlink:href="_listener_8h.html" target="_top" xlink:title="include/Listener.h">
<polygon fill="none" stroke="black" points="352.5,-56.5 352.5,-75.5 445.5,-75.5 445.5,-56.5 352.5,-56.5"/>
<text text-anchor="middle" x="399" y="-63.5" font-family="Helvetica,sans-Serif" font-size="10.00">include/Listener.h</text>
</a>
</g>
</g>
<!-- Node7&#45;&gt;Node9 -->
<g id="edge9" class="edge"><title>Node7&#45;&gt;Node9</title>
<path fill="none" stroke="midnightblue" d="M476.421,-107.59C457.377,-97.6052 431.936,-84.2672 415.508,-75.6545"/>
<polygon fill="midnightblue" stroke="midnightblue" points="474.969,-110.78 485.451,-112.324 478.22,-104.581 474.969,-110.78"/>
</g>
<!-- Node10 -->
<g id="node10" class="node"><title>Node10</title>
<g id="a_node10"><a xlink:href="_simple_h_t_t_p_socket_8h.html" target="_top" xlink:title="include/SimpleHTTPSocket.h">
<polygon fill="none" stroke="black" points="464,-56.5 464,-75.5 610,-75.5 610,-56.5 464,-56.5"/>
<text text-anchor="middle" x="537" y="-63.5" font-family="Helvetica,sans-Serif" font-size="10.00">include/SimpleHTTPSocket.h</text>
</a>
</g>
</g>
<!-- Node7&#45;&gt;Node10 -->
<g id="edge10" class="edge"><title>Node7&#45;&gt;Node10</title>
<path fill="none" stroke="midnightblue" d="M513.3,-103.566C519.322,-94.2747 526.469,-83.2484 531.328,-75.7511"/>
<polygon fill="midnightblue" stroke="midnightblue" points="510.281,-101.788 507.78,-112.083 516.156,-105.595 510.281,-101.788"/>
</g>
<!-- Node11 -->
<g id="node11" class="node"><title>Node11</title>
<g id="a_node11"><a xlink:href="_statsd_client_8h.html" target="_top" xlink:title="include/StatsdClient.h">
<polygon fill="none" stroke="black" points="628.5,-56.5 628.5,-75.5 741.5,-75.5 741.5,-56.5 628.5,-56.5"/>
<text text-anchor="middle" x="685" y="-63.5" font-family="Helvetica,sans-Serif" font-size="10.00">include/StatsdClient.h</text>
</a>
</g>
</g>
<!-- Node7&#45;&gt;Node11 -->
<g id="edge11" class="edge"><title>Node7&#45;&gt;Node11</title>
<path fill="none" stroke="midnightblue" d="M540.743,-109.568C575.265,-99.381 625.005,-84.7034 656.139,-75.5164"/>
<polygon fill="midnightblue" stroke="midnightblue" points="539.597,-106.256 530.997,-112.444 541.579,-112.97 539.597,-106.256"/>
</g>
<!-- Node14&#45;&gt;Node13 -->
<g id="edge15" class="edge"><title>Node14&#45;&gt;Node13</title>
<path fill="none" stroke="midnightblue" d="M678.819,-109.304C710.852,-99.1294 756.515,-84.6246 785.189,-75.5164"/>
<polygon fill="midnightblue" stroke="midnightblue" points="677.408,-106.08 668.937,-112.444 679.527,-112.752 677.408,-106.08"/>
</g>
<!-- Node17&#45;&gt;Node13 -->
<g id="edge20" class="edge"><title>Node17&#45;&gt;Node13</title>
<path fill="none" stroke="midnightblue" d="M754.601,-172.243C781.359,-166.837 811.337,-155.52 828,-132 840.227,-114.741 826.982,-89.169 818.303,-75.8274"/>
<polygon fill="midnightblue" stroke="midnightblue" points="753.768,-168.836 744.538,-174.038 754.997,-175.727 753.768,-168.836"/>
</g>
<!-- Node17&#45;&gt;Node14 -->
<g id="edge21" class="edge"><title>Node17&#45;&gt;Node14</title>
<path fill="none" stroke="midnightblue" d="M683.087,-161.253C672.797,-151.673 660.034,-139.791 651.488,-131.834"/>
<polygon fill="midnightblue" stroke="midnightblue" points="680.977,-164.071 690.681,-168.324 685.747,-158.948 680.977,-164.071"/>
</g>
<!-- Node17&#45;&gt;Node15 -->
<g id="edge22" class="edge"><title>Node17&#45;&gt;Node15</title>
<path fill="none" stroke="midnightblue" d="M716.895,-161.537C727.415,-151.909 740.569,-139.869 749.348,-131.834"/>
<polygon fill="midnightblue" stroke="midnightblue" points="714.493,-158.99 709.479,-168.324 719.219,-164.154 714.493,-158.99"/>
</g>
</g>
</svg>
