<?xml version="1.0" encoding="UTF-8" standalone="no"?>
<!DOCTYPE svg PUBLIC "-//W3C//DTD SVG 1.1//EN"
 "http://www.w3.org/Graphics/SVG/1.1/DTD/svg11.dtd">
<!-- Generated by graphviz version 2.34.0 (20140110.0949)
 -->
<!-- Title: include/Event.h Pages: 1 -->
<svg width="996pt" height="252pt"
 viewBox="0.00 0.00 996.00 252.00" xmlns="http://www.w3.org/2000/svg" xmlns:xlink="http://www.w3.org/1999/xlink">
<g id="graph0" class="graph" transform="scale(1 1) rotate(0) translate(4 248)">
<title>include/Event.h</title>
<!-- Node1 -->
<g id="node1" class="node"><title>Node1</title>
<polygon fill="#bfbfbf" stroke="black" points="600,-224.5 600,-243.5 684,-243.5 684,-224.5 600,-224.5"/>
<text text-anchor="middle" x="642" y="-231.5" font-family="Helvetica,sans-Serif" font-size="10.00">include/Event.h</text>
</g>
<!-- Node2 -->
<g id="node2" class="node"><title>Node2</title>
<g id="a_node2"><a xlink:href="_module_8h.html" target="_top" xlink:title="include/Module.h">
<polygon fill="none" stroke="black" points="469,-168.5 469,-187.5 559,-187.5 559,-168.5 469,-168.5"/>
<text text-anchor="middle" x="514" y="-175.5" font-family="Helvetica,sans-Serif" font-size="10.00">include/Module.h</text>
</a>
</g>
</g>
<!-- Node1&#45;&gt;Node2 -->
<g id="edge1" class="edge"><title>Node1&#45;&gt;Node2</title>
<path fill="none" stroke="midnightblue" d="M612.377,-220.503C588.381,-210.38 555.216,-196.388 534.187,-187.516"/>
<polygon fill="midnightblue" stroke="midnightblue" points="611.144,-223.781 621.718,-224.444 613.865,-217.332 611.144,-223.781"/>
</g>
<!-- Node8 -->
<g id="node8" class="node"><title>Node8</title>
<g id="a_node8"><a xlink:href="_d_n_s_8h.html" target="_top" xlink:title="include/DNS.h">
<polygon fill="none" stroke="black" points="549,-56.5 549,-75.5 629,-75.5 629,-56.5 549,-56.5"/>
<text text-anchor="middle" x="589" y="-63.5" font-family="Helvetica,sans-Serif" font-size="10.00">include/DNS.h</text>
</a>
</g>
</g>
<!-- Node1&#45;&gt;Node8 -->
<g id="edge18" class="edge"><title>Node1&#45;&gt;Node8</title>
<path fill="none" stroke="midnightblue" d="M636.06,-214.395C624.627,-178.585 599.965,-101.342 591.736,-75.5681"/>
<polygon fill="midnightblue" stroke="midnightblue" points="632.775,-215.613 639.15,-224.075 639.443,-213.484 632.775,-215.613"/>
</g>
<!-- Node17 -->
<g id="node17" class="node"><title>Node17</title>
<g id="a_node17"><a xlink:href="_files_8h.html" target="_top" xlink:title="include/Files.h">
<polygon fill="none" stroke="black" points="657,-168.5 657,-187.5 737,-187.5 737,-168.5 657,-168.5"/>
<text text-anchor="middle" x="697" y="-175.5" font-family="Helvetica,sans-Serif" font-size="10.00">include/Files.h</text>
</a>
</g>
</g>
<!-- Node1&#45;&gt;Node17 -->
<g id="edge19" class="edge"><title>Node1&#45;&gt;Node17</title>
<path fill="none" stroke="midnightblue" d="M658.294,-217.002C668.041,-207.433 680.053,-195.639 688.087,-187.751"/>
<polygon fill="midnightblue" stroke="midnightblue" points="655.766,-214.58 651.082,-224.083 660.67,-219.575 655.766,-214.58"/>
</g>
<!-- Node19 -->
<g id="node19" class="node"><title>Node19</title>
<g id="a_node19"><a xlink:href="_thread_8h.html" target="_top" xlink:title="include/Thread.h">
<polygon fill="none" stroke="black" points="832.5,-168.5 832.5,-187.5 921.5,-187.5 921.5,-168.5 832.5,-168.5"/>
<text text-anchor="middle" x="877" y="-175.5" font-family="Helvetica,sans-Serif" font-size="10.00">include/Thread.h</text>
</a>
</g>
</g>
<!-- Node1&#45;&gt;Node19 -->
<g id="edge23" class="edge"><title>Node1&#45;&gt;Node19</title>
<path fill="none" stroke="midnightblue" d="M689.205,-222.153C733.607,-211.95 799.185,-196.881 839.938,-187.516"/>
<polygon fill="midnightblue" stroke="midnightblue" points="688.199,-218.793 679.236,-224.444 689.766,-225.615 688.199,-218.793"/>
</g>
<!-- Node3 -->
<g id="node3" class="node"><title>Node3</title>
<g id="a_node3"><a xlink:href="_timer_8h.html" target="_top" xlink:title="include/Timer.h">
<polygon fill="none" stroke="black" points="264.5,-112.5 264.5,-131.5 347.5,-131.5 347.5,-112.5 264.5,-112.5"/>
<text text-anchor="middle" x="306" y="-119.5" font-family="Helvetica,sans-Serif" font-size="10.00">include/Timer.h</text>
</a>
</g>
</g>
<!-- Node2&#45;&gt;Node3 -->
<g id="edge2" class="edge"><title>Node2&#45;&gt;Node3</title>
<path fill="none" stroke="midnightblue" d="M471.222,-165.894C431.942,-155.697 374.571,-140.802 338.804,-131.516"/>
<polygon fill="midnightblue" stroke="midnightblue" points="470.483,-169.318 481.042,-168.444 472.242,-162.543 470.483,-169.318"/>
</g>
<!-- Node6 -->
<g id="node6" class="node"><title>Node6</title>
<g id="a_node6"><a xlink:href="_database_8h.html" target="_top" xlink:title="include/Database.h">
<polygon fill="none" stroke="black" points="-0.5,-56.5 -0.5,-75.5 100.5,-75.5 100.5,-56.5 -0.5,-56.5"/>
<text text-anchor="middle" x="50" y="-63.5" font-family="Helvetica,sans-Serif" font-size="10.00">include/Database.h</text>
</a>
</g>
</g>
<!-- Node2&#45;&gt;Node6 -->
<g id="edge5" class="edge"><title>Node2&#45;&gt;Node6</title>
<path fill="none" stroke="midnightblue" d="M458.274,-172.221C405.001,-166.517 322.963,-154.744 255,-132 236.527,-125.818 234.166,-119.031 216,-112 174.369,-95.8871 124.75,-83.2469 90.6696,-75.5185"/>
<polygon fill="midnightblue" stroke="midnightblue" points="458.226,-175.735 468.533,-173.283 458.946,-168.772 458.226,-175.735"/>
</g>
<!-- Node7 -->
<g id="node7" class="node"><title>Node7</title>
<g id="a_node7"><a xlink:href="_socket_8h.html" target="_top" xlink:title="include/Socket.h">
<polygon fill="none" stroke="black" points="365.5,-112.5 365.5,-131.5 454.5,-131.5 454.5,-112.5 365.5,-112.5"/>
<text text-anchor="middle" x="410" y="-119.5" font-family="Helvetica,sans-Serif" font-size="10.00">include/Socket.h</text>
</a>
</g>
</g>
<!-- Node2&#45;&gt;Node7 -->
<g id="edge7" class="edge"><title>Node2&#45;&gt;Node7</title>
<path fill="none" stroke="midnightblue" d="M488.172,-163.59C468.943,-153.605 443.255,-140.267 426.668,-131.655"/>
<polygon fill="midnightblue" stroke="midnightblue" points="486.803,-166.822 497.291,-168.324 490.029,-160.61 486.803,-166.822"/>
</g>
<!-- Node12 -->
<g id="node12" class="node"><title>Node12</title>
<g id="a_node12"><a xlink:href="_global_8h.html" target="_top" xlink:title="include/Global.h">
<polygon fill="none" stroke="black" points="473,-112.5 473,-131.5 559,-131.5 559,-112.5 473,-112.5"/>
<text text-anchor="middle" x="516" y="-119.5" font-family="Helvetica,sans-Serif" font-size="10.00">include/Global.h</text>
</a>
</g>
</g>
<!-- Node2&#45;&gt;Node12 -->
<g id="edge12" class="edge"><title>Node2&#45;&gt;Node12</title>
<path fill="none" stroke="midnightblue" d="M514.711,-157.805C515.04,-148.91 515.416,-138.78 515.676,-131.751"/>
<polygon fill="midnightblue" stroke="midnightblue" points="511.203,-157.96 514.33,-168.083 518.198,-158.219 511.203,-157.96"/>
</g>
<!-- Node13 -->
<g id="node13" class="node"><title>Node13</title>
<g id="a_node13"><a xlink:href="_job_thread_8h.html" target="_top" xlink:title="include/JobThread.h">
<polygon fill="none" stroke="black" points="884,-56.5 884,-75.5 988,-75.5 988,-56.5 884,-56.5"/>
<text text-anchor="middle" x="936" y="-63.5" font-family="Helvetica,sans-Serif" font-size="10.00">include/JobThread.h</text>
</a>
</g>
</g>
<!-- Node2&#45;&gt;Node13 -->
<g id="edge13" class="edge"><title>Node2&#45;&gt;Node13</title>
<path fill="none" stroke="midnightblue" d="M536.189,-163.21C561.37,-148.215 604.131,-124.695 644,-112 725.499,-86.0484 824.716,-74.8123 883.991,-70.132"/>
<polygon fill="midnightblue" stroke="midnightblue" points="534.188,-160.33 527.442,-168.5 537.811,-166.32 534.188,-160.33"/>
</g>
<!-- Node14 -->
<g id="node14" class="node"><title>Node14</title>
<g id="a_node14"><a xlink:href="_pipe_8h.html" target="_top" xlink:title="include/Pipe.h">
<polygon fill="none" stroke="black" points="897,-112.5 897,-131.5 975,-131.5 975,-112.5 897,-112.5"/>
<text text-anchor="middle" x="936" y="-119.5" font-family="Helvetica,sans-Serif" font-size="10.00">include/Pipe.h</text>
</a>
</g>
</g>
<!-- Node2&#45;&gt;Node14 -->
<g id="edge14" class="edge"><title>Node2&#45;&gt;Node14</title>
<path fill="none" stroke="midnightblue" d="M569.384,-171.484C642.527,-163.937 775.255,-149.334 888,-132 890.849,-131.562 893.788,-131.082 896.743,-130.578"/>
<polygon fill="midnightblue" stroke="midnightblue" points="568.625,-168.043 559.034,-172.546 569.339,-175.007 568.625,-168.043"/>
</g>
<!-- Node15 -->
<g id="node15" class="node"><title>Node15</title>
<g id="a_node15"><a xlink:href="_module_thread_8h.html" target="_top" xlink:title="include/ModuleThread.h">
<polygon fill="none" stroke="black" points="759,-112.5 759,-131.5 879,-131.5 879,-112.5 759,-112.5"/>
<text text-anchor="middle" x="819" y="-119.5" font-family="Helvetica,sans-Serif" font-size="10.00">include/ModuleThread.h</text>
</a>
</g>
</g>
<!-- Node2&#45;&gt;Node15 -->
<g id="edge16" class="edge"><title>Node2&#45;&gt;Node15</title>
<path fill="none" stroke="midnightblue" d="M569.007,-167.261C626.535,-157.076 715.936,-141.247 770.788,-131.536"/>
<polygon fill="midnightblue" stroke="midnightblue" points="568.24,-163.842 559.004,-169.032 569.461,-170.735 568.24,-163.842"/>
</g>
<!-- Node16 -->
<g id="node16" class="node"><title>Node16</title>
<g id="a_node16"><a xlink:href="_sub_module_loader_8h.html" target="_top" xlink:title="include/SubModuleLoader.h">
<polygon fill="none" stroke="black" points="70.5,-112.5 70.5,-131.5 207.5,-131.5 207.5,-112.5 70.5,-112.5"/>
<text text-anchor="middle" x="139" y="-119.5" font-family="Helvetica,sans-Serif" font-size="10.00">include/SubModuleLoader.h</text>
</a>
</g>
</g>
<!-- Node2&#45;&gt;Node16 -->
<g id="edge17" class="edge"><title>Node2&#45;&gt;Node16</title>
<path fill="none" stroke="midnightblue" d="M458.863,-169.06C389.215,-159.031 269.842,-141.841 198.285,-131.537"/>
<polygon fill="midnightblue" stroke="midnightblue" points="458.369,-172.525 468.766,-170.486 459.367,-165.597 458.369,-172.525"/>
</g>
<!-- Node4 -->
<g id="node4" class="node"><title>Node4</title>
<g id="a_node4"><a xlink:href="_backoff_timer_8h.html" target="_top" xlink:title="include/BackoffTimer.h">
<polygon fill="none" stroke="black" points="118.5,-56.5 118.5,-75.5 235.5,-75.5 235.5,-56.5 118.5,-56.5"/>
<text text-anchor="middle" x="177" y="-63.5" font-family="Helvetica,sans-Serif" font-size="10.00">include/BackoffTimer.h</text>
</a>
</g>
</g>
<!-- Node3&#45;&gt;Node4 -->
<g id="edge3" class="edge"><title>Node3&#45;&gt;Node4</title>
<path fill="none" stroke="midnightblue" d="M276.146,-108.503C251.962,-98.3795 218.538,-84.388 197.345,-75.5164"/>
<polygon fill="midnightblue" stroke="midnightblue" points="274.984,-111.811 285.56,-112.444 277.687,-105.354 274.984,-111.811"/>
</g>
<!-- Node5 -->
<g id="node5" class="node"><title>Node5</title>
<g id="a_node5"><a xlink:href="_postgres_8h.html" target="_top" xlink:title="include/Postgres.h">
<polygon fill="none" stroke="black" points="64,-0.5 64,-19.5 162,-19.5 162,-0.5 64,-0.5"/>
<text text-anchor="middle" x="113" y="-7.5" font-family="Helvetica,sans-Serif" font-size="10.00">include/Postgres.h</text>
</a>
</g>
</g>
<!-- Node4&#45;&gt;Node5 -->
<g id="edge4" class="edge"><title>Node4&#45;&gt;Node5</title>
<path fill="none" stroke="midnightblue" d="M159.009,-49.8197C147.542,-40.1452 133.087,-27.9481 123.47,-19.8339"/>
<polygon fill="midnightblue" stroke="midnightblue" points="156.817,-52.5502 166.717,-56.324 161.331,-47.2002 156.817,-52.5502"/>
</g>
<!-- Node6&#45;&gt;Node5 -->
<g id="edge6" class="edge"><title>Node6&#45;&gt;Node5</title>
<path fill="none" stroke="midnightblue" d="M68.0399,-49.5372C79.2731,-39.9087 93.3191,-27.8694 102.694,-19.8339"/>
<polygon fill="midnightblue" stroke="midnightblue" points="65.4368,-47.1586 60.122,-56.324 69.9924,-52.4734 65.4368,-47.1586"/>
</g>
<!-- Node7&#45;&gt;Node8 -->
<g id="edge8" class="edge"><title>Node7&#45;&gt;Node8</title>
<path fill="none" stroke="midnightblue" d="M448.331,-109.436C482.08,-99.2551 530.447,-84.664 560.77,-75.5164"/>
<polygon fill="midnightblue" stroke="midnightblue" points="446.926,-106.204 438.363,-112.444 448.948,-112.906 446.926,-106.204"/>
</g>
<!-- Node9 -->
<g id="node9" class="node"><title>Node9</title>
<g id="a_node9"><a xlink:href="_listener_8h.html" target="_top" xlink:title="include/Listener.h">
<polygon fill="none" stroke="black" points="648.5,-56.5 648.5,-75.5 741.5,-75.5 741.5,-56.5 648.5,-56.5"/>
<text text-anchor="middle" x="695" y="-63.5" font-family="Helvetica,sans-Serif" font-size="10.00">include/Listener.h</text>
</a>
</g>
</g>
<!-- Node7&#45;&gt;Node9 -->
<g id="edge9" class="edge"><title>Node7&#45;&gt;Node9</title>
<path fill="none" stroke="midnightblue" d="M464.573,-110.66C518.357,-100.469 599.576,-85.0804 649.841,-75.5565"/>
<polygon fill="midnightblue" stroke="midnightblue" points="463.705,-107.262 454.531,-112.562 465.008,-114.14 463.705,-107.262"/>
</g>
<!-- Node10 -->
<g id="node10" class="node"><title>Node10</title>
<g id="a_node10"><a xlink:href="_simple_h_t_t_p_socket_8h.html" target="_top" xlink:title="include/SimpleHTTPSocket.h">
<polygon fill="none" stroke="black" points="385,-56.5 385,-75.5 531,-75.5 531,-56.5 385,-56.5"/>
<text text-anchor="middle" x="458" y="-63.5" font-family="Helvetica,sans-Serif" font-size="10.00">include/SimpleHTTPSocket.h</text>
</a>
</g>
</g>
<!-- Node7&#45;&gt;Node10 -->
<g id="edge10" class="edge"><title>Node7&#45;&gt;Node10</title>
<path fill="none" stroke="midnightblue" d="M424.728,-104.431C433.14,-94.9673 443.349,-83.4827 450.221,-75.7511"/>
<polygon fill="midnightblue" stroke="midnightblue" points="421.954,-102.284 417.926,-112.083 427.186,-106.934 421.954,-102.284"/>
</g>
<!-- Node11 -->
<g id="node11" class="node"><title>Node11</title>
<g id="a_node11"><a xlink:href="_statsd_client_8h.html" target="_top" xlink:title="include/StatsdClient.h">
<polygon fill="none" stroke="black" points="253.5,-56.5 253.5,-75.5 366.5,-75.5 366.5,-56.5 253.5,-56.5"/>
<text text-anchor="middle" x="310" y="-63.5" font-family="Helvetica,sans-Serif" font-size="10.00">include/StatsdClient.h</text>
</a>
</g>
</g>
<!-- Node7&#45;&gt;Node11 -->
<g id="edge11" class="edge"><title>Node7&#45;&gt;Node11</title>
<path fill="none" stroke="midnightblue" d="M384.912,-107.453C366.451,-97.4835 341.903,-84.2279 326.027,-75.6545"/>
<polygon fill="midnightblue" stroke="midnightblue" points="383.471,-110.652 393.933,-112.324 386.797,-104.493 383.471,-110.652"/>
</g>
<!-- Node14&#45;&gt;Node13 -->
<g id="edge15" class="edge"><title>Node14&#45;&gt;Node13</title>
<path fill="none" stroke="midnightblue" d="M936,-101.805C936,-92.9102 936,-82.7798 936,-75.7511"/>
<polygon fill="midnightblue" stroke="midnightblue" points="932.5,-102.083 936,-112.083 939.5,-102.083 932.5,-102.083"/>
</g>
<!-- Node17&#45;&gt;Node14 -->
<g id="edge20" class="edge"><title>Node17&#45;&gt;Node14</title>
<path fill="none" stroke="midnightblue" d="M744.724,-166.217C789.885,-156.013 856.773,-140.901 898.307,-131.516"/>
<polygon fill="midnightblue" stroke="midnightblue" points="743.853,-162.826 734.87,-168.444 745.396,-169.654 743.853,-162.826"/>
</g>
<!-- Node18 -->
<g id="node18" class="node"><title>Node18</title>
<g id="a_node18"><a xlink:href="_logger_8h.html" target="_top" xlink:title="include/Logger.h">
<polygon fill="none" stroke="black" points="653,-112.5 653,-131.5 741,-131.5 741,-112.5 653,-112.5"/>
<text text-anchor="middle" x="697" y="-119.5" font-family="Helvetica,sans-Serif" font-size="10.00">include/Logger.h</text>
</a>
</g>
</g>
<!-- Node17&#45;&gt;Node18 -->
<g id="edge21" class="edge"><title>Node17&#45;&gt;Node18</title>
<path fill="none" stroke="midnightblue" d="M697,-157.805C697,-148.91 697,-138.78 697,-131.751"/>
<polygon fill="midnightblue" stroke="midnightblue" points="693.5,-158.083 697,-168.083 700.5,-158.083 693.5,-158.083"/>
</g>
<!-- Node18&#45;&gt;Node9 -->
<g id="edge22" class="edge"><title>Node18&#45;&gt;Node9</title>
<path fill="none" stroke="midnightblue" d="M696.289,-101.805C695.96,-92.9102 695.584,-82.7798 695.324,-75.7511"/>
<polygon fill="midnightblue" stroke="midnightblue" points="692.802,-102.219 696.67,-112.083 699.797,-101.96 692.802,-102.219"/>
</g>
<!-- Node19&#45;&gt;Node13 -->
<g id="edge24" class="edge"><title>Node19&#45;&gt;Node13</title>
<path fill="none" stroke="midnightblue" d="M931.427,-167.265C951.422,-160.768 972.07,-149.96 984,-132 997.816,-111.201 969.213,-87.9005 950.501,-75.6329"/>
<polygon fill="midnightblue" stroke="midnightblue" points="930.313,-163.944 921.705,-170.12 932.286,-170.66 930.313,-163.944"/>
</g>
<!-- Node19&#45;&gt;Node14 -->
<g id="edge25" class="edge"><title>Node19&#45;&gt;Node14</title>
<path fill="none" stroke="midnightblue" d="M893.895,-161.537C904.415,-151.909 917.569,-139.869 926.348,-131.834"/>
<polygon fill="midnightblue" stroke="midnightblue" points="891.493,-158.99 886.479,-168.324 896.219,-164.154 891.493,-158.99"/>
</g>
<!-- Node19&#45;&gt;Node15 -->
<g id="edge26" class="edge"><title>Node19&#45;&gt;Node15</title>
<path fill="none" stroke="midnightblue" d="M860.087,-161.253C849.797,-151.673 837.034,-139.791 828.488,-131.834"/>
<polygon fill="midnightblue" stroke="midnightblue" points="857.977,-164.071 867.681,-168.324 862.747,-158.948 857.977,-164.071"/>
</g>
</g>
</svg>
