<?xml version="1.0" encoding="UTF-8" standalone="no"?>
<!DOCTYPE svg PUBLIC "-//W3C//DTD SVG 1.1//EN"
 "http://www.w3.org/Graphics/SVG/1.1/DTD/svg11.dtd">
<!-- Generated by graphviz version 2.34.0 (20140110.0949)
 -->
<!-- Title: include/Event.h Pages: 1 -->
<svg width="179pt" height="84pt"
 viewBox="0.00 0.00 179.00 84.00" xmlns="http://www.w3.org/2000/svg" xmlns:xlink="http://www.w3.org/1999/xlink">
<g id="graph0" class="graph" transform="scale(1 1) rotate(0) translate(4 80)">
<title>include/Event.h</title>
<!-- Node1 -->
<g id="node1" class="node"><title>Node1</title>
<polygon fill="#bfbfbf" stroke="black" points="41,-56.5 41,-75.5 125,-75.5 125,-56.5 41,-56.5"/>
<text text-anchor="middle" x="83" y="-63.5" font-family="Helvetica,sans-Serif" font-size="10.00">include/Event.h</text>
</g>
<!-- Node2 -->
<g id="node2" class="node"><title>Node2</title>
<polygon fill="none" stroke="#bfbfbf" points="-0.5,-0.5 -0.5,-19.5 72.5,-19.5 72.5,-0.5 -0.5,-0.5"/>
<text text-anchor="middle" x="36" y="-7.5" font-family="Helvetica,sans-Serif" font-size="10.00">event2/dns.h</text>
</g>
<!-- Node1&#45;&gt;Node2 -->
<g id="edge1" class="edge"><title>Node1&#45;&gt;Node2</title>
<path fill="none" stroke="midnightblue" d="M75.2389,-56.083C68.4632,-48.2982 58.4568,-36.8015 50.2449,-27.3665"/>
<polygon fill="midnightblue" stroke="midnightblue" points="52.822,-24.9963 43.6167,-19.7511 47.5419,-29.592 52.822,-24.9963"/>
</g>
<!-- Node3 -->
<g id="node3" class="node"><title>Node3</title>
<polygon fill="none" stroke="#bfbfbf" points="90.5,-0.5 90.5,-19.5 171.5,-19.5 171.5,-0.5 90.5,-0.5"/>
<text text-anchor="middle" x="131" y="-7.5" font-family="Helvetica,sans-Serif" font-size="10.00">event2/event.h</text>
</g>
<!-- Node1&#45;&gt;Node3 -->
<g id="edge2" class="edge"><title>Node1&#45;&gt;Node3</title>
<path fill="none" stroke="midnightblue" d="M90.9262,-56.083C97.8461,-48.2982 108.065,-36.8015 116.452,-27.3665"/>
<polygon fill="midnightblue" stroke="midnightblue" points="119.194,-29.5505 123.221,-19.7511 113.962,-24.8999 119.194,-29.5505"/>
</g>
</g>
</svg>
