<?xml version="1.0" encoding="UTF-8" standalone="no"?>
<!DOCTYPE svg PUBLIC "-//W3C//DTD SVG 1.1//EN"
 "http://www.w3.org/Graphics/SVG/1.1/DTD/svg11.dtd">
<!-- Generated by graphviz version 2.34.0 (20140110.0949)
 -->
<!-- Title: include/Files.h Pages: 1 -->
<svg width="1040pt" height="196pt"
 viewBox="0.00 0.00 1040.00 196.00" xmlns="http://www.w3.org/2000/svg" xmlns:xlink="http://www.w3.org/1999/xlink">
<g id="graph0" class="graph" transform="scale(1 1) rotate(0) translate(4 192)">
<title>include/Files.h</title>
<!-- Node1 -->
<g id="node1" class="node"><title>Node1</title>
<polygon fill="#bfbfbf" stroke="black" points="488,-168.5 488,-187.5 568,-187.5 568,-168.5 488,-168.5"/>
<text text-anchor="middle" x="528" y="-175.5" font-family="Helvetica,sans-Serif" font-size="10.00">include/Files.h</text>
</g>
<!-- Node2 -->
<g id="node2" class="node"><title>Node2</title>
<polygon fill="none" stroke="#bfbfbf" points="0,-112.5 0,-131.5 106,-131.5 106,-112.5 0,-112.5"/>
<text text-anchor="middle" x="53" y="-119.5" font-family="Helvetica,sans-Serif" font-size="10.00">event2/bufferevent.h</text>
</g>
<!-- Node1&#45;&gt;Node2 -->
<g id="edge1" class="edge"><title>Node1&#45;&gt;Node2</title>
<path fill="none" stroke="midnightblue" d="M487.785,-173.099C415.604,-165.992 259.047,-150.104 116.333,-132.13"/>
<polygon fill="midnightblue" stroke="midnightblue" points="116.443,-128.616 106.083,-130.832 115.564,-135.561 116.443,-128.616"/>
</g>
<!-- Node3 -->
<g id="node3" class="node"><title>Node3</title>
<polygon fill="none" stroke="#bfbfbf" points="124.5,-112.5 124.5,-131.5 175.5,-131.5 175.5,-112.5 124.5,-112.5"/>
<text text-anchor="middle" x="150" y="-119.5" font-family="Helvetica,sans-Serif" font-size="10.00">unistd.h</text>
</g>
<!-- Node1&#45;&gt;Node3 -->
<g id="edge2" class="edge"><title>Node1&#45;&gt;Node3</title>
<path fill="none" stroke="midnightblue" d="M487.875,-173.329C425.398,-167.267 300.952,-153.806 185.595,-131.885"/>
<polygon fill="midnightblue" stroke="midnightblue" points="186.015,-128.402 175.533,-129.947 184.69,-135.275 186.015,-128.402"/>
</g>
<!-- Node4 -->
<g id="node4" class="node"><title>Node4</title>
<polygon fill="none" stroke="#bfbfbf" points="194,-112.5 194,-131.5 242,-131.5 242,-112.5 194,-112.5"/>
<text text-anchor="middle" x="218" y="-119.5" font-family="Helvetica,sans-Serif" font-size="10.00">stdlib.h</text>
</g>
<!-- Node1&#45;&gt;Node4 -->
<g id="edge3" class="edge"><title>Node1&#45;&gt;Node4</title>
<path fill="none" stroke="midnightblue" d="M487.843,-171.827C435.637,-164.806 341.478,-151.135 251.855,-131.995"/>
<polygon fill="midnightblue" stroke="midnightblue" points="252.592,-128.574 242.078,-129.881 251.113,-135.416 252.592,-128.574"/>
</g>
<!-- Node5 -->
<g id="node5" class="node"><title>Node5</title>
<polygon fill="none" stroke="#bfbfbf" points="260,-112.5 260,-131.5 320,-131.5 320,-112.5 260,-112.5"/>
<text text-anchor="middle" x="290" y="-119.5" font-family="Helvetica,sans-Serif" font-size="10.00">sys/stat.h</text>
</g>
<!-- Node1&#45;&gt;Node5 -->
<g id="edge4" class="edge"><title>Node1&#45;&gt;Node5</title>
<path fill="none" stroke="midnightblue" d="M489.839,-168.423C451.806,-159.863 391.461,-146.251 330.086,-132.241"/>
<polygon fill="midnightblue" stroke="midnightblue" points="330.759,-128.805 320.231,-129.99 329.2,-135.629 330.759,-128.805"/>
</g>
<!-- Node6 -->
<g id="node6" class="node"><title>Node6</title>
<polygon fill="none" stroke="#bfbfbf" points="338,-112.5 338,-131.5 400,-131.5 400,-112.5 338,-112.5"/>
<text text-anchor="middle" x="369" y="-119.5" font-family="Helvetica,sans-Serif" font-size="10.00">sys/fcntl.h</text>
</g>
<!-- Node1&#45;&gt;Node6 -->
<g id="edge5" class="edge"><title>Node1&#45;&gt;Node6</title>
<path fill="none" stroke="midnightblue" d="M502.806,-168.444C476.057,-159.359 433.597,-144.939 403.695,-134.783"/>
<polygon fill="midnightblue" stroke="midnightblue" points="404.671,-131.418 394.076,-131.516 402.419,-138.046 404.671,-131.418"/>
</g>
<!-- Node7 -->
<g id="node7" class="node"><title>Node7</title>
<polygon fill="none" stroke="#bfbfbf" points="418,-112.5 418,-131.5 488,-131.5 488,-112.5 418,-112.5"/>
<text text-anchor="middle" x="453" y="-119.5" font-family="Helvetica,sans-Serif" font-size="10.00">sys/inotify.h</text>
</g>
<!-- Node1&#45;&gt;Node7 -->
<g id="edge6" class="edge"><title>Node1&#45;&gt;Node7</title>
<path fill="none" stroke="midnightblue" d="M515.95,-168.324C504.537,-160.107 487.169,-147.602 473.565,-137.807"/>
<polygon fill="midnightblue" stroke="midnightblue" points="475.43,-134.837 465.269,-131.834 471.34,-140.517 475.43,-134.837"/>
</g>
<!-- Node8 -->
<g id="node8" class="node"><title>Node8</title>
<polygon fill="none" stroke="#bfbfbf" points="506,-112.5 506,-131.5 550,-131.5 550,-112.5 506,-112.5"/>
<text text-anchor="middle" x="528" y="-119.5" font-family="Helvetica,sans-Serif" font-size="10.00">vector</text>
</g>
<!-- Node1&#45;&gt;Node8 -->
<g id="edge7" class="edge"><title>Node1&#45;&gt;Node8</title>
<path fill="none" stroke="midnightblue" d="M528,-168.083C528,-161.006 528,-150.861 528,-141.986"/>
<polygon fill="midnightblue" stroke="midnightblue" points="531.5,-141.751 528,-131.751 524.5,-141.751 531.5,-141.751"/>
</g>
<!-- Node9 -->
<g id="node9" class="node"><title>Node9</title>
<polygon fill="none" stroke="#bfbfbf" points="568.5,-112.5 568.5,-131.5 603.5,-131.5 603.5,-112.5 568.5,-112.5"/>
<text text-anchor="middle" x="586" y="-119.5" font-family="Helvetica,sans-Serif" font-size="10.00">map</text>
</g>
<!-- Node1&#45;&gt;Node9 -->
<g id="edge8" class="edge"><title>Node1&#45;&gt;Node9</title>
<path fill="none" stroke="midnightblue" d="M537.319,-168.324C545.893,-160.341 558.812,-148.313 569.188,-138.653"/>
<polygon fill="midnightblue" stroke="midnightblue" points="571.578,-141.21 576.512,-131.834 566.808,-136.086 571.578,-141.21"/>
</g>
<!-- Node10 -->
<g id="node10" class="node"><title>Node10</title>
<g id="a_node10"><a xlink:href="defines_8h.html" target="_top" xlink:title="defines.h">
<polygon fill="none" stroke="black" points="608,-56.5 608,-75.5 664,-75.5 664,-56.5 608,-56.5"/>
<text text-anchor="middle" x="636" y="-63.5" font-family="Helvetica,sans-Serif" font-size="10.00">defines.h</text>
</a>
</g>
</g>
<!-- Node1&#45;&gt;Node10 -->
<g id="edge9" class="edge"><title>Node1&#45;&gt;Node10</title>
<path fill="none" stroke="midnightblue" d="M554.743,-168.415C573.095,-161.289 596.791,-149.469 612,-132 623.468,-118.828 629.648,-99.6893 632.849,-85.589"/>
<polygon fill="midnightblue" stroke="midnightblue" points="636.323,-86.059 634.822,-75.5711 629.455,-84.7065 636.323,-86.059"/>
</g>
<!-- Node11 -->
<g id="node11" class="node"><title>Node11</title>
<g id="a_node11"><a xlink:href="_closable_8h.html" target="_top" xlink:title="Closable.h">
<polygon fill="none" stroke="black" points="660.5,-112.5 660.5,-131.5 723.5,-131.5 723.5,-112.5 660.5,-112.5"/>
<text text-anchor="middle" x="692" y="-119.5" font-family="Helvetica,sans-Serif" font-size="10.00">Closable.h</text>
</a>
</g>
</g>
<!-- Node1&#45;&gt;Node11 -->
<g id="edge10" class="edge"><title>Node1&#45;&gt;Node11</title>
<path fill="none" stroke="midnightblue" d="M553.986,-168.444C581.696,-159.32 625.752,-144.813 656.616,-134.651"/>
<polygon fill="midnightblue" stroke="midnightblue" points="657.732,-137.968 666.135,-131.516 655.542,-131.32 657.732,-137.968"/>
</g>
<!-- Node12 -->
<g id="node12" class="node"><title>Node12</title>
<g id="a_node12"><a xlink:href="_string_8h.html" target="_top" xlink:title="String.h">
<polygon fill="none" stroke="black" points="792,-56.5 792,-75.5 842,-75.5 842,-56.5 792,-56.5"/>
<text text-anchor="middle" x="817" y="-63.5" font-family="Helvetica,sans-Serif" font-size="10.00">String.h</text>
</a>
</g>
</g>
<!-- Node1&#45;&gt;Node12 -->
<g id="edge11" class="edge"><title>Node1&#45;&gt;Node12</title>
<path fill="none" stroke="midnightblue" d="M568.267,-175.664C635.809,-172.583 767.807,-162.7 801,-132 813.646,-120.304 817.012,-100.362 817.604,-85.6439"/>
<polygon fill="midnightblue" stroke="midnightblue" points="821.104,-85.637 817.625,-75.6298 814.104,-85.6226 821.104,-85.637"/>
</g>
<!-- Node14 -->
<g id="node14" class="node"><title>Node14</title>
<g id="a_node14"><a xlink:href="_writer_8h.html" target="_top" xlink:title="Writer.h">
<polygon fill="none" stroke="black" points="741.5,-112.5 741.5,-131.5 792.5,-131.5 792.5,-112.5 741.5,-112.5"/>
<text text-anchor="middle" x="767" y="-119.5" font-family="Helvetica,sans-Serif" font-size="10.00">Writer.h</text>
</a>
</g>
</g>
<!-- Node1&#45;&gt;Node14 -->
<g id="edge13" class="edge"><title>Node1&#45;&gt;Node14</title>
<path fill="none" stroke="midnightblue" d="M568.349,-168.53C607.478,-160.22 668.761,-146.954 731.357,-132.088"/>
<polygon fill="midnightblue" stroke="midnightblue" points="732.497,-135.414 741.411,-129.689 730.872,-128.605 732.497,-135.414"/>
</g>
<!-- Node16 -->
<g id="node16" class="node"><title>Node16</title>
<g id="a_node16"><a xlink:href="_event_8h.html" target="_top" xlink:title="Event.h">
<polygon fill="none" stroke="black" points="876,-112.5 876,-131.5 926,-131.5 926,-112.5 876,-112.5"/>
<text text-anchor="middle" x="901" y="-119.5" font-family="Helvetica,sans-Serif" font-size="10.00">Event.h</text>
</a>
</g>
</g>
<!-- Node1&#45;&gt;Node16 -->
<g id="edge17" class="edge"><title>Node1&#45;&gt;Node16</title>
<path fill="none" stroke="midnightblue" d="M568.272,-171.17C641.736,-160.534 796.322,-138.154 865.832,-128.091"/>
<polygon fill="midnightblue" stroke="midnightblue" points="866.446,-131.539 875.841,-126.642 865.443,-124.611 866.446,-131.539"/>
</g>
<!-- Node13 -->
<g id="node13" class="node"><title>Node13</title>
<polygon fill="none" stroke="#bfbfbf" points="796.5,-0.5 796.5,-19.5 837.5,-19.5 837.5,-0.5 796.5,-0.5"/>
<text text-anchor="middle" x="817" y="-7.5" font-family="Helvetica,sans-Serif" font-size="10.00">string</text>
</g>
<!-- Node12&#45;&gt;Node13 -->
<g id="edge12" class="edge"><title>Node12&#45;&gt;Node13</title>
<path fill="none" stroke="midnightblue" d="M817,-56.083C817,-49.0059 817,-38.8611 817,-29.9865"/>
<polygon fill="midnightblue" stroke="midnightblue" points="820.5,-29.751 817,-19.7511 813.5,-29.7511 820.5,-29.751"/>
</g>
<!-- Node14&#45;&gt;Node10 -->
<g id="edge14" class="edge"><title>Node14&#45;&gt;Node10</title>
<path fill="none" stroke="midnightblue" d="M746.243,-112.444C724.684,-103.557 690.737,-89.5632 666.206,-79.4514"/>
<polygon fill="midnightblue" stroke="midnightblue" points="667.239,-76.0917 656.66,-75.5164 664.572,-82.5634 667.239,-76.0917"/>
</g>
<!-- Node14&#45;&gt;Node12 -->
<g id="edge15" class="edge"><title>Node14&#45;&gt;Node12</title>
<path fill="none" stroke="midnightblue" d="M775.256,-112.083C782.465,-104.298 793.11,-92.8015 801.846,-83.3665"/>
<polygon fill="midnightblue" stroke="midnightblue" points="804.671,-85.4666 808.897,-75.7511 799.535,-80.7108 804.671,-85.4666"/>
</g>
<!-- Node15 -->
<g id="node15" class="node"><title>Node15</title>
<g id="a_node15"><a xlink:href="_should_delete_8h.html" target="_top" xlink:title="ShouldDelete.h">
<polygon fill="none" stroke="black" points="690.5,-56.5 690.5,-75.5 773.5,-75.5 773.5,-56.5 690.5,-56.5"/>
<text text-anchor="middle" x="732" y="-63.5" font-family="Helvetica,sans-Serif" font-size="10.00">ShouldDelete.h</text>
</a>
</g>
</g>
<!-- Node14&#45;&gt;Node15 -->
<g id="edge16" class="edge"><title>Node14&#45;&gt;Node15</title>
<path fill="none" stroke="midnightblue" d="M761.22,-112.083C756.328,-104.534 749.173,-93.4948 743.167,-84.2298"/>
<polygon fill="midnightblue" stroke="midnightblue" points="746.048,-82.239 737.672,-75.7511 740.174,-86.0463 746.048,-82.239"/>
</g>
<!-- Node17 -->
<g id="node17" class="node"><title>Node17</title>
<polygon fill="none" stroke="#bfbfbf" points="959.5,-56.5 959.5,-75.5 1032.5,-75.5 1032.5,-56.5 959.5,-56.5"/>
<text text-anchor="middle" x="996" y="-63.5" font-family="Helvetica,sans-Serif" font-size="10.00">event2/dns.h</text>
</g>
<!-- Node16&#45;&gt;Node17 -->
<g id="edge18" class="edge"><title>Node16&#45;&gt;Node17</title>
<path fill="none" stroke="midnightblue" d="M916.263,-112.324C931.221,-103.822 954.255,-90.7288 971.727,-80.7975"/>
<polygon fill="midnightblue" stroke="midnightblue" points="973.81,-83.639 980.774,-75.6545 970.351,-77.5534 973.81,-83.639"/>
</g>
<!-- Node18 -->
<g id="node18" class="node"><title>Node18</title>
<polygon fill="none" stroke="#bfbfbf" points="860.5,-56.5 860.5,-75.5 941.5,-75.5 941.5,-56.5 860.5,-56.5"/>
<text text-anchor="middle" x="901" y="-63.5" font-family="Helvetica,sans-Serif" font-size="10.00">event2/event.h</text>
</g>
<!-- Node16&#45;&gt;Node18 -->
<g id="edge19" class="edge"><title>Node16&#45;&gt;Node18</title>
<path fill="none" stroke="midnightblue" d="M901,-112.083C901,-105.006 901,-94.8611 901,-85.9865"/>
<polygon fill="midnightblue" stroke="midnightblue" points="904.5,-85.751 901,-75.7511 897.5,-85.7511 904.5,-85.751"/>
</g>
</g>
</svg>
