<?xml version="1.0" encoding="UTF-8" standalone="no"?>
<!DOCTYPE svg PUBLIC "-//W3C//DTD SVG 1.1//EN"
 "http://www.w3.org/Graphics/SVG/1.1/DTD/svg11.dtd">
<!-- Generated by graphviz version 2.34.0 (20140110.0949)
 -->
<!-- Title: include/Files.h Pages: 1 -->
<svg width="854pt" height="196pt"
 viewBox="0.00 0.00 854.00 196.00" xmlns="http://www.w3.org/2000/svg" xmlns:xlink="http://www.w3.org/1999/xlink">
<g id="graph0" class="graph" transform="scale(1 1) rotate(0) translate(4 192)">
<title>include/Files.h</title>
<!-- Node1 -->
<g id="node1" class="node"><title>Node1</title>
<polygon fill="#bfbfbf" stroke="black" points="450,-168.5 450,-187.5 530,-187.5 530,-168.5 450,-168.5"/>
<text text-anchor="middle" x="490" y="-175.5" font-family="Helvetica,sans-Serif" font-size="10.00">include/Files.h</text>
</g>
<!-- Node2 -->
<g id="node2" class="node"><title>Node2</title>
<polygon fill="none" stroke="#bfbfbf" points="0,-112.5 0,-131.5 106,-131.5 106,-112.5 0,-112.5"/>
<text text-anchor="middle" x="53" y="-119.5" font-family="Helvetica,sans-Serif" font-size="10.00">event2/bufferevent.h</text>
</g>
<!-- Node1&#45;&gt;Node2 -->
<g id="edge1" class="edge"><title>Node1&#45;&gt;Node2</title>
<path fill="none" stroke="midnightblue" d="M449.837,-172.463C383.047,-164.854 244.671,-148.816 116.278,-132.009"/>
<polygon fill="midnightblue" stroke="midnightblue" points="116.635,-128.526 106.265,-130.694 115.724,-135.466 116.635,-128.526"/>
</g>
<!-- Node3 -->
<g id="node3" class="node"><title>Node3</title>
<polygon fill="none" stroke="#bfbfbf" points="124.5,-112.5 124.5,-131.5 175.5,-131.5 175.5,-112.5 124.5,-112.5"/>
<text text-anchor="middle" x="150" y="-119.5" font-family="Helvetica,sans-Serif" font-size="10.00">unistd.h</text>
</g>
<!-- Node1&#45;&gt;Node3 -->
<g id="edge2" class="edge"><title>Node1&#45;&gt;Node3</title>
<path fill="none" stroke="midnightblue" d="M449.8,-172.437C393.125,-165.704 286.346,-151.927 185.586,-131.918"/>
<polygon fill="midnightblue" stroke="midnightblue" points="186.036,-128.439 175.543,-129.899 184.656,-135.302 186.036,-128.439"/>
</g>
<!-- Node4 -->
<g id="node4" class="node"><title>Node4</title>
<polygon fill="none" stroke="#bfbfbf" points="194,-112.5 194,-131.5 242,-131.5 242,-112.5 194,-112.5"/>
<text text-anchor="middle" x="218" y="-119.5" font-family="Helvetica,sans-Serif" font-size="10.00">stdlib.h</text>
</g>
<!-- Node1&#45;&gt;Node4 -->
<g id="edge3" class="edge"><title>Node1&#45;&gt;Node4</title>
<path fill="none" stroke="midnightblue" d="M449.622,-170.414C403.986,-162.746 327.283,-149.184 252.195,-132.129"/>
<polygon fill="midnightblue" stroke="midnightblue" points="252.624,-128.636 242.094,-129.811 251.058,-135.459 252.624,-128.636"/>
</g>
<!-- Node5 -->
<g id="node5" class="node"><title>Node5</title>
<polygon fill="none" stroke="#bfbfbf" points="260,-112.5 260,-131.5 320,-131.5 320,-112.5 260,-112.5"/>
<text text-anchor="middle" x="290" y="-119.5" font-family="Helvetica,sans-Serif" font-size="10.00">sys/stat.h</text>
</g>
<!-- Node1&#45;&gt;Node5 -->
<g id="edge4" class="edge"><title>Node1&#45;&gt;Node5</title>
<path fill="none" stroke="midnightblue" d="M458.309,-168.444C423.675,-159.092 368.101,-144.087 330.37,-133.9"/>
<polygon fill="midnightblue" stroke="midnightblue" points="330.8,-130.391 320.233,-131.163 328.975,-137.149 330.8,-130.391"/>
</g>
<!-- Node6 -->
<g id="node6" class="node"><title>Node6</title>
<polygon fill="none" stroke="#bfbfbf" points="338,-112.5 338,-131.5 400,-131.5 400,-112.5 338,-112.5"/>
<text text-anchor="middle" x="369" y="-119.5" font-family="Helvetica,sans-Serif" font-size="10.00">sys/fcntl.h</text>
</g>
<!-- Node1&#45;&gt;Node6 -->
<g id="edge5" class="edge"><title>Node1&#45;&gt;Node6</title>
<path fill="none" stroke="midnightblue" d="M470.827,-168.444C451.091,-159.636 420.115,-145.812 397.507,-135.722"/>
<polygon fill="midnightblue" stroke="midnightblue" points="398.641,-132.396 388.083,-131.516 395.789,-138.788 398.641,-132.396"/>
</g>
<!-- Node7 -->
<g id="node7" class="node"><title>Node7</title>
<polygon fill="none" stroke="#bfbfbf" points="418,-112.5 418,-131.5 488,-131.5 488,-112.5 418,-112.5"/>
<text text-anchor="middle" x="453" y="-119.5" font-family="Helvetica,sans-Serif" font-size="10.00">sys/inotify.h</text>
</g>
<!-- Node1&#45;&gt;Node7 -->
<g id="edge6" class="edge"><title>Node1&#45;&gt;Node7</title>
<path fill="none" stroke="midnightblue" d="M483.89,-168.083C478.718,-160.534 471.154,-149.495 464.806,-140.23"/>
<polygon fill="midnightblue" stroke="midnightblue" points="467.536,-138.022 458.996,-131.751 461.761,-141.979 467.536,-138.022"/>
</g>
<!-- Node8 -->
<g id="node8" class="node"><title>Node8</title>
<polygon fill="none" stroke="#bfbfbf" points="506,-112.5 506,-131.5 550,-131.5 550,-112.5 506,-112.5"/>
<text text-anchor="middle" x="528" y="-119.5" font-family="Helvetica,sans-Serif" font-size="10.00">vector</text>
</g>
<!-- Node1&#45;&gt;Node8 -->
<g id="edge7" class="edge"><title>Node1&#45;&gt;Node8</title>
<path fill="none" stroke="midnightblue" d="M496.275,-168.083C501.642,-160.455 509.518,-149.264 516.079,-139.941"/>
<polygon fill="midnightblue" stroke="midnightblue" points="518.949,-141.943 521.842,-131.751 513.225,-137.915 518.949,-141.943"/>
</g>
<!-- Node9 -->
<g id="node9" class="node"><title>Node9</title>
<polygon fill="none" stroke="#bfbfbf" points="568.5,-112.5 568.5,-131.5 603.5,-131.5 603.5,-112.5 568.5,-112.5"/>
<text text-anchor="middle" x="586" y="-119.5" font-family="Helvetica,sans-Serif" font-size="10.00">map</text>
</g>
<!-- Node1&#45;&gt;Node9 -->
<g id="edge8" class="edge"><title>Node1&#45;&gt;Node9</title>
<path fill="none" stroke="midnightblue" d="M505.424,-168.324C520.54,-159.822 543.815,-146.729 561.471,-136.797"/>
<polygon fill="midnightblue" stroke="midnightblue" points="563.614,-139.608 570.614,-131.655 560.183,-133.507 563.614,-139.608"/>
</g>
<!-- Node10 -->
<g id="node10" class="node"><title>Node10</title>
<g id="a_node10"><a xlink:href="defines_8h.html" target="_top" xlink:title="defines.h">
<polygon fill="none" stroke="black" points="612,-56.5 612,-75.5 668,-75.5 668,-56.5 612,-56.5"/>
<text text-anchor="middle" x="640" y="-63.5" font-family="Helvetica,sans-Serif" font-size="10.00">defines.h</text>
</a>
</g>
</g>
<!-- Node1&#45;&gt;Node10 -->
<g id="edge9" class="edge"><title>Node1&#45;&gt;Node10</title>
<path fill="none" stroke="midnightblue" d="M530.027,-170.663C556.193,-164.67 589.555,-153.278 612,-132 625.075,-119.605 632.358,-100.086 636.194,-85.6689"/>
<polygon fill="midnightblue" stroke="midnightblue" points="639.623,-86.3761 638.495,-75.8415 632.807,-84.7804 639.623,-86.3761"/>
</g>
<!-- Node11 -->
<g id="node11" class="node"><title>Node11</title>
<g id="a_node11"><a xlink:href="_closable_8h.html" target="_top" xlink:title="Closable.h">
<polygon fill="none" stroke="black" points="660.5,-112.5 660.5,-131.5 723.5,-131.5 723.5,-112.5 660.5,-112.5"/>
<text text-anchor="middle" x="692" y="-119.5" font-family="Helvetica,sans-Serif" font-size="10.00">Closable.h</text>
</a>
</g>
</g>
<!-- Node1&#45;&gt;Node11 -->
<g id="edge10" class="edge"><title>Node1&#45;&gt;Node11</title>
<path fill="none" stroke="midnightblue" d="M522.008,-168.444C556.831,-159.134 612.615,-144.222 650.713,-134.037"/>
<polygon fill="midnightblue" stroke="midnightblue" points="651.718,-137.391 660.475,-131.428 649.91,-130.629 651.718,-137.391"/>
</g>
<!-- Node12 -->
<g id="node12" class="node"><title>Node12</title>
<g id="a_node12"><a xlink:href="_string_8h.html" target="_top" xlink:title="String.h">
<polygon fill="none" stroke="black" points="796,-56.5 796,-75.5 846,-75.5 846,-56.5 796,-56.5"/>
<text text-anchor="middle" x="821" y="-63.5" font-family="Helvetica,sans-Serif" font-size="10.00">String.h</text>
</a>
</g>
</g>
<!-- Node1&#45;&gt;Node12 -->
<g id="edge11" class="edge"><title>Node1&#45;&gt;Node12</title>
<path fill="none" stroke="midnightblue" d="M530.258,-176.378C604.956,-174.406 761.059,-166.192 801,-132 814.294,-120.62 818.899,-100.628 820.419,-85.8117"/>
<polygon fill="midnightblue" stroke="midnightblue" points="823.919,-85.9242 821.074,-75.7186 816.934,-85.4711 823.919,-85.9242"/>
</g>
<!-- Node14 -->
<g id="node14" class="node"><title>Node14</title>
<g id="a_node14"><a xlink:href="_writer_8h.html" target="_top" xlink:title="Writer.h">
<polygon fill="none" stroke="black" points="741.5,-112.5 741.5,-131.5 792.5,-131.5 792.5,-112.5 741.5,-112.5"/>
<text text-anchor="middle" x="767" y="-119.5" font-family="Helvetica,sans-Serif" font-size="10.00">Writer.h</text>
</a>
</g>
</g>
<!-- Node1&#45;&gt;Node14 -->
<g id="edge13" class="edge"><title>Node1&#45;&gt;Node14</title>
<path fill="none" stroke="midnightblue" d="M530.419,-170.347C576.63,-162.55 654.745,-148.791 731.584,-131.963"/>
<polygon fill="midnightblue" stroke="midnightblue" points="732.424,-135.362 741.434,-129.788 730.914,-128.527 732.424,-135.362"/>
</g>
<!-- Node13 -->
<g id="node13" class="node"><title>Node13</title>
<polygon fill="none" stroke="#bfbfbf" points="800.5,-0.5 800.5,-19.5 841.5,-19.5 841.5,-0.5 800.5,-0.5"/>
<text text-anchor="middle" x="821" y="-7.5" font-family="Helvetica,sans-Serif" font-size="10.00">string</text>
</g>
<!-- Node12&#45;&gt;Node13 -->
<g id="edge12" class="edge"><title>Node12&#45;&gt;Node13</title>
<path fill="none" stroke="midnightblue" d="M821,-56.083C821,-49.0059 821,-38.8611 821,-29.9865"/>
<polygon fill="midnightblue" stroke="midnightblue" points="824.5,-29.751 821,-19.7511 817.5,-29.7511 824.5,-29.751"/>
</g>
<!-- Node14&#45;&gt;Node10 -->
<g id="edge14" class="edge"><title>Node14&#45;&gt;Node10</title>
<path fill="none" stroke="midnightblue" d="M746.876,-112.444C725.976,-103.557 693.065,-89.5632 669.284,-79.4514"/>
<polygon fill="midnightblue" stroke="midnightblue" points="670.602,-76.2085 660.029,-75.5164 667.862,-82.6504 670.602,-76.2085"/>
</g>
<!-- Node14&#45;&gt;Node12 -->
<g id="edge15" class="edge"><title>Node14&#45;&gt;Node12</title>
<path fill="none" stroke="midnightblue" d="M775.917,-112.083C783.78,-104.22 795.431,-92.5688 804.919,-83.0813"/>
<polygon fill="midnightblue" stroke="midnightblue" points="807.653,-85.2971 812.249,-75.7511 802.703,-80.3473 807.653,-85.2971"/>
</g>
<!-- Node15 -->
<g id="node15" class="node"><title>Node15</title>
<g id="a_node15"><a xlink:href="_should_delete_8h.html" target="_top" xlink:title="ShouldDelete.h">
<polygon fill="none" stroke="black" points="694.5,-56.5 694.5,-75.5 777.5,-75.5 777.5,-56.5 694.5,-56.5"/>
<text text-anchor="middle" x="736" y="-63.5" font-family="Helvetica,sans-Serif" font-size="10.00">ShouldDelete.h</text>
</a>
</g>
</g>
<!-- Node14&#45;&gt;Node15 -->
<g id="edge16" class="edge"><title>Node14&#45;&gt;Node15</title>
<path fill="none" stroke="midnightblue" d="M761.881,-112.083C757.592,-104.613 751.342,-93.7244 746.058,-84.5199"/>
<polygon fill="midnightblue" stroke="midnightblue" points="749.038,-82.6811 741.024,-75.7511 742.967,-86.1662 749.038,-82.6811"/>
</g>
</g>
</svg>
