<?xml version="1.0" encoding="UTF-8" standalone="no"?>
<!DOCTYPE svg PUBLIC "-//W3C//DTD SVG 1.1//EN"
 "http://www.w3.org/Graphics/SVG/1.1/DTD/svg11.dtd">
<!-- Generated by graphviz version 2.34.0 (20140110.0949)
 -->
<!-- Title: include/Global.h Pages: 1 -->
<svg width="536pt" height="196pt"
 viewBox="0.00 0.00 536.00 196.00" xmlns="http://www.w3.org/2000/svg" xmlns:xlink="http://www.w3.org/1999/xlink">
<g id="graph0" class="graph" transform="scale(1 1) rotate(0) translate(4 192)">
<title>include/Global.h</title>
<!-- Node1 -->
<g id="node1" class="node"><title>Node1</title>
<polygon fill="#bfbfbf" stroke="black" points="233,-168.5 233,-187.5 319,-187.5 319,-168.5 233,-168.5"/>
<text text-anchor="middle" x="276" y="-175.5" font-family="Helvetica,sans-Serif" font-size="10.00">include/Global.h</text>
</g>
<!-- Node2 -->
<g id="node2" class="node"><title>Node2</title>
<polygon fill="none" stroke="#bfbfbf" points="0,-112.5 0,-131.5 44,-131.5 44,-112.5 0,-112.5"/>
<text text-anchor="middle" x="22" y="-119.5" font-family="Helvetica,sans-Serif" font-size="10.00">vector</text>
</g>
<!-- Node1&#45;&gt;Node2 -->
<g id="edge1" class="edge"><title>Node1&#45;&gt;Node2</title>
<path fill="none" stroke="midnightblue" d="M232.868,-168.644C188.807,-159.98 118.472,-145.794 58,-132 56.7281,-131.71 55.4322,-131.409 54.1239,-131.102"/>
<polygon fill="midnightblue" stroke="midnightblue" points="54.5926,-127.614 44.0501,-128.666 52.9474,-134.418 54.5926,-127.614"/>
</g>
<!-- Node3 -->
<g id="node3" class="node"><title>Node3</title>
<polygon fill="none" stroke="#bfbfbf" points="213.5,-0.5 213.5,-19.5 286.5,-19.5 286.5,-0.5 213.5,-0.5"/>
<text text-anchor="middle" x="250" y="-7.5" font-family="Helvetica,sans-Serif" font-size="10.00">event2/dns.h</text>
</g>
<!-- Node1&#45;&gt;Node3 -->
<g id="edge2" class="edge"><title>Node1&#45;&gt;Node3</title>
<path fill="none" stroke="midnightblue" d="M237.75,-168.469C193.491,-156.324 122.651,-129.341 91,-76 64.5678,-31.4547 147.195,-17.4338 203.061,-13.0227"/>
<polygon fill="midnightblue" stroke="midnightblue" points="203.422,-16.5059 213.148,-12.3057 202.925,-9.52355 203.422,-16.5059"/>
</g>
<!-- Node4 -->
<g id="node4" class="node"><title>Node4</title>
<polygon fill="none" stroke="#bfbfbf" points="315.5,-0.5 315.5,-19.5 396.5,-19.5 396.5,-0.5 315.5,-0.5"/>
<text text-anchor="middle" x="356" y="-7.5" font-family="Helvetica,sans-Serif" font-size="10.00">event2/event.h</text>
</g>
<!-- Node1&#45;&gt;Node4 -->
<g id="edge3" class="edge"><title>Node1&#45;&gt;Node4</title>
<path fill="none" stroke="midnightblue" d="M286.485,-168.346C304.885,-152.385 342.332,-116.243 356,-76 361.052,-61.1241 360.61,-43.2046 359.154,-29.9513"/>
<polygon fill="midnightblue" stroke="midnightblue" points="362.573,-29.1214 357.727,-19.6994 355.639,-30.0865 362.573,-29.1214"/>
</g>
<!-- Node5 -->
<g id="node5" class="node"><title>Node5</title>
<g id="a_node5"><a xlink:href="_string_8h.html" target="_top" xlink:title="String.h">
<polygon fill="none" stroke="black" points="422,-56.5 422,-75.5 472,-75.5 472,-56.5 422,-56.5"/>
<text text-anchor="middle" x="447" y="-63.5" font-family="Helvetica,sans-Serif" font-size="10.00">String.h</text>
</a>
</g>
</g>
<!-- Node1&#45;&gt;Node5 -->
<g id="edge4" class="edge"><title>Node1&#45;&gt;Node5</title>
<path fill="none" stroke="midnightblue" d="M319.243,-170.178C346.994,-164.014 382.479,-152.615 408,-132 423.158,-119.756 433.828,-99.9318 440.131,-85.3916"/>
<polygon fill="midnightblue" stroke="midnightblue" points="443.456,-86.5051 443.95,-75.9218 436.964,-83.8867 443.456,-86.5051"/>
</g>
<!-- Node8 -->
<g id="node8" class="node"><title>Node8</title>
<g id="a_node8"><a xlink:href="_module_8h.html" target="_top" xlink:title="Module.h">
<polygon fill="none" stroke="black" points="248,-112.5 248,-131.5 304,-131.5 304,-112.5 248,-112.5"/>
<text text-anchor="middle" x="276" y="-119.5" font-family="Helvetica,sans-Serif" font-size="10.00">Module.h</text>
</a>
</g>
</g>
<!-- Node1&#45;&gt;Node8 -->
<g id="edge7" class="edge"><title>Node1&#45;&gt;Node8</title>
<path fill="none" stroke="midnightblue" d="M276,-168.083C276,-161.006 276,-150.861 276,-141.986"/>
<polygon fill="midnightblue" stroke="midnightblue" points="279.5,-141.751 276,-131.751 272.5,-141.751 279.5,-141.751"/>
</g>
<!-- Node6 -->
<g id="node6" class="node"><title>Node6</title>
<polygon fill="none" stroke="#bfbfbf" points="420.5,-0.5 420.5,-19.5 461.5,-19.5 461.5,-0.5 420.5,-0.5"/>
<text text-anchor="middle" x="441" y="-7.5" font-family="Helvetica,sans-Serif" font-size="10.00">string</text>
</g>
<!-- Node5&#45;&gt;Node6 -->
<g id="edge5" class="edge"><title>Node5&#45;&gt;Node6</title>
<path fill="none" stroke="midnightblue" d="M446.009,-56.083C445.214,-48.9272 444.071,-38.6353 443.077,-29.6911"/>
<polygon fill="midnightblue" stroke="midnightblue" points="446.555,-29.3034 441.972,-19.7511 439.598,-30.0765 446.555,-29.3034"/>
</g>
<!-- Node7 -->
<g id="node7" class="node"><title>Node7</title>
<polygon fill="none" stroke="#bfbfbf" points="479.5,-0.5 479.5,-19.5 528.5,-19.5 528.5,-0.5 479.5,-0.5"/>
<text text-anchor="middle" x="504" y="-7.5" font-family="Helvetica,sans-Serif" font-size="10.00">stdint.h</text>
</g>
<!-- Node5&#45;&gt;Node7 -->
<g id="edge6" class="edge"><title>Node5&#45;&gt;Node7</title>
<path fill="none" stroke="midnightblue" d="M456.158,-56.324C464.501,-48.4196 477.032,-36.5482 487.177,-26.9377"/>
<polygon fill="midnightblue" stroke="midnightblue" points="489.823,-29.2522 494.675,-19.8339 485.009,-24.1705 489.823,-29.2522"/>
</g>
<!-- Node8&#45;&gt;Node3 -->
<g id="edge8" class="edge"><title>Node8&#45;&gt;Node3</title>
<path fill="none" stroke="midnightblue" d="M273.96,-112.368C269.764,-94.617 260.085,-53.6664 254.396,-29.5974"/>
<polygon fill="midnightblue" stroke="midnightblue" points="257.737,-28.5182 252.031,-19.5914 250.925,-30.1284 257.737,-28.5182"/>
</g>
<!-- Node8&#45;&gt;Node4 -->
<g id="edge9" class="edge"><title>Node8&#45;&gt;Node4</title>
<path fill="none" stroke="midnightblue" d="M293.176,-112.412C306.948,-104.681 325.77,-92.0744 337,-76 346.574,-62.2961 351.374,-43.7631 353.75,-29.9929"/>
<polygon fill="midnightblue" stroke="midnightblue" points="357.263,-30.1541 355.227,-19.7567 350.334,-29.1543 357.263,-30.1541"/>
</g>
<!-- Node8&#45;&gt;Node5 -->
<g id="edge12" class="edge"><title>Node8&#45;&gt;Node5</title>
<path fill="none" stroke="midnightblue" d="M303.095,-112.444C332.583,-103.132 379.823,-88.2137 412.075,-78.0289"/>
<polygon fill="midnightblue" stroke="midnightblue" points="413.497,-81.2504 421.978,-74.9015 411.389,-74.5754 413.497,-81.2504"/>
</g>
<!-- Node9 -->
<g id="node9" class="node"><title>Node9</title>
<polygon fill="none" stroke="#bfbfbf" points="100.5,-56.5 100.5,-75.5 173.5,-75.5 173.5,-56.5 100.5,-56.5"/>
<text text-anchor="middle" x="137" y="-63.5" font-family="Helvetica,sans-Serif" font-size="10.00">libconfig.h++</text>
</g>
<!-- Node8&#45;&gt;Node9 -->
<g id="edge10" class="edge"><title>Node8&#45;&gt;Node9</title>
<path fill="none" stroke="midnightblue" d="M253.975,-112.444C230.896,-103.478 194.438,-89.314 168.359,-79.1827"/>
<polygon fill="midnightblue" stroke="midnightblue" points="169.511,-75.8753 158.922,-75.5164 166.976,-82.4002 169.511,-75.8753"/>
</g>
<!-- Node10 -->
<g id="node10" class="node"><title>Node10</title>
<polygon fill="none" stroke="#bfbfbf" points="192,-56.5 192,-75.5 222,-75.5 222,-56.5 192,-56.5"/>
<text text-anchor="middle" x="207" y="-63.5" font-family="Helvetica,sans-Serif" font-size="10.00">set</text>
</g>
<!-- Node8&#45;&gt;Node10 -->
<g id="edge11" class="edge"><title>Node8&#45;&gt;Node10</title>
<path fill="none" stroke="midnightblue" d="M264.914,-112.324C254.514,-104.185 238.739,-91.8395 226.278,-82.0874"/>
<polygon fill="midnightblue" stroke="midnightblue" points="228.32,-79.2407 218.288,-75.8339 224.006,-84.7533 228.32,-79.2407"/>
</g>
<!-- Node11 -->
<g id="node11" class="node"><title>Node11</title>
<g id="a_node11"><a xlink:href="_event_8h.html" target="_top" xlink:title="Event.h">
<polygon fill="none" stroke="black" points="278,-56.5 278,-75.5 328,-75.5 328,-56.5 278,-56.5"/>
<text text-anchor="middle" x="303" y="-63.5" font-family="Helvetica,sans-Serif" font-size="10.00">Event.h</text>
</a>
</g>
</g>
<!-- Node8&#45;&gt;Node11 -->
<g id="edge13" class="edge"><title>Node8&#45;&gt;Node11</title>
<path fill="none" stroke="midnightblue" d="M280.459,-112.083C284.154,-104.691 289.523,-93.9533 294.094,-84.8111"/>
<polygon fill="midnightblue" stroke="midnightblue" points="297.283,-86.2606 298.624,-75.7511 291.022,-83.1301 297.283,-86.2606"/>
</g>
<!-- Node11&#45;&gt;Node3 -->
<g id="edge14" class="edge"><title>Node11&#45;&gt;Node3</title>
<path fill="none" stroke="midnightblue" d="M294.248,-56.083C286.53,-48.2195 275.095,-36.5688 265.783,-27.0813"/>
<polygon fill="midnightblue" stroke="midnightblue" points="268.092,-24.4363 258.589,-19.7511 263.096,-29.3396 268.092,-24.4363"/>
</g>
<!-- Node11&#45;&gt;Node4 -->
<g id="edge15" class="edge"><title>Node11&#45;&gt;Node4</title>
<path fill="none" stroke="midnightblue" d="M311.752,-56.083C319.47,-48.2195 330.905,-36.5688 340.217,-27.0813"/>
<polygon fill="midnightblue" stroke="midnightblue" points="342.904,-29.3396 347.411,-19.7511 337.908,-24.4363 342.904,-29.3396"/>
</g>
</g>
</svg>
