<?xml version="1.0" encoding="UTF-8" standalone="no"?>
<!DOCTYPE svg PUBLIC "-//W3C//DTD SVG 1.1//EN"
 "http://www.w3.org/Graphics/SVG/1.1/DTD/svg11.dtd">
<!-- Generated by graphviz version 2.34.0 (20140110.0949)
 -->
<!-- Title: include/Global.h Pages: 1 -->
<svg width="388pt" height="196pt"
 viewBox="0.00 0.00 388.00 196.00" xmlns="http://www.w3.org/2000/svg" xmlns:xlink="http://www.w3.org/1999/xlink">
<g id="graph0" class="graph" transform="scale(1 1) rotate(0) translate(4 192)">
<title>include/Global.h</title>
<!-- Node1 -->
<g id="node1" class="node"><title>Node1</title>
<polygon fill="#bfbfbf" stroke="black" points="173,-168.5 173,-187.5 259,-187.5 259,-168.5 173,-168.5"/>
<text text-anchor="middle" x="216" y="-175.5" font-family="Helvetica,sans-Serif" font-size="10.00">include/Global.h</text>
</g>
<!-- Node2 -->
<g id="node2" class="node"><title>Node2</title>
<polygon fill="none" stroke="#bfbfbf" points="0,-112.5 0,-131.5 44,-131.5 44,-112.5 0,-112.5"/>
<text text-anchor="middle" x="22" y="-119.5" font-family="Helvetica,sans-Serif" font-size="10.00">vector</text>
</g>
<!-- Node1&#45;&gt;Node2 -->
<g id="edge1" class="edge"><title>Node1&#45;&gt;Node2</title>
<path fill="none" stroke="midnightblue" d="M185.26,-168.444C149.475,-158.483 90.643,-142.107 54.2316,-131.972"/>
<polygon fill="midnightblue" stroke="midnightblue" points="54.7203,-128.475 44.1479,-129.165 52.8431,-135.218 54.7203,-128.475"/>
</g>
<!-- Node3 -->
<g id="node3" class="node"><title>Node3</title>
<polygon fill="none" stroke="#bfbfbf" points="73.5,-0.5 73.5,-19.5 146.5,-19.5 146.5,-0.5 73.5,-0.5"/>
<text text-anchor="middle" x="110" y="-7.5" font-family="Helvetica,sans-Serif" font-size="10.00">event2/dns.h</text>
</g>
<!-- Node1&#45;&gt;Node3 -->
<g id="edge2" class="edge"><title>Node1&#45;&gt;Node3</title>
<path fill="none" stroke="midnightblue" d="M202.531,-168.372C179.819,-152.971 134.48,-118.355 115,-76 108.349,-61.5401 107.497,-43.3527 108.079,-29.8961"/>
<polygon fill="midnightblue" stroke="midnightblue" points="111.572,-30.1195 108.81,-19.8911 104.59,-29.6095 111.572,-30.1195"/>
</g>
<!-- Node4 -->
<g id="node4" class="node"><title>Node4</title>
<polygon fill="none" stroke="#bfbfbf" points="175.5,-0.5 175.5,-19.5 256.5,-19.5 256.5,-0.5 175.5,-0.5"/>
<text text-anchor="middle" x="216" y="-7.5" font-family="Helvetica,sans-Serif" font-size="10.00">event2/event.h</text>
</g>
<!-- Node1&#45;&gt;Node4 -->
<g id="edge3" class="edge"><title>Node1&#45;&gt;Node4</title>
<path fill="none" stroke="midnightblue" d="M224.872,-168.312C240.736,-152.017 273.216,-114.981 283,-76 285.164,-67.3785 287.181,-63.8443 283,-56 275.45,-41.8339 261.239,-31.3348 247.842,-24.0576"/>
<polygon fill="midnightblue" stroke="midnightblue" points="249.298,-20.8724 238.788,-19.5289 246.166,-27.1329 249.298,-20.8724"/>
</g>
<!-- Node5 -->
<g id="node5" class="node"><title>Node5</title>
<g id="a_node5"><a xlink:href="_string_8h.html" target="_top" xlink:title="String.h">
<polygon fill="none" stroke="black" points="330,-56.5 330,-75.5 380,-75.5 380,-56.5 330,-56.5"/>
<text text-anchor="middle" x="355" y="-63.5" font-family="Helvetica,sans-Serif" font-size="10.00">String.h</text>
</a>
</g>
</g>
<!-- Node1&#45;&gt;Node5 -->
<g id="edge4" class="edge"><title>Node1&#45;&gt;Node5</title>
<path fill="none" stroke="midnightblue" d="M247.176,-168.41C268.439,-161.336 296.221,-149.58 316,-132 330.564,-119.055 341.327,-99.3409 347.814,-85.0178"/>
<polygon fill="midnightblue" stroke="midnightblue" points="351.078,-86.287 351.775,-75.7152 344.637,-83.5446 351.078,-86.287"/>
</g>
<!-- Node7 -->
<g id="node7" class="node"><title>Node7</title>
<g id="a_node7"><a xlink:href="_module_8h.html" target="_top" xlink:title="Module.h">
<polygon fill="none" stroke="black" points="188,-112.5 188,-131.5 244,-131.5 244,-112.5 188,-112.5"/>
<text text-anchor="middle" x="216" y="-119.5" font-family="Helvetica,sans-Serif" font-size="10.00">Module.h</text>
</a>
</g>
</g>
<!-- Node1&#45;&gt;Node7 -->
<g id="edge6" class="edge"><title>Node1&#45;&gt;Node7</title>
<path fill="none" stroke="midnightblue" d="M216,-168.083C216,-161.006 216,-150.861 216,-141.986"/>
<polygon fill="midnightblue" stroke="midnightblue" points="219.5,-141.751 216,-131.751 212.5,-141.751 219.5,-141.751"/>
</g>
<!-- Node6 -->
<g id="node6" class="node"><title>Node6</title>
<polygon fill="none" stroke="#bfbfbf" points="334.5,-0.5 334.5,-19.5 375.5,-19.5 375.5,-0.5 334.5,-0.5"/>
<text text-anchor="middle" x="355" y="-7.5" font-family="Helvetica,sans-Serif" font-size="10.00">string</text>
</g>
<!-- Node5&#45;&gt;Node6 -->
<g id="edge5" class="edge"><title>Node5&#45;&gt;Node6</title>
<path fill="none" stroke="midnightblue" d="M355,-56.083C355,-49.0059 355,-38.8611 355,-29.9865"/>
<polygon fill="midnightblue" stroke="midnightblue" points="358.5,-29.751 355,-19.7511 351.5,-29.7511 358.5,-29.751"/>
</g>
<!-- Node7&#45;&gt;Node3 -->
<g id="edge7" class="edge"><title>Node7&#45;&gt;Node3</title>
<path fill="none" stroke="midnightblue" d="M187.921,-112.975C168.735,-106.113 144.134,-94.3775 129,-76 118.149,-62.8234 113.495,-43.6857 111.499,-29.5867"/>
<polygon fill="midnightblue" stroke="midnightblue" points="114.969,-29.1287 110.4,-19.5699 108.011,-29.8919 114.969,-29.1287"/>
</g>
<!-- Node7&#45;&gt;Node4 -->
<g id="edge8" class="edge"><title>Node7&#45;&gt;Node4</title>
<path fill="none" stroke="midnightblue" d="M216,-112.368C216,-94.617 216,-53.6664 216,-29.5974"/>
<polygon fill="midnightblue" stroke="midnightblue" points="219.5,-29.5914 216,-19.5914 212.5,-29.5915 219.5,-29.5914"/>
</g>
<!-- Node7&#45;&gt;Node5 -->
<g id="edge10" class="edge"><title>Node7&#45;&gt;Node5</title>
<path fill="none" stroke="midnightblue" d="M238.025,-112.444C261.104,-103.478 297.562,-89.314 323.641,-79.1827"/>
<polygon fill="midnightblue" stroke="midnightblue" points="325.024,-82.4002 333.078,-75.5164 322.489,-75.8753 325.024,-82.4002"/>
</g>
<!-- Node8 -->
<g id="node8" class="node"><title>Node8</title>
<polygon fill="none" stroke="#bfbfbf" points="244,-56.5 244,-75.5 274,-75.5 274,-56.5 244,-56.5"/>
<text text-anchor="middle" x="259" y="-63.5" font-family="Helvetica,sans-Serif" font-size="10.00">set</text>
</g>
<!-- Node7&#45;&gt;Node8 -->
<g id="edge9" class="edge"><title>Node7&#45;&gt;Node8</title>
<path fill="none" stroke="midnightblue" d="M223.101,-112.083C229.237,-104.377 238.27,-93.0333 245.739,-83.6531"/>
<polygon fill="midnightblue" stroke="midnightblue" points="248.54,-85.7542 252.032,-75.7511 243.064,-81.3936 248.54,-85.7542"/>
</g>
<!-- Node9 -->
<g id="node9" class="node"><title>Node9</title>
<g id="a_node9"><a xlink:href="_event_8h.html" target="_top" xlink:title="Event.h">
<polygon fill="none" stroke="black" points="138,-56.5 138,-75.5 188,-75.5 188,-56.5 138,-56.5"/>
<text text-anchor="middle" x="163" y="-63.5" font-family="Helvetica,sans-Serif" font-size="10.00">Event.h</text>
</a>
</g>
</g>
<!-- Node7&#45;&gt;Node9 -->
<g id="edge11" class="edge"><title>Node7&#45;&gt;Node9</title>
<path fill="none" stroke="midnightblue" d="M207.248,-112.083C199.53,-104.22 188.095,-92.5688 178.783,-83.0813"/>
<polygon fill="midnightblue" stroke="midnightblue" points="181.092,-80.4363 171.589,-75.7511 176.096,-85.3396 181.092,-80.4363"/>
</g>
<!-- Node9&#45;&gt;Node3 -->
<g id="edge12" class="edge"><title>Node9&#45;&gt;Node3</title>
<path fill="none" stroke="midnightblue" d="M154.248,-56.083C146.53,-48.2195 135.095,-36.5688 125.783,-27.0813"/>
<polygon fill="midnightblue" stroke="midnightblue" points="128.092,-24.4363 118.589,-19.7511 123.096,-29.3396 128.092,-24.4363"/>
</g>
<!-- Node9&#45;&gt;Node4 -->
<g id="edge13" class="edge"><title>Node9&#45;&gt;Node4</title>
<path fill="none" stroke="midnightblue" d="M171.752,-56.083C179.47,-48.2195 190.905,-36.5688 200.217,-27.0813"/>
<polygon fill="midnightblue" stroke="midnightblue" points="202.904,-29.3396 207.411,-19.7511 197.908,-24.4363 202.904,-29.3396"/>
</g>
</g>
</svg>
