<?xml version="1.0" encoding="UTF-8" standalone="no"?>
<!DOCTYPE svg PUBLIC "-//W3C//DTD SVG 1.1//EN"
 "http://www.w3.org/Graphics/SVG/1.1/DTD/svg11.dtd">
<!-- Generated by graphviz version 2.34.0 (20140110.0949)
 -->
<!-- Title: include/JobThread.h Pages: 1 -->
<svg width="1390pt" height="308pt"
 viewBox="0.00 0.00 1390.00 308.00" xmlns="http://www.w3.org/2000/svg" xmlns:xlink="http://www.w3.org/1999/xlink">
<g id="graph0" class="graph" transform="scale(1 1) rotate(0) translate(4 304)">
<title>include/JobThread.h</title>
<!-- Node1 -->
<g id="node1" class="node"><title>Node1</title>
<polygon fill="#bfbfbf" stroke="black" points="348,-280.5 348,-299.5 452,-299.5 452,-280.5 348,-280.5"/>
<text text-anchor="middle" x="400" y="-287.5" font-family="Helvetica,sans-Serif" font-size="10.00">include/JobThread.h</text>
</g>
<!-- Node2 -->
<g id="node2" class="node"><title>Node2</title>
<polygon fill="none" stroke="#bfbfbf" points="304.5,-224.5 304.5,-243.5 333.5,-243.5 333.5,-224.5 304.5,-224.5"/>
<text text-anchor="middle" x="319" y="-231.5" font-family="Helvetica,sans-Serif" font-size="10.00">list</text>
</g>
<!-- Node1&#45;&gt;Node2 -->
<g id="edge1" class="edge"><title>Node1&#45;&gt;Node2</title>
<path fill="none" stroke="midnightblue" d="M386.986,-280.324C374.468,-271.979 355.318,-259.212 340.529,-249.352"/>
<polygon fill="midnightblue" stroke="midnightblue" points="342.244,-246.289 331.982,-243.655 338.361,-252.114 342.244,-246.289"/>
</g>
<!-- Node3 -->
<g id="node3" class="node"><title>Node3</title>
<g id="a_node3"><a xlink:href="_should_delete_8h.html" target="_top" xlink:title="ShouldDelete.h">
<polygon fill="none" stroke="black" points="1299.5,-56.5 1299.5,-75.5 1382.5,-75.5 1382.5,-56.5 1299.5,-56.5"/>
<text text-anchor="middle" x="1341" y="-63.5" font-family="Helvetica,sans-Serif" font-size="10.00">ShouldDelete.h</text>
</a>
</g>
</g>
<!-- Node1&#45;&gt;Node3 -->
<g id="edge2" class="edge"><title>Node1&#45;&gt;Node3</title>
<path fill="none" stroke="midnightblue" d="M452.381,-285.264C573.864,-275.852 883.692,-247.552 1136,-188 1211.37,-170.21 1240.45,-180.282 1301,-132 1316.34,-119.768 1327.32,-99.9423 1333.84,-85.3982"/>
<polygon fill="midnightblue" stroke="midnightblue" points="1337.18,-86.5013 1337.81,-75.9255 1330.72,-83.7974 1337.18,-86.5013"/>
</g>
<!-- Node4 -->
<g id="node4" class="node"><title>Node4</title>
<g id="a_node4"><a xlink:href="_thread_8h.html" target="_top" xlink:title="Thread.h">
<polygon fill="none" stroke="black" points="351.5,-168.5 351.5,-187.5 406.5,-187.5 406.5,-168.5 351.5,-168.5"/>
<text text-anchor="middle" x="379" y="-175.5" font-family="Helvetica,sans-Serif" font-size="10.00">Thread.h</text>
</a>
</g>
</g>
<!-- Node1&#45;&gt;Node4 -->
<g id="edge3" class="edge"><title>Node1&#45;&gt;Node4</title>
<path fill="none" stroke="midnightblue" d="M398.352,-280.368C394.963,-262.617 387.145,-221.666 382.55,-197.597"/>
<polygon fill="midnightblue" stroke="midnightblue" points="385.953,-196.758 380.64,-187.591 379.078,-198.07 385.953,-196.758"/>
</g>
<!-- Node13 -->
<g id="node13" class="node"><title>Node13</title>
<g id="a_node13"><a xlink:href="_module_8h.html" target="_top" xlink:title="Module.h">
<polygon fill="none" stroke="black" points="132,-168.5 132,-187.5 188,-187.5 188,-168.5 132,-168.5"/>
<text text-anchor="middle" x="160" y="-175.5" font-family="Helvetica,sans-Serif" font-size="10.00">Module.h</text>
</a>
</g>
</g>
<!-- Node1&#45;&gt;Node13 -->
<g id="edge12" class="edge"><title>Node1&#45;&gt;Node13</title>
<path fill="none" stroke="midnightblue" d="M394.766,-280.335C385.794,-266.253 366.094,-238.519 342,-224 297.278,-197.051 237.139,-186.206 198.465,-181.865"/>
<polygon fill="midnightblue" stroke="midnightblue" points="198.463,-178.346 188.157,-180.805 197.747,-185.309 198.463,-178.346"/>
</g>
<!-- Node15 -->
<g id="node15" class="node"><title>Node15</title>
<g id="a_node15"><a xlink:href="_pipe_8h.html" target="_top" xlink:title="Pipe.h">
<polygon fill="none" stroke="black" points="449,-224.5 449,-243.5 493,-243.5 493,-224.5 449,-224.5"/>
<text text-anchor="middle" x="471" y="-231.5" font-family="Helvetica,sans-Serif" font-size="10.00">Pipe.h</text>
</a>
</g>
</g>
<!-- Node1&#45;&gt;Node15 -->
<g id="edge18" class="edge"><title>Node1&#45;&gt;Node15</title>
<path fill="none" stroke="midnightblue" d="M411.407,-280.324C422.109,-272.185 438.341,-259.839 451.163,-250.087"/>
<polygon fill="midnightblue" stroke="midnightblue" points="453.544,-252.673 459.385,-243.834 449.307,-247.102 453.544,-252.673"/>
</g>
<!-- Node5 -->
<g id="node5" class="node"><title>Node5</title>
<polygon fill="none" stroke="#bfbfbf" points="407.5,-112.5 407.5,-131.5 442.5,-131.5 442.5,-112.5 407.5,-112.5"/>
<text text-anchor="middle" x="425" y="-119.5" font-family="Helvetica,sans-Serif" font-size="10.00">map</text>
</g>
<!-- Node4&#45;&gt;Node5 -->
<g id="edge4" class="edge"><title>Node4&#45;&gt;Node5</title>
<path fill="none" stroke="midnightblue" d="M386.596,-168.083C393.227,-160.298 403.021,-148.801 411.058,-139.367"/>
<polygon fill="midnightblue" stroke="midnightblue" points="413.725,-141.633 417.545,-131.751 408.396,-137.094 413.725,-141.633"/>
</g>
<!-- Node6 -->
<g id="node6" class="node"><title>Node6</title>
<polygon fill="none" stroke="#bfbfbf" points="226.5,-112.5 226.5,-131.5 275.5,-131.5 275.5,-112.5 226.5,-112.5"/>
<text text-anchor="middle" x="251" y="-119.5" font-family="Helvetica,sans-Serif" font-size="10.00">stdint.h</text>
</g>
<!-- Node4&#45;&gt;Node6 -->
<g id="edge5" class="edge"><title>Node4&#45;&gt;Node6</title>
<path fill="none" stroke="midnightblue" d="M358.718,-168.444C337.653,-159.557 304.483,-145.563 280.514,-135.451"/>
<polygon fill="midnightblue" stroke="midnightblue" points="281.761,-132.179 271.187,-131.516 279.04,-138.628 281.761,-132.179"/>
</g>
<!-- Node7 -->
<g id="node7" class="node"><title>Node7</title>
<polygon fill="none" stroke="#bfbfbf" points="293.5,-112.5 293.5,-131.5 350.5,-131.5 350.5,-112.5 293.5,-112.5"/>
<text text-anchor="middle" x="322" y="-119.5" font-family="Helvetica,sans-Serif" font-size="10.00">pthread.h</text>
</g>
<!-- Node4&#45;&gt;Node7 -->
<g id="edge6" class="edge"><title>Node4&#45;&gt;Node7</title>
<path fill="none" stroke="midnightblue" d="M369.842,-168.324C361.499,-160.42 348.968,-148.548 338.823,-138.938"/>
<polygon fill="midnightblue" stroke="midnightblue" points="340.991,-136.171 331.325,-131.834 336.177,-141.252 340.991,-136.171"/>
</g>
<!-- Node8 -->
<g id="node8" class="node"><title>Node8</title>
<g id="a_node8"><a xlink:href="_string_8h.html" target="_top" xlink:title="String.h">
<polygon fill="none" stroke="black" points="419,-56.5 419,-75.5 469,-75.5 469,-56.5 419,-56.5"/>
<text text-anchor="middle" x="444" y="-63.5" font-family="Helvetica,sans-Serif" font-size="10.00">String.h</text>
</a>
</g>
</g>
<!-- Node4&#45;&gt;Node8 -->
<g id="edge7" class="edge"><title>Node4&#45;&gt;Node8</title>
<path fill="none" stroke="midnightblue" d="M380.085,-168.446C382.033,-155.461 386.992,-130.349 398,-112 404.777,-100.704 415.069,-90.2681 424.201,-82.2955"/>
<polygon fill="midnightblue" stroke="midnightblue" points="426.67,-84.7942 432.127,-75.7124 422.198,-79.4092 426.67,-84.7942"/>
</g>
<!-- Node10 -->
<g id="node10" class="node"><title>Node10</title>
<g id="a_node10"><a xlink:href="_event_8h.html" target="_top" xlink:title="Event.h">
<polygon fill="none" stroke="black" points="82,-112.5 82,-131.5 132,-131.5 132,-112.5 82,-112.5"/>
<text text-anchor="middle" x="107" y="-119.5" font-family="Helvetica,sans-Serif" font-size="10.00">Event.h</text>
</a>
</g>
</g>
<!-- Node4&#45;&gt;Node10 -->
<g id="edge9" class="edge"><title>Node4&#45;&gt;Node10</title>
<path fill="none" stroke="midnightblue" d="M351.422,-171.525C301.685,-161.651 197.045,-140.877 142.214,-129.991"/>
<polygon fill="midnightblue" stroke="midnightblue" points="142.751,-126.529 132.261,-128.015 141.388,-133.395 142.751,-126.529"/>
</g>
<!-- Node9 -->
<g id="node9" class="node"><title>Node9</title>
<polygon fill="none" stroke="#bfbfbf" points="423.5,-0.5 423.5,-19.5 464.5,-19.5 464.5,-0.5 423.5,-0.5"/>
<text text-anchor="middle" x="444" y="-7.5" font-family="Helvetica,sans-Serif" font-size="10.00">string</text>
</g>
<!-- Node8&#45;&gt;Node9 -->
<g id="edge8" class="edge"><title>Node8&#45;&gt;Node9</title>
<path fill="none" stroke="midnightblue" d="M444,-56.083C444,-49.0059 444,-38.8611 444,-29.9865"/>
<polygon fill="midnightblue" stroke="midnightblue" points="447.5,-29.751 444,-19.7511 440.5,-29.7511 447.5,-29.751"/>
</g>
<!-- Node11 -->
<g id="node11" class="node"><title>Node11</title>
<polygon fill="none" stroke="#bfbfbf" points="-0.5,-56.5 -0.5,-75.5 72.5,-75.5 72.5,-56.5 -0.5,-56.5"/>
<text text-anchor="middle" x="36" y="-63.5" font-family="Helvetica,sans-Serif" font-size="10.00">event2/dns.h</text>
</g>
<!-- Node10&#45;&gt;Node11 -->
<g id="edge10" class="edge"><title>Node10&#45;&gt;Node11</title>
<path fill="none" stroke="midnightblue" d="M95.5926,-112.324C84.8912,-104.185 68.6593,-91.8395 55.8372,-82.0874"/>
<polygon fill="midnightblue" stroke="midnightblue" points="57.6932,-79.1018 47.6149,-75.8339 53.4556,-84.6734 57.6932,-79.1018"/>
</g>
<!-- Node12 -->
<g id="node12" class="node"><title>Node12</title>
<polygon fill="none" stroke="#bfbfbf" points="119.5,-56.5 119.5,-75.5 200.5,-75.5 200.5,-56.5 119.5,-56.5"/>
<text text-anchor="middle" x="160" y="-63.5" font-family="Helvetica,sans-Serif" font-size="10.00">event2/event.h</text>
</g>
<!-- Node10&#45;&gt;Node12 -->
<g id="edge11" class="edge"><title>Node10&#45;&gt;Node12</title>
<path fill="none" stroke="midnightblue" d="M115.752,-112.083C123.47,-104.22 134.905,-92.5688 144.217,-83.0813"/>
<polygon fill="midnightblue" stroke="midnightblue" points="146.904,-85.3396 151.411,-75.7511 141.908,-80.4363 146.904,-85.3396"/>
</g>
<!-- Node13&#45;&gt;Node8 -->
<g id="edge16" class="edge"><title>Node13&#45;&gt;Node8</title>
<path fill="none" stroke="midnightblue" d="M165.031,-168.207C173.686,-153.942 192.819,-125.951 217,-112 277.858,-76.8888 361.499,-68.7485 408.397,-67.1152"/>
<polygon fill="midnightblue" stroke="midnightblue" points="408.756,-70.607 418.659,-66.8423 408.57,-63.6094 408.756,-70.607"/>
</g>
<!-- Node13&#45;&gt;Node10 -->
<g id="edge17" class="edge"><title>Node13&#45;&gt;Node10</title>
<path fill="none" stroke="midnightblue" d="M151.248,-168.083C143.53,-160.22 132.095,-148.569 122.783,-139.081"/>
<polygon fill="midnightblue" stroke="midnightblue" points="125.092,-136.436 115.589,-131.751 120.096,-141.34 125.092,-136.436"/>
</g>
<!-- Node13&#45;&gt;Node11 -->
<g id="edge13" class="edge"><title>Node13&#45;&gt;Node11</title>
<path fill="none" stroke="midnightblue" d="M131.998,-176.658C100.125,-174.581 49.3406,-165.771 25,-132 15.1992,-118.402 20.2122,-99.0894 26.2971,-85.0508"/>
<polygon fill="midnightblue" stroke="midnightblue" points="29.5115,-86.4434 30.7209,-75.9178 23.2116,-83.3919 29.5115,-86.4434"/>
</g>
<!-- Node13&#45;&gt;Node12 -->
<g id="edge14" class="edge"><title>Node13&#45;&gt;Node12</title>
<path fill="none" stroke="midnightblue" d="M160,-168.368C160,-150.617 160,-109.666 160,-85.5974"/>
<polygon fill="midnightblue" stroke="midnightblue" points="163.5,-85.5914 160,-75.5914 156.5,-85.5915 163.5,-85.5914"/>
</g>
<!-- Node14 -->
<g id="node14" class="node"><title>Node14</title>
<polygon fill="none" stroke="#bfbfbf" points="34,-112.5 34,-131.5 64,-131.5 64,-112.5 34,-112.5"/>
<text text-anchor="middle" x="49" y="-119.5" font-family="Helvetica,sans-Serif" font-size="10.00">set</text>
</g>
<!-- Node13&#45;&gt;Node14 -->
<g id="edge15" class="edge"><title>Node13&#45;&gt;Node14</title>
<path fill="none" stroke="midnightblue" d="M142.166,-168.324C123.543,-159.264 94.2084,-144.993 73.4366,-134.888"/>
<polygon fill="midnightblue" stroke="midnightblue" points="74.812,-131.665 64.2885,-130.438 71.7497,-137.96 74.812,-131.665"/>
</g>
<!-- Node15&#45;&gt;Node4 -->
<g id="edge39" class="edge"><title>Node15&#45;&gt;Node4</title>
<path fill="none" stroke="midnightblue" d="M456.219,-224.324C441.733,-215.822 419.427,-202.729 402.507,-192.797"/>
<polygon fill="midnightblue" stroke="midnightblue" points="404.141,-189.698 393.745,-187.655 400.597,-195.735 404.141,-189.698"/>
</g>
<!-- Node15&#45;&gt;Node12 -->
<g id="edge19" class="edge"><title>Node15&#45;&gt;Node12</title>
<path fill="none" stroke="midnightblue" d="M472.577,-224.487C476.128,-202.402 482.175,-142.853 451,-112 417.945,-79.2867 284.888,-70.3429 210.67,-67.9059"/>
<polygon fill="midnightblue" stroke="midnightblue" points="210.705,-64.4054 200.605,-67.6034 210.495,-71.4023 210.705,-64.4054"/>
</g>
<!-- Node15&#45;&gt;Node13 -->
<g id="edge38" class="edge"><title>Node15&#45;&gt;Node13</title>
<path fill="none" stroke="midnightblue" d="M448.634,-229.116C396.017,-219.98 263.902,-197.041 198.254,-185.642"/>
<polygon fill="midnightblue" stroke="midnightblue" points="198.763,-182.178 188.311,-183.916 197.565,-189.075 198.763,-182.178"/>
</g>
<!-- Node16 -->
<g id="node16" class="node"><title>Node16</title>
<g id="a_node16"><a xlink:href="defines_8h.html" target="_top" xlink:title="defines.h">
<polygon fill="none" stroke="black" points="1223,-56.5 1223,-75.5 1279,-75.5 1279,-56.5 1223,-56.5"/>
<text text-anchor="middle" x="1251" y="-63.5" font-family="Helvetica,sans-Serif" font-size="10.00">defines.h</text>
</a>
</g>
</g>
<!-- Node15&#45;&gt;Node16 -->
<g id="edge20" class="edge"><title>Node15&#45;&gt;Node16</title>
<path fill="none" stroke="midnightblue" d="M493.248,-231.997C618.503,-226.122 1231.98,-194.285 1285,-132 1297.68,-117.108 1282.91,-96.6931 1269.06,-82.7401"/>
<polygon fill="midnightblue" stroke="midnightblue" points="1271.32,-80.0546 1261.65,-75.7293 1266.51,-85.1419 1271.32,-80.0546"/>
</g>
<!-- Node17 -->
<g id="node17" class="node"><title>Node17</title>
<g id="a_node17"><a xlink:href="_files_8h.html" target="_top" xlink:title="Files.h">
<polygon fill="none" stroke="black" points="804,-168.5 804,-187.5 850,-187.5 850,-168.5 804,-168.5"/>
<text text-anchor="middle" x="827" y="-175.5" font-family="Helvetica,sans-Serif" font-size="10.00">Files.h</text>
</a>
</g>
</g>
<!-- Node15&#45;&gt;Node17 -->
<g id="edge21" class="edge"><title>Node15&#45;&gt;Node17</title>
<path fill="none" stroke="midnightblue" d="M493.001,-229.663C553.273,-220.52 721.345,-195.026 793.449,-184.089"/>
<polygon fill="midnightblue" stroke="midnightblue" points="794.405,-187.484 803.767,-182.524 793.356,-180.563 794.405,-187.484"/>
</g>
<!-- Node26 -->
<g id="node26" class="node"><title>Node26</title>
<g id="a_node26"><a xlink:href="_writer_8h.html" target="_top" xlink:title="Writer.h">
<polygon fill="none" stroke="black" points="1225.5,-112.5 1225.5,-131.5 1276.5,-131.5 1276.5,-112.5 1225.5,-112.5"/>
<text text-anchor="middle" x="1251" y="-119.5" font-family="Helvetica,sans-Serif" font-size="10.00">Writer.h</text>
</a>
</g>
</g>
<!-- Node15&#45;&gt;Node26 -->
<g id="edge37" class="edge"><title>Node15&#45;&gt;Node26</title>
<path fill="none" stroke="midnightblue" d="M493.352,-230.763C552.902,-224.727 720.297,-207.258 859,-188 1013.3,-166.577 1051.65,-159.404 1205,-132 1208.28,-131.413 1211.7,-130.783 1215.11,-130.139"/>
<polygon fill="midnightblue" stroke="midnightblue" points="1216.08,-133.518 1225.24,-128.194 1214.76,-126.643 1216.08,-133.518"/>
</g>
<!-- Node17&#45;&gt;Node5 -->
<g id="edge29" class="edge"><title>Node17&#45;&gt;Node5</title>
<path fill="none" stroke="midnightblue" d="M803.943,-173.903C734.612,-164.59 528.19,-136.861 452.888,-126.746"/>
<polygon fill="midnightblue" stroke="midnightblue" points="453.139,-123.248 442.762,-125.386 452.207,-130.186 453.139,-123.248"/>
</g>
<!-- Node17&#45;&gt;Node8 -->
<g id="edge32" class="edge"><title>Node17&#45;&gt;Node8</title>
<path fill="none" stroke="midnightblue" d="M803.808,-177.407C752.09,-177.499 624.296,-173.165 528,-132 501.144,-120.52 475.365,-98.363 459.61,-83.1359"/>
<polygon fill="midnightblue" stroke="midnightblue" points="461.891,-80.4683 452.333,-75.898 456.955,-85.4315 461.891,-80.4683"/>
</g>
<!-- Node17&#45;&gt;Node16 -->
<g id="edge30" class="edge"><title>Node17&#45;&gt;Node16</title>
<path fill="none" stroke="midnightblue" d="M850.182,-175.784C918.524,-171.925 1118.1,-158.609 1177,-132 1201.72,-120.833 1224.22,-98.5489 1237.75,-83.2119"/>
<polygon fill="midnightblue" stroke="midnightblue" points="1240.49,-85.4014 1244.31,-75.5208 1235.16,-80.8601 1240.49,-85.4014"/>
</g>
<!-- Node18 -->
<g id="node18" class="node"><title>Node18</title>
<polygon fill="none" stroke="#bfbfbf" points="537,-112.5 537,-131.5 643,-131.5 643,-112.5 537,-112.5"/>
<text text-anchor="middle" x="590" y="-119.5" font-family="Helvetica,sans-Serif" font-size="10.00">event2/bufferevent.h</text>
</g>
<!-- Node17&#45;&gt;Node18 -->
<g id="edge22" class="edge"><title>Node17&#45;&gt;Node18</title>
<path fill="none" stroke="midnightblue" d="M803.844,-171.724C765.487,-162.984 688.006,-145.331 637.597,-133.845"/>
<polygon fill="midnightblue" stroke="midnightblue" points="638.114,-130.373 627.586,-131.564 636.559,-137.198 638.114,-130.373"/>
</g>
<!-- Node19 -->
<g id="node19" class="node"><title>Node19</title>
<polygon fill="none" stroke="#bfbfbf" points="661.5,-112.5 661.5,-131.5 712.5,-131.5 712.5,-112.5 661.5,-112.5"/>
<text text-anchor="middle" x="687" y="-119.5" font-family="Helvetica,sans-Serif" font-size="10.00">unistd.h</text>
</g>
<!-- Node17&#45;&gt;Node19 -->
<g id="edge23" class="edge"><title>Node17&#45;&gt;Node19</title>
<path fill="none" stroke="midnightblue" d="M804.817,-168.444C781.572,-159.478 744.851,-145.314 718.585,-135.183"/>
<polygon fill="midnightblue" stroke="midnightblue" points="719.669,-131.85 709.08,-131.516 717.15,-138.381 719.669,-131.85"/>
</g>
<!-- Node20 -->
<g id="node20" class="node"><title>Node20</title>
<polygon fill="none" stroke="#bfbfbf" points="731,-112.5 731,-131.5 779,-131.5 779,-112.5 731,-112.5"/>
<text text-anchor="middle" x="755" y="-119.5" font-family="Helvetica,sans-Serif" font-size="10.00">stdlib.h</text>
</g>
<!-- Node17&#45;&gt;Node20 -->
<g id="edge24" class="edge"><title>Node17&#45;&gt;Node20</title>
<path fill="none" stroke="midnightblue" d="M815.432,-168.324C804.58,-160.185 788.119,-147.839 775.117,-138.087"/>
<polygon fill="midnightblue" stroke="midnightblue" points="776.879,-135.034 766.779,-131.834 772.679,-140.634 776.879,-135.034"/>
</g>
<!-- Node21 -->
<g id="node21" class="node"><title>Node21</title>
<polygon fill="none" stroke="#bfbfbf" points="797,-112.5 797,-131.5 857,-131.5 857,-112.5 797,-112.5"/>
<text text-anchor="middle" x="827" y="-119.5" font-family="Helvetica,sans-Serif" font-size="10.00">sys/stat.h</text>
</g>
<!-- Node17&#45;&gt;Node21 -->
<g id="edge25" class="edge"><title>Node17&#45;&gt;Node21</title>
<path fill="none" stroke="midnightblue" d="M827,-168.083C827,-161.006 827,-150.861 827,-141.986"/>
<polygon fill="midnightblue" stroke="midnightblue" points="830.5,-141.751 827,-131.751 823.5,-141.751 830.5,-141.751"/>
</g>
<!-- Node22 -->
<g id="node22" class="node"><title>Node22</title>
<polygon fill="none" stroke="#bfbfbf" points="875,-112.5 875,-131.5 937,-131.5 937,-112.5 875,-112.5"/>
<text text-anchor="middle" x="906" y="-119.5" font-family="Helvetica,sans-Serif" font-size="10.00">sys/fcntl.h</text>
</g>
<!-- Node17&#45;&gt;Node22 -->
<g id="edge26" class="edge"><title>Node17&#45;&gt;Node22</title>
<path fill="none" stroke="midnightblue" d="M839.693,-168.324C851.901,-159.979 870.578,-147.212 885.003,-137.352"/>
<polygon fill="midnightblue" stroke="midnightblue" points="887.058,-140.187 893.339,-131.655 883.108,-134.408 887.058,-140.187"/>
</g>
<!-- Node23 -->
<g id="node23" class="node"><title>Node23</title>
<polygon fill="none" stroke="#bfbfbf" points="955,-112.5 955,-131.5 1025,-131.5 1025,-112.5 955,-112.5"/>
<text text-anchor="middle" x="990" y="-119.5" font-family="Helvetica,sans-Serif" font-size="10.00">sys/inotify.h</text>
</g>
<!-- Node17&#45;&gt;Node23 -->
<g id="edge27" class="edge"><title>Node17&#45;&gt;Node23</title>
<path fill="none" stroke="midnightblue" d="M850.008,-169.378C877.169,-160.38 922.648,-145.313 954.374,-134.803"/>
<polygon fill="midnightblue" stroke="midnightblue" points="955.758,-138.031 964.15,-131.564 953.557,-131.386 955.758,-138.031"/>
</g>
<!-- Node24 -->
<g id="node24" class="node"><title>Node24</title>
<polygon fill="none" stroke="#bfbfbf" points="1043,-112.5 1043,-131.5 1087,-131.5 1087,-112.5 1043,-112.5"/>
<text text-anchor="middle" x="1065" y="-119.5" font-family="Helvetica,sans-Serif" font-size="10.00">vector</text>
</g>
<!-- Node17&#45;&gt;Node24 -->
<g id="edge28" class="edge"><title>Node17&#45;&gt;Node24</title>
<path fill="none" stroke="midnightblue" d="M850.094,-172.517C886.741,-165.289 960.657,-150.244 1032.57,-132.233"/>
<polygon fill="midnightblue" stroke="midnightblue" points="1033.86,-135.517 1042.7,-129.672 1032.15,-128.73 1033.86,-135.517"/>
</g>
<!-- Node25 -->
<g id="node25" class="node"><title>Node25</title>
<g id="a_node25"><a xlink:href="_closable_8h.html" target="_top" xlink:title="Closable.h">
<polygon fill="none" stroke="black" points="1105.5,-112.5 1105.5,-131.5 1168.5,-131.5 1168.5,-112.5 1105.5,-112.5"/>
<text text-anchor="middle" x="1137" y="-119.5" font-family="Helvetica,sans-Serif" font-size="10.00">Closable.h</text>
</a>
</g>
</g>
<!-- Node17&#45;&gt;Node25 -->
<g id="edge31" class="edge"><title>Node17&#45;&gt;Node25</title>
<path fill="none" stroke="midnightblue" d="M850.099,-173.537C895.171,-166.695 998.199,-150.635 1095.27,-132.058"/>
<polygon fill="midnightblue" stroke="midnightblue" points="1096.09,-135.464 1105.25,-130.135 1094.77,-128.591 1096.09,-135.464"/>
</g>
<!-- Node17&#45;&gt;Node26 -->
<g id="edge33" class="edge"><title>Node17&#45;&gt;Node26</title>
<path fill="none" stroke="midnightblue" d="M850.06,-175.146C909.912,-170.15 1075.03,-155.199 1211,-132 1212.45,-131.753 1213.92,-131.488 1215.41,-131.208"/>
<polygon fill="midnightblue" stroke="midnightblue" points="1216.15,-134.628 1225.26,-129.208 1214.76,-127.768 1216.15,-134.628"/>
</g>
<!-- Node26&#45;&gt;Node3 -->
<g id="edge36" class="edge"><title>Node26&#45;&gt;Node3</title>
<path fill="none" stroke="midnightblue" d="M1265.46,-112.324C1279.5,-103.9 1301.05,-90.9709 1317.54,-81.0741"/>
<polygon fill="midnightblue" stroke="midnightblue" points="1319.8,-83.8007 1326.58,-75.6545 1316.2,-77.7983 1319.8,-83.8007"/>
</g>
<!-- Node26&#45;&gt;Node8 -->
<g id="edge35" class="edge"><title>Node26&#45;&gt;Node8</title>
<path fill="none" stroke="midnightblue" d="M1225.36,-117.499C1211.13,-115.653 1193.11,-113.473 1177,-112 909.095,-87.507 584.852,-72.8187 479.146,-68.4119"/>
<polygon fill="midnightblue" stroke="midnightblue" points="479.175,-64.9103 469.039,-67.9943 478.886,-71.9043 479.175,-64.9103"/>
</g>
<!-- Node26&#45;&gt;Node16 -->
<g id="edge34" class="edge"><title>Node26&#45;&gt;Node16</title>
<path fill="none" stroke="midnightblue" d="M1251,-112.083C1251,-105.006 1251,-94.8611 1251,-85.9865"/>
<polygon fill="midnightblue" stroke="midnightblue" points="1254.5,-85.751 1251,-75.7511 1247.5,-85.7511 1254.5,-85.751"/>
</g>
</g>
</svg>
