<?xml version="1.0" encoding="UTF-8" standalone="no"?>
<!DOCTYPE svg PUBLIC "-//W3C//DTD SVG 1.1//EN"
 "http://www.w3.org/Graphics/SVG/1.1/DTD/svg11.dtd">
<!-- Generated by graphviz version 2.34.0 (20140110.0949)
 -->
<!-- Title: include/JobThread.h Pages: 1 -->
<svg width="1479pt" height="308pt"
 viewBox="0.00 0.00 1479.22 308.00" xmlns="http://www.w3.org/2000/svg" xmlns:xlink="http://www.w3.org/1999/xlink">
<g id="graph0" class="graph" transform="scale(1 1) rotate(0) translate(4 304)">
<title>include/JobThread.h</title>
<!-- Node1 -->
<g id="node1" class="node"><title>Node1</title>
<polygon fill="#bfbfbf" stroke="black" points="761,-280.5 761,-299.5 865,-299.5 865,-280.5 761,-280.5"/>
<text text-anchor="middle" x="813" y="-287.5" font-family="Helvetica,sans-Serif" font-size="10.00">include/JobThread.h</text>
</g>
<!-- Node2 -->
<g id="node2" class="node"><title>Node2</title>
<polygon fill="none" stroke="#bfbfbf" points="-0.5,-224.5 -0.5,-243.5 28.5,-243.5 28.5,-224.5 -0.5,-224.5"/>
<text text-anchor="middle" x="14" y="-231.5" font-family="Helvetica,sans-Serif" font-size="10.00">list</text>
</g>
<!-- Node1&#45;&gt;Node2 -->
<g id="edge1" class="edge"><title>Node1&#45;&gt;Node2</title>
<path fill="none" stroke="midnightblue" d="M760.75,-287.597C610.859,-283.31 181.341,-269.124 43,-244 41.5088,-243.729 39.9868,-243.406 38.4597,-243.045"/>
<polygon fill="midnightblue" stroke="midnightblue" points="39.154,-239.605 28.5808,-240.281 37.2683,-246.346 39.154,-239.605"/>
</g>
<!-- Node3 -->
<g id="node3" class="node"><title>Node3</title>
<g id="a_node3"><a xlink:href="_should_delete_8h.html" target="_top" xlink:title="ShouldDelete.h">
<polygon fill="none" stroke="black" points="17.5,-56.5 17.5,-75.5 100.5,-75.5 100.5,-56.5 17.5,-56.5"/>
<text text-anchor="middle" x="59" y="-63.5" font-family="Helvetica,sans-Serif" font-size="10.00">ShouldDelete.h</text>
</a>
</g>
</g>
<!-- Node1&#45;&gt;Node3 -->
<g id="edge2" class="edge"><title>Node1&#45;&gt;Node3</title>
<path fill="none" stroke="midnightblue" d="M760.697,-285.745C654.802,-277.959 408.485,-253.752 213,-188 162.126,-170.888 146.584,-167.128 106,-132 90.2587,-118.375 76.874,-98.4961 68.4618,-84.3143"/>
<polygon fill="midnightblue" stroke="midnightblue" points="71.4594,-82.5054 63.4646,-75.5532 65.379,-85.9737 71.4594,-82.5054"/>
</g>
<!-- Node4 -->
<g id="node4" class="node"><title>Node4</title>
<g id="a_node4"><a xlink:href="_thread_8h.html" target="_top" xlink:title="Thread.h">
<polygon fill="none" stroke="black" points="955.5,-168.5 955.5,-187.5 1010.5,-187.5 1010.5,-168.5 955.5,-168.5"/>
<text text-anchor="middle" x="983" y="-175.5" font-family="Helvetica,sans-Serif" font-size="10.00">Thread.h</text>
</a>
</g>
</g>
<!-- Node1&#45;&gt;Node4 -->
<g id="edge3" class="edge"><title>Node1&#45;&gt;Node4</title>
<path fill="none" stroke="midnightblue" d="M826.34,-280.368C855.512,-261.492 925.223,-216.385 960.998,-193.237"/>
<polygon fill="midnightblue" stroke="midnightblue" points="963.228,-195.962 969.722,-187.591 959.425,-190.085 963.228,-195.962"/>
</g>
<!-- Node13 -->
<g id="node13" class="node"><title>Node13</title>
<g id="a_node13"><a xlink:href="_module_8h.html" target="_top" xlink:title="Module.h">
<polygon fill="none" stroke="black" points="1298,-168.5 1298,-187.5 1354,-187.5 1354,-168.5 1298,-168.5"/>
<text text-anchor="middle" x="1326" y="-175.5" font-family="Helvetica,sans-Serif" font-size="10.00">Module.h</text>
</a>
</g>
</g>
<!-- Node1&#45;&gt;Node13 -->
<g id="edge12" class="edge"><title>Node1&#45;&gt;Node13</title>
<path fill="none" stroke="midnightblue" d="M852.827,-280.46C949.036,-259.83 1193.13,-207.491 1287.72,-187.207"/>
<polygon fill="midnightblue" stroke="midnightblue" points="1288.67,-190.583 1297.72,-185.065 1287.21,-183.739 1288.67,-190.583"/>
</g>
<!-- Node16 -->
<g id="node16" class="node"><title>Node16</title>
<g id="a_node16"><a xlink:href="_pipe_8h.html" target="_top" xlink:title="Pipe.h">
<polygon fill="none" stroke="black" points="791,-224.5 791,-243.5 835,-243.5 835,-224.5 791,-224.5"/>
<text text-anchor="middle" x="813" y="-231.5" font-family="Helvetica,sans-Serif" font-size="10.00">Pipe.h</text>
</a>
</g>
</g>
<!-- Node1&#45;&gt;Node16 -->
<g id="edge19" class="edge"><title>Node1&#45;&gt;Node16</title>
<path fill="none" stroke="midnightblue" d="M813,-280.083C813,-273.006 813,-262.861 813,-253.986"/>
<polygon fill="midnightblue" stroke="midnightblue" points="816.5,-253.751 813,-243.751 809.5,-253.751 816.5,-253.751"/>
</g>
<!-- Node5 -->
<g id="node5" class="node"><title>Node5</title>
<polygon fill="none" stroke="#bfbfbf" points="919.5,-112.5 919.5,-131.5 954.5,-131.5 954.5,-112.5 919.5,-112.5"/>
<text text-anchor="middle" x="937" y="-119.5" font-family="Helvetica,sans-Serif" font-size="10.00">map</text>
</g>
<!-- Node4&#45;&gt;Node5 -->
<g id="edge4" class="edge"><title>Node4&#45;&gt;Node5</title>
<path fill="none" stroke="midnightblue" d="M975.404,-168.083C968.773,-160.298 958.979,-148.801 950.942,-139.367"/>
<polygon fill="midnightblue" stroke="midnightblue" points="953.604,-137.094 944.455,-131.751 948.275,-141.633 953.604,-137.094"/>
</g>
<!-- Node6 -->
<g id="node6" class="node"><title>Node6</title>
<polygon fill="none" stroke="#bfbfbf" points="1011.5,-112.5 1011.5,-131.5 1060.5,-131.5 1060.5,-112.5 1011.5,-112.5"/>
<text text-anchor="middle" x="1036" y="-119.5" font-family="Helvetica,sans-Serif" font-size="10.00">stdint.h</text>
</g>
<!-- Node4&#45;&gt;Node6 -->
<g id="edge5" class="edge"><title>Node4&#45;&gt;Node6</title>
<path fill="none" stroke="midnightblue" d="M991.752,-168.083C999.47,-160.22 1010.9,-148.569 1020.22,-139.081"/>
<polygon fill="midnightblue" stroke="midnightblue" points="1022.9,-141.34 1027.41,-131.751 1017.91,-136.436 1022.9,-141.34"/>
</g>
<!-- Node7 -->
<g id="node7" class="node"><title>Node7</title>
<polygon fill="none" stroke="#bfbfbf" points="1078.5,-112.5 1078.5,-131.5 1135.5,-131.5 1135.5,-112.5 1078.5,-112.5"/>
<text text-anchor="middle" x="1107" y="-119.5" font-family="Helvetica,sans-Serif" font-size="10.00">pthread.h</text>
</g>
<!-- Node4&#45;&gt;Node7 -->
<g id="edge6" class="edge"><title>Node4&#45;&gt;Node7</title>
<path fill="none" stroke="midnightblue" d="M1002.65,-168.444C1022.96,-159.596 1054.9,-145.687 1078.1,-135.586"/>
<polygon fill="midnightblue" stroke="midnightblue" points="1079.67,-138.718 1087.44,-131.516 1076.88,-132.3 1079.67,-138.718"/>
</g>
<!-- Node8 -->
<g id="node8" class="node"><title>Node8</title>
<g id="a_node8"><a xlink:href="_string_8h.html" target="_top" xlink:title="String.h">
<polygon fill="none" stroke="black" points="912,-56.5 912,-75.5 962,-75.5 962,-56.5 912,-56.5"/>
<text text-anchor="middle" x="937" y="-63.5" font-family="Helvetica,sans-Serif" font-size="10.00">String.h</text>
</a>
</g>
</g>
<!-- Node4&#45;&gt;Node8 -->
<g id="edge7" class="edge"><title>Node4&#45;&gt;Node8</title>
<path fill="none" stroke="midnightblue" d="M981.005,-168.366C977.932,-155.702 971.495,-131.481 963,-112 958.852,-102.489 953.184,-92.4419 948.199,-84.26"/>
<polygon fill="midnightblue" stroke="midnightblue" points="951.076,-82.2604 942.792,-75.6556 945.149,-85.9849 951.076,-82.2604"/>
</g>
<!-- Node10 -->
<g id="node10" class="node"><title>Node10</title>
<g id="a_node10"><a xlink:href="_event_8h.html" target="_top" xlink:title="Event.h">
<polygon fill="none" stroke="black" points="1192,-112.5 1192,-131.5 1242,-131.5 1242,-112.5 1192,-112.5"/>
<text text-anchor="middle" x="1217" y="-119.5" font-family="Helvetica,sans-Serif" font-size="10.00">Event.h</text>
</a>
</g>
</g>
<!-- Node4&#45;&gt;Node10 -->
<g id="edge9" class="edge"><title>Node4&#45;&gt;Node10</title>
<path fill="none" stroke="midnightblue" d="M1010.76,-170.593C1053.42,-160.75 1135.04,-141.914 1181.79,-131.125"/>
<polygon fill="midnightblue" stroke="midnightblue" points="1182.81,-134.482 1191.77,-128.823 1181.24,-127.661 1182.81,-134.482"/>
</g>
<!-- Node9 -->
<g id="node9" class="node"><title>Node9</title>
<polygon fill="none" stroke="#bfbfbf" points="916.5,-0.5 916.5,-19.5 957.5,-19.5 957.5,-0.5 916.5,-0.5"/>
<text text-anchor="middle" x="937" y="-7.5" font-family="Helvetica,sans-Serif" font-size="10.00">string</text>
</g>
<!-- Node8&#45;&gt;Node9 -->
<g id="edge8" class="edge"><title>Node8&#45;&gt;Node9</title>
<path fill="none" stroke="midnightblue" d="M937,-56.083C937,-49.0059 937,-38.8611 937,-29.9865"/>
<polygon fill="midnightblue" stroke="midnightblue" points="940.5,-29.751 937,-19.7511 933.5,-29.7511 940.5,-29.751"/>
</g>
<!-- Node11 -->
<g id="node11" class="node"><title>Node11</title>
<polygon fill="none" stroke="#bfbfbf" points="1388.5,-56.5 1388.5,-75.5 1461.5,-75.5 1461.5,-56.5 1388.5,-56.5"/>
<text text-anchor="middle" x="1425" y="-63.5" font-family="Helvetica,sans-Serif" font-size="10.00">event2/dns.h</text>
</g>
<!-- Node10&#45;&gt;Node11 -->
<g id="edge10" class="edge"><title>Node10&#45;&gt;Node11</title>
<path fill="none" stroke="midnightblue" d="M1242.09,-114.486C1276.8,-105.475 1339.96,-89.0775 1382.21,-78.1102"/>
<polygon fill="midnightblue" stroke="midnightblue" points="1383.14,-81.4844 1391.94,-75.5837 1381.38,-74.709 1383.14,-81.4844"/>
</g>
<!-- Node12 -->
<g id="node12" class="node"><title>Node12</title>
<polygon fill="none" stroke="#bfbfbf" points="1229.5,-56.5 1229.5,-75.5 1310.5,-75.5 1310.5,-56.5 1229.5,-56.5"/>
<text text-anchor="middle" x="1270" y="-63.5" font-family="Helvetica,sans-Serif" font-size="10.00">event2/event.h</text>
</g>
<!-- Node10&#45;&gt;Node12 -->
<g id="edge11" class="edge"><title>Node10&#45;&gt;Node12</title>
<path fill="none" stroke="midnightblue" d="M1225.75,-112.083C1233.47,-104.22 1244.9,-92.5688 1254.22,-83.0813"/>
<polygon fill="midnightblue" stroke="midnightblue" points="1256.9,-85.3396 1261.41,-75.7511 1251.91,-80.4363 1256.9,-85.3396"/>
</g>
<!-- Node13&#45;&gt;Node8 -->
<g id="edge17" class="edge"><title>Node13&#45;&gt;Node8</title>
<path fill="none" stroke="midnightblue" d="M1297.83,-169.654C1268.62,-161.689 1221.89,-147.956 1183,-132 1164.98,-124.606 1162.34,-118.569 1144,-112 1085.43,-91.0208 1013.88,-78.1182 972.077,-71.7789"/>
<polygon fill="midnightblue" stroke="midnightblue" points="972.52,-68.3065 962.116,-70.3077 971.498,-75.2313 972.52,-68.3065"/>
</g>
<!-- Node13&#45;&gt;Node10 -->
<g id="edge18" class="edge"><title>Node13&#45;&gt;Node10</title>
<path fill="none" stroke="midnightblue" d="M1308.49,-168.324C1290.93,-159.625 1263.67,-146.12 1243.47,-136.113"/>
<polygon fill="midnightblue" stroke="midnightblue" points="1244.98,-132.958 1234.47,-131.655 1241.88,-139.23 1244.98,-132.958"/>
</g>
<!-- Node13&#45;&gt;Node11 -->
<g id="edge13" class="edge"><title>Node13&#45;&gt;Node11</title>
<path fill="none" stroke="midnightblue" d="M1354.03,-177.133C1387.19,-175.591 1441.16,-167.376 1467,-132 1479.15,-115.371 1461.69,-95.3522 1445.73,-81.9648"/>
<polygon fill="midnightblue" stroke="midnightblue" points="1447.7,-79.063 1437.68,-75.6215 1443.37,-84.5606 1447.7,-79.063"/>
</g>
<!-- Node13&#45;&gt;Node12 -->
<g id="edge14" class="edge"><title>Node13&#45;&gt;Node12</title>
<path fill="none" stroke="midnightblue" d="M1321.61,-168.368C1312.45,-150.376 1291.15,-108.55 1278.97,-84.6267"/>
<polygon fill="midnightblue" stroke="midnightblue" points="1282.03,-82.9152 1274.37,-75.5914 1275.79,-86.091 1282.03,-82.9152"/>
</g>
<!-- Node14 -->
<g id="node14" class="node"><title>Node14</title>
<polygon fill="none" stroke="#bfbfbf" points="1336.5,-112.5 1336.5,-131.5 1409.5,-131.5 1409.5,-112.5 1336.5,-112.5"/>
<text text-anchor="middle" x="1373" y="-119.5" font-family="Helvetica,sans-Serif" font-size="10.00">libconfig.h++</text>
</g>
<!-- Node13&#45;&gt;Node14 -->
<g id="edge15" class="edge"><title>Node13&#45;&gt;Node14</title>
<path fill="none" stroke="midnightblue" d="M1333.76,-168.083C1340.54,-160.298 1350.54,-148.801 1358.76,-139.367"/>
<polygon fill="midnightblue" stroke="midnightblue" points="1361.46,-141.592 1365.38,-131.751 1356.18,-136.996 1361.46,-141.592"/>
</g>
<!-- Node15 -->
<g id="node15" class="node"><title>Node15</title>
<polygon fill="none" stroke="#bfbfbf" points="1428,-112.5 1428,-131.5 1458,-131.5 1458,-112.5 1428,-112.5"/>
<text text-anchor="middle" x="1443" y="-119.5" font-family="Helvetica,sans-Serif" font-size="10.00">set</text>
</g>
<!-- Node13&#45;&gt;Node15 -->
<g id="edge16" class="edge"><title>Node13&#45;&gt;Node15</title>
<path fill="none" stroke="midnightblue" d="M1344.54,-168.444C1364.54,-159.211 1396.49,-144.467 1418.54,-134.289"/>
<polygon fill="midnightblue" stroke="midnightblue" points="1420.28,-137.339 1427.9,-129.971 1417.35,-130.984 1420.28,-137.339"/>
</g>
<!-- Node16&#45;&gt;Node4 -->
<g id="edge41" class="edge"><title>Node16&#45;&gt;Node4</title>
<path fill="none" stroke="midnightblue" d="M835.225,-225.94C863.364,-217.002 912.242,-201.476 946.037,-190.741"/>
<polygon fill="midnightblue" stroke="midnightblue" points="947.53,-193.939 956.001,-187.576 945.411,-187.268 947.53,-193.939"/>
</g>
<!-- Node16&#45;&gt;Node12 -->
<g id="edge20" class="edge"><title>Node16&#45;&gt;Node12</title>
<path fill="none" stroke="midnightblue" d="M835.018,-230.865C915.105,-222.668 1189.44,-190.7 1251,-132 1263.49,-120.092 1267.9,-100.474 1269.4,-85.9"/>
<polygon fill="midnightblue" stroke="midnightblue" points="1272.91,-85.742 1270.06,-75.537 1265.93,-85.2904 1272.91,-85.742"/>
</g>
<!-- Node16&#45;&gt;Node13 -->
<g id="edge40" class="edge"><title>Node16&#45;&gt;Node13</title>
<path fill="none" stroke="midnightblue" d="M835.183,-231.796C902.822,-227.931 1112.3,-214.507 1284,-188 1285.24,-187.808 1286.51,-187.602 1287.78,-187.385"/>
<polygon fill="midnightblue" stroke="midnightblue" points="1288.43,-190.825 1297.62,-185.548 1287.14,-183.943 1288.43,-190.825"/>
</g>
<!-- Node17 -->
<g id="node17" class="node"><title>Node17</title>
<g id="a_node17"><a xlink:href="defines_8h.html" target="_top" xlink:title="defines.h">
<polygon fill="none" stroke="black" points="121,-56.5 121,-75.5 177,-75.5 177,-56.5 121,-56.5"/>
<text text-anchor="middle" x="149" y="-63.5" font-family="Helvetica,sans-Serif" font-size="10.00">defines.h</text>
</a>
</g>
</g>
<!-- Node16&#45;&gt;Node17 -->
<g id="edge21" class="edge"><title>Node16&#45;&gt;Node17</title>
<path fill="none" stroke="midnightblue" d="M790.955,-231.558C676.98,-223.879 158.128,-186.099 114,-132 101.56,-116.749 116.638,-96.4059 130.697,-82.5677"/>
<polygon fill="midnightblue" stroke="midnightblue" points="133.247,-84.9771 138.221,-75.6227 128.499,-79.8333 133.247,-84.9771"/>
</g>
<!-- Node18 -->
<g id="node18" class="node"><title>Node18</title>
<g id="a_node18"><a xlink:href="_files_8h.html" target="_top" xlink:title="Files.h">
<polygon fill="none" stroke="black" points="643,-168.5 643,-187.5 689,-187.5 689,-168.5 643,-168.5"/>
<text text-anchor="middle" x="666" y="-175.5" font-family="Helvetica,sans-Serif" font-size="10.00">Files.h</text>
</a>
</g>
</g>
<!-- Node16&#45;&gt;Node18 -->
<g id="edge22" class="edge"><title>Node16&#45;&gt;Node18</title>
<path fill="none" stroke="midnightblue" d="M790.993,-224.916C766.49,-215.915 726.643,-201.277 698.537,-190.952"/>
<polygon fill="midnightblue" stroke="midnightblue" points="699.723,-187.659 689.129,-187.496 697.309,-194.23 699.723,-187.659"/>
</g>
<!-- Node27 -->
<g id="node27" class="node"><title>Node27</title>
<g id="a_node27"><a xlink:href="_writer_8h.html" target="_top" xlink:title="Writer.h">
<polygon fill="none" stroke="black" points="123.5,-112.5 123.5,-131.5 174.5,-131.5 174.5,-112.5 123.5,-112.5"/>
<text text-anchor="middle" x="149" y="-119.5" font-family="Helvetica,sans-Serif" font-size="10.00">Writer.h</text>
</a>
</g>
</g>
<!-- Node16&#45;&gt;Node27 -->
<g id="edge39" class="edge"><title>Node16&#45;&gt;Node27</title>
<path fill="none" stroke="midnightblue" d="M790.86,-230.2C710.645,-219.898 427.651,-182.183 184.632,-131.957"/>
<polygon fill="midnightblue" stroke="midnightblue" points="185.053,-128.469 174.55,-129.861 183.629,-135.323 185.053,-128.469"/>
</g>
<!-- Node18&#45;&gt;Node5 -->
<g id="edge30" class="edge"><title>Node18&#45;&gt;Node5</title>
<path fill="none" stroke="midnightblue" d="M689.214,-173.328C732.087,-166.391 826.482,-150.396 905,-132 906.475,-131.654 907.984,-131.285 909.504,-130.901"/>
<polygon fill="midnightblue" stroke="midnightblue" points="910.713,-134.2 919.467,-128.231 908.902,-127.439 910.713,-134.2"/>
</g>
<!-- Node18&#45;&gt;Node8 -->
<g id="edge33" class="edge"><title>Node18&#45;&gt;Node8</title>
<path fill="none" stroke="midnightblue" d="M689.1,-176.149C728.821,-173.805 811.611,-165.009 872,-132 893.57,-120.21 912.715,-99.076 924.544,-84.1107"/>
<polygon fill="midnightblue" stroke="midnightblue" points="927.652,-85.8065 930.92,-75.7285 922.08,-81.5685 927.652,-85.8065"/>
</g>
<!-- Node18&#45;&gt;Node10 -->
<g id="edge38" class="edge"><title>Node18&#45;&gt;Node10</title>
<path fill="none" stroke="midnightblue" d="M689.401,-175.037C758.81,-169.165 969.569,-150.959 1144,-132 1156.27,-130.666 1169.69,-129.056 1181.63,-127.569"/>
<polygon fill="midnightblue" stroke="midnightblue" points="1182.2,-131.025 1191.68,-126.303 1181.32,-124.08 1182.2,-131.025"/>
</g>
<!-- Node18&#45;&gt;Node17 -->
<g id="edge31" class="edge"><title>Node18&#45;&gt;Node17</title>
<path fill="none" stroke="midnightblue" d="M662.748,-168.436C656.755,-153.976 642.489,-125.029 620,-112 546.707,-69.5386 285.825,-66.2865 187.167,-66.6267"/>
<polygon fill="midnightblue" stroke="midnightblue" points="187.028,-63.1272 177.045,-66.6764 187.062,-70.1271 187.028,-63.1272"/>
</g>
<!-- Node19 -->
<g id="node19" class="node"><title>Node19</title>
<polygon fill="none" stroke="#bfbfbf" points="505,-112.5 505,-131.5 611,-131.5 611,-112.5 505,-112.5"/>
<text text-anchor="middle" x="558" y="-119.5" font-family="Helvetica,sans-Serif" font-size="10.00">event2/bufferevent.h</text>
</g>
<!-- Node18&#45;&gt;Node19 -->
<g id="edge23" class="edge"><title>Node18&#45;&gt;Node19</title>
<path fill="none" stroke="midnightblue" d="M648.648,-168.324C631.328,-159.664 604.485,-146.242 584.498,-136.249"/>
<polygon fill="midnightblue" stroke="midnightblue" points="585.819,-132.996 575.309,-131.655 582.688,-139.257 585.819,-132.996"/>
</g>
<!-- Node20 -->
<g id="node20" class="node"><title>Node20</title>
<polygon fill="none" stroke="#bfbfbf" points="667.5,-112.5 667.5,-131.5 718.5,-131.5 718.5,-112.5 667.5,-112.5"/>
<text text-anchor="middle" x="693" y="-119.5" font-family="Helvetica,sans-Serif" font-size="10.00">unistd.h</text>
</g>
<!-- Node18&#45;&gt;Node20 -->
<g id="edge24" class="edge"><title>Node18&#45;&gt;Node20</title>
<path fill="none" stroke="midnightblue" d="M670.459,-168.083C674.154,-160.691 679.523,-149.953 684.094,-140.811"/>
<polygon fill="midnightblue" stroke="midnightblue" points="687.283,-142.261 688.624,-131.751 681.022,-139.13 687.283,-142.261"/>
</g>
<!-- Node21 -->
<g id="node21" class="node"><title>Node21</title>
<polygon fill="none" stroke="#bfbfbf" points="737,-112.5 737,-131.5 785,-131.5 785,-112.5 737,-112.5"/>
<text text-anchor="middle" x="761" y="-119.5" font-family="Helvetica,sans-Serif" font-size="10.00">stdlib.h</text>
</g>
<!-- Node18&#45;&gt;Node21 -->
<g id="edge25" class="edge"><title>Node18&#45;&gt;Node21</title>
<path fill="none" stroke="midnightblue" d="M681.263,-168.324C696.221,-159.822 719.255,-146.729 736.727,-136.797"/>
<polygon fill="midnightblue" stroke="midnightblue" points="738.81,-139.639 745.774,-131.655 735.351,-133.553 738.81,-139.639"/>
</g>
<!-- Node22 -->
<g id="node22" class="node"><title>Node22</title>
<polygon fill="none" stroke="#bfbfbf" points="803,-112.5 803,-131.5 863,-131.5 863,-112.5 803,-112.5"/>
<text text-anchor="middle" x="833" y="-119.5" font-family="Helvetica,sans-Serif" font-size="10.00">sys/stat.h</text>
</g>
<!-- Node18&#45;&gt;Node22 -->
<g id="edge26" class="edge"><title>Node18&#45;&gt;Node22</title>
<path fill="none" stroke="midnightblue" d="M689.221,-169.492C717.161,-160.457 764.381,-145.188 797.044,-134.626"/>
<polygon fill="midnightblue" stroke="midnightblue" points="798.238,-137.919 806.677,-131.512 796.085,-131.258 798.238,-137.919"/>
</g>
<!-- Node23 -->
<g id="node23" class="node"><title>Node23</title>
<polygon fill="none" stroke="#bfbfbf" points="193,-112.5 193,-131.5 255,-131.5 255,-112.5 193,-112.5"/>
<text text-anchor="middle" x="224" y="-119.5" font-family="Helvetica,sans-Serif" font-size="10.00">sys/fcntl.h</text>
</g>
<!-- Node18&#45;&gt;Node23 -->
<g id="edge27" class="edge"><title>Node18&#45;&gt;Node23</title>
<path fill="none" stroke="midnightblue" d="M642.764,-175.297C582.266,-170.675 414.771,-156.668 265.628,-132.112"/>
<polygon fill="midnightblue" stroke="midnightblue" points="265.818,-128.595 255.379,-130.402 264.667,-135.5 265.818,-128.595"/>
</g>
<!-- Node24 -->
<g id="node24" class="node"><title>Node24</title>
<polygon fill="none" stroke="#bfbfbf" points="273,-112.5 273,-131.5 343,-131.5 343,-112.5 273,-112.5"/>
<text text-anchor="middle" x="308" y="-119.5" font-family="Helvetica,sans-Serif" font-size="10.00">sys/inotify.h</text>
</g>
<!-- Node18&#45;&gt;Node24 -->
<g id="edge28" class="edge"><title>Node18&#45;&gt;Node24</title>
<path fill="none" stroke="midnightblue" d="M642.684,-174.14C591.952,-167.816 467.558,-151.754 353.017,-132.089"/>
<polygon fill="midnightblue" stroke="midnightblue" points="353.479,-128.617 343.029,-130.36 352.286,-135.514 353.479,-128.617"/>
</g>
<!-- Node25 -->
<g id="node25" class="node"><title>Node25</title>
<polygon fill="none" stroke="#bfbfbf" points="361,-112.5 361,-131.5 405,-131.5 405,-112.5 361,-112.5"/>
<text text-anchor="middle" x="383" y="-119.5" font-family="Helvetica,sans-Serif" font-size="10.00">vector</text>
</g>
<!-- Node18&#45;&gt;Node25 -->
<g id="edge29" class="edge"><title>Node18&#45;&gt;Node25</title>
<path fill="none" stroke="midnightblue" d="M642.901,-173.713C599.905,-167.416 504.541,-152.614 415.035,-132.044"/>
<polygon fill="midnightblue" stroke="midnightblue" points="415.81,-128.631 405.277,-129.773 414.223,-135.449 415.81,-128.631"/>
</g>
<!-- Node26 -->
<g id="node26" class="node"><title>Node26</title>
<g id="a_node26"><a xlink:href="_closable_8h.html" target="_top" xlink:title="Closable.h">
<polygon fill="none" stroke="black" points="423.5,-112.5 423.5,-131.5 486.5,-131.5 486.5,-112.5 423.5,-112.5"/>
<text text-anchor="middle" x="455" y="-119.5" font-family="Helvetica,sans-Serif" font-size="10.00">Closable.h</text>
</a>
</g>
</g>
<!-- Node18&#45;&gt;Node26 -->
<g id="edge32" class="edge"><title>Node18&#45;&gt;Node26</title>
<path fill="none" stroke="midnightblue" d="M642.613,-171.015C607.375,-161.996 540.15,-144.792 496.473,-133.614"/>
<polygon fill="midnightblue" stroke="midnightblue" points="497.276,-130.207 486.721,-131.118 495.541,-136.988 497.276,-130.207"/>
</g>
<!-- Node18&#45;&gt;Node27 -->
<g id="edge34" class="edge"><title>Node18&#45;&gt;Node27</title>
<path fill="none" stroke="midnightblue" d="M642.751,-176.137C574.123,-173.316 366.396,-162.809 184.524,-131.792"/>
<polygon fill="midnightblue" stroke="midnightblue" points="184.963,-128.316 174.513,-130.059 183.769,-135.213 184.963,-128.316"/>
</g>
<!-- Node27&#45;&gt;Node3 -->
<g id="edge37" class="edge"><title>Node27&#45;&gt;Node3</title>
<path fill="none" stroke="midnightblue" d="M134.54,-112.324C120.5,-103.9 98.9515,-90.9709 82.4569,-81.0741"/>
<polygon fill="midnightblue" stroke="midnightblue" points="83.7999,-77.7983 73.4242,-75.6545 80.1984,-83.8007 83.7999,-77.7983"/>
</g>
<!-- Node27&#45;&gt;Node8 -->
<g id="edge36" class="edge"><title>Node27&#45;&gt;Node8</title>
<path fill="none" stroke="midnightblue" d="M174.878,-113.755C177.935,-113.075 181.025,-112.467 184,-112 457.895,-69.0094 793.735,-66.3479 901.764,-66.7142"/>
<polygon fill="midnightblue" stroke="midnightblue" points="901.772,-70.2141 911.787,-66.7594 901.803,-63.2142 901.772,-70.2141"/>
</g>
<!-- Node27&#45;&gt;Node17 -->
<g id="edge35" class="edge"><title>Node27&#45;&gt;Node17</title>
<path fill="none" stroke="midnightblue" d="M149,-112.083C149,-105.006 149,-94.8611 149,-85.9865"/>
<polygon fill="midnightblue" stroke="midnightblue" points="152.5,-85.751 149,-75.7511 145.5,-85.7511 152.5,-85.751"/>
</g>
</g>
</svg>
