<?xml version="1.0" encoding="UTF-8" standalone="no"?>
<!DOCTYPE svg PUBLIC "-//W3C//DTD SVG 1.1//EN"
 "http://www.w3.org/Graphics/SVG/1.1/DTD/svg11.dtd">
<!-- Generated by graphviz version 2.34.0 (20140110.0949)
 -->
<!-- Title: include/JobThread.h Pages: 1 -->
<svg width="1485pt" height="308pt"
 viewBox="0.00 0.00 1485.00 308.00" xmlns="http://www.w3.org/2000/svg" xmlns:xlink="http://www.w3.org/1999/xlink">
<g id="graph0" class="graph" transform="scale(1 1) rotate(0) translate(4 304)">
<title>include/JobThread.h</title>
<!-- Node1 -->
<g id="node1" class="node"><title>Node1</title>
<polygon fill="#bfbfbf" stroke="black" points="341,-280.5 341,-299.5 445,-299.5 445,-280.5 341,-280.5"/>
<text text-anchor="middle" x="393" y="-287.5" font-family="Helvetica,sans-Serif" font-size="10.00">include/JobThread.h</text>
</g>
<!-- Node2 -->
<g id="node2" class="node"><title>Node2</title>
<polygon fill="none" stroke="#bfbfbf" points="297.5,-224.5 297.5,-243.5 326.5,-243.5 326.5,-224.5 297.5,-224.5"/>
<text text-anchor="middle" x="312" y="-231.5" font-family="Helvetica,sans-Serif" font-size="10.00">list</text>
</g>
<!-- Node1&#45;&gt;Node2 -->
<g id="edge1" class="edge"><title>Node1&#45;&gt;Node2</title>
<path fill="none" stroke="midnightblue" d="M379.986,-280.324C367.468,-271.979 348.318,-259.212 333.529,-249.352"/>
<polygon fill="midnightblue" stroke="midnightblue" points="335.244,-246.289 324.982,-243.655 331.361,-252.114 335.244,-246.289"/>
</g>
<!-- Node3 -->
<g id="node3" class="node"><title>Node3</title>
<g id="a_node3"><a xlink:href="_should_delete_8h.html" target="_top" xlink:title="ShouldDelete.h">
<polygon fill="none" stroke="black" points="1394.5,-56.5 1394.5,-75.5 1477.5,-75.5 1477.5,-56.5 1394.5,-56.5"/>
<text text-anchor="middle" x="1436" y="-63.5" font-family="Helvetica,sans-Serif" font-size="10.00">ShouldDelete.h</text>
</a>
</g>
</g>
<!-- Node1&#45;&gt;Node3 -->
<g id="edge2" class="edge"><title>Node1&#45;&gt;Node3</title>
<path fill="none" stroke="midnightblue" d="M445.409,-286.332C577.942,-278.795 936.652,-253.476 1228,-188 1304.79,-170.743 1334.33,-180.903 1396,-132 1411.37,-119.81 1422.34,-99.9776 1428.86,-85.4205"/>
<polygon fill="midnightblue" stroke="midnightblue" points="1432.2,-86.5144 1432.82,-75.9378 1425.74,-83.8174 1432.2,-86.5144"/>
</g>
<!-- Node4 -->
<g id="node4" class="node"><title>Node4</title>
<g id="a_node4"><a xlink:href="_thread_8h.html" target="_top" xlink:title="Thread.h">
<polygon fill="none" stroke="black" points="230.5,-168.5 230.5,-187.5 285.5,-187.5 285.5,-168.5 230.5,-168.5"/>
<text text-anchor="middle" x="258" y="-175.5" font-family="Helvetica,sans-Serif" font-size="10.00">Thread.h</text>
</a>
</g>
</g>
<!-- Node1&#45;&gt;Node4 -->
<g id="edge3" class="edge"><title>Node1&#45;&gt;Node4</title>
<path fill="none" stroke="midnightblue" d="M386.604,-280.215C376.633,-266.928 356.307,-241.427 335,-224 319.715,-211.498 300.55,-200.285 285.164,-192.179"/>
<polygon fill="midnightblue" stroke="midnightblue" points="286.636,-189 276.14,-187.549 283.44,-195.228 286.636,-189"/>
</g>
<!-- Node13 -->
<g id="node13" class="node"><title>Node13</title>
<g id="a_node13"><a xlink:href="_module_8h.html" target="_top" xlink:title="Module.h">
<polygon fill="none" stroke="black" points="362,-168.5 362,-187.5 418,-187.5 418,-168.5 362,-168.5"/>
<text text-anchor="middle" x="390" y="-175.5" font-family="Helvetica,sans-Serif" font-size="10.00">Module.h</text>
</a>
</g>
</g>
<!-- Node1&#45;&gt;Node13 -->
<g id="edge12" class="edge"><title>Node1&#45;&gt;Node13</title>
<path fill="none" stroke="midnightblue" d="M392.765,-280.368C392.28,-262.617 391.164,-221.666 390.507,-197.597"/>
<polygon fill="midnightblue" stroke="midnightblue" points="394.006,-197.492 390.234,-187.591 387.008,-197.683 394.006,-197.492"/>
</g>
<!-- Node16 -->
<g id="node16" class="node"><title>Node16</title>
<g id="a_node16"><a xlink:href="_pipe_8h.html" target="_top" xlink:title="Pipe.h">
<polygon fill="none" stroke="black" points="452,-224.5 452,-243.5 496,-243.5 496,-224.5 452,-224.5"/>
<text text-anchor="middle" x="474" y="-231.5" font-family="Helvetica,sans-Serif" font-size="10.00">Pipe.h</text>
</a>
</g>
</g>
<!-- Node1&#45;&gt;Node16 -->
<g id="edge19" class="edge"><title>Node1&#45;&gt;Node16</title>
<path fill="none" stroke="midnightblue" d="M406.014,-280.324C418.532,-271.979 437.682,-259.212 452.471,-249.352"/>
<polygon fill="midnightblue" stroke="midnightblue" points="454.639,-252.114 461.018,-243.655 450.756,-246.289 454.639,-252.114"/>
</g>
<!-- Node5 -->
<g id="node5" class="node"><title>Node5</title>
<polygon fill="none" stroke="#bfbfbf" points="502.5,-112.5 502.5,-131.5 537.5,-131.5 537.5,-112.5 502.5,-112.5"/>
<text text-anchor="middle" x="520" y="-119.5" font-family="Helvetica,sans-Serif" font-size="10.00">map</text>
</g>
<!-- Node4&#45;&gt;Node5 -->
<g id="edge4" class="edge"><title>Node4&#45;&gt;Node5</title>
<path fill="none" stroke="midnightblue" d="M285.543,-171.323C335.833,-160.958 441.97,-139.083 492.343,-128.7"/>
<polygon fill="midnightblue" stroke="midnightblue" points="493.118,-132.114 502.206,-126.668 491.705,-125.258 493.118,-132.114"/>
</g>
<!-- Node6 -->
<g id="node6" class="node"><title>Node6</title>
<polygon fill="none" stroke="#bfbfbf" points="74.5,-112.5 74.5,-131.5 123.5,-131.5 123.5,-112.5 74.5,-112.5"/>
<text text-anchor="middle" x="99" y="-119.5" font-family="Helvetica,sans-Serif" font-size="10.00">stdint.h</text>
</g>
<!-- Node4&#45;&gt;Node6 -->
<g id="edge5" class="edge"><title>Node4&#45;&gt;Node6</title>
<path fill="none" stroke="midnightblue" d="M232.806,-168.444C205.9,-159.306 163.097,-144.769 133.168,-134.604"/>
<polygon fill="midnightblue" stroke="midnightblue" points="134.148,-131.241 123.554,-131.339 131.897,-137.869 134.148,-131.241"/>
</g>
<!-- Node7 -->
<g id="node7" class="node"><title>Node7</title>
<polygon fill="none" stroke="#bfbfbf" points="-0.5,-112.5 -0.5,-131.5 56.5,-131.5 56.5,-112.5 -0.5,-112.5"/>
<text text-anchor="middle" x="28" y="-119.5" font-family="Helvetica,sans-Serif" font-size="10.00">pthread.h</text>
</g>
<!-- Node4&#45;&gt;Node7 -->
<g id="edge6" class="edge"><title>Node4&#45;&gt;Node7</title>
<path fill="none" stroke="midnightblue" d="M230.494,-170.674C194.868,-162.461 130.582,-147.577 66.5344,-132.351"/>
<polygon fill="midnightblue" stroke="midnightblue" points="67.2154,-128.915 56.6767,-130.004 65.5943,-135.725 67.2154,-128.915"/>
</g>
<!-- Node8 -->
<g id="node8" class="node"><title>Node8</title>
<g id="a_node8"><a xlink:href="_string_8h.html" target="_top" xlink:title="String.h">
<polygon fill="none" stroke="black" points="560,-56.5 560,-75.5 610,-75.5 610,-56.5 560,-56.5"/>
<text text-anchor="middle" x="585" y="-63.5" font-family="Helvetica,sans-Serif" font-size="10.00">String.h</text>
</a>
</g>
</g>
<!-- Node4&#45;&gt;Node8 -->
<g id="edge7" class="edge"><title>Node4&#45;&gt;Node8</title>
<path fill="none" stroke="midnightblue" d="M262.984,-168.124C271.571,-153.74 290.609,-125.58 315,-112 354.724,-89.8835 485.909,-75.6883 549.637,-69.9289"/>
<polygon fill="midnightblue" stroke="midnightblue" points="549.973,-73.4129 559.625,-69.0455 549.356,-66.4402 549.973,-73.4129"/>
</g>
<!-- Node10 -->
<g id="node10" class="node"><title>Node10</title>
<g id="a_node10"><a xlink:href="_event_8h.html" target="_top" xlink:title="Event.h">
<polygon fill="none" stroke="black" points="180,-112.5 180,-131.5 230,-131.5 230,-112.5 180,-112.5"/>
<text text-anchor="middle" x="205" y="-119.5" font-family="Helvetica,sans-Serif" font-size="10.00">Event.h</text>
</a>
</g>
</g>
<!-- Node4&#45;&gt;Node10 -->
<g id="edge9" class="edge"><title>Node4&#45;&gt;Node10</title>
<path fill="none" stroke="midnightblue" d="M249.248,-168.083C241.53,-160.22 230.095,-148.569 220.783,-139.081"/>
<polygon fill="midnightblue" stroke="midnightblue" points="223.092,-136.436 213.589,-131.751 218.096,-141.34 223.092,-136.436"/>
</g>
<!-- Node9 -->
<g id="node9" class="node"><title>Node9</title>
<polygon fill="none" stroke="#bfbfbf" points="564.5,-0.5 564.5,-19.5 605.5,-19.5 605.5,-0.5 564.5,-0.5"/>
<text text-anchor="middle" x="585" y="-7.5" font-family="Helvetica,sans-Serif" font-size="10.00">string</text>
</g>
<!-- Node8&#45;&gt;Node9 -->
<g id="edge8" class="edge"><title>Node8&#45;&gt;Node9</title>
<path fill="none" stroke="midnightblue" d="M585,-56.083C585,-49.0059 585,-38.8611 585,-29.9865"/>
<polygon fill="midnightblue" stroke="midnightblue" points="588.5,-29.751 585,-19.7511 581.5,-29.7511 588.5,-29.751"/>
</g>
<!-- Node11 -->
<g id="node11" class="node"><title>Node11</title>
<polygon fill="none" stroke="#bfbfbf" points="140.5,-56.5 140.5,-75.5 213.5,-75.5 213.5,-56.5 140.5,-56.5"/>
<text text-anchor="middle" x="177" y="-63.5" font-family="Helvetica,sans-Serif" font-size="10.00">event2/dns.h</text>
</g>
<!-- Node10&#45;&gt;Node11 -->
<g id="edge10" class="edge"><title>Node10&#45;&gt;Node11</title>
<path fill="none" stroke="midnightblue" d="M200.376,-112.083C196.544,-104.691 190.976,-93.9533 186.235,-84.8111"/>
<polygon fill="midnightblue" stroke="midnightblue" points="189.248,-83.0175 181.538,-75.7511 183.034,-86.2398 189.248,-83.0175"/>
</g>
<!-- Node12 -->
<g id="node12" class="node"><title>Node12</title>
<polygon fill="none" stroke="#bfbfbf" points="255.5,-56.5 255.5,-75.5 336.5,-75.5 336.5,-56.5 255.5,-56.5"/>
<text text-anchor="middle" x="296" y="-63.5" font-family="Helvetica,sans-Serif" font-size="10.00">event2/event.h</text>
</g>
<!-- Node10&#45;&gt;Node12 -->
<g id="edge11" class="edge"><title>Node10&#45;&gt;Node12</title>
<path fill="none" stroke="midnightblue" d="M219.621,-112.324C233.949,-103.822 256.013,-90.7288 272.749,-80.7975"/>
<polygon fill="midnightblue" stroke="midnightblue" points="274.602,-83.7677 281.416,-75.6545 271.03,-77.7478 274.602,-83.7677"/>
</g>
<!-- Node13&#45;&gt;Node8 -->
<g id="edge17" class="edge"><title>Node13&#45;&gt;Node8</title>
<path fill="none" stroke="midnightblue" d="M418.127,-175.067C451.687,-171.472 508.016,-161.213 546,-132 561.613,-119.992 572.301,-99.8066 578.485,-85.1103"/>
<polygon fill="midnightblue" stroke="midnightblue" points="581.831,-86.1632 582.199,-75.5748 575.309,-83.623 581.831,-86.1632"/>
</g>
<!-- Node13&#45;&gt;Node10 -->
<g id="edge18" class="edge"><title>Node13&#45;&gt;Node10</title>
<path fill="none" stroke="midnightblue" d="M361.902,-168.799C329.243,-159.265 275.319,-143.525 239.975,-133.209"/>
<polygon fill="midnightblue" stroke="midnightblue" points="240.67,-129.766 230.09,-130.323 238.708,-136.485 240.67,-129.766"/>
</g>
<!-- Node13&#45;&gt;Node11 -->
<g id="edge13" class="edge"><title>Node13&#45;&gt;Node11</title>
<path fill="none" stroke="midnightblue" d="M361.961,-173.232C305.631,-165.382 183.05,-146.778 171,-132 160.499,-119.122 163.995,-99.6728 168.9,-85.4044"/>
<polygon fill="midnightblue" stroke="midnightblue" points="172.314,-86.2849 172.716,-75.6977 165.8,-83.7235 172.314,-86.2849"/>
</g>
<!-- Node13&#45;&gt;Node12 -->
<g id="edge14" class="edge"><title>Node13&#45;&gt;Node12</title>
<path fill="none" stroke="midnightblue" d="M366.817,-168.484C350.116,-161.216 328.268,-149.189 315,-132 304.683,-118.635 299.962,-99.8095 297.805,-85.8562"/>
<polygon fill="midnightblue" stroke="midnightblue" points="301.275,-85.3991 296.567,-75.9078 294.329,-86.2634 301.275,-85.3991"/>
</g>
<!-- Node14 -->
<g id="node14" class="node"><title>Node14</title>
<polygon fill="none" stroke="#bfbfbf" points="324.5,-112.5 324.5,-131.5 397.5,-131.5 397.5,-112.5 324.5,-112.5"/>
<text text-anchor="middle" x="361" y="-119.5" font-family="Helvetica,sans-Serif" font-size="10.00">libconfig.h++</text>
</g>
<!-- Node13&#45;&gt;Node14 -->
<g id="edge15" class="edge"><title>Node13&#45;&gt;Node14</title>
<path fill="none" stroke="midnightblue" d="M385.211,-168.083C381.242,-160.691 375.475,-149.953 370.565,-140.811"/>
<polygon fill="midnightblue" stroke="midnightblue" points="373.514,-138.905 365.7,-131.751 367.347,-142.217 373.514,-138.905"/>
</g>
<!-- Node15 -->
<g id="node15" class="node"><title>Node15</title>
<polygon fill="none" stroke="#bfbfbf" points="416,-112.5 416,-131.5 446,-131.5 446,-112.5 416,-112.5"/>
<text text-anchor="middle" x="431" y="-119.5" font-family="Helvetica,sans-Serif" font-size="10.00">set</text>
</g>
<!-- Node13&#45;&gt;Node15 -->
<g id="edge16" class="edge"><title>Node13&#45;&gt;Node15</title>
<path fill="none" stroke="midnightblue" d="M396.77,-168.083C402.562,-160.455 411.058,-149.264 418.138,-139.941"/>
<polygon fill="midnightblue" stroke="midnightblue" points="421.096,-141.832 424.356,-131.751 415.521,-137.599 421.096,-141.832"/>
</g>
<!-- Node16&#45;&gt;Node4 -->
<g id="edge40" class="edge"><title>Node16&#45;&gt;Node4</title>
<path fill="none" stroke="midnightblue" d="M451.698,-227.424C414.798,-218.2 340.649,-199.662 295.558,-188.389"/>
<polygon fill="midnightblue" stroke="midnightblue" points="296.131,-184.925 285.581,-185.895 294.434,-191.716 296.131,-184.925"/>
</g>
<!-- Node16&#45;&gt;Node12 -->
<g id="edge20" class="edge"><title>Node16&#45;&gt;Node12</title>
<path fill="none" stroke="midnightblue" d="M475.482,-224.39C478.706,-202.587 483.919,-144.618 455,-112 428.064,-81.6191 382.314,-71.0764 346.785,-67.7225"/>
<polygon fill="midnightblue" stroke="midnightblue" points="346.833,-64.2157 336.591,-66.9273 346.288,-71.1945 346.833,-64.2157"/>
</g>
<!-- Node16&#45;&gt;Node13 -->
<g id="edge39" class="edge"><title>Node16&#45;&gt;Node13</title>
<path fill="none" stroke="midnightblue" d="M460.504,-224.324C447.4,-215.9 427.288,-202.971 411.893,-193.074"/>
<polygon fill="midnightblue" stroke="midnightblue" points="413.767,-190.118 403.463,-187.655 409.982,-196.006 413.767,-190.118"/>
</g>
<!-- Node17 -->
<g id="node17" class="node"><title>Node17</title>
<g id="a_node17"><a xlink:href="defines_8h.html" target="_top" xlink:title="defines.h">
<polygon fill="none" stroke="black" points="1318,-56.5 1318,-75.5 1374,-75.5 1374,-56.5 1318,-56.5"/>
<text text-anchor="middle" x="1346" y="-63.5" font-family="Helvetica,sans-Serif" font-size="10.00">defines.h</text>
</a>
</g>
</g>
<!-- Node16&#45;&gt;Node17 -->
<g id="edge21" class="edge"><title>Node16&#45;&gt;Node17</title>
<path fill="none" stroke="midnightblue" d="M496.113,-232.311C629.303,-227.934 1320.98,-201.916 1380,-132 1392.62,-117.056 1377.86,-96.6519 1364.03,-82.7154"/>
<polygon fill="midnightblue" stroke="midnightblue" points="1366.3,-80.04 1356.63,-75.714 1361.49,-85.127 1366.3,-80.04"/>
</g>
<!-- Node18 -->
<g id="node18" class="node"><title>Node18</title>
<g id="a_node18"><a xlink:href="_files_8h.html" target="_top" xlink:title="Files.h">
<polygon fill="none" stroke="black" points="894,-168.5 894,-187.5 940,-187.5 940,-168.5 894,-168.5"/>
<text text-anchor="middle" x="917" y="-175.5" font-family="Helvetica,sans-Serif" font-size="10.00">Files.h</text>
</a>
</g>
</g>
<!-- Node16&#45;&gt;Node18 -->
<g id="edge22" class="edge"><title>Node16&#45;&gt;Node18</title>
<path fill="none" stroke="midnightblue" d="M496.272,-230.285C568.697,-221.457 797.809,-193.529 883.885,-183.037"/>
<polygon fill="midnightblue" stroke="midnightblue" points="884.384,-186.502 893.887,-181.817 883.537,-179.553 884.384,-186.502"/>
</g>
<!-- Node27 -->
<g id="node27" class="node"><title>Node27</title>
<g id="a_node27"><a xlink:href="_writer_8h.html" target="_top" xlink:title="Writer.h">
<polygon fill="none" stroke="black" points="1320.5,-112.5 1320.5,-131.5 1371.5,-131.5 1371.5,-112.5 1320.5,-112.5"/>
<text text-anchor="middle" x="1346" y="-119.5" font-family="Helvetica,sans-Serif" font-size="10.00">Writer.h</text>
</a>
</g>
</g>
<!-- Node16&#45;&gt;Node27 -->
<g id="edge38" class="edge"><title>Node16&#45;&gt;Node27</title>
<path fill="none" stroke="midnightblue" d="M496.201,-231.672C592.455,-225.633 983.15,-198.242 1310.31,-131.951"/>
<polygon fill="midnightblue" stroke="midnightblue" points="1311.36,-135.309 1320.45,-129.878 1309.95,-128.45 1311.36,-135.309"/>
</g>
<!-- Node18&#45;&gt;Node5 -->
<g id="edge30" class="edge"><title>Node18&#45;&gt;Node5</title>
<path fill="none" stroke="midnightblue" d="M893.94,-173.863C825.169,-164.509 621.694,-136.832 547.482,-126.738"/>
<polygon fill="midnightblue" stroke="midnightblue" points="547.883,-123.26 537.502,-125.381 546.939,-130.197 547.883,-123.26"/>
</g>
<!-- Node18&#45;&gt;Node8 -->
<g id="edge33" class="edge"><title>Node18&#45;&gt;Node8</title>
<path fill="none" stroke="midnightblue" d="M893.668,-175.986C832.146,-172.92 667.204,-162.036 623,-132 606.818,-121.004 596.568,-100.648 590.846,-85.6343"/>
<polygon fill="midnightblue" stroke="midnightblue" points="594.039,-84.1605 587.459,-75.857 587.425,-86.4518 594.039,-84.1605"/>
</g>
<!-- Node18&#45;&gt;Node17 -->
<g id="edge31" class="edge"><title>Node18&#45;&gt;Node17</title>
<path fill="none" stroke="midnightblue" d="M940.092,-170.167C966.559,-162.085 1011.05,-147.726 1048,-132 1065.92,-124.372 1068.53,-118.182 1087,-112 1162.92,-86.5933 1256.4,-74.8763 1307.73,-70.0172"/>
<polygon fill="midnightblue" stroke="midnightblue" points="1308.08,-73.5001 1317.72,-69.1083 1307.45,-66.5289 1308.08,-73.5001"/>
</g>
<!-- Node19 -->
<g id="node19" class="node"><title>Node19</title>
<polygon fill="none" stroke="#bfbfbf" points="864,-112.5 864,-131.5 970,-131.5 970,-112.5 864,-112.5"/>
<text text-anchor="middle" x="917" y="-119.5" font-family="Helvetica,sans-Serif" font-size="10.00">event2/bufferevent.h</text>
</g>
<!-- Node18&#45;&gt;Node19 -->
<g id="edge23" class="edge"><title>Node18&#45;&gt;Node19</title>
<path fill="none" stroke="midnightblue" d="M917,-168.083C917,-161.006 917,-150.861 917,-141.986"/>
<polygon fill="midnightblue" stroke="midnightblue" points="920.5,-141.751 917,-131.751 913.5,-141.751 920.5,-141.751"/>
</g>
<!-- Node20 -->
<g id="node20" class="node"><title>Node20</title>
<polygon fill="none" stroke="#bfbfbf" points="988.5,-112.5 988.5,-131.5 1039.5,-131.5 1039.5,-112.5 988.5,-112.5"/>
<text text-anchor="middle" x="1014" y="-119.5" font-family="Helvetica,sans-Serif" font-size="10.00">unistd.h</text>
</g>
<!-- Node18&#45;&gt;Node20 -->
<g id="edge24" class="edge"><title>Node18&#45;&gt;Node20</title>
<path fill="none" stroke="midnightblue" d="M932.585,-168.324C947.999,-159.743 971.812,-146.486 989.71,-136.522"/>
<polygon fill="midnightblue" stroke="midnightblue" points="991.419,-139.577 998.454,-131.655 988.014,-133.461 991.419,-139.577"/>
</g>
<!-- Node21 -->
<g id="node21" class="node"><title>Node21</title>
<polygon fill="none" stroke="#bfbfbf" points="1096,-112.5 1096,-131.5 1144,-131.5 1144,-112.5 1096,-112.5"/>
<text text-anchor="middle" x="1120" y="-119.5" font-family="Helvetica,sans-Serif" font-size="10.00">stdlib.h</text>
</g>
<!-- Node18&#45;&gt;Node21 -->
<g id="edge25" class="edge"><title>Node18&#45;&gt;Node21</title>
<path fill="none" stroke="midnightblue" d="M940.287,-170.806C976.001,-161.305 1044.5,-143.084 1085.84,-132.087"/>
<polygon fill="midnightblue" stroke="midnightblue" points="1086.96,-135.41 1095.73,-129.457 1085.16,-128.645 1086.96,-135.41"/>
</g>
<!-- Node22 -->
<g id="node22" class="node"><title>Node22</title>
<polygon fill="none" stroke="#bfbfbf" points="1162,-112.5 1162,-131.5 1222,-131.5 1222,-112.5 1162,-112.5"/>
<text text-anchor="middle" x="1192" y="-119.5" font-family="Helvetica,sans-Serif" font-size="10.00">sys/stat.h</text>
</g>
<!-- Node18&#45;&gt;Node22 -->
<g id="edge26" class="edge"><title>Node18&#45;&gt;Node22</title>
<path fill="none" stroke="midnightblue" d="M940.173,-172.886C980.916,-165.588 1068.26,-149.653 1151.88,-132.175"/>
<polygon fill="midnightblue" stroke="midnightblue" points="1152.73,-135.573 1161.79,-130.092 1151.29,-128.723 1152.73,-135.573"/>
</g>
<!-- Node23 -->
<g id="node23" class="node"><title>Node23</title>
<polygon fill="none" stroke="#bfbfbf" points="1240,-112.5 1240,-131.5 1302,-131.5 1302,-112.5 1240,-112.5"/>
<text text-anchor="middle" x="1271" y="-119.5" font-family="Helvetica,sans-Serif" font-size="10.00">sys/fcntl.h</text>
</g>
<!-- Node18&#45;&gt;Node23 -->
<g id="edge27" class="edge"><title>Node18&#45;&gt;Node23</title>
<path fill="none" stroke="midnightblue" d="M940.343,-174.295C991.13,-168.274 1115.63,-152.778 1229.66,-132.128"/>
<polygon fill="midnightblue" stroke="midnightblue" points="1230.4,-135.552 1239.61,-130.31 1229.14,-128.666 1230.4,-135.552"/>
</g>
<!-- Node24 -->
<g id="node24" class="node"><title>Node24</title>
<polygon fill="none" stroke="#bfbfbf" points="632,-112.5 632,-131.5 702,-131.5 702,-112.5 632,-112.5"/>
<text text-anchor="middle" x="667" y="-119.5" font-family="Helvetica,sans-Serif" font-size="10.00">sys/inotify.h</text>
</g>
<!-- Node18&#45;&gt;Node24 -->
<g id="edge28" class="edge"><title>Node18&#45;&gt;Node24</title>
<path fill="none" stroke="midnightblue" d="M893.929,-172.017C852.707,-163.113 765.724,-144.324 712.227,-132.769"/>
<polygon fill="midnightblue" stroke="midnightblue" points="712.835,-129.32 702.322,-130.629 711.357,-136.162 712.835,-129.32"/>
</g>
<!-- Node25 -->
<g id="node25" class="node"><title>Node25</title>
<polygon fill="none" stroke="#bfbfbf" points="720,-112.5 720,-131.5 764,-131.5 764,-112.5 720,-112.5"/>
<text text-anchor="middle" x="742" y="-119.5" font-family="Helvetica,sans-Serif" font-size="10.00">vector</text>
</g>
<!-- Node18&#45;&gt;Node25 -->
<g id="edge29" class="edge"><title>Node18&#45;&gt;Node25</title>
<path fill="none" stroke="midnightblue" d="M893.761,-169.829C862.959,-160.324 808.477,-143.513 773.857,-132.83"/>
<polygon fill="midnightblue" stroke="midnightblue" points="774.815,-129.463 764.228,-129.859 772.751,-136.152 774.815,-129.463"/>
</g>
<!-- Node26 -->
<g id="node26" class="node"><title>Node26</title>
<g id="a_node26"><a xlink:href="_closable_8h.html" target="_top" xlink:title="Closable.h">
<polygon fill="none" stroke="black" points="782.5,-112.5 782.5,-131.5 845.5,-131.5 845.5,-112.5 782.5,-112.5"/>
<text text-anchor="middle" x="814" y="-119.5" font-family="Helvetica,sans-Serif" font-size="10.00">Closable.h</text>
</a>
</g>
</g>
<!-- Node18&#45;&gt;Node26 -->
<g id="edge32" class="edge"><title>Node18&#45;&gt;Node26</title>
<path fill="none" stroke="midnightblue" d="M900.451,-168.324C884.008,-159.703 858.565,-146.364 839.532,-136.386"/>
<polygon fill="midnightblue" stroke="midnightblue" points="840.989,-133.198 830.508,-131.655 837.739,-139.398 840.989,-133.198"/>
</g>
<!-- Node18&#45;&gt;Node27 -->
<g id="edge34" class="edge"><title>Node18&#45;&gt;Node27</title>
<path fill="none" stroke="midnightblue" d="M940.258,-175.47C1000.02,-171.3 1163.95,-158.367 1310.41,-131.847"/>
<polygon fill="midnightblue" stroke="midnightblue" points="1311.27,-135.247 1320.48,-129.997 1310.01,-128.362 1311.27,-135.247"/>
</g>
<!-- Node27&#45;&gt;Node3 -->
<g id="edge37" class="edge"><title>Node27&#45;&gt;Node3</title>
<path fill="none" stroke="midnightblue" d="M1360.46,-112.324C1374.5,-103.9 1396.05,-90.9709 1412.54,-81.0741"/>
<polygon fill="midnightblue" stroke="midnightblue" points="1414.8,-83.8007 1421.58,-75.6545 1411.2,-77.7983 1414.8,-83.8007"/>
</g>
<!-- Node27&#45;&gt;Node8 -->
<g id="edge36" class="edge"><title>Node27&#45;&gt;Node8</title>
<path fill="none" stroke="midnightblue" d="M1320.12,-113.762C1317.06,-113.081 1313.97,-112.47 1311,-112 1048.11,-70.4381 726.002,-66.8099 620.372,-66.8254"/>
<polygon fill="midnightblue" stroke="midnightblue" points="620.262,-63.3255 610.266,-66.8386 620.271,-70.3255 620.262,-63.3255"/>
</g>
<!-- Node27&#45;&gt;Node17 -->
<g id="edge35" class="edge"><title>Node27&#45;&gt;Node17</title>
<path fill="none" stroke="midnightblue" d="M1346,-112.083C1346,-105.006 1346,-94.8611 1346,-85.9865"/>
<polygon fill="midnightblue" stroke="midnightblue" points="1349.5,-85.751 1346,-75.7511 1342.5,-85.7511 1349.5,-85.751"/>
</g>
</g>
</svg>
