<?xml version="1.0" encoding="UTF-8" standalone="no"?>
<!DOCTYPE svg PUBLIC "-//W3C//DTD SVG 1.1//EN"
 "http://www.w3.org/Graphics/SVG/1.1/DTD/svg11.dtd">
<!-- Generated by graphviz version 2.34.0 (20140110.0949)
 -->
<!-- Title: include/JobThread.h Pages: 1 -->
<svg width="1435pt" height="308pt"
 viewBox="0.00 0.00 1435.00 308.00" xmlns="http://www.w3.org/2000/svg" xmlns:xlink="http://www.w3.org/1999/xlink">
<g id="graph0" class="graph" transform="scale(1 1) rotate(0) translate(4 304)">
<title>include/JobThread.h</title>
<!-- Node1 -->
<g id="node1" class="node"><title>Node1</title>
<polygon fill="#bfbfbf" stroke="black" points="142,-280.5 142,-299.5 246,-299.5 246,-280.5 142,-280.5"/>
<text text-anchor="middle" x="194" y="-287.5" font-family="Helvetica,sans-Serif" font-size="10.00">include/JobThread.h</text>
</g>
<!-- Node2 -->
<g id="node2" class="node"><title>Node2</title>
<polygon fill="none" stroke="#bfbfbf" points="-0.5,-224.5 -0.5,-243.5 28.5,-243.5 28.5,-224.5 -0.5,-224.5"/>
<text text-anchor="middle" x="14" y="-231.5" font-family="Helvetica,sans-Serif" font-size="10.00">list</text>
</g>
<!-- Node1&#45;&gt;Node2 -->
<g id="edge1" class="edge"><title>Node1&#45;&gt;Node2</title>
<path fill="none" stroke="midnightblue" d="M165.023,-280.47C134.603,-271.491 85.3966,-256.896 43,-244 41.55,-243.559 40.0599,-243.103 38.5571,-242.642"/>
<polygon fill="midnightblue" stroke="midnightblue" points="39.3307,-239.218 28.7431,-239.611 37.2646,-245.906 39.3307,-239.218"/>
</g>
<!-- Node3 -->
<g id="node3" class="node"><title>Node3</title>
<g id="a_node3"><a xlink:href="_should_delete_8h.html" target="_top" xlink:title="ShouldDelete.h">
<polygon fill="none" stroke="black" points="99.5,-56.5 99.5,-75.5 182.5,-75.5 182.5,-56.5 99.5,-56.5"/>
<text text-anchor="middle" x="141" y="-63.5" font-family="Helvetica,sans-Serif" font-size="10.00">ShouldDelete.h</text>
</a>
</g>
</g>
<!-- Node1&#45;&gt;Node3 -->
<g id="edge2" class="edge"><title>Node1&#45;&gt;Node3</title>
<path fill="none" stroke="midnightblue" d="M184.099,-280.365C159.881,-258.5 98.0299,-197.978 76,-132 73.1848,-123.569 71.8746,-119.874 76,-112 83.2787,-98.1082 97.0095,-87.6523 109.983,-80.3328"/>
<polygon fill="midnightblue" stroke="midnightblue" points="111.928,-83.2662 119.192,-75.553 108.704,-77.0532 111.928,-83.2662"/>
</g>
<!-- Node4 -->
<g id="node4" class="node"><title>Node4</title>
<g id="a_node4"><a xlink:href="_thread_8h.html" target="_top" xlink:title="Thread.h">
<polygon fill="none" stroke="black" points="166.5,-168.5 166.5,-187.5 221.5,-187.5 221.5,-168.5 166.5,-168.5"/>
<text text-anchor="middle" x="194" y="-175.5" font-family="Helvetica,sans-Serif" font-size="10.00">Thread.h</text>
</a>
</g>
</g>
<!-- Node1&#45;&gt;Node4 -->
<g id="edge3" class="edge"><title>Node1&#45;&gt;Node4</title>
<path fill="none" stroke="midnightblue" d="M194,-280.368C194,-262.617 194,-221.666 194,-197.597"/>
<polygon fill="midnightblue" stroke="midnightblue" points="197.5,-197.591 194,-187.591 190.5,-197.591 197.5,-197.591"/>
</g>
<!-- Node13 -->
<g id="node13" class="node"><title>Node13</title>
<g id="a_node13"><a xlink:href="_module_8h.html" target="_top" xlink:title="Module.h">
<polygon fill="none" stroke="black" points="1230,-168.5 1230,-187.5 1286,-187.5 1286,-168.5 1230,-168.5"/>
<text text-anchor="middle" x="1258" y="-175.5" font-family="Helvetica,sans-Serif" font-size="10.00">Module.h</text>
</a>
</g>
</g>
<!-- Node1&#45;&gt;Node13 -->
<g id="edge13" class="edge"><title>Node1&#45;&gt;Node13</title>
<path fill="none" stroke="midnightblue" d="M246.127,-286.05C397.014,-277.039 846.91,-246.838 1216,-188 1217.24,-187.802 1218.5,-187.591 1219.78,-187.369"/>
<polygon fill="midnightblue" stroke="midnightblue" points="1220.43,-190.807 1229.61,-185.51 1219.13,-183.929 1220.43,-190.807"/>
</g>
<!-- Node16 -->
<g id="node16" class="node"><title>Node16</title>
<g id="a_node16"><a xlink:href="_pipe_8h.html" target="_top" xlink:title="Pipe.h">
<polygon fill="none" stroke="black" points="632,-224.5 632,-243.5 676,-243.5 676,-224.5 632,-224.5"/>
<text text-anchor="middle" x="654" y="-231.5" font-family="Helvetica,sans-Serif" font-size="10.00">Pipe.h</text>
</a>
</g>
</g>
<!-- Node1&#45;&gt;Node16 -->
<g id="edge20" class="edge"><title>Node1&#45;&gt;Node16</title>
<path fill="none" stroke="midnightblue" d="M246.32,-282.858C342.128,-271.611 543.108,-248.018 621.608,-238.803"/>
<polygon fill="midnightblue" stroke="midnightblue" points="622.325,-242.243 631.848,-237.6 621.508,-235.29 622.325,-242.243"/>
</g>
<!-- Node5 -->
<g id="node5" class="node"><title>Node5</title>
<polygon fill="none" stroke="#bfbfbf" points="199.5,-112.5 199.5,-131.5 234.5,-131.5 234.5,-112.5 199.5,-112.5"/>
<text text-anchor="middle" x="217" y="-119.5" font-family="Helvetica,sans-Serif" font-size="10.00">map</text>
</g>
<!-- Node4&#45;&gt;Node5 -->
<g id="edge4" class="edge"><title>Node4&#45;&gt;Node5</title>
<path fill="none" stroke="midnightblue" d="M197.798,-168.083C200.913,-160.77 205.423,-150.181 209.289,-141.103"/>
<polygon fill="midnightblue" stroke="midnightblue" points="212.574,-142.323 213.273,-131.751 206.134,-139.58 212.574,-142.323"/>
</g>
<!-- Node6 -->
<g id="node6" class="node"><title>Node6</title>
<polygon fill="none" stroke="#bfbfbf" points="92.5,-0.5 92.5,-19.5 141.5,-19.5 141.5,-0.5 92.5,-0.5"/>
<text text-anchor="middle" x="117" y="-7.5" font-family="Helvetica,sans-Serif" font-size="10.00">stdint.h</text>
</g>
<!-- Node4&#45;&gt;Node6 -->
<g id="edge5" class="edge"><title>Node4&#45;&gt;Node6</title>
<path fill="none" stroke="midnightblue" d="M166.365,-175.118C138.31,-171.564 96.2123,-161.34 76,-132 53.2504,-98.9766 83.0837,-52.2465 102.575,-27.6413"/>
<polygon fill="midnightblue" stroke="midnightblue" points="105.508,-29.5852 109.171,-19.6436 100.108,-25.1311 105.508,-29.5852"/>
</g>
<!-- Node7 -->
<g id="node7" class="node"><title>Node7</title>
<polygon fill="none" stroke="#bfbfbf" points="85.5,-112.5 85.5,-131.5 142.5,-131.5 142.5,-112.5 85.5,-112.5"/>
<text text-anchor="middle" x="114" y="-119.5" font-family="Helvetica,sans-Serif" font-size="10.00">pthread.h</text>
</g>
<!-- Node4&#45;&gt;Node7 -->
<g id="edge6" class="edge"><title>Node4&#45;&gt;Node7</title>
<path fill="none" stroke="midnightblue" d="M181.147,-168.324C168.784,-159.979 149.87,-147.212 135.263,-137.352"/>
<polygon fill="midnightblue" stroke="midnightblue" points="137.068,-134.348 126.821,-131.655 133.152,-140.15 137.068,-134.348"/>
</g>
<!-- Node8 -->
<g id="node8" class="node"><title>Node8</title>
<g id="a_node8"><a xlink:href="_string_8h.html" target="_top" xlink:title="String.h">
<polygon fill="none" stroke="black" points="253,-56.5 253,-75.5 303,-75.5 303,-56.5 253,-56.5"/>
<text text-anchor="middle" x="278" y="-63.5" font-family="Helvetica,sans-Serif" font-size="10.00">String.h</text>
</a>
</g>
</g>
<!-- Node4&#45;&gt;Node8 -->
<g id="edge7" class="edge"><title>Node4&#45;&gt;Node8</title>
<path fill="none" stroke="midnightblue" d="M190.499,-168.246C185.813,-155.001 179.261,-129.553 190,-112 201.591,-93.0538 223.958,-81.7625 243.24,-75.2287"/>
<polygon fill="midnightblue" stroke="midnightblue" points="244.444,-78.5204 252.969,-72.2303 242.382,-71.8309 244.444,-78.5204"/>
</g>
<!-- Node10 -->
<g id="node10" class="node"><title>Node10</title>
<g id="a_node10"><a xlink:href="_event_8h.html" target="_top" xlink:title="Event.h">
<polygon fill="none" stroke="black" points="1124,-112.5 1124,-131.5 1174,-131.5 1174,-112.5 1124,-112.5"/>
<text text-anchor="middle" x="1149" y="-119.5" font-family="Helvetica,sans-Serif" font-size="10.00">Event.h</text>
</a>
</g>
</g>
<!-- Node4&#45;&gt;Node10 -->
<g id="edge10" class="edge"><title>Node4&#45;&gt;Node10</title>
<path fill="none" stroke="midnightblue" d="M221.524,-175.516C324.286,-169.963 695.267,-149.82 1001,-132 1039.45,-129.759 1083.51,-127.063 1113.49,-125.21"/>
<polygon fill="midnightblue" stroke="midnightblue" points="1114.1,-128.679 1123.86,-124.567 1113.67,-121.692 1114.1,-128.679"/>
</g>
<!-- Node8&#45;&gt;Node6 -->
<g id="edge9" class="edge"><title>Node8&#45;&gt;Node6</title>
<path fill="none" stroke="midnightblue" d="M252.844,-56.5625C225.59,-47.4214 181.932,-32.7784 151.49,-22.568"/>
<polygon fill="midnightblue" stroke="midnightblue" points="152.309,-19.1513 141.715,-19.2897 150.083,-25.788 152.309,-19.1513"/>
</g>
<!-- Node9 -->
<g id="node9" class="node"><title>Node9</title>
<polygon fill="none" stroke="#bfbfbf" points="257.5,-0.5 257.5,-19.5 298.5,-19.5 298.5,-0.5 257.5,-0.5"/>
<text text-anchor="middle" x="278" y="-7.5" font-family="Helvetica,sans-Serif" font-size="10.00">string</text>
</g>
<!-- Node8&#45;&gt;Node9 -->
<g id="edge8" class="edge"><title>Node8&#45;&gt;Node9</title>
<path fill="none" stroke="midnightblue" d="M278,-56.083C278,-49.0059 278,-38.8611 278,-29.9865"/>
<polygon fill="midnightblue" stroke="midnightblue" points="281.5,-29.751 278,-19.7511 274.5,-29.7511 281.5,-29.751"/>
</g>
<!-- Node11 -->
<g id="node11" class="node"><title>Node11</title>
<polygon fill="none" stroke="#bfbfbf" points="1274.5,-56.5 1274.5,-75.5 1347.5,-75.5 1347.5,-56.5 1274.5,-56.5"/>
<text text-anchor="middle" x="1311" y="-63.5" font-family="Helvetica,sans-Serif" font-size="10.00">event2/dns.h</text>
</g>
<!-- Node10&#45;&gt;Node11 -->
<g id="edge11" class="edge"><title>Node10&#45;&gt;Node11</title>
<path fill="none" stroke="midnightblue" d="M1174.31,-112.562C1201.5,-103.501 1244.9,-89.0342 1275.49,-78.837"/>
<polygon fill="midnightblue" stroke="midnightblue" points="1276.95,-82.0392 1285.33,-75.5565 1274.74,-75.3984 1276.95,-82.0392"/>
</g>
<!-- Node12 -->
<g id="node12" class="node"><title>Node12</title>
<polygon fill="none" stroke="#bfbfbf" points="1161.5,-56.5 1161.5,-75.5 1242.5,-75.5 1242.5,-56.5 1161.5,-56.5"/>
<text text-anchor="middle" x="1202" y="-63.5" font-family="Helvetica,sans-Serif" font-size="10.00">event2/event.h</text>
</g>
<!-- Node10&#45;&gt;Node12 -->
<g id="edge12" class="edge"><title>Node10&#45;&gt;Node12</title>
<path fill="none" stroke="midnightblue" d="M1157.75,-112.083C1165.47,-104.22 1176.9,-92.5688 1186.22,-83.0813"/>
<polygon fill="midnightblue" stroke="midnightblue" points="1188.9,-85.3396 1193.41,-75.7511 1183.91,-80.4363 1188.9,-85.3396"/>
</g>
<!-- Node13&#45;&gt;Node8 -->
<g id="edge18" class="edge"><title>Node13&#45;&gt;Node8</title>
<path fill="none" stroke="midnightblue" d="M1230.96,-168.389C1184.49,-153.995 1086.26,-125.317 1001,-112 739.114,-71.0949 418.391,-67.042 313.218,-66.887"/>
<polygon fill="midnightblue" stroke="midnightblue" points="313.158,-63.3871 303.156,-66.8835 313.155,-70.3871 313.158,-63.3871"/>
</g>
<!-- Node13&#45;&gt;Node10 -->
<g id="edge19" class="edge"><title>Node13&#45;&gt;Node10</title>
<path fill="none" stroke="midnightblue" d="M1240.49,-168.324C1222.93,-159.625 1195.67,-146.12 1175.47,-136.113"/>
<polygon fill="midnightblue" stroke="midnightblue" points="1176.98,-132.958 1166.47,-131.655 1173.88,-139.23 1176.98,-132.958"/>
</g>
<!-- Node13&#45;&gt;Node11 -->
<g id="edge14" class="edge"><title>Node13&#45;&gt;Node11</title>
<path fill="none" stroke="midnightblue" d="M1272.41,-168.288C1284.01,-160.401 1299.55,-147.64 1307,-132 1313.84,-117.647 1314.37,-99.4492 1313.46,-85.9614"/>
<polygon fill="midnightblue" stroke="midnightblue" points="1316.94,-85.5326 1312.47,-75.9273 1309.97,-86.2242 1316.94,-85.5326"/>
</g>
<!-- Node13&#45;&gt;Node12 -->
<g id="edge15" class="edge"><title>Node13&#45;&gt;Node12</title>
<path fill="none" stroke="midnightblue" d="M1253.61,-168.368C1244.45,-150.376 1223.15,-108.55 1210.97,-84.6267"/>
<polygon fill="midnightblue" stroke="midnightblue" points="1214.03,-82.9152 1206.37,-75.5914 1207.79,-86.091 1214.03,-82.9152"/>
</g>
<!-- Node14 -->
<g id="node14" class="node"><title>Node14</title>
<polygon fill="none" stroke="#bfbfbf" points="1354.5,-112.5 1354.5,-131.5 1427.5,-131.5 1427.5,-112.5 1354.5,-112.5"/>
<text text-anchor="middle" x="1391" y="-119.5" font-family="Helvetica,sans-Serif" font-size="10.00">libconfig.h++</text>
</g>
<!-- Node13&#45;&gt;Node14 -->
<g id="edge16" class="edge"><title>Node13&#45;&gt;Node14</title>
<path fill="none" stroke="midnightblue" d="M1279.07,-168.444C1301.06,-159.517 1335.73,-145.439 1360.66,-135.317"/>
<polygon fill="midnightblue" stroke="midnightblue" points="1362.08,-138.521 1370.02,-131.516 1359.44,-132.035 1362.08,-138.521"/>
</g>
<!-- Node15 -->
<g id="node15" class="node"><title>Node15</title>
<polygon fill="none" stroke="#bfbfbf" points="1268,-112.5 1268,-131.5 1298,-131.5 1298,-112.5 1268,-112.5"/>
<text text-anchor="middle" x="1283" y="-119.5" font-family="Helvetica,sans-Serif" font-size="10.00">set</text>
</g>
<!-- Node13&#45;&gt;Node15 -->
<g id="edge17" class="edge"><title>Node13&#45;&gt;Node15</title>
<path fill="none" stroke="midnightblue" d="M1262.13,-168.083C1265.51,-160.77 1270.42,-150.181 1274.62,-141.103"/>
<polygon fill="midnightblue" stroke="midnightblue" points="1277.92,-142.296 1278.95,-131.751 1271.57,-139.355 1277.92,-142.296"/>
</g>
<!-- Node16&#45;&gt;Node4 -->
<g id="edge42" class="edge"><title>Node16&#45;&gt;Node4</title>
<path fill="none" stroke="midnightblue" d="M631.813,-230.395C558.543,-221.794 323.746,-194.231 231.61,-183.415"/>
<polygon fill="midnightblue" stroke="midnightblue" points="231.951,-179.931 221.611,-182.241 231.135,-186.883 231.951,-179.931"/>
</g>
<!-- Node16&#45;&gt;Node12 -->
<g id="edge21" class="edge"><title>Node16&#45;&gt;Node12</title>
<path fill="none" stroke="midnightblue" d="M676.144,-231.879C766.748,-226.843 1107.96,-203.351 1183,-132 1195.51,-120.11 1199.92,-100.49 1201.4,-85.9099"/>
<polygon fill="midnightblue" stroke="midnightblue" points="1204.92,-85.7458 1202.07,-75.5422 1197.94,-85.2975 1204.92,-85.7458"/>
</g>
<!-- Node16&#45;&gt;Node13 -->
<g id="edge41" class="edge"><title>Node16&#45;&gt;Node13</title>
<path fill="none" stroke="midnightblue" d="M676.076,-232.274C751.718,-229.564 1007.29,-218.582 1216,-188 1217.25,-187.818 1218.51,-187.62 1219.78,-187.41"/>
<polygon fill="midnightblue" stroke="midnightblue" points="1220.42,-190.852 1229.63,-185.608 1219.16,-183.966 1220.42,-190.852"/>
</g>
<!-- Node17 -->
<g id="node17" class="node"><title>Node17</title>
<g id="a_node17"><a xlink:href="defines_8h.html" target="_top" xlink:title="defines.h">
<polygon fill="none" stroke="black" points="992,-56.5 992,-75.5 1048,-75.5 1048,-56.5 992,-56.5"/>
<text text-anchor="middle" x="1020" y="-63.5" font-family="Helvetica,sans-Serif" font-size="10.00">defines.h</text>
</a>
</g>
</g>
<!-- Node16&#45;&gt;Node17 -->
<g id="edge22" class="edge"><title>Node16&#45;&gt;Node17</title>
<path fill="none" stroke="midnightblue" d="M676.166,-230.374C748.883,-221.262 977.994,-188.44 1021,-132 1031.03,-118.837 1029.24,-99.4297 1025.88,-85.2485"/>
<polygon fill="midnightblue" stroke="midnightblue" points="1029.25,-84.2951 1023.18,-75.6129 1022.51,-86.1867 1029.25,-84.2951"/>
</g>
<!-- Node18 -->
<g id="node18" class="node"><title>Node18</title>
<g id="a_node18"><a xlink:href="_files_8h.html" target="_top" xlink:title="Files.h">
<polygon fill="none" stroke="black" points="631,-168.5 631,-187.5 677,-187.5 677,-168.5 631,-168.5"/>
<text text-anchor="middle" x="654" y="-175.5" font-family="Helvetica,sans-Serif" font-size="10.00">Files.h</text>
</a>
</g>
</g>
<!-- Node16&#45;&gt;Node18 -->
<g id="edge23" class="edge"><title>Node16&#45;&gt;Node18</title>
<path fill="none" stroke="midnightblue" d="M654,-224.083C654,-217.006 654,-206.861 654,-197.986"/>
<polygon fill="midnightblue" stroke="midnightblue" points="657.5,-197.751 654,-187.751 650.5,-197.751 657.5,-197.751"/>
</g>
<!-- Node27 -->
<g id="node27" class="node"><title>Node27</title>
<g id="a_node27"><a xlink:href="_writer_8h.html" target="_top" xlink:title="Writer.h">
<polygon fill="none" stroke="black" points="252.5,-112.5 252.5,-131.5 303.5,-131.5 303.5,-112.5 252.5,-112.5"/>
<text text-anchor="middle" x="278" y="-119.5" font-family="Helvetica,sans-Serif" font-size="10.00">Writer.h</text>
</a>
</g>
</g>
<!-- Node16&#45;&gt;Node27 -->
<g id="edge40" class="edge"><title>Node16&#45;&gt;Node27</title>
<path fill="none" stroke="midnightblue" d="M631.883,-226.53C569.211,-208.195 390.032,-155.775 313.429,-133.365"/>
<polygon fill="midnightblue" stroke="midnightblue" points="314.332,-129.982 303.751,-130.534 312.366,-136.701 314.332,-129.982"/>
</g>
<!-- Node18&#45;&gt;Node5 -->
<g id="edge31" class="edge"><title>Node18&#45;&gt;Node5</title>
<path fill="none" stroke="midnightblue" d="M630.982,-176.284C569.434,-173.994 395.988,-165.066 244.683,-131.949"/>
<polygon fill="midnightblue" stroke="midnightblue" points="245.272,-128.495 234.75,-129.733 243.748,-135.327 245.272,-128.495"/>
</g>
<!-- Node18&#45;&gt;Node8 -->
<g id="edge34" class="edge"><title>Node18&#45;&gt;Node8</title>
<path fill="none" stroke="midnightblue" d="M630.876,-175.283C569.004,-170.421 400.979,-155.375 351,-132 326.876,-120.718 304.896,-98.8404 291.496,-83.5984"/>
<polygon fill="midnightblue" stroke="midnightblue" points="294.118,-81.2782 284.976,-75.9227 288.783,-85.8101 294.118,-81.2782"/>
</g>
<!-- Node18&#45;&gt;Node10 -->
<g id="edge39" class="edge"><title>Node18&#45;&gt;Node10</title>
<path fill="none" stroke="midnightblue" d="M677.211,-174.468C756.707,-165.796 1018.37,-137.251 1113.78,-126.842"/>
<polygon fill="midnightblue" stroke="midnightblue" points="1114.23,-130.313 1123.8,-125.75 1113.48,-123.355 1114.23,-130.313"/>
</g>
<!-- Node18&#45;&gt;Node17 -->
<g id="edge32" class="edge"><title>Node18&#45;&gt;Node17</title>
<path fill="none" stroke="midnightblue" d="M677.385,-177.179C747.181,-177.234 952.186,-173.761 1001,-132 1014.24,-120.672 1018.52,-100.672 1019.77,-85.8395"/>
<polygon fill="midnightblue" stroke="midnightblue" points="1023.28,-85.8848 1020.24,-75.7333 1016.28,-85.5604 1023.28,-85.8848"/>
</g>
<!-- Node19 -->
<g id="node19" class="node"><title>Node19</title>
<polygon fill="none" stroke="#bfbfbf" points="504,-112.5 504,-131.5 610,-131.5 610,-112.5 504,-112.5"/>
<text text-anchor="middle" x="557" y="-119.5" font-family="Helvetica,sans-Serif" font-size="10.00">event2/bufferevent.h</text>
</g>
<!-- Node18&#45;&gt;Node19 -->
<g id="edge24" class="edge"><title>Node18&#45;&gt;Node19</title>
<path fill="none" stroke="midnightblue" d="M638.415,-168.324C623.001,-159.743 599.188,-146.486 581.29,-136.522"/>
<polygon fill="midnightblue" stroke="midnightblue" points="582.986,-133.461 572.546,-131.655 579.581,-139.577 582.986,-133.461"/>
</g>
<!-- Node20 -->
<g id="node20" class="node"><title>Node20</title>
<polygon fill="none" stroke="#bfbfbf" points="628.5,-112.5 628.5,-131.5 679.5,-131.5 679.5,-112.5 628.5,-112.5"/>
<text text-anchor="middle" x="654" y="-119.5" font-family="Helvetica,sans-Serif" font-size="10.00">unistd.h</text>
</g>
<!-- Node18&#45;&gt;Node20 -->
<g id="edge25" class="edge"><title>Node18&#45;&gt;Node20</title>
<path fill="none" stroke="midnightblue" d="M654,-168.083C654,-161.006 654,-150.861 654,-141.986"/>
<polygon fill="midnightblue" stroke="midnightblue" points="657.5,-141.751 654,-131.751 650.5,-141.751 657.5,-141.751"/>
</g>
<!-- Node21 -->
<g id="node21" class="node"><title>Node21</title>
<polygon fill="none" stroke="#bfbfbf" points="698,-112.5 698,-131.5 746,-131.5 746,-112.5 698,-112.5"/>
<text text-anchor="middle" x="722" y="-119.5" font-family="Helvetica,sans-Serif" font-size="10.00">stdlib.h</text>
</g>
<!-- Node18&#45;&gt;Node21 -->
<g id="edge26" class="edge"><title>Node18&#45;&gt;Node21</title>
<path fill="none" stroke="midnightblue" d="M664.925,-168.324C675.175,-160.185 690.721,-147.839 703.001,-138.087"/>
<polygon fill="midnightblue" stroke="midnightblue" points="705.221,-140.794 710.876,-131.834 700.868,-135.312 705.221,-140.794"/>
</g>
<!-- Node22 -->
<g id="node22" class="node"><title>Node22</title>
<polygon fill="none" stroke="#bfbfbf" points="764,-112.5 764,-131.5 824,-131.5 824,-112.5 764,-112.5"/>
<text text-anchor="middle" x="794" y="-119.5" font-family="Helvetica,sans-Serif" font-size="10.00">sys/stat.h</text>
</g>
<!-- Node18&#45;&gt;Node22 -->
<g id="edge27" class="edge"><title>Node18&#45;&gt;Node22</title>
<path fill="none" stroke="midnightblue" d="M676.183,-168.444C699.428,-159.478 736.149,-145.314 762.415,-135.183"/>
<polygon fill="midnightblue" stroke="midnightblue" points="763.85,-138.381 771.92,-131.516 761.331,-131.85 763.85,-138.381"/>
</g>
<!-- Node23 -->
<g id="node23" class="node"><title>Node23</title>
<polygon fill="none" stroke="#bfbfbf" points="842,-112.5 842,-131.5 904,-131.5 904,-112.5 842,-112.5"/>
<text text-anchor="middle" x="873" y="-119.5" font-family="Helvetica,sans-Serif" font-size="10.00">sys/fcntl.h</text>
</g>
<!-- Node18&#45;&gt;Node23 -->
<g id="edge28" class="edge"><title>Node18&#45;&gt;Node23</title>
<path fill="none" stroke="midnightblue" d="M677.023,-171.323C713.778,-162.26 786.223,-144.397 831.992,-133.112"/>
<polygon fill="midnightblue" stroke="midnightblue" points="833.02,-136.463 841.891,-130.671 831.344,-129.666 833.02,-136.463"/>
</g>
<!-- Node24 -->
<g id="node24" class="node"><title>Node24</title>
<polygon fill="none" stroke="#bfbfbf" points="922,-112.5 922,-131.5 992,-131.5 992,-112.5 922,-112.5"/>
<text text-anchor="middle" x="957" y="-119.5" font-family="Helvetica,sans-Serif" font-size="10.00">sys/inotify.h</text>
</g>
<!-- Node18&#45;&gt;Node24 -->
<g id="edge29" class="edge"><title>Node18&#45;&gt;Node24</title>
<path fill="none" stroke="midnightblue" d="M677.259,-173.197C721.106,-165.977 819.215,-149.581 912.113,-132.123"/>
<polygon fill="midnightblue" stroke="midnightblue" points="912.777,-135.56 921.954,-130.266 911.478,-128.681 912.777,-135.56"/>
</g>
<!-- Node25 -->
<g id="node25" class="node"><title>Node25</title>
<polygon fill="none" stroke="#bfbfbf" points="360,-112.5 360,-131.5 404,-131.5 404,-112.5 360,-112.5"/>
<text text-anchor="middle" x="382" y="-119.5" font-family="Helvetica,sans-Serif" font-size="10.00">vector</text>
</g>
<!-- Node18&#45;&gt;Node25 -->
<g id="edge30" class="edge"><title>Node18&#45;&gt;Node25</title>
<path fill="none" stroke="midnightblue" d="M630.688,-173.336C589.232,-166.671 499.807,-151.613 414.193,-131.854"/>
<polygon fill="midnightblue" stroke="midnightblue" points="414.848,-128.413 404.314,-129.549 413.257,-135.23 414.848,-128.413"/>
</g>
<!-- Node26 -->
<g id="node26" class="node"><title>Node26</title>
<g id="a_node26"><a xlink:href="_closable_8h.html" target="_top" xlink:title="Closable.h">
<polygon fill="none" stroke="black" points="422.5,-112.5 422.5,-131.5 485.5,-131.5 485.5,-112.5 422.5,-112.5"/>
<text text-anchor="middle" x="454" y="-119.5" font-family="Helvetica,sans-Serif" font-size="10.00">Closable.h</text>
</a>
</g>
</g>
<!-- Node18&#45;&gt;Node26 -->
<g id="edge33" class="edge"><title>Node18&#45;&gt;Node26</title>
<path fill="none" stroke="midnightblue" d="M630.666,-170.7C597.539,-161.755 536.358,-145.237 495.416,-134.182"/>
<polygon fill="midnightblue" stroke="midnightblue" points="496.295,-130.794 485.729,-131.567 494.471,-137.552 496.295,-130.794"/>
</g>
<!-- Node18&#45;&gt;Node27 -->
<g id="edge35" class="edge"><title>Node18&#45;&gt;Node27</title>
<path fill="none" stroke="midnightblue" d="M630.671,-174.593C575.869,-168.781 434.734,-152.908 318,-132 316.555,-131.741 315.083,-131.466 313.598,-131.178"/>
<polygon fill="midnightblue" stroke="midnightblue" points="314.254,-127.739 303.753,-129.145 312.839,-134.595 314.254,-127.739"/>
</g>
<!-- Node27&#45;&gt;Node3 -->
<g id="edge38" class="edge"><title>Node27&#45;&gt;Node3</title>
<path fill="none" stroke="midnightblue" d="M256.292,-112.444C233.645,-103.517 197.928,-89.4387 172.248,-79.3168"/>
<polygon fill="midnightblue" stroke="midnightblue" points="173.193,-75.9273 162.606,-75.5164 170.626,-82.4397 173.193,-75.9273"/>
</g>
<!-- Node27&#45;&gt;Node8 -->
<g id="edge37" class="edge"><title>Node27&#45;&gt;Node8</title>
<path fill="none" stroke="midnightblue" d="M278,-112.083C278,-105.006 278,-94.8611 278,-85.9865"/>
<polygon fill="midnightblue" stroke="midnightblue" points="281.5,-85.751 278,-75.7511 274.5,-85.7511 281.5,-85.751"/>
</g>
<!-- Node27&#45;&gt;Node17 -->
<g id="edge36" class="edge"><title>Node27&#45;&gt;Node17</title>
<path fill="none" stroke="midnightblue" d="M303.638,-117.486C317.617,-115.659 335.237,-113.501 351,-112 590.516,-89.1976 879.358,-73.8822 981.752,-68.8278"/>
<polygon fill="midnightblue" stroke="midnightblue" points="982.096,-72.3152 991.912,-68.3298 981.753,-65.3236 982.096,-72.3152"/>
</g>
</g>
</svg>
