<?xml version="1.0" encoding="UTF-8" standalone="no"?>
<!DOCTYPE svg PUBLIC "-//W3C//DTD SVG 1.1//EN"
 "http://www.w3.org/Graphics/SVG/1.1/DTD/svg11.dtd">
<!-- Generated by graphviz version 2.34.0 (20140110.0949)
 -->
<!-- Title: include/Listener.h Pages: 1 -->
<svg width="1302pt" height="320pt"
 viewBox="0.00 0.00 1302.00 320.00" xmlns="http://www.w3.org/2000/svg" xmlns:xlink="http://www.w3.org/1999/xlink">
<g id="graph0" class="graph" transform="scale(1 1) rotate(0) translate(4 316)">
<title>include/Listener.h</title>
<!-- Node1 -->
<g id="node1" class="node"><title>Node1</title>
<polygon fill="#bfbfbf" stroke="black" points="213.5,-292.5 213.5,-311.5 306.5,-311.5 306.5,-292.5 213.5,-292.5"/>
<text text-anchor="middle" x="260" y="-299.5" font-family="Helvetica,sans-Serif" font-size="10.00">include/Listener.h</text>
</g>
<!-- Node2 -->
<g id="node2" class="node"><title>Node2</title>
<polygon fill="none" stroke="#bfbfbf" points="-0.5,-230.5 -0.5,-249.5 48.5,-249.5 48.5,-230.5 -0.5,-230.5"/>
<text text-anchor="middle" x="24" y="-237.5" font-family="Helvetica,sans-Serif" font-size="10.00">stdint.h</text>
</g>
<!-- Node1&#45;&gt;Node2 -->
<g id="edge1" class="edge"><title>Node1&#45;&gt;Node2</title>
<path fill="none" stroke="midnightblue" d="M213.171,-293.265C171.774,-285.794 110.056,-273.097 58,-256 55.7244,-255.253 53.3938,-254.407 51.0719,-253.506"/>
<polygon fill="midnightblue" stroke="midnightblue" points="52.317,-250.233 41.7403,-249.612 49.6213,-256.693 52.317,-250.233"/>
</g>
<!-- Node3 -->
<g id="node3" class="node"><title>Node3</title>
<polygon fill="none" stroke="#bfbfbf" points="67,-230.5 67,-249.5 141,-249.5 141,-230.5 67,-230.5"/>
<text text-anchor="middle" x="104" y="-237.5" font-family="Helvetica,sans-Serif" font-size="10.00">openssl/ssl.h</text>
</g>
<!-- Node1&#45;&gt;Node3 -->
<g id="edge2" class="edge"><title>Node1&#45;&gt;Node3</title>
<path fill="none" stroke="midnightblue" d="M237.649,-292.403C211.005,-282.156 166.286,-264.956 135.986,-253.302"/>
<polygon fill="midnightblue" stroke="midnightblue" points="136.899,-249.904 126.31,-249.581 134.387,-256.437 136.899,-249.904"/>
</g>
<!-- Node4 -->
<g id="node4" class="node"><title>Node4</title>
<polygon fill="none" stroke="#bfbfbf" points="159.5,-230.5 159.5,-249.5 248.5,-249.5 248.5,-230.5 159.5,-230.5"/>
<text text-anchor="middle" x="204" y="-237.5" font-family="Helvetica,sans-Serif" font-size="10.00">event2/listener.h</text>
</g>
<!-- Node1&#45;&gt;Node4 -->
<g id="edge3" class="edge"><title>Node1&#45;&gt;Node4</title>
<path fill="none" stroke="midnightblue" d="M251.977,-292.403C243.41,-283.225 229.639,-268.47 219.043,-257.117"/>
<polygon fill="midnightblue" stroke="midnightblue" points="221.39,-254.503 212.009,-249.581 216.273,-259.279 221.39,-254.503"/>
</g>
<!-- Node5 -->
<g id="node5" class="node"><title>Node5</title>
<polygon fill="none" stroke="#bfbfbf" points="267,-225 267,-255 365,-255 365,-225 267,-225"/>
<text text-anchor="start" x="275" y="-243" font-family="Helvetica,sans-Serif" font-size="10.00">event2/bufferevent</text>
<text text-anchor="middle" x="316" y="-232" font-family="Helvetica,sans-Serif" font-size="10.00">_ssl.h</text>
</g>
<!-- Node1&#45;&gt;Node5 -->
<g id="edge4" class="edge"><title>Node1&#45;&gt;Node5</title>
<path fill="none" stroke="midnightblue" d="M268.023,-292.403C275.253,-284.657 286.191,-272.938 295.798,-262.645"/>
<polygon fill="midnightblue" stroke="midnightblue" points="298.537,-264.84 302.802,-255.141 293.42,-260.063 298.537,-264.84"/>
</g>
<!-- Node6 -->
<g id="node6" class="node"><title>Node6</title>
<g id="a_node6"><a xlink:href="_logger_8h.html" target="_top" xlink:title="Logger.h">
<polygon fill="none" stroke="black" points="383,-230.5 383,-249.5 437,-249.5 437,-230.5 383,-230.5"/>
<text text-anchor="middle" x="410" y="-237.5" font-family="Helvetica,sans-Serif" font-size="10.00">Logger.h</text>
</a>
</g>
</g>
<!-- Node1&#45;&gt;Node6 -->
<g id="edge5" class="edge"><title>Node1&#45;&gt;Node6</title>
<path fill="none" stroke="midnightblue" d="M281.903,-292.495C304.891,-283.536 342.058,-268.958 374,-256 375.882,-255.236 377.818,-254.446 379.768,-253.645"/>
<polygon fill="midnightblue" stroke="midnightblue" points="381.564,-256.69 389.467,-249.634 378.888,-250.221 381.564,-256.69"/>
</g>
<!-- Node23 -->
<g id="node23" class="node"><title>Node23</title>
<g id="a_node23"><a xlink:href="_socket_8h.html" target="_top" xlink:title="Socket.h">
<polygon fill="none" stroke="black" points="450,-168.5 450,-187.5 506,-187.5 506,-168.5 450,-168.5"/>
<text text-anchor="middle" x="478" y="-175.5" font-family="Helvetica,sans-Serif" font-size="10.00">Socket.h</text>
</a>
</g>
</g>
<!-- Node1&#45;&gt;Node23 -->
<g id="edge25" class="edge"><title>Node1&#45;&gt;Node23</title>
<path fill="none" stroke="midnightblue" d="M306.529,-301.092C347.696,-298.772 407.104,-289.24 446,-256 463.416,-241.117 471.528,-215.21 475.184,-197.596"/>
<polygon fill="midnightblue" stroke="midnightblue" points="478.648,-198.105 476.962,-187.645 471.757,-196.874 478.648,-198.105"/>
</g>
<!-- Node7 -->
<g id="node7" class="node"><title>Node7</title>
<polygon fill="none" stroke="#bfbfbf" points="378.5,-168.5 378.5,-187.5 431.5,-187.5 431.5,-168.5 378.5,-168.5"/>
<text text-anchor="middle" x="405" y="-175.5" font-family="Helvetica,sans-Serif" font-size="10.00">syslog.h</text>
</g>
<!-- Node6&#45;&gt;Node7 -->
<g id="edge6" class="edge"><title>Node6&#45;&gt;Node7</title>
<path fill="none" stroke="midnightblue" d="M409.284,-230.403C408.578,-221.938 407.477,-208.728 406.568,-197.82"/>
<polygon fill="midnightblue" stroke="midnightblue" points="410.034,-197.255 405.715,-187.581 403.058,-197.837 410.034,-197.255"/>
</g>
<!-- Node8 -->
<g id="node8" class="node"><title>Node8</title>
<g id="a_node8"><a xlink:href="_files_8h.html" target="_top" xlink:title="Files.h">
<polygon fill="none" stroke="black" points="823,-168.5 823,-187.5 869,-187.5 869,-168.5 823,-168.5"/>
<text text-anchor="middle" x="846" y="-175.5" font-family="Helvetica,sans-Serif" font-size="10.00">Files.h</text>
</a>
</g>
</g>
<!-- Node6&#45;&gt;Node8 -->
<g id="edge7" class="edge"><title>Node6&#45;&gt;Node8</title>
<path fill="none" stroke="midnightblue" d="M437.274,-235.247C513.703,-224.729 729.788,-194.992 812.879,-183.558"/>
<polygon fill="midnightblue" stroke="midnightblue" points="813.359,-187.025 822.789,-182.194 812.405,-180.09 813.359,-187.025"/>
</g>
<!-- Node19 -->
<g id="node19" class="node"><title>Node19</title>
<g id="a_node19"><a xlink:href="_string_8h.html" target="_top" xlink:title="String.h">
<polygon fill="none" stroke="black" points="331,-56.5 331,-75.5 381,-75.5 381,-56.5 331,-56.5"/>
<text text-anchor="middle" x="356" y="-63.5" font-family="Helvetica,sans-Serif" font-size="10.00">String.h</text>
</a>
</g>
</g>
<!-- Node6&#45;&gt;Node19 -->
<g id="edge24" class="edge"><title>Node6&#45;&gt;Node19</title>
<path fill="none" stroke="midnightblue" d="M400.332,-230.494C382.194,-213.798 343.661,-174.63 330,-132 324.687,-115.422 333.459,-97.0466 342.217,-84.0751"/>
<polygon fill="midnightblue" stroke="midnightblue" points="345.282,-85.8162 348.391,-75.6878 339.644,-81.6666 345.282,-85.8162"/>
</g>
<!-- Node9 -->
<g id="node9" class="node"><title>Node9</title>
<polygon fill="none" stroke="#bfbfbf" points="425,-112.5 425,-131.5 531,-131.5 531,-112.5 425,-112.5"/>
<text text-anchor="middle" x="478" y="-119.5" font-family="Helvetica,sans-Serif" font-size="10.00">event2/bufferevent.h</text>
</g>
<!-- Node8&#45;&gt;Node9 -->
<g id="edge8" class="edge"><title>Node8&#45;&gt;Node9</title>
<path fill="none" stroke="midnightblue" d="M822.98,-173.622C767.468,-165.476 624.67,-144.522 541.227,-132.278"/>
<polygon fill="midnightblue" stroke="midnightblue" points="541.509,-128.782 531.107,-130.793 540.492,-135.708 541.509,-128.782"/>
</g>
<!-- Node10 -->
<g id="node10" class="node"><title>Node10</title>
<polygon fill="none" stroke="#bfbfbf" points="1098.5,-112.5 1098.5,-131.5 1149.5,-131.5 1149.5,-112.5 1098.5,-112.5"/>
<text text-anchor="middle" x="1124" y="-119.5" font-family="Helvetica,sans-Serif" font-size="10.00">unistd.h</text>
</g>
<!-- Node8&#45;&gt;Node10 -->
<g id="edge9" class="edge"><title>Node8&#45;&gt;Node10</title>
<path fill="none" stroke="midnightblue" d="M869.225,-173.245C910.986,-166.376 1001.71,-150.925 1088.43,-131.994"/>
<polygon fill="midnightblue" stroke="midnightblue" points="1089.42,-135.359 1098.43,-129.79 1087.92,-128.523 1089.42,-135.359"/>
</g>
<!-- Node11 -->
<g id="node11" class="node"><title>Node11</title>
<polygon fill="none" stroke="#bfbfbf" points="1168,-112.5 1168,-131.5 1216,-131.5 1216,-112.5 1168,-112.5"/>
<text text-anchor="middle" x="1192" y="-119.5" font-family="Helvetica,sans-Serif" font-size="10.00">stdlib.h</text>
</g>
<!-- Node8&#45;&gt;Node11 -->
<g id="edge10" class="edge"><title>Node8&#45;&gt;Node11</title>
<path fill="none" stroke="midnightblue" d="M869.251,-174.577C921.299,-168.951 1051.02,-153.799 1158,-132 1158.1,-131.979 1158.2,-131.959 1158.3,-131.938"/>
<polygon fill="midnightblue" stroke="midnightblue" points="1158.97,-135.377 1167.94,-129.738 1157.41,-128.553 1158.97,-135.377"/>
</g>
<!-- Node12 -->
<g id="node12" class="node"><title>Node12</title>
<polygon fill="none" stroke="#bfbfbf" points="1234,-112.5 1234,-131.5 1294,-131.5 1294,-112.5 1234,-112.5"/>
<text text-anchor="middle" x="1264" y="-119.5" font-family="Helvetica,sans-Serif" font-size="10.00">sys/stat.h</text>
</g>
<!-- Node8&#45;&gt;Node12 -->
<g id="edge11" class="edge"><title>Node8&#45;&gt;Node12</title>
<path fill="none" stroke="midnightblue" d="M869.199,-175.13C927.254,-170.262 1083.62,-156.004 1223.77,-132.044"/>
<polygon fill="midnightblue" stroke="midnightblue" points="1224.58,-135.457 1233.83,-130.303 1223.38,-128.56 1224.58,-135.457"/>
</g>
<!-- Node13 -->
<g id="node13" class="node"><title>Node13</title>
<polygon fill="none" stroke="#bfbfbf" points="815,-112.5 815,-131.5 877,-131.5 877,-112.5 815,-112.5"/>
<text text-anchor="middle" x="846" y="-119.5" font-family="Helvetica,sans-Serif" font-size="10.00">sys/fcntl.h</text>
</g>
<!-- Node8&#45;&gt;Node13 -->
<g id="edge12" class="edge"><title>Node8&#45;&gt;Node13</title>
<path fill="none" stroke="midnightblue" d="M846,-168.083C846,-161.006 846,-150.861 846,-141.986"/>
<polygon fill="midnightblue" stroke="midnightblue" points="849.5,-141.751 846,-131.751 842.5,-141.751 849.5,-141.751"/>
</g>
<!-- Node14 -->
<g id="node14" class="node"><title>Node14</title>
<polygon fill="none" stroke="#bfbfbf" points="895,-112.5 895,-131.5 965,-131.5 965,-112.5 895,-112.5"/>
<text text-anchor="middle" x="930" y="-119.5" font-family="Helvetica,sans-Serif" font-size="10.00">sys/inotify.h</text>
</g>
<!-- Node8&#45;&gt;Node14 -->
<g id="edge13" class="edge"><title>Node8&#45;&gt;Node14</title>
<path fill="none" stroke="midnightblue" d="M859.496,-168.324C872.6,-159.9 892.712,-146.971 908.107,-137.074"/>
<polygon fill="midnightblue" stroke="midnightblue" points="910.018,-140.006 916.537,-131.655 906.233,-134.118 910.018,-140.006"/>
</g>
<!-- Node15 -->
<g id="node15" class="node"><title>Node15</title>
<polygon fill="none" stroke="#bfbfbf" points="983,-112.5 983,-131.5 1027,-131.5 1027,-112.5 983,-112.5"/>
<text text-anchor="middle" x="1005" y="-119.5" font-family="Helvetica,sans-Serif" font-size="10.00">vector</text>
</g>
<!-- Node8&#45;&gt;Node15 -->
<g id="edge14" class="edge"><title>Node8&#45;&gt;Node15</title>
<path fill="none" stroke="midnightblue" d="M869.12,-169.148C896.513,-159.845 942.306,-144.292 973.069,-133.844"/>
<polygon fill="midnightblue" stroke="midnightblue" points="974.534,-137.043 982.877,-130.513 972.283,-130.415 974.534,-137.043"/>
</g>
<!-- Node16 -->
<g id="node16" class="node"><title>Node16</title>
<polygon fill="none" stroke="#bfbfbf" points="1045.5,-112.5 1045.5,-131.5 1080.5,-131.5 1080.5,-112.5 1045.5,-112.5"/>
<text text-anchor="middle" x="1063" y="-119.5" font-family="Helvetica,sans-Serif" font-size="10.00">map</text>
</g>
<!-- Node8&#45;&gt;Node16 -->
<g id="edge15" class="edge"><title>Node8&#45;&gt;Node16</title>
<path fill="none" stroke="midnightblue" d="M869.278,-172.188C903.584,-164.946 969.896,-150.378 1035.66,-131.889"/>
<polygon fill="midnightblue" stroke="midnightblue" points="1036.69,-135.235 1045.35,-129.134 1034.78,-128.501 1036.69,-135.235"/>
</g>
<!-- Node17 -->
<g id="node17" class="node"><title>Node17</title>
<g id="a_node17"><a xlink:href="defines_8h.html" target="_top" xlink:title="defines.h">
<polygon fill="none" stroke="black" points="738,-56.5 738,-75.5 794,-75.5 794,-56.5 738,-56.5"/>
<text text-anchor="middle" x="766" y="-63.5" font-family="Helvetica,sans-Serif" font-size="10.00">defines.h</text>
</a>
</g>
</g>
<!-- Node8&#45;&gt;Node17 -->
<g id="edge16" class="edge"><title>Node8&#45;&gt;Node17</title>
<path fill="none" stroke="midnightblue" d="M837.553,-168.425C829.107,-159.645 815.976,-145.423 806,-132 794.663,-116.746 783.473,-98.1795 775.824,-84.8015"/>
<polygon fill="midnightblue" stroke="midnightblue" points="778.672,-82.7259 770.721,-75.7235 772.57,-86.1558 778.672,-82.7259"/>
</g>
<!-- Node18 -->
<g id="node18" class="node"><title>Node18</title>
<g id="a_node18"><a xlink:href="_closable_8h.html" target="_top" xlink:title="Closable.h">
<polygon fill="none" stroke="black" points="549.5,-112.5 549.5,-131.5 612.5,-131.5 612.5,-112.5 549.5,-112.5"/>
<text text-anchor="middle" x="581" y="-119.5" font-family="Helvetica,sans-Serif" font-size="10.00">Closable.h</text>
</a>
</g>
</g>
<!-- Node8&#45;&gt;Node18 -->
<g id="edge17" class="edge"><title>Node8&#45;&gt;Node18</title>
<path fill="none" stroke="midnightblue" d="M822.947,-172.302C778.255,-163.195 679.266,-143.024 622.73,-131.504"/>
<polygon fill="midnightblue" stroke="midnightblue" points="623.188,-128.025 612.691,-129.458 621.79,-134.884 623.188,-128.025"/>
</g>
<!-- Node8&#45;&gt;Node19 -->
<g id="edge18" class="edge"><title>Node8&#45;&gt;Node19</title>
<path fill="none" stroke="midnightblue" d="M822.723,-173.081C787.162,-166.707 717.489,-152.692 661,-132 642.337,-125.163 639.892,-118.175 621,-112 541.285,-85.9431 442.893,-74.2937 391.333,-69.6647"/>
<polygon fill="midnightblue" stroke="midnightblue" points="391.328,-66.1515 381.065,-68.7809 390.728,-73.1257 391.328,-66.1515"/>
</g>
<!-- Node21 -->
<g id="node21" class="node"><title>Node21</title>
<g id="a_node21"><a xlink:href="_writer_8h.html" target="_top" xlink:title="Writer.h">
<polygon fill="none" stroke="black" points="669.5,-112.5 669.5,-131.5 720.5,-131.5 720.5,-112.5 669.5,-112.5"/>
<text text-anchor="middle" x="695" y="-119.5" font-family="Helvetica,sans-Serif" font-size="10.00">Writer.h</text>
</a>
</g>
</g>
<!-- Node8&#45;&gt;Node21 -->
<g id="edge20" class="edge"><title>Node8&#45;&gt;Node21</title>
<path fill="none" stroke="midnightblue" d="M822.737,-168.681C797.502,-159.656 756.996,-145.171 728.372,-134.934"/>
<polygon fill="midnightblue" stroke="midnightblue" points="729.382,-131.579 718.788,-131.507 727.025,-138.17 729.382,-131.579"/>
</g>
<!-- Node20 -->
<g id="node20" class="node"><title>Node20</title>
<polygon fill="none" stroke="#bfbfbf" points="335.5,-0.5 335.5,-19.5 376.5,-19.5 376.5,-0.5 335.5,-0.5"/>
<text text-anchor="middle" x="356" y="-7.5" font-family="Helvetica,sans-Serif" font-size="10.00">string</text>
</g>
<!-- Node19&#45;&gt;Node20 -->
<g id="edge19" class="edge"><title>Node19&#45;&gt;Node20</title>
<path fill="none" stroke="midnightblue" d="M356,-56.083C356,-49.0059 356,-38.8611 356,-29.9865"/>
<polygon fill="midnightblue" stroke="midnightblue" points="359.5,-29.751 356,-19.7511 352.5,-29.7511 359.5,-29.751"/>
</g>
<!-- Node21&#45;&gt;Node17 -->
<g id="edge21" class="edge"><title>Node21&#45;&gt;Node17</title>
<path fill="none" stroke="midnightblue" d="M706.407,-112.324C717.109,-104.185 733.341,-91.8395 746.163,-82.0874"/>
<polygon fill="midnightblue" stroke="midnightblue" points="748.544,-84.6734 754.385,-75.8339 744.307,-79.1018 748.544,-84.6734"/>
</g>
<!-- Node21&#45;&gt;Node19 -->
<g id="edge22" class="edge"><title>Node21&#45;&gt;Node19</title>
<path fill="none" stroke="midnightblue" d="M669.236,-114.917C664.513,-113.883 659.617,-112.866 655,-112 560.239,-94.2323 447.549,-78.7969 391.43,-71.4925"/>
<polygon fill="midnightblue" stroke="midnightblue" points="391.671,-67.9946 381.304,-70.1831 390.773,-74.9367 391.671,-67.9946"/>
</g>
<!-- Node22 -->
<g id="node22" class="node"><title>Node22</title>
<g id="a_node22"><a xlink:href="_should_delete_8h.html" target="_top" xlink:title="ShouldDelete.h">
<polygon fill="none" stroke="black" points="636.5,-56.5 636.5,-75.5 719.5,-75.5 719.5,-56.5 636.5,-56.5"/>
<text text-anchor="middle" x="678" y="-63.5" font-family="Helvetica,sans-Serif" font-size="10.00">ShouldDelete.h</text>
</a>
</g>
</g>
<!-- Node21&#45;&gt;Node22 -->
<g id="edge23" class="edge"><title>Node21&#45;&gt;Node22</title>
<path fill="none" stroke="midnightblue" d="M692.193,-112.083C689.915,-104.849 686.629,-94.4087 683.792,-85.3968"/>
<polygon fill="midnightblue" stroke="midnightblue" points="687.096,-84.2385 680.755,-75.7511 680.419,-86.3406 687.096,-84.2385"/>
</g>
<!-- Node23&#45;&gt;Node9 -->
<g id="edge27" class="edge"><title>Node23&#45;&gt;Node9</title>
<path fill="none" stroke="midnightblue" d="M478,-168.083C478,-161.006 478,-150.861 478,-141.986"/>
<polygon fill="midnightblue" stroke="midnightblue" points="481.5,-141.751 478,-131.751 474.5,-141.751 481.5,-141.751"/>
</g>
<!-- Node23&#45;&gt;Node17 -->
<g id="edge28" class="edge"><title>Node23&#45;&gt;Node17</title>
<path fill="none" stroke="midnightblue" d="M506.177,-174.942C563.95,-170.251 693.392,-157.172 729,-132 744.87,-120.781 754.83,-100.462 760.367,-85.5189"/>
<polygon fill="midnightblue" stroke="midnightblue" points="763.767,-86.3889 763.637,-75.7948 757.132,-84.1573 763.767,-86.3889"/>
</g>
<!-- Node23&#45;&gt;Node18 -->
<g id="edge29" class="edge"><title>Node23&#45;&gt;Node18</title>
<path fill="none" stroke="midnightblue" d="M494.549,-168.324C510.992,-159.703 536.435,-146.364 555.468,-136.386"/>
<polygon fill="midnightblue" stroke="midnightblue" points="557.261,-139.398 564.492,-131.655 554.011,-133.198 557.261,-139.398"/>
</g>
<!-- Node23&#45;&gt;Node19 -->
<g id="edge30" class="edge"><title>Node23&#45;&gt;Node19</title>
<path fill="none" stroke="midnightblue" d="M449.975,-169.812C411.34,-159.625 345.695,-141.205 339,-132 328.854,-118.051 336.102,-98.5288 344.034,-84.5261"/>
<polygon fill="midnightblue" stroke="midnightblue" points="347.121,-86.1904 349.43,-75.8502 341.176,-82.4936 347.121,-86.1904"/>
</g>
<!-- Node23&#45;&gt;Node21 -->
<g id="edge40" class="edge"><title>Node23&#45;&gt;Node21</title>
<path fill="none" stroke="midnightblue" d="M506.369,-169.94C545.721,-160.148 616.848,-142.448 659.62,-131.804"/>
<polygon fill="midnightblue" stroke="midnightblue" points="660.47,-135.2 669.329,-129.388 658.78,-128.407 660.47,-135.2"/>
</g>
<!-- Node24 -->
<g id="node24" class="node"><title>Node24</title>
<polygon fill="none" stroke="#bfbfbf" points="347.5,-112.5 347.5,-131.5 406.5,-131.5 406.5,-112.5 347.5,-112.5"/>
<text text-anchor="middle" x="377" y="-119.5" font-family="Helvetica,sans-Serif" font-size="10.00">stdexcept</text>
</g>
<!-- Node23&#45;&gt;Node24 -->
<g id="edge26" class="edge"><title>Node23&#45;&gt;Node24</title>
<path fill="none" stroke="midnightblue" d="M461.773,-168.324C445.649,-159.703 420.7,-146.364 402.036,-136.386"/>
<polygon fill="midnightblue" stroke="midnightblue" points="403.656,-133.283 393.187,-131.655 400.356,-139.456 403.656,-133.283"/>
</g>
<!-- Node25 -->
<g id="node25" class="node"><title>Node25</title>
<g id="a_node25"><a xlink:href="_module_8h.html" target="_top" xlink:title="Module.h">
<polygon fill="none" stroke="black" points="197,-112.5 197,-131.5 253,-131.5 253,-112.5 197,-112.5"/>
<text text-anchor="middle" x="225" y="-119.5" font-family="Helvetica,sans-Serif" font-size="10.00">Module.h</text>
</a>
</g>
</g>
<!-- Node23&#45;&gt;Node25 -->
<g id="edge31" class="edge"><title>Node23&#45;&gt;Node25</title>
<path fill="none" stroke="midnightblue" d="M449.797,-170.234C446.497,-169.468 443.176,-168.708 440,-168 378.278,-154.234 306.305,-139.42 263.26,-130.693"/>
<polygon fill="midnightblue" stroke="midnightblue" points="263.72,-127.215 253.225,-128.662 262.332,-134.076 263.72,-127.215"/>
</g>
<!-- Node25&#45;&gt;Node19 -->
<g id="edge36" class="edge"><title>Node25&#45;&gt;Node19</title>
<path fill="none" stroke="midnightblue" d="M245.757,-112.444C267.316,-103.557 301.263,-89.5632 325.794,-79.4514"/>
<polygon fill="midnightblue" stroke="midnightblue" points="327.428,-82.5634 335.34,-75.5164 324.761,-76.0917 327.428,-82.5634"/>
</g>
<!-- Node26 -->
<g id="node26" class="node"><title>Node26</title>
<polygon fill="none" stroke="#bfbfbf" points="193.5,-0.5 193.5,-19.5 266.5,-19.5 266.5,-0.5 193.5,-0.5"/>
<text text-anchor="middle" x="230" y="-7.5" font-family="Helvetica,sans-Serif" font-size="10.00">event2/dns.h</text>
</g>
<!-- Node25&#45;&gt;Node26 -->
<g id="edge32" class="edge"><title>Node25&#45;&gt;Node26</title>
<path fill="none" stroke="midnightblue" d="M243.984,-112.398C257.886,-104.954 275.714,-92.741 284,-76 293.776,-56.2495 273.488,-37.2979 255.051,-25.0075"/>
<polygon fill="midnightblue" stroke="midnightblue" points="256.891,-22.0303 246.557,-19.6927 253.178,-27.9643 256.891,-22.0303"/>
</g>
<!-- Node27 -->
<g id="node27" class="node"><title>Node27</title>
<polygon fill="none" stroke="#bfbfbf" points="43.5,-0.5 43.5,-19.5 124.5,-19.5 124.5,-0.5 43.5,-0.5"/>
<text text-anchor="middle" x="84" y="-7.5" font-family="Helvetica,sans-Serif" font-size="10.00">event2/event.h</text>
</g>
<!-- Node25&#45;&gt;Node27 -->
<g id="edge33" class="edge"><title>Node25&#45;&gt;Node27</title>
<path fill="none" stroke="midnightblue" d="M196.958,-121.712C162.118,-120.887 103.871,-113.531 76,-76 66.0609,-62.6157 70.1315,-43.2402 75.424,-29.1271"/>
<polygon fill="midnightblue" stroke="midnightblue" points="78.8055,-30.1191 79.4977,-19.5469 72.3636,-27.3799 78.8055,-30.1191"/>
</g>
<!-- Node28 -->
<g id="node28" class="node"><title>Node28</title>
<polygon fill="none" stroke="#bfbfbf" points="153.5,-56.5 153.5,-75.5 226.5,-75.5 226.5,-56.5 153.5,-56.5"/>
<text text-anchor="middle" x="190" y="-63.5" font-family="Helvetica,sans-Serif" font-size="10.00">libconfig.h++</text>
</g>
<!-- Node25&#45;&gt;Node28 -->
<g id="edge34" class="edge"><title>Node25&#45;&gt;Node28</title>
<path fill="none" stroke="midnightblue" d="M219.22,-112.083C214.328,-104.534 207.173,-93.4948 201.167,-84.2298"/>
<polygon fill="midnightblue" stroke="midnightblue" points="204.048,-82.239 195.672,-75.7511 198.174,-86.0463 204.048,-82.239"/>
</g>
<!-- Node29 -->
<g id="node29" class="node"><title>Node29</title>
<polygon fill="none" stroke="#bfbfbf" points="245,-56.5 245,-75.5 275,-75.5 275,-56.5 245,-56.5"/>
<text text-anchor="middle" x="260" y="-63.5" font-family="Helvetica,sans-Serif" font-size="10.00">set</text>
</g>
<!-- Node25&#45;&gt;Node29 -->
<g id="edge35" class="edge"><title>Node25&#45;&gt;Node29</title>
<path fill="none" stroke="midnightblue" d="M230.78,-112.083C235.672,-104.534 242.827,-93.4948 248.833,-84.2298"/>
<polygon fill="midnightblue" stroke="midnightblue" points="251.826,-86.0463 254.328,-75.7511 245.952,-82.239 251.826,-86.0463"/>
</g>
<!-- Node30 -->
<g id="node30" class="node"><title>Node30</title>
<g id="a_node30"><a xlink:href="_event_8h.html" target="_top" xlink:title="Event.h">
<polygon fill="none" stroke="black" points="85,-56.5 85,-75.5 135,-75.5 135,-56.5 85,-56.5"/>
<text text-anchor="middle" x="110" y="-63.5" font-family="Helvetica,sans-Serif" font-size="10.00">Event.h</text>
</a>
</g>
</g>
<!-- Node25&#45;&gt;Node30 -->
<g id="edge37" class="edge"><title>Node25&#45;&gt;Node30</title>
<path fill="none" stroke="midnightblue" d="M206.778,-112.444C188.104,-103.675 158.844,-89.9355 137.383,-79.8579"/>
<polygon fill="midnightblue" stroke="midnightblue" points="138.676,-76.5988 128.137,-75.5164 135.701,-82.935 138.676,-76.5988"/>
</g>
<!-- Node30&#45;&gt;Node26 -->
<g id="edge38" class="edge"><title>Node30&#45;&gt;Node26</title>
<path fill="none" stroke="midnightblue" d="M129.014,-56.4435C148.588,-47.6356 179.308,-33.8116 201.729,-23.722"/>
<polygon fill="midnightblue" stroke="midnightblue" points="203.392,-26.8119 211.075,-19.5164 200.519,-20.4284 203.392,-26.8119"/>
</g>
<!-- Node30&#45;&gt;Node27 -->
<g id="edge39" class="edge"><title>Node30&#45;&gt;Node27</title>
<path fill="none" stroke="midnightblue" d="M105.707,-56.083C102.148,-48.6913 96.9775,-37.9533 92.5757,-28.8111"/>
<polygon fill="midnightblue" stroke="midnightblue" points="95.7052,-27.2427 88.2135,-19.7511 89.3982,-30.2795 95.7052,-27.2427"/>
</g>
</g>
</svg>
