<?xml version="1.0" encoding="UTF-8" standalone="no"?>
<!DOCTYPE svg PUBLIC "-//W3C//DTD SVG 1.1//EN"
 "http://www.w3.org/Graphics/SVG/1.1/DTD/svg11.dtd">
<!-- Generated by graphviz version 2.34.0 (20140110.0949)
 -->
<!-- Title: include/Listener.h Pages: 1 -->
<svg width="723pt" height="264pt"
 viewBox="0.00 0.00 723.00 264.00" xmlns="http://www.w3.org/2000/svg" xmlns:xlink="http://www.w3.org/1999/xlink">
<g id="graph0" class="graph" transform="scale(1 1) rotate(0) translate(4 260)">
<title>include/Listener.h</title>
<!-- Node1 -->
<g id="node1" class="node"><title>Node1</title>
<polygon fill="#bfbfbf" stroke="black" points="157.5,-236.5 157.5,-255.5 250.5,-255.5 250.5,-236.5 157.5,-236.5"/>
<text text-anchor="middle" x="204" y="-243.5" font-family="Helvetica,sans-Serif" font-size="10.00">include/Listener.h</text>
</g>
<!-- Node2 -->
<g id="node2" class="node"><title>Node2</title>
<polygon fill="none" stroke="#bfbfbf" points="-0.5,-174.5 -0.5,-193.5 48.5,-193.5 48.5,-174.5 -0.5,-174.5"/>
<text text-anchor="middle" x="24" y="-181.5" font-family="Helvetica,sans-Serif" font-size="10.00">stdint.h</text>
</g>
<!-- Node1&#45;&gt;Node2 -->
<g id="edge1" class="edge"><title>Node1&#45;&gt;Node2</title>
<path fill="none" stroke="midnightblue" d="M172.602,-236.469C142.794,-228.101 96.8892,-214.515 58,-200 56.096,-199.289 54.1458,-198.526 52.1896,-197.735"/>
<polygon fill="midnightblue" stroke="midnightblue" points="53.1176,-194.327 42.5445,-193.648 50.3867,-200.772 53.1176,-194.327"/>
</g>
<!-- Node3 -->
<g id="node3" class="node"><title>Node3</title>
<polygon fill="none" stroke="#bfbfbf" points="67,-174.5 67,-193.5 141,-193.5 141,-174.5 67,-174.5"/>
<text text-anchor="middle" x="104" y="-181.5" font-family="Helvetica,sans-Serif" font-size="10.00">openssl/ssl.h</text>
</g>
<!-- Node1&#45;&gt;Node3 -->
<g id="edge2" class="edge"><title>Node1&#45;&gt;Node3</title>
<path fill="none" stroke="midnightblue" d="M189.672,-236.403C173.336,-226.601 146.398,-210.439 127.088,-198.853"/>
<polygon fill="midnightblue" stroke="midnightblue" points="128.677,-195.724 118.301,-193.581 125.075,-201.727 128.677,-195.724"/>
</g>
<!-- Node4 -->
<g id="node4" class="node"><title>Node4</title>
<polygon fill="none" stroke="#bfbfbf" points="159.5,-174.5 159.5,-193.5 248.5,-193.5 248.5,-174.5 159.5,-174.5"/>
<text text-anchor="middle" x="204" y="-181.5" font-family="Helvetica,sans-Serif" font-size="10.00">event2/listener.h</text>
</g>
<!-- Node1&#45;&gt;Node4 -->
<g id="edge3" class="edge"><title>Node1&#45;&gt;Node4</title>
<path fill="none" stroke="midnightblue" d="M204,-236.403C204,-227.938 204,-214.728 204,-203.82"/>
<polygon fill="midnightblue" stroke="midnightblue" points="207.5,-203.581 204,-193.581 200.5,-203.581 207.5,-203.581"/>
</g>
<!-- Node5 -->
<g id="node5" class="node"><title>Node5</title>
<polygon fill="none" stroke="#bfbfbf" points="267,-169 267,-199 365,-199 365,-169 267,-169"/>
<text text-anchor="start" x="275" y="-187" font-family="Helvetica,sans-Serif" font-size="10.00">event2/bufferevent</text>
<text text-anchor="middle" x="316" y="-176" font-family="Helvetica,sans-Serif" font-size="10.00">_ssl.h</text>
</g>
<!-- Node1&#45;&gt;Node5 -->
<g id="edge4" class="edge"><title>Node1&#45;&gt;Node5</title>
<path fill="none" stroke="midnightblue" d="M220.047,-236.403C235.783,-227.974 260.301,-214.839 280.614,-203.957"/>
<polygon fill="midnightblue" stroke="midnightblue" points="282.442,-206.948 289.604,-199.141 279.136,-200.778 282.442,-206.948"/>
</g>
<!-- Node6 -->
<g id="node6" class="node"><title>Node6</title>
<g id="a_node6"><a xlink:href="_socket_8h.html" target="_top" xlink:title="Socket.h">
<polygon fill="none" stroke="black" points="383,-174.5 383,-193.5 439,-193.5 439,-174.5 383,-174.5"/>
<text text-anchor="middle" x="411" y="-181.5" font-family="Helvetica,sans-Serif" font-size="10.00">Socket.h</text>
</a>
</g>
</g>
<!-- Node1&#45;&gt;Node6 -->
<g id="edge5" class="edge"><title>Node1&#45;&gt;Node6</title>
<path fill="none" stroke="midnightblue" d="M241.879,-236.427C276.599,-228.226 329.254,-214.926 374,-200 376.562,-199.145 379.202,-198.203 381.836,-197.22"/>
<polygon fill="midnightblue" stroke="midnightblue" points="383.16,-200.461 391.202,-193.564 380.614,-193.94 383.16,-200.461"/>
</g>
<!-- Node7 -->
<g id="node7" class="node"><title>Node7</title>
<polygon fill="none" stroke="#bfbfbf" points="179,-112.5 179,-131.5 285,-131.5 285,-112.5 179,-112.5"/>
<text text-anchor="middle" x="232" y="-119.5" font-family="Helvetica,sans-Serif" font-size="10.00">event2/bufferevent.h</text>
</g>
<!-- Node6&#45;&gt;Node7 -->
<g id="edge6" class="edge"><title>Node6&#45;&gt;Node7</title>
<path fill="none" stroke="midnightblue" d="M390.754,-174.459C385.344,-172.269 379.477,-169.975 374,-168 339.507,-155.564 299.664,-143.1 270.978,-134.453"/>
<polygon fill="midnightblue" stroke="midnightblue" points="271.907,-131.078 261.323,-131.561 269.898,-137.784 271.907,-131.078"/>
</g>
<!-- Node8 -->
<g id="node8" class="node"><title>Node8</title>
<g id="a_node8"><a xlink:href="defines_8h.html" target="_top" xlink:title="defines.h">
<polygon fill="none" stroke="black" points="289,-56.5 289,-75.5 345,-75.5 345,-56.5 289,-56.5"/>
<text text-anchor="middle" x="317" y="-63.5" font-family="Helvetica,sans-Serif" font-size="10.00">defines.h</text>
</a>
</g>
</g>
<!-- Node6&#45;&gt;Node8 -->
<g id="edge7" class="edge"><title>Node6&#45;&gt;Node8</title>
<path fill="none" stroke="midnightblue" d="M389.528,-174.359C371.725,-166.095 347.126,-151.933 333,-132 323.445,-118.518 319.569,-99.9604 318.01,-86.1245"/>
<polygon fill="midnightblue" stroke="midnightblue" points="321.472,-85.5111 317.172,-75.8279 314.495,-86.0788 321.472,-85.5111"/>
</g>
<!-- Node9 -->
<g id="node9" class="node"><title>Node9</title>
<g id="a_node9"><a xlink:href="_closable_8h.html" target="_top" xlink:title="Closable.h">
<polygon fill="none" stroke="black" points="341.5,-112.5 341.5,-131.5 404.5,-131.5 404.5,-112.5 341.5,-112.5"/>
<text text-anchor="middle" x="373" y="-119.5" font-family="Helvetica,sans-Serif" font-size="10.00">Closable.h</text>
</a>
</g>
</g>
<!-- Node6&#45;&gt;Node9 -->
<g id="edge8" class="edge"><title>Node6&#45;&gt;Node9</title>
<path fill="none" stroke="midnightblue" d="M405.556,-174.403C399.912,-165.493 390.939,-151.325 383.841,-140.118"/>
<polygon fill="midnightblue" stroke="midnightblue" points="386.742,-138.156 378.434,-131.581 380.828,-141.901 386.742,-138.156"/>
</g>
<!-- Node10 -->
<g id="node10" class="node"><title>Node10</title>
<g id="a_node10"><a xlink:href="_string_8h.html" target="_top" xlink:title="String.h">
<polygon fill="none" stroke="black" points="473,-56.5 473,-75.5 523,-75.5 523,-56.5 473,-56.5"/>
<text text-anchor="middle" x="498" y="-63.5" font-family="Helvetica,sans-Serif" font-size="10.00">String.h</text>
</a>
</g>
</g>
<!-- Node6&#45;&gt;Node10 -->
<g id="edge9" class="edge"><title>Node6&#45;&gt;Node10</title>
<path fill="none" stroke="midnightblue" d="M429.597,-174.383C445.873,-165.884 468.907,-151.361 482,-132 491.257,-118.312 495.167,-99.7771 496.814,-86.0022"/>
<polygon fill="midnightblue" stroke="midnightblue" points="500.325,-86.0345 497.732,-75.7617 493.353,-85.4089 500.325,-86.0345"/>
</g>
<!-- Node12 -->
<g id="node12" class="node"><title>Node12</title>
<g id="a_node12"><a xlink:href="_module_8h.html" target="_top" xlink:title="Module.h">
<polygon fill="none" stroke="black" points="553,-112.5 553,-131.5 609,-131.5 609,-112.5 553,-112.5"/>
<text text-anchor="middle" x="581" y="-119.5" font-family="Helvetica,sans-Serif" font-size="10.00">Module.h</text>
</a>
</g>
</g>
<!-- Node6&#45;&gt;Node12 -->
<g id="edge11" class="edge"><title>Node6&#45;&gt;Node12</title>
<path fill="none" stroke="midnightblue" d="M435.357,-174.403C464.644,-164.067 513.974,-146.656 547.002,-134.999"/>
<polygon fill="midnightblue" stroke="midnightblue" points="548.423,-138.209 556.688,-131.581 546.094,-131.608 548.423,-138.209"/>
</g>
<!-- Node17 -->
<g id="node17" class="node"><title>Node17</title>
<g id="a_node17"><a xlink:href="_writer_8h.html" target="_top" xlink:title="Writer.h">
<polygon fill="none" stroke="black" points="422.5,-112.5 422.5,-131.5 473.5,-131.5 473.5,-112.5 422.5,-112.5"/>
<text text-anchor="middle" x="448" y="-119.5" font-family="Helvetica,sans-Serif" font-size="10.00">Writer.h</text>
</a>
</g>
</g>
<!-- Node6&#45;&gt;Node17 -->
<g id="edge19" class="edge"><title>Node6&#45;&gt;Node17</title>
<path fill="none" stroke="midnightblue" d="M416.301,-174.403C421.796,-165.493 430.533,-151.325 437.444,-140.118"/>
<polygon fill="midnightblue" stroke="midnightblue" points="440.439,-141.929 442.709,-131.581 434.481,-138.255 440.439,-141.929"/>
</g>
<!-- Node11 -->
<g id="node11" class="node"><title>Node11</title>
<polygon fill="none" stroke="#bfbfbf" points="466.5,-0.5 466.5,-19.5 507.5,-19.5 507.5,-0.5 466.5,-0.5"/>
<text text-anchor="middle" x="487" y="-7.5" font-family="Helvetica,sans-Serif" font-size="10.00">string</text>
</g>
<!-- Node10&#45;&gt;Node11 -->
<g id="edge10" class="edge"><title>Node10&#45;&gt;Node11</title>
<path fill="none" stroke="midnightblue" d="M496.184,-56.083C494.726,-48.9272 492.629,-38.6353 490.807,-29.6911"/>
<polygon fill="midnightblue" stroke="midnightblue" points="494.208,-28.8512 488.783,-19.7511 487.349,-30.2485 494.208,-28.8512"/>
</g>
<!-- Node12&#45;&gt;Node10 -->
<g id="edge15" class="edge"><title>Node12&#45;&gt;Node10</title>
<path fill="none" stroke="midnightblue" d="M567.665,-112.324C554.838,-103.979 535.215,-91.2122 520.06,-81.3524"/>
<polygon fill="midnightblue" stroke="midnightblue" points="521.593,-78.1742 511.302,-75.6545 517.776,-84.0417 521.593,-78.1742"/>
</g>
<!-- Node13 -->
<g id="node13" class="node"><title>Node13</title>
<polygon fill="none" stroke="#bfbfbf" points="525.5,-0.5 525.5,-19.5 598.5,-19.5 598.5,-0.5 525.5,-0.5"/>
<text text-anchor="middle" x="562" y="-7.5" font-family="Helvetica,sans-Serif" font-size="10.00">event2/dns.h</text>
</g>
<!-- Node12&#45;&gt;Node13 -->
<g id="edge12" class="edge"><title>Node12&#45;&gt;Node13</title>
<path fill="none" stroke="midnightblue" d="M578.589,-112.438C576.128,-103.432 572.347,-88.8158 570,-76 567.181,-60.6029 565.08,-42.9678 563.74,-29.9548"/>
<polygon fill="midnightblue" stroke="midnightblue" points="567.212,-29.4953 562.76,-19.8813 560.245,-30.1733 567.212,-29.4953"/>
</g>
<!-- Node14 -->
<g id="node14" class="node"><title>Node14</title>
<polygon fill="none" stroke="#bfbfbf" points="616.5,-0.5 616.5,-19.5 697.5,-19.5 697.5,-0.5 616.5,-0.5"/>
<text text-anchor="middle" x="657" y="-7.5" font-family="Helvetica,sans-Serif" font-size="10.00">event2/event.h</text>
</g>
<!-- Node12&#45;&gt;Node14 -->
<g id="edge13" class="edge"><title>Node12&#45;&gt;Node14</title>
<path fill="none" stroke="midnightblue" d="M596.528,-112.465C609.435,-104.603 627.353,-91.783 638,-76 647.348,-62.1414 652.174,-43.6255 654.616,-29.9012"/>
<polygon fill="midnightblue" stroke="midnightblue" points="658.123,-30.1174 656.155,-19.707 651.201,-29.0728 658.123,-30.1174"/>
</g>
<!-- Node15 -->
<g id="node15" class="node"><title>Node15</title>
<polygon fill="none" stroke="#bfbfbf" points="685,-56.5 685,-75.5 715,-75.5 715,-56.5 685,-56.5"/>
<text text-anchor="middle" x="700" y="-63.5" font-family="Helvetica,sans-Serif" font-size="10.00">set</text>
</g>
<!-- Node12&#45;&gt;Node15 -->
<g id="edge14" class="edge"><title>Node12&#45;&gt;Node15</title>
<path fill="none" stroke="midnightblue" d="M599.856,-112.444C620.294,-103.169 652.987,-88.3338 675.424,-78.1522"/>
<polygon fill="midnightblue" stroke="midnightblue" points="676.978,-81.2905 684.638,-73.971 674.085,-74.9161 676.978,-81.2905"/>
</g>
<!-- Node16 -->
<g id="node16" class="node"><title>Node16</title>
<g id="a_node16"><a xlink:href="_event_8h.html" target="_top" xlink:title="Event.h">
<polygon fill="none" stroke="black" points="579,-56.5 579,-75.5 629,-75.5 629,-56.5 579,-56.5"/>
<text text-anchor="middle" x="604" y="-63.5" font-family="Helvetica,sans-Serif" font-size="10.00">Event.h</text>
</a>
</g>
</g>
<!-- Node12&#45;&gt;Node16 -->
<g id="edge16" class="edge"><title>Node12&#45;&gt;Node16</title>
<path fill="none" stroke="midnightblue" d="M584.798,-112.083C587.913,-104.77 592.423,-94.1814 596.289,-85.1034"/>
<polygon fill="midnightblue" stroke="midnightblue" points="599.574,-86.3229 600.273,-75.7511 593.134,-83.5798 599.574,-86.3229"/>
</g>
<!-- Node16&#45;&gt;Node13 -->
<g id="edge17" class="edge"><title>Node16&#45;&gt;Node13</title>
<path fill="none" stroke="midnightblue" d="M597.065,-56.083C591.071,-48.3768 582.248,-37.0333 574.952,-27.6531"/>
<polygon fill="midnightblue" stroke="midnightblue" points="577.709,-25.4958 568.806,-19.7511 572.183,-29.7934 577.709,-25.4958"/>
</g>
<!-- Node16&#45;&gt;Node14 -->
<g id="edge18" class="edge"><title>Node16&#45;&gt;Node14</title>
<path fill="none" stroke="midnightblue" d="M612.752,-56.083C620.47,-48.2195 631.905,-36.5688 641.217,-27.0813"/>
<polygon fill="midnightblue" stroke="midnightblue" points="643.904,-29.3396 648.411,-19.7511 638.908,-24.4363 643.904,-29.3396"/>
</g>
<!-- Node17&#45;&gt;Node8 -->
<g id="edge20" class="edge"><title>Node17&#45;&gt;Node8</title>
<path fill="none" stroke="midnightblue" d="M427.243,-112.444C405.684,-103.557 371.737,-89.5632 347.206,-79.4514"/>
<polygon fill="midnightblue" stroke="midnightblue" points="348.239,-76.0917 337.66,-75.5164 345.572,-82.5634 348.239,-76.0917"/>
</g>
<!-- Node17&#45;&gt;Node10 -->
<g id="edge21" class="edge"><title>Node17&#45;&gt;Node10</title>
<path fill="none" stroke="midnightblue" d="M456.256,-112.083C463.465,-104.298 474.11,-92.8015 482.846,-83.3665"/>
<polygon fill="midnightblue" stroke="midnightblue" points="485.671,-85.4666 489.897,-75.7511 480.535,-80.7108 485.671,-85.4666"/>
</g>
<!-- Node18 -->
<g id="node18" class="node"><title>Node18</title>
<g id="a_node18"><a xlink:href="_should_delete_8h.html" target="_top" xlink:title="ShouldDelete.h">
<polygon fill="none" stroke="black" points="371.5,-56.5 371.5,-75.5 454.5,-75.5 454.5,-56.5 371.5,-56.5"/>
<text text-anchor="middle" x="413" y="-63.5" font-family="Helvetica,sans-Serif" font-size="10.00">ShouldDelete.h</text>
</a>
</g>
</g>
<!-- Node17&#45;&gt;Node18 -->
<g id="edge22" class="edge"><title>Node17&#45;&gt;Node18</title>
<path fill="none" stroke="midnightblue" d="M442.22,-112.083C437.328,-104.534 430.173,-93.4948 424.167,-84.2298"/>
<polygon fill="midnightblue" stroke="midnightblue" points="427.048,-82.239 418.672,-75.7511 421.174,-86.0463 427.048,-82.239"/>
</g>
</g>
</svg>
