<?xml version="1.0" encoding="UTF-8" standalone="no"?>
<!DOCTYPE svg PUBLIC "-//W3C//DTD SVG 1.1//EN"
 "http://www.w3.org/Graphics/SVG/1.1/DTD/svg11.dtd">
<!-- Generated by graphviz version 2.34.0 (20140110.0949)
 -->
<!-- Title: include/Listener.h Pages: 1 -->
<svg width="814pt" height="264pt"
 viewBox="0.00 0.00 814.00 264.00" xmlns="http://www.w3.org/2000/svg" xmlns:xlink="http://www.w3.org/1999/xlink">
<g id="graph0" class="graph" transform="scale(1 1) rotate(0) translate(4 260)">
<title>include/Listener.h</title>
<!-- Node1 -->
<g id="node1" class="node"><title>Node1</title>
<polygon fill="#bfbfbf" stroke="black" points="157.5,-236.5 157.5,-255.5 250.5,-255.5 250.5,-236.5 157.5,-236.5"/>
<text text-anchor="middle" x="204" y="-243.5" font-family="Helvetica,sans-Serif" font-size="10.00">include/Listener.h</text>
</g>
<!-- Node2 -->
<g id="node2" class="node"><title>Node2</title>
<polygon fill="none" stroke="#bfbfbf" points="-0.5,-174.5 -0.5,-193.5 48.5,-193.5 48.5,-174.5 -0.5,-174.5"/>
<text text-anchor="middle" x="24" y="-181.5" font-family="Helvetica,sans-Serif" font-size="10.00">stdint.h</text>
</g>
<!-- Node1&#45;&gt;Node2 -->
<g id="edge1" class="edge"><title>Node1&#45;&gt;Node2</title>
<path fill="none" stroke="midnightblue" d="M172.602,-236.469C142.794,-228.101 96.8892,-214.515 58,-200 56.096,-199.289 54.1458,-198.526 52.1896,-197.735"/>
<polygon fill="midnightblue" stroke="midnightblue" points="53.1176,-194.327 42.5445,-193.648 50.3867,-200.772 53.1176,-194.327"/>
</g>
<!-- Node3 -->
<g id="node3" class="node"><title>Node3</title>
<polygon fill="none" stroke="#bfbfbf" points="67,-174.5 67,-193.5 141,-193.5 141,-174.5 67,-174.5"/>
<text text-anchor="middle" x="104" y="-181.5" font-family="Helvetica,sans-Serif" font-size="10.00">openssl/ssl.h</text>
</g>
<!-- Node1&#45;&gt;Node3 -->
<g id="edge2" class="edge"><title>Node1&#45;&gt;Node3</title>
<path fill="none" stroke="midnightblue" d="M189.672,-236.403C173.336,-226.601 146.398,-210.439 127.088,-198.853"/>
<polygon fill="midnightblue" stroke="midnightblue" points="128.677,-195.724 118.301,-193.581 125.075,-201.727 128.677,-195.724"/>
</g>
<!-- Node4 -->
<g id="node4" class="node"><title>Node4</title>
<polygon fill="none" stroke="#bfbfbf" points="159.5,-174.5 159.5,-193.5 248.5,-193.5 248.5,-174.5 159.5,-174.5"/>
<text text-anchor="middle" x="204" y="-181.5" font-family="Helvetica,sans-Serif" font-size="10.00">event2/listener.h</text>
</g>
<!-- Node1&#45;&gt;Node4 -->
<g id="edge3" class="edge"><title>Node1&#45;&gt;Node4</title>
<path fill="none" stroke="midnightblue" d="M204,-236.403C204,-227.938 204,-214.728 204,-203.82"/>
<polygon fill="midnightblue" stroke="midnightblue" points="207.5,-203.581 204,-193.581 200.5,-203.581 207.5,-203.581"/>
</g>
<!-- Node5 -->
<g id="node5" class="node"><title>Node5</title>
<polygon fill="none" stroke="#bfbfbf" points="267,-169 267,-199 365,-199 365,-169 267,-169"/>
<text text-anchor="start" x="275" y="-187" font-family="Helvetica,sans-Serif" font-size="10.00">event2/bufferevent</text>
<text text-anchor="middle" x="316" y="-176" font-family="Helvetica,sans-Serif" font-size="10.00">_ssl.h</text>
</g>
<!-- Node1&#45;&gt;Node5 -->
<g id="edge4" class="edge"><title>Node1&#45;&gt;Node5</title>
<path fill="none" stroke="midnightblue" d="M220.047,-236.403C235.783,-227.974 260.301,-214.839 280.614,-203.957"/>
<polygon fill="midnightblue" stroke="midnightblue" points="282.442,-206.948 289.604,-199.141 279.136,-200.778 282.442,-206.948"/>
</g>
<!-- Node6 -->
<g id="node6" class="node"><title>Node6</title>
<g id="a_node6"><a xlink:href="_socket_8h.html" target="_top" xlink:title="Socket.h">
<polygon fill="none" stroke="black" points="383,-174.5 383,-193.5 439,-193.5 439,-174.5 383,-174.5"/>
<text text-anchor="middle" x="411" y="-181.5" font-family="Helvetica,sans-Serif" font-size="10.00">Socket.h</text>
</a>
</g>
</g>
<!-- Node1&#45;&gt;Node6 -->
<g id="edge5" class="edge"><title>Node1&#45;&gt;Node6</title>
<path fill="none" stroke="midnightblue" d="M241.879,-236.427C276.599,-228.226 329.254,-214.926 374,-200 376.562,-199.145 379.202,-198.203 381.836,-197.22"/>
<polygon fill="midnightblue" stroke="midnightblue" points="383.16,-200.461 391.202,-193.564 380.614,-193.94 383.16,-200.461"/>
</g>
<!-- Node7 -->
<g id="node7" class="node"><title>Node7</title>
<polygon fill="none" stroke="#bfbfbf" points="179,-112.5 179,-131.5 285,-131.5 285,-112.5 179,-112.5"/>
<text text-anchor="middle" x="232" y="-119.5" font-family="Helvetica,sans-Serif" font-size="10.00">event2/bufferevent.h</text>
</g>
<!-- Node6&#45;&gt;Node7 -->
<g id="edge6" class="edge"><title>Node6&#45;&gt;Node7</title>
<path fill="none" stroke="midnightblue" d="M390.754,-174.459C385.344,-172.269 379.477,-169.975 374,-168 339.507,-155.564 299.664,-143.1 270.978,-134.453"/>
<polygon fill="midnightblue" stroke="midnightblue" points="271.907,-131.078 261.323,-131.561 269.898,-137.784 271.907,-131.078"/>
</g>
<!-- Node8 -->
<g id="node8" class="node"><title>Node8</title>
<g id="a_node8"><a xlink:href="defines_8h.html" target="_top" xlink:title="defines.h">
<polygon fill="none" stroke="black" points="289,-56.5 289,-75.5 345,-75.5 345,-56.5 289,-56.5"/>
<text text-anchor="middle" x="317" y="-63.5" font-family="Helvetica,sans-Serif" font-size="10.00">defines.h</text>
</a>
</g>
</g>
<!-- Node6&#45;&gt;Node8 -->
<g id="edge7" class="edge"><title>Node6&#45;&gt;Node8</title>
<path fill="none" stroke="midnightblue" d="M389.528,-174.359C371.725,-166.095 347.126,-151.933 333,-132 323.445,-118.518 319.569,-99.9604 318.01,-86.1245"/>
<polygon fill="midnightblue" stroke="midnightblue" points="321.472,-85.5111 317.172,-75.8279 314.495,-86.0788 321.472,-85.5111"/>
</g>
<!-- Node9 -->
<g id="node9" class="node"><title>Node9</title>
<g id="a_node9"><a xlink:href="_closable_8h.html" target="_top" xlink:title="Closable.h">
<polygon fill="none" stroke="black" points="341.5,-112.5 341.5,-131.5 404.5,-131.5 404.5,-112.5 341.5,-112.5"/>
<text text-anchor="middle" x="373" y="-119.5" font-family="Helvetica,sans-Serif" font-size="10.00">Closable.h</text>
</a>
</g>
</g>
<!-- Node6&#45;&gt;Node9 -->
<g id="edge8" class="edge"><title>Node6&#45;&gt;Node9</title>
<path fill="none" stroke="midnightblue" d="M405.556,-174.403C399.912,-165.493 390.939,-151.325 383.841,-140.118"/>
<polygon fill="midnightblue" stroke="midnightblue" points="386.742,-138.156 378.434,-131.581 380.828,-141.901 386.742,-138.156"/>
</g>
<!-- Node10 -->
<g id="node10" class="node"><title>Node10</title>
<g id="a_node10"><a xlink:href="_string_8h.html" target="_top" xlink:title="String.h">
<polygon fill="none" stroke="black" points="473,-56.5 473,-75.5 523,-75.5 523,-56.5 473,-56.5"/>
<text text-anchor="middle" x="498" y="-63.5" font-family="Helvetica,sans-Serif" font-size="10.00">String.h</text>
</a>
</g>
</g>
<!-- Node6&#45;&gt;Node10 -->
<g id="edge9" class="edge"><title>Node6&#45;&gt;Node10</title>
<path fill="none" stroke="midnightblue" d="M429.597,-174.383C445.873,-165.884 468.907,-151.361 482,-132 491.257,-118.312 495.167,-99.7771 496.814,-86.0022"/>
<polygon fill="midnightblue" stroke="midnightblue" points="500.325,-86.0345 497.732,-75.7617 493.353,-85.4089 500.325,-86.0345"/>
</g>
<!-- Node12 -->
<g id="node12" class="node"><title>Node12</title>
<g id="a_node12"><a xlink:href="_module_8h.html" target="_top" xlink:title="Module.h">
<polygon fill="none" stroke="black" points="571,-112.5 571,-131.5 627,-131.5 627,-112.5 571,-112.5"/>
<text text-anchor="middle" x="599" y="-119.5" font-family="Helvetica,sans-Serif" font-size="10.00">Module.h</text>
</a>
</g>
</g>
<!-- Node6&#45;&gt;Node12 -->
<g id="edge11" class="edge"><title>Node6&#45;&gt;Node12</title>
<path fill="none" stroke="midnightblue" d="M437.936,-174.403C470.603,-163.978 525.819,-146.356 562.343,-134.699"/>
<polygon fill="midnightblue" stroke="midnightblue" points="563.652,-137.955 572.114,-131.581 561.523,-131.287 563.652,-137.955"/>
</g>
<!-- Node18 -->
<g id="node18" class="node"><title>Node18</title>
<g id="a_node18"><a xlink:href="_writer_8h.html" target="_top" xlink:title="Writer.h">
<polygon fill="none" stroke="black" points="422.5,-112.5 422.5,-131.5 473.5,-131.5 473.5,-112.5 422.5,-112.5"/>
<text text-anchor="middle" x="448" y="-119.5" font-family="Helvetica,sans-Serif" font-size="10.00">Writer.h</text>
</a>
</g>
</g>
<!-- Node6&#45;&gt;Node18 -->
<g id="edge20" class="edge"><title>Node6&#45;&gt;Node18</title>
<path fill="none" stroke="midnightblue" d="M416.301,-174.403C421.796,-165.493 430.533,-151.325 437.444,-140.118"/>
<polygon fill="midnightblue" stroke="midnightblue" points="440.439,-141.929 442.709,-131.581 434.481,-138.255 440.439,-141.929"/>
</g>
<!-- Node11 -->
<g id="node11" class="node"><title>Node11</title>
<polygon fill="none" stroke="#bfbfbf" points="477.5,-0.5 477.5,-19.5 518.5,-19.5 518.5,-0.5 477.5,-0.5"/>
<text text-anchor="middle" x="498" y="-7.5" font-family="Helvetica,sans-Serif" font-size="10.00">string</text>
</g>
<!-- Node10&#45;&gt;Node11 -->
<g id="edge10" class="edge"><title>Node10&#45;&gt;Node11</title>
<path fill="none" stroke="midnightblue" d="M498,-56.083C498,-49.0059 498,-38.8611 498,-29.9865"/>
<polygon fill="midnightblue" stroke="midnightblue" points="501.5,-29.751 498,-19.7511 494.5,-29.7511 501.5,-29.751"/>
</g>
<!-- Node12&#45;&gt;Node10 -->
<g id="edge16" class="edge"><title>Node12&#45;&gt;Node10</title>
<path fill="none" stroke="midnightblue" d="M582.773,-112.324C566.649,-103.703 541.7,-90.3643 523.036,-80.3855"/>
<polygon fill="midnightblue" stroke="midnightblue" points="524.656,-77.283 514.187,-75.6545 521.356,-83.456 524.656,-77.283"/>
</g>
<!-- Node13 -->
<g id="node13" class="node"><title>Node13</title>
<polygon fill="none" stroke="#bfbfbf" points="565.5,-0.5 565.5,-19.5 638.5,-19.5 638.5,-0.5 565.5,-0.5"/>
<text text-anchor="middle" x="602" y="-7.5" font-family="Helvetica,sans-Serif" font-size="10.00">event2/dns.h</text>
</g>
<!-- Node12&#45;&gt;Node13 -->
<g id="edge12" class="edge"><title>Node12&#45;&gt;Node13</title>
<path fill="none" stroke="midnightblue" d="M599.235,-112.368C599.72,-94.617 600.836,-53.6664 601.493,-29.5974"/>
<polygon fill="midnightblue" stroke="midnightblue" points="604.992,-29.6832 601.766,-19.5914 597.994,-29.4922 604.992,-29.6832"/>
</g>
<!-- Node14 -->
<g id="node14" class="node"><title>Node14</title>
<polygon fill="none" stroke="#bfbfbf" points="661.5,-0.5 661.5,-19.5 742.5,-19.5 742.5,-0.5 661.5,-0.5"/>
<text text-anchor="middle" x="702" y="-7.5" font-family="Helvetica,sans-Serif" font-size="10.00">event2/event.h</text>
</g>
<!-- Node12&#45;&gt;Node14 -->
<g id="edge13" class="edge"><title>Node12&#45;&gt;Node14</title>
<path fill="none" stroke="midnightblue" d="M627.324,-113.173C646.627,-106.404 671.265,-94.6988 686,-76 696.444,-62.7474 700.188,-43.6199 701.472,-29.5439"/>
<polygon fill="midnightblue" stroke="midnightblue" points="704.967,-29.7341 702.056,-19.547 697.979,-29.3259 704.967,-29.7341"/>
</g>
<!-- Node15 -->
<g id="node15" class="node"><title>Node15</title>
<polygon fill="none" stroke="#bfbfbf" points="733.5,-56.5 733.5,-75.5 806.5,-75.5 806.5,-56.5 733.5,-56.5"/>
<text text-anchor="middle" x="770" y="-63.5" font-family="Helvetica,sans-Serif" font-size="10.00">libconfig.h++</text>
</g>
<!-- Node12&#45;&gt;Node15 -->
<g id="edge14" class="edge"><title>Node12&#45;&gt;Node15</title>
<path fill="none" stroke="midnightblue" d="M626.095,-112.444C654.988,-103.32 700.925,-88.8133 733.105,-78.6509"/>
<polygon fill="midnightblue" stroke="midnightblue" points="734.549,-81.8654 743.031,-75.5164 732.441,-75.1903 734.549,-81.8654"/>
</g>
<!-- Node16 -->
<g id="node16" class="node"><title>Node16</title>
<polygon fill="none" stroke="#bfbfbf" points="541,-56.5 541,-75.5 571,-75.5 571,-56.5 541,-56.5"/>
<text text-anchor="middle" x="556" y="-63.5" font-family="Helvetica,sans-Serif" font-size="10.00">set</text>
</g>
<!-- Node12&#45;&gt;Node16 -->
<g id="edge15" class="edge"><title>Node12&#45;&gt;Node16</title>
<path fill="none" stroke="midnightblue" d="M591.899,-112.083C585.763,-104.377 576.73,-93.0333 569.261,-83.6531"/>
<polygon fill="midnightblue" stroke="midnightblue" points="571.936,-81.3936 562.968,-75.7511 566.46,-85.7542 571.936,-81.3936"/>
</g>
<!-- Node17 -->
<g id="node17" class="node"><title>Node17</title>
<g id="a_node17"><a xlink:href="_event_8h.html" target="_top" xlink:title="Event.h">
<polygon fill="none" stroke="black" points="627,-56.5 627,-75.5 677,-75.5 677,-56.5 627,-56.5"/>
<text text-anchor="middle" x="652" y="-63.5" font-family="Helvetica,sans-Serif" font-size="10.00">Event.h</text>
</a>
</g>
</g>
<!-- Node12&#45;&gt;Node17 -->
<g id="edge17" class="edge"><title>Node12&#45;&gt;Node17</title>
<path fill="none" stroke="midnightblue" d="M607.752,-112.083C615.47,-104.22 626.905,-92.5688 636.217,-83.0813"/>
<polygon fill="midnightblue" stroke="midnightblue" points="638.904,-85.3396 643.411,-75.7511 633.908,-80.4363 638.904,-85.3396"/>
</g>
<!-- Node17&#45;&gt;Node13 -->
<g id="edge18" class="edge"><title>Node17&#45;&gt;Node13</title>
<path fill="none" stroke="midnightblue" d="M643.744,-56.083C636.535,-48.2982 625.89,-36.8015 617.154,-27.3665"/>
<polygon fill="midnightblue" stroke="midnightblue" points="619.465,-24.7108 610.103,-19.7511 614.329,-29.4666 619.465,-24.7108"/>
</g>
<!-- Node17&#45;&gt;Node14 -->
<g id="edge19" class="edge"><title>Node17&#45;&gt;Node14</title>
<path fill="none" stroke="midnightblue" d="M660.256,-56.083C667.465,-48.2982 678.11,-36.8015 686.846,-27.3665"/>
<polygon fill="midnightblue" stroke="midnightblue" points="689.671,-29.4666 693.897,-19.7511 684.535,-24.7108 689.671,-29.4666"/>
</g>
<!-- Node18&#45;&gt;Node8 -->
<g id="edge21" class="edge"><title>Node18&#45;&gt;Node8</title>
<path fill="none" stroke="midnightblue" d="M427.243,-112.444C405.684,-103.557 371.737,-89.5632 347.206,-79.4514"/>
<polygon fill="midnightblue" stroke="midnightblue" points="348.239,-76.0917 337.66,-75.5164 345.572,-82.5634 348.239,-76.0917"/>
</g>
<!-- Node18&#45;&gt;Node10 -->
<g id="edge22" class="edge"><title>Node18&#45;&gt;Node10</title>
<path fill="none" stroke="midnightblue" d="M456.256,-112.083C463.465,-104.298 474.11,-92.8015 482.846,-83.3665"/>
<polygon fill="midnightblue" stroke="midnightblue" points="485.671,-85.4666 489.897,-75.7511 480.535,-80.7108 485.671,-85.4666"/>
</g>
<!-- Node19 -->
<g id="node19" class="node"><title>Node19</title>
<g id="a_node19"><a xlink:href="_should_delete_8h.html" target="_top" xlink:title="ShouldDelete.h">
<polygon fill="none" stroke="black" points="371.5,-56.5 371.5,-75.5 454.5,-75.5 454.5,-56.5 371.5,-56.5"/>
<text text-anchor="middle" x="413" y="-63.5" font-family="Helvetica,sans-Serif" font-size="10.00">ShouldDelete.h</text>
</a>
</g>
</g>
<!-- Node18&#45;&gt;Node19 -->
<g id="edge23" class="edge"><title>Node18&#45;&gt;Node19</title>
<path fill="none" stroke="midnightblue" d="M442.22,-112.083C437.328,-104.534 430.173,-93.4948 424.167,-84.2298"/>
<polygon fill="midnightblue" stroke="midnightblue" points="427.048,-82.239 418.672,-75.7511 421.174,-86.0463 427.048,-82.239"/>
</g>
</g>
</svg>
