<?xml version="1.0" encoding="UTF-8" standalone="no"?>
<!DOCTYPE svg PUBLIC "-//W3C//DTD SVG 1.1//EN"
 "http://www.w3.org/Graphics/SVG/1.1/DTD/svg11.dtd">
<!-- Generated by graphviz version 2.34.0 (20140110.0949)
 -->
<!-- Title: include/Listener.h Pages: 1 -->
<svg width="852pt" height="264pt"
 viewBox="0.00 0.00 852.00 264.00" xmlns="http://www.w3.org/2000/svg" xmlns:xlink="http://www.w3.org/1999/xlink">
<g id="graph0" class="graph" transform="scale(1 1) rotate(0) translate(4 260)">
<title>include/Listener.h</title>
<!-- Node1 -->
<g id="node1" class="node"><title>Node1</title>
<polygon fill="#bfbfbf" stroke="black" points="157.5,-236.5 157.5,-255.5 250.5,-255.5 250.5,-236.5 157.5,-236.5"/>
<text text-anchor="middle" x="204" y="-243.5" font-family="Helvetica,sans-Serif" font-size="10.00">include/Listener.h</text>
</g>
<!-- Node2 -->
<g id="node2" class="node"><title>Node2</title>
<polygon fill="none" stroke="#bfbfbf" points="-0.5,-174.5 -0.5,-193.5 48.5,-193.5 48.5,-174.5 -0.5,-174.5"/>
<text text-anchor="middle" x="24" y="-181.5" font-family="Helvetica,sans-Serif" font-size="10.00">stdint.h</text>
</g>
<!-- Node1&#45;&gt;Node2 -->
<g id="edge1" class="edge"><title>Node1&#45;&gt;Node2</title>
<path fill="none" stroke="midnightblue" d="M172.602,-236.469C142.794,-228.101 96.8892,-214.515 58,-200 56.096,-199.289 54.1458,-198.526 52.1896,-197.735"/>
<polygon fill="midnightblue" stroke="midnightblue" points="53.1176,-194.327 42.5445,-193.648 50.3867,-200.772 53.1176,-194.327"/>
</g>
<!-- Node3 -->
<g id="node3" class="node"><title>Node3</title>
<polygon fill="none" stroke="#bfbfbf" points="67,-174.5 67,-193.5 141,-193.5 141,-174.5 67,-174.5"/>
<text text-anchor="middle" x="104" y="-181.5" font-family="Helvetica,sans-Serif" font-size="10.00">openssl/ssl.h</text>
</g>
<!-- Node1&#45;&gt;Node3 -->
<g id="edge2" class="edge"><title>Node1&#45;&gt;Node3</title>
<path fill="none" stroke="midnightblue" d="M189.672,-236.403C173.336,-226.601 146.398,-210.439 127.088,-198.853"/>
<polygon fill="midnightblue" stroke="midnightblue" points="128.677,-195.724 118.301,-193.581 125.075,-201.727 128.677,-195.724"/>
</g>
<!-- Node4 -->
<g id="node4" class="node"><title>Node4</title>
<polygon fill="none" stroke="#bfbfbf" points="159.5,-174.5 159.5,-193.5 248.5,-193.5 248.5,-174.5 159.5,-174.5"/>
<text text-anchor="middle" x="204" y="-181.5" font-family="Helvetica,sans-Serif" font-size="10.00">event2/listener.h</text>
</g>
<!-- Node1&#45;&gt;Node4 -->
<g id="edge3" class="edge"><title>Node1&#45;&gt;Node4</title>
<path fill="none" stroke="midnightblue" d="M204,-236.403C204,-227.938 204,-214.728 204,-203.82"/>
<polygon fill="midnightblue" stroke="midnightblue" points="207.5,-203.581 204,-193.581 200.5,-203.581 207.5,-203.581"/>
</g>
<!-- Node5 -->
<g id="node5" class="node"><title>Node5</title>
<polygon fill="none" stroke="#bfbfbf" points="267,-169 267,-199 365,-199 365,-169 267,-169"/>
<text text-anchor="start" x="275" y="-187" font-family="Helvetica,sans-Serif" font-size="10.00">event2/bufferevent</text>
<text text-anchor="middle" x="316" y="-176" font-family="Helvetica,sans-Serif" font-size="10.00">_ssl.h</text>
</g>
<!-- Node1&#45;&gt;Node5 -->
<g id="edge4" class="edge"><title>Node1&#45;&gt;Node5</title>
<path fill="none" stroke="midnightblue" d="M220.047,-236.403C235.783,-227.974 260.301,-214.839 280.614,-203.957"/>
<polygon fill="midnightblue" stroke="midnightblue" points="282.442,-206.948 289.604,-199.141 279.136,-200.778 282.442,-206.948"/>
</g>
<!-- Node6 -->
<g id="node6" class="node"><title>Node6</title>
<g id="a_node6"><a xlink:href="_socket_8h.html" target="_top" xlink:title="Socket.h">
<polygon fill="none" stroke="black" points="383,-174.5 383,-193.5 439,-193.5 439,-174.5 383,-174.5"/>
<text text-anchor="middle" x="411" y="-181.5" font-family="Helvetica,sans-Serif" font-size="10.00">Socket.h</text>
</a>
</g>
</g>
<!-- Node1&#45;&gt;Node6 -->
<g id="edge5" class="edge"><title>Node1&#45;&gt;Node6</title>
<path fill="none" stroke="midnightblue" d="M241.879,-236.427C276.599,-228.226 329.254,-214.926 374,-200 376.562,-199.145 379.202,-198.203 381.836,-197.22"/>
<polygon fill="midnightblue" stroke="midnightblue" points="383.16,-200.461 391.202,-193.564 380.614,-193.94 383.16,-200.461"/>
</g>
<!-- Node7 -->
<g id="node7" class="node"><title>Node7</title>
<polygon fill="none" stroke="#bfbfbf" points="139.5,-112.5 139.5,-131.5 198.5,-131.5 198.5,-112.5 139.5,-112.5"/>
<text text-anchor="middle" x="169" y="-119.5" font-family="Helvetica,sans-Serif" font-size="10.00">stdexcept</text>
</g>
<!-- Node6&#45;&gt;Node7 -->
<g id="edge6" class="edge"><title>Node6&#45;&gt;Node7</title>
<path fill="none" stroke="midnightblue" d="M391.641,-174.423C386.022,-172.133 379.828,-169.799 374,-168 304.823,-146.65 283.414,-148.304 208.69,-132.1"/>
<polygon fill="midnightblue" stroke="midnightblue" points="209.32,-128.655 198.801,-129.92 207.813,-135.491 209.32,-128.655"/>
</g>
<!-- Node8 -->
<g id="node8" class="node"><title>Node8</title>
<polygon fill="none" stroke="#bfbfbf" points="217,-112.5 217,-131.5 323,-131.5 323,-112.5 217,-112.5"/>
<text text-anchor="middle" x="270" y="-119.5" font-family="Helvetica,sans-Serif" font-size="10.00">event2/bufferevent.h</text>
</g>
<!-- Node6&#45;&gt;Node8 -->
<g id="edge7" class="edge"><title>Node6&#45;&gt;Node8</title>
<path fill="none" stroke="midnightblue" d="M390.798,-174.403C366.926,-164.245 326.998,-147.255 299.627,-135.607"/>
<polygon fill="midnightblue" stroke="midnightblue" points="300.736,-132.276 290.164,-131.581 297.995,-138.717 300.736,-132.276"/>
</g>
<!-- Node9 -->
<g id="node9" class="node"><title>Node9</title>
<g id="a_node9"><a xlink:href="defines_8h.html" target="_top" xlink:title="defines.h">
<polygon fill="none" stroke="black" points="327,-56.5 327,-75.5 383,-75.5 383,-56.5 327,-56.5"/>
<text text-anchor="middle" x="355" y="-63.5" font-family="Helvetica,sans-Serif" font-size="10.00">defines.h</text>
</a>
</g>
</g>
<!-- Node6&#45;&gt;Node9 -->
<g id="edge8" class="edge"><title>Node6&#45;&gt;Node9</title>
<path fill="none" stroke="midnightblue" d="M402.073,-174.468C392.675,-164.977 378.137,-148.761 370,-132 362.887,-117.349 359.063,-99.1805 357.06,-85.7797"/>
<polygon fill="midnightblue" stroke="midnightblue" points="360.526,-85.2955 355.774,-75.8264 353.584,-86.1925 360.526,-85.2955"/>
</g>
<!-- Node10 -->
<g id="node10" class="node"><title>Node10</title>
<g id="a_node10"><a xlink:href="_closable_8h.html" target="_top" xlink:title="Closable.h">
<polygon fill="none" stroke="black" points="379.5,-112.5 379.5,-131.5 442.5,-131.5 442.5,-112.5 379.5,-112.5"/>
<text text-anchor="middle" x="411" y="-119.5" font-family="Helvetica,sans-Serif" font-size="10.00">Closable.h</text>
</a>
</g>
</g>
<!-- Node6&#45;&gt;Node10 -->
<g id="edge9" class="edge"><title>Node6&#45;&gt;Node10</title>
<path fill="none" stroke="midnightblue" d="M411,-174.403C411,-165.938 411,-152.728 411,-141.82"/>
<polygon fill="midnightblue" stroke="midnightblue" points="414.5,-141.581 411,-131.581 407.5,-141.581 414.5,-141.581"/>
</g>
<!-- Node11 -->
<g id="node11" class="node"><title>Node11</title>
<g id="a_node11"><a xlink:href="_string_8h.html" target="_top" xlink:title="String.h">
<polygon fill="none" stroke="black" points="511,-56.5 511,-75.5 561,-75.5 561,-56.5 511,-56.5"/>
<text text-anchor="middle" x="536" y="-63.5" font-family="Helvetica,sans-Serif" font-size="10.00">String.h</text>
</a>
</g>
</g>
<!-- Node6&#45;&gt;Node11 -->
<g id="edge10" class="edge"><title>Node6&#45;&gt;Node11</title>
<path fill="none" stroke="midnightblue" d="M439.401,-177.007C464.289,-170.274 499.588,-156.871 520,-132 530.705,-118.957 534.414,-99.8017 535.619,-85.662"/>
<polygon fill="midnightblue" stroke="midnightblue" points="539.117,-85.7764 536.134,-75.6102 532.127,-85.4177 539.117,-85.7764"/>
</g>
<!-- Node13 -->
<g id="node13" class="node"><title>Node13</title>
<g id="a_node13"><a xlink:href="_module_8h.html" target="_top" xlink:title="Module.h">
<polygon fill="none" stroke="black" points="609,-112.5 609,-131.5 665,-131.5 665,-112.5 609,-112.5"/>
<text text-anchor="middle" x="637" y="-119.5" font-family="Helvetica,sans-Serif" font-size="10.00">Module.h</text>
</a>
</g>
</g>
<!-- Node6&#45;&gt;Node13 -->
<g id="edge12" class="edge"><title>Node6&#45;&gt;Node13</title>
<path fill="none" stroke="midnightblue" d="M439.166,-175.522C479.539,-164.804 553.958,-145.047 599.118,-133.057"/>
<polygon fill="midnightblue" stroke="midnightblue" points="600.068,-136.426 608.835,-130.477 598.271,-129.661 600.068,-136.426"/>
</g>
<!-- Node19 -->
<g id="node19" class="node"><title>Node19</title>
<g id="a_node19"><a xlink:href="_writer_8h.html" target="_top" xlink:title="Writer.h">
<polygon fill="none" stroke="black" points="460.5,-112.5 460.5,-131.5 511.5,-131.5 511.5,-112.5 460.5,-112.5"/>
<text text-anchor="middle" x="486" y="-119.5" font-family="Helvetica,sans-Serif" font-size="10.00">Writer.h</text>
</a>
</g>
</g>
<!-- Node6&#45;&gt;Node19 -->
<g id="edge21" class="edge"><title>Node6&#45;&gt;Node19</title>
<path fill="none" stroke="midnightblue" d="M421.746,-174.403C433.553,-164.958 452.743,-149.606 467.082,-138.134"/>
<polygon fill="midnightblue" stroke="midnightblue" points="469.652,-140.561 475.274,-131.581 465.279,-135.095 469.652,-140.561"/>
</g>
<!-- Node12 -->
<g id="node12" class="node"><title>Node12</title>
<polygon fill="none" stroke="#bfbfbf" points="515.5,-0.5 515.5,-19.5 556.5,-19.5 556.5,-0.5 515.5,-0.5"/>
<text text-anchor="middle" x="536" y="-7.5" font-family="Helvetica,sans-Serif" font-size="10.00">string</text>
</g>
<!-- Node11&#45;&gt;Node12 -->
<g id="edge11" class="edge"><title>Node11&#45;&gt;Node12</title>
<path fill="none" stroke="midnightblue" d="M536,-56.083C536,-49.0059 536,-38.8611 536,-29.9865"/>
<polygon fill="midnightblue" stroke="midnightblue" points="539.5,-29.751 536,-19.7511 532.5,-29.7511 539.5,-29.751"/>
</g>
<!-- Node13&#45;&gt;Node11 -->
<g id="edge17" class="edge"><title>Node13&#45;&gt;Node11</title>
<path fill="none" stroke="midnightblue" d="M620.773,-112.324C604.649,-103.703 579.7,-90.3643 561.036,-80.3855"/>
<polygon fill="midnightblue" stroke="midnightblue" points="562.656,-77.283 552.187,-75.6545 559.356,-83.456 562.656,-77.283"/>
</g>
<!-- Node14 -->
<g id="node14" class="node"><title>Node14</title>
<polygon fill="none" stroke="#bfbfbf" points="603.5,-0.5 603.5,-19.5 676.5,-19.5 676.5,-0.5 603.5,-0.5"/>
<text text-anchor="middle" x="640" y="-7.5" font-family="Helvetica,sans-Serif" font-size="10.00">event2/dns.h</text>
</g>
<!-- Node13&#45;&gt;Node14 -->
<g id="edge13" class="edge"><title>Node13&#45;&gt;Node14</title>
<path fill="none" stroke="midnightblue" d="M637.235,-112.368C637.72,-94.617 638.836,-53.6664 639.493,-29.5974"/>
<polygon fill="midnightblue" stroke="midnightblue" points="642.992,-29.6832 639.766,-19.5914 635.994,-29.4922 642.992,-29.6832"/>
</g>
<!-- Node15 -->
<g id="node15" class="node"><title>Node15</title>
<polygon fill="none" stroke="#bfbfbf" points="699.5,-0.5 699.5,-19.5 780.5,-19.5 780.5,-0.5 699.5,-0.5"/>
<text text-anchor="middle" x="740" y="-7.5" font-family="Helvetica,sans-Serif" font-size="10.00">event2/event.h</text>
</g>
<!-- Node13&#45;&gt;Node15 -->
<g id="edge14" class="edge"><title>Node13&#45;&gt;Node15</title>
<path fill="none" stroke="midnightblue" d="M665.324,-113.173C684.627,-106.404 709.265,-94.6988 724,-76 734.444,-62.7474 738.188,-43.6199 739.472,-29.5439"/>
<polygon fill="midnightblue" stroke="midnightblue" points="742.967,-29.7341 740.056,-19.547 735.979,-29.3259 742.967,-29.7341"/>
</g>
<!-- Node16 -->
<g id="node16" class="node"><title>Node16</title>
<polygon fill="none" stroke="#bfbfbf" points="771.5,-56.5 771.5,-75.5 844.5,-75.5 844.5,-56.5 771.5,-56.5"/>
<text text-anchor="middle" x="808" y="-63.5" font-family="Helvetica,sans-Serif" font-size="10.00">libconfig.h++</text>
</g>
<!-- Node13&#45;&gt;Node16 -->
<g id="edge15" class="edge"><title>Node13&#45;&gt;Node16</title>
<path fill="none" stroke="midnightblue" d="M664.095,-112.444C692.988,-103.32 738.925,-88.8133 771.105,-78.6509"/>
<polygon fill="midnightblue" stroke="midnightblue" points="772.549,-81.8654 781.031,-75.5164 770.441,-75.1903 772.549,-81.8654"/>
</g>
<!-- Node17 -->
<g id="node17" class="node"><title>Node17</title>
<polygon fill="none" stroke="#bfbfbf" points="579,-56.5 579,-75.5 609,-75.5 609,-56.5 579,-56.5"/>
<text text-anchor="middle" x="594" y="-63.5" font-family="Helvetica,sans-Serif" font-size="10.00">set</text>
</g>
<!-- Node13&#45;&gt;Node17 -->
<g id="edge16" class="edge"><title>Node13&#45;&gt;Node17</title>
<path fill="none" stroke="midnightblue" d="M629.899,-112.083C623.763,-104.377 614.73,-93.0333 607.261,-83.6531"/>
<polygon fill="midnightblue" stroke="midnightblue" points="609.936,-81.3936 600.968,-75.7511 604.46,-85.7542 609.936,-81.3936"/>
</g>
<!-- Node18 -->
<g id="node18" class="node"><title>Node18</title>
<g id="a_node18"><a xlink:href="_event_8h.html" target="_top" xlink:title="Event.h">
<polygon fill="none" stroke="black" points="665,-56.5 665,-75.5 715,-75.5 715,-56.5 665,-56.5"/>
<text text-anchor="middle" x="690" y="-63.5" font-family="Helvetica,sans-Serif" font-size="10.00">Event.h</text>
</a>
</g>
</g>
<!-- Node13&#45;&gt;Node18 -->
<g id="edge18" class="edge"><title>Node13&#45;&gt;Node18</title>
<path fill="none" stroke="midnightblue" d="M645.752,-112.083C653.47,-104.22 664.905,-92.5688 674.217,-83.0813"/>
<polygon fill="midnightblue" stroke="midnightblue" points="676.904,-85.3396 681.411,-75.7511 671.908,-80.4363 676.904,-85.3396"/>
</g>
<!-- Node18&#45;&gt;Node14 -->
<g id="edge19" class="edge"><title>Node18&#45;&gt;Node14</title>
<path fill="none" stroke="midnightblue" d="M681.744,-56.083C674.535,-48.2982 663.89,-36.8015 655.154,-27.3665"/>
<polygon fill="midnightblue" stroke="midnightblue" points="657.465,-24.7108 648.103,-19.7511 652.329,-29.4666 657.465,-24.7108"/>
</g>
<!-- Node18&#45;&gt;Node15 -->
<g id="edge20" class="edge"><title>Node18&#45;&gt;Node15</title>
<path fill="none" stroke="midnightblue" d="M698.256,-56.083C705.465,-48.2982 716.11,-36.8015 724.846,-27.3665"/>
<polygon fill="midnightblue" stroke="midnightblue" points="727.671,-29.4666 731.897,-19.7511 722.535,-24.7108 727.671,-29.4666"/>
</g>
<!-- Node19&#45;&gt;Node9 -->
<g id="edge22" class="edge"><title>Node19&#45;&gt;Node9</title>
<path fill="none" stroke="midnightblue" d="M465.243,-112.444C443.684,-103.557 409.737,-89.5632 385.206,-79.4514"/>
<polygon fill="midnightblue" stroke="midnightblue" points="386.239,-76.0917 375.66,-75.5164 383.572,-82.5634 386.239,-76.0917"/>
</g>
<!-- Node19&#45;&gt;Node11 -->
<g id="edge23" class="edge"><title>Node19&#45;&gt;Node11</title>
<path fill="none" stroke="midnightblue" d="M494.256,-112.083C501.465,-104.298 512.11,-92.8015 520.846,-83.3665"/>
<polygon fill="midnightblue" stroke="midnightblue" points="523.671,-85.4666 527.897,-75.7511 518.535,-80.7108 523.671,-85.4666"/>
</g>
<!-- Node20 -->
<g id="node20" class="node"><title>Node20</title>
<g id="a_node20"><a xlink:href="_should_delete_8h.html" target="_top" xlink:title="ShouldDelete.h">
<polygon fill="none" stroke="black" points="409.5,-56.5 409.5,-75.5 492.5,-75.5 492.5,-56.5 409.5,-56.5"/>
<text text-anchor="middle" x="451" y="-63.5" font-family="Helvetica,sans-Serif" font-size="10.00">ShouldDelete.h</text>
</a>
</g>
</g>
<!-- Node19&#45;&gt;Node20 -->
<g id="edge24" class="edge"><title>Node19&#45;&gt;Node20</title>
<path fill="none" stroke="midnightblue" d="M480.22,-112.083C475.328,-104.534 468.173,-93.4948 462.167,-84.2298"/>
<polygon fill="midnightblue" stroke="midnightblue" points="465.048,-82.239 456.672,-75.7511 459.174,-86.0463 465.048,-82.239"/>
</g>
</g>
</svg>
