<?xml version="1.0" encoding="UTF-8" standalone="no"?>
<!DOCTYPE svg PUBLIC "-//W3C//DTD SVG 1.1//EN"
 "http://www.w3.org/Graphics/SVG/1.1/DTD/svg11.dtd">
<!-- Generated by graphviz version 2.34.0 (20140110.0949)
 -->
<!-- Title: include/Listener.h Pages: 1 -->
<svg width="1219pt" height="320pt"
 viewBox="0.00 0.00 1219.00 320.00" xmlns="http://www.w3.org/2000/svg" xmlns:xlink="http://www.w3.org/1999/xlink">
<g id="graph0" class="graph" transform="scale(1 1) rotate(0) translate(4 316)">
<title>include/Listener.h</title>
<!-- Node1 -->
<g id="node1" class="node"><title>Node1</title>
<polygon fill="#bfbfbf" stroke="black" points="646.5,-292.5 646.5,-311.5 739.5,-311.5 739.5,-292.5 646.5,-292.5"/>
<text text-anchor="middle" x="693" y="-299.5" font-family="Helvetica,sans-Serif" font-size="10.00">include/Listener.h</text>
</g>
<!-- Node2 -->
<g id="node2" class="node"><title>Node2</title>
<polygon fill="none" stroke="#bfbfbf" points="365.5,-0.5 365.5,-19.5 414.5,-19.5 414.5,-0.5 365.5,-0.5"/>
<text text-anchor="middle" x="390" y="-7.5" font-family="Helvetica,sans-Serif" font-size="10.00">stdint.h</text>
</g>
<!-- Node1&#45;&gt;Node2 -->
<g id="edge1" class="edge"><title>Node1&#45;&gt;Node2</title>
<path fill="none" stroke="midnightblue" d="M646.454,-297.748C491.075,-286.276 0,-244.815 0,-179 0,-179 0,-179 0,-121 0,-47.513 259.739,-20.7098 355.278,-13.3365"/>
<polygon fill="midnightblue" stroke="midnightblue" points="355.596,-16.8226 365.308,-12.5878 355.075,-9.842 355.596,-16.8226"/>
</g>
<!-- Node3 -->
<g id="node3" class="node"><title>Node3</title>
<polygon fill="none" stroke="#bfbfbf" points="500,-230.5 500,-249.5 574,-249.5 574,-230.5 500,-230.5"/>
<text text-anchor="middle" x="537" y="-237.5" font-family="Helvetica,sans-Serif" font-size="10.00">openssl/ssl.h</text>
</g>
<!-- Node1&#45;&gt;Node3 -->
<g id="edge2" class="edge"><title>Node1&#45;&gt;Node3</title>
<path fill="none" stroke="midnightblue" d="M670.649,-292.403C644.005,-282.156 599.286,-264.956 568.986,-253.302"/>
<polygon fill="midnightblue" stroke="midnightblue" points="569.899,-249.904 559.31,-249.581 567.387,-256.437 569.899,-249.904"/>
</g>
<!-- Node4 -->
<g id="node4" class="node"><title>Node4</title>
<polygon fill="none" stroke="#bfbfbf" points="592.5,-230.5 592.5,-249.5 681.5,-249.5 681.5,-230.5 592.5,-230.5"/>
<text text-anchor="middle" x="637" y="-237.5" font-family="Helvetica,sans-Serif" font-size="10.00">event2/listener.h</text>
</g>
<!-- Node1&#45;&gt;Node4 -->
<g id="edge3" class="edge"><title>Node1&#45;&gt;Node4</title>
<path fill="none" stroke="midnightblue" d="M684.977,-292.403C676.41,-283.225 662.639,-268.47 652.043,-257.117"/>
<polygon fill="midnightblue" stroke="midnightblue" points="654.39,-254.503 645.009,-249.581 649.273,-259.279 654.39,-254.503"/>
</g>
<!-- Node5 -->
<g id="node5" class="node"><title>Node5</title>
<polygon fill="none" stroke="#bfbfbf" points="700,-225 700,-255 798,-255 798,-225 700,-225"/>
<text text-anchor="start" x="708" y="-243" font-family="Helvetica,sans-Serif" font-size="10.00">event2/bufferevent</text>
<text text-anchor="middle" x="749" y="-232" font-family="Helvetica,sans-Serif" font-size="10.00">_ssl.h</text>
</g>
<!-- Node1&#45;&gt;Node5 -->
<g id="edge4" class="edge"><title>Node1&#45;&gt;Node5</title>
<path fill="none" stroke="midnightblue" d="M701.023,-292.403C708.253,-284.657 719.191,-272.938 728.798,-262.645"/>
<polygon fill="midnightblue" stroke="midnightblue" points="731.537,-264.84 735.802,-255.141 726.42,-260.063 731.537,-264.84"/>
</g>
<!-- Node6 -->
<g id="node6" class="node"><title>Node6</title>
<g id="a_node6"><a xlink:href="_logger_8h.html" target="_top" xlink:title="Logger.h">
<polygon fill="none" stroke="black" points="816,-230.5 816,-249.5 870,-249.5 870,-230.5 816,-230.5"/>
<text text-anchor="middle" x="843" y="-237.5" font-family="Helvetica,sans-Serif" font-size="10.00">Logger.h</text>
</a>
</g>
</g>
<!-- Node1&#45;&gt;Node6 -->
<g id="edge5" class="edge"><title>Node1&#45;&gt;Node6</title>
<path fill="none" stroke="midnightblue" d="M714.903,-292.495C737.891,-283.536 775.058,-268.958 807,-256 808.882,-255.236 810.818,-254.446 812.768,-253.645"/>
<polygon fill="midnightblue" stroke="midnightblue" points="814.564,-256.69 822.467,-249.634 811.888,-250.221 814.564,-256.69"/>
</g>
<!-- Node26 -->
<g id="node26" class="node"><title>Node26</title>
<g id="a_node26"><a xlink:href="_socket_8h.html" target="_top" xlink:title="Socket.h">
<polygon fill="none" stroke="black" points="943,-168.5 943,-187.5 999,-187.5 999,-168.5 943,-168.5"/>
<text text-anchor="middle" x="971" y="-175.5" font-family="Helvetica,sans-Serif" font-size="10.00">Socket.h</text>
</a>
</g>
</g>
<!-- Node1&#45;&gt;Node26 -->
<g id="edge29" class="edge"><title>Node1&#45;&gt;Node26</title>
<path fill="none" stroke="midnightblue" d="M739.763,-295.729C778.668,-289.957 834.652,-278.367 879,-256 909.685,-240.524 939.034,-213.01 956.022,-195.405"/>
<polygon fill="midnightblue" stroke="midnightblue" points="959.012,-197.334 963.32,-187.655 953.916,-192.535 959.012,-197.334"/>
</g>
<!-- Node7 -->
<g id="node7" class="node"><title>Node7</title>
<polygon fill="none" stroke="#bfbfbf" points="871.5,-168.5 871.5,-187.5 924.5,-187.5 924.5,-168.5 871.5,-168.5"/>
<text text-anchor="middle" x="898" y="-175.5" font-family="Helvetica,sans-Serif" font-size="10.00">syslog.h</text>
</g>
<!-- Node6&#45;&gt;Node7 -->
<g id="edge6" class="edge"><title>Node6&#45;&gt;Node7</title>
<path fill="none" stroke="midnightblue" d="M850.88,-230.403C859.294,-221.225 872.819,-206.47 883.226,-195.117"/>
<polygon fill="midnightblue" stroke="midnightblue" points="885.957,-197.317 890.134,-187.581 880.797,-192.587 885.957,-197.317"/>
</g>
<!-- Node8 -->
<g id="node8" class="node"><title>Node8</title>
<g id="a_node8"><a xlink:href="_files_8h.html" target="_top" xlink:title="Files.h">
<polygon fill="none" stroke="black" points="476,-168.5 476,-187.5 522,-187.5 522,-168.5 476,-168.5"/>
<text text-anchor="middle" x="499" y="-175.5" font-family="Helvetica,sans-Serif" font-size="10.00">Files.h</text>
</a>
</g>
</g>
<!-- Node6&#45;&gt;Node8 -->
<g id="edge7" class="edge"><title>Node6&#45;&gt;Node8</title>
<path fill="none" stroke="midnightblue" d="M824.998,-230.465C819.342,-228.066 813.004,-225.661 807,-224 709.385,-196.991 589.616,-185.41 532.452,-181.143"/>
<polygon fill="midnightblue" stroke="midnightblue" points="532.427,-177.632 522.202,-180.407 531.926,-184.614 532.427,-177.632"/>
</g>
<!-- Node19 -->
<g id="node19" class="node"><title>Node19</title>
<g id="a_node19"><a xlink:href="_string_8h.html" target="_top" xlink:title="String.h">
<polygon fill="none" stroke="black" points="775,-56.5 775,-75.5 825,-75.5 825,-56.5 775,-56.5"/>
<text text-anchor="middle" x="800" y="-63.5" font-family="Helvetica,sans-Serif" font-size="10.00">String.h</text>
</a>
</g>
</g>
<!-- Node6&#45;&gt;Node19 -->
<g id="edge28" class="edge"><title>Node6&#45;&gt;Node19</title>
<path fill="none" stroke="midnightblue" d="M842.72,-230.449C841.828,-209.65 838.203,-154.97 824,-112 820.804,-102.332 815.637,-92.2694 810.914,-84.1174"/>
<polygon fill="midnightblue" stroke="midnightblue" points="813.901,-82.2936 805.718,-75.5637 807.918,-85.9276 813.901,-82.2936"/>
</g>
<!-- Node9 -->
<g id="node9" class="node"><title>Node9</title>
<polygon fill="none" stroke="#bfbfbf" points="709,-112.5 709,-131.5 815,-131.5 815,-112.5 709,-112.5"/>
<text text-anchor="middle" x="762" y="-119.5" font-family="Helvetica,sans-Serif" font-size="10.00">event2/bufferevent.h</text>
</g>
<!-- Node8&#45;&gt;Node9 -->
<g id="edge8" class="edge"><title>Node8&#45;&gt;Node9</title>
<path fill="none" stroke="midnightblue" d="M522.339,-172.208C564.322,-163.588 653.496,-145.278 710.44,-133.586"/>
<polygon fill="midnightblue" stroke="midnightblue" points="711.24,-136.995 720.331,-131.556 709.832,-130.138 711.24,-136.995"/>
</g>
<!-- Node10 -->
<g id="node10" class="node"><title>Node10</title>
<polygon fill="none" stroke="#bfbfbf" points="28.5,-112.5 28.5,-131.5 79.5,-131.5 79.5,-112.5 28.5,-112.5"/>
<text text-anchor="middle" x="54" y="-119.5" font-family="Helvetica,sans-Serif" font-size="10.00">unistd.h</text>
</g>
<!-- Node8&#45;&gt;Node10 -->
<g id="edge9" class="edge"><title>Node8&#45;&gt;Node10</title>
<path fill="none" stroke="midnightblue" d="M475.714,-175.61C414.239,-171.695 242.419,-159.165 89.5609,-131.832"/>
<polygon fill="midnightblue" stroke="midnightblue" points="89.9855,-128.352 79.5212,-130.01 88.7356,-135.239 89.9855,-128.352"/>
</g>
<!-- Node11 -->
<g id="node11" class="node"><title>Node11</title>
<polygon fill="none" stroke="#bfbfbf" points="98,-112.5 98,-131.5 146,-131.5 146,-112.5 98,-112.5"/>
<text text-anchor="middle" x="122" y="-119.5" font-family="Helvetica,sans-Serif" font-size="10.00">stdlib.h</text>
</g>
<!-- Node8&#45;&gt;Node11 -->
<g id="edge10" class="edge"><title>Node8&#45;&gt;Node11</title>
<path fill="none" stroke="midnightblue" d="M475.856,-174.74C420.825,-169.189 277.942,-153.738 160,-132 158.725,-131.765 157.428,-131.515 156.12,-131.253"/>
<polygon fill="midnightblue" stroke="midnightblue" points="156.559,-127.767 146.045,-129.08 155.083,-134.61 156.559,-127.767"/>
</g>
<!-- Node12 -->
<g id="node12" class="node"><title>Node12</title>
<polygon fill="none" stroke="#bfbfbf" points="202,-112.5 202,-131.5 262,-131.5 262,-112.5 202,-112.5"/>
<text text-anchor="middle" x="232" y="-119.5" font-family="Helvetica,sans-Serif" font-size="10.00">sys/stat.h</text>
</g>
<!-- Node8&#45;&gt;Node12 -->
<g id="edge11" class="edge"><title>Node8&#45;&gt;Node12</title>
<path fill="none" stroke="midnightblue" d="M475.973,-172.707C436.384,-165.273 352.645,-149.312 272.026,-132.168"/>
<polygon fill="midnightblue" stroke="midnightblue" points="272.723,-128.739 262.212,-130.072 271.261,-135.584 272.723,-128.739"/>
</g>
<!-- Node13 -->
<g id="node13" class="node"><title>Node13</title>
<polygon fill="none" stroke="#bfbfbf" points="280,-112.5 280,-131.5 342,-131.5 342,-112.5 280,-112.5"/>
<text text-anchor="middle" x="311" y="-119.5" font-family="Helvetica,sans-Serif" font-size="10.00">sys/fcntl.h</text>
</g>
<!-- Node8&#45;&gt;Node13 -->
<g id="edge12" class="edge"><title>Node8&#45;&gt;Node13</title>
<path fill="none" stroke="midnightblue" d="M475.948,-170.379C444.715,-161.408 388.501,-145.261 350.477,-134.339"/>
<polygon fill="midnightblue" stroke="midnightblue" points="351.328,-130.942 340.75,-131.545 349.395,-137.67 351.328,-130.942"/>
</g>
<!-- Node14 -->
<g id="node14" class="node"><title>Node14</title>
<polygon fill="none" stroke="#bfbfbf" points="360,-112.5 360,-131.5 430,-131.5 430,-112.5 360,-112.5"/>
<text text-anchor="middle" x="395" y="-119.5" font-family="Helvetica,sans-Serif" font-size="10.00">sys/inotify.h</text>
</g>
<!-- Node8&#45;&gt;Node14 -->
<g id="edge13" class="edge"><title>Node8&#45;&gt;Node14</title>
<path fill="none" stroke="midnightblue" d="M482.291,-168.324C465.688,-159.703 439.998,-146.364 420.78,-136.386"/>
<polygon fill="midnightblue" stroke="midnightblue" points="422.156,-133.156 411.668,-131.655 418.93,-139.369 422.156,-133.156"/>
</g>
<!-- Node15 -->
<g id="node15" class="node"><title>Node15</title>
<polygon fill="none" stroke="#bfbfbf" points="448,-112.5 448,-131.5 492,-131.5 492,-112.5 448,-112.5"/>
<text text-anchor="middle" x="470" y="-119.5" font-family="Helvetica,sans-Serif" font-size="10.00">vector</text>
</g>
<!-- Node8&#45;&gt;Node15 -->
<g id="edge14" class="edge"><title>Node8&#45;&gt;Node15</title>
<path fill="none" stroke="midnightblue" d="M494.211,-168.083C490.242,-160.691 484.475,-149.953 479.565,-140.811"/>
<polygon fill="midnightblue" stroke="midnightblue" points="482.514,-138.905 474.7,-131.751 476.347,-142.217 482.514,-138.905"/>
</g>
<!-- Node16 -->
<g id="node16" class="node"><title>Node16</title>
<polygon fill="none" stroke="#bfbfbf" points="510.5,-112.5 510.5,-131.5 545.5,-131.5 545.5,-112.5 510.5,-112.5"/>
<text text-anchor="middle" x="528" y="-119.5" font-family="Helvetica,sans-Serif" font-size="10.00">map</text>
</g>
<!-- Node8&#45;&gt;Node16 -->
<g id="edge15" class="edge"><title>Node8&#45;&gt;Node16</title>
<path fill="none" stroke="midnightblue" d="M503.789,-168.083C507.758,-160.691 513.525,-149.953 518.435,-140.811"/>
<polygon fill="midnightblue" stroke="midnightblue" points="521.653,-142.217 523.3,-131.751 515.486,-138.905 521.653,-142.217"/>
</g>
<!-- Node17 -->
<g id="node17" class="node"><title>Node17</title>
<g id="a_node17"><a xlink:href="defines_8h.html" target="_top" xlink:title="defines.h">
<polygon fill="none" stroke="black" points="515,-56.5 515,-75.5 571,-75.5 571,-56.5 515,-56.5"/>
<text text-anchor="middle" x="543" y="-63.5" font-family="Helvetica,sans-Serif" font-size="10.00">defines.h</text>
</a>
</g>
</g>
<!-- Node8&#45;&gt;Node17 -->
<g id="edge16" class="edge"><title>Node8&#45;&gt;Node17</title>
<path fill="none" stroke="midnightblue" d="M475.553,-177.301C410.423,-177.586 229.678,-174.466 193,-132 187.19,-125.273 187.129,-118.674 193,-112 213.369,-88.8448 418.217,-74.2758 504.746,-69.1109"/>
<polygon fill="midnightblue" stroke="midnightblue" points="505.156,-72.593 514.934,-68.5137 504.746,-65.6049 505.156,-72.593"/>
</g>
<!-- Node18 -->
<g id="node18" class="node"><title>Node18</title>
<g id="a_node18"><a xlink:href="_closable_8h.html" target="_top" xlink:title="Closable.h">
<polygon fill="none" stroke="black" points="871.5,-112.5 871.5,-131.5 934.5,-131.5 934.5,-112.5 871.5,-112.5"/>
<text text-anchor="middle" x="903" y="-119.5" font-family="Helvetica,sans-Serif" font-size="10.00">Closable.h</text>
</a>
</g>
</g>
<!-- Node8&#45;&gt;Node18 -->
<g id="edge17" class="edge"><title>Node8&#45;&gt;Node18</title>
<path fill="none" stroke="midnightblue" d="M522.172,-173.903C588.001,-165.104 776.815,-139.866 861.282,-128.576"/>
<polygon fill="midnightblue" stroke="midnightblue" points="861.842,-132.033 871.29,-127.238 860.915,-125.094 861.842,-132.033"/>
</g>
<!-- Node8&#45;&gt;Node19 -->
<g id="edge18" class="edge"><title>Node8&#45;&gt;Node19</title>
<path fill="none" stroke="midnightblue" d="M522.06,-169.239C547.115,-160.666 588.224,-146.188 623,-132 642.889,-123.885 647.023,-119.897 667,-112 699.765,-99.0482 737.928,-86.377 764.949,-77.7981"/>
<polygon fill="midnightblue" stroke="midnightblue" points="766.239,-81.0615 774.725,-74.7185 764.136,-74.3849 766.239,-81.0615"/>
</g>
<!-- Node21 -->
<g id="node21" class="node"><title>Node21</title>
<g id="a_node21"><a xlink:href="_writer_8h.html" target="_top" xlink:title="Writer.h">
<polygon fill="none" stroke="black" points="563.5,-112.5 563.5,-131.5 614.5,-131.5 614.5,-112.5 563.5,-112.5"/>
<text text-anchor="middle" x="589" y="-119.5" font-family="Helvetica,sans-Serif" font-size="10.00">Writer.h</text>
</a>
</g>
</g>
<!-- Node8&#45;&gt;Node21 -->
<g id="edge21" class="edge"><title>Node8&#45;&gt;Node21</title>
<path fill="none" stroke="midnightblue" d="M513.46,-168.324C527.5,-159.9 549.048,-146.971 565.543,-137.074"/>
<polygon fill="midnightblue" stroke="midnightblue" points="567.802,-139.801 574.576,-131.655 564.2,-133.798 567.802,-139.801"/>
</g>
<!-- Node23 -->
<g id="node23" class="node"><title>Node23</title>
<g id="a_node23"><a xlink:href="_event_8h.html" target="_top" xlink:title="Event.h">
<polygon fill="none" stroke="black" points="957,-56.5 957,-75.5 1007,-75.5 1007,-56.5 957,-56.5"/>
<text text-anchor="middle" x="982" y="-63.5" font-family="Helvetica,sans-Serif" font-size="10.00">Event.h</text>
</a>
</g>
</g>
<!-- Node8&#45;&gt;Node23 -->
<g id="edge25" class="edge"><title>Node8&#45;&gt;Node23</title>
<path fill="none" stroke="midnightblue" d="M522.206,-171.86C553.714,-164.57 611.542,-150.081 659,-132 677.946,-124.782 680.667,-118.108 700,-112 786.201,-84.7631 892.674,-73.4964 946.807,-69.2678"/>
<polygon fill="midnightblue" stroke="midnightblue" points="947.203,-72.7481 956.914,-68.5133 946.682,-65.7675 947.203,-72.7481"/>
</g>
<!-- Node19&#45;&gt;Node2 -->
<g id="edge20" class="edge"><title>Node19&#45;&gt;Node2</title>
<path fill="none" stroke="midnightblue" d="M774.97,-61.7033C704.753,-52.4553 505.778,-26.2489 424.865,-15.592"/>
<polygon fill="midnightblue" stroke="midnightblue" points="425.074,-12.0894 414.703,-14.2535 424.16,-19.0294 425.074,-12.0894"/>
</g>
<!-- Node20 -->
<g id="node20" class="node"><title>Node20</title>
<polygon fill="none" stroke="#bfbfbf" points="779.5,-0.5 779.5,-19.5 820.5,-19.5 820.5,-0.5 779.5,-0.5"/>
<text text-anchor="middle" x="800" y="-7.5" font-family="Helvetica,sans-Serif" font-size="10.00">string</text>
</g>
<!-- Node19&#45;&gt;Node20 -->
<g id="edge19" class="edge"><title>Node19&#45;&gt;Node20</title>
<path fill="none" stroke="midnightblue" d="M800,-56.083C800,-49.0059 800,-38.8611 800,-29.9865"/>
<polygon fill="midnightblue" stroke="midnightblue" points="803.5,-29.751 800,-19.7511 796.5,-29.7511 803.5,-29.751"/>
</g>
<!-- Node21&#45;&gt;Node17 -->
<g id="edge22" class="edge"><title>Node21&#45;&gt;Node17</title>
<path fill="none" stroke="midnightblue" d="M581.404,-112.083C574.773,-104.298 564.979,-92.8015 556.942,-83.3665"/>
<polygon fill="midnightblue" stroke="midnightblue" points="559.604,-81.0939 550.455,-75.7511 554.275,-85.6332 559.604,-81.0939"/>
</g>
<!-- Node21&#45;&gt;Node19 -->
<g id="edge23" class="edge"><title>Node21&#45;&gt;Node19</title>
<path fill="none" stroke="midnightblue" d="M614.873,-114.379C652.59,-104.726 722.768,-86.7654 765.047,-75.9454"/>
<polygon fill="midnightblue" stroke="midnightblue" points="766.082,-79.2934 774.902,-73.4233 764.346,-72.5119 766.082,-79.2934"/>
</g>
<!-- Node22 -->
<g id="node22" class="node"><title>Node22</title>
<g id="a_node22"><a xlink:href="_should_delete_8h.html" target="_top" xlink:title="ShouldDelete.h">
<polygon fill="none" stroke="black" points="589.5,-56.5 589.5,-75.5 672.5,-75.5 672.5,-56.5 589.5,-56.5"/>
<text text-anchor="middle" x="631" y="-63.5" font-family="Helvetica,sans-Serif" font-size="10.00">ShouldDelete.h</text>
</a>
</g>
</g>
<!-- Node21&#45;&gt;Node22 -->
<g id="edge24" class="edge"><title>Node21&#45;&gt;Node22</title>
<path fill="none" stroke="midnightblue" d="M595.935,-112.083C601.929,-104.377 610.752,-93.0333 618.048,-83.6531"/>
<polygon fill="midnightblue" stroke="midnightblue" points="620.817,-85.7934 624.194,-75.7511 615.291,-81.4958 620.817,-85.7934"/>
</g>
<!-- Node24 -->
<g id="node24" class="node"><title>Node24</title>
<polygon fill="none" stroke="#bfbfbf" points="971.5,-0.5 971.5,-19.5 1044.5,-19.5 1044.5,-0.5 971.5,-0.5"/>
<text text-anchor="middle" x="1008" y="-7.5" font-family="Helvetica,sans-Serif" font-size="10.00">event2/dns.h</text>
</g>
<!-- Node23&#45;&gt;Node24 -->
<g id="edge26" class="edge"><title>Node23&#45;&gt;Node24</title>
<path fill="none" stroke="midnightblue" d="M986.293,-56.083C989.852,-48.6913 995.022,-37.9533 999.424,-28.8111"/>
<polygon fill="midnightblue" stroke="midnightblue" points="1002.6,-30.2795 1003.79,-19.7511 996.295,-27.2427 1002.6,-30.2795"/>
</g>
<!-- Node25 -->
<g id="node25" class="node"><title>Node25</title>
<polygon fill="none" stroke="#bfbfbf" points="1130.5,-0.5 1130.5,-19.5 1211.5,-19.5 1211.5,-0.5 1130.5,-0.5"/>
<text text-anchor="middle" x="1171" y="-7.5" font-family="Helvetica,sans-Serif" font-size="10.00">event2/event.h</text>
</g>
<!-- Node23&#45;&gt;Node25 -->
<g id="edge27" class="edge"><title>Node23&#45;&gt;Node25</title>
<path fill="none" stroke="midnightblue" d="M1007.1,-57.8292C1038.76,-48.7819 1093.6,-33.1144 1131.05,-22.4139"/>
<polygon fill="midnightblue" stroke="midnightblue" points="1132.47,-25.6497 1141.12,-19.5371 1130.54,-18.9191 1132.47,-25.6497"/>
</g>
<!-- Node26&#45;&gt;Node9 -->
<g id="edge31" class="edge"><title>Node26&#45;&gt;Node9</title>
<path fill="none" stroke="midnightblue" d="M942.813,-169.717C907.404,-160.568 846.29,-144.778 805.024,-134.116"/>
<polygon fill="midnightblue" stroke="midnightblue" points="805.804,-130.703 795.247,-131.59 804.053,-137.48 805.804,-130.703"/>
</g>
<!-- Node26&#45;&gt;Node17 -->
<g id="edge32" class="edge"><title>Node26&#45;&gt;Node17</title>
<path fill="none" stroke="midnightblue" d="M970.002,-168.104C967.869,-153.691 961.447,-125.491 943,-112 879.933,-65.8766 675.442,-87.8683 581.305,-75.7955"/>
<polygon fill="midnightblue" stroke="midnightblue" points="581.604,-72.3014 571.197,-74.2888 580.572,-79.2249 581.604,-72.3014"/>
</g>
<!-- Node26&#45;&gt;Node18 -->
<g id="edge33" class="edge"><title>Node26&#45;&gt;Node18</title>
<path fill="none" stroke="midnightblue" d="M960.075,-168.324C949.825,-160.185 934.279,-147.839 921.999,-138.087"/>
<polygon fill="midnightblue" stroke="midnightblue" points="924.132,-135.312 914.124,-131.834 919.779,-140.794 924.132,-135.312"/>
</g>
<!-- Node26&#45;&gt;Node19 -->
<g id="edge34" class="edge"><title>Node26&#45;&gt;Node19</title>
<path fill="none" stroke="midnightblue" d="M999.137,-168.956C1032.25,-158.11 1080.21,-137.218 1059,-112 1030.82,-78.5035 899.455,-69.9396 835.359,-67.7509"/>
<polygon fill="midnightblue" stroke="midnightblue" points="835.413,-64.251 825.31,-67.4414 835.197,-71.2477 835.413,-64.251"/>
</g>
<!-- Node26&#45;&gt;Node21 -->
<g id="edge42" class="edge"><title>Node26&#45;&gt;Node21</title>
<path fill="none" stroke="midnightblue" d="M942.846,-169.993C939.537,-169.27 936.201,-168.587 933,-168 821.272,-147.517 687.472,-132.791 624.754,-126.457"/>
<polygon fill="midnightblue" stroke="midnightblue" points="624.9,-122.954 614.601,-125.442 624.203,-129.919 624.9,-122.954"/>
</g>
<!-- Node27 -->
<g id="node27" class="node"><title>Node27</title>
<polygon fill="none" stroke="#bfbfbf" points="991.5,-112.5 991.5,-131.5 1050.5,-131.5 1050.5,-112.5 991.5,-112.5"/>
<text text-anchor="middle" x="1021" y="-119.5" font-family="Helvetica,sans-Serif" font-size="10.00">stdexcept</text>
</g>
<!-- Node26&#45;&gt;Node27 -->
<g id="edge30" class="edge"><title>Node26&#45;&gt;Node27</title>
<path fill="none" stroke="midnightblue" d="M979.256,-168.083C986.465,-160.298 997.11,-148.801 1005.85,-139.367"/>
<polygon fill="midnightblue" stroke="midnightblue" points="1008.67,-141.467 1012.9,-131.751 1003.53,-136.711 1008.67,-141.467"/>
</g>
<!-- Node28 -->
<g id="node28" class="node"><title>Node28</title>
<g id="a_node28"><a xlink:href="_module_8h.html" target="_top" xlink:title="Module.h">
<polygon fill="none" stroke="black" points="1107,-112.5 1107,-131.5 1163,-131.5 1163,-112.5 1107,-112.5"/>
<text text-anchor="middle" x="1135" y="-119.5" font-family="Helvetica,sans-Serif" font-size="10.00">Module.h</text>
</a>
</g>
</g>
<!-- Node26&#45;&gt;Node28 -->
<g id="edge35" class="edge"><title>Node26&#45;&gt;Node28</title>
<path fill="none" stroke="midnightblue" d="M996.986,-168.444C1024.7,-159.32 1068.75,-144.813 1099.62,-134.651"/>
<polygon fill="midnightblue" stroke="midnightblue" points="1100.73,-137.968 1109.14,-131.516 1098.54,-131.32 1100.73,-137.968"/>
</g>
<!-- Node28&#45;&gt;Node19 -->
<g id="edge40" class="edge"><title>Node28&#45;&gt;Node19</title>
<path fill="none" stroke="midnightblue" d="M1106.58,-114.674C1102.05,-113.733 1097.4,-112.809 1093,-112 1000.27,-94.9595 890.217,-79.2637 835.117,-71.7141"/>
<polygon fill="midnightblue" stroke="midnightblue" points="835.548,-68.2407 825.167,-70.3578 834.603,-75.1765 835.548,-68.2407"/>
</g>
<!-- Node28&#45;&gt;Node23 -->
<g id="edge41" class="edge"><title>Node28&#45;&gt;Node23</title>
<path fill="none" stroke="midnightblue" d="M1110.76,-112.444C1085.13,-103.399 1044.51,-89.064 1015.76,-78.9158"/>
<polygon fill="midnightblue" stroke="midnightblue" points="1016.72,-75.5442 1006.13,-75.5164 1014.39,-82.1452 1016.72,-75.5442"/>
</g>
<!-- Node28&#45;&gt;Node24 -->
<g id="edge36" class="edge"><title>Node28&#45;&gt;Node24</title>
<path fill="none" stroke="midnightblue" d="M1114.38,-112.429C1097.24,-104.629 1072.83,-91.9147 1055,-76 1039.64,-62.2893 1026.34,-42.7301 1017.85,-28.6537"/>
<polygon fill="midnightblue" stroke="midnightblue" points="1020.82,-26.8086 1012.77,-19.9237 1014.77,-30.3278 1020.82,-26.8086"/>
</g>
<!-- Node28&#45;&gt;Node25 -->
<g id="edge37" class="edge"><title>Node28&#45;&gt;Node25</title>
<path fill="none" stroke="midnightblue" d="M1153.98,-112.398C1167.89,-104.954 1185.71,-92.741 1194,-76 1201.77,-60.3101 1193.15,-41.333 1184.34,-27.9453"/>
<polygon fill="midnightblue" stroke="midnightblue" points="1187.08,-25.7614 1178.4,-19.679 1181.39,-29.8436 1187.08,-25.7614"/>
</g>
<!-- Node29 -->
<g id="node29" class="node"><title>Node29</title>
<polygon fill="none" stroke="#bfbfbf" points="1063.5,-56.5 1063.5,-75.5 1136.5,-75.5 1136.5,-56.5 1063.5,-56.5"/>
<text text-anchor="middle" x="1100" y="-63.5" font-family="Helvetica,sans-Serif" font-size="10.00">libconfig.h++</text>
</g>
<!-- Node28&#45;&gt;Node29 -->
<g id="edge38" class="edge"><title>Node28&#45;&gt;Node29</title>
<path fill="none" stroke="midnightblue" d="M1129.22,-112.083C1124.33,-104.534 1117.17,-93.4948 1111.17,-84.2298"/>
<polygon fill="midnightblue" stroke="midnightblue" points="1114.05,-82.239 1105.67,-75.7511 1108.17,-86.0463 1114.05,-82.239"/>
</g>
<!-- Node30 -->
<g id="node30" class="node"><title>Node30</title>
<polygon fill="none" stroke="#bfbfbf" points="1155,-56.5 1155,-75.5 1185,-75.5 1185,-56.5 1155,-56.5"/>
<text text-anchor="middle" x="1170" y="-63.5" font-family="Helvetica,sans-Serif" font-size="10.00">set</text>
</g>
<!-- Node28&#45;&gt;Node30 -->
<g id="edge39" class="edge"><title>Node28&#45;&gt;Node30</title>
<path fill="none" stroke="midnightblue" d="M1140.78,-112.083C1145.67,-104.534 1152.83,-93.4948 1158.83,-84.2298"/>
<polygon fill="midnightblue" stroke="midnightblue" points="1161.83,-86.0463 1164.33,-75.7511 1155.95,-82.239 1161.83,-86.0463"/>
</g>
</g>
</svg>
