<?xml version="1.0" encoding="UTF-8" standalone="no"?>
<!DOCTYPE svg PUBLIC "-//W3C//DTD SVG 1.1//EN"
 "http://www.w3.org/Graphics/SVG/1.1/DTD/svg11.dtd">
<!-- Generated by graphviz version 2.34.0 (20140110.0949)
 -->
<!-- Title: include/Listener.h Pages: 1 -->
<svg width="1227pt" height="320pt"
 viewBox="0.00 0.00 1227.09 320.00" xmlns="http://www.w3.org/2000/svg" xmlns:xlink="http://www.w3.org/1999/xlink">
<g id="graph0" class="graph" transform="scale(1 1) rotate(0) translate(4 316)">
<title>include/Listener.h</title>
<!-- Node1 -->
<g id="node1" class="node"><title>Node1</title>
<polygon fill="#bfbfbf" stroke="black" points="213.5,-292.5 213.5,-311.5 306.5,-311.5 306.5,-292.5 213.5,-292.5"/>
<text text-anchor="middle" x="260" y="-299.5" font-family="Helvetica,sans-Serif" font-size="10.00">include/Listener.h</text>
</g>
<!-- Node2 -->
<g id="node2" class="node"><title>Node2</title>
<polygon fill="none" stroke="#bfbfbf" points="-0.5,-230.5 -0.5,-249.5 48.5,-249.5 48.5,-230.5 -0.5,-230.5"/>
<text text-anchor="middle" x="24" y="-237.5" font-family="Helvetica,sans-Serif" font-size="10.00">stdint.h</text>
</g>
<!-- Node1&#45;&gt;Node2 -->
<g id="edge1" class="edge"><title>Node1&#45;&gt;Node2</title>
<path fill="none" stroke="midnightblue" d="M213.171,-293.265C171.774,-285.794 110.056,-273.097 58,-256 55.7244,-255.253 53.3938,-254.407 51.0719,-253.506"/>
<polygon fill="midnightblue" stroke="midnightblue" points="52.317,-250.233 41.7403,-249.612 49.6213,-256.693 52.317,-250.233"/>
</g>
<!-- Node3 -->
<g id="node3" class="node"><title>Node3</title>
<polygon fill="none" stroke="#bfbfbf" points="67,-230.5 67,-249.5 141,-249.5 141,-230.5 67,-230.5"/>
<text text-anchor="middle" x="104" y="-237.5" font-family="Helvetica,sans-Serif" font-size="10.00">openssl/ssl.h</text>
</g>
<!-- Node1&#45;&gt;Node3 -->
<g id="edge2" class="edge"><title>Node1&#45;&gt;Node3</title>
<path fill="none" stroke="midnightblue" d="M237.649,-292.403C211.005,-282.156 166.286,-264.956 135.986,-253.302"/>
<polygon fill="midnightblue" stroke="midnightblue" points="136.899,-249.904 126.31,-249.581 134.387,-256.437 136.899,-249.904"/>
</g>
<!-- Node4 -->
<g id="node4" class="node"><title>Node4</title>
<polygon fill="none" stroke="#bfbfbf" points="159.5,-230.5 159.5,-249.5 248.5,-249.5 248.5,-230.5 159.5,-230.5"/>
<text text-anchor="middle" x="204" y="-237.5" font-family="Helvetica,sans-Serif" font-size="10.00">event2/listener.h</text>
</g>
<!-- Node1&#45;&gt;Node4 -->
<g id="edge3" class="edge"><title>Node1&#45;&gt;Node4</title>
<path fill="none" stroke="midnightblue" d="M251.977,-292.403C243.41,-283.225 229.639,-268.47 219.043,-257.117"/>
<polygon fill="midnightblue" stroke="midnightblue" points="221.39,-254.503 212.009,-249.581 216.273,-259.279 221.39,-254.503"/>
</g>
<!-- Node5 -->
<g id="node5" class="node"><title>Node5</title>
<polygon fill="none" stroke="#bfbfbf" points="267,-225 267,-255 365,-255 365,-225 267,-225"/>
<text text-anchor="start" x="275" y="-243" font-family="Helvetica,sans-Serif" font-size="10.00">event2/bufferevent</text>
<text text-anchor="middle" x="316" y="-232" font-family="Helvetica,sans-Serif" font-size="10.00">_ssl.h</text>
</g>
<!-- Node1&#45;&gt;Node5 -->
<g id="edge4" class="edge"><title>Node1&#45;&gt;Node5</title>
<path fill="none" stroke="midnightblue" d="M268.023,-292.403C275.253,-284.657 286.191,-272.938 295.798,-262.645"/>
<polygon fill="midnightblue" stroke="midnightblue" points="298.537,-264.84 302.802,-255.141 293.42,-260.063 298.537,-264.84"/>
</g>
<!-- Node6 -->
<g id="node6" class="node"><title>Node6</title>
<g id="a_node6"><a xlink:href="_logger_8h.html" target="_top" xlink:title="Logger.h">
<polygon fill="none" stroke="black" points="430,-230.5 430,-249.5 484,-249.5 484,-230.5 430,-230.5"/>
<text text-anchor="middle" x="457" y="-237.5" font-family="Helvetica,sans-Serif" font-size="10.00">Logger.h</text>
</a>
</g>
</g>
<!-- Node1&#45;&gt;Node6 -->
<g id="edge5" class="edge"><title>Node1&#45;&gt;Node6</title>
<path fill="none" stroke="midnightblue" d="M288.225,-292.403C322.896,-281.844 381.804,-263.902 420.051,-252.253"/>
<polygon fill="midnightblue" stroke="midnightblue" points="421.231,-255.553 429.778,-249.291 419.192,-248.857 421.231,-255.553"/>
</g>
<!-- Node26 -->
<g id="node26" class="node"><title>Node26</title>
<g id="a_node26"><a xlink:href="_socket_8h.html" target="_top" xlink:title="Socket.h">
<polygon fill="none" stroke="black" points="360,-168.5 360,-187.5 416,-187.5 416,-168.5 360,-168.5"/>
<text text-anchor="middle" x="388" y="-175.5" font-family="Helvetica,sans-Serif" font-size="10.00">Socket.h</text>
</a>
</g>
</g>
<!-- Node1&#45;&gt;Node26 -->
<g id="edge28" class="edge"><title>Node1&#45;&gt;Node26</title>
<path fill="none" stroke="midnightblue" d="M306.605,-293.637C330.209,-287.498 357.327,-276.311 374,-256 387.309,-239.788 389.657,-215.128 389.425,-198.104"/>
<polygon fill="midnightblue" stroke="midnightblue" points="392.904,-197.567 388.954,-187.736 385.911,-197.885 392.904,-197.567"/>
</g>
<!-- Node7 -->
<g id="node7" class="node"><title>Node7</title>
<polygon fill="none" stroke="#bfbfbf" points="434.5,-168.5 434.5,-187.5 487.5,-187.5 487.5,-168.5 434.5,-168.5"/>
<text text-anchor="middle" x="461" y="-175.5" font-family="Helvetica,sans-Serif" font-size="10.00">syslog.h</text>
</g>
<!-- Node6&#45;&gt;Node7 -->
<g id="edge6" class="edge"><title>Node6&#45;&gt;Node7</title>
<path fill="none" stroke="midnightblue" d="M457.573,-230.403C458.137,-221.938 459.018,-208.728 459.745,-197.82"/>
<polygon fill="midnightblue" stroke="midnightblue" points="463.255,-197.791 460.428,-187.581 456.27,-197.326 463.255,-197.791"/>
</g>
<!-- Node8 -->
<g id="node8" class="node"><title>Node8</title>
<g id="a_node8"><a xlink:href="_files_8h.html" target="_top" xlink:title="Files.h">
<polygon fill="none" stroke="black" points="771,-168.5 771,-187.5 817,-187.5 817,-168.5 771,-168.5"/>
<text text-anchor="middle" x="794" y="-175.5" font-family="Helvetica,sans-Serif" font-size="10.00">Files.h</text>
</a>
</g>
</g>
<!-- Node6&#45;&gt;Node8 -->
<g id="edge7" class="edge"><title>Node6&#45;&gt;Node8</title>
<path fill="none" stroke="midnightblue" d="M484.008,-234.191C545.239,-223.29 694.44,-196.726 761.001,-184.875"/>
<polygon fill="midnightblue" stroke="midnightblue" points="761.716,-188.303 770.948,-183.104 760.489,-181.411 761.716,-188.303"/>
</g>
<!-- Node19 -->
<g id="node19" class="node"><title>Node19</title>
<g id="a_node19"><a xlink:href="_string_8h.html" target="_top" xlink:title="String.h">
<polygon fill="none" stroke="black" points="282,-56.5 282,-75.5 332,-75.5 332,-56.5 282,-56.5"/>
<text text-anchor="middle" x="307" y="-63.5" font-family="Helvetica,sans-Serif" font-size="10.00">String.h</text>
</a>
</g>
</g>
<!-- Node6&#45;&gt;Node19 -->
<g id="edge27" class="edge"><title>Node6&#45;&gt;Node19</title>
<path fill="none" stroke="midnightblue" d="M429.622,-231.212C370.962,-213.914 236.406,-170.756 211,-132 192.821,-104.269 237.793,-85.3118 272.167,-75.3196"/>
<polygon fill="midnightblue" stroke="midnightblue" points="273.253,-78.6509 281.966,-72.6228 271.396,-71.9018 273.253,-78.6509"/>
</g>
<!-- Node9 -->
<g id="node9" class="node"><title>Node9</title>
<polygon fill="none" stroke="#bfbfbf" points="335,-112.5 335,-131.5 441,-131.5 441,-112.5 335,-112.5"/>
<text text-anchor="middle" x="388" y="-119.5" font-family="Helvetica,sans-Serif" font-size="10.00">event2/bufferevent.h</text>
</g>
<!-- Node8&#45;&gt;Node9 -->
<g id="edge8" class="edge"><title>Node8&#45;&gt;Node9</title>
<path fill="none" stroke="midnightblue" d="M770.698,-174.036C716.674,-167.145 578.455,-149.401 451.192,-132.012"/>
<polygon fill="midnightblue" stroke="midnightblue" points="451.652,-128.542 441.27,-130.654 450.703,-135.478 451.652,-128.542"/>
</g>
<!-- Node10 -->
<g id="node10" class="node"><title>Node10</title>
<polygon fill="none" stroke="#bfbfbf" points="1086.5,-112.5 1086.5,-131.5 1137.5,-131.5 1137.5,-112.5 1086.5,-112.5"/>
<text text-anchor="middle" x="1112" y="-119.5" font-family="Helvetica,sans-Serif" font-size="10.00">unistd.h</text>
</g>
<!-- Node8&#45;&gt;Node10 -->
<g id="edge9" class="edge"><title>Node8&#45;&gt;Node10</title>
<path fill="none" stroke="midnightblue" d="M817.245,-174.058C864.254,-167.947 974.129,-152.854 1076.56,-131.91"/>
<polygon fill="midnightblue" stroke="midnightblue" points="1077.37,-135.318 1086.45,-129.865 1075.95,-128.463 1077.37,-135.318"/>
</g>
<!-- Node11 -->
<g id="node11" class="node"><title>Node11</title>
<polygon fill="none" stroke="#bfbfbf" points="1156,-112.5 1156,-131.5 1204,-131.5 1204,-112.5 1156,-112.5"/>
<text text-anchor="middle" x="1180" y="-119.5" font-family="Helvetica,sans-Serif" font-size="10.00">stdlib.h</text>
</g>
<!-- Node8&#45;&gt;Node11 -->
<g id="edge10" class="edge"><title>Node8&#45;&gt;Node11</title>
<path fill="none" stroke="midnightblue" d="M817.232,-175.096C873.839,-170.227 1023.26,-155.983 1146,-132 1146.1,-131.98 1146.2,-131.96 1146.3,-131.94"/>
<polygon fill="midnightblue" stroke="midnightblue" points="1146.95,-135.383 1155.94,-129.787 1145.42,-128.551 1146.95,-135.383"/>
</g>
<!-- Node12 -->
<g id="node12" class="node"><title>Node12</title>
<polygon fill="none" stroke="#bfbfbf" points="725,-112.5 725,-131.5 785,-131.5 785,-112.5 725,-112.5"/>
<text text-anchor="middle" x="755" y="-119.5" font-family="Helvetica,sans-Serif" font-size="10.00">sys/stat.h</text>
</g>
<!-- Node8&#45;&gt;Node12 -->
<g id="edge11" class="edge"><title>Node8&#45;&gt;Node12</title>
<path fill="none" stroke="midnightblue" d="M787.56,-168.083C782.051,-160.455 773.969,-149.264 767.235,-139.941"/>
<polygon fill="midnightblue" stroke="midnightblue" points="770.013,-137.809 761.32,-131.751 764.338,-141.907 770.013,-137.809"/>
</g>
<!-- Node13 -->
<g id="node13" class="node"><title>Node13</title>
<polygon fill="none" stroke="#bfbfbf" points="803,-112.5 803,-131.5 865,-131.5 865,-112.5 803,-112.5"/>
<text text-anchor="middle" x="834" y="-119.5" font-family="Helvetica,sans-Serif" font-size="10.00">sys/fcntl.h</text>
</g>
<!-- Node8&#45;&gt;Node13 -->
<g id="edge12" class="edge"><title>Node8&#45;&gt;Node13</title>
<path fill="none" stroke="midnightblue" d="M800.605,-168.083C806.255,-160.455 814.545,-149.264 821.451,-139.941"/>
<polygon fill="midnightblue" stroke="midnightblue" points="824.378,-141.87 827.518,-131.751 818.753,-137.703 824.378,-141.87"/>
</g>
<!-- Node14 -->
<g id="node14" class="node"><title>Node14</title>
<polygon fill="none" stroke="#bfbfbf" points="883,-112.5 883,-131.5 953,-131.5 953,-112.5 883,-112.5"/>
<text text-anchor="middle" x="918" y="-119.5" font-family="Helvetica,sans-Serif" font-size="10.00">sys/inotify.h</text>
</g>
<!-- Node8&#45;&gt;Node14 -->
<g id="edge13" class="edge"><title>Node8&#45;&gt;Node14</title>
<path fill="none" stroke="midnightblue" d="M813.648,-168.444C833.965,-159.596 865.903,-145.687 889.098,-135.586"/>
<polygon fill="midnightblue" stroke="midnightblue" points="890.673,-138.718 898.444,-131.516 887.878,-132.3 890.673,-138.718"/>
</g>
<!-- Node15 -->
<g id="node15" class="node"><title>Node15</title>
<polygon fill="none" stroke="#bfbfbf" points="971,-112.5 971,-131.5 1015,-131.5 1015,-112.5 971,-112.5"/>
<text text-anchor="middle" x="993" y="-119.5" font-family="Helvetica,sans-Serif" font-size="10.00">vector</text>
</g>
<!-- Node8&#45;&gt;Node15 -->
<g id="edge14" class="edge"><title>Node8&#45;&gt;Node15</title>
<path fill="none" stroke="midnightblue" d="M817.14,-170.965C847.801,-162.933 903.811,-148.14 960.774,-132.303"/>
<polygon fill="midnightblue" stroke="midnightblue" points="961.972,-135.602 970.665,-129.545 960.092,-128.859 961.972,-135.602"/>
</g>
<!-- Node16 -->
<g id="node16" class="node"><title>Node16</title>
<polygon fill="none" stroke="#bfbfbf" points="1033.5,-112.5 1033.5,-131.5 1068.5,-131.5 1068.5,-112.5 1033.5,-112.5"/>
<text text-anchor="middle" x="1051" y="-119.5" font-family="Helvetica,sans-Serif" font-size="10.00">map</text>
</g>
<!-- Node8&#45;&gt;Node16 -->
<g id="edge15" class="edge"><title>Node8&#45;&gt;Node16</title>
<path fill="none" stroke="midnightblue" d="M817.073,-173.495C857.131,-167.194 942.247,-152.864 1023.49,-131.833"/>
<polygon fill="midnightblue" stroke="midnightblue" points="1024.6,-135.162 1033.38,-129.235 1022.82,-128.392 1024.6,-135.162"/>
</g>
<!-- Node17 -->
<g id="node17" class="node"><title>Node17</title>
<g id="a_node17"><a xlink:href="defines_8h.html" target="_top" xlink:title="defines.h">
<polygon fill="none" stroke="black" points="686,-56.5 686,-75.5 742,-75.5 742,-56.5 686,-56.5"/>
<text text-anchor="middle" x="714" y="-63.5" font-family="Helvetica,sans-Serif" font-size="10.00">defines.h</text>
</a>
</g>
</g>
<!-- Node8&#45;&gt;Node17 -->
<g id="edge16" class="edge"><title>Node8&#45;&gt;Node17</title>
<path fill="none" stroke="midnightblue" d="M817.126,-177.057C912.548,-176.903 1268.12,-172.317 1213,-112 1182.09,-78.1772 864.026,-69.5465 752.436,-67.5512"/>
<polygon fill="midnightblue" stroke="midnightblue" points="752.357,-64.0495 742.299,-67.3782 752.237,-71.0485 752.357,-64.0495"/>
</g>
<!-- Node18 -->
<g id="node18" class="node"><title>Node18</title>
<g id="a_node18"><a xlink:href="_closable_8h.html" target="_top" xlink:title="Closable.h">
<polygon fill="none" stroke="black" points="459.5,-112.5 459.5,-131.5 522.5,-131.5 522.5,-112.5 459.5,-112.5"/>
<text text-anchor="middle" x="491" y="-119.5" font-family="Helvetica,sans-Serif" font-size="10.00">Closable.h</text>
</a>
</g>
</g>
<!-- Node8&#45;&gt;Node18 -->
<g id="edge17" class="edge"><title>Node8&#45;&gt;Node18</title>
<path fill="none" stroke="midnightblue" d="M770.935,-173.119C725.911,-165.509 623.181,-147.974 537,-132 535.55,-131.731 534.074,-131.455 532.584,-131.175"/>
<polygon fill="midnightblue" stroke="midnightblue" points="533.137,-127.717 522.658,-129.28 531.824,-134.593 533.137,-127.717"/>
</g>
<!-- Node8&#45;&gt;Node19 -->
<g id="edge18" class="edge"><title>Node8&#45;&gt;Node19</title>
<path fill="none" stroke="midnightblue" d="M770.816,-172.818C735.378,-166.101 665.862,-151.643 609,-132 588.696,-124.986 585.524,-118.341 565,-112 487.333,-88.0043 392.315,-75.5769 342.06,-70.2631"/>
<polygon fill="midnightblue" stroke="midnightblue" points="342.343,-66.7738 332.038,-69.2356 341.629,-73.7373 342.343,-66.7738"/>
</g>
<!-- Node21 -->
<g id="node21" class="node"><title>Node21</title>
<g id="a_node21"><a xlink:href="_writer_8h.html" target="_top" xlink:title="Writer.h">
<polygon fill="none" stroke="black" points="617.5,-112.5 617.5,-131.5 668.5,-131.5 668.5,-112.5 617.5,-112.5"/>
<text text-anchor="middle" x="643" y="-119.5" font-family="Helvetica,sans-Serif" font-size="10.00">Writer.h</text>
</a>
</g>
</g>
<!-- Node8&#45;&gt;Node21 -->
<g id="edge20" class="edge"><title>Node8&#45;&gt;Node21</title>
<path fill="none" stroke="midnightblue" d="M770.737,-168.681C745.502,-159.656 704.996,-145.171 676.372,-134.934"/>
<polygon fill="midnightblue" stroke="midnightblue" points="677.382,-131.579 666.788,-131.507 675.025,-138.17 677.382,-131.579"/>
</g>
<!-- Node23 -->
<g id="node23" class="node"><title>Node23</title>
<g id="a_node23"><a xlink:href="_event_8h.html" target="_top" xlink:title="Event.h">
<polygon fill="none" stroke="black" points="172,-56.5 172,-75.5 222,-75.5 222,-56.5 172,-56.5"/>
<text text-anchor="middle" x="197" y="-63.5" font-family="Helvetica,sans-Serif" font-size="10.00">Event.h</text>
</a>
</g>
</g>
<!-- Node8&#45;&gt;Node23 -->
<g id="edge24" class="edge"><title>Node8&#45;&gt;Node23</title>
<path fill="none" stroke="midnightblue" d="M770.869,-175.051C728.733,-170.939 637.159,-159.398 565,-132 548.61,-125.777 547.57,-117.728 531,-112 516.963,-107.148 315.042,-81.6792 232.136,-71.3541"/>
<polygon fill="midnightblue" stroke="midnightblue" points="232.531,-67.8763 222.176,-70.1152 231.667,-74.8228 232.531,-67.8763"/>
</g>
<!-- Node20 -->
<g id="node20" class="node"><title>Node20</title>
<polygon fill="none" stroke="#bfbfbf" points="286.5,-0.5 286.5,-19.5 327.5,-19.5 327.5,-0.5 286.5,-0.5"/>
<text text-anchor="middle" x="307" y="-7.5" font-family="Helvetica,sans-Serif" font-size="10.00">string</text>
</g>
<!-- Node19&#45;&gt;Node20 -->
<g id="edge19" class="edge"><title>Node19&#45;&gt;Node20</title>
<path fill="none" stroke="midnightblue" d="M307,-56.083C307,-49.0059 307,-38.8611 307,-29.9865"/>
<polygon fill="midnightblue" stroke="midnightblue" points="310.5,-29.751 307,-19.7511 303.5,-29.7511 310.5,-29.751"/>
</g>
<!-- Node21&#45;&gt;Node17 -->
<g id="edge21" class="edge"><title>Node21&#45;&gt;Node17</title>
<path fill="none" stroke="midnightblue" d="M654.407,-112.324C665.109,-104.185 681.341,-91.8395 694.163,-82.0874"/>
<polygon fill="midnightblue" stroke="midnightblue" points="696.544,-84.6734 702.385,-75.8339 692.307,-79.1018 696.544,-84.6734"/>
</g>
<!-- Node21&#45;&gt;Node19 -->
<g id="edge22" class="edge"><title>Node21&#45;&gt;Node19</title>
<path fill="none" stroke="midnightblue" d="M617.235,-114.923C612.512,-113.888 607.617,-112.869 603,-112 509.181,-94.3366 397.626,-78.8558 342.072,-71.5175"/>
<polygon fill="midnightblue" stroke="midnightblue" points="342.42,-68.0331 332.049,-70.2017 341.508,-74.9735 342.42,-68.0331"/>
</g>
<!-- Node22 -->
<g id="node22" class="node"><title>Node22</title>
<g id="a_node22"><a xlink:href="_should_delete_8h.html" target="_top" xlink:title="ShouldDelete.h">
<polygon fill="none" stroke="black" points="584.5,-56.5 584.5,-75.5 667.5,-75.5 667.5,-56.5 584.5,-56.5"/>
<text text-anchor="middle" x="626" y="-63.5" font-family="Helvetica,sans-Serif" font-size="10.00">ShouldDelete.h</text>
</a>
</g>
</g>
<!-- Node21&#45;&gt;Node22 -->
<g id="edge23" class="edge"><title>Node21&#45;&gt;Node22</title>
<path fill="none" stroke="midnightblue" d="M640.193,-112.083C637.915,-104.849 634.629,-94.4087 631.792,-85.3968"/>
<polygon fill="midnightblue" stroke="midnightblue" points="635.096,-84.2385 628.755,-75.7511 628.419,-86.3406 635.096,-84.2385"/>
</g>
<!-- Node24 -->
<g id="node24" class="node"><title>Node24</title>
<polygon fill="none" stroke="#bfbfbf" points="31.5,-0.5 31.5,-19.5 104.5,-19.5 104.5,-0.5 31.5,-0.5"/>
<text text-anchor="middle" x="68" y="-7.5" font-family="Helvetica,sans-Serif" font-size="10.00">event2/dns.h</text>
</g>
<!-- Node23&#45;&gt;Node24 -->
<g id="edge25" class="edge"><title>Node23&#45;&gt;Node24</title>
<path fill="none" stroke="midnightblue" d="M176.56,-56.4435C155.33,-47.5566 121.901,-33.5632 97.745,-23.4514"/>
<polygon fill="midnightblue" stroke="midnightblue" points="98.9207,-20.1493 88.3448,-19.5164 96.2177,-26.6064 98.9207,-20.1493"/>
</g>
<!-- Node25 -->
<g id="node25" class="node"><title>Node25</title>
<polygon fill="none" stroke="#bfbfbf" points="171.5,-0.5 171.5,-19.5 252.5,-19.5 252.5,-0.5 171.5,-0.5"/>
<text text-anchor="middle" x="212" y="-7.5" font-family="Helvetica,sans-Serif" font-size="10.00">event2/event.h</text>
</g>
<!-- Node23&#45;&gt;Node25 -->
<g id="edge26" class="edge"><title>Node23&#45;&gt;Node25</title>
<path fill="none" stroke="midnightblue" d="M199.477,-56.083C201.486,-48.8486 204.386,-38.4087 206.89,-29.3968"/>
<polygon fill="midnightblue" stroke="midnightblue" points="210.265,-30.323 209.569,-19.7511 203.52,-28.4495 210.265,-30.323"/>
</g>
<!-- Node26&#45;&gt;Node9 -->
<g id="edge30" class="edge"><title>Node26&#45;&gt;Node9</title>
<path fill="none" stroke="midnightblue" d="M388,-168.083C388,-161.006 388,-150.861 388,-141.986"/>
<polygon fill="midnightblue" stroke="midnightblue" points="391.5,-141.751 388,-131.751 384.5,-141.751 391.5,-141.751"/>
</g>
<!-- Node26&#45;&gt;Node17 -->
<g id="edge31" class="edge"><title>Node26&#45;&gt;Node17</title>
<path fill="none" stroke="midnightblue" d="M416.161,-170.032C419.469,-169.302 422.803,-168.607 426,-168 536.722,-146.992 583.852,-195.436 677,-132 693.063,-121.06 702.991,-100.694 708.467,-85.6633"/>
<polygon fill="midnightblue" stroke="midnightblue" points="711.887,-86.4656 711.691,-75.8726 705.239,-84.2759 711.887,-86.4656"/>
</g>
<!-- Node26&#45;&gt;Node18 -->
<g id="edge32" class="edge"><title>Node26&#45;&gt;Node18</title>
<path fill="none" stroke="midnightblue" d="M404.549,-168.324C420.992,-159.703 446.435,-146.364 465.468,-136.386"/>
<polygon fill="midnightblue" stroke="midnightblue" points="467.261,-139.398 474.492,-131.655 464.011,-133.198 467.261,-139.398"/>
</g>
<!-- Node26&#45;&gt;Node19 -->
<g id="edge33" class="edge"><title>Node26&#45;&gt;Node19</title>
<path fill="none" stroke="midnightblue" d="M370.542,-168.479C356.543,-160.788 337.412,-148.201 326,-132 316.373,-118.333 311.579,-99.7962 309.219,-86.0149"/>
<polygon fill="midnightblue" stroke="midnightblue" points="312.634,-85.1736 307.756,-75.7686 305.704,-86.1629 312.634,-85.1736"/>
</g>
<!-- Node26&#45;&gt;Node21 -->
<g id="edge41" class="edge"><title>Node26&#45;&gt;Node21</title>
<path fill="none" stroke="midnightblue" d="M416.201,-170.228C419.502,-169.463 422.823,-168.705 426,-168 489.673,-153.861 564.173,-138.715 607.241,-130.095"/>
<polygon fill="midnightblue" stroke="midnightblue" points="608.108,-133.491 617.229,-128.101 606.737,-126.627 608.108,-133.491"/>
</g>
<!-- Node27 -->
<g id="node27" class="node"><title>Node27</title>
<polygon fill="none" stroke="#bfbfbf" points="219.5,-112.5 219.5,-131.5 278.5,-131.5 278.5,-112.5 219.5,-112.5"/>
<text text-anchor="middle" x="249" y="-119.5" font-family="Helvetica,sans-Serif" font-size="10.00">stdexcept</text>
</g>
<!-- Node26&#45;&gt;Node27 -->
<g id="edge29" class="edge"><title>Node26&#45;&gt;Node27</title>
<path fill="none" stroke="midnightblue" d="M365.975,-168.444C342.896,-159.478 306.438,-145.314 280.359,-135.183"/>
<polygon fill="midnightblue" stroke="midnightblue" points="281.511,-131.875 270.922,-131.516 278.976,-138.4 281.511,-131.875"/>
</g>
<!-- Node28 -->
<g id="node28" class="node"><title>Node28</title>
<g id="a_node28"><a xlink:href="_module_8h.html" target="_top" xlink:title="Module.h">
<polygon fill="none" stroke="black" points="107,-112.5 107,-131.5 163,-131.5 163,-112.5 107,-112.5"/>
<text text-anchor="middle" x="135" y="-119.5" font-family="Helvetica,sans-Serif" font-size="10.00">Module.h</text>
</a>
</g>
</g>
<!-- Node26&#45;&gt;Node28 -->
<g id="edge34" class="edge"><title>Node26&#45;&gt;Node28</title>
<path fill="none" stroke="midnightblue" d="M359.958,-171.015C314.461,-161.304 224.494,-142.102 173.193,-131.152"/>
<polygon fill="midnightblue" stroke="midnightblue" points="173.678,-127.677 163.168,-129.012 172.217,-134.522 173.678,-127.677"/>
</g>
<!-- Node28&#45;&gt;Node19 -->
<g id="edge39" class="edge"><title>Node28&#45;&gt;Node19</title>
<path fill="none" stroke="midnightblue" d="M162.254,-112.444C191.914,-103.132 239.431,-88.2137 271.871,-78.0289"/>
<polygon fill="midnightblue" stroke="midnightblue" points="273.34,-81.2363 281.832,-74.9015 271.243,-74.5577 273.34,-81.2363"/>
</g>
<!-- Node28&#45;&gt;Node23 -->
<g id="edge40" class="edge"><title>Node28&#45;&gt;Node23</title>
<path fill="none" stroke="midnightblue" d="M144.961,-112.324C154.127,-104.341 167.937,-92.3128 179.028,-82.6529"/>
<polygon fill="midnightblue" stroke="midnightblue" points="181.615,-85.041 186.857,-75.8339 177.018,-79.7624 181.615,-85.041"/>
</g>
<!-- Node28&#45;&gt;Node24 -->
<g id="edge35" class="edge"><title>Node28&#45;&gt;Node24</title>
<path fill="none" stroke="midnightblue" d="M106.982,-118.404C80.3443,-114.278 41.6583,-103.605 23,-76 11.2843,-58.6668 29.4744,-38.9302 46.1104,-25.7975"/>
<polygon fill="midnightblue" stroke="midnightblue" points="48.5508,-28.3454 54.5017,-19.5796 44.3833,-22.7211 48.5508,-28.3454"/>
</g>
<!-- Node28&#45;&gt;Node25 -->
<g id="edge36" class="edge"><title>Node28&#45;&gt;Node25</title>
<path fill="none" stroke="midnightblue" d="M161.09,-112.343C186.683,-103.261 223.002,-88.5826 231,-76 240.327,-61.3278 232.539,-41.9178 224.296,-28.1391"/>
<polygon fill="midnightblue" stroke="midnightblue" points="227.129,-26.0755 218.722,-19.6271 221.273,-29.9104 227.129,-26.0755"/>
</g>
<!-- Node29 -->
<g id="node29" class="node"><title>Node29</title>
<polygon fill="none" stroke="#bfbfbf" points="32.5,-56.5 32.5,-75.5 105.5,-75.5 105.5,-56.5 32.5,-56.5"/>
<text text-anchor="middle" x="69" y="-63.5" font-family="Helvetica,sans-Serif" font-size="10.00">libconfig.h++</text>
</g>
<!-- Node28&#45;&gt;Node29 -->
<g id="edge37" class="edge"><title>Node28&#45;&gt;Node29</title>
<path fill="none" stroke="midnightblue" d="M124.396,-112.324C114.544,-104.263 99.6491,-92.0765 87.7849,-82.3695"/>
<polygon fill="midnightblue" stroke="midnightblue" points="89.7529,-79.4575 79.797,-75.8339 85.3202,-84.8752 89.7529,-79.4575"/>
</g>
<!-- Node30 -->
<g id="node30" class="node"><title>Node30</title>
<polygon fill="none" stroke="#bfbfbf" points="124,-56.5 124,-75.5 154,-75.5 154,-56.5 124,-56.5"/>
<text text-anchor="middle" x="139" y="-63.5" font-family="Helvetica,sans-Serif" font-size="10.00">set</text>
</g>
<!-- Node28&#45;&gt;Node30 -->
<g id="edge38" class="edge"><title>Node28&#45;&gt;Node30</title>
<path fill="none" stroke="midnightblue" d="M135.661,-112.083C136.185,-105.006 136.936,-94.8611 137.594,-85.9865"/>
<polygon fill="midnightblue" stroke="midnightblue" points="141.103,-85.9823 138.352,-75.7511 134.123,-85.4652 141.103,-85.9823"/>
</g>
</g>
</svg>
