<?xml version="1.0" encoding="UTF-8" standalone="no"?>
<!DOCTYPE svg PUBLIC "-//W3C//DTD SVG 1.1//EN"
 "http://www.w3.org/Graphics/SVG/1.1/DTD/svg11.dtd">
<!-- Generated by graphviz version 2.34.0 (20140110.0949)
 -->
<!-- Title: include/Logger.h Pages: 1 -->
<svg width="853pt" height="252pt"
 viewBox="0.00 0.00 853.23 252.00" xmlns="http://www.w3.org/2000/svg" xmlns:xlink="http://www.w3.org/1999/xlink">
<g id="graph0" class="graph" transform="scale(1 1) rotate(0) translate(4 248)">
<title>include/Logger.h</title>
<!-- Node1 -->
<g id="node1" class="node"><title>Node1</title>
<polygon fill="#bfbfbf" stroke="black" points="417,-224.5 417,-243.5 505,-243.5 505,-224.5 417,-224.5"/>
<text text-anchor="middle" x="461" y="-231.5" font-family="Helvetica,sans-Serif" font-size="10.00">include/Logger.h</text>
</g>
<!-- Node2 -->
<g id="node2" class="node"><title>Node2</title>
<polygon fill="none" stroke="#bfbfbf" points="366.5,-168.5 366.5,-187.5 419.5,-187.5 419.5,-168.5 366.5,-168.5"/>
<text text-anchor="middle" x="393" y="-175.5" font-family="Helvetica,sans-Serif" font-size="10.00">syslog.h</text>
</g>
<!-- Node1&#45;&gt;Node2 -->
<g id="edge1" class="edge"><title>Node1&#45;&gt;Node2</title>
<path fill="none" stroke="midnightblue" d="M450.075,-224.324C439.825,-216.185 424.279,-203.839 411.999,-194.087"/>
<polygon fill="midnightblue" stroke="midnightblue" points="414.132,-191.312 404.124,-187.834 409.779,-196.794 414.132,-191.312"/>
</g>
<!-- Node3 -->
<g id="node3" class="node"><title>Node3</title>
<g id="a_node3"><a xlink:href="_files_8h.html" target="_top" xlink:title="Files.h">
<polygon fill="none" stroke="black" points="438,-168.5 438,-187.5 484,-187.5 484,-168.5 438,-168.5"/>
<text text-anchor="middle" x="461" y="-175.5" font-family="Helvetica,sans-Serif" font-size="10.00">Files.h</text>
</a>
</g>
</g>
<!-- Node1&#45;&gt;Node3 -->
<g id="edge2" class="edge"><title>Node1&#45;&gt;Node3</title>
<path fill="none" stroke="midnightblue" d="M461,-224.083C461,-217.006 461,-206.861 461,-197.986"/>
<polygon fill="midnightblue" stroke="midnightblue" points="464.5,-197.751 461,-187.751 457.5,-197.751 464.5,-197.751"/>
</g>
<!-- Node14 -->
<g id="node14" class="node"><title>Node14</title>
<g id="a_node14"><a xlink:href="_string_8h.html" target="_top" xlink:title="String.h">
<polygon fill="none" stroke="black" points="686,-56.5 686,-75.5 736,-75.5 736,-56.5 686,-56.5"/>
<text text-anchor="middle" x="711" y="-63.5" font-family="Helvetica,sans-Serif" font-size="10.00">String.h</text>
</a>
</g>
</g>
<!-- Node1&#45;&gt;Node14 -->
<g id="edge19" class="edge"><title>Node1&#45;&gt;Node14</title>
<path fill="none" stroke="midnightblue" d="M505.14,-227.879C595.861,-216.35 798.198,-185.135 839,-132 866.166,-96.6228 792.794,-78.9422 746.176,-71.5049"/>
<polygon fill="midnightblue" stroke="midnightblue" points="746.523,-68.0177 736.113,-69.99 745.481,-74.9397 746.523,-68.0177"/>
</g>
<!-- Node4 -->
<g id="node4" class="node"><title>Node4</title>
<polygon fill="none" stroke="#bfbfbf" points="724,-112.5 724,-131.5 830,-131.5 830,-112.5 724,-112.5"/>
<text text-anchor="middle" x="777" y="-119.5" font-family="Helvetica,sans-Serif" font-size="10.00">event2/bufferevent.h</text>
</g>
<!-- Node3&#45;&gt;Node4 -->
<g id="edge3" class="edge"><title>Node3&#45;&gt;Node4</title>
<path fill="none" stroke="midnightblue" d="M484.236,-173.029C532.803,-164.73 646.393,-145.319 716.948,-133.262"/>
<polygon fill="midnightblue" stroke="midnightblue" points="717.766,-136.673 727.033,-131.539 716.586,-129.773 717.766,-136.673"/>
</g>
<!-- Node5 -->
<g id="node5" class="node"><title>Node5</title>
<polygon fill="none" stroke="#bfbfbf" points="-0.5,-112.5 -0.5,-131.5 50.5,-131.5 50.5,-112.5 -0.5,-112.5"/>
<text text-anchor="middle" x="25" y="-119.5" font-family="Helvetica,sans-Serif" font-size="10.00">unistd.h</text>
</g>
<!-- Node3&#45;&gt;Node5 -->
<g id="edge4" class="edge"><title>Node3&#45;&gt;Node5</title>
<path fill="none" stroke="midnightblue" d="M437.676,-170.116C434.445,-169.316 431.154,-168.58 428,-168 269.531,-138.855 223.622,-159.698 60.41,-131.773"/>
<polygon fill="midnightblue" stroke="midnightblue" points="60.9679,-128.318 50.5149,-130.046 59.7639,-135.213 60.9679,-128.318"/>
</g>
<!-- Node6 -->
<g id="node6" class="node"><title>Node6</title>
<polygon fill="none" stroke="#bfbfbf" points="69,-112.5 69,-131.5 117,-131.5 117,-112.5 69,-112.5"/>
<text text-anchor="middle" x="93" y="-119.5" font-family="Helvetica,sans-Serif" font-size="10.00">stdlib.h</text>
</g>
<!-- Node3&#45;&gt;Node6 -->
<g id="edge5" class="edge"><title>Node3&#45;&gt;Node6</title>
<path fill="none" stroke="midnightblue" d="M437.665,-170.178C434.436,-169.368 431.148,-168.613 428,-168 298.562,-142.778 260.524,-157.111 127.242,-131.964"/>
<polygon fill="midnightblue" stroke="midnightblue" points="127.535,-128.457 117.054,-130.001 126.211,-135.33 127.535,-128.457"/>
</g>
<!-- Node7 -->
<g id="node7" class="node"><title>Node7</title>
<polygon fill="none" stroke="#bfbfbf" points="135,-112.5 135,-131.5 195,-131.5 195,-112.5 135,-112.5"/>
<text text-anchor="middle" x="165" y="-119.5" font-family="Helvetica,sans-Serif" font-size="10.00">sys/stat.h</text>
</g>
<!-- Node3&#45;&gt;Node7 -->
<g id="edge6" class="edge"><title>Node3&#45;&gt;Node7</title>
<path fill="none" stroke="midnightblue" d="M437.998,-170.39C434.658,-169.528 431.25,-168.702 428,-168 332.521,-147.37 304.685,-151.083 205.061,-132.089"/>
<polygon fill="midnightblue" stroke="midnightblue" points="205.674,-128.643 195.191,-130.179 204.343,-135.516 205.674,-128.643"/>
</g>
<!-- Node8 -->
<g id="node8" class="node"><title>Node8</title>
<polygon fill="none" stroke="#bfbfbf" points="213,-112.5 213,-131.5 275,-131.5 275,-112.5 213,-112.5"/>
<text text-anchor="middle" x="244" y="-119.5" font-family="Helvetica,sans-Serif" font-size="10.00">sys/fcntl.h</text>
</g>
<!-- Node3&#45;&gt;Node8 -->
<g id="edge7" class="edge"><title>Node3&#45;&gt;Node8</title>
<path fill="none" stroke="midnightblue" d="M437.942,-170.628C434.61,-169.732 431.22,-168.833 428,-168 379.108,-155.357 322.664,-141.689 285.321,-132.776"/>
<polygon fill="midnightblue" stroke="midnightblue" points="285.856,-129.306 275.317,-130.393 284.234,-136.115 285.856,-129.306"/>
</g>
<!-- Node9 -->
<g id="node9" class="node"><title>Node9</title>
<polygon fill="none" stroke="#bfbfbf" points="293,-112.5 293,-131.5 363,-131.5 363,-112.5 293,-112.5"/>
<text text-anchor="middle" x="328" y="-119.5" font-family="Helvetica,sans-Serif" font-size="10.00">sys/inotify.h</text>
</g>
<!-- Node3&#45;&gt;Node9 -->
<g id="edge8" class="edge"><title>Node3&#45;&gt;Node9</title>
<path fill="none" stroke="midnightblue" d="M439.926,-168.444C417.94,-159.517 383.266,-145.439 358.336,-135.317"/>
<polygon fill="midnightblue" stroke="midnightblue" points="359.558,-132.035 348.976,-131.516 356.924,-138.521 359.558,-132.035"/>
</g>
<!-- Node10 -->
<g id="node10" class="node"><title>Node10</title>
<polygon fill="none" stroke="#bfbfbf" points="381,-112.5 381,-131.5 425,-131.5 425,-112.5 381,-112.5"/>
<text text-anchor="middle" x="403" y="-119.5" font-family="Helvetica,sans-Serif" font-size="10.00">vector</text>
</g>
<!-- Node3&#45;&gt;Node10 -->
<g id="edge9" class="edge"><title>Node3&#45;&gt;Node10</title>
<path fill="none" stroke="midnightblue" d="M451.681,-168.324C443.107,-160.341 430.188,-148.313 419.812,-138.653"/>
<polygon fill="midnightblue" stroke="midnightblue" points="422.192,-136.086 412.488,-131.834 417.422,-141.21 422.192,-136.086"/>
</g>
<!-- Node11 -->
<g id="node11" class="node"><title>Node11</title>
<polygon fill="none" stroke="#bfbfbf" points="443.5,-112.5 443.5,-131.5 478.5,-131.5 478.5,-112.5 443.5,-112.5"/>
<text text-anchor="middle" x="461" y="-119.5" font-family="Helvetica,sans-Serif" font-size="10.00">map</text>
</g>
<!-- Node3&#45;&gt;Node11 -->
<g id="edge10" class="edge"><title>Node3&#45;&gt;Node11</title>
<path fill="none" stroke="midnightblue" d="M461,-168.083C461,-161.006 461,-150.861 461,-141.986"/>
<polygon fill="midnightblue" stroke="midnightblue" points="464.5,-141.751 461,-131.751 457.5,-141.751 464.5,-141.751"/>
</g>
<!-- Node12 -->
<g id="node12" class="node"><title>Node12</title>
<g id="a_node12"><a xlink:href="defines_8h.html" target="_top" xlink:title="defines.h">
<polygon fill="none" stroke="black" points="494,-56.5 494,-75.5 550,-75.5 550,-56.5 494,-56.5"/>
<text text-anchor="middle" x="522" y="-63.5" font-family="Helvetica,sans-Serif" font-size="10.00">defines.h</text>
</a>
</g>
</g>
<!-- Node3&#45;&gt;Node12 -->
<g id="edge11" class="edge"><title>Node3&#45;&gt;Node12</title>
<path fill="none" stroke="midnightblue" d="M466.061,-168.417C471.358,-159.394 479.878,-144.764 487,-132 495.858,-116.124 505.645,-97.8862 512.612,-84.7775"/>
<polygon fill="midnightblue" stroke="midnightblue" points="515.739,-86.3521 517.328,-75.8771 509.553,-83.0746 515.739,-86.3521"/>
</g>
<!-- Node13 -->
<g id="node13" class="node"><title>Node13</title>
<g id="a_node13"><a xlink:href="_closable_8h.html" target="_top" xlink:title="Closable.h">
<polygon fill="none" stroke="black" points="535.5,-112.5 535.5,-131.5 598.5,-131.5 598.5,-112.5 535.5,-112.5"/>
<text text-anchor="middle" x="567" y="-119.5" font-family="Helvetica,sans-Serif" font-size="10.00">Closable.h</text>
</a>
</g>
</g>
<!-- Node3&#45;&gt;Node13 -->
<g id="edge12" class="edge"><title>Node3&#45;&gt;Node13</title>
<path fill="none" stroke="midnightblue" d="M478.031,-168.324C495.03,-159.664 521.376,-146.242 540.993,-136.249"/>
<polygon fill="midnightblue" stroke="midnightblue" points="542.69,-139.312 550.012,-131.655 539.512,-133.075 542.69,-139.312"/>
</g>
<!-- Node3&#45;&gt;Node14 -->
<g id="edge13" class="edge"><title>Node3&#45;&gt;Node14</title>
<path fill="none" stroke="midnightblue" d="M484.078,-174.637C533.114,-169.231 645.677,-154.652 676,-132 691.368,-120.52 700.73,-100.245 705.856,-85.3834"/>
<polygon fill="midnightblue" stroke="midnightblue" points="709.233,-86.3103 708.864,-75.7219 702.549,-84.2289 709.233,-86.3103"/>
</g>
<!-- Node16 -->
<g id="node16" class="node"><title>Node16</title>
<g id="a_node16"><a xlink:href="_writer_8h.html" target="_top" xlink:title="Writer.h">
<polygon fill="none" stroke="black" points="616.5,-112.5 616.5,-131.5 667.5,-131.5 667.5,-112.5 616.5,-112.5"/>
<text text-anchor="middle" x="642" y="-119.5" font-family="Helvetica,sans-Serif" font-size="10.00">Writer.h</text>
</a>
</g>
</g>
<!-- Node3&#45;&gt;Node16 -->
<g id="edge15" class="edge"><title>Node3&#45;&gt;Node16</title>
<path fill="none" stroke="midnightblue" d="M484.292,-170.051C515.361,-160.782 570.642,-144.289 606.808,-133.499"/>
<polygon fill="midnightblue" stroke="midnightblue" points="607.884,-136.831 616.466,-130.618 605.883,-130.123 607.884,-136.831"/>
</g>
<!-- Node15 -->
<g id="node15" class="node"><title>Node15</title>
<polygon fill="none" stroke="#bfbfbf" points="690.5,-0.5 690.5,-19.5 731.5,-19.5 731.5,-0.5 690.5,-0.5"/>
<text text-anchor="middle" x="711" y="-7.5" font-family="Helvetica,sans-Serif" font-size="10.00">string</text>
</g>
<!-- Node14&#45;&gt;Node15 -->
<g id="edge14" class="edge"><title>Node14&#45;&gt;Node15</title>
<path fill="none" stroke="midnightblue" d="M711,-56.083C711,-49.0059 711,-38.8611 711,-29.9865"/>
<polygon fill="midnightblue" stroke="midnightblue" points="714.5,-29.751 711,-19.7511 707.5,-29.7511 714.5,-29.751"/>
</g>
<!-- Node16&#45;&gt;Node12 -->
<g id="edge16" class="edge"><title>Node16&#45;&gt;Node12</title>
<path fill="none" stroke="midnightblue" d="M622.986,-112.444C603.412,-103.636 572.692,-89.8116 550.271,-79.722"/>
<polygon fill="midnightblue" stroke="midnightblue" points="551.481,-76.4284 540.925,-75.5164 548.608,-82.8119 551.481,-76.4284"/>
</g>
<!-- Node16&#45;&gt;Node14 -->
<g id="edge17" class="edge"><title>Node16&#45;&gt;Node14</title>
<path fill="none" stroke="midnightblue" d="M653.086,-112.324C663.486,-104.185 679.261,-91.8395 691.722,-82.0874"/>
<polygon fill="midnightblue" stroke="midnightblue" points="693.994,-84.7533 699.712,-75.8339 689.68,-79.2407 693.994,-84.7533"/>
</g>
<!-- Node17 -->
<g id="node17" class="node"><title>Node17</title>
<g id="a_node17"><a xlink:href="_should_delete_8h.html" target="_top" xlink:title="ShouldDelete.h">
<polygon fill="none" stroke="black" points="584.5,-56.5 584.5,-75.5 667.5,-75.5 667.5,-56.5 584.5,-56.5"/>
<text text-anchor="middle" x="626" y="-63.5" font-family="Helvetica,sans-Serif" font-size="10.00">ShouldDelete.h</text>
</a>
</g>
</g>
<!-- Node16&#45;&gt;Node17 -->
<g id="edge18" class="edge"><title>Node16&#45;&gt;Node17</title>
<path fill="none" stroke="midnightblue" d="M639.358,-112.083C637.214,-104.849 634.121,-94.4087 631.451,-85.3968"/>
<polygon fill="midnightblue" stroke="midnightblue" points="634.79,-84.3447 628.593,-75.7511 628.078,-86.3334 634.79,-84.3447"/>
</g>
</g>
</svg>
