<?xml version="1.0" encoding="UTF-8" standalone="no"?>
<!DOCTYPE svg PUBLIC "-//W3C//DTD SVG 1.1//EN"
 "http://www.w3.org/Graphics/SVG/1.1/DTD/svg11.dtd">
<!-- Generated by graphviz version 2.34.0 (20140110.0949)
 -->
<!-- Title: include/Logger.h Pages: 1 -->
<svg width="1004pt" height="252pt"
 viewBox="0.00 0.00 1004.00 252.00" xmlns="http://www.w3.org/2000/svg" xmlns:xlink="http://www.w3.org/1999/xlink">
<g id="graph0" class="graph" transform="scale(1 1) rotate(0) translate(4 248)">
<title>include/Logger.h</title>
<!-- Node1 -->
<g id="node1" class="node"><title>Node1</title>
<polygon fill="#bfbfbf" stroke="black" points="409,-224.5 409,-243.5 497,-243.5 497,-224.5 409,-224.5"/>
<text text-anchor="middle" x="453" y="-231.5" font-family="Helvetica,sans-Serif" font-size="10.00">include/Logger.h</text>
</g>
<!-- Node2 -->
<g id="node2" class="node"><title>Node2</title>
<polygon fill="none" stroke="#bfbfbf" points="358.5,-168.5 358.5,-187.5 411.5,-187.5 411.5,-168.5 358.5,-168.5"/>
<text text-anchor="middle" x="385" y="-175.5" font-family="Helvetica,sans-Serif" font-size="10.00">syslog.h</text>
</g>
<!-- Node1&#45;&gt;Node2 -->
<g id="edge1" class="edge"><title>Node1&#45;&gt;Node2</title>
<path fill="none" stroke="midnightblue" d="M442.075,-224.324C431.825,-216.185 416.279,-203.839 403.999,-194.087"/>
<polygon fill="midnightblue" stroke="midnightblue" points="406.132,-191.312 396.124,-187.834 401.779,-196.794 406.132,-191.312"/>
</g>
<!-- Node3 -->
<g id="node3" class="node"><title>Node3</title>
<g id="a_node3"><a xlink:href="_files_8h.html" target="_top" xlink:title="Files.h">
<polygon fill="none" stroke="black" points="430,-168.5 430,-187.5 476,-187.5 476,-168.5 430,-168.5"/>
<text text-anchor="middle" x="453" y="-175.5" font-family="Helvetica,sans-Serif" font-size="10.00">Files.h</text>
</a>
</g>
</g>
<!-- Node1&#45;&gt;Node3 -->
<g id="edge2" class="edge"><title>Node1&#45;&gt;Node3</title>
<path fill="none" stroke="midnightblue" d="M453,-224.083C453,-217.006 453,-206.861 453,-197.986"/>
<polygon fill="midnightblue" stroke="midnightblue" points="456.5,-197.751 453,-187.751 449.5,-197.751 456.5,-197.751"/>
</g>
<!-- Node14 -->
<g id="node14" class="node"><title>Node14</title>
<g id="a_node14"><a xlink:href="_string_8h.html" target="_top" xlink:title="String.h">
<polygon fill="none" stroke="black" points="503,-56.5 503,-75.5 553,-75.5 553,-56.5 503,-56.5"/>
<text text-anchor="middle" x="528" y="-63.5" font-family="Helvetica,sans-Serif" font-size="10.00">String.h</text>
</a>
</g>
</g>
<!-- Node1&#45;&gt;Node14 -->
<g id="edge22" class="edge"><title>Node1&#45;&gt;Node14</title>
<path fill="none" stroke="midnightblue" d="M497.234,-228.192C589.799,-217.123 798.855,-186.52 841,-132 846.436,-124.967 846.821,-118.718 841,-112 805.449,-70.9721 638.018,-66.479 563.693,-66.5575"/>
<polygon fill="midnightblue" stroke="midnightblue" points="563.416,-63.0585 553.43,-66.5984 563.444,-70.0584 563.416,-63.0585"/>
</g>
<!-- Node4 -->
<g id="node4" class="node"><title>Node4</title>
<polygon fill="none" stroke="#bfbfbf" points="590,-112.5 590,-131.5 696,-131.5 696,-112.5 590,-112.5"/>
<text text-anchor="middle" x="643" y="-119.5" font-family="Helvetica,sans-Serif" font-size="10.00">event2/bufferevent.h</text>
</g>
<!-- Node3&#45;&gt;Node4 -->
<g id="edge3" class="edge"><title>Node3&#45;&gt;Node4</title>
<path fill="none" stroke="midnightblue" d="M476.298,-170.379C507.862,-161.408 564.675,-145.261 603.103,-134.339"/>
<polygon fill="midnightblue" stroke="midnightblue" points="604.271,-137.646 612.933,-131.545 602.357,-130.913 604.271,-137.646"/>
</g>
<!-- Node5 -->
<g id="node5" class="node"><title>Node5</title>
<polygon fill="none" stroke="#bfbfbf" points="714.5,-112.5 714.5,-131.5 765.5,-131.5 765.5,-112.5 714.5,-112.5"/>
<text text-anchor="middle" x="740" y="-119.5" font-family="Helvetica,sans-Serif" font-size="10.00">unistd.h</text>
</g>
<!-- Node3&#45;&gt;Node5 -->
<g id="edge4" class="edge"><title>Node3&#45;&gt;Node5</title>
<path fill="none" stroke="midnightblue" d="M476.046,-173.478C518.954,-166.794 614.178,-151.368 704.579,-131.947"/>
<polygon fill="midnightblue" stroke="midnightblue" points="705.408,-135.349 714.439,-129.809 703.924,-128.508 705.408,-135.349"/>
</g>
<!-- Node6 -->
<g id="node6" class="node"><title>Node6</title>
<polygon fill="none" stroke="#bfbfbf" points="784,-112.5 784,-131.5 832,-131.5 832,-112.5 784,-112.5"/>
<text text-anchor="middle" x="808" y="-119.5" font-family="Helvetica,sans-Serif" font-size="10.00">stdlib.h</text>
</g>
<!-- Node3&#45;&gt;Node6 -->
<g id="edge5" class="edge"><title>Node3&#45;&gt;Node6</title>
<path fill="none" stroke="midnightblue" d="M476.125,-174.717C529.14,-169.276 663.398,-154.308 774,-132 774.101,-131.98 774.202,-131.959 774.303,-131.939"/>
<polygon fill="midnightblue" stroke="midnightblue" points="774.961,-135.378 783.938,-129.75 773.411,-128.552 774.961,-135.378"/>
</g>
<!-- Node7 -->
<g id="node7" class="node"><title>Node7</title>
<polygon fill="none" stroke="#bfbfbf" points="0,-112.5 0,-131.5 60,-131.5 60,-112.5 0,-112.5"/>
<text text-anchor="middle" x="30" y="-119.5" font-family="Helvetica,sans-Serif" font-size="10.00">sys/stat.h</text>
</g>
<!-- Node3&#45;&gt;Node7 -->
<g id="edge6" class="edge"><title>Node3&#45;&gt;Node7</title>
<path fill="none" stroke="midnightblue" d="M429.674,-170.13C426.443,-169.328 423.152,-168.587 420,-168 268.997,-139.862 225.477,-156.946 70.07,-131.975"/>
<polygon fill="midnightblue" stroke="midnightblue" points="70.5941,-128.515 60.1596,-130.351 69.4617,-135.422 70.5941,-128.515"/>
</g>
<!-- Node8 -->
<g id="node8" class="node"><title>Node8</title>
<polygon fill="none" stroke="#bfbfbf" points="78,-112.5 78,-131.5 140,-131.5 140,-112.5 78,-112.5"/>
<text text-anchor="middle" x="109" y="-119.5" font-family="Helvetica,sans-Serif" font-size="10.00">sys/fcntl.h</text>
</g>
<!-- Node3&#45;&gt;Node8 -->
<g id="edge7" class="edge"><title>Node3&#45;&gt;Node8</title>
<path fill="none" stroke="midnightblue" d="M429.657,-170.217C426.429,-169.402 423.143,-168.634 420,-168 304.04,-144.595 270.374,-152.885 150.335,-132.095"/>
<polygon fill="midnightblue" stroke="midnightblue" points="150.845,-128.631 140.389,-130.341 149.629,-135.524 150.845,-128.631"/>
</g>
<!-- Node9 -->
<g id="node9" class="node"><title>Node9</title>
<polygon fill="none" stroke="#bfbfbf" points="158,-112.5 158,-131.5 228,-131.5 228,-112.5 158,-112.5"/>
<text text-anchor="middle" x="193" y="-119.5" font-family="Helvetica,sans-Serif" font-size="10.00">sys/inotify.h</text>
</g>
<!-- Node3&#45;&gt;Node9 -->
<g id="edge8" class="edge"><title>Node3&#45;&gt;Node9</title>
<path fill="none" stroke="midnightblue" d="M429.975,-170.493C426.638,-169.617 423.238,-168.759 420,-168 342.369,-149.803 319.961,-148.391 238.073,-132.192"/>
<polygon fill="midnightblue" stroke="midnightblue" points="238.551,-128.718 228.06,-130.196 237.183,-135.583 238.551,-128.718"/>
</g>
<!-- Node10 -->
<g id="node10" class="node"><title>Node10</title>
<polygon fill="none" stroke="#bfbfbf" points="246,-112.5 246,-131.5 290,-131.5 290,-112.5 246,-112.5"/>
<text text-anchor="middle" x="268" y="-119.5" font-family="Helvetica,sans-Serif" font-size="10.00">vector</text>
</g>
<!-- Node3&#45;&gt;Node10 -->
<g id="edge9" class="edge"><title>Node3&#45;&gt;Node10</title>
<path fill="none" stroke="midnightblue" d="M429.944,-170.27C397.185,-160.708 337.043,-143.153 299.988,-132.337"/>
<polygon fill="midnightblue" stroke="midnightblue" points="300.771,-128.919 290.19,-129.477 298.809,-135.639 300.771,-128.919"/>
</g>
<!-- Node11 -->
<g id="node11" class="node"><title>Node11</title>
<polygon fill="none" stroke="#bfbfbf" points="308.5,-112.5 308.5,-131.5 343.5,-131.5 343.5,-112.5 308.5,-112.5"/>
<text text-anchor="middle" x="326" y="-119.5" font-family="Helvetica,sans-Serif" font-size="10.00">map</text>
</g>
<!-- Node3&#45;&gt;Node11 -->
<g id="edge10" class="edge"><title>Node3&#45;&gt;Node11</title>
<path fill="none" stroke="midnightblue" d="M432.876,-168.444C411.238,-159.243 376.727,-144.569 352.801,-134.396"/>
<polygon fill="midnightblue" stroke="midnightblue" points="354.148,-131.165 343.575,-130.473 351.409,-137.607 354.148,-131.165"/>
</g>
<!-- Node12 -->
<g id="node12" class="node"><title>Node12</title>
<g id="a_node12"><a xlink:href="defines_8h.html" target="_top" xlink:title="defines.h">
<polygon fill="none" stroke="black" points="327,-56.5 327,-75.5 383,-75.5 383,-56.5 327,-56.5"/>
<text text-anchor="middle" x="355" y="-63.5" font-family="Helvetica,sans-Serif" font-size="10.00">defines.h</text>
</a>
</g>
</g>
<!-- Node3&#45;&gt;Node12 -->
<g id="edge11" class="edge"><title>Node3&#45;&gt;Node12</title>
<path fill="none" stroke="midnightblue" d="M437.515,-168.409C423.997,-160.337 404.485,-147.24 391,-132 378.602,-117.989 368.697,-98.9909 362.44,-85.1537"/>
<polygon fill="midnightblue" stroke="midnightblue" points="365.558,-83.544 358.385,-75.7462 359.129,-86.3149 365.558,-83.544"/>
</g>
<!-- Node13 -->
<g id="node13" class="node"><title>Node13</title>
<g id="a_node13"><a xlink:href="_closable_8h.html" target="_top" xlink:title="Closable.h">
<polygon fill="none" stroke="black" points="508.5,-112.5 508.5,-131.5 571.5,-131.5 571.5,-112.5 508.5,-112.5"/>
<text text-anchor="middle" x="540" y="-119.5" font-family="Helvetica,sans-Serif" font-size="10.00">Closable.h</text>
</a>
</g>
</g>
<!-- Node3&#45;&gt;Node13 -->
<g id="edge12" class="edge"><title>Node3&#45;&gt;Node13</title>
<path fill="none" stroke="midnightblue" d="M466.978,-168.324C480.55,-159.9 501.38,-146.971 517.325,-137.074"/>
<polygon fill="midnightblue" stroke="midnightblue" points="519.406,-139.902 526.057,-131.655 515.714,-133.954 519.406,-139.902"/>
</g>
<!-- Node3&#45;&gt;Node14 -->
<g id="edge13" class="edge"><title>Node3&#45;&gt;Node14</title>
<path fill="none" stroke="midnightblue" d="M458.885,-168.368C471.262,-150.215 500.181,-107.802 516.416,-83.9902"/>
<polygon fill="midnightblue" stroke="midnightblue" points="519.401,-85.8254 522.142,-75.5914 513.617,-81.882 519.401,-85.8254"/>
</g>
<!-- Node16 -->
<g id="node16" class="node"><title>Node16</title>
<g id="a_node16"><a xlink:href="_writer_8h.html" target="_top" xlink:title="Writer.h">
<polygon fill="none" stroke="black" points="400.5,-112.5 400.5,-131.5 451.5,-131.5 451.5,-112.5 400.5,-112.5"/>
<text text-anchor="middle" x="426" y="-119.5" font-family="Helvetica,sans-Serif" font-size="10.00">Writer.h</text>
</a>
</g>
</g>
<!-- Node3&#45;&gt;Node16 -->
<g id="edge15" class="edge"><title>Node3&#45;&gt;Node16</title>
<path fill="none" stroke="midnightblue" d="M448.541,-168.083C444.846,-160.691 439.477,-149.953 434.906,-140.811"/>
<polygon fill="midnightblue" stroke="midnightblue" points="437.978,-139.13 430.376,-131.751 431.717,-142.261 437.978,-139.13"/>
</g>
<!-- Node18 -->
<g id="node18" class="node"><title>Node18</title>
<g id="a_node18"><a xlink:href="_event_8h.html" target="_top" xlink:title="Event.h">
<polygon fill="none" stroke="black" points="888,-112.5 888,-131.5 938,-131.5 938,-112.5 888,-112.5"/>
<text text-anchor="middle" x="913" y="-119.5" font-family="Helvetica,sans-Serif" font-size="10.00">Event.h</text>
</a>
</g>
</g>
<!-- Node3&#45;&gt;Node18 -->
<g id="edge19" class="edge"><title>Node3&#45;&gt;Node18</title>
<path fill="none" stroke="midnightblue" d="M476.187,-174.384C536.394,-167.574 702.646,-148.67 841,-132 852.874,-130.569 865.843,-128.962 877.462,-127.506"/>
<polygon fill="midnightblue" stroke="midnightblue" points="878.198,-130.941 887.683,-126.22 877.324,-123.996 878.198,-130.941"/>
</g>
<!-- Node15 -->
<g id="node15" class="node"><title>Node15</title>
<polygon fill="none" stroke="#bfbfbf" points="507.5,-0.5 507.5,-19.5 548.5,-19.5 548.5,-0.5 507.5,-0.5"/>
<text text-anchor="middle" x="528" y="-7.5" font-family="Helvetica,sans-Serif" font-size="10.00">string</text>
</g>
<!-- Node14&#45;&gt;Node15 -->
<g id="edge14" class="edge"><title>Node14&#45;&gt;Node15</title>
<path fill="none" stroke="midnightblue" d="M528,-56.083C528,-49.0059 528,-38.8611 528,-29.9865"/>
<polygon fill="midnightblue" stroke="midnightblue" points="531.5,-29.751 528,-19.7511 524.5,-29.7511 531.5,-29.751"/>
</g>
<!-- Node16&#45;&gt;Node12 -->
<g id="edge16" class="edge"><title>Node16&#45;&gt;Node12</title>
<path fill="none" stroke="midnightblue" d="M414.593,-112.324C403.891,-104.185 387.659,-91.8395 374.837,-82.0874"/>
<polygon fill="midnightblue" stroke="midnightblue" points="376.693,-79.1018 366.615,-75.8339 372.456,-84.6734 376.693,-79.1018"/>
</g>
<!-- Node16&#45;&gt;Node14 -->
<g id="edge17" class="edge"><title>Node16&#45;&gt;Node14</title>
<path fill="none" stroke="midnightblue" d="M442.388,-112.324C458.671,-103.703 483.867,-90.3643 502.716,-80.3855"/>
<polygon fill="midnightblue" stroke="midnightblue" points="504.452,-83.4267 511.653,-75.6545 501.177,-77.2402 504.452,-83.4267"/>
</g>
<!-- Node17 -->
<g id="node17" class="node"><title>Node17</title>
<g id="a_node17"><a xlink:href="_should_delete_8h.html" target="_top" xlink:title="ShouldDelete.h">
<polygon fill="none" stroke="black" points="401.5,-56.5 401.5,-75.5 484.5,-75.5 484.5,-56.5 401.5,-56.5"/>
<text text-anchor="middle" x="443" y="-63.5" font-family="Helvetica,sans-Serif" font-size="10.00">ShouldDelete.h</text>
</a>
</g>
</g>
<!-- Node16&#45;&gt;Node17 -->
<g id="edge18" class="edge"><title>Node16&#45;&gt;Node17</title>
<path fill="none" stroke="midnightblue" d="M428.807,-112.083C431.085,-104.849 434.371,-94.4087 437.208,-85.3968"/>
<polygon fill="midnightblue" stroke="midnightblue" points="440.581,-86.3406 440.245,-75.7511 433.904,-84.2385 440.581,-86.3406"/>
</g>
<!-- Node19 -->
<g id="node19" class="node"><title>Node19</title>
<polygon fill="none" stroke="#bfbfbf" points="923.5,-56.5 923.5,-75.5 996.5,-75.5 996.5,-56.5 923.5,-56.5"/>
<text text-anchor="middle" x="960" y="-63.5" font-family="Helvetica,sans-Serif" font-size="10.00">event2/dns.h</text>
</g>
<!-- Node18&#45;&gt;Node19 -->
<g id="edge20" class="edge"><title>Node18&#45;&gt;Node19</title>
<path fill="none" stroke="midnightblue" d="M920.761,-112.083C927.537,-104.298 937.543,-92.8015 945.755,-83.3665"/>
<polygon fill="midnightblue" stroke="midnightblue" points="948.458,-85.592 952.383,-75.7511 943.178,-80.9963 948.458,-85.592"/>
</g>
<!-- Node20 -->
<g id="node20" class="node"><title>Node20</title>
<polygon fill="none" stroke="#bfbfbf" points="824.5,-56.5 824.5,-75.5 905.5,-75.5 905.5,-56.5 824.5,-56.5"/>
<text text-anchor="middle" x="865" y="-63.5" font-family="Helvetica,sans-Serif" font-size="10.00">event2/event.h</text>
</g>
<!-- Node18&#45;&gt;Node20 -->
<g id="edge21" class="edge"><title>Node18&#45;&gt;Node20</title>
<path fill="none" stroke="midnightblue" d="M905.074,-112.083C898.154,-104.298 887.935,-92.8015 879.548,-83.3665"/>
<polygon fill="midnightblue" stroke="midnightblue" points="882.038,-80.8999 872.779,-75.7511 876.806,-85.5505 882.038,-80.8999"/>
</g>
</g>
</svg>
