<?xml version="1.0" encoding="UTF-8" standalone="no"?>
<!DOCTYPE svg PUBLIC "-//W3C//DTD SVG 1.1//EN"
 "http://www.w3.org/Graphics/SVG/1.1/DTD/svg11.dtd">
<!-- Generated by graphviz version 2.34.0 (20140110.0949)
 -->
<!-- Title: include/ModuleThread.h Pages: 1 -->
<svg width="518pt" height="196pt"
 viewBox="0.00 0.00 518.00 196.00" xmlns="http://www.w3.org/2000/svg" xmlns:xlink="http://www.w3.org/1999/xlink">
<g id="graph0" class="graph" transform="scale(1 1) rotate(0) translate(4 192)">
<title>include/ModuleThread.h</title>
<!-- Node1 -->
<g id="node1" class="node"><title>Node1</title>
<polygon fill="#bfbfbf" stroke="black" points="107,-168.5 107,-187.5 227,-187.5 227,-168.5 107,-168.5"/>
<text text-anchor="middle" x="167" y="-175.5" font-family="Helvetica,sans-Serif" font-size="10.00">include/ModuleThread.h</text>
</g>
<!-- Node2 -->
<g id="node2" class="node"><title>Node2</title>
<polygon fill="none" stroke="#bfbfbf" points="0,-112.5 0,-131.5 54,-131.5 54,-112.5 0,-112.5"/>
<text text-anchor="middle" x="27" y="-119.5" font-family="Helvetica,sans-Serif" font-size="10.00">setjmp.h</text>
</g>
<!-- Node1&#45;&gt;Node2 -->
<g id="edge1" class="edge"><title>Node1&#45;&gt;Node2</title>
<path fill="none" stroke="midnightblue" d="M144.817,-168.444C121.572,-159.478 84.8512,-145.314 58.5848,-135.183"/>
<polygon fill="midnightblue" stroke="midnightblue" points="59.6692,-131.85 49.0796,-131.516 57.1501,-138.381 59.6692,-131.85"/>
</g>
<!-- Node3 -->
<g id="node3" class="node"><title>Node3</title>
<polygon fill="none" stroke="#bfbfbf" points="72,-112.5 72,-131.5 122,-131.5 122,-112.5 72,-112.5"/>
<text text-anchor="middle" x="97" y="-119.5" font-family="Helvetica,sans-Serif" font-size="10.00">signal.h</text>
</g>
<!-- Node1&#45;&gt;Node3 -->
<g id="edge2" class="edge"><title>Node1&#45;&gt;Node3</title>
<path fill="none" stroke="midnightblue" d="M155.753,-168.324C145.203,-160.185 129.199,-147.839 116.558,-138.087"/>
<polygon fill="midnightblue" stroke="midnightblue" points="118.507,-135.171 108.451,-131.834 114.231,-140.713 118.507,-135.171"/>
</g>
<!-- Node4 -->
<g id="node4" class="node"><title>Node4</title>
<polygon fill="none" stroke="#bfbfbf" points="140,-112.5 140,-131.5 194,-131.5 194,-112.5 140,-112.5"/>
<text text-anchor="middle" x="167" y="-119.5" font-family="Helvetica,sans-Serif" font-size="10.00">strings.h</text>
</g>
<!-- Node1&#45;&gt;Node4 -->
<g id="edge3" class="edge"><title>Node1&#45;&gt;Node4</title>
<path fill="none" stroke="midnightblue" d="M167,-168.083C167,-161.006 167,-150.861 167,-141.986"/>
<polygon fill="midnightblue" stroke="midnightblue" points="170.5,-141.751 167,-131.751 163.5,-141.751 170.5,-141.751"/>
</g>
<!-- Node5 -->
<g id="node5" class="node"><title>Node5</title>
<g id="a_node5"><a xlink:href="_thread_8h.html" target="_top" xlink:title="Thread.h">
<polygon fill="none" stroke="black" points="212.5,-112.5 212.5,-131.5 267.5,-131.5 267.5,-112.5 212.5,-112.5"/>
<text text-anchor="middle" x="240" y="-119.5" font-family="Helvetica,sans-Serif" font-size="10.00">Thread.h</text>
</a>
</g>
</g>
<!-- Node1&#45;&gt;Node5 -->
<g id="edge4" class="edge"><title>Node1&#45;&gt;Node5</title>
<path fill="none" stroke="midnightblue" d="M178.729,-168.324C189.837,-160.107 206.742,-147.602 219.983,-137.807"/>
<polygon fill="midnightblue" stroke="midnightblue" points="222.1,-140.595 228.058,-131.834 217.937,-134.967 222.1,-140.595"/>
</g>
<!-- Node14 -->
<g id="node14" class="node"><title>Node14</title>
<g id="a_node14"><a xlink:href="_module_8h.html" target="_top" xlink:title="Module.h">
<polygon fill="none" stroke="black" points="346,-112.5 346,-131.5 402,-131.5 402,-112.5 346,-112.5"/>
<text text-anchor="middle" x="374" y="-119.5" font-family="Helvetica,sans-Serif" font-size="10.00">Module.h</text>
</a>
</g>
</g>
<!-- Node1&#45;&gt;Node14 -->
<g id="edge13" class="edge"><title>Node1&#45;&gt;Node14</title>
<path fill="none" stroke="midnightblue" d="M199.8,-168.444C236.741,-158.807 296.699,-143.165 335.743,-132.98"/>
<polygon fill="midnightblue" stroke="midnightblue" points="336.885,-136.299 345.678,-130.388 335.118,-129.526 336.885,-136.299"/>
</g>
<!-- Node6 -->
<g id="node6" class="node"><title>Node6</title>
<polygon fill="none" stroke="#bfbfbf" points="55.5,-56.5 55.5,-75.5 90.5,-75.5 90.5,-56.5 55.5,-56.5"/>
<text text-anchor="middle" x="73" y="-63.5" font-family="Helvetica,sans-Serif" font-size="10.00">map</text>
</g>
<!-- Node5&#45;&gt;Node6 -->
<g id="edge5" class="edge"><title>Node5&#45;&gt;Node6</title>
<path fill="none" stroke="midnightblue" d="M212.642,-112.485C186.133,-104.187 144.56,-91.0507 100.368,-76.4049"/>
<polygon fill="midnightblue" stroke="midnightblue" points="101.196,-72.992 90.6024,-73.158 98.9872,-79.6345 101.196,-72.992"/>
</g>
<!-- Node7 -->
<g id="node7" class="node"><title>Node7</title>
<polygon fill="none" stroke="#bfbfbf" points="108.5,-56.5 108.5,-75.5 157.5,-75.5 157.5,-56.5 108.5,-56.5"/>
<text text-anchor="middle" x="133" y="-63.5" font-family="Helvetica,sans-Serif" font-size="10.00">stdint.h</text>
</g>
<!-- Node5&#45;&gt;Node7 -->
<g id="edge6" class="edge"><title>Node5&#45;&gt;Node7</title>
<path fill="none" stroke="midnightblue" d="M222.809,-112.324C205.649,-103.664 179.054,-90.2424 159.253,-80.249"/>
<polygon fill="midnightblue" stroke="midnightblue" points="160.653,-77.0354 150.149,-75.6545 157.499,-83.2847 160.653,-77.0354"/>
</g>
<!-- Node8 -->
<g id="node8" class="node"><title>Node8</title>
<polygon fill="none" stroke="#bfbfbf" points="175.5,-56.5 175.5,-75.5 232.5,-75.5 232.5,-56.5 175.5,-56.5"/>
<text text-anchor="middle" x="204" y="-63.5" font-family="Helvetica,sans-Serif" font-size="10.00">pthread.h</text>
</g>
<!-- Node5&#45;&gt;Node8 -->
<g id="edge7" class="edge"><title>Node5&#45;&gt;Node8</title>
<path fill="none" stroke="midnightblue" d="M234.055,-112.083C229.023,-104.534 221.663,-93.4948 215.487,-84.2298"/>
<polygon fill="midnightblue" stroke="midnightblue" points="218.293,-82.1301 209.834,-75.7511 212.469,-86.0131 218.293,-82.1301"/>
</g>
<!-- Node9 -->
<g id="node9" class="node"><title>Node9</title>
<g id="a_node9"><a xlink:href="_string_8h.html" target="_top" xlink:title="String.h">
<polygon fill="none" stroke="black" points="251,-56.5 251,-75.5 301,-75.5 301,-56.5 251,-56.5"/>
<text text-anchor="middle" x="276" y="-63.5" font-family="Helvetica,sans-Serif" font-size="10.00">String.h</text>
</a>
</g>
</g>
<!-- Node5&#45;&gt;Node9 -->
<g id="edge8" class="edge"><title>Node5&#45;&gt;Node9</title>
<path fill="none" stroke="midnightblue" d="M245.945,-112.083C250.977,-104.534 258.337,-93.4948 264.513,-84.2298"/>
<polygon fill="midnightblue" stroke="midnightblue" points="267.531,-86.0131 270.166,-75.7511 261.707,-82.1301 267.531,-86.0131"/>
</g>
<!-- Node11 -->
<g id="node11" class="node"><title>Node11</title>
<g id="a_node11"><a xlink:href="_event_8h.html" target="_top" xlink:title="Event.h">
<polygon fill="none" stroke="black" points="319,-56.5 319,-75.5 369,-75.5 369,-56.5 319,-56.5"/>
<text text-anchor="middle" x="344" y="-63.5" font-family="Helvetica,sans-Serif" font-size="10.00">Event.h</text>
</a>
</g>
</g>
<!-- Node5&#45;&gt;Node11 -->
<g id="edge10" class="edge"><title>Node5&#45;&gt;Node11</title>
<path fill="none" stroke="midnightblue" d="M256.709,-112.324C273.312,-103.703 299.002,-90.3643 318.22,-80.3855"/>
<polygon fill="midnightblue" stroke="midnightblue" points="320.07,-83.3689 327.332,-75.6545 316.844,-77.1565 320.07,-83.3689"/>
</g>
<!-- Node10 -->
<g id="node10" class="node"><title>Node10</title>
<polygon fill="none" stroke="#bfbfbf" points="255.5,-0.5 255.5,-19.5 296.5,-19.5 296.5,-0.5 255.5,-0.5"/>
<text text-anchor="middle" x="276" y="-7.5" font-family="Helvetica,sans-Serif" font-size="10.00">string</text>
</g>
<!-- Node9&#45;&gt;Node10 -->
<g id="edge9" class="edge"><title>Node9&#45;&gt;Node10</title>
<path fill="none" stroke="midnightblue" d="M276,-56.083C276,-49.0059 276,-38.8611 276,-29.9865"/>
<polygon fill="midnightblue" stroke="midnightblue" points="279.5,-29.751 276,-19.7511 272.5,-29.7511 279.5,-29.751"/>
</g>
<!-- Node12 -->
<g id="node12" class="node"><title>Node12</title>
<polygon fill="none" stroke="#bfbfbf" points="437.5,-0.5 437.5,-19.5 510.5,-19.5 510.5,-0.5 437.5,-0.5"/>
<text text-anchor="middle" x="474" y="-7.5" font-family="Helvetica,sans-Serif" font-size="10.00">event2/dns.h</text>
</g>
<!-- Node11&#45;&gt;Node12 -->
<g id="edge11" class="edge"><title>Node11&#45;&gt;Node12</title>
<path fill="none" stroke="midnightblue" d="M364.599,-56.4435C385.993,-47.5566 419.681,-33.5632 444.024,-23.4514"/>
<polygon fill="midnightblue" stroke="midnightblue" points="445.605,-26.5848 453.497,-19.5164 442.92,-20.1203 445.605,-26.5848"/>
</g>
<!-- Node13 -->
<g id="node13" class="node"><title>Node13</title>
<polygon fill="none" stroke="#bfbfbf" points="322.5,-0.5 322.5,-19.5 403.5,-19.5 403.5,-0.5 322.5,-0.5"/>
<text text-anchor="middle" x="363" y="-7.5" font-family="Helvetica,sans-Serif" font-size="10.00">event2/event.h</text>
</g>
<!-- Node11&#45;&gt;Node13 -->
<g id="edge12" class="edge"><title>Node11&#45;&gt;Node13</title>
<path fill="none" stroke="midnightblue" d="M347.137,-56.083C349.683,-48.8486 353.356,-38.4087 356.527,-29.3968"/>
<polygon fill="midnightblue" stroke="midnightblue" points="359.903,-30.3459 359.921,-19.7511 353.3,-28.0225 359.903,-30.3459"/>
</g>
<!-- Node14&#45;&gt;Node9 -->
<g id="edge17" class="edge"><title>Node14&#45;&gt;Node9</title>
<path fill="none" stroke="midnightblue" d="M358.255,-112.324C342.681,-103.743 318.623,-90.486 300.541,-80.5224"/>
<polygon fill="midnightblue" stroke="midnightblue" points="302.154,-77.4152 291.706,-75.6545 298.776,-83.546 302.154,-77.4152"/>
</g>
<!-- Node14&#45;&gt;Node11 -->
<g id="edge18" class="edge"><title>Node14&#45;&gt;Node11</title>
<path fill="none" stroke="midnightblue" d="M369.046,-112.083C364.896,-104.613 358.847,-93.7244 353.733,-84.5199"/>
<polygon fill="midnightblue" stroke="midnightblue" points="356.778,-82.7929 348.862,-75.7511 350.659,-86.1924 356.778,-82.7929"/>
</g>
<!-- Node14&#45;&gt;Node12 -->
<g id="edge14" class="edge"><title>Node14&#45;&gt;Node12</title>
<path fill="none" stroke="midnightblue" d="M402.097,-114.37C422.557,-108.025 449.182,-96.328 464,-76 473.668,-62.7372 475.632,-43.8741 475.495,-29.8819"/>
<polygon fill="midnightblue" stroke="midnightblue" points="478.973,-29.3294 475.009,-19.5041 471.98,-29.6569 478.973,-29.3294"/>
</g>
<!-- Node14&#45;&gt;Node13 -->
<g id="edge15" class="edge"><title>Node14&#45;&gt;Node13</title>
<path fill="none" stroke="midnightblue" d="M375.786,-112.107C378.031,-99.5301 381.224,-75.8649 378,-56 376.532,-46.9568 373.508,-37.275 370.556,-29.2176"/>
<polygon fill="midnightblue" stroke="midnightblue" points="373.756,-27.7907 366.856,-19.7514 367.237,-30.3393 373.756,-27.7907"/>
</g>
<!-- Node15 -->
<g id="node15" class="node"><title>Node15</title>
<polygon fill="none" stroke="#bfbfbf" points="425,-56.5 425,-75.5 455,-75.5 455,-56.5 425,-56.5"/>
<text text-anchor="middle" x="440" y="-63.5" font-family="Helvetica,sans-Serif" font-size="10.00">set</text>
</g>
<!-- Node14&#45;&gt;Node15 -->
<g id="edge16" class="edge"><title>Node14&#45;&gt;Node15</title>
<path fill="none" stroke="midnightblue" d="M384.604,-112.324C394.456,-104.263 409.351,-92.0765 421.215,-82.3695"/>
<polygon fill="midnightblue" stroke="midnightblue" points="423.68,-84.8752 429.203,-75.8339 419.247,-79.4575 423.68,-84.8752"/>
</g>
</g>
</svg>
