<?xml version="1.0" encoding="UTF-8" standalone="no"?>
<!DOCTYPE svg PUBLIC "-//W3C//DTD SVG 1.1//EN"
 "http://www.w3.org/Graphics/SVG/1.1/DTD/svg11.dtd">
<!-- Generated by graphviz version 2.34.0 (20140110.0949)
 -->
<!-- Title: include/Module.h Pages: 1 -->
<svg width="983pt" height="196pt"
 viewBox="0.00 0.00 983.00 196.00" xmlns="http://www.w3.org/2000/svg" xmlns:xlink="http://www.w3.org/1999/xlink">
<g id="graph0" class="graph" transform="scale(1 1) rotate(0) translate(4 192)">
<title>include/Module.h</title>
<!-- Node1 -->
<g id="node1" class="node"><title>Node1</title>
<polygon fill="#bfbfbf" stroke="black" points="495,-168.5 495,-187.5 585,-187.5 585,-168.5 495,-168.5"/>
<text text-anchor="middle" x="540" y="-175.5" font-family="Helvetica,sans-Serif" font-size="10.00">include/Module.h</text>
</g>
<!-- Node2 -->
<g id="node2" class="node"><title>Node2</title>
<g id="a_node2"><a xlink:href="_timer_8h.html" target="_top" xlink:title="include/Timer.h">
<polygon fill="none" stroke="black" points="44.5,-112.5 44.5,-131.5 127.5,-131.5 127.5,-112.5 44.5,-112.5"/>
<text text-anchor="middle" x="86" y="-119.5" font-family="Helvetica,sans-Serif" font-size="10.00">include/Timer.h</text>
</a>
</g>
</g>
<!-- Node1&#45;&gt;Node2 -->
<g id="edge1" class="edge"><title>Node1&#45;&gt;Node2</title>
<path fill="none" stroke="midnightblue" d="M484.851,-170.44C392.809,-159.493 209.894,-137.736 127.701,-127.96"/>
<polygon fill="midnightblue" stroke="midnightblue" points="484.466,-173.919 494.809,-171.625 485.292,-166.968 484.466,-173.919"/>
</g>
<!-- Node5 -->
<g id="node5" class="node"><title>Node5</title>
<g id="a_node5"><a xlink:href="_database_8h.html" target="_top" xlink:title="include/Database.h">
<polygon fill="none" stroke="black" points="134.5,-56.5 134.5,-75.5 235.5,-75.5 235.5,-56.5 134.5,-56.5"/>
<text text-anchor="middle" x="185" y="-63.5" font-family="Helvetica,sans-Serif" font-size="10.00">include/Database.h</text>
</a>
</g>
</g>
<!-- Node1&#45;&gt;Node5 -->
<g id="edge4" class="edge"><title>Node1&#45;&gt;Node5</title>
<path fill="none" stroke="midnightblue" d="M484.98,-166.739C445.57,-158.802 391.472,-146.699 345,-132 292.401,-115.363 232.757,-89.0626 203.368,-75.5846"/>
<polygon fill="midnightblue" stroke="midnightblue" points="484.433,-170.199 494.924,-168.716 485.798,-163.333 484.433,-170.199"/>
</g>
<!-- Node6 -->
<g id="node6" class="node"><title>Node6</title>
<g id="a_node6"><a xlink:href="_socket_8h.html" target="_top" xlink:title="include/Socket.h">
<polygon fill="none" stroke="black" points="354.5,-112.5 354.5,-131.5 443.5,-131.5 443.5,-112.5 354.5,-112.5"/>
<text text-anchor="middle" x="399" y="-119.5" font-family="Helvetica,sans-Serif" font-size="10.00">include/Socket.h</text>
</a>
</g>
</g>
<!-- Node1&#45;&gt;Node6 -->
<g id="edge6" class="edge"><title>Node1&#45;&gt;Node6</title>
<path fill="none" stroke="midnightblue" d="M508.071,-164.772C481.586,-154.629 444.608,-140.467 421.237,-131.516"/>
<polygon fill="midnightblue" stroke="midnightblue" points="507.068,-168.136 517.658,-168.444 509.571,-161.599 507.068,-168.136"/>
</g>
<!-- Node10 -->
<g id="node10" class="node"><title>Node10</title>
<g id="a_node10"><a xlink:href="_global_8h.html" target="_top" xlink:title="include/Global.h">
<polygon fill="none" stroke="black" points="462,-112.5 462,-131.5 548,-131.5 548,-112.5 462,-112.5"/>
<text text-anchor="middle" x="505" y="-119.5" font-family="Helvetica,sans-Serif" font-size="10.00">include/Global.h</text>
</a>
</g>
</g>
<!-- Node1&#45;&gt;Node10 -->
<g id="edge10" class="edge"><title>Node1&#45;&gt;Node10</title>
<path fill="none" stroke="midnightblue" d="M528.7,-159.566C522.678,-150.275 515.531,-139.248 510.672,-131.751"/>
<polygon fill="midnightblue" stroke="midnightblue" points="525.844,-161.595 534.22,-168.083 531.719,-157.788 525.844,-161.595"/>
</g>
<!-- Node11 -->
<g id="node11" class="node"><title>Node11</title>
<g id="a_node11"><a xlink:href="_job_thread_8h.html" target="_top" xlink:title="include/JobThread.h">
<polygon fill="none" stroke="black" points="628,-56.5 628,-75.5 732,-75.5 732,-56.5 628,-56.5"/>
<text text-anchor="middle" x="680" y="-63.5" font-family="Helvetica,sans-Serif" font-size="10.00">include/JobThread.h</text>
</a>
</g>
</g>
<!-- Node1&#45;&gt;Node11 -->
<g id="edge11" class="edge"><title>Node1&#45;&gt;Node11</title>
<path fill="none" stroke="midnightblue" d="M551.74,-159.749C561.962,-145.643 577.808,-125.838 595,-112 614.641,-96.191 640.685,-83.3754 658.744,-75.5222"/>
<polygon fill="midnightblue" stroke="midnightblue" points="548.772,-157.884 545.876,-168.075 554.496,-161.914 548.772,-157.884"/>
</g>
<!-- Node12 -->
<g id="node12" class="node"><title>Node12</title>
<g id="a_node12"><a xlink:href="_pipe_8h.html" target="_top" xlink:title="include/Pipe.h">
<polygon fill="none" stroke="black" points="604,-112.5 604,-131.5 682,-131.5 682,-112.5 604,-112.5"/>
<text text-anchor="middle" x="643" y="-119.5" font-family="Helvetica,sans-Serif" font-size="10.00">include/Pipe.h</text>
</a>
</g>
</g>
<!-- Node1&#45;&gt;Node12 -->
<g id="edge12" class="edge"><title>Node1&#45;&gt;Node12</title>
<path fill="none" stroke="midnightblue" d="M565.579,-163.59C584.623,-153.605 610.064,-140.267 626.492,-131.655"/>
<polygon fill="midnightblue" stroke="midnightblue" points="563.78,-160.581 556.549,-168.324 567.031,-166.78 563.78,-160.581"/>
</g>
<!-- Node13 -->
<g id="node13" class="node"><title>Node13</title>
<g id="a_node13"><a xlink:href="_module_thread_8h.html" target="_top" xlink:title="include/ModuleThread.h">
<polygon fill="none" stroke="black" points="700,-112.5 700,-131.5 820,-131.5 820,-112.5 700,-112.5"/>
<text text-anchor="middle" x="760" y="-119.5" font-family="Helvetica,sans-Serif" font-size="10.00">include/ModuleThread.h</text>
</a>
</g>
</g>
<!-- Node1&#45;&gt;Node13 -->
<g id="edge14" class="edge"><title>Node1&#45;&gt;Node13</title>
<path fill="none" stroke="midnightblue" d="M584.718,-166.024C626.276,-155.823 687.313,-140.841 725.303,-131.516"/>
<polygon fill="midnightblue" stroke="midnightblue" points="583.737,-162.661 574.86,-168.444 585.406,-169.459 583.737,-162.661"/>
</g>
<!-- Node14 -->
<g id="node14" class="node"><title>Node14</title>
<g id="a_node14"><a xlink:href="_sub_module_loader_8h.html" target="_top" xlink:title="include/SubModuleLoader.h">
<polygon fill="none" stroke="black" points="838.5,-112.5 838.5,-131.5 975.5,-131.5 975.5,-112.5 838.5,-112.5"/>
<text text-anchor="middle" x="907" y="-119.5" font-family="Helvetica,sans-Serif" font-size="10.00">include/SubModuleLoader.h</text>
</a>
</g>
</g>
<!-- Node1&#45;&gt;Node14 -->
<g id="edge15" class="edge"><title>Node1&#45;&gt;Node14</title>
<path fill="none" stroke="midnightblue" d="M595.132,-168.888C663.435,-158.838 779.286,-141.792 848.924,-131.545"/>
<polygon fill="midnightblue" stroke="midnightblue" points="594.385,-165.46 585.001,-170.379 595.404,-172.385 594.385,-165.46"/>
</g>
<!-- Node3 -->
<g id="node3" class="node"><title>Node3</title>
<g id="a_node3"><a xlink:href="_backoff_timer_8h.html" target="_top" xlink:title="include/BackoffTimer.h">
<polygon fill="none" stroke="black" points="-0.5,-56.5 -0.5,-75.5 116.5,-75.5 116.5,-56.5 -0.5,-56.5"/>
<text text-anchor="middle" x="58" y="-63.5" font-family="Helvetica,sans-Serif" font-size="10.00">include/BackoffTimer.h</text>
</a>
</g>
</g>
<!-- Node2&#45;&gt;Node3 -->
<g id="edge2" class="edge"><title>Node2&#45;&gt;Node3</title>
<path fill="none" stroke="midnightblue" d="M76.6577,-102.983C71.905,-93.8168 66.3441,-83.0922 62.5376,-75.7511"/>
<polygon fill="midnightblue" stroke="midnightblue" points="73.666,-104.817 81.3764,-112.083 79.8803,-101.594 73.666,-104.817"/>
</g>
<!-- Node4 -->
<g id="node4" class="node"><title>Node4</title>
<g id="a_node4"><a xlink:href="_postgres_8h.html" target="_top" xlink:title="include/Postgres.h">
<polygon fill="none" stroke="black" points="72,-0.5 72,-19.5 170,-19.5 170,-0.5 72,-0.5"/>
<text text-anchor="middle" x="121" y="-7.5" font-family="Helvetica,sans-Serif" font-size="10.00">include/Postgres.h</text>
</a>
</g>
</g>
<!-- Node3&#45;&gt;Node4 -->
<g id="edge3" class="edge"><title>Node3&#45;&gt;Node4</title>
<path fill="none" stroke="midnightblue" d="M76.0399,-49.5372C87.2731,-39.9087 101.319,-27.8694 110.694,-19.8339"/>
<polygon fill="midnightblue" stroke="midnightblue" points="73.4368,-47.1586 68.122,-56.324 77.9924,-52.4734 73.4368,-47.1586"/>
</g>
<!-- Node5&#45;&gt;Node4 -->
<g id="edge5" class="edge"><title>Node5&#45;&gt;Node4</title>
<path fill="none" stroke="midnightblue" d="M167.009,-49.8197C155.542,-40.1452 141.087,-27.9481 131.47,-19.8339"/>
<polygon fill="midnightblue" stroke="midnightblue" points="164.817,-52.5502 174.717,-56.324 169.331,-47.2002 164.817,-52.5502"/>
</g>
<!-- Node7 -->
<g id="node7" class="node"><title>Node7</title>
<g id="a_node7"><a xlink:href="_d_n_s_8h.html" target="_top" xlink:title="include/DNS.h">
<polygon fill="none" stroke="black" points="254,-56.5 254,-75.5 334,-75.5 334,-56.5 254,-56.5"/>
<text text-anchor="middle" x="294" y="-63.5" font-family="Helvetica,sans-Serif" font-size="10.00">include/DNS.h</text>
</a>
</g>
</g>
<!-- Node6&#45;&gt;Node7 -->
<g id="edge7" class="edge"><title>Node6&#45;&gt;Node7</title>
<path fill="none" stroke="midnightblue" d="M373.19,-107.726C353.747,-97.7271 327.652,-84.3065 310.828,-75.6545"/>
<polygon fill="midnightblue" stroke="midnightblue" points="371.636,-110.863 382.13,-112.324 374.838,-104.638 371.636,-110.863"/>
</g>
<!-- Node8 -->
<g id="node8" class="node"><title>Node8</title>
<g id="a_node8"><a xlink:href="_listener_8h.html" target="_top" xlink:title="include/Listener.h">
<polygon fill="none" stroke="black" points="352.5,-56.5 352.5,-75.5 445.5,-75.5 445.5,-56.5 352.5,-56.5"/>
<text text-anchor="middle" x="399" y="-63.5" font-family="Helvetica,sans-Serif" font-size="10.00">include/Listener.h</text>
</a>
</g>
</g>
<!-- Node6&#45;&gt;Node8 -->
<g id="edge8" class="edge"><title>Node6&#45;&gt;Node8</title>
<path fill="none" stroke="midnightblue" d="M399,-101.805C399,-92.9102 399,-82.7798 399,-75.7511"/>
<polygon fill="midnightblue" stroke="midnightblue" points="395.5,-102.083 399,-112.083 402.5,-102.083 395.5,-102.083"/>
</g>
<!-- Node9 -->
<g id="node9" class="node"><title>Node9</title>
<g id="a_node9"><a xlink:href="_simple_h_t_t_p_socket_8h.html" target="_top" xlink:title="include/SimpleHTTPSocket.h">
<polygon fill="none" stroke="black" points="464,-56.5 464,-75.5 610,-75.5 610,-56.5 464,-56.5"/>
<text text-anchor="middle" x="537" y="-63.5" font-family="Helvetica,sans-Serif" font-size="10.00">include/SimpleHTTPSocket.h</text>
</a>
</g>
</g>
<!-- Node6&#45;&gt;Node9 -->
<g id="edge9" class="edge"><title>Node6&#45;&gt;Node9</title>
<path fill="none" stroke="midnightblue" d="M430.249,-108.772C456.171,-98.6287 492.362,-84.4669 515.236,-75.5164"/>
<polygon fill="midnightblue" stroke="midnightblue" points="428.904,-105.54 420.867,-112.444 431.454,-112.059 428.904,-105.54"/>
</g>
<!-- Node12&#45;&gt;Node11 -->
<g id="edge13" class="edge"><title>Node12&#45;&gt;Node11</title>
<path fill="none" stroke="midnightblue" d="M654.946,-103.566C661.312,-94.2747 668.867,-83.2484 674.004,-75.7511"/>
<polygon fill="midnightblue" stroke="midnightblue" points="651.875,-101.855 649.11,-112.083 657.649,-105.812 651.875,-101.855"/>
</g>
</g>
</svg>
