<?xml version="1.0" encoding="UTF-8" standalone="no"?>
<!DOCTYPE svg PUBLIC "-//W3C//DTD SVG 1.1//EN"
 "http://www.w3.org/Graphics/SVG/1.1/DTD/svg11.dtd">
<!-- Generated by graphviz version 2.34.0 (20140110.0949)
 -->
<!-- Title: include/Module.h Pages: 1 -->
<svg width="342pt" height="140pt"
 viewBox="0.00 0.00 342.00 140.00" xmlns="http://www.w3.org/2000/svg" xmlns:xlink="http://www.w3.org/1999/xlink">
<g id="graph0" class="graph" transform="scale(1 1) rotate(0) translate(4 136)">
<title>include/Module.h</title>
<!-- Node1 -->
<g id="node1" class="node"><title>Node1</title>
<polygon fill="#bfbfbf" stroke="black" points="133,-112.5 133,-131.5 223,-131.5 223,-112.5 133,-112.5"/>
<text text-anchor="middle" x="178" y="-119.5" font-family="Helvetica,sans-Serif" font-size="10.00">include/Module.h</text>
</g>
<!-- Node2 -->
<g id="node2" class="node"><title>Node2</title>
<polygon fill="none" stroke="#bfbfbf" points="-0.5,-0.5 -0.5,-19.5 72.5,-19.5 72.5,-0.5 -0.5,-0.5"/>
<text text-anchor="middle" x="36" y="-7.5" font-family="Helvetica,sans-Serif" font-size="10.00">event2/dns.h</text>
</g>
<!-- Node1&#45;&gt;Node2 -->
<g id="edge1" class="edge"><title>Node1&#45;&gt;Node2</title>
<path fill="none" stroke="midnightblue" d="M132.846,-120.817C98.2961,-117.995 52.6821,-107.891 29,-76 19.0783,-62.6392 22.8183,-43.2602 27.8252,-29.1399"/>
<polygon fill="midnightblue" stroke="midnightblue" points="31.1971,-30.137 31.6957,-19.5539 24.7062,-27.5162 31.1971,-30.137"/>
</g>
<!-- Node3 -->
<g id="node3" class="node"><title>Node3</title>
<polygon fill="none" stroke="#bfbfbf" points="152.5,-0.5 152.5,-19.5 233.5,-19.5 233.5,-0.5 152.5,-0.5"/>
<text text-anchor="middle" x="193" y="-7.5" font-family="Helvetica,sans-Serif" font-size="10.00">event2/event.h</text>
</g>
<!-- Node1&#45;&gt;Node3 -->
<g id="edge2" class="edge"><title>Node1&#45;&gt;Node3</title>
<path fill="none" stroke="midnightblue" d="M196.984,-112.398C210.886,-104.954 228.714,-92.741 237,-76 246.028,-57.7607 229.548,-38.6809 214.249,-25.9486"/>
<polygon fill="midnightblue" stroke="midnightblue" points="216.086,-22.9433 206.041,-19.5737 211.792,-28.4718 216.086,-22.9433"/>
</g>
<!-- Node4 -->
<g id="node4" class="node"><title>Node4</title>
<polygon fill="none" stroke="#bfbfbf" points="106.5,-56.5 106.5,-75.5 179.5,-75.5 179.5,-56.5 106.5,-56.5"/>
<text text-anchor="middle" x="143" y="-63.5" font-family="Helvetica,sans-Serif" font-size="10.00">libconfig.h++</text>
</g>
<!-- Node1&#45;&gt;Node4 -->
<g id="edge3" class="edge"><title>Node1&#45;&gt;Node4</title>
<path fill="none" stroke="midnightblue" d="M172.22,-112.083C167.328,-104.534 160.173,-93.4948 154.167,-84.2298"/>
<polygon fill="midnightblue" stroke="midnightblue" points="157.048,-82.239 148.672,-75.7511 151.174,-86.0463 157.048,-82.239"/>
</g>
<!-- Node5 -->
<g id="node5" class="node"><title>Node5</title>
<polygon fill="none" stroke="#bfbfbf" points="198,-56.5 198,-75.5 228,-75.5 228,-56.5 198,-56.5"/>
<text text-anchor="middle" x="213" y="-63.5" font-family="Helvetica,sans-Serif" font-size="10.00">set</text>
</g>
<!-- Node1&#45;&gt;Node5 -->
<g id="edge4" class="edge"><title>Node1&#45;&gt;Node5</title>
<path fill="none" stroke="midnightblue" d="M183.78,-112.083C188.672,-104.534 195.827,-93.4948 201.833,-84.2298"/>
<polygon fill="midnightblue" stroke="midnightblue" points="204.826,-86.0463 207.328,-75.7511 198.952,-82.239 204.826,-86.0463"/>
</g>
<!-- Node6 -->
<g id="node6" class="node"><title>Node6</title>
<g id="a_node6"><a xlink:href="_string_8h.html" target="_top" xlink:title="String.h">
<polygon fill="none" stroke="black" points="284,-56.5 284,-75.5 334,-75.5 334,-56.5 284,-56.5"/>
<text text-anchor="middle" x="309" y="-63.5" font-family="Helvetica,sans-Serif" font-size="10.00">String.h</text>
</a>
</g>
</g>
<!-- Node1&#45;&gt;Node6 -->
<g id="edge5" class="edge"><title>Node1&#45;&gt;Node6</title>
<path fill="none" stroke="midnightblue" d="M198.757,-112.444C220.316,-103.557 254.263,-89.5632 278.794,-79.4514"/>
<polygon fill="midnightblue" stroke="midnightblue" points="280.428,-82.5634 288.34,-75.5164 277.761,-76.0917 280.428,-82.5634"/>
</g>
<!-- Node8 -->
<g id="node8" class="node"><title>Node8</title>
<g id="a_node8"><a xlink:href="_event_8h.html" target="_top" xlink:title="Event.h">
<polygon fill="none" stroke="black" points="38,-56.5 38,-75.5 88,-75.5 88,-56.5 38,-56.5"/>
<text text-anchor="middle" x="63" y="-63.5" font-family="Helvetica,sans-Serif" font-size="10.00">Event.h</text>
</a>
</g>
</g>
<!-- Node1&#45;&gt;Node8 -->
<g id="edge7" class="edge"><title>Node1&#45;&gt;Node8</title>
<path fill="none" stroke="midnightblue" d="M159.778,-112.444C141.104,-103.675 111.844,-89.9355 90.3826,-79.8579"/>
<polygon fill="midnightblue" stroke="midnightblue" points="91.6763,-76.5988 81.1368,-75.5164 88.7009,-82.935 91.6763,-76.5988"/>
</g>
<!-- Node7 -->
<g id="node7" class="node"><title>Node7</title>
<polygon fill="none" stroke="#bfbfbf" points="288.5,-0.5 288.5,-19.5 329.5,-19.5 329.5,-0.5 288.5,-0.5"/>
<text text-anchor="middle" x="309" y="-7.5" font-family="Helvetica,sans-Serif" font-size="10.00">string</text>
</g>
<!-- Node6&#45;&gt;Node7 -->
<g id="edge6" class="edge"><title>Node6&#45;&gt;Node7</title>
<path fill="none" stroke="midnightblue" d="M309,-56.083C309,-49.0059 309,-38.8611 309,-29.9865"/>
<polygon fill="midnightblue" stroke="midnightblue" points="312.5,-29.751 309,-19.7511 305.5,-29.7511 312.5,-29.751"/>
</g>
<!-- Node8&#45;&gt;Node2 -->
<g id="edge8" class="edge"><title>Node8&#45;&gt;Node2</title>
<path fill="none" stroke="midnightblue" d="M58.5415,-56.083C54.8457,-48.6913 49.4766,-37.9533 44.9055,-28.8111"/>
<polygon fill="midnightblue" stroke="midnightblue" points="47.9782,-27.1301 40.3755,-19.7511 41.7172,-30.2606 47.9782,-27.1301"/>
</g>
<!-- Node8&#45;&gt;Node3 -->
<g id="edge9" class="edge"><title>Node8&#45;&gt;Node3</title>
<path fill="none" stroke="midnightblue" d="M83.5989,-56.4435C104.993,-47.5566 138.681,-33.5632 163.024,-23.4514"/>
<polygon fill="midnightblue" stroke="midnightblue" points="164.605,-26.5848 172.497,-19.5164 161.92,-20.1203 164.605,-26.5848"/>
</g>
</g>
</svg>
