<?xml version="1.0" encoding="UTF-8" standalone="no"?>
<!DOCTYPE svg PUBLIC "-//W3C//DTD SVG 1.1//EN"
 "http://www.w3.org/Graphics/SVG/1.1/DTD/svg11.dtd">
<!-- Generated by graphviz version 2.34.0 (20140110.0949)
 -->
<!-- Title: include/ModuleThread.h Pages: 1 -->
<svg width="577pt" height="196pt"
 viewBox="0.00 0.00 577.00 196.00" xmlns="http://www.w3.org/2000/svg" xmlns:xlink="http://www.w3.org/1999/xlink">
<g id="graph0" class="graph" transform="scale(1 1) rotate(0) translate(4 192)">
<title>include/ModuleThread.h</title>
<!-- Node1 -->
<g id="node1" class="node"><title>Node1</title>
<polygon fill="#bfbfbf" stroke="black" points="107,-168.5 107,-187.5 227,-187.5 227,-168.5 107,-168.5"/>
<text text-anchor="middle" x="167" y="-175.5" font-family="Helvetica,sans-Serif" font-size="10.00">include/ModuleThread.h</text>
</g>
<!-- Node2 -->
<g id="node2" class="node"><title>Node2</title>
<polygon fill="none" stroke="#bfbfbf" points="0,-112.5 0,-131.5 54,-131.5 54,-112.5 0,-112.5"/>
<text text-anchor="middle" x="27" y="-119.5" font-family="Helvetica,sans-Serif" font-size="10.00">setjmp.h</text>
</g>
<!-- Node1&#45;&gt;Node2 -->
<g id="edge1" class="edge"><title>Node1&#45;&gt;Node2</title>
<path fill="none" stroke="midnightblue" d="M144.817,-168.444C121.572,-159.478 84.8512,-145.314 58.5848,-135.183"/>
<polygon fill="midnightblue" stroke="midnightblue" points="59.6692,-131.85 49.0796,-131.516 57.1501,-138.381 59.6692,-131.85"/>
</g>
<!-- Node3 -->
<g id="node3" class="node"><title>Node3</title>
<polygon fill="none" stroke="#bfbfbf" points="72,-112.5 72,-131.5 122,-131.5 122,-112.5 72,-112.5"/>
<text text-anchor="middle" x="97" y="-119.5" font-family="Helvetica,sans-Serif" font-size="10.00">signal.h</text>
</g>
<!-- Node1&#45;&gt;Node3 -->
<g id="edge2" class="edge"><title>Node1&#45;&gt;Node3</title>
<path fill="none" stroke="midnightblue" d="M155.753,-168.324C145.203,-160.185 129.199,-147.839 116.558,-138.087"/>
<polygon fill="midnightblue" stroke="midnightblue" points="118.507,-135.171 108.451,-131.834 114.231,-140.713 118.507,-135.171"/>
</g>
<!-- Node4 -->
<g id="node4" class="node"><title>Node4</title>
<polygon fill="none" stroke="#bfbfbf" points="140,-112.5 140,-131.5 194,-131.5 194,-112.5 140,-112.5"/>
<text text-anchor="middle" x="167" y="-119.5" font-family="Helvetica,sans-Serif" font-size="10.00">strings.h</text>
</g>
<!-- Node1&#45;&gt;Node4 -->
<g id="edge3" class="edge"><title>Node1&#45;&gt;Node4</title>
<path fill="none" stroke="midnightblue" d="M167,-168.083C167,-161.006 167,-150.861 167,-141.986"/>
<polygon fill="midnightblue" stroke="midnightblue" points="170.5,-141.751 167,-131.751 163.5,-141.751 170.5,-141.751"/>
</g>
<!-- Node5 -->
<g id="node5" class="node"><title>Node5</title>
<g id="a_node5"><a xlink:href="_thread_8h.html" target="_top" xlink:title="Thread.h">
<polygon fill="none" stroke="black" points="212.5,-112.5 212.5,-131.5 267.5,-131.5 267.5,-112.5 212.5,-112.5"/>
<text text-anchor="middle" x="240" y="-119.5" font-family="Helvetica,sans-Serif" font-size="10.00">Thread.h</text>
</a>
</g>
</g>
<!-- Node1&#45;&gt;Node5 -->
<g id="edge4" class="edge"><title>Node1&#45;&gt;Node5</title>
<path fill="none" stroke="midnightblue" d="M178.729,-168.324C189.837,-160.107 206.742,-147.602 219.983,-137.807"/>
<polygon fill="midnightblue" stroke="midnightblue" points="222.1,-140.595 228.058,-131.834 217.937,-134.967 222.1,-140.595"/>
</g>
<!-- Node14 -->
<g id="node14" class="node"><title>Node14</title>
<g id="a_node14"><a xlink:href="_module_8h.html" target="_top" xlink:title="Module.h">
<polygon fill="none" stroke="black" points="369,-112.5 369,-131.5 425,-131.5 425,-112.5 369,-112.5"/>
<text text-anchor="middle" x="397" y="-119.5" font-family="Helvetica,sans-Serif" font-size="10.00">Module.h</text>
</a>
</g>
</g>
<!-- Node1&#45;&gt;Node14 -->
<g id="edge14" class="edge"><title>Node1&#45;&gt;Node14</title>
<path fill="none" stroke="midnightblue" d="M203.444,-168.444C245.895,-158.477 315.7,-142.088 358.863,-131.954"/>
<polygon fill="midnightblue" stroke="midnightblue" points="359.767,-135.337 368.702,-129.644 358.167,-128.522 359.767,-135.337"/>
</g>
<!-- Node6 -->
<g id="node6" class="node"><title>Node6</title>
<polygon fill="none" stroke="#bfbfbf" points="83.5,-56.5 83.5,-75.5 118.5,-75.5 118.5,-56.5 83.5,-56.5"/>
<text text-anchor="middle" x="101" y="-63.5" font-family="Helvetica,sans-Serif" font-size="10.00">map</text>
</g>
<!-- Node5&#45;&gt;Node6 -->
<g id="edge5" class="edge"><title>Node5&#45;&gt;Node6</title>
<path fill="none" stroke="midnightblue" d="M217.975,-112.444C193.538,-102.95 154.102,-87.6297 127.87,-77.4385"/>
<polygon fill="midnightblue" stroke="midnightblue" points="129.11,-74.1655 118.521,-73.8067 126.575,-80.6904 129.11,-74.1655"/>
</g>
<!-- Node7 -->
<g id="node7" class="node"><title>Node7</title>
<polygon fill="none" stroke="#bfbfbf" points="155.5,-0.5 155.5,-19.5 204.5,-19.5 204.5,-0.5 155.5,-0.5"/>
<text text-anchor="middle" x="180" y="-7.5" font-family="Helvetica,sans-Serif" font-size="10.00">stdint.h</text>
</g>
<!-- Node5&#45;&gt;Node7 -->
<g id="edge6" class="edge"><title>Node5&#45;&gt;Node7</title>
<path fill="none" stroke="midnightblue" d="M213.071,-112.356C196.281,-105.411 176.022,-93.8247 166,-76 157.714,-61.2639 163.491,-42.1152 169.952,-28.4255"/>
<polygon fill="midnightblue" stroke="midnightblue" points="173.053,-30.0467 174.586,-19.5632 166.85,-26.8029 173.053,-30.0467"/>
</g>
<!-- Node8 -->
<g id="node8" class="node"><title>Node8</title>
<polygon fill="none" stroke="#bfbfbf" points="175.5,-56.5 175.5,-75.5 232.5,-75.5 232.5,-56.5 175.5,-56.5"/>
<text text-anchor="middle" x="204" y="-63.5" font-family="Helvetica,sans-Serif" font-size="10.00">pthread.h</text>
</g>
<!-- Node5&#45;&gt;Node8 -->
<g id="edge7" class="edge"><title>Node5&#45;&gt;Node8</title>
<path fill="none" stroke="midnightblue" d="M234.055,-112.083C229.023,-104.534 221.663,-93.4948 215.487,-84.2298"/>
<polygon fill="midnightblue" stroke="midnightblue" points="218.293,-82.1301 209.834,-75.7511 212.469,-86.0131 218.293,-82.1301"/>
</g>
<!-- Node9 -->
<g id="node9" class="node"><title>Node9</title>
<g id="a_node9"><a xlink:href="_string_8h.html" target="_top" xlink:title="String.h">
<polygon fill="none" stroke="black" points="251,-56.5 251,-75.5 301,-75.5 301,-56.5 251,-56.5"/>
<text text-anchor="middle" x="276" y="-63.5" font-family="Helvetica,sans-Serif" font-size="10.00">String.h</text>
</a>
</g>
</g>
<!-- Node5&#45;&gt;Node9 -->
<g id="edge8" class="edge"><title>Node5&#45;&gt;Node9</title>
<path fill="none" stroke="midnightblue" d="M245.945,-112.083C250.977,-104.534 258.337,-93.4948 264.513,-84.2298"/>
<polygon fill="midnightblue" stroke="midnightblue" points="267.531,-86.0131 270.166,-75.7511 261.707,-82.1301 267.531,-86.0131"/>
</g>
<!-- Node11 -->
<g id="node11" class="node"><title>Node11</title>
<g id="a_node11"><a xlink:href="_event_8h.html" target="_top" xlink:title="Event.h">
<polygon fill="none" stroke="black" points="319,-56.5 319,-75.5 369,-75.5 369,-56.5 319,-56.5"/>
<text text-anchor="middle" x="344" y="-63.5" font-family="Helvetica,sans-Serif" font-size="10.00">Event.h</text>
</a>
</g>
</g>
<!-- Node5&#45;&gt;Node11 -->
<g id="edge11" class="edge"><title>Node5&#45;&gt;Node11</title>
<path fill="none" stroke="midnightblue" d="M256.709,-112.324C273.312,-103.703 299.002,-90.3643 318.22,-80.3855"/>
<polygon fill="midnightblue" stroke="midnightblue" points="320.07,-83.3689 327.332,-75.6545 316.844,-77.1565 320.07,-83.3689"/>
</g>
<!-- Node9&#45;&gt;Node7 -->
<g id="edge10" class="edge"><title>Node9&#45;&gt;Node7</title>
<path fill="none" stroke="midnightblue" d="M260.576,-56.324C245.46,-47.8215 222.185,-34.7288 204.529,-24.7975"/>
<polygon fill="midnightblue" stroke="midnightblue" points="205.817,-21.5066 195.386,-19.6545 202.386,-27.6077 205.817,-21.5066"/>
</g>
<!-- Node10 -->
<g id="node10" class="node"><title>Node10</title>
<polygon fill="none" stroke="#bfbfbf" points="255.5,-0.5 255.5,-19.5 296.5,-19.5 296.5,-0.5 255.5,-0.5"/>
<text text-anchor="middle" x="276" y="-7.5" font-family="Helvetica,sans-Serif" font-size="10.00">string</text>
</g>
<!-- Node9&#45;&gt;Node10 -->
<g id="edge9" class="edge"><title>Node9&#45;&gt;Node10</title>
<path fill="none" stroke="midnightblue" d="M276,-56.083C276,-49.0059 276,-38.8611 276,-29.9865"/>
<polygon fill="midnightblue" stroke="midnightblue" points="279.5,-29.751 276,-19.7511 272.5,-29.7511 279.5,-29.751"/>
</g>
<!-- Node12 -->
<g id="node12" class="node"><title>Node12</title>
<polygon fill="none" stroke="#bfbfbf" points="496.5,-0.5 496.5,-19.5 569.5,-19.5 569.5,-0.5 496.5,-0.5"/>
<text text-anchor="middle" x="533" y="-7.5" font-family="Helvetica,sans-Serif" font-size="10.00">event2/dns.h</text>
</g>
<!-- Node11&#45;&gt;Node12 -->
<g id="edge12" class="edge"><title>Node11&#45;&gt;Node12</title>
<path fill="none" stroke="midnightblue" d="M369.098,-57.8292C400.763,-48.7819 455.6,-33.1144 493.051,-22.4139"/>
<polygon fill="midnightblue" stroke="midnightblue" points="494.466,-25.6497 503.12,-19.5371 492.543,-18.9191 494.466,-25.6497"/>
</g>
<!-- Node13 -->
<g id="node13" class="node"><title>Node13</title>
<polygon fill="none" stroke="#bfbfbf" points="335.5,-0.5 335.5,-19.5 416.5,-19.5 416.5,-0.5 335.5,-0.5"/>
<text text-anchor="middle" x="376" y="-7.5" font-family="Helvetica,sans-Serif" font-size="10.00">event2/event.h</text>
</g>
<!-- Node11&#45;&gt;Node13 -->
<g id="edge13" class="edge"><title>Node11&#45;&gt;Node13</title>
<path fill="none" stroke="midnightblue" d="M349.284,-56.083C353.711,-48.6127 360.163,-37.7244 365.618,-28.5199"/>
<polygon fill="midnightblue" stroke="midnightblue" points="368.727,-30.1383 370.814,-19.7511 362.705,-26.5697 368.727,-30.1383"/>
</g>
<!-- Node14&#45;&gt;Node9 -->
<g id="edge19" class="edge"><title>Node14&#45;&gt;Node9</title>
<path fill="none" stroke="midnightblue" d="M377.827,-112.444C358.091,-103.636 327.115,-89.8116 304.507,-79.722"/>
<polygon fill="midnightblue" stroke="midnightblue" points="305.641,-76.3957 295.083,-75.5164 302.789,-82.788 305.641,-76.3957"/>
</g>
<!-- Node14&#45;&gt;Node11 -->
<g id="edge20" class="edge"><title>Node14&#45;&gt;Node11</title>
<path fill="none" stroke="midnightblue" d="M388.248,-112.083C380.53,-104.22 369.095,-92.5688 359.783,-83.0813"/>
<polygon fill="midnightblue" stroke="midnightblue" points="362.092,-80.4363 352.589,-75.7511 357.096,-85.3396 362.092,-80.4363"/>
</g>
<!-- Node14&#45;&gt;Node12 -->
<g id="edge15" class="edge"><title>Node14&#45;&gt;Node12</title>
<path fill="none" stroke="midnightblue" d="M425.229,-117.113C466.532,-110.782 540.253,-96.8224 556,-76 566.78,-61.7458 557.164,-42.0102 547.275,-28.0346"/>
<polygon fill="midnightblue" stroke="midnightblue" points="549.816,-25.5967 540.949,-19.7979 544.264,-29.8606 549.816,-25.5967"/>
</g>
<!-- Node14&#45;&gt;Node13 -->
<g id="edge16" class="edge"><title>Node14&#45;&gt;Node13</title>
<path fill="none" stroke="midnightblue" d="M395.352,-112.368C391.963,-94.617 384.145,-53.6664 379.55,-29.5974"/>
<polygon fill="midnightblue" stroke="midnightblue" points="382.953,-28.7577 377.64,-19.5914 376.078,-30.0704 382.953,-28.7577"/>
</g>
<!-- Node15 -->
<g id="node15" class="node"><title>Node15</title>
<polygon fill="none" stroke="#bfbfbf" points="425.5,-56.5 425.5,-75.5 498.5,-75.5 498.5,-56.5 425.5,-56.5"/>
<text text-anchor="middle" x="462" y="-63.5" font-family="Helvetica,sans-Serif" font-size="10.00">libconfig.h++</text>
</g>
<!-- Node14&#45;&gt;Node15 -->
<g id="edge17" class="edge"><title>Node14&#45;&gt;Node15</title>
<path fill="none" stroke="midnightblue" d="M407.443,-112.324C417.146,-104.263 431.815,-92.0765 443.5,-82.3695"/>
<polygon fill="midnightblue" stroke="midnightblue" points="445.911,-84.9163 451.367,-75.8339 441.438,-79.532 445.911,-84.9163"/>
</g>
<!-- Node16 -->
<g id="node16" class="node"><title>Node16</title>
<polygon fill="none" stroke="#bfbfbf" points="517,-56.5 517,-75.5 547,-75.5 547,-56.5 517,-56.5"/>
<text text-anchor="middle" x="532" y="-63.5" font-family="Helvetica,sans-Serif" font-size="10.00">set</text>
</g>
<!-- Node14&#45;&gt;Node16 -->
<g id="edge18" class="edge"><title>Node14&#45;&gt;Node16</title>
<path fill="none" stroke="midnightblue" d="M418.391,-112.444C442.676,-102.729 482.215,-86.9142 507.66,-76.7362"/>
<polygon fill="midnightblue" stroke="midnightblue" points="508.994,-79.9721 516.979,-73.0084 506.394,-73.4727 508.994,-79.9721"/>
</g>
</g>
</svg>
