<?xml version="1.0" encoding="UTF-8" standalone="no"?>
<!DOCTYPE svg PUBLIC "-//W3C//DTD SVG 1.1//EN"
 "http://www.w3.org/Graphics/SVG/1.1/DTD/svg11.dtd">
<!-- Generated by graphviz version 2.34.0 (20140110.0949)
 -->
<!-- Title: include/Module.h Pages: 1 -->
<svg width="375pt" height="140pt"
 viewBox="0.00 0.00 375.00 140.00" xmlns="http://www.w3.org/2000/svg" xmlns:xlink="http://www.w3.org/1999/xlink">
<g id="graph0" class="graph" transform="scale(1 1) rotate(0) translate(4 136)">
<title>include/Module.h</title>
<!-- Node1 -->
<g id="node1" class="node"><title>Node1</title>
<polygon fill="#bfbfbf" stroke="black" points="136,-112.5 136,-131.5 226,-131.5 226,-112.5 136,-112.5"/>
<text text-anchor="middle" x="181" y="-119.5" font-family="Helvetica,sans-Serif" font-size="10.00">include/Module.h</text>
</g>
<!-- Node2 -->
<g id="node2" class="node"><title>Node2</title>
<polygon fill="none" stroke="#bfbfbf" points="-0.5,-0.5 -0.5,-19.5 72.5,-19.5 72.5,-0.5 -0.5,-0.5"/>
<text text-anchor="middle" x="36" y="-7.5" font-family="Helvetica,sans-Serif" font-size="10.00">event2/dns.h</text>
</g>
<!-- Node1&#45;&gt;Node2 -->
<g id="edge1" class="edge"><title>Node1&#45;&gt;Node2</title>
<path fill="none" stroke="midnightblue" d="M135.846,-120.817C101.296,-117.995 55.6821,-107.891 32,-76 22.1167,-62.6908 24.8669,-43.3044 29.0211,-29.1682"/>
<polygon fill="midnightblue" stroke="midnightblue" points="32.3794,-30.1637 32.2856,-19.5693 25.7522,-27.9098 32.3794,-30.1637"/>
</g>
<!-- Node3 -->
<g id="node3" class="node"><title>Node3</title>
<polygon fill="none" stroke="#bfbfbf" points="136.5,-0.5 136.5,-19.5 217.5,-19.5 217.5,-0.5 136.5,-0.5"/>
<text text-anchor="middle" x="177" y="-7.5" font-family="Helvetica,sans-Serif" font-size="10.00">event2/event.h</text>
</g>
<!-- Node1&#45;&gt;Node3 -->
<g id="edge2" class="edge"><title>Node1&#45;&gt;Node3</title>
<path fill="none" stroke="midnightblue" d="M199.389,-112.326C220.879,-100.886 252.064,-79.4435 240,-56 232.923,-42.2475 219.479,-31.7663 206.822,-24.3942"/>
<polygon fill="midnightblue" stroke="midnightblue" points="208.313,-21.2221 197.847,-19.5733 205.001,-27.3888 208.313,-21.2221"/>
</g>
<!-- Node4 -->
<g id="node4" class="node"><title>Node4</title>
<polygon fill="none" stroke="#bfbfbf" points="109.5,-56.5 109.5,-75.5 182.5,-75.5 182.5,-56.5 109.5,-56.5"/>
<text text-anchor="middle" x="146" y="-63.5" font-family="Helvetica,sans-Serif" font-size="10.00">libconfig.h++</text>
</g>
<!-- Node1&#45;&gt;Node4 -->
<g id="edge3" class="edge"><title>Node1&#45;&gt;Node4</title>
<path fill="none" stroke="midnightblue" d="M175.22,-112.083C170.328,-104.534 163.173,-93.4948 157.167,-84.2298"/>
<polygon fill="midnightblue" stroke="midnightblue" points="160.048,-82.239 151.672,-75.7511 154.174,-86.0463 160.048,-82.239"/>
</g>
<!-- Node5 -->
<g id="node5" class="node"><title>Node5</title>
<polygon fill="none" stroke="#bfbfbf" points="201,-56.5 201,-75.5 231,-75.5 231,-56.5 201,-56.5"/>
<text text-anchor="middle" x="216" y="-63.5" font-family="Helvetica,sans-Serif" font-size="10.00">set</text>
</g>
<!-- Node1&#45;&gt;Node5 -->
<g id="edge4" class="edge"><title>Node1&#45;&gt;Node5</title>
<path fill="none" stroke="midnightblue" d="M186.78,-112.083C191.672,-104.534 198.827,-93.4948 204.833,-84.2298"/>
<polygon fill="midnightblue" stroke="midnightblue" points="207.826,-86.0463 210.328,-75.7511 201.952,-82.239 207.826,-86.0463"/>
</g>
<!-- Node6 -->
<g id="node6" class="node"><title>Node6</title>
<g id="a_node6"><a xlink:href="_string_8h.html" target="_top" xlink:title="String.h">
<polygon fill="none" stroke="black" points="287,-56.5 287,-75.5 337,-75.5 337,-56.5 287,-56.5"/>
<text text-anchor="middle" x="312" y="-63.5" font-family="Helvetica,sans-Serif" font-size="10.00">String.h</text>
</a>
</g>
</g>
<!-- Node1&#45;&gt;Node6 -->
<g id="edge5" class="edge"><title>Node1&#45;&gt;Node6</title>
<path fill="none" stroke="midnightblue" d="M201.757,-112.444C223.316,-103.557 257.263,-89.5632 281.794,-79.4514"/>
<polygon fill="midnightblue" stroke="midnightblue" points="283.428,-82.5634 291.34,-75.5164 280.761,-76.0917 283.428,-82.5634"/>
</g>
<!-- Node9 -->
<g id="node9" class="node"><title>Node9</title>
<g id="a_node9"><a xlink:href="_event_8h.html" target="_top" xlink:title="Event.h">
<polygon fill="none" stroke="black" points="41,-56.5 41,-75.5 91,-75.5 91,-56.5 41,-56.5"/>
<text text-anchor="middle" x="66" y="-63.5" font-family="Helvetica,sans-Serif" font-size="10.00">Event.h</text>
</a>
</g>
</g>
<!-- Node1&#45;&gt;Node9 -->
<g id="edge8" class="edge"><title>Node1&#45;&gt;Node9</title>
<path fill="none" stroke="midnightblue" d="M162.778,-112.444C144.104,-103.675 114.844,-89.9355 93.3826,-79.8579"/>
<polygon fill="midnightblue" stroke="midnightblue" points="94.6763,-76.5988 84.1368,-75.5164 91.7009,-82.935 94.6763,-76.5988"/>
</g>
<!-- Node7 -->
<g id="node7" class="node"><title>Node7</title>
<polygon fill="none" stroke="#bfbfbf" points="259.5,-0.5 259.5,-19.5 300.5,-19.5 300.5,-0.5 259.5,-0.5"/>
<text text-anchor="middle" x="280" y="-7.5" font-family="Helvetica,sans-Serif" font-size="10.00">string</text>
</g>
<!-- Node6&#45;&gt;Node7 -->
<g id="edge6" class="edge"><title>Node6&#45;&gt;Node7</title>
<path fill="none" stroke="midnightblue" d="M306.716,-56.083C302.289,-48.6127 295.837,-37.7244 290.382,-28.5199"/>
<polygon fill="midnightblue" stroke="midnightblue" points="293.295,-26.5697 285.186,-19.7511 287.273,-30.1383 293.295,-26.5697"/>
</g>
<!-- Node8 -->
<g id="node8" class="node"><title>Node8</title>
<polygon fill="none" stroke="#bfbfbf" points="318.5,-0.5 318.5,-19.5 367.5,-19.5 367.5,-0.5 318.5,-0.5"/>
<text text-anchor="middle" x="343" y="-7.5" font-family="Helvetica,sans-Serif" font-size="10.00">stdint.h</text>
</g>
<!-- Node6&#45;&gt;Node8 -->
<g id="edge7" class="edge"><title>Node6&#45;&gt;Node8</title>
<path fill="none" stroke="midnightblue" d="M317.119,-56.083C321.408,-48.6127 327.658,-37.7244 332.942,-28.5199"/>
<polygon fill="midnightblue" stroke="midnightblue" points="336.033,-30.1662 337.976,-19.7511 329.962,-26.6811 336.033,-30.1662"/>
</g>
<!-- Node9&#45;&gt;Node2 -->
<g id="edge9" class="edge"><title>Node9&#45;&gt;Node2</title>
<path fill="none" stroke="midnightblue" d="M61.0461,-56.083C56.8959,-48.6127 50.8469,-37.7244 45.7333,-28.5199"/>
<polygon fill="midnightblue" stroke="midnightblue" points="48.7777,-26.7929 40.8617,-19.7511 42.6586,-30.1924 48.7777,-26.7929"/>
</g>
<!-- Node9&#45;&gt;Node3 -->
<g id="edge10" class="edge"><title>Node9&#45;&gt;Node3</title>
<path fill="none" stroke="midnightblue" d="M83.8341,-56.324C101.716,-47.6247 129.475,-34.1202 150.046,-24.113"/>
<polygon fill="midnightblue" stroke="midnightblue" points="151.749,-27.1765 159.21,-19.6545 148.687,-20.8819 151.749,-27.1765"/>
</g>
</g>
</svg>
