<?xml version="1.0" encoding="UTF-8" standalone="no"?>
<!DOCTYPE svg PUBLIC "-//W3C//DTD SVG 1.1//EN"
 "http://www.w3.org/Graphics/SVG/1.1/DTD/svg11.dtd">
<!-- Generated by graphviz version 2.34.0 (20140110.0949)
 -->
<!-- Title: include/Module.h Pages: 1 -->
<svg width="1185pt" height="196pt"
 viewBox="0.00 0.00 1185.00 196.00" xmlns="http://www.w3.org/2000/svg" xmlns:xlink="http://www.w3.org/1999/xlink">
<g id="graph0" class="graph" transform="scale(1 1) rotate(0) translate(4 192)">
<title>include/Module.h</title>
<!-- Node1 -->
<g id="node1" class="node"><title>Node1</title>
<polygon fill="#bfbfbf" stroke="black" points="600,-168.5 600,-187.5 690,-187.5 690,-168.5 600,-168.5"/>
<text text-anchor="middle" x="645" y="-175.5" font-family="Helvetica,sans-Serif" font-size="10.00">include/Module.h</text>
</g>
<!-- Node2 -->
<g id="node2" class="node"><title>Node2</title>
<g id="a_node2"><a xlink:href="_timer_8h.html" target="_top" xlink:title="include/Timer.h">
<polygon fill="none" stroke="black" points="44.5,-112.5 44.5,-131.5 127.5,-131.5 127.5,-112.5 44.5,-112.5"/>
<text text-anchor="middle" x="86" y="-119.5" font-family="Helvetica,sans-Serif" font-size="10.00">include/Timer.h</text>
</a>
</g>
</g>
<!-- Node1&#45;&gt;Node2 -->
<g id="edge1" class="edge"><title>Node1&#45;&gt;Node2</title>
<path fill="none" stroke="midnightblue" d="M589.674,-171.655C477.889,-160.857 227.319,-136.652 127.851,-127.043"/>
<polygon fill="midnightblue" stroke="midnightblue" points="589.438,-175.149 599.728,-172.627 590.111,-168.181 589.438,-175.149"/>
</g>
<!-- Node5 -->
<g id="node5" class="node"><title>Node5</title>
<g id="a_node5"><a xlink:href="_database_8h.html" target="_top" xlink:title="include/Database.h">
<polygon fill="none" stroke="black" points="134.5,-56.5 134.5,-75.5 235.5,-75.5 235.5,-56.5 134.5,-56.5"/>
<text text-anchor="middle" x="185" y="-63.5" font-family="Helvetica,sans-Serif" font-size="10.00">include/Database.h</text>
</a>
</g>
</g>
<!-- Node1&#45;&gt;Node5 -->
<g id="edge4" class="edge"><title>Node1&#45;&gt;Node5</title>
<path fill="none" stroke="midnightblue" d="M589.639,-167.567C542.667,-159.241 473.608,-146.239 414,-132 340.44,-114.428 255.029,-88.7636 212.299,-75.5554"/>
<polygon fill="midnightblue" stroke="midnightblue" points="589.154,-171.035 599.609,-169.323 590.368,-164.141 589.154,-171.035"/>
</g>
<!-- Node6 -->
<g id="node6" class="node"><title>Node6</title>
<g id="a_node6"><a xlink:href="_socket_8h.html" target="_top" xlink:title="include/Socket.h">
<polygon fill="none" stroke="black" points="423.5,-112.5 423.5,-131.5 512.5,-131.5 512.5,-112.5 423.5,-112.5"/>
<text text-anchor="middle" x="468" y="-119.5" font-family="Helvetica,sans-Serif" font-size="10.00">include/Socket.h</text>
</a>
</g>
</g>
<!-- Node1&#45;&gt;Node6 -->
<g id="edge6" class="edge"><title>Node1&#45;&gt;Node6</title>
<path fill="none" stroke="midnightblue" d="M607.097,-165.436C573.725,-155.255 525.899,-140.664 495.915,-131.516"/>
<polygon fill="midnightblue" stroke="midnightblue" points="606.368,-168.873 616.954,-168.444 608.41,-162.178 606.368,-168.873"/>
</g>
<!-- Node11 -->
<g id="node11" class="node"><title>Node11</title>
<g id="a_node11"><a xlink:href="_global_8h.html" target="_top" xlink:title="include/Global.h">
<polygon fill="none" stroke="black" points="531,-112.5 531,-131.5 617,-131.5 617,-112.5 531,-112.5"/>
<text text-anchor="middle" x="574" y="-119.5" font-family="Helvetica,sans-Serif" font-size="10.00">include/Global.h</text>
</a>
</g>
</g>
<!-- Node1&#45;&gt;Node11 -->
<g id="edge11" class="edge"><title>Node1&#45;&gt;Node11</title>
<path fill="none" stroke="midnightblue" d="M625.41,-162.101C612.632,-152.382 596.387,-140.027 585.615,-131.834"/>
<polygon fill="midnightblue" stroke="midnightblue" points="623.514,-165.056 633.593,-168.324 627.752,-159.484 623.514,-165.056"/>
</g>
<!-- Node12 -->
<g id="node12" class="node"><title>Node12</title>
<g id="a_node12"><a xlink:href="_job_thread_8h.html" target="_top" xlink:title="include/JobThread.h">
<polygon fill="none" stroke="black" points="760,-56.5 760,-75.5 864,-75.5 864,-56.5 760,-56.5"/>
<text text-anchor="middle" x="812" y="-63.5" font-family="Helvetica,sans-Serif" font-size="10.00">include/JobThread.h</text>
</a>
</g>
</g>
<!-- Node1&#45;&gt;Node12 -->
<g id="edge12" class="edge"><title>Node1&#45;&gt;Node12</title>
<path fill="none" stroke="midnightblue" d="M645.85,-157.828C647.496,-143.413 651.995,-124.135 664,-112 678.638,-97.2036 729.806,-83.8281 767.902,-75.577"/>
<polygon fill="midnightblue" stroke="midnightblue" points="642.336,-157.876 645.053,-168.117 649.315,-158.417 642.336,-157.876"/>
</g>
<!-- Node13 -->
<g id="node13" class="node"><title>Node13</title>
<g id="a_node13"><a xlink:href="_pipe_8h.html" target="_top" xlink:title="include/Pipe.h">
<polygon fill="none" stroke="black" points="673,-112.5 673,-131.5 751,-131.5 751,-112.5 673,-112.5"/>
<text text-anchor="middle" x="712" y="-119.5" font-family="Helvetica,sans-Serif" font-size="10.00">include/Pipe.h</text>
</a>
</g>
</g>
<!-- Node1&#45;&gt;Node13 -->
<g id="edge13" class="edge"><title>Node1&#45;&gt;Node13</title>
<path fill="none" stroke="midnightblue" d="M663.835,-161.82C675.838,-152.145 690.972,-139.948 701.039,-131.834"/>
<polygon fill="midnightblue" stroke="midnightblue" points="661.354,-159.324 655.765,-168.324 665.747,-164.774 661.354,-159.324"/>
</g>
<!-- Node14 -->
<g id="node14" class="node"><title>Node14</title>
<g id="a_node14"><a xlink:href="_module_thread_8h.html" target="_top" xlink:title="include/ModuleThread.h">
<polygon fill="none" stroke="black" points="769,-112.5 769,-131.5 889,-131.5 889,-112.5 769,-112.5"/>
<text text-anchor="middle" x="829" y="-119.5" font-family="Helvetica,sans-Serif" font-size="10.00">include/ModuleThread.h</text>
</a>
</g>
</g>
<!-- Node1&#45;&gt;Node14 -->
<g id="edge15" class="edge"><title>Node1&#45;&gt;Node14</title>
<path fill="none" stroke="midnightblue" d="M683.954,-165.568C718.665,-155.381 768.677,-140.703 799.981,-131.516"/>
<polygon fill="midnightblue" stroke="midnightblue" points="682.765,-162.269 674.155,-168.444 684.736,-168.986 682.765,-162.269"/>
</g>
<!-- Node15 -->
<g id="node15" class="node"><title>Node15</title>
<g id="a_node15"><a xlink:href="_sub_module_loader_8h.html" target="_top" xlink:title="include/SubModuleLoader.h">
<polygon fill="none" stroke="black" points="907.5,-112.5 907.5,-131.5 1044.5,-131.5 1044.5,-112.5 907.5,-112.5"/>
<text text-anchor="middle" x="976" y="-119.5" font-family="Helvetica,sans-Serif" font-size="10.00">include/SubModuleLoader.h</text>
</a>
</g>
</g>
<!-- Node1&#45;&gt;Node15 -->
<g id="edge16" class="edge"><title>Node1&#45;&gt;Node15</title>
<path fill="none" stroke="midnightblue" d="M700.361,-167.968C762.62,-157.811 862.961,-141.441 923.867,-131.505"/>
<polygon fill="midnightblue" stroke="midnightblue" points="699.636,-164.54 690.33,-169.605 700.763,-171.449 699.636,-164.54"/>
</g>
<!-- Node16 -->
<g id="node16" class="node"><title>Node16</title>
<g id="a_node16"><a xlink:href="_trigger_event_8h.html" target="_top" xlink:title="include/TriggerEvent.h">
<polygon fill="none" stroke="black" points="1063,-112.5 1063,-131.5 1177,-131.5 1177,-112.5 1063,-112.5"/>
<text text-anchor="middle" x="1120" y="-119.5" font-family="Helvetica,sans-Serif" font-size="10.00">include/TriggerEvent.h</text>
</a>
</g>
</g>
<!-- Node1&#45;&gt;Node16 -->
<g id="edge17" class="edge"><title>Node1&#45;&gt;Node16</title>
<path fill="none" stroke="midnightblue" d="M700.155,-171.335C778.611,-163.183 926.915,-147.419 1053,-132 1056.26,-131.601 1059.61,-131.182 1062.99,-130.751"/>
<polygon fill="midnightblue" stroke="midnightblue" points="699.604,-167.874 690.019,-172.387 700.326,-174.836 699.604,-167.874"/>
</g>
<!-- Node3 -->
<g id="node3" class="node"><title>Node3</title>
<g id="a_node3"><a xlink:href="_backoff_timer_8h.html" target="_top" xlink:title="include/BackoffTimer.h">
<polygon fill="none" stroke="black" points="-0.5,-56.5 -0.5,-75.5 116.5,-75.5 116.5,-56.5 -0.5,-56.5"/>
<text text-anchor="middle" x="58" y="-63.5" font-family="Helvetica,sans-Serif" font-size="10.00">include/BackoffTimer.h</text>
</a>
</g>
</g>
<!-- Node2&#45;&gt;Node3 -->
<g id="edge2" class="edge"><title>Node2&#45;&gt;Node3</title>
<path fill="none" stroke="midnightblue" d="M76.6577,-102.983C71.905,-93.8168 66.3441,-83.0922 62.5376,-75.7511"/>
<polygon fill="midnightblue" stroke="midnightblue" points="73.666,-104.817 81.3764,-112.083 79.8803,-101.594 73.666,-104.817"/>
</g>
<!-- Node4 -->
<g id="node4" class="node"><title>Node4</title>
<g id="a_node4"><a xlink:href="_postgres_8h.html" target="_top" xlink:title="include/Postgres.h">
<polygon fill="none" stroke="black" points="72,-0.5 72,-19.5 170,-19.5 170,-0.5 72,-0.5"/>
<text text-anchor="middle" x="121" y="-7.5" font-family="Helvetica,sans-Serif" font-size="10.00">include/Postgres.h</text>
</a>
</g>
</g>
<!-- Node3&#45;&gt;Node4 -->
<g id="edge3" class="edge"><title>Node3&#45;&gt;Node4</title>
<path fill="none" stroke="midnightblue" d="M76.0399,-49.5372C87.2731,-39.9087 101.319,-27.8694 110.694,-19.8339"/>
<polygon fill="midnightblue" stroke="midnightblue" points="73.4368,-47.1586 68.122,-56.324 77.9924,-52.4734 73.4368,-47.1586"/>
</g>
<!-- Node5&#45;&gt;Node4 -->
<g id="edge5" class="edge"><title>Node5&#45;&gt;Node4</title>
<path fill="none" stroke="midnightblue" d="M167.009,-49.8197C155.542,-40.1452 141.087,-27.9481 131.47,-19.8339"/>
<polygon fill="midnightblue" stroke="midnightblue" points="164.817,-52.5502 174.717,-56.324 169.331,-47.2002 164.817,-52.5502"/>
</g>
<!-- Node7 -->
<g id="node7" class="node"><title>Node7</title>
<g id="a_node7"><a xlink:href="_d_n_s_8h.html" target="_top" xlink:title="include/DNS.h">
<polygon fill="none" stroke="black" points="254,-56.5 254,-75.5 334,-75.5 334,-56.5 254,-56.5"/>
<text text-anchor="middle" x="294" y="-63.5" font-family="Helvetica,sans-Serif" font-size="10.00">include/DNS.h</text>
</a>
</g>
</g>
<!-- Node6&#45;&gt;Node7 -->
<g id="edge7" class="edge"><title>Node6&#45;&gt;Node7</title>
<path fill="none" stroke="midnightblue" d="M430.739,-109.436C397.933,-99.2551 350.917,-84.664 321.442,-75.5164"/>
<polygon fill="midnightblue" stroke="midnightblue" points="429.841,-112.822 440.429,-112.444 431.916,-106.137 429.841,-112.822"/>
</g>
<!-- Node8 -->
<g id="node8" class="node"><title>Node8</title>
<g id="a_node8"><a xlink:href="_listener_8h.html" target="_top" xlink:title="include/Listener.h">
<polygon fill="none" stroke="black" points="352.5,-56.5 352.5,-75.5 445.5,-75.5 445.5,-56.5 352.5,-56.5"/>
<text text-anchor="middle" x="399" y="-63.5" font-family="Helvetica,sans-Serif" font-size="10.00">include/Listener.h</text>
</a>
</g>
</g>
<!-- Node6&#45;&gt;Node8 -->
<g id="edge8" class="edge"><title>Node6&#45;&gt;Node8</title>
<path fill="none" stroke="midnightblue" d="M448.962,-106.101C436.544,-96.3824 420.757,-84.0269 410.288,-75.8339"/>
<polygon fill="midnightblue" stroke="midnightblue" points="446.882,-108.917 456.914,-112.324 451.196,-103.405 446.882,-108.917"/>
</g>
<!-- Node9 -->
<g id="node9" class="node"><title>Node9</title>
<g id="a_node9"><a xlink:href="_simple_h_t_t_p_socket_8h.html" target="_top" xlink:title="include/SimpleHTTPSocket.h">
<polygon fill="none" stroke="black" points="464,-56.5 464,-75.5 610,-75.5 610,-56.5 464,-56.5"/>
<text text-anchor="middle" x="537" y="-63.5" font-family="Helvetica,sans-Serif" font-size="10.00">include/SimpleHTTPSocket.h</text>
</a>
</g>
</g>
<!-- Node6&#45;&gt;Node9 -->
<g id="edge9" class="edge"><title>Node6&#45;&gt;Node9</title>
<path fill="none" stroke="midnightblue" d="M487.038,-106.101C499.456,-96.3824 515.243,-84.0269 525.712,-75.8339"/>
<polygon fill="midnightblue" stroke="midnightblue" points="484.804,-103.405 479.086,-112.324 489.118,-108.917 484.804,-103.405"/>
</g>
<!-- Node10 -->
<g id="node10" class="node"><title>Node10</title>
<g id="a_node10"><a xlink:href="_statsd_client_8h.html" target="_top" xlink:title="include/StatsdClient.h">
<polygon fill="none" stroke="black" points="628.5,-56.5 628.5,-75.5 741.5,-75.5 741.5,-56.5 628.5,-56.5"/>
<text text-anchor="middle" x="685" y="-63.5" font-family="Helvetica,sans-Serif" font-size="10.00">include/StatsdClient.h</text>
</a>
</g>
</g>
<!-- Node6&#45;&gt;Node10 -->
<g id="edge10" class="edge"><title>Node6&#45;&gt;Node10</title>
<path fill="none" stroke="midnightblue" d="M512.108,-110.024C553.1,-99.8232 613.304,-84.8414 650.777,-75.5164"/>
<polygon fill="midnightblue" stroke="midnightblue" points="511.243,-106.632 502.384,-112.444 512.934,-113.425 511.243,-106.632"/>
</g>
<!-- Node13&#45;&gt;Node12 -->
<g id="edge14" class="edge"><title>Node13&#45;&gt;Node12</title>
<path fill="none" stroke="midnightblue" d="M737.088,-107.453C755.549,-97.4835 780.097,-84.2279 795.973,-75.6545"/>
<polygon fill="midnightblue" stroke="midnightblue" points="735.203,-104.493 728.067,-112.324 738.529,-110.652 735.203,-104.493"/>
</g>
</g>
</svg>
