<?xml version="1.0" encoding="UTF-8" standalone="no"?>
<!DOCTYPE svg PUBLIC "-//W3C//DTD SVG 1.1//EN"
 "http://www.w3.org/Graphics/SVG/1.1/DTD/svg11.dtd">
<!-- Generated by graphviz version 2.34.0 (20140110.0949)
 -->
<!-- Title: include/Pipe.h Pages: 1 -->
<svg width="1374pt" height="252pt"
 viewBox="0.00 0.00 1374.30 252.00" xmlns="http://www.w3.org/2000/svg" xmlns:xlink="http://www.w3.org/1999/xlink">
<g id="graph0" class="graph" transform="scale(1 1) rotate(0) translate(4 248)">
<title>include/Pipe.h</title>
<!-- Node1 -->
<g id="node1" class="node"><title>Node1</title>
<polygon fill="#bfbfbf" stroke="black" points="823,-224.5 823,-243.5 901,-243.5 901,-224.5 823,-224.5"/>
<text text-anchor="middle" x="862" y="-231.5" font-family="Helvetica,sans-Serif" font-size="10.00">include/Pipe.h</text>
</g>
<!-- Node2 -->
<g id="node2" class="node"><title>Node2</title>
<polygon fill="none" stroke="#bfbfbf" points="1254.5,-56.5 1254.5,-75.5 1335.5,-75.5 1335.5,-56.5 1254.5,-56.5"/>
<text text-anchor="middle" x="1295" y="-63.5" font-family="Helvetica,sans-Serif" font-size="10.00">event2/event.h</text>
</g>
<!-- Node1&#45;&gt;Node2 -->
<g id="edge1" class="edge"><title>Node1&#45;&gt;Node2</title>
<path fill="none" stroke="midnightblue" d="M901.242,-231.578C1009.42,-226.717 1307.5,-206.659 1362,-132 1376.76,-111.777 1349.31,-92.2899 1325.21,-80.0156"/>
<polygon fill="midnightblue" stroke="midnightblue" points="1326.43,-76.7166 1315.9,-75.5241 1323.39,-83.0214 1326.43,-76.7166"/>
</g>
<!-- Node3 -->
<g id="node3" class="node"><title>Node3</title>
<g id="a_node3"><a xlink:href="defines_8h.html" target="_top" xlink:title="defines.h">
<polygon fill="none" stroke="black" points="0,-56.5 0,-75.5 56,-75.5 56,-56.5 0,-56.5"/>
<text text-anchor="middle" x="28" y="-63.5" font-family="Helvetica,sans-Serif" font-size="10.00">defines.h</text>
</a>
</g>
</g>
<!-- Node1&#45;&gt;Node3 -->
<g id="edge2" class="edge"><title>Node1&#45;&gt;Node3</title>
<path fill="none" stroke="midnightblue" d="M822.898,-231.2C665.502,-223.567 84.1298,-191.498 30,-132 18.86,-119.755 19.8249,-100.214 22.6828,-85.751"/>
<polygon fill="midnightblue" stroke="midnightblue" points="26.1198,-86.4287 25.0682,-75.8862 19.3158,-84.7834 26.1198,-86.4287"/>
</g>
<!-- Node4 -->
<g id="node4" class="node"><title>Node4</title>
<g id="a_node4"><a xlink:href="_files_8h.html" target="_top" xlink:title="Files.h">
<polygon fill="none" stroke="black" points="484,-168.5 484,-187.5 530,-187.5 530,-168.5 484,-168.5"/>
<text text-anchor="middle" x="507" y="-175.5" font-family="Helvetica,sans-Serif" font-size="10.00">Files.h</text>
</a>
</g>
</g>
<!-- Node1&#45;&gt;Node4 -->
<g id="edge3" class="edge"><title>Node1&#45;&gt;Node4</title>
<path fill="none" stroke="midnightblue" d="M822.993,-227.067C752.869,-216.4 606.679,-194.162 540.651,-184.119"/>
<polygon fill="midnightblue" stroke="midnightblue" points="540.809,-180.603 530.396,-182.559 539.756,-187.523 540.809,-180.603"/>
</g>
<!-- Node16 -->
<g id="node16" class="node"><title>Node16</title>
<g id="a_node16"><a xlink:href="_writer_8h.html" target="_top" xlink:title="Writer.h">
<polygon fill="none" stroke="black" points="706.5,-112.5 706.5,-131.5 757.5,-131.5 757.5,-112.5 706.5,-112.5"/>
<text text-anchor="middle" x="732" y="-119.5" font-family="Helvetica,sans-Serif" font-size="10.00">Writer.h</text>
</a>
</g>
</g>
<!-- Node1&#45;&gt;Node16 -->
<g id="edge20" class="edge"><title>Node1&#45;&gt;Node16</title>
<path fill="none" stroke="midnightblue" d="M851.799,-224.368C829.776,-205.733 777.538,-161.532 749.885,-138.134"/>
<polygon fill="midnightblue" stroke="midnightblue" points="752.048,-135.379 742.153,-131.591 747.527,-140.723 752.048,-135.379"/>
</g>
<!-- Node18 -->
<g id="node18" class="node"><title>Node18</title>
<g id="a_node18"><a xlink:href="_module_8h.html" target="_top" xlink:title="Module.h">
<polygon fill="none" stroke="black" points="1122,-168.5 1122,-187.5 1178,-187.5 1178,-168.5 1122,-168.5"/>
<text text-anchor="middle" x="1150" y="-175.5" font-family="Helvetica,sans-Serif" font-size="10.00">Module.h</text>
</a>
</g>
</g>
<!-- Node1&#45;&gt;Node18 -->
<g id="edge21" class="edge"><title>Node1&#45;&gt;Node18</title>
<path fill="none" stroke="midnightblue" d="M901.141,-225.661C956.479,-215.285 1056.94,-196.448 1111.78,-186.167"/>
<polygon fill="midnightblue" stroke="midnightblue" points="1112.6,-189.573 1121.79,-184.29 1111.31,-182.693 1112.6,-189.573"/>
</g>
<!-- Node23 -->
<g id="node23" class="node"><title>Node23</title>
<g id="a_node23"><a xlink:href="_thread_8h.html" target="_top" xlink:title="Thread.h">
<polygon fill="none" stroke="black" points="896.5,-168.5 896.5,-187.5 951.5,-187.5 951.5,-168.5 896.5,-168.5"/>
<text text-anchor="middle" x="924" y="-175.5" font-family="Helvetica,sans-Serif" font-size="10.00">Thread.h</text>
</a>
</g>
</g>
<!-- Node1&#45;&gt;Node23 -->
<g id="edge30" class="edge"><title>Node1&#45;&gt;Node23</title>
<path fill="none" stroke="midnightblue" d="M871.961,-224.324C881.127,-216.341 894.937,-204.313 906.028,-194.653"/>
<polygon fill="midnightblue" stroke="midnightblue" points="908.615,-197.041 913.857,-187.834 904.018,-191.762 908.615,-197.041"/>
</g>
<!-- Node4&#45;&gt;Node3 -->
<g id="edge12" class="edge"><title>Node4&#45;&gt;Node3</title>
<path fill="none" stroke="midnightblue" d="M483.984,-176.241C395.563,-173.124 80.9438,-160.127 47,-132 33.5821,-120.881 29.3324,-100.849 28.1325,-85.9509"/>
<polygon fill="midnightblue" stroke="midnightblue" points="31.6225,-85.6375 27.708,-75.7923 24.6286,-85.9298 31.6225,-85.6375"/>
</g>
<!-- Node5 -->
<g id="node5" class="node"><title>Node5</title>
<polygon fill="none" stroke="#bfbfbf" points="138,-112.5 138,-131.5 244,-131.5 244,-112.5 138,-112.5"/>
<text text-anchor="middle" x="191" y="-119.5" font-family="Helvetica,sans-Serif" font-size="10.00">event2/bufferevent.h</text>
</g>
<!-- Node4&#45;&gt;Node5 -->
<g id="edge4" class="edge"><title>Node4&#45;&gt;Node5</title>
<path fill="none" stroke="midnightblue" d="M483.764,-173.029C435.197,-164.73 321.607,-145.319 251.052,-133.262"/>
<polygon fill="midnightblue" stroke="midnightblue" points="251.414,-129.773 240.967,-131.539 250.234,-136.673 251.414,-129.773"/>
</g>
<!-- Node6 -->
<g id="node6" class="node"><title>Node6</title>
<polygon fill="none" stroke="#bfbfbf" points="262.5,-112.5 262.5,-131.5 313.5,-131.5 313.5,-112.5 262.5,-112.5"/>
<text text-anchor="middle" x="288" y="-119.5" font-family="Helvetica,sans-Serif" font-size="10.00">unistd.h</text>
</g>
<!-- Node4&#45;&gt;Node6 -->
<g id="edge5" class="edge"><title>Node4&#45;&gt;Node6</title>
<path fill="none" stroke="midnightblue" d="M483.741,-171.405C450.515,-163.392 387.304,-148.074 323.442,-132.088"/>
<polygon fill="midnightblue" stroke="midnightblue" points="324.156,-128.659 313.605,-129.621 322.454,-135.449 324.156,-128.659"/>
</g>
<!-- Node7 -->
<g id="node7" class="node"><title>Node7</title>
<polygon fill="none" stroke="#bfbfbf" points="332,-112.5 332,-131.5 380,-131.5 380,-112.5 332,-112.5"/>
<text text-anchor="middle" x="356" y="-119.5" font-family="Helvetica,sans-Serif" font-size="10.00">stdlib.h</text>
</g>
<!-- Node4&#45;&gt;Node7 -->
<g id="edge6" class="edge"><title>Node4&#45;&gt;Node7</title>
<path fill="none" stroke="midnightblue" d="M483.737,-168.681C458.502,-159.656 417.996,-145.171 389.372,-134.934"/>
<polygon fill="midnightblue" stroke="midnightblue" points="390.382,-131.579 379.788,-131.507 388.025,-138.17 390.382,-131.579"/>
</g>
<!-- Node8 -->
<g id="node8" class="node"><title>Node8</title>
<polygon fill="none" stroke="#bfbfbf" points="398,-112.5 398,-131.5 458,-131.5 458,-112.5 398,-112.5"/>
<text text-anchor="middle" x="428" y="-119.5" font-family="Helvetica,sans-Serif" font-size="10.00">sys/stat.h</text>
</g>
<!-- Node4&#45;&gt;Node8 -->
<g id="edge7" class="edge"><title>Node4&#45;&gt;Node8</title>
<path fill="none" stroke="midnightblue" d="M494.307,-168.324C482.099,-159.979 463.422,-147.212 448.997,-137.352"/>
<polygon fill="midnightblue" stroke="midnightblue" points="450.892,-134.408 440.661,-131.655 446.942,-140.187 450.892,-134.408"/>
</g>
<!-- Node9 -->
<g id="node9" class="node"><title>Node9</title>
<polygon fill="none" stroke="#bfbfbf" points="476,-112.5 476,-131.5 538,-131.5 538,-112.5 476,-112.5"/>
<text text-anchor="middle" x="507" y="-119.5" font-family="Helvetica,sans-Serif" font-size="10.00">sys/fcntl.h</text>
</g>
<!-- Node4&#45;&gt;Node9 -->
<g id="edge8" class="edge"><title>Node4&#45;&gt;Node9</title>
<path fill="none" stroke="midnightblue" d="M507,-168.083C507,-161.006 507,-150.861 507,-141.986"/>
<polygon fill="midnightblue" stroke="midnightblue" points="510.5,-141.751 507,-131.751 503.5,-141.751 510.5,-141.751"/>
</g>
<!-- Node10 -->
<g id="node10" class="node"><title>Node10</title>
<polygon fill="none" stroke="#bfbfbf" points="556,-112.5 556,-131.5 626,-131.5 626,-112.5 556,-112.5"/>
<text text-anchor="middle" x="591" y="-119.5" font-family="Helvetica,sans-Serif" font-size="10.00">sys/inotify.h</text>
</g>
<!-- Node4&#45;&gt;Node10 -->
<g id="edge9" class="edge"><title>Node4&#45;&gt;Node10</title>
<path fill="none" stroke="midnightblue" d="M520.496,-168.324C533.6,-159.9 553.712,-146.971 569.107,-137.074"/>
<polygon fill="midnightblue" stroke="midnightblue" points="571.018,-140.006 577.537,-131.655 567.233,-134.118 571.018,-140.006"/>
</g>
<!-- Node11 -->
<g id="node11" class="node"><title>Node11</title>
<polygon fill="none" stroke="#bfbfbf" points="644,-112.5 644,-131.5 688,-131.5 688,-112.5 644,-112.5"/>
<text text-anchor="middle" x="666" y="-119.5" font-family="Helvetica,sans-Serif" font-size="10.00">vector</text>
</g>
<!-- Node4&#45;&gt;Node11 -->
<g id="edge10" class="edge"><title>Node4&#45;&gt;Node11</title>
<path fill="none" stroke="midnightblue" d="M530.12,-169.148C557.513,-159.845 603.306,-144.292 634.069,-133.844"/>
<polygon fill="midnightblue" stroke="midnightblue" points="635.534,-137.043 643.877,-130.513 633.283,-130.415 635.534,-137.043"/>
</g>
<!-- Node12 -->
<g id="node12" class="node"><title>Node12</title>
<polygon fill="none" stroke="#bfbfbf" points="814.5,-112.5 814.5,-131.5 849.5,-131.5 849.5,-112.5 814.5,-112.5"/>
<text text-anchor="middle" x="832" y="-119.5" font-family="Helvetica,sans-Serif" font-size="10.00">map</text>
</g>
<!-- Node4&#45;&gt;Node12 -->
<g id="edge11" class="edge"><title>Node4&#45;&gt;Node12</title>
<path fill="none" stroke="midnightblue" d="M530.346,-174.395C580.209,-168.616 700.661,-153.514 800,-132 801.481,-131.679 802.994,-131.33 804.518,-130.961"/>
<polygon fill="midnightblue" stroke="midnightblue" points="805.709,-134.266 814.491,-128.339 803.93,-127.496 805.709,-134.266"/>
</g>
<!-- Node13 -->
<g id="node13" class="node"><title>Node13</title>
<g id="a_node13"><a xlink:href="_closable_8h.html" target="_top" xlink:title="Closable.h">
<polygon fill="none" stroke="black" points="56.5,-112.5 56.5,-131.5 119.5,-131.5 119.5,-112.5 56.5,-112.5"/>
<text text-anchor="middle" x="88" y="-119.5" font-family="Helvetica,sans-Serif" font-size="10.00">Closable.h</text>
</a>
</g>
</g>
<!-- Node4&#45;&gt;Node13 -->
<g id="edge13" class="edge"><title>Node4&#45;&gt;Node13</title>
<path fill="none" stroke="midnightblue" d="M483.877,-175.04C426.009,-169.966 270.129,-155.27 129.8,-131.976"/>
<polygon fill="midnightblue" stroke="midnightblue" points="130.166,-128.489 119.724,-130.284 129.007,-135.392 130.166,-128.489"/>
</g>
<!-- Node14 -->
<g id="node14" class="node"><title>Node14</title>
<g id="a_node14"><a xlink:href="_string_8h.html" target="_top" xlink:title="String.h">
<polygon fill="none" stroke="black" points="860,-56.5 860,-75.5 910,-75.5 910,-56.5 860,-56.5"/>
<text text-anchor="middle" x="885" y="-63.5" font-family="Helvetica,sans-Serif" font-size="10.00">String.h</text>
</a>
</g>
</g>
<!-- Node4&#45;&gt;Node14 -->
<g id="edge14" class="edge"><title>Node4&#45;&gt;Node14</title>
<path fill="none" stroke="midnightblue" d="M530.151,-175.524C576.228,-172.038 682.196,-161.266 766,-132 775.861,-128.556 829.245,-98.6458 861.066,-80.6217"/>
<polygon fill="midnightblue" stroke="midnightblue" points="862.825,-83.6474 869.796,-75.6684 859.371,-77.5591 862.825,-83.6474"/>
</g>
<!-- Node4&#45;&gt;Node16 -->
<g id="edge16" class="edge"><title>Node4&#45;&gt;Node16</title>
<path fill="none" stroke="midnightblue" d="M530.14,-171.67C564.273,-163.775 630.362,-148.367 696.626,-132.055"/>
<polygon fill="midnightblue" stroke="midnightblue" points="697.53,-135.437 706.4,-129.643 695.853,-128.641 697.53,-135.437"/>
</g>
<!-- Node15 -->
<g id="node15" class="node"><title>Node15</title>
<polygon fill="none" stroke="#bfbfbf" points="864.5,-0.5 864.5,-19.5 905.5,-19.5 905.5,-0.5 864.5,-0.5"/>
<text text-anchor="middle" x="885" y="-7.5" font-family="Helvetica,sans-Serif" font-size="10.00">string</text>
</g>
<!-- Node14&#45;&gt;Node15 -->
<g id="edge15" class="edge"><title>Node14&#45;&gt;Node15</title>
<path fill="none" stroke="midnightblue" d="M885,-56.083C885,-49.0059 885,-38.8611 885,-29.9865"/>
<polygon fill="midnightblue" stroke="midnightblue" points="888.5,-29.751 885,-19.7511 881.5,-29.7511 888.5,-29.751"/>
</g>
<!-- Node16&#45;&gt;Node3 -->
<g id="edge17" class="edge"><title>Node16&#45;&gt;Node3</title>
<path fill="none" stroke="midnightblue" d="M706.119,-113.777C703.062,-113.093 699.973,-112.478 697,-112 459.452,-73.8044 169.4,-67.9516 66.4667,-67.1141"/>
<polygon fill="midnightblue" stroke="midnightblue" points="66.2763,-63.6128 56.2521,-67.0429 66.2274,-70.6127 66.2763,-63.6128"/>
</g>
<!-- Node16&#45;&gt;Node14 -->
<g id="edge18" class="edge"><title>Node16&#45;&gt;Node14</title>
<path fill="none" stroke="midnightblue" d="M756.243,-112.444C781.871,-103.399 822.485,-89.064 851.238,-78.9158"/>
<polygon fill="midnightblue" stroke="midnightblue" points="852.605,-82.1452 860.87,-75.5164 850.275,-75.5442 852.605,-82.1452"/>
</g>
<!-- Node17 -->
<g id="node17" class="node"><title>Node17</title>
<g id="a_node17"><a xlink:href="_should_delete_8h.html" target="_top" xlink:title="ShouldDelete.h">
<polygon fill="none" stroke="black" points="690.5,-56.5 690.5,-75.5 773.5,-75.5 773.5,-56.5 690.5,-56.5"/>
<text text-anchor="middle" x="732" y="-63.5" font-family="Helvetica,sans-Serif" font-size="10.00">ShouldDelete.h</text>
</a>
</g>
</g>
<!-- Node16&#45;&gt;Node17 -->
<g id="edge19" class="edge"><title>Node16&#45;&gt;Node17</title>
<path fill="none" stroke="midnightblue" d="M732,-112.083C732,-105.006 732,-94.8611 732,-85.9865"/>
<polygon fill="midnightblue" stroke="midnightblue" points="735.5,-85.751 732,-75.7511 728.5,-85.7511 735.5,-85.751"/>
</g>
<!-- Node18&#45;&gt;Node2 -->
<g id="edge23" class="edge"><title>Node18&#45;&gt;Node2</title>
<path fill="none" stroke="midnightblue" d="M1178.01,-174.149C1206.27,-169.807 1249.29,-158.952 1275,-132 1286.83,-119.597 1291.68,-100.355 1293.65,-86.0215"/>
<polygon fill="midnightblue" stroke="midnightblue" points="1297.16,-86.1077 1294.7,-75.8025 1290.2,-85.3928 1297.16,-86.1077"/>
</g>
<!-- Node18&#45;&gt;Node14 -->
<g id="edge26" class="edge"><title>Node18&#45;&gt;Node14</title>
<path fill="none" stroke="midnightblue" d="M1137.55,-168.328C1117.57,-154.729 1076.73,-128.267 1039,-112 999.703,-95.0592 952.109,-82.2448 920.329,-74.7053"/>
<polygon fill="midnightblue" stroke="midnightblue" points="920.725,-71.2043 910.193,-72.3523 919.142,-78.023 920.725,-71.2043"/>
</g>
<!-- Node19 -->
<g id="node19" class="node"><title>Node19</title>
<polygon fill="none" stroke="#bfbfbf" points="1087.5,-56.5 1087.5,-75.5 1160.5,-75.5 1160.5,-56.5 1087.5,-56.5"/>
<text text-anchor="middle" x="1124" y="-63.5" font-family="Helvetica,sans-Serif" font-size="10.00">event2/dns.h</text>
</g>
<!-- Node18&#45;&gt;Node19 -->
<g id="edge22" class="edge"><title>Node18&#45;&gt;Node19</title>
<path fill="none" stroke="midnightblue" d="M1140.71,-168.395C1132.42,-160.025 1120.86,-146.483 1116,-132 1110.92,-116.841 1113.83,-98.7222 1117.49,-85.4699"/>
<polygon fill="midnightblue" stroke="midnightblue" points="1120.92,-86.2439 1120.58,-75.6543 1114.24,-84.1415 1120.92,-86.2439"/>
</g>
<!-- Node20 -->
<g id="node20" class="node"><title>Node20</title>
<polygon fill="none" stroke="#bfbfbf" points="1193.5,-112.5 1193.5,-131.5 1266.5,-131.5 1266.5,-112.5 1193.5,-112.5"/>
<text text-anchor="middle" x="1230" y="-119.5" font-family="Helvetica,sans-Serif" font-size="10.00">libconfig.h++</text>
</g>
<!-- Node18&#45;&gt;Node20 -->
<g id="edge24" class="edge"><title>Node18&#45;&gt;Node20</title>
<path fill="none" stroke="midnightblue" d="M1162.85,-168.324C1175.22,-159.979 1194.13,-147.212 1208.74,-137.352"/>
<polygon fill="midnightblue" stroke="midnightblue" points="1210.85,-140.15 1217.18,-131.655 1206.93,-134.348 1210.85,-140.15"/>
</g>
<!-- Node21 -->
<g id="node21" class="node"><title>Node21</title>
<polygon fill="none" stroke="#bfbfbf" points="1323,-112.5 1323,-131.5 1353,-131.5 1353,-112.5 1323,-112.5"/>
<text text-anchor="middle" x="1338" y="-119.5" font-family="Helvetica,sans-Serif" font-size="10.00">set</text>
</g>
<!-- Node18&#45;&gt;Node21 -->
<g id="edge25" class="edge"><title>Node18&#45;&gt;Node21</title>
<path fill="none" stroke="midnightblue" d="M1178.21,-169.247C1210.04,-160.444 1263.34,-145.543 1309,-132 1310.42,-131.578 1311.88,-131.141 1313.35,-130.696"/>
<polygon fill="midnightblue" stroke="midnightblue" points="1314.44,-134.024 1322.97,-127.743 1312.38,-127.332 1314.44,-134.024"/>
</g>
<!-- Node22 -->
<g id="node22" class="node"><title>Node22</title>
<g id="a_node22"><a xlink:href="_event_8h.html" target="_top" xlink:title="Event.h">
<polygon fill="none" stroke="black" points="1125,-112.5 1125,-131.5 1175,-131.5 1175,-112.5 1125,-112.5"/>
<text text-anchor="middle" x="1150" y="-119.5" font-family="Helvetica,sans-Serif" font-size="10.00">Event.h</text>
</a>
</g>
</g>
<!-- Node18&#45;&gt;Node22 -->
<g id="edge27" class="edge"><title>Node18&#45;&gt;Node22</title>
<path fill="none" stroke="midnightblue" d="M1150,-168.083C1150,-161.006 1150,-150.861 1150,-141.986"/>
<polygon fill="midnightblue" stroke="midnightblue" points="1153.5,-141.751 1150,-131.751 1146.5,-141.751 1153.5,-141.751"/>
</g>
<!-- Node22&#45;&gt;Node2 -->
<g id="edge29" class="edge"><title>Node22&#45;&gt;Node2</title>
<path fill="none" stroke="midnightblue" d="M1172.98,-112.444C1197.16,-103.438 1235.42,-89.1891 1262.65,-79.049"/>
<polygon fill="midnightblue" stroke="midnightblue" points="1263.98,-82.2864 1272.13,-75.5164 1261.54,-75.7265 1263.98,-82.2864"/>
</g>
<!-- Node22&#45;&gt;Node19 -->
<g id="edge28" class="edge"><title>Node22&#45;&gt;Node19</title>
<path fill="none" stroke="midnightblue" d="M1145.71,-112.083C1142.15,-104.691 1136.98,-93.9533 1132.58,-84.8111"/>
<polygon fill="midnightblue" stroke="midnightblue" points="1135.71,-83.2427 1128.21,-75.7511 1129.4,-86.2795 1135.71,-83.2427"/>
</g>
<!-- Node23&#45;&gt;Node12 -->
<g id="edge31" class="edge"><title>Node23&#45;&gt;Node12</title>
<path fill="none" stroke="midnightblue" d="M909.219,-168.324C894.733,-159.822 872.427,-146.729 855.507,-136.797"/>
<polygon fill="midnightblue" stroke="midnightblue" points="857.141,-133.698 846.745,-131.655 853.597,-139.735 857.141,-133.698"/>
</g>
<!-- Node23&#45;&gt;Node14 -->
<g id="edge34" class="edge"><title>Node23&#45;&gt;Node14</title>
<path fill="none" stroke="midnightblue" d="M928.064,-168.19C933.391,-155.307 941.152,-130.816 933,-112 927.732,-99.8399 917.38,-89.4594 907.635,-81.7429"/>
<polygon fill="midnightblue" stroke="midnightblue" points="909.501,-78.7707 899.37,-75.6698 905.356,-84.4116 909.501,-78.7707"/>
</g>
<!-- Node23&#45;&gt;Node22 -->
<g id="edge35" class="edge"><title>Node23&#45;&gt;Node22</title>
<path fill="none" stroke="midnightblue" d="M951.712,-170.379C992.828,-160.554 1069.96,-142.125 1114.95,-131.376"/>
<polygon fill="midnightblue" stroke="midnightblue" points="1115.93,-134.739 1124.84,-129.011 1114.3,-127.931 1115.93,-134.739"/>
</g>
<!-- Node24 -->
<g id="node24" class="node"><title>Node24</title>
<polygon fill="none" stroke="#bfbfbf" points="981.5,-112.5 981.5,-131.5 1030.5,-131.5 1030.5,-112.5 981.5,-112.5"/>
<text text-anchor="middle" x="1006" y="-119.5" font-family="Helvetica,sans-Serif" font-size="10.00">stdint.h</text>
</g>
<!-- Node23&#45;&gt;Node24 -->
<g id="edge32" class="edge"><title>Node23&#45;&gt;Node24</title>
<path fill="none" stroke="midnightblue" d="M937.175,-168.324C949.847,-159.979 969.233,-147.212 984.206,-137.352"/>
<polygon fill="midnightblue" stroke="midnightblue" points="986.431,-140.078 992.858,-131.655 982.581,-134.231 986.431,-140.078"/>
</g>
<!-- Node25 -->
<g id="node25" class="node"><title>Node25</title>
<polygon fill="none" stroke="#bfbfbf" points="867.5,-112.5 867.5,-131.5 924.5,-131.5 924.5,-112.5 867.5,-112.5"/>
<text text-anchor="middle" x="896" y="-119.5" font-family="Helvetica,sans-Serif" font-size="10.00">pthread.h</text>
</g>
<!-- Node23&#45;&gt;Node25 -->
<g id="edge33" class="edge"><title>Node23&#45;&gt;Node25</title>
<path fill="none" stroke="midnightblue" d="M919.376,-168.083C915.544,-160.691 909.976,-149.953 905.235,-140.811"/>
<polygon fill="midnightblue" stroke="midnightblue" points="908.248,-139.018 900.538,-131.751 902.034,-142.24 908.248,-139.018"/>
</g>
</g>
</svg>
