<?xml version="1.0" encoding="UTF-8" standalone="no"?>
<!DOCTYPE svg PUBLIC "-//W3C//DTD SVG 1.1//EN"
 "http://www.w3.org/Graphics/SVG/1.1/DTD/svg11.dtd">
<!-- Generated by graphviz version 2.34.0 (20140110.0949)
 -->
<!-- Title: include/Pipe.h Pages: 1 -->
<svg width="1379pt" height="252pt"
 viewBox="0.00 0.00 1379.00 252.00" xmlns="http://www.w3.org/2000/svg" xmlns:xlink="http://www.w3.org/1999/xlink">
<g id="graph0" class="graph" transform="scale(1 1) rotate(0) translate(4 248)">
<title>include/Pipe.h</title>
<!-- Node1 -->
<g id="node1" class="node"><title>Node1</title>
<polygon fill="#bfbfbf" stroke="black" points="585,-224.5 585,-243.5 663,-243.5 663,-224.5 585,-224.5"/>
<text text-anchor="middle" x="624" y="-231.5" font-family="Helvetica,sans-Serif" font-size="10.00">include/Pipe.h</text>
</g>
<!-- Node2 -->
<g id="node2" class="node"><title>Node2</title>
<polygon fill="none" stroke="#bfbfbf" points="-0.5,-56.5 -0.5,-75.5 80.5,-75.5 80.5,-56.5 -0.5,-56.5"/>
<text text-anchor="middle" x="40" y="-63.5" font-family="Helvetica,sans-Serif" font-size="10.00">event2/event.h</text>
</g>
<!-- Node1&#45;&gt;Node2 -->
<g id="edge1" class="edge"><title>Node1&#45;&gt;Node2</title>
<path fill="none" stroke="midnightblue" d="M584.725,-233.865C505.638,-234.569 322.26,-230.93 176,-188 123.361,-172.549 102.999,-172.505 66,-132 54.0988,-118.971 47.334,-99.8138 43.7076,-85.6698"/>
<polygon fill="midnightblue" stroke="midnightblue" points="47.0532,-84.5962 41.4339,-75.6144 40.2256,-86.1401 47.0532,-84.5962"/>
</g>
<!-- Node3 -->
<g id="node3" class="node"><title>Node3</title>
<g id="a_node3"><a xlink:href="defines_8h.html" target="_top" xlink:title="defines.h">
<polygon fill="none" stroke="black" points="1315,-56.5 1315,-75.5 1371,-75.5 1371,-56.5 1315,-56.5"/>
<text text-anchor="middle" x="1343" y="-63.5" font-family="Helvetica,sans-Serif" font-size="10.00">defines.h</text>
</a>
</g>
</g>
<!-- Node1&#45;&gt;Node3 -->
<g id="edge2" class="edge"><title>Node1&#45;&gt;Node3</title>
<path fill="none" stroke="midnightblue" d="M663.19,-233.135C796.95,-232.754 1232.52,-224.323 1329,-132 1341.24,-120.287 1344.05,-100.64 1344.21,-86.0064"/>
<polygon fill="midnightblue" stroke="midnightblue" points="1347.7,-85.4865 1343.91,-75.5924 1340.7,-85.6898 1347.7,-85.4865"/>
</g>
<!-- Node4 -->
<g id="node4" class="node"><title>Node4</title>
<g id="a_node4"><a xlink:href="_files_8h.html" target="_top" xlink:title="Files.h">
<polygon fill="none" stroke="black" points="778,-168.5 778,-187.5 824,-187.5 824,-168.5 778,-168.5"/>
<text text-anchor="middle" x="801" y="-175.5" font-family="Helvetica,sans-Serif" font-size="10.00">Files.h</text>
</a>
</g>
</g>
<!-- Node1&#45;&gt;Node4 -->
<g id="edge3" class="edge"><title>Node1&#45;&gt;Node4</title>
<path fill="none" stroke="midnightblue" d="M652.046,-224.444C683.584,-214.822 734.741,-199.215 768.129,-189.028"/>
<polygon fill="midnightblue" stroke="midnightblue" points="769.336,-192.32 777.88,-186.054 767.293,-185.624 769.336,-192.32"/>
</g>
<!-- Node17 -->
<g id="node17" class="node"><title>Node17</title>
<g id="a_node17"><a xlink:href="_writer_8h.html" target="_top" xlink:title="Writer.h">
<polygon fill="none" stroke="black" points="1246.5,-112.5 1246.5,-131.5 1297.5,-131.5 1297.5,-112.5 1246.5,-112.5"/>
<text text-anchor="middle" x="1272" y="-119.5" font-family="Helvetica,sans-Serif" font-size="10.00">Writer.h</text>
</a>
</g>
</g>
<!-- Node1&#45;&gt;Node17 -->
<g id="edge24" class="edge"><title>Node1&#45;&gt;Node17</title>
<path fill="none" stroke="midnightblue" d="M663.309,-227.753C759.48,-214.654 1014.34,-178.357 1236.56,-131.926"/>
<polygon fill="midnightblue" stroke="midnightblue" points="1237.38,-135.33 1246.45,-129.849 1235.94,-128.48 1237.38,-135.33"/>
</g>
<!-- Node21 -->
<g id="node21" class="node"><title>Node21</title>
<g id="a_node21"><a xlink:href="_module_8h.html" target="_top" xlink:title="Module.h">
<polygon fill="none" stroke="black" points="185,-168.5 185,-187.5 241,-187.5 241,-168.5 185,-168.5"/>
<text text-anchor="middle" x="213" y="-175.5" font-family="Helvetica,sans-Serif" font-size="10.00">Module.h</text>
</a>
</g>
</g>
<!-- Node1&#45;&gt;Node21 -->
<g id="edge25" class="edge"><title>Node1&#45;&gt;Node21</title>
<path fill="none" stroke="midnightblue" d="M584.964,-227.871C506.309,-217.537 329.623,-194.323 251.454,-184.052"/>
<polygon fill="midnightblue" stroke="midnightblue" points="251.469,-180.524 241.099,-182.692 250.557,-187.465 251.469,-180.524"/>
</g>
<!-- Node24 -->
<g id="node24" class="node"><title>Node24</title>
<g id="a_node24"><a xlink:href="_thread_8h.html" target="_top" xlink:title="Thread.h">
<polygon fill="none" stroke="black" points="419.5,-168.5 419.5,-187.5 474.5,-187.5 474.5,-168.5 419.5,-168.5"/>
<text text-anchor="middle" x="447" y="-175.5" font-family="Helvetica,sans-Serif" font-size="10.00">Thread.h</text>
</a>
</g>
</g>
<!-- Node1&#45;&gt;Node24 -->
<g id="edge32" class="edge"><title>Node1&#45;&gt;Node24</title>
<path fill="none" stroke="midnightblue" d="M595.954,-224.444C565.83,-215.253 517.805,-200.602 484.464,-190.43"/>
<polygon fill="midnightblue" stroke="midnightblue" points="485.21,-186.998 474.624,-187.428 483.167,-193.693 485.21,-186.998"/>
</g>
<!-- Node4&#45;&gt;Node3 -->
<g id="edge12" class="edge"><title>Node4&#45;&gt;Node3</title>
<path fill="none" stroke="midnightblue" d="M824.125,-176.192C917.674,-172.757 1265.04,-158.318 1306,-132 1322.53,-121.382 1332.44,-100.614 1337.79,-85.4006"/>
<polygon fill="midnightblue" stroke="midnightblue" points="1341.23,-86.1187 1340.9,-75.529 1334.56,-84.0124 1341.23,-86.1187"/>
</g>
<!-- Node5 -->
<g id="node5" class="node"><title>Node5</title>
<polygon fill="none" stroke="#bfbfbf" points="1122,-112.5 1122,-131.5 1228,-131.5 1228,-112.5 1122,-112.5"/>
<text text-anchor="middle" x="1175" y="-119.5" font-family="Helvetica,sans-Serif" font-size="10.00">event2/bufferevent.h</text>
</g>
<!-- Node4&#45;&gt;Node5 -->
<g id="edge4" class="edge"><title>Node4&#45;&gt;Node5</title>
<path fill="none" stroke="midnightblue" d="M824.113,-173.663C880.584,-165.509 1027.13,-144.35 1111.91,-132.11"/>
<polygon fill="midnightblue" stroke="midnightblue" points="1112.53,-135.556 1121.93,-130.663 1111.53,-128.628 1112.53,-135.556"/>
</g>
<!-- Node6 -->
<g id="node6" class="node"><title>Node6</title>
<polygon fill="none" stroke="#bfbfbf" points="596.5,-112.5 596.5,-131.5 647.5,-131.5 647.5,-112.5 596.5,-112.5"/>
<text text-anchor="middle" x="622" y="-119.5" font-family="Helvetica,sans-Serif" font-size="10.00">unistd.h</text>
</g>
<!-- Node4&#45;&gt;Node6 -->
<g id="edge5" class="edge"><title>Node4&#45;&gt;Node6</title>
<path fill="none" stroke="midnightblue" d="M777.965,-170.051C747.456,-160.847 693.342,-144.522 657.565,-133.729"/>
<polygon fill="midnightblue" stroke="midnightblue" points="658.131,-130.244 647.546,-130.707 656.109,-136.946 658.131,-130.244"/>
</g>
<!-- Node7 -->
<g id="node7" class="node"><title>Node7</title>
<polygon fill="none" stroke="#bfbfbf" points="666,-112.5 666,-131.5 714,-131.5 714,-112.5 666,-112.5"/>
<text text-anchor="middle" x="690" y="-119.5" font-family="Helvetica,sans-Serif" font-size="10.00">stdlib.h</text>
</g>
<!-- Node4&#45;&gt;Node7 -->
<g id="edge6" class="edge"><title>Node4&#45;&gt;Node7</title>
<path fill="none" stroke="midnightblue" d="M783.166,-168.324C765.284,-159.625 737.525,-146.12 716.954,-136.113"/>
<polygon fill="midnightblue" stroke="midnightblue" points="718.313,-132.882 707.79,-131.655 715.251,-139.177 718.313,-132.882"/>
</g>
<!-- Node8 -->
<g id="node8" class="node"><title>Node8</title>
<polygon fill="none" stroke="#bfbfbf" points="732,-112.5 732,-131.5 792,-131.5 792,-112.5 732,-112.5"/>
<text text-anchor="middle" x="762" y="-119.5" font-family="Helvetica,sans-Serif" font-size="10.00">sys/stat.h</text>
</g>
<!-- Node4&#45;&gt;Node8 -->
<g id="edge7" class="edge"><title>Node4&#45;&gt;Node8</title>
<path fill="none" stroke="midnightblue" d="M794.56,-168.083C789.051,-160.455 780.969,-149.264 774.235,-139.941"/>
<polygon fill="midnightblue" stroke="midnightblue" points="777.013,-137.809 768.32,-131.751 771.338,-141.907 777.013,-137.809"/>
</g>
<!-- Node9 -->
<g id="node9" class="node"><title>Node9</title>
<polygon fill="none" stroke="#bfbfbf" points="810,-112.5 810,-131.5 872,-131.5 872,-112.5 810,-112.5"/>
<text text-anchor="middle" x="841" y="-119.5" font-family="Helvetica,sans-Serif" font-size="10.00">sys/fcntl.h</text>
</g>
<!-- Node4&#45;&gt;Node9 -->
<g id="edge8" class="edge"><title>Node4&#45;&gt;Node9</title>
<path fill="none" stroke="midnightblue" d="M807.605,-168.083C813.255,-160.455 821.545,-149.264 828.451,-139.941"/>
<polygon fill="midnightblue" stroke="midnightblue" points="831.378,-141.87 834.518,-131.751 825.753,-137.703 831.378,-141.87"/>
</g>
<!-- Node10 -->
<g id="node10" class="node"><title>Node10</title>
<polygon fill="none" stroke="#bfbfbf" points="890,-112.5 890,-131.5 960,-131.5 960,-112.5 890,-112.5"/>
<text text-anchor="middle" x="925" y="-119.5" font-family="Helvetica,sans-Serif" font-size="10.00">sys/inotify.h</text>
</g>
<!-- Node4&#45;&gt;Node10 -->
<g id="edge9" class="edge"><title>Node4&#45;&gt;Node10</title>
<path fill="none" stroke="midnightblue" d="M820.648,-168.444C840.965,-159.596 872.903,-145.687 896.098,-135.586"/>
<polygon fill="midnightblue" stroke="midnightblue" points="897.673,-138.718 905.444,-131.516 894.878,-132.3 897.673,-138.718"/>
</g>
<!-- Node11 -->
<g id="node11" class="node"><title>Node11</title>
<polygon fill="none" stroke="#bfbfbf" points="978,-112.5 978,-131.5 1022,-131.5 1022,-112.5 978,-112.5"/>
<text text-anchor="middle" x="1000" y="-119.5" font-family="Helvetica,sans-Serif" font-size="10.00">vector</text>
</g>
<!-- Node4&#45;&gt;Node11 -->
<g id="edge10" class="edge"><title>Node4&#45;&gt;Node11</title>
<path fill="none" stroke="midnightblue" d="M824.14,-170.965C854.801,-162.933 910.811,-148.14 967.774,-132.303"/>
<polygon fill="midnightblue" stroke="midnightblue" points="968.972,-135.602 977.665,-129.545 967.092,-128.859 968.972,-135.602"/>
</g>
<!-- Node12 -->
<g id="node12" class="node"><title>Node12</title>
<polygon fill="none" stroke="#bfbfbf" points="504.5,-112.5 504.5,-131.5 539.5,-131.5 539.5,-112.5 504.5,-112.5"/>
<text text-anchor="middle" x="522" y="-119.5" font-family="Helvetica,sans-Serif" font-size="10.00">map</text>
</g>
<!-- Node4&#45;&gt;Node12 -->
<g id="edge11" class="edge"><title>Node4&#45;&gt;Node12</title>
<path fill="none" stroke="midnightblue" d="M777.695,-173.503C733.707,-166.737 635.538,-150.85 554,-132 552.524,-131.659 551.014,-131.293 549.493,-130.911"/>
<polygon fill="midnightblue" stroke="midnightblue" points="550.093,-127.449 539.529,-128.25 548.287,-134.212 550.093,-127.449"/>
</g>
<!-- Node13 -->
<g id="node13" class="node"><title>Node13</title>
<g id="a_node13"><a xlink:href="_closable_8h.html" target="_top" xlink:title="Closable.h">
<polygon fill="none" stroke="black" points="1040.5,-112.5 1040.5,-131.5 1103.5,-131.5 1103.5,-112.5 1040.5,-112.5"/>
<text text-anchor="middle" x="1072" y="-119.5" font-family="Helvetica,sans-Serif" font-size="10.00">Closable.h</text>
</a>
</g>
</g>
<!-- Node4&#45;&gt;Node13 -->
<g id="edge13" class="edge"><title>Node4&#45;&gt;Node13</title>
<path fill="none" stroke="midnightblue" d="M824.214,-172.64C864.128,-165.105 948.567,-148.993 1030.28,-132.111"/>
<polygon fill="midnightblue" stroke="midnightblue" points="1031.15,-135.506 1040.23,-130.049 1029.73,-128.651 1031.15,-135.506"/>
</g>
<!-- Node14 -->
<g id="node14" class="node"><title>Node14</title>
<g id="a_node14"><a xlink:href="_string_8h.html" target="_top" xlink:title="String.h">
<polygon fill="none" stroke="black" points="451,-56.5 451,-75.5 501,-75.5 501,-56.5 451,-56.5"/>
<text text-anchor="middle" x="476" y="-63.5" font-family="Helvetica,sans-Serif" font-size="10.00">String.h</text>
</a>
</g>
</g>
<!-- Node4&#45;&gt;Node14 -->
<g id="edge14" class="edge"><title>Node4&#45;&gt;Node14</title>
<path fill="none" stroke="midnightblue" d="M777.818,-174.604C737.784,-169.928 653.583,-157.711 587,-132 569.11,-125.092 525.263,-98.1962 498.341,-81.2416"/>
<polygon fill="midnightblue" stroke="midnightblue" points="499.916,-78.0967 489.594,-75.7083 496.174,-84.0124 499.916,-78.0967"/>
</g>
<!-- Node4&#45;&gt;Node17 -->
<g id="edge17" class="edge"><title>Node4&#45;&gt;Node17</title>
<path fill="none" stroke="midnightblue" d="M824.331,-175.817C888.488,-172.306 1073.04,-160.478 1236.26,-131.85"/>
<polygon fill="midnightblue" stroke="midnightblue" points="1237.25,-135.229 1246.48,-130.03 1236.02,-128.337 1237.25,-135.229"/>
</g>
<!-- Node19 -->
<g id="node19" class="node"><title>Node19</title>
<g id="a_node19"><a xlink:href="_event_8h.html" target="_top" xlink:title="Event.h">
<polygon fill="none" stroke="black" points="246,-112.5 246,-131.5 296,-131.5 296,-112.5 246,-112.5"/>
<text text-anchor="middle" x="271" y="-119.5" font-family="Helvetica,sans-Serif" font-size="10.00">Event.h</text>
</a>
</g>
</g>
<!-- Node4&#45;&gt;Node19 -->
<g id="edge21" class="edge"><title>Node4&#45;&gt;Node19</title>
<path fill="none" stroke="midnightblue" d="M777.886,-174.645C694.18,-166.116 406.543,-136.81 306.017,-126.568"/>
<polygon fill="midnightblue" stroke="midnightblue" points="306.368,-123.085 296.064,-125.554 305.658,-130.049 306.368,-123.085"/>
</g>
<!-- Node15 -->
<g id="node15" class="node"><title>Node15</title>
<polygon fill="none" stroke="#bfbfbf" points="455.5,-0.5 455.5,-19.5 496.5,-19.5 496.5,-0.5 455.5,-0.5"/>
<text text-anchor="middle" x="476" y="-7.5" font-family="Helvetica,sans-Serif" font-size="10.00">string</text>
</g>
<!-- Node14&#45;&gt;Node15 -->
<g id="edge15" class="edge"><title>Node14&#45;&gt;Node15</title>
<path fill="none" stroke="midnightblue" d="M476,-56.083C476,-49.0059 476,-38.8611 476,-29.9865"/>
<polygon fill="midnightblue" stroke="midnightblue" points="479.5,-29.751 476,-19.7511 472.5,-29.7511 479.5,-29.751"/>
</g>
<!-- Node16 -->
<g id="node16" class="node"><title>Node16</title>
<polygon fill="none" stroke="#bfbfbf" points="343.5,-0.5 343.5,-19.5 392.5,-19.5 392.5,-0.5 343.5,-0.5"/>
<text text-anchor="middle" x="368" y="-7.5" font-family="Helvetica,sans-Serif" font-size="10.00">stdint.h</text>
</g>
<!-- Node14&#45;&gt;Node16 -->
<g id="edge16" class="edge"><title>Node14&#45;&gt;Node16</title>
<path fill="none" stroke="midnightblue" d="M458.648,-56.324C441.328,-47.6641 414.485,-34.2424 394.498,-24.249"/>
<polygon fill="midnightblue" stroke="midnightblue" points="395.819,-20.9962 385.309,-19.6545 392.688,-27.2572 395.819,-20.9962"/>
</g>
<!-- Node17&#45;&gt;Node3 -->
<g id="edge18" class="edge"><title>Node17&#45;&gt;Node3</title>
<path fill="none" stroke="midnightblue" d="M1283.41,-112.324C1294.11,-104.185 1310.34,-91.8395 1323.16,-82.0874"/>
<polygon fill="midnightblue" stroke="midnightblue" points="1325.54,-84.6734 1331.39,-75.8339 1321.31,-79.1018 1325.54,-84.6734"/>
</g>
<!-- Node17&#45;&gt;Node14 -->
<g id="edge19" class="edge"><title>Node17&#45;&gt;Node14</title>
<path fill="none" stroke="midnightblue" d="M1246.12,-113.754C1243.07,-113.074 1239.98,-112.466 1237,-112 959.876,-68.5914 620.011,-66.2149 511.237,-66.6826"/>
<polygon fill="midnightblue" stroke="midnightblue" points="511.131,-63.1831 501.15,-66.7374 511.169,-70.183 511.131,-63.1831"/>
</g>
<!-- Node18 -->
<g id="node18" class="node"><title>Node18</title>
<g id="a_node18"><a xlink:href="_should_delete_8h.html" target="_top" xlink:title="ShouldDelete.h">
<polygon fill="none" stroke="black" points="1213.5,-56.5 1213.5,-75.5 1296.5,-75.5 1296.5,-56.5 1213.5,-56.5"/>
<text text-anchor="middle" x="1255" y="-63.5" font-family="Helvetica,sans-Serif" font-size="10.00">ShouldDelete.h</text>
</a>
</g>
</g>
<!-- Node17&#45;&gt;Node18 -->
<g id="edge20" class="edge"><title>Node17&#45;&gt;Node18</title>
<path fill="none" stroke="midnightblue" d="M1269.19,-112.083C1266.92,-104.849 1263.63,-94.4087 1260.79,-85.3968"/>
<polygon fill="midnightblue" stroke="midnightblue" points="1264.1,-84.2385 1257.75,-75.7511 1257.42,-86.3406 1264.1,-84.2385"/>
</g>
<!-- Node19&#45;&gt;Node2 -->
<g id="edge23" class="edge"><title>Node19&#45;&gt;Node2</title>
<path fill="none" stroke="midnightblue" d="M245.774,-114.22C242.82,-113.456 239.846,-112.701 237,-112 186.864,-99.6419 129.257,-86.6188 89.344,-77.7806"/>
<polygon fill="midnightblue" stroke="midnightblue" points="89.8592,-74.3101 79.3396,-75.5709 88.3494,-81.1454 89.8592,-74.3101"/>
</g>
<!-- Node20 -->
<g id="node20" class="node"><title>Node20</title>
<polygon fill="none" stroke="#bfbfbf" points="160.5,-56.5 160.5,-75.5 233.5,-75.5 233.5,-56.5 160.5,-56.5"/>
<text text-anchor="middle" x="197" y="-63.5" font-family="Helvetica,sans-Serif" font-size="10.00">event2/dns.h</text>
</g>
<!-- Node19&#45;&gt;Node20 -->
<g id="edge22" class="edge"><title>Node19&#45;&gt;Node20</title>
<path fill="none" stroke="midnightblue" d="M259.111,-112.324C247.85,-104.107 230.713,-91.6017 217.291,-81.8069"/>
<polygon fill="midnightblue" stroke="midnightblue" points="219.247,-78.9014 209.106,-75.8339 215.12,-84.5559 219.247,-78.9014"/>
</g>
<!-- Node21&#45;&gt;Node2 -->
<g id="edge27" class="edge"><title>Node21&#45;&gt;Node2</title>
<path fill="none" stroke="midnightblue" d="M184.937,-171.662C158.258,-165.531 118.007,-153.439 89,-132 72.0096,-119.443 58.1526,-99.3844 49.5636,-84.8686"/>
<polygon fill="midnightblue" stroke="midnightblue" points="52.4467,-82.8556 44.4853,-75.865 46.3496,-86.2946 52.4467,-82.8556"/>
</g>
<!-- Node21&#45;&gt;Node14 -->
<g id="edge30" class="edge"><title>Node21&#45;&gt;Node14</title>
<path fill="none" stroke="midnightblue" d="M233.637,-168.368C279.92,-149.01 392.164,-102.065 446.096,-79.5074"/>
<polygon fill="midnightblue" stroke="midnightblue" points="447.584,-82.679 455.459,-75.5914 444.883,-76.2211 447.584,-82.679"/>
</g>
<!-- Node21&#45;&gt;Node19 -->
<g id="edge31" class="edge"><title>Node21&#45;&gt;Node19</title>
<path fill="none" stroke="midnightblue" d="M222.319,-168.324C230.893,-160.341 243.812,-148.313 254.188,-138.653"/>
<polygon fill="midnightblue" stroke="midnightblue" points="256.578,-141.21 261.512,-131.834 251.808,-136.086 256.578,-141.21"/>
</g>
<!-- Node21&#45;&gt;Node20 -->
<g id="edge26" class="edge"><title>Node21&#45;&gt;Node20</title>
<path fill="none" stroke="midnightblue" d="M184.792,-174.828C157.21,-171.032 116.587,-160.607 97,-132 79.4857,-106.42 116.662,-88.5275 150.549,-78.0804"/>
<polygon fill="midnightblue" stroke="midnightblue" points="151.809,-81.3591 160.432,-75.204 149.852,-74.6379 151.809,-81.3591"/>
</g>
<!-- Node22 -->
<g id="node22" class="node"><title>Node22</title>
<polygon fill="none" stroke="#bfbfbf" points="106.5,-112.5 106.5,-131.5 179.5,-131.5 179.5,-112.5 106.5,-112.5"/>
<text text-anchor="middle" x="143" y="-119.5" font-family="Helvetica,sans-Serif" font-size="10.00">libconfig.h++</text>
</g>
<!-- Node21&#45;&gt;Node22 -->
<g id="edge28" class="edge"><title>Node21&#45;&gt;Node22</title>
<path fill="none" stroke="midnightblue" d="M201.753,-168.324C191.203,-160.185 175.199,-147.839 162.558,-138.087"/>
<polygon fill="midnightblue" stroke="midnightblue" points="164.507,-135.171 154.451,-131.834 160.231,-140.713 164.507,-135.171"/>
</g>
<!-- Node23 -->
<g id="node23" class="node"><title>Node23</title>
<polygon fill="none" stroke="#bfbfbf" points="198,-112.5 198,-131.5 228,-131.5 228,-112.5 198,-112.5"/>
<text text-anchor="middle" x="213" y="-119.5" font-family="Helvetica,sans-Serif" font-size="10.00">set</text>
</g>
<!-- Node21&#45;&gt;Node23 -->
<g id="edge29" class="edge"><title>Node21&#45;&gt;Node23</title>
<path fill="none" stroke="midnightblue" d="M213,-168.083C213,-161.006 213,-150.861 213,-141.986"/>
<polygon fill="midnightblue" stroke="midnightblue" points="216.5,-141.751 213,-131.751 209.5,-141.751 216.5,-141.751"/>
</g>
<!-- Node24&#45;&gt;Node12 -->
<g id="edge33" class="edge"><title>Node24&#45;&gt;Node12</title>
<path fill="none" stroke="midnightblue" d="M459.05,-168.324C470.463,-160.107 487.831,-147.602 501.435,-137.807"/>
<polygon fill="midnightblue" stroke="midnightblue" points="503.66,-140.517 509.731,-131.834 499.57,-134.837 503.66,-140.517"/>
</g>
<!-- Node24&#45;&gt;Node14 -->
<g id="edge36" class="edge"><title>Node24&#45;&gt;Node14</title>
<path fill="none" stroke="midnightblue" d="M449.276,-168.368C453.977,-150.537 464.849,-109.295 471.183,-85.2717"/>
<polygon fill="midnightblue" stroke="midnightblue" points="474.57,-86.1533 473.735,-75.5914 467.801,-84.3688 474.57,-86.1533"/>
</g>
<!-- Node24&#45;&gt;Node16 -->
<g id="edge34" class="edge"><title>Node24&#45;&gt;Node16</title>
<path fill="none" stroke="midnightblue" d="M425.731,-168.381C410.591,-161.06 391.191,-149.013 381,-132 361.887,-100.093 362.913,-54.8513 365.419,-29.7016"/>
<polygon fill="midnightblue" stroke="midnightblue" points="368.905,-30.0229 366.607,-19.6803 361.954,-29.1986 368.905,-30.0229"/>
</g>
<!-- Node24&#45;&gt;Node19 -->
<g id="edge37" class="edge"><title>Node24&#45;&gt;Node19</title>
<path fill="none" stroke="midnightblue" d="M419.112,-168.444C388.456,-159.038 339.155,-143.911 305.943,-133.721"/>
<polygon fill="midnightblue" stroke="midnightblue" points="306.778,-130.316 296.191,-130.729 304.724,-137.008 306.778,-130.316"/>
</g>
<!-- Node25 -->
<g id="node25" class="node"><title>Node25</title>
<polygon fill="none" stroke="#bfbfbf" points="390.5,-112.5 390.5,-131.5 447.5,-131.5 447.5,-112.5 390.5,-112.5"/>
<text text-anchor="middle" x="419" y="-119.5" font-family="Helvetica,sans-Serif" font-size="10.00">pthread.h</text>
</g>
<!-- Node24&#45;&gt;Node25 -->
<g id="edge35" class="edge"><title>Node24&#45;&gt;Node25</title>
<path fill="none" stroke="midnightblue" d="M442.376,-168.083C438.544,-160.691 432.976,-149.953 428.235,-140.811"/>
<polygon fill="midnightblue" stroke="midnightblue" points="431.248,-139.018 423.538,-131.751 425.034,-142.24 431.248,-139.018"/>
</g>
</g>
</svg>
