<?xml version="1.0" encoding="UTF-8" standalone="no"?>
<!DOCTYPE svg PUBLIC "-//W3C//DTD SVG 1.1//EN"
 "http://www.w3.org/Graphics/SVG/1.1/DTD/svg11.dtd">
<!-- Generated by graphviz version 2.34.0 (20140110.0949)
 -->
<!-- Title: include/Pipe.h Pages: 1 -->
<svg width="1384pt" height="252pt"
 viewBox="0.00 0.00 1384.10 252.00" xmlns="http://www.w3.org/2000/svg" xmlns:xlink="http://www.w3.org/1999/xlink">
<g id="graph0" class="graph" transform="scale(1 1) rotate(0) translate(4 248)">
<title>include/Pipe.h</title>
<!-- Node1 -->
<g id="node1" class="node"><title>Node1</title>
<polygon fill="#bfbfbf" stroke="black" points="830,-224.5 830,-243.5 908,-243.5 908,-224.5 830,-224.5"/>
<text text-anchor="middle" x="869" y="-231.5" font-family="Helvetica,sans-Serif" font-size="10.00">include/Pipe.h</text>
</g>
<!-- Node2 -->
<g id="node2" class="node"><title>Node2</title>
<polygon fill="none" stroke="#bfbfbf" points="-0.5,-56.5 -0.5,-75.5 80.5,-75.5 80.5,-56.5 -0.5,-56.5"/>
<text text-anchor="middle" x="40" y="-63.5" font-family="Helvetica,sans-Serif" font-size="10.00">event2/event.h</text>
</g>
<!-- Node1&#45;&gt;Node2 -->
<g id="edge1" class="edge"><title>Node1&#45;&gt;Node2</title>
<path fill="none" stroke="midnightblue" d="M829.601,-232.075C702.731,-228.838 305.839,-216.626 181,-188 116.483,-173.206 81.2279,-186.036 43,-132 33.5275,-118.61 33.8345,-99.5014 35.8751,-85.467"/>
<polygon fill="midnightblue" stroke="midnightblue" points="39.3402,-85.9776 37.7296,-75.5059 32.4584,-84.6963 39.3402,-85.9776"/>
</g>
<!-- Node3 -->
<g id="node3" class="node"><title>Node3</title>
<g id="a_node3"><a xlink:href="defines_8h.html" target="_top" xlink:title="defines.h">
<polygon fill="none" stroke="black" points="1108,-56.5 1108,-75.5 1164,-75.5 1164,-56.5 1108,-56.5"/>
<text text-anchor="middle" x="1136" y="-63.5" font-family="Helvetica,sans-Serif" font-size="10.00">defines.h</text>
</a>
</g>
</g>
<!-- Node1&#45;&gt;Node3 -->
<g id="edge2" class="edge"><title>Node1&#45;&gt;Node3</title>
<path fill="none" stroke="midnightblue" d="M908.288,-231.781C1017.32,-227.438 1319.1,-208.581 1372,-132 1377.05,-124.687 1377.67,-118.849 1372,-112 1347.36,-82.2135 1234.66,-71.9693 1174.35,-68.584"/>
<polygon fill="midnightblue" stroke="midnightblue" points="1174.26,-65.0742 1164.09,-68.0457 1173.89,-72.0646 1174.26,-65.0742"/>
</g>
<!-- Node4 -->
<g id="node4" class="node"><title>Node4</title>
<g id="a_node4"><a xlink:href="_files_8h.html" target="_top" xlink:title="Files.h">
<polygon fill="none" stroke="black" points="778,-168.5 778,-187.5 824,-187.5 824,-168.5 778,-168.5"/>
<text text-anchor="middle" x="801" y="-175.5" font-family="Helvetica,sans-Serif" font-size="10.00">Files.h</text>
</a>
</g>
</g>
<!-- Node1&#45;&gt;Node4 -->
<g id="edge3" class="edge"><title>Node1&#45;&gt;Node4</title>
<path fill="none" stroke="midnightblue" d="M858.075,-224.324C847.825,-216.185 832.279,-203.839 819.999,-194.087"/>
<polygon fill="midnightblue" stroke="midnightblue" points="822.132,-191.312 812.124,-187.834 817.779,-196.794 822.132,-191.312"/>
</g>
<!-- Node16 -->
<g id="node16" class="node"><title>Node16</title>
<g id="a_node16"><a xlink:href="_writer_8h.html" target="_top" xlink:title="Writer.h">
<polygon fill="none" stroke="black" points="1039.5,-112.5 1039.5,-131.5 1090.5,-131.5 1090.5,-112.5 1039.5,-112.5"/>
<text text-anchor="middle" x="1065" y="-119.5" font-family="Helvetica,sans-Serif" font-size="10.00">Writer.h</text>
</a>
</g>
</g>
<!-- Node1&#45;&gt;Node16 -->
<g id="edge23" class="edge"><title>Node1&#45;&gt;Node16</title>
<path fill="none" stroke="midnightblue" d="M884.38,-224.368C918.371,-205.292 1000.1,-159.422 1040.94,-136.505"/>
<polygon fill="midnightblue" stroke="midnightblue" points="1042.68,-139.538 1049.69,-131.591 1039.26,-133.433 1042.68,-139.538"/>
</g>
<!-- Node20 -->
<g id="node20" class="node"><title>Node20</title>
<g id="a_node20"><a xlink:href="_module_8h.html" target="_top" xlink:title="Module.h">
<polygon fill="none" stroke="black" points="190,-168.5 190,-187.5 246,-187.5 246,-168.5 190,-168.5"/>
<text text-anchor="middle" x="218" y="-175.5" font-family="Helvetica,sans-Serif" font-size="10.00">Module.h</text>
</a>
</g>
</g>
<!-- Node1&#45;&gt;Node20 -->
<g id="edge24" class="edge"><title>Node1&#45;&gt;Node20</title>
<path fill="none" stroke="midnightblue" d="M829.743,-229.744C713.383,-220.092 371.304,-191.716 256.253,-182.173"/>
<polygon fill="midnightblue" stroke="midnightblue" points="256.411,-178.674 246.156,-181.336 255.832,-185.65 256.411,-178.674"/>
</g>
<!-- Node23 -->
<g id="node23" class="node"><title>Node23</title>
<g id="a_node23"><a xlink:href="_thread_8h.html" target="_top" xlink:title="Thread.h">
<polygon fill="none" stroke="black" points="1160.5,-168.5 1160.5,-187.5 1215.5,-187.5 1215.5,-168.5 1160.5,-168.5"/>
<text text-anchor="middle" x="1188" y="-175.5" font-family="Helvetica,sans-Serif" font-size="10.00">Thread.h</text>
</a>
</g>
</g>
<!-- Node1&#45;&gt;Node23 -->
<g id="edge31" class="edge"><title>Node1&#45;&gt;Node23</title>
<path fill="none" stroke="midnightblue" d="M908.116,-226.379C969.924,-215.916 1089.39,-195.692 1150.31,-185.381"/>
<polygon fill="midnightblue" stroke="midnightblue" points="1150.99,-188.815 1160.27,-183.695 1149.82,-181.913 1150.99,-188.815"/>
</g>
<!-- Node4&#45;&gt;Node3 -->
<g id="edge12" class="edge"><title>Node4&#45;&gt;Node3</title>
<path fill="none" stroke="midnightblue" d="M824.216,-176.075C886.26,-173.205 1054.25,-162.723 1099,-132 1115.02,-121.001 1124.96,-100.645 1130.45,-85.6325"/>
<polygon fill="midnightblue" stroke="midnightblue" points="1133.86,-86.4493 1133.68,-75.856 1127.22,-84.2507 1133.86,-86.4493"/>
</g>
<!-- Node5 -->
<g id="node5" class="node"><title>Node5</title>
<polygon fill="none" stroke="#bfbfbf" points="390,-112.5 390,-131.5 496,-131.5 496,-112.5 390,-112.5"/>
<text text-anchor="middle" x="443" y="-119.5" font-family="Helvetica,sans-Serif" font-size="10.00">event2/bufferevent.h</text>
</g>
<!-- Node4&#45;&gt;Node5 -->
<g id="edge4" class="edge"><title>Node4&#45;&gt;Node5</title>
<path fill="none" stroke="midnightblue" d="M777.786,-173.499C723.626,-165.329 587.374,-144.777 506.365,-132.558"/>
<polygon fill="midnightblue" stroke="midnightblue" points="506.695,-129.068 496.285,-131.037 505.651,-135.99 506.695,-129.068"/>
</g>
<!-- Node6 -->
<g id="node6" class="node"><title>Node6</title>
<polygon fill="none" stroke="#bfbfbf" points="514.5,-112.5 514.5,-131.5 565.5,-131.5 565.5,-112.5 514.5,-112.5"/>
<text text-anchor="middle" x="540" y="-119.5" font-family="Helvetica,sans-Serif" font-size="10.00">unistd.h</text>
</g>
<!-- Node4&#45;&gt;Node6 -->
<g id="edge5" class="edge"><title>Node4&#45;&gt;Node6</title>
<path fill="none" stroke="midnightblue" d="M777.811,-172.82C738.375,-165.617 655.528,-150.081 575.338,-131.971"/>
<polygon fill="midnightblue" stroke="midnightblue" points="576.102,-128.555 565.575,-129.75 574.549,-135.381 576.102,-128.555"/>
</g>
<!-- Node7 -->
<g id="node7" class="node"><title>Node7</title>
<polygon fill="none" stroke="#bfbfbf" points="584,-112.5 584,-131.5 632,-131.5 632,-112.5 584,-112.5"/>
<text text-anchor="middle" x="608" y="-119.5" font-family="Helvetica,sans-Serif" font-size="10.00">stdlib.h</text>
</g>
<!-- Node4&#45;&gt;Node7 -->
<g id="edge6" class="edge"><title>Node4&#45;&gt;Node7</title>
<path fill="none" stroke="midnightblue" d="M777.72,-170.486C743.943,-161.036 681.135,-143.463 642.124,-132.548"/>
<polygon fill="midnightblue" stroke="midnightblue" points="642.847,-129.115 632.273,-129.791 640.96,-135.857 642.847,-129.115"/>
</g>
<!-- Node8 -->
<g id="node8" class="node"><title>Node8</title>
<polygon fill="none" stroke="#bfbfbf" points="650,-112.5 650,-131.5 710,-131.5 710,-112.5 650,-112.5"/>
<text text-anchor="middle" x="680" y="-119.5" font-family="Helvetica,sans-Serif" font-size="10.00">sys/stat.h</text>
</g>
<!-- Node4&#45;&gt;Node8 -->
<g id="edge7" class="edge"><title>Node4&#45;&gt;Node8</title>
<path fill="none" stroke="midnightblue" d="M781.827,-168.444C762.091,-159.636 731.115,-145.812 708.507,-135.722"/>
<polygon fill="midnightblue" stroke="midnightblue" points="709.641,-132.396 699.083,-131.516 706.789,-138.788 709.641,-132.396"/>
</g>
<!-- Node9 -->
<g id="node9" class="node"><title>Node9</title>
<polygon fill="none" stroke="#bfbfbf" points="728,-112.5 728,-131.5 790,-131.5 790,-112.5 728,-112.5"/>
<text text-anchor="middle" x="759" y="-119.5" font-family="Helvetica,sans-Serif" font-size="10.00">sys/fcntl.h</text>
</g>
<!-- Node4&#45;&gt;Node9 -->
<g id="edge8" class="edge"><title>Node4&#45;&gt;Node9</title>
<path fill="none" stroke="midnightblue" d="M794.065,-168.083C788.071,-160.377 779.248,-149.033 771.952,-139.653"/>
<polygon fill="midnightblue" stroke="midnightblue" points="774.709,-137.496 765.806,-131.751 769.183,-141.793 774.709,-137.496"/>
</g>
<!-- Node10 -->
<g id="node10" class="node"><title>Node10</title>
<polygon fill="none" stroke="#bfbfbf" points="808,-112.5 808,-131.5 878,-131.5 878,-112.5 808,-112.5"/>
<text text-anchor="middle" x="843" y="-119.5" font-family="Helvetica,sans-Serif" font-size="10.00">sys/inotify.h</text>
</g>
<!-- Node4&#45;&gt;Node10 -->
<g id="edge9" class="edge"><title>Node4&#45;&gt;Node10</title>
<path fill="none" stroke="midnightblue" d="M807.935,-168.083C813.929,-160.377 822.752,-149.033 830.048,-139.653"/>
<polygon fill="midnightblue" stroke="midnightblue" points="832.817,-141.793 836.194,-131.751 827.291,-137.496 832.817,-141.793"/>
</g>
<!-- Node11 -->
<g id="node11" class="node"><title>Node11</title>
<polygon fill="none" stroke="#bfbfbf" points="896,-112.5 896,-131.5 940,-131.5 940,-112.5 896,-112.5"/>
<text text-anchor="middle" x="918" y="-119.5" font-family="Helvetica,sans-Serif" font-size="10.00">vector</text>
</g>
<!-- Node4&#45;&gt;Node11 -->
<g id="edge10" class="edge"><title>Node4&#45;&gt;Node11</title>
<path fill="none" stroke="midnightblue" d="M819.539,-168.444C838.623,-159.636 868.575,-145.812 890.436,-135.722"/>
<polygon fill="midnightblue" stroke="midnightblue" points="891.935,-138.885 899.548,-131.516 889.001,-132.529 891.935,-138.885"/>
</g>
<!-- Node12 -->
<g id="node12" class="node"><title>Node12</title>
<polygon fill="none" stroke="#bfbfbf" points="1147.5,-112.5 1147.5,-131.5 1182.5,-131.5 1182.5,-112.5 1147.5,-112.5"/>
<text text-anchor="middle" x="1165" y="-119.5" font-family="Helvetica,sans-Serif" font-size="10.00">map</text>
</g>
<!-- Node4&#45;&gt;Node12 -->
<g id="edge11" class="edge"><title>Node4&#45;&gt;Node12</title>
<path fill="none" stroke="midnightblue" d="M824.13,-174.985C878.448,-170.011 1018.24,-155.795 1133,-132 1134.45,-131.7 1135.93,-131.369 1137.42,-131.018"/>
<polygon fill="midnightblue" stroke="midnightblue" points="1138.37,-134.387 1147.17,-128.49 1136.61,-127.611 1138.37,-134.387"/>
</g>
<!-- Node13 -->
<g id="node13" class="node"><title>Node13</title>
<g id="a_node13"><a xlink:href="_closable_8h.html" target="_top" xlink:title="Closable.h">
<polygon fill="none" stroke="black" points="958.5,-112.5 958.5,-131.5 1021.5,-131.5 1021.5,-112.5 958.5,-112.5"/>
<text text-anchor="middle" x="990" y="-119.5" font-family="Helvetica,sans-Serif" font-size="10.00">Closable.h</text>
</a>
</g>
</g>
<!-- Node4&#45;&gt;Node13 -->
<g id="edge13" class="edge"><title>Node4&#45;&gt;Node13</title>
<path fill="none" stroke="midnightblue" d="M824.175,-170.379C855.573,-161.408 912.087,-145.261 950.313,-134.339"/>
<polygon fill="midnightblue" stroke="midnightblue" points="951.438,-137.658 960.092,-131.545 949.515,-130.927 951.438,-137.658"/>
</g>
<!-- Node14 -->
<g id="node14" class="node"><title>Node14</title>
<g id="a_node14"><a xlink:href="_string_8h.html" target="_top" xlink:title="String.h">
<polygon fill="none" stroke="black" points="637,-56.5 637,-75.5 687,-75.5 687,-56.5 637,-56.5"/>
<text text-anchor="middle" x="662" y="-63.5" font-family="Helvetica,sans-Serif" font-size="10.00">String.h</text>
</a>
</g>
</g>
<!-- Node4&#45;&gt;Node14 -->
<g id="edge14" class="edge"><title>Node4&#45;&gt;Node14</title>
<path fill="none" stroke="midnightblue" d="M777.751,-176.285C693.497,-173.458 407.713,-161.728 381,-132 375.059,-125.388 375.233,-118.764 381,-112 412.188,-75.4207 558.318,-68.4505 626.632,-67.2113"/>
<polygon fill="midnightblue" stroke="midnightblue" points="626.952,-70.707 636.898,-67.058 626.847,-63.7078 626.952,-70.707"/>
</g>
<!-- Node4&#45;&gt;Node16 -->
<g id="edge16" class="edge"><title>Node4&#45;&gt;Node16</title>
<path fill="none" stroke="midnightblue" d="M824.171,-172.903C863.998,-165.764 948.2,-150.246 1029.53,-131.996"/>
<polygon fill="midnightblue" stroke="midnightblue" points="1030.45,-135.377 1039.43,-129.757 1028.9,-128.549 1030.45,-135.377"/>
</g>
<!-- Node18 -->
<g id="node18" class="node"><title>Node18</title>
<g id="a_node18"><a xlink:href="_event_8h.html" target="_top" xlink:title="Event.h">
<polygon fill="none" stroke="black" points="284,-112.5 284,-131.5 334,-131.5 334,-112.5 284,-112.5"/>
<text text-anchor="middle" x="309" y="-119.5" font-family="Helvetica,sans-Serif" font-size="10.00">Event.h</text>
</a>
</g>
</g>
<!-- Node4&#45;&gt;Node18 -->
<g id="edge20" class="edge"><title>Node4&#45;&gt;Node18</title>
<path fill="none" stroke="midnightblue" d="M777.763,-175.743C710.733,-171.893 511.382,-158.854 348,-132 346.727,-131.791 345.434,-131.565 344.13,-131.325"/>
<polygon fill="midnightblue" stroke="midnightblue" points="344.578,-127.845 334.081,-129.285 343.185,-134.705 344.578,-127.845"/>
</g>
<!-- Node15 -->
<g id="node15" class="node"><title>Node15</title>
<polygon fill="none" stroke="#bfbfbf" points="641.5,-0.5 641.5,-19.5 682.5,-19.5 682.5,-0.5 641.5,-0.5"/>
<text text-anchor="middle" x="662" y="-7.5" font-family="Helvetica,sans-Serif" font-size="10.00">string</text>
</g>
<!-- Node14&#45;&gt;Node15 -->
<g id="edge15" class="edge"><title>Node14&#45;&gt;Node15</title>
<path fill="none" stroke="midnightblue" d="M662,-56.083C662,-49.0059 662,-38.8611 662,-29.9865"/>
<polygon fill="midnightblue" stroke="midnightblue" points="665.5,-29.751 662,-19.7511 658.5,-29.7511 665.5,-29.751"/>
</g>
<!-- Node16&#45;&gt;Node3 -->
<g id="edge17" class="edge"><title>Node16&#45;&gt;Node3</title>
<path fill="none" stroke="midnightblue" d="M1076.41,-112.324C1087.11,-104.185 1103.34,-91.8395 1116.16,-82.0874"/>
<polygon fill="midnightblue" stroke="midnightblue" points="1118.54,-84.6734 1124.39,-75.8339 1114.31,-79.1018 1118.54,-84.6734"/>
</g>
<!-- Node16&#45;&gt;Node14 -->
<g id="edge18" class="edge"><title>Node16&#45;&gt;Node14</title>
<path fill="none" stroke="midnightblue" d="M1039.47,-114.027C1036.3,-113.28 1033.08,-112.582 1030,-112 908.979,-89.1412 763.277,-75.3133 697.402,-69.7868"/>
<polygon fill="midnightblue" stroke="midnightblue" points="697.415,-66.2761 687.161,-68.9409 696.839,-73.2523 697.415,-66.2761"/>
</g>
<!-- Node17 -->
<g id="node17" class="node"><title>Node17</title>
<g id="a_node17"><a xlink:href="_should_delete_8h.html" target="_top" xlink:title="ShouldDelete.h">
<polygon fill="none" stroke="black" points="1006.5,-56.5 1006.5,-75.5 1089.5,-75.5 1089.5,-56.5 1006.5,-56.5"/>
<text text-anchor="middle" x="1048" y="-63.5" font-family="Helvetica,sans-Serif" font-size="10.00">ShouldDelete.h</text>
</a>
</g>
</g>
<!-- Node16&#45;&gt;Node17 -->
<g id="edge19" class="edge"><title>Node16&#45;&gt;Node17</title>
<path fill="none" stroke="midnightblue" d="M1062.19,-112.083C1059.92,-104.849 1056.63,-94.4087 1053.79,-85.3968"/>
<polygon fill="midnightblue" stroke="midnightblue" points="1057.1,-84.2385 1050.75,-75.7511 1050.42,-86.3406 1057.1,-84.2385"/>
</g>
<!-- Node18&#45;&gt;Node2 -->
<g id="edge22" class="edge"><title>Node18&#45;&gt;Node2</title>
<path fill="none" stroke="midnightblue" d="M283.693,-115.92C239.646,-107.078 148.108,-88.7019 90.6124,-77.1601"/>
<polygon fill="midnightblue" stroke="midnightblue" points="91.1352,-73.6953 80.6419,-75.1586 89.7574,-80.5584 91.1352,-73.6953"/>
</g>
<!-- Node19 -->
<g id="node19" class="node"><title>Node19</title>
<polygon fill="none" stroke="#bfbfbf" points="213.5,-56.5 213.5,-75.5 286.5,-75.5 286.5,-56.5 213.5,-56.5"/>
<text text-anchor="middle" x="250" y="-63.5" font-family="Helvetica,sans-Serif" font-size="10.00">event2/dns.h</text>
</g>
<!-- Node18&#45;&gt;Node19 -->
<g id="edge21" class="edge"><title>Node18&#45;&gt;Node19</title>
<path fill="none" stroke="midnightblue" d="M299.521,-112.324C290.799,-104.341 277.657,-92.3128 267.102,-82.6529"/>
<polygon fill="midnightblue" stroke="midnightblue" points="269.392,-80.0036 259.652,-75.8339 264.666,-85.1674 269.392,-80.0036"/>
</g>
<!-- Node20&#45;&gt;Node2 -->
<g id="edge26" class="edge"><title>Node20&#45;&gt;Node2</title>
<path fill="none" stroke="midnightblue" d="M189.811,-176.896C154.466,-175.209 94.2446,-166.944 59,-132 46.8783,-119.982 42.3947,-100.689 40.7844,-86.2378"/>
<polygon fill="midnightblue" stroke="midnightblue" points="44.2491,-85.6315 40.0179,-75.9183 37.2683,-86.1501 44.2491,-85.6315"/>
</g>
<!-- Node20&#45;&gt;Node14 -->
<g id="edge29" class="edge"><title>Node20&#45;&gt;Node14</title>
<path fill="none" stroke="midnightblue" d="M222.64,-168.454C230.986,-154.021 250.015,-125.113 275,-112 335.748,-80.117 543.226,-70.5067 626.747,-67.8906"/>
<polygon fill="midnightblue" stroke="midnightblue" points="627.102,-71.3817 636.993,-67.5857 626.893,-64.3848 627.102,-71.3817"/>
</g>
<!-- Node20&#45;&gt;Node18 -->
<g id="edge30" class="edge"><title>Node20&#45;&gt;Node18</title>
<path fill="none" stroke="midnightblue" d="M232.621,-168.324C246.949,-159.822 269.013,-146.729 285.749,-136.797"/>
<polygon fill="midnightblue" stroke="midnightblue" points="287.602,-139.768 294.416,-131.655 284.03,-133.748 287.602,-139.768"/>
</g>
<!-- Node20&#45;&gt;Node19 -->
<g id="edge25" class="edge"><title>Node20&#45;&gt;Node19</title>
<path fill="none" stroke="midnightblue" d="M220.511,-168.368C225.698,-150.537 237.696,-109.295 244.685,-85.2717"/>
<polygon fill="midnightblue" stroke="midnightblue" points="248.068,-86.1711 247.501,-75.5914 241.347,-84.2157 248.068,-86.1711"/>
</g>
<!-- Node21 -->
<g id="node21" class="node"><title>Node21</title>
<polygon fill="none" stroke="#bfbfbf" points="68.5,-112.5 68.5,-131.5 141.5,-131.5 141.5,-112.5 68.5,-112.5"/>
<text text-anchor="middle" x="105" y="-119.5" font-family="Helvetica,sans-Serif" font-size="10.00">libconfig.h++</text>
</g>
<!-- Node20&#45;&gt;Node21 -->
<g id="edge27" class="edge"><title>Node20&#45;&gt;Node21</title>
<path fill="none" stroke="midnightblue" d="M200.095,-168.444C181.746,-159.675 152.995,-145.935 131.906,-135.858"/>
<polygon fill="midnightblue" stroke="midnightblue" points="133.353,-132.67 122.821,-131.516 130.335,-138.986 133.353,-132.67"/>
</g>
<!-- Node22 -->
<g id="node22" class="node"><title>Node22</title>
<polygon fill="none" stroke="#bfbfbf" points="160,-112.5 160,-131.5 190,-131.5 190,-112.5 160,-112.5"/>
<text text-anchor="middle" x="175" y="-119.5" font-family="Helvetica,sans-Serif" font-size="10.00">set</text>
</g>
<!-- Node20&#45;&gt;Node22 -->
<g id="edge28" class="edge"><title>Node20&#45;&gt;Node22</title>
<path fill="none" stroke="midnightblue" d="M210.899,-168.083C204.763,-160.377 195.73,-149.033 188.261,-139.653"/>
<polygon fill="midnightblue" stroke="midnightblue" points="190.936,-137.394 181.968,-131.751 185.46,-141.754 190.936,-137.394"/>
</g>
<!-- Node23&#45;&gt;Node12 -->
<g id="edge32" class="edge"><title>Node23&#45;&gt;Node12</title>
<path fill="none" stroke="midnightblue" d="M1184.2,-168.083C1181.09,-160.77 1176.58,-150.181 1172.71,-141.103"/>
<polygon fill="midnightblue" stroke="midnightblue" points="1175.87,-139.58 1168.73,-131.751 1169.43,-142.323 1175.87,-139.58"/>
</g>
<!-- Node23&#45;&gt;Node14 -->
<g id="edge35" class="edge"><title>Node23&#45;&gt;Node14</title>
<path fill="none" stroke="midnightblue" d="M1191.92,-168.1C1197.36,-154.19 1205.06,-127.308 1191,-112 1157.63,-75.6675 810.089,-68.6318 697.202,-67.302"/>
<polygon fill="midnightblue" stroke="midnightblue" points="697.067,-63.8004 687.029,-67.1903 696.99,-70.8 697.067,-63.8004"/>
</g>
<!-- Node23&#45;&gt;Node18 -->
<g id="edge36" class="edge"><title>Node23&#45;&gt;Node18</title>
<path fill="none" stroke="midnightblue" d="M1160.43,-176.149C1057.5,-172.828 686.012,-159.535 381,-132 369.089,-130.925 356.11,-129.409 344.494,-127.928"/>
<polygon fill="midnightblue" stroke="midnightblue" points="344.648,-124.418 334.278,-126.591 343.739,-131.359 344.648,-124.418"/>
</g>
<!-- Node24 -->
<g id="node24" class="node"><title>Node24</title>
<polygon fill="none" stroke="#bfbfbf" points="1239.5,-112.5 1239.5,-131.5 1288.5,-131.5 1288.5,-112.5 1239.5,-112.5"/>
<text text-anchor="middle" x="1264" y="-119.5" font-family="Helvetica,sans-Serif" font-size="10.00">stdint.h</text>
</g>
<!-- Node23&#45;&gt;Node24 -->
<g id="edge33" class="edge"><title>Node23&#45;&gt;Node24</title>
<path fill="none" stroke="midnightblue" d="M1200.21,-168.324C1211.78,-160.107 1229.38,-147.602 1243.16,-137.807"/>
<polygon fill="midnightblue" stroke="midnightblue" points="1245.44,-140.479 1251.57,-131.834 1241.39,-134.773 1245.44,-140.479"/>
</g>
<!-- Node25 -->
<g id="node25" class="node"><title>Node25</title>
<polygon fill="none" stroke="#bfbfbf" points="1306.5,-112.5 1306.5,-131.5 1363.5,-131.5 1363.5,-112.5 1306.5,-112.5"/>
<text text-anchor="middle" x="1335" y="-119.5" font-family="Helvetica,sans-Serif" font-size="10.00">pthread.h</text>
</g>
<!-- Node23&#45;&gt;Node25 -->
<g id="edge34" class="edge"><title>Node23&#45;&gt;Node25</title>
<path fill="none" stroke="midnightblue" d="M1211.29,-168.444C1235.81,-159.438 1274.6,-145.189 1302.2,-135.049"/>
<polygon fill="midnightblue" stroke="midnightblue" points="1303.64,-138.25 1311.82,-131.516 1301.22,-131.679 1303.64,-138.25"/>
</g>
</g>
</svg>
