<?xml version="1.0" encoding="UTF-8" standalone="no"?>
<!DOCTYPE svg PUBLIC "-//W3C//DTD SVG 1.1//EN"
 "http://www.w3.org/Graphics/SVG/1.1/DTD/svg11.dtd">
<!-- Generated by graphviz version 2.34.0 (20140110.0949)
 -->
<!-- Title: include/Pipe.h Pages: 1 -->
<svg width="1280pt" height="252pt"
 viewBox="0.00 0.00 1279.69 252.00" xmlns="http://www.w3.org/2000/svg" xmlns:xlink="http://www.w3.org/1999/xlink">
<g id="graph0" class="graph" transform="scale(1 1) rotate(0) translate(4 248)">
<title>include/Pipe.h</title>
<!-- Node1 -->
<g id="node1" class="node"><title>Node1</title>
<polygon fill="#bfbfbf" stroke="black" points="793.386,-224.5 793.386,-243.5 871.386,-243.5 871.386,-224.5 793.386,-224.5"/>
<text text-anchor="middle" x="832.386" y="-231.5" font-family="Helvetica,sans-Serif" font-size="10.00">include/Pipe.h</text>
</g>
<!-- Node2 -->
<g id="node2" class="node"><title>Node2</title>
<polygon fill="none" stroke="#bfbfbf" points="1062.89,-56.5 1062.89,-75.5 1143.89,-75.5 1143.89,-56.5 1062.89,-56.5"/>
<text text-anchor="middle" x="1103.39" y="-63.5" font-family="Helvetica,sans-Serif" font-size="10.00">event2/event.h</text>
</g>
<!-- Node1&#45;&gt;Node2 -->
<g id="edge1" class="edge"><title>Node1&#45;&gt;Node2</title>
<path fill="none" stroke="midnightblue" d="M871.642,-230.013C968.883,-221.702 1216.54,-194.674 1264.39,-132 1295.79,-90.8646 1212.65,-75.6688 1154.49,-70.1215"/>
<polygon fill="midnightblue" stroke="midnightblue" points="1154.58,-66.6161 1144.31,-69.2231 1153.97,-73.589 1154.58,-66.6161"/>
</g>
<!-- Node3 -->
<g id="node3" class="node"><title>Node3</title>
<g id="a_node3"><a xlink:href="defines_8h.html" target="_top" xlink:title="defines.h">
<polygon fill="none" stroke="black" points="263.386,-56.5 263.386,-75.5 319.386,-75.5 319.386,-56.5 263.386,-56.5"/>
<text text-anchor="middle" x="291.386" y="-63.5" font-family="Helvetica,sans-Serif" font-size="10.00">defines.h</text>
</a>
</g>
</g>
<!-- Node1&#45;&gt;Node3 -->
<g id="edge2" class="edge"><title>Node1&#45;&gt;Node3</title>
<path fill="none" stroke="midnightblue" d="M793.157,-231.216C635.938,-223.67 57.3457,-191.975 4.38633,-132 -1.49727,-125.337 -1.39178,-118.755 4.38633,-112 35.9601,-75.0899 182.491,-68.2473 253.12,-67.1217"/>
<polygon fill="midnightblue" stroke="midnightblue" points="253.417,-70.6183 263.371,-66.9903 253.327,-63.6189 253.417,-70.6183"/>
</g>
<!-- Node4 -->
<g id="node4" class="node"><title>Node4</title>
<g id="a_node4"><a xlink:href="_files_8h.html" target="_top" xlink:title="Files.h">
<polygon fill="none" stroke="black" points="462.386,-168.5 462.386,-187.5 508.386,-187.5 508.386,-168.5 462.386,-168.5"/>
<text text-anchor="middle" x="485.386" y="-175.5" font-family="Helvetica,sans-Serif" font-size="10.00">Files.h</text>
</a>
</g>
</g>
<!-- Node1&#45;&gt;Node4 -->
<g id="edge3" class="edge"><title>Node1&#45;&gt;Node4</title>
<path fill="none" stroke="midnightblue" d="M793.256,-226.91C724.417,-216.198 582.865,-194.17 518.524,-184.157"/>
<polygon fill="midnightblue" stroke="midnightblue" points="518.941,-180.68 508.522,-182.6 517.865,-187.596 518.941,-180.68"/>
</g>
<!-- Node16 -->
<g id="node16" class="node"><title>Node16</title>
<g id="a_node16"><a xlink:href="_writer_8h.html" target="_top" xlink:title="Writer.h">
<polygon fill="none" stroke="black" points="701.886,-112.5 701.886,-131.5 752.886,-131.5 752.886,-112.5 701.886,-112.5"/>
<text text-anchor="middle" x="727.386" y="-119.5" font-family="Helvetica,sans-Serif" font-size="10.00">Writer.h</text>
</a>
</g>
</g>
<!-- Node1&#45;&gt;Node16 -->
<g id="edge20" class="edge"><title>Node1&#45;&gt;Node16</title>
<path fill="none" stroke="midnightblue" d="M824.147,-224.368C806.589,-205.974 765.254,-162.671 742.709,-139.052"/>
<polygon fill="midnightblue" stroke="midnightblue" points="745.024,-136.408 735.587,-131.591 739.96,-141.242 745.024,-136.408"/>
</g>
<!-- Node18 -->
<g id="node18" class="node"><title>Node18</title>
<g id="a_node18"><a xlink:href="_module_8h.html" target="_top" xlink:title="Module.h">
<polygon fill="none" stroke="black" points="858.386,-168.5 858.386,-187.5 914.386,-187.5 914.386,-168.5 858.386,-168.5"/>
<text text-anchor="middle" x="886.386" y="-175.5" font-family="Helvetica,sans-Serif" font-size="10.00">Module.h</text>
</a>
</g>
</g>
<!-- Node1&#45;&gt;Node18 -->
<g id="edge21" class="edge"><title>Node1&#45;&gt;Node18</title>
<path fill="none" stroke="midnightblue" d="M841.303,-224.083C849.167,-216.22 860.818,-204.569 870.305,-195.081"/>
<polygon fill="midnightblue" stroke="midnightblue" points="873.039,-197.297 877.635,-187.751 868.089,-192.347 873.039,-197.297"/>
</g>
<!-- Node22 -->
<g id="node22" class="node"><title>Node22</title>
<g id="a_node22"><a xlink:href="_thread_8h.html" target="_top" xlink:title="Thread.h">
<polygon fill="none" stroke="black" points="995.886,-168.5 995.886,-187.5 1050.89,-187.5 1050.89,-168.5 995.886,-168.5"/>
<text text-anchor="middle" x="1023.39" y="-175.5" font-family="Helvetica,sans-Serif" font-size="10.00">Thread.h</text>
</a>
</g>
</g>
<!-- Node1&#45;&gt;Node22 -->
<g id="edge29" class="edge"><title>Node1&#45;&gt;Node22</title>
<path fill="none" stroke="midnightblue" d="M862.651,-224.444C896.111,-214.984 950.036,-199.738 986.083,-189.546"/>
<polygon fill="midnightblue" stroke="midnightblue" points="987.073,-192.904 995.744,-186.815 985.169,-186.168 987.073,-192.904"/>
</g>
<!-- Node4&#45;&gt;Node3 -->
<g id="edge12" class="edge"><title>Node4&#45;&gt;Node3</title>
<path fill="none" stroke="midnightblue" d="M462.093,-177.849C424.909,-177.888 352.089,-172.361 310.386,-132 297.987,-120 293.56,-100.395 292.04,-85.8495"/>
<polygon fill="midnightblue" stroke="midnightblue" points="295.508,-85.2542 291.347,-75.5108 288.523,-85.7225 295.508,-85.2542"/>
</g>
<!-- Node5 -->
<g id="node5" class="node"><title>Node5</title>
<polygon fill="none" stroke="#bfbfbf" points="157.386,-112.5 157.386,-131.5 263.386,-131.5 263.386,-112.5 157.386,-112.5"/>
<text text-anchor="middle" x="210.386" y="-119.5" font-family="Helvetica,sans-Serif" font-size="10.00">event2/bufferevent.h</text>
</g>
<!-- Node4&#45;&gt;Node5 -->
<g id="edge4" class="edge"><title>Node4&#45;&gt;Node5</title>
<path fill="none" stroke="midnightblue" d="M461.94,-172.396C418.351,-163.837 323.834,-145.277 263.875,-133.503"/>
<polygon fill="midnightblue" stroke="midnightblue" points="264.32,-130.024 253.833,-131.531 262.971,-136.893 264.32,-130.024"/>
</g>
<!-- Node6 -->
<g id="node6" class="node"><title>Node6</title>
<polygon fill="none" stroke="#bfbfbf" points="319.886,-112.5 319.886,-131.5 370.886,-131.5 370.886,-112.5 319.886,-112.5"/>
<text text-anchor="middle" x="345.386" y="-119.5" font-family="Helvetica,sans-Serif" font-size="10.00">unistd.h</text>
</g>
<!-- Node4&#45;&gt;Node6 -->
<g id="edge5" class="edge"><title>Node4&#45;&gt;Node6</title>
<path fill="none" stroke="midnightblue" d="M463.203,-168.444C439.958,-159.478 403.238,-145.314 376.971,-135.183"/>
<polygon fill="midnightblue" stroke="midnightblue" points="378.056,-131.85 367.466,-131.516 375.536,-138.381 378.056,-131.85"/>
</g>
<!-- Node7 -->
<g id="node7" class="node"><title>Node7</title>
<polygon fill="none" stroke="#bfbfbf" points="389.386,-112.5 389.386,-131.5 437.386,-131.5 437.386,-112.5 389.386,-112.5"/>
<text text-anchor="middle" x="413.386" y="-119.5" font-family="Helvetica,sans-Serif" font-size="10.00">stdlib.h</text>
</g>
<!-- Node4&#45;&gt;Node7 -->
<g id="edge6" class="edge"><title>Node4&#45;&gt;Node7</title>
<path fill="none" stroke="midnightblue" d="M473.818,-168.324C462.966,-160.185 446.506,-147.839 433.503,-138.087"/>
<polygon fill="midnightblue" stroke="midnightblue" points="435.265,-135.034 425.165,-131.834 431.065,-140.634 435.265,-135.034"/>
</g>
<!-- Node8 -->
<g id="node8" class="node"><title>Node8</title>
<polygon fill="none" stroke="#bfbfbf" points="455.386,-112.5 455.386,-131.5 515.386,-131.5 515.386,-112.5 455.386,-112.5"/>
<text text-anchor="middle" x="485.386" y="-119.5" font-family="Helvetica,sans-Serif" font-size="10.00">sys/stat.h</text>
</g>
<!-- Node4&#45;&gt;Node8 -->
<g id="edge7" class="edge"><title>Node4&#45;&gt;Node8</title>
<path fill="none" stroke="midnightblue" d="M485.386,-168.083C485.386,-161.006 485.386,-150.861 485.386,-141.986"/>
<polygon fill="midnightblue" stroke="midnightblue" points="488.886,-141.751 485.386,-131.751 481.886,-141.751 488.886,-141.751"/>
</g>
<!-- Node9 -->
<g id="node9" class="node"><title>Node9</title>
<polygon fill="none" stroke="#bfbfbf" points="533.386,-112.5 533.386,-131.5 595.386,-131.5 595.386,-112.5 533.386,-112.5"/>
<text text-anchor="middle" x="564.386" y="-119.5" font-family="Helvetica,sans-Serif" font-size="10.00">sys/fcntl.h</text>
</g>
<!-- Node4&#45;&gt;Node9 -->
<g id="edge8" class="edge"><title>Node4&#45;&gt;Node9</title>
<path fill="none" stroke="midnightblue" d="M498.079,-168.324C510.287,-159.979 528.965,-147.212 543.389,-137.352"/>
<polygon fill="midnightblue" stroke="midnightblue" points="545.445,-140.187 551.725,-131.655 541.494,-134.408 545.445,-140.187"/>
</g>
<!-- Node10 -->
<g id="node10" class="node"><title>Node10</title>
<polygon fill="none" stroke="#bfbfbf" points="613.386,-112.5 613.386,-131.5 683.386,-131.5 683.386,-112.5 613.386,-112.5"/>
<text text-anchor="middle" x="648.386" y="-119.5" font-family="Helvetica,sans-Serif" font-size="10.00">sys/inotify.h</text>
</g>
<!-- Node4&#45;&gt;Node10 -->
<g id="edge9" class="edge"><title>Node4&#45;&gt;Node10</title>
<path fill="none" stroke="midnightblue" d="M508.395,-169.378C535.555,-160.38 581.035,-145.313 612.76,-134.803"/>
<polygon fill="midnightblue" stroke="midnightblue" points="614.145,-138.031 622.537,-131.564 611.943,-131.386 614.145,-138.031"/>
</g>
<!-- Node11 -->
<g id="node11" class="node"><title>Node11</title>
<polygon fill="none" stroke="#bfbfbf" points="13.3863,-112.5 13.3863,-131.5 57.3863,-131.5 57.3863,-112.5 13.3863,-112.5"/>
<text text-anchor="middle" x="35.3863" y="-119.5" font-family="Helvetica,sans-Serif" font-size="10.00">vector</text>
</g>
<!-- Node4&#45;&gt;Node11 -->
<g id="edge10" class="edge"><title>Node4&#45;&gt;Node11</title>
<path fill="none" stroke="midnightblue" d="M462.005,-175.93C399.471,-172.767 223.124,-161.864 67.82,-131.96"/>
<polygon fill="midnightblue" stroke="midnightblue" points="68.1085,-128.45 57.6222,-129.962 66.763,-135.319 68.1085,-128.45"/>
</g>
<!-- Node12 -->
<g id="node12" class="node"><title>Node12</title>
<polygon fill="none" stroke="#bfbfbf" points="933.886,-112.5 933.886,-131.5 968.886,-131.5 968.886,-112.5 933.886,-112.5"/>
<text text-anchor="middle" x="951.386" y="-119.5" font-family="Helvetica,sans-Serif" font-size="10.00">map</text>
</g>
<!-- Node4&#45;&gt;Node12 -->
<g id="edge11" class="edge"><title>Node4&#45;&gt;Node12</title>
<path fill="none" stroke="midnightblue" d="M508.495,-174.322C586.436,-165.29 839.467,-135.969 923.772,-126.2"/>
<polygon fill="midnightblue" stroke="midnightblue" points="924.325,-129.659 933.856,-125.031 923.52,-122.706 924.325,-129.659"/>
</g>
<!-- Node13 -->
<g id="node13" class="node"><title>Node13</title>
<g id="a_node13"><a xlink:href="_closable_8h.html" target="_top" xlink:title="Closable.h">
<polygon fill="none" stroke="black" points="75.8863,-112.5 75.8863,-131.5 138.886,-131.5 138.886,-112.5 75.8863,-112.5"/>
<text text-anchor="middle" x="107.386" y="-119.5" font-family="Helvetica,sans-Serif" font-size="10.00">Closable.h</text>
</a>
</g>
</g>
<!-- Node4&#45;&gt;Node13 -->
<g id="edge13" class="edge"><title>Node4&#45;&gt;Node13</title>
<path fill="none" stroke="midnightblue" d="M461.995,-174.556C408.494,-168.823 272.923,-153.478 149.147,-131.998"/>
<polygon fill="midnightblue" stroke="midnightblue" points="149.573,-128.519 139.119,-130.239 148.364,-135.414 149.573,-128.519"/>
</g>
<!-- Node14 -->
<g id="node14" class="node"><title>Node14</title>
<g id="a_node14"><a xlink:href="_string_8h.html" target="_top" xlink:title="String.h">
<polygon fill="none" stroke="black" points="814.386,-56.5 814.386,-75.5 864.386,-75.5 864.386,-56.5 814.386,-56.5"/>
<text text-anchor="middle" x="839.386" y="-63.5" font-family="Helvetica,sans-Serif" font-size="10.00">String.h</text>
</a>
</g>
</g>
<!-- Node4&#45;&gt;Node14 -->
<g id="edge14" class="edge"><title>Node4&#45;&gt;Node14</title>
<path fill="none" stroke="midnightblue" d="M508.744,-177.259C557.84,-176.953 674.378,-171.712 761.386,-132 786.553,-120.514 810.177,-98.6824 824.692,-83.5067"/>
<polygon fill="midnightblue" stroke="midnightblue" points="827.54,-85.5822 831.77,-75.8684 822.406,-80.8241 827.54,-85.5822"/>
</g>
<!-- Node4&#45;&gt;Node16 -->
<g id="edge16" class="edge"><title>Node4&#45;&gt;Node16</title>
<path fill="none" stroke="midnightblue" d="M508.424,-172.287C545.068,-164.728 619.104,-149.197 691.992,-132.021"/>
<polygon fill="midnightblue" stroke="midnightblue" points="692.876,-135.408 701.8,-129.698 691.262,-128.597 692.876,-135.408"/>
</g>
<!-- Node15 -->
<g id="node15" class="node"><title>Node15</title>
<polygon fill="none" stroke="#bfbfbf" points="818.886,-0.5 818.886,-19.5 859.886,-19.5 859.886,-0.5 818.886,-0.5"/>
<text text-anchor="middle" x="839.386" y="-7.5" font-family="Helvetica,sans-Serif" font-size="10.00">string</text>
</g>
<!-- Node14&#45;&gt;Node15 -->
<g id="edge15" class="edge"><title>Node14&#45;&gt;Node15</title>
<path fill="none" stroke="midnightblue" d="M839.386,-56.083C839.386,-49.0059 839.386,-38.8611 839.386,-29.9865"/>
<polygon fill="midnightblue" stroke="midnightblue" points="842.886,-29.751 839.386,-19.7511 835.886,-29.7511 842.886,-29.751"/>
</g>
<!-- Node16&#45;&gt;Node3 -->
<g id="edge17" class="edge"><title>Node16&#45;&gt;Node3</title>
<path fill="none" stroke="midnightblue" d="M701.864,-113.997C698.687,-113.256 695.472,-112.567 692.386,-112 560.657,-87.7949 402.03,-74.6452 330.152,-69.5383"/>
<polygon fill="midnightblue" stroke="midnightblue" points="330.003,-66.0195 319.784,-68.815 329.516,-73.0025 330.003,-66.0195"/>
</g>
<!-- Node16&#45;&gt;Node14 -->
<g id="edge18" class="edge"><title>Node16&#45;&gt;Node14</title>
<path fill="none" stroke="midnightblue" d="M745.381,-112.324C763.424,-103.625 791.433,-90.1202 812.189,-80.113"/>
<polygon fill="midnightblue" stroke="midnightblue" points="813.949,-83.1502 821.436,-75.6545 810.908,-76.8449 813.949,-83.1502"/>
</g>
<!-- Node17 -->
<g id="node17" class="node"><title>Node17</title>
<g id="a_node17"><a xlink:href="_should_delete_8h.html" target="_top" xlink:title="ShouldDelete.h">
<polygon fill="none" stroke="black" points="685.886,-56.5 685.886,-75.5 768.886,-75.5 768.886,-56.5 685.886,-56.5"/>
<text text-anchor="middle" x="727.386" y="-63.5" font-family="Helvetica,sans-Serif" font-size="10.00">ShouldDelete.h</text>
</a>
</g>
</g>
<!-- Node16&#45;&gt;Node17 -->
<g id="edge19" class="edge"><title>Node16&#45;&gt;Node17</title>
<path fill="none" stroke="midnightblue" d="M727.386,-112.083C727.386,-105.006 727.386,-94.8611 727.386,-85.9865"/>
<polygon fill="midnightblue" stroke="midnightblue" points="730.886,-85.751 727.386,-75.7511 723.886,-85.7511 730.886,-85.751"/>
</g>
<!-- Node18&#45;&gt;Node2 -->
<g id="edge23" class="edge"><title>Node18&#45;&gt;Node2</title>
<path fill="none" stroke="midnightblue" d="M914.603,-174.101C963.255,-168.549 1060.06,-154.888 1084.39,-132 1096.95,-120.176 1101.36,-100.545 1102.82,-85.9457"/>
<polygon fill="midnightblue" stroke="midnightblue" points="1106.34,-85.7597 1103.47,-75.5608 1099.36,-85.323 1106.34,-85.7597"/>
</g>
<!-- Node18&#45;&gt;Node14 -->
<g id="edge25" class="edge"><title>Node18&#45;&gt;Node14</title>
<path fill="none" stroke="midnightblue" d="M882.698,-168.368C875.045,-150.456 857.299,-108.923 847.055,-84.9482"/>
<polygon fill="midnightblue" stroke="midnightblue" points="850.205,-83.412 843.057,-75.5914 843.768,-86.1624 850.205,-83.412"/>
</g>
<!-- Node19 -->
<g id="node19" class="node"><title>Node19</title>
<polygon fill="none" stroke="#bfbfbf" points="920.886,-56.5 920.886,-75.5 993.886,-75.5 993.886,-56.5 920.886,-56.5"/>
<text text-anchor="middle" x="957.386" y="-63.5" font-family="Helvetica,sans-Serif" font-size="10.00">event2/dns.h</text>
</g>
<!-- Node18&#45;&gt;Node19 -->
<g id="edge22" class="edge"><title>Node18&#45;&gt;Node19</title>
<path fill="none" stroke="midnightblue" d="M891.031,-168.416C897.933,-155.814 911.474,-131.67 924.386,-112 930.633,-102.484 938.098,-92.2231 944.346,-83.9061"/>
<polygon fill="midnightblue" stroke="midnightblue" points="947.265,-85.8496 950.534,-75.7715 941.694,-81.6117 947.265,-85.8496"/>
</g>
<!-- Node20 -->
<g id="node20" class="node"><title>Node20</title>
<polygon fill="none" stroke="#bfbfbf" points="809.386,-112.5 809.386,-131.5 839.386,-131.5 839.386,-112.5 809.386,-112.5"/>
<text text-anchor="middle" x="824.386" y="-119.5" font-family="Helvetica,sans-Serif" font-size="10.00">set</text>
</g>
<!-- Node18&#45;&gt;Node20 -->
<g id="edge24" class="edge"><title>Node18&#45;&gt;Node20</title>
<path fill="none" stroke="midnightblue" d="M876.425,-168.324C867.26,-160.341 853.449,-148.313 842.358,-138.653"/>
<polygon fill="midnightblue" stroke="midnightblue" points="844.369,-135.762 834.529,-131.834 839.771,-141.041 844.369,-135.762"/>
</g>
<!-- Node21 -->
<g id="node21" class="node"><title>Node21</title>
<g id="a_node21"><a xlink:href="_event_8h.html" target="_top" xlink:title="Event.h">
<polygon fill="none" stroke="black" points="1025.39,-112.5 1025.39,-131.5 1075.39,-131.5 1075.39,-112.5 1025.39,-112.5"/>
<text text-anchor="middle" x="1050.39" y="-119.5" font-family="Helvetica,sans-Serif" font-size="10.00">Event.h</text>
</a>
</g>
</g>
<!-- Node18&#45;&gt;Node21 -->
<g id="edge26" class="edge"><title>Node18&#45;&gt;Node21</title>
<path fill="none" stroke="midnightblue" d="M912.373,-168.444C940.327,-159.239 984.917,-144.557 1015.82,-134.383"/>
<polygon fill="midnightblue" stroke="midnightblue" points="1016.92,-137.703 1025.33,-131.251 1014.74,-131.054 1016.92,-137.703"/>
</g>
<!-- Node21&#45;&gt;Node2 -->
<g id="edge28" class="edge"><title>Node21&#45;&gt;Node2</title>
<path fill="none" stroke="midnightblue" d="M1059.14,-112.083C1066.86,-104.22 1078.29,-92.5688 1087.6,-83.0813"/>
<polygon fill="midnightblue" stroke="midnightblue" points="1090.29,-85.3396 1094.8,-75.7511 1085.29,-80.4363 1090.29,-85.3396"/>
</g>
<!-- Node21&#45;&gt;Node19 -->
<g id="edge27" class="edge"><title>Node21&#45;&gt;Node19</title>
<path fill="none" stroke="midnightblue" d="M1035.44,-112.324C1020.8,-103.822 998.253,-90.7288 981.149,-80.7975"/>
<polygon fill="midnightblue" stroke="midnightblue" points="982.697,-77.6491 972.291,-75.6545 979.182,-83.7027 982.697,-77.6491"/>
</g>
<!-- Node22&#45;&gt;Node12 -->
<g id="edge30" class="edge"><title>Node22&#45;&gt;Node12</title>
<path fill="none" stroke="midnightblue" d="M1011.82,-168.324C1000.97,-160.185 984.506,-147.839 971.503,-138.087"/>
<polygon fill="midnightblue" stroke="midnightblue" points="973.265,-135.034 963.165,-131.834 969.065,-140.634 973.265,-135.034"/>
</g>
<!-- Node22&#45;&gt;Node14 -->
<g id="edge33" class="edge"><title>Node22&#45;&gt;Node14</title>
<path fill="none" stroke="midnightblue" d="M1019.59,-168.5C1012.99,-154.655 998.087,-127.254 977.386,-112 946.718,-89.4 904.146,-77.7993 874.425,-72.0883"/>
<polygon fill="midnightblue" stroke="midnightblue" points="874.95,-68.6266 864.489,-70.3055 873.714,-75.5166 874.95,-68.6266"/>
</g>
<!-- Node22&#45;&gt;Node21 -->
<g id="edge34" class="edge"><title>Node22&#45;&gt;Node21</title>
<path fill="none" stroke="midnightblue" d="M1027.84,-168.083C1031.54,-160.691 1036.91,-149.953 1041.48,-140.811"/>
<polygon fill="midnightblue" stroke="midnightblue" points="1044.67,-142.261 1046.01,-131.751 1038.41,-139.13 1044.67,-142.261"/>
</g>
<!-- Node23 -->
<g id="node23" class="node"><title>Node23</title>
<polygon fill="none" stroke="#bfbfbf" points="1131.89,-112.5 1131.89,-131.5 1180.89,-131.5 1180.89,-112.5 1131.89,-112.5"/>
<text text-anchor="middle" x="1156.39" y="-119.5" font-family="Helvetica,sans-Serif" font-size="10.00">stdint.h</text>
</g>
<!-- Node22&#45;&gt;Node23 -->
<g id="edge31" class="edge"><title>Node22&#45;&gt;Node23</title>
<path fill="none" stroke="midnightblue" d="M1044.46,-168.444C1066.45,-159.517 1101.12,-145.439 1126.05,-135.317"/>
<polygon fill="midnightblue" stroke="midnightblue" points="1127.46,-138.521 1135.41,-131.516 1124.83,-132.035 1127.46,-138.521"/>
</g>
<!-- Node24 -->
<g id="node24" class="node"><title>Node24</title>
<polygon fill="none" stroke="#bfbfbf" points="1198.89,-112.5 1198.89,-131.5 1255.89,-131.5 1255.89,-112.5 1198.89,-112.5"/>
<text text-anchor="middle" x="1227.39" y="-119.5" font-family="Helvetica,sans-Serif" font-size="10.00">pthread.h</text>
</g>
<!-- Node22&#45;&gt;Node24 -->
<g id="edge32" class="edge"><title>Node22&#45;&gt;Node24</title>
<path fill="none" stroke="midnightblue" d="M1050.9,-169.717C1086.49,-160.296 1148.69,-143.832 1188.94,-133.177"/>
<polygon fill="midnightblue" stroke="midnightblue" points="1189.9,-136.544 1198.67,-130.601 1188.11,-129.777 1189.9,-136.544"/>
</g>
</g>
</svg>
