<?xml version="1.0" encoding="UTF-8" standalone="no"?>
<!DOCTYPE svg PUBLIC "-//W3C//DTD SVG 1.1//EN"
 "http://www.w3.org/Graphics/SVG/1.1/DTD/svg11.dtd">
<!-- Generated by graphviz version 2.34.0 (20140110.0949)
 -->
<!-- Title: include/Postgres.h Pages: 1 -->
<svg width="632pt" height="308pt"
 viewBox="0.00 0.00 632.00 308.00" xmlns="http://www.w3.org/2000/svg" xmlns:xlink="http://www.w3.org/1999/xlink">
<g id="graph0" class="graph" transform="scale(1 1) rotate(0) translate(4 304)">
<title>include/Postgres.h</title>
<!-- Node1 -->
<g id="node1" class="node"><title>Node1</title>
<polygon fill="#bfbfbf" stroke="black" points="142,-280.5 142,-299.5 240,-299.5 240,-280.5 142,-280.5"/>
<text text-anchor="middle" x="191" y="-287.5" font-family="Helvetica,sans-Serif" font-size="10.00">include/Postgres.h</text>
</g>
<!-- Node2 -->
<g id="node2" class="node"><title>Node2</title>
<polygon fill="none" stroke="#bfbfbf" points="0,-224.5 0,-243.5 56,-243.5 56,-224.5 0,-224.5"/>
<text text-anchor="middle" x="28" y="-231.5" font-family="Helvetica,sans-Serif" font-size="10.00">libpq&#45;fe.h</text>
</g>
<!-- Node1&#45;&gt;Node2 -->
<g id="edge1" class="edge"><title>Node1&#45;&gt;Node2</title>
<path fill="none" stroke="midnightblue" d="M165.172,-280.444C137.751,-271.359 94.2225,-256.939 63.5676,-246.783"/>
<polygon fill="midnightblue" stroke="midnightblue" points="64.3003,-243.339 53.707,-243.516 62.0989,-249.984 64.3003,-243.339"/>
</g>
<!-- Node3 -->
<g id="node3" class="node"><title>Node3</title>
<polygon fill="none" stroke="#bfbfbf" points="186.5,-0.5 186.5,-19.5 267.5,-19.5 267.5,-0.5 186.5,-0.5"/>
<text text-anchor="middle" x="227" y="-7.5" font-family="Helvetica,sans-Serif" font-size="10.00">event2/event.h</text>
</g>
<!-- Node1&#45;&gt;Node3 -->
<g id="edge2" class="edge"><title>Node1&#45;&gt;Node3</title>
<path fill="none" stroke="midnightblue" d="M160.926,-280.459C141.783,-273.556 117.877,-261.98 103,-244 83.8128,-220.811 84,-209.098 84,-179 84,-179 84,-179 84,-121 84,-68.8404 144.511,-37.9938 186.808,-22.8035"/>
<polygon fill="midnightblue" stroke="midnightblue" points="188.002,-26.0941 196.323,-19.536 185.728,-19.4735 188.002,-26.0941"/>
</g>
<!-- Node4 -->
<g id="node4" class="node"><title>Node4</title>
<polygon fill="none" stroke="#bfbfbf" points="112.5,-224.5 112.5,-243.5 155.5,-243.5 155.5,-224.5 112.5,-224.5"/>
<text text-anchor="middle" x="134" y="-231.5" font-family="Helvetica,sans-Serif" font-size="10.00">deque</text>
</g>
<!-- Node1&#45;&gt;Node4 -->
<g id="edge3" class="edge"><title>Node1&#45;&gt;Node4</title>
<path fill="none" stroke="midnightblue" d="M181.842,-280.324C173.499,-272.42 160.968,-260.548 150.823,-250.938"/>
<polygon fill="midnightblue" stroke="midnightblue" points="152.991,-248.171 143.325,-243.834 148.177,-253.252 152.991,-248.171"/>
</g>
<!-- Node5 -->
<g id="node5" class="node"><title>Node5</title>
<polygon fill="none" stroke="#bfbfbf" points="173.5,-224.5 173.5,-243.5 208.5,-243.5 208.5,-224.5 173.5,-224.5"/>
<text text-anchor="middle" x="191" y="-231.5" font-family="Helvetica,sans-Serif" font-size="10.00">map</text>
</g>
<!-- Node1&#45;&gt;Node5 -->
<g id="edge4" class="edge"><title>Node1&#45;&gt;Node5</title>
<path fill="none" stroke="midnightblue" d="M191,-280.083C191,-273.006 191,-262.861 191,-253.986"/>
<polygon fill="midnightblue" stroke="midnightblue" points="194.5,-253.751 191,-243.751 187.5,-253.751 194.5,-253.751"/>
</g>
<!-- Node6 -->
<g id="node6" class="node"><title>Node6</title>
<g id="a_node6"><a xlink:href="defines_8h.html" target="_top" xlink:title="defines.h">
<polygon fill="none" stroke="black" points="124,-112.5 124,-131.5 180,-131.5 180,-112.5 124,-112.5"/>
<text text-anchor="middle" x="152" y="-119.5" font-family="Helvetica,sans-Serif" font-size="10.00">defines.h</text>
</a>
</g>
</g>
<!-- Node1&#45;&gt;Node6 -->
<g id="edge5" class="edge"><title>Node1&#45;&gt;Node6</title>
<path fill="none" stroke="midnightblue" d="M198.47,-280.355C208.148,-268.073 223.102,-244.756 217,-224 207.208,-190.691 182.658,-157.986 166.689,-139.189"/>
<polygon fill="midnightblue" stroke="midnightblue" points="169.255,-136.806 160.039,-131.579 163.983,-141.412 169.255,-136.806"/>
</g>
<!-- Node7 -->
<g id="node7" class="node"><title>Node7</title>
<g id="a_node7"><a xlink:href="_database_8h.html" target="_top" xlink:title="Database.h">
<polygon fill="none" stroke="black" points="348.5,-168.5 348.5,-187.5 415.5,-187.5 415.5,-168.5 348.5,-168.5"/>
<text text-anchor="middle" x="382" y="-175.5" font-family="Helvetica,sans-Serif" font-size="10.00">Database.h</text>
</a>
</g>
</g>
<!-- Node1&#45;&gt;Node7 -->
<g id="edge6" class="edge"><title>Node1&#45;&gt;Node7</title>
<path fill="none" stroke="midnightblue" d="M240.189,-287.239C276.546,-283.445 325.079,-272.807 357,-244 370.304,-231.994 376.583,-212.101 379.512,-197.479"/>
<polygon fill="midnightblue" stroke="midnightblue" points="382.976,-197.98 381.159,-187.542 376.071,-196.835 382.976,-197.98"/>
</g>
<!-- Node18 -->
<g id="node18" class="node"><title>Node18</title>
<g id="a_node18"><a xlink:href="_backoff_timer_8h.html" target="_top" xlink:title="BackoffTimer.h">
<polygon fill="none" stroke="black" points="265.5,-224.5 265.5,-243.5 348.5,-243.5 348.5,-224.5 265.5,-224.5"/>
<text text-anchor="middle" x="307" y="-231.5" font-family="Helvetica,sans-Serif" font-size="10.00">BackoffTimer.h</text>
</a>
</g>
</g>
<!-- Node1&#45;&gt;Node18 -->
<g id="edge21" class="edge"><title>Node1&#45;&gt;Node18</title>
<path fill="none" stroke="midnightblue" d="M209.381,-280.444C228.216,-271.675 257.731,-257.935 279.379,-247.858"/>
<polygon fill="midnightblue" stroke="midnightblue" points="281.117,-250.91 288.705,-243.516 278.162,-244.564 281.117,-250.91"/>
</g>
<!-- Node8 -->
<g id="node8" class="node"><title>Node8</title>
<polygon fill="none" stroke="#bfbfbf" points="275.5,-112.5 275.5,-131.5 334.5,-131.5 334.5,-112.5 275.5,-112.5"/>
<text text-anchor="middle" x="305" y="-119.5" font-family="Helvetica,sans-Serif" font-size="10.00">functional</text>
</g>
<!-- Node7&#45;&gt;Node8 -->
<g id="edge7" class="edge"><title>Node7&#45;&gt;Node8</title>
<path fill="none" stroke="midnightblue" d="M369.629,-168.324C357.842,-160.058 339.868,-147.453 325.864,-137.632"/>
<polygon fill="midnightblue" stroke="midnightblue" points="327.538,-134.531 317.341,-131.655 323.518,-140.262 327.538,-134.531"/>
</g>
<!-- Node9 -->
<g id="node9" class="node"><title>Node9</title>
<g id="a_node9"><a xlink:href="_string_8h.html" target="_top" xlink:title="String.h">
<polygon fill="none" stroke="black" points="520,-56.5 520,-75.5 570,-75.5 570,-56.5 520,-56.5"/>
<text text-anchor="middle" x="545" y="-63.5" font-family="Helvetica,sans-Serif" font-size="10.00">String.h</text>
</a>
</g>
</g>
<!-- Node7&#45;&gt;Node9 -->
<g id="edge8" class="edge"><title>Node7&#45;&gt;Node9</title>
<path fill="none" stroke="midnightblue" d="M415.642,-173.959C446.168,-169.523 490.618,-158.645 519,-132 531.993,-119.803 538.631,-100.255 541.932,-85.7772"/>
<polygon fill="midnightblue" stroke="midnightblue" points="545.38,-86.3851 543.856,-75.9004 538.509,-85.0468 545.38,-86.3851"/>
</g>
<!-- Node12 -->
<g id="node12" class="node"><title>Node12</title>
<g id="a_node12"><a xlink:href="_module_8h.html" target="_top" xlink:title="Module.h">
<polygon fill="none" stroke="black" points="353,-112.5 353,-131.5 409,-131.5 409,-112.5 353,-112.5"/>
<text text-anchor="middle" x="381" y="-119.5" font-family="Helvetica,sans-Serif" font-size="10.00">Module.h</text>
</a>
</g>
</g>
<!-- Node7&#45;&gt;Node12 -->
<g id="edge11" class="edge"><title>Node7&#45;&gt;Node12</title>
<path fill="none" stroke="midnightblue" d="M381.835,-168.083C381.704,-161.006 381.516,-150.861 381.352,-141.986"/>
<polygon fill="midnightblue" stroke="midnightblue" points="384.847,-141.685 381.162,-131.751 377.848,-141.814 384.847,-141.685"/>
</g>
<!-- Node17 -->
<g id="node17" class="node"><title>Node17</title>
<g id="a_node17"><a xlink:href="_should_delete_8h.html" target="_top" xlink:title="ShouldDelete.h">
<polygon fill="none" stroke="black" points="427.5,-112.5 427.5,-131.5 510.5,-131.5 510.5,-112.5 427.5,-112.5"/>
<text text-anchor="middle" x="469" y="-119.5" font-family="Helvetica,sans-Serif" font-size="10.00">ShouldDelete.h</text>
</a>
</g>
</g>
<!-- Node7&#45;&gt;Node17 -->
<g id="edge20" class="edge"><title>Node7&#45;&gt;Node17</title>
<path fill="none" stroke="midnightblue" d="M395.978,-168.324C409.55,-159.9 430.38,-146.971 446.325,-137.074"/>
<polygon fill="midnightblue" stroke="midnightblue" points="448.406,-139.902 455.057,-131.655 444.714,-133.954 448.406,-139.902"/>
</g>
<!-- Node10 -->
<g id="node10" class="node"><title>Node10</title>
<polygon fill="none" stroke="#bfbfbf" points="516.5,-0.5 516.5,-19.5 557.5,-19.5 557.5,-0.5 516.5,-0.5"/>
<text text-anchor="middle" x="537" y="-7.5" font-family="Helvetica,sans-Serif" font-size="10.00">string</text>
</g>
<!-- Node9&#45;&gt;Node10 -->
<g id="edge9" class="edge"><title>Node9&#45;&gt;Node10</title>
<path fill="none" stroke="midnightblue" d="M543.679,-56.083C542.619,-48.9272 541.094,-38.6353 539.769,-29.6911"/>
<polygon fill="midnightblue" stroke="midnightblue" points="543.224,-29.1302 538.296,-19.7511 536.3,-30.1561 543.224,-29.1302"/>
</g>
<!-- Node11 -->
<g id="node11" class="node"><title>Node11</title>
<polygon fill="none" stroke="#bfbfbf" points="575.5,-0.5 575.5,-19.5 624.5,-19.5 624.5,-0.5 575.5,-0.5"/>
<text text-anchor="middle" x="600" y="-7.5" font-family="Helvetica,sans-Serif" font-size="10.00">stdint.h</text>
</g>
<!-- Node9&#45;&gt;Node11 -->
<g id="edge10" class="edge"><title>Node9&#45;&gt;Node11</title>
<path fill="none" stroke="midnightblue" d="M554.082,-56.083C562.171,-48.1409 574.195,-36.3354 583.91,-26.7973"/>
<polygon fill="midnightblue" stroke="midnightblue" points="586.403,-29.2545 591.087,-19.7511 581.499,-24.2595 586.403,-29.2545"/>
</g>
<!-- Node12&#45;&gt;Node3 -->
<g id="edge13" class="edge"><title>Node12&#45;&gt;Node3</title>
<path fill="none" stroke="midnightblue" d="M352.859,-112.452C323.099,-103.006 278.603,-87.596 265,-76 250.271,-63.4444 239.868,-43.6691 233.714,-29.2254"/>
<polygon fill="midnightblue" stroke="midnightblue" points="236.927,-27.8321 229.983,-19.83 230.421,-30.4157 236.927,-27.8321"/>
</g>
<!-- Node12&#45;&gt;Node9 -->
<g id="edge16" class="edge"><title>Node12&#45;&gt;Node9</title>
<path fill="none" stroke="midnightblue" d="M406.986,-112.444C434.941,-103.239 479.531,-88.5568 510.43,-78.3829"/>
<polygon fill="midnightblue" stroke="midnightblue" points="511.538,-81.7028 519.942,-75.2508 509.349,-75.0539 511.538,-81.7028"/>
</g>
<!-- Node13 -->
<g id="node13" class="node"><title>Node13</title>
<polygon fill="none" stroke="#bfbfbf" points="417.5,-0.5 417.5,-19.5 490.5,-19.5 490.5,-0.5 417.5,-0.5"/>
<text text-anchor="middle" x="454" y="-7.5" font-family="Helvetica,sans-Serif" font-size="10.00">event2/dns.h</text>
</g>
<!-- Node12&#45;&gt;Node13 -->
<g id="edge12" class="edge"><title>Node12&#45;&gt;Node13</title>
<path fill="none" stroke="midnightblue" d="M405.565,-112.366C430.128,-103.175 465.328,-88.2935 473,-76 482.205,-61.251 474.436,-41.8529 466.231,-28.098"/>
<polygon fill="midnightblue" stroke="midnightblue" points="469.083,-26.063 460.685,-19.6034 463.221,-29.8901 469.083,-26.063"/>
</g>
<!-- Node14 -->
<g id="node14" class="node"><title>Node14</title>
<polygon fill="none" stroke="#bfbfbf" points="274.5,-56.5 274.5,-75.5 347.5,-75.5 347.5,-56.5 274.5,-56.5"/>
<text text-anchor="middle" x="311" y="-63.5" font-family="Helvetica,sans-Serif" font-size="10.00">libconfig.h++</text>
</g>
<!-- Node12&#45;&gt;Node14 -->
<g id="edge14" class="edge"><title>Node12&#45;&gt;Node14</title>
<path fill="none" stroke="midnightblue" d="M369.753,-112.324C359.203,-104.185 343.199,-91.8395 330.558,-82.0874"/>
<polygon fill="midnightblue" stroke="midnightblue" points="332.507,-79.1707 322.451,-75.8339 328.231,-84.7132 332.507,-79.1707"/>
</g>
<!-- Node15 -->
<g id="node15" class="node"><title>Node15</title>
<polygon fill="none" stroke="#bfbfbf" points="366,-56.5 366,-75.5 396,-75.5 396,-56.5 366,-56.5"/>
<text text-anchor="middle" x="381" y="-63.5" font-family="Helvetica,sans-Serif" font-size="10.00">set</text>
</g>
<!-- Node12&#45;&gt;Node15 -->
<g id="edge15" class="edge"><title>Node12&#45;&gt;Node15</title>
<path fill="none" stroke="midnightblue" d="M381,-112.083C381,-105.006 381,-94.8611 381,-85.9865"/>
<polygon fill="midnightblue" stroke="midnightblue" points="384.5,-85.751 381,-75.7511 377.5,-85.7511 384.5,-85.751"/>
</g>
<!-- Node16 -->
<g id="node16" class="node"><title>Node16</title>
<g id="a_node16"><a xlink:href="_event_8h.html" target="_top" xlink:title="Event.h">
<polygon fill="none" stroke="black" points="414,-56.5 414,-75.5 464,-75.5 464,-56.5 414,-56.5"/>
<text text-anchor="middle" x="439" y="-63.5" font-family="Helvetica,sans-Serif" font-size="10.00">Event.h</text>
</a>
</g>
</g>
<!-- Node12&#45;&gt;Node16 -->
<g id="edge17" class="edge"><title>Node12&#45;&gt;Node16</title>
<path fill="none" stroke="midnightblue" d="M390.319,-112.324C398.893,-104.341 411.812,-92.3128 422.188,-82.6529"/>
<polygon fill="midnightblue" stroke="midnightblue" points="424.578,-85.2098 429.512,-75.8339 419.808,-80.0865 424.578,-85.2098"/>
</g>
<!-- Node16&#45;&gt;Node3 -->
<g id="edge19" class="edge"><title>Node16&#45;&gt;Node3</title>
<path fill="none" stroke="midnightblue" d="M413.757,-58.2846C410.806,-57.5095 407.837,-56.7342 405,-56 359.305,-44.1765 306.917,-30.9749 270.868,-21.9455"/>
<polygon fill="midnightblue" stroke="midnightblue" points="271.703,-18.5467 261.153,-19.514 270.004,-25.3372 271.703,-18.5467"/>
</g>
<!-- Node16&#45;&gt;Node13 -->
<g id="edge18" class="edge"><title>Node16&#45;&gt;Node13</title>
<path fill="none" stroke="midnightblue" d="M441.477,-56.083C443.486,-48.8486 446.386,-38.4087 448.89,-29.3968"/>
<polygon fill="midnightblue" stroke="midnightblue" points="452.265,-30.323 451.569,-19.7511 445.52,-28.4495 452.265,-30.323"/>
</g>
<!-- Node19 -->
<g id="node19" class="node"><title>Node19</title>
<g id="a_node19"><a xlink:href="_timer_8h.html" target="_top" xlink:title="Timer.h">
<polygon fill="none" stroke="black" points="280,-168.5 280,-187.5 330,-187.5 330,-168.5 280,-168.5"/>
<text text-anchor="middle" x="305" y="-175.5" font-family="Helvetica,sans-Serif" font-size="10.00">Timer.h</text>
</a>
</g>
</g>
<!-- Node18&#45;&gt;Node19 -->
<g id="edge22" class="edge"><title>Node18&#45;&gt;Node19</title>
<path fill="none" stroke="midnightblue" d="M306.67,-224.083C306.408,-217.006 306.032,-206.861 305.703,-197.986"/>
<polygon fill="midnightblue" stroke="midnightblue" points="309.192,-197.615 305.324,-187.751 302.197,-197.874 309.192,-197.615"/>
</g>
<!-- Node19&#45;&gt;Node3 -->
<g id="edge24" class="edge"><title>Node19&#45;&gt;Node3</title>
<path fill="none" stroke="midnightblue" d="M295.9,-168.438C287.247,-159.891 274.348,-146.04 266,-132 246.241,-98.7681 235.262,-54.3606 230.299,-29.6314"/>
<polygon fill="midnightblue" stroke="midnightblue" points="233.731,-28.9399 228.432,-19.7649 226.853,-30.2413 233.731,-28.9399"/>
</g>
<!-- Node19&#45;&gt;Node6 -->
<g id="edge26" class="edge"><title>Node19&#45;&gt;Node6</title>
<path fill="none" stroke="midnightblue" d="M280.757,-168.444C255.129,-159.399 214.515,-145.064 185.762,-134.916"/>
<polygon fill="midnightblue" stroke="midnightblue" points="186.725,-131.544 176.13,-131.516 184.395,-138.145 186.725,-131.544"/>
</g>
<!-- Node19&#45;&gt;Node8 -->
<g id="edge23" class="edge"><title>Node19&#45;&gt;Node8</title>
<path fill="none" stroke="midnightblue" d="M305,-168.083C305,-161.006 305,-150.861 305,-141.986"/>
<polygon fill="midnightblue" stroke="midnightblue" points="308.5,-141.751 305,-131.751 301.5,-141.751 308.5,-141.751"/>
</g>
<!-- Node19&#45;&gt;Node12 -->
<g id="edge25" class="edge"><title>Node19&#45;&gt;Node12</title>
<path fill="none" stroke="midnightblue" d="M317.211,-168.324C328.776,-160.107 346.375,-147.602 360.161,-137.807"/>
<polygon fill="midnightblue" stroke="midnightblue" points="362.443,-140.479 368.567,-131.834 358.388,-134.773 362.443,-140.479"/>
</g>
</g>
</svg>
