<?xml version="1.0" encoding="UTF-8" standalone="no"?>
<!DOCTYPE svg PUBLIC "-//W3C//DTD SVG 1.1//EN"
 "http://www.w3.org/Graphics/SVG/1.1/DTD/svg11.dtd">
<!-- Generated by graphviz version 2.34.0 (20140110.0949)
 -->
<!-- Title: include/Postgres.h Pages: 1 -->
<svg width="546pt" height="308pt"
 viewBox="0.00 0.00 546.00 308.00" xmlns="http://www.w3.org/2000/svg" xmlns:xlink="http://www.w3.org/1999/xlink">
<g id="graph0" class="graph" transform="scale(1 1) rotate(0) translate(4 304)">
<title>include/Postgres.h</title>
<!-- Node1 -->
<g id="node1" class="node"><title>Node1</title>
<polygon fill="#bfbfbf" stroke="black" points="201,-280.5 201,-299.5 299,-299.5 299,-280.5 201,-280.5"/>
<text text-anchor="middle" x="250" y="-287.5" font-family="Helvetica,sans-Serif" font-size="10.00">include/Postgres.h</text>
</g>
<!-- Node2 -->
<g id="node2" class="node"><title>Node2</title>
<polygon fill="none" stroke="#bfbfbf" points="0,-224.5 0,-243.5 56,-243.5 56,-224.5 0,-224.5"/>
<text text-anchor="middle" x="28" y="-231.5" font-family="Helvetica,sans-Serif" font-size="10.00">libpq&#45;fe.h</text>
</g>
<!-- Node1&#45;&gt;Node2 -->
<g id="edge1" class="edge"><title>Node1&#45;&gt;Node2</title>
<path fill="none" stroke="midnightblue" d="M214.823,-280.444C174.275,-270.58 107.868,-254.427 66.1162,-244.272"/>
<polygon fill="midnightblue" stroke="midnightblue" points="66.8638,-240.851 56.3199,-241.889 65.2093,-247.653 66.8638,-240.851"/>
</g>
<!-- Node3 -->
<g id="node3" class="node"><title>Node3</title>
<polygon fill="none" stroke="#bfbfbf" points="100.5,-0.5 100.5,-19.5 181.5,-19.5 181.5,-0.5 100.5,-0.5"/>
<text text-anchor="middle" x="141" y="-7.5" font-family="Helvetica,sans-Serif" font-size="10.00">event2/event.h</text>
</g>
<!-- Node1&#45;&gt;Node3 -->
<g id="edge2" class="edge"><title>Node1&#45;&gt;Node3</title>
<path fill="none" stroke="midnightblue" d="M208.111,-280.449C158.935,-267.68 84,-238.465 84,-179 84,-179 84,-179 84,-121 84,-84.3005 109.321,-47.6567 126.21,-27.2973"/>
<polygon fill="midnightblue" stroke="midnightblue" points="128.954,-29.475 132.833,-19.6161 123.652,-24.9037 128.954,-29.475"/>
</g>
<!-- Node4 -->
<g id="node4" class="node"><title>Node4</title>
<polygon fill="none" stroke="#bfbfbf" points="278.5,-224.5 278.5,-243.5 321.5,-243.5 321.5,-224.5 278.5,-224.5"/>
<text text-anchor="middle" x="300" y="-231.5" font-family="Helvetica,sans-Serif" font-size="10.00">deque</text>
</g>
<!-- Node1&#45;&gt;Node4 -->
<g id="edge3" class="edge"><title>Node1&#45;&gt;Node4</title>
<path fill="none" stroke="midnightblue" d="M258.256,-280.083C265.465,-272.298 276.11,-260.801 284.846,-251.367"/>
<polygon fill="midnightblue" stroke="midnightblue" points="287.671,-253.467 291.897,-243.751 282.535,-248.711 287.671,-253.467"/>
</g>
<!-- Node5 -->
<g id="node5" class="node"><title>Node5</title>
<polygon fill="none" stroke="#bfbfbf" points="339.5,-224.5 339.5,-243.5 374.5,-243.5 374.5,-224.5 339.5,-224.5"/>
<text text-anchor="middle" x="357" y="-231.5" font-family="Helvetica,sans-Serif" font-size="10.00">map</text>
</g>
<!-- Node1&#45;&gt;Node5 -->
<g id="edge4" class="edge"><title>Node1&#45;&gt;Node5</title>
<path fill="none" stroke="midnightblue" d="M267.191,-280.324C284.351,-271.664 310.946,-258.242 330.747,-248.249"/>
<polygon fill="midnightblue" stroke="midnightblue" points="332.501,-251.285 339.851,-243.655 329.347,-245.035 332.501,-251.285"/>
</g>
<!-- Node6 -->
<g id="node6" class="node"><title>Node6</title>
<g id="a_node6"><a xlink:href="defines_8h.html" target="_top" xlink:title="defines.h">
<polygon fill="none" stroke="black" points="393,-224.5 393,-243.5 449,-243.5 449,-224.5 393,-224.5"/>
<text text-anchor="middle" x="421" y="-231.5" font-family="Helvetica,sans-Serif" font-size="10.00">defines.h</text>
</a>
</g>
</g>
<!-- Node1&#45;&gt;Node6 -->
<g id="edge5" class="edge"><title>Node1&#45;&gt;Node6</title>
<path fill="none" stroke="midnightblue" d="M277.095,-280.444C305.988,-271.32 351.925,-256.813 384.105,-246.651"/>
<polygon fill="midnightblue" stroke="midnightblue" points="385.549,-249.865 394.031,-243.516 383.441,-243.19 385.549,-249.865"/>
</g>
<!-- Node7 -->
<g id="node7" class="node"><title>Node7</title>
<g id="a_node7"><a xlink:href="_database_8h.html" target="_top" xlink:title="Database.h">
<polygon fill="none" stroke="black" points="302.5,-168.5 302.5,-187.5 369.5,-187.5 369.5,-168.5 302.5,-168.5"/>
<text text-anchor="middle" x="336" y="-175.5" font-family="Helvetica,sans-Serif" font-size="10.00">Database.h</text>
</a>
</g>
</g>
<!-- Node1&#45;&gt;Node7 -->
<g id="edge6" class="edge"><title>Node1&#45;&gt;Node7</title>
<path fill="none" stroke="midnightblue" d="M250.85,-280.181C252.518,-266.851 257.246,-241.294 270,-224 279.737,-210.797 294.567,-200.188 307.704,-192.594"/>
<polygon fill="midnightblue" stroke="midnightblue" points="309.764,-195.458 316.874,-187.604 306.418,-189.31 309.764,-195.458"/>
</g>
<!-- Node18 -->
<g id="node18" class="node"><title>Node18</title>
<g id="a_node18"><a xlink:href="_backoff_timer_8h.html" target="_top" xlink:title="BackoffTimer.h">
<polygon fill="none" stroke="black" points="138.5,-224.5 138.5,-243.5 221.5,-243.5 221.5,-224.5 138.5,-224.5"/>
<text text-anchor="middle" x="180" y="-231.5" font-family="Helvetica,sans-Serif" font-size="10.00">BackoffTimer.h</text>
</a>
</g>
</g>
<!-- Node1&#45;&gt;Node18 -->
<g id="edge21" class="edge"><title>Node1&#45;&gt;Node18</title>
<path fill="none" stroke="midnightblue" d="M238.753,-280.324C228.203,-272.185 212.199,-259.839 199.558,-250.087"/>
<polygon fill="midnightblue" stroke="midnightblue" points="201.507,-247.171 191.451,-243.834 197.231,-252.713 201.507,-247.171"/>
</g>
<!-- Node8 -->
<g id="node8" class="node"><title>Node8</title>
<polygon fill="none" stroke="#bfbfbf" points="306.5,-112.5 306.5,-131.5 365.5,-131.5 365.5,-112.5 306.5,-112.5"/>
<text text-anchor="middle" x="336" y="-119.5" font-family="Helvetica,sans-Serif" font-size="10.00">functional</text>
</g>
<!-- Node7&#45;&gt;Node8 -->
<g id="edge7" class="edge"><title>Node7&#45;&gt;Node8</title>
<path fill="none" stroke="midnightblue" d="M336,-168.083C336,-161.006 336,-150.861 336,-141.986"/>
<polygon fill="midnightblue" stroke="midnightblue" points="339.5,-141.751 336,-131.751 332.5,-141.751 339.5,-141.751"/>
</g>
<!-- Node9 -->
<g id="node9" class="node"><title>Node9</title>
<g id="a_node9"><a xlink:href="_string_8h.html" target="_top" xlink:title="String.h">
<polygon fill="none" stroke="black" points="434,-56.5 434,-75.5 484,-75.5 484,-56.5 434,-56.5"/>
<text text-anchor="middle" x="459" y="-63.5" font-family="Helvetica,sans-Serif" font-size="10.00">String.h</text>
</a>
</g>
</g>
<!-- Node7&#45;&gt;Node9 -->
<g id="edge8" class="edge"><title>Node7&#45;&gt;Node9</title>
<path fill="none" stroke="midnightblue" d="M345.652,-168.368C366.399,-149.814 415.488,-105.913 441.738,-82.4376"/>
<polygon fill="midnightblue" stroke="midnightblue" points="444.272,-84.8665 449.393,-75.5914 439.606,-79.6487 444.272,-84.8665"/>
</g>
<!-- Node12 -->
<g id="node12" class="node"><title>Node12</title>
<g id="a_node12"><a xlink:href="_module_8h.html" target="_top" xlink:title="Module.h">
<polygon fill="none" stroke="black" points="232,-112.5 232,-131.5 288,-131.5 288,-112.5 232,-112.5"/>
<text text-anchor="middle" x="260" y="-119.5" font-family="Helvetica,sans-Serif" font-size="10.00">Module.h</text>
</a>
</g>
</g>
<!-- Node7&#45;&gt;Node12 -->
<g id="edge11" class="edge"><title>Node7&#45;&gt;Node12</title>
<path fill="none" stroke="midnightblue" d="M323.789,-168.324C312.224,-160.107 294.625,-147.602 280.839,-137.807"/>
<polygon fill="midnightblue" stroke="midnightblue" points="282.612,-134.773 272.433,-131.834 278.557,-140.479 282.612,-134.773"/>
</g>
<!-- Node17 -->
<g id="node17" class="node"><title>Node17</title>
<g id="a_node17"><a xlink:href="_should_delete_8h.html" target="_top" xlink:title="ShouldDelete.h">
<polygon fill="none" stroke="black" points="422.5,-112.5 422.5,-131.5 505.5,-131.5 505.5,-112.5 422.5,-112.5"/>
<text text-anchor="middle" x="464" y="-119.5" font-family="Helvetica,sans-Serif" font-size="10.00">ShouldDelete.h</text>
</a>
</g>
</g>
<!-- Node7&#45;&gt;Node17 -->
<g id="edge20" class="edge"><title>Node7&#45;&gt;Node17</title>
<path fill="none" stroke="midnightblue" d="M356.282,-168.444C377.347,-159.557 410.517,-145.563 434.486,-135.451"/>
<polygon fill="midnightblue" stroke="midnightblue" points="435.96,-138.628 443.813,-131.516 433.239,-132.179 435.96,-138.628"/>
</g>
<!-- Node10 -->
<g id="node10" class="node"><title>Node10</title>
<polygon fill="none" stroke="#bfbfbf" points="430.5,-0.5 430.5,-19.5 471.5,-19.5 471.5,-0.5 430.5,-0.5"/>
<text text-anchor="middle" x="451" y="-7.5" font-family="Helvetica,sans-Serif" font-size="10.00">string</text>
</g>
<!-- Node9&#45;&gt;Node10 -->
<g id="edge9" class="edge"><title>Node9&#45;&gt;Node10</title>
<path fill="none" stroke="midnightblue" d="M457.679,-56.083C456.619,-48.9272 455.094,-38.6353 453.769,-29.6911"/>
<polygon fill="midnightblue" stroke="midnightblue" points="457.224,-29.1302 452.296,-19.7511 450.3,-30.1561 457.224,-29.1302"/>
</g>
<!-- Node11 -->
<g id="node11" class="node"><title>Node11</title>
<polygon fill="none" stroke="#bfbfbf" points="489.5,-0.5 489.5,-19.5 538.5,-19.5 538.5,-0.5 489.5,-0.5"/>
<text text-anchor="middle" x="514" y="-7.5" font-family="Helvetica,sans-Serif" font-size="10.00">stdint.h</text>
</g>
<!-- Node9&#45;&gt;Node11 -->
<g id="edge10" class="edge"><title>Node9&#45;&gt;Node11</title>
<path fill="none" stroke="midnightblue" d="M468.082,-56.083C476.171,-48.1409 488.195,-36.3354 497.91,-26.7973"/>
<polygon fill="midnightblue" stroke="midnightblue" points="500.403,-29.2545 505.087,-19.7511 495.499,-24.2595 500.403,-29.2545"/>
</g>
<!-- Node12&#45;&gt;Node3 -->
<g id="edge13" class="edge"><title>Node12&#45;&gt;Node3</title>
<path fill="none" stroke="midnightblue" d="M237.645,-112.467C220.103,-104.92 195.904,-92.5371 179,-76 165.3,-62.5968 154.827,-43.224 148.38,-29.1167"/>
<polygon fill="midnightblue" stroke="midnightblue" points="151.423,-27.3356 144.247,-19.5413 144.996,-30.1096 151.423,-27.3356"/>
</g>
<!-- Node12&#45;&gt;Node9 -->
<g id="edge16" class="edge"><title>Node12&#45;&gt;Node9</title>
<path fill="none" stroke="midnightblue" d="M288.09,-113.378C323.79,-103.69 385.414,-86.9679 424.097,-76.4712"/>
<polygon fill="midnightblue" stroke="midnightblue" points="425.148,-79.8126 433.882,-73.8158 423.315,-73.0569 425.148,-79.8126"/>
</g>
<!-- Node13 -->
<g id="node13" class="node"><title>Node13</title>
<polygon fill="none" stroke="#bfbfbf" points="331.5,-0.5 331.5,-19.5 404.5,-19.5 404.5,-0.5 331.5,-0.5"/>
<text text-anchor="middle" x="368" y="-7.5" font-family="Helvetica,sans-Serif" font-size="10.00">event2/dns.h</text>
</g>
<!-- Node12&#45;&gt;Node13 -->
<g id="edge12" class="edge"><title>Node12&#45;&gt;Node13</title>
<path fill="none" stroke="midnightblue" d="M288.019,-112.936C323.589,-102.42 381.077,-84.3819 387,-76 397.033,-61.8013 389.135,-42.3178 380.674,-28.3925"/>
<polygon fill="midnightblue" stroke="midnightblue" points="383.393,-26.1604 374.94,-19.7731 377.565,-30.0377 383.393,-26.1604"/>
</g>
<!-- Node14 -->
<g id="node14" class="node"><title>Node14</title>
<polygon fill="none" stroke="#bfbfbf" points="188.5,-56.5 188.5,-75.5 261.5,-75.5 261.5,-56.5 188.5,-56.5"/>
<text text-anchor="middle" x="225" y="-63.5" font-family="Helvetica,sans-Serif" font-size="10.00">libconfig.h++</text>
</g>
<!-- Node12&#45;&gt;Node14 -->
<g id="edge14" class="edge"><title>Node12&#45;&gt;Node14</title>
<path fill="none" stroke="midnightblue" d="M254.22,-112.083C249.328,-104.534 242.173,-93.4948 236.167,-84.2298"/>
<polygon fill="midnightblue" stroke="midnightblue" points="239.048,-82.239 230.672,-75.7511 233.174,-86.0463 239.048,-82.239"/>
</g>
<!-- Node15 -->
<g id="node15" class="node"><title>Node15</title>
<polygon fill="none" stroke="#bfbfbf" points="280,-56.5 280,-75.5 310,-75.5 310,-56.5 280,-56.5"/>
<text text-anchor="middle" x="295" y="-63.5" font-family="Helvetica,sans-Serif" font-size="10.00">set</text>
</g>
<!-- Node12&#45;&gt;Node15 -->
<g id="edge15" class="edge"><title>Node12&#45;&gt;Node15</title>
<path fill="none" stroke="midnightblue" d="M265.78,-112.083C270.672,-104.534 277.827,-93.4948 283.833,-84.2298"/>
<polygon fill="midnightblue" stroke="midnightblue" points="286.826,-86.0463 289.328,-75.7511 280.952,-82.239 286.826,-86.0463"/>
</g>
<!-- Node16 -->
<g id="node16" class="node"><title>Node16</title>
<g id="a_node16"><a xlink:href="_event_8h.html" target="_top" xlink:title="Event.h">
<polygon fill="none" stroke="black" points="328,-56.5 328,-75.5 378,-75.5 378,-56.5 328,-56.5"/>
<text text-anchor="middle" x="353" y="-63.5" font-family="Helvetica,sans-Serif" font-size="10.00">Event.h</text>
</a>
</g>
</g>
<!-- Node12&#45;&gt;Node16 -->
<g id="edge17" class="edge"><title>Node12&#45;&gt;Node16</title>
<path fill="none" stroke="midnightblue" d="M274.942,-112.324C289.585,-103.822 312.134,-90.7288 329.238,-80.7975"/>
<polygon fill="midnightblue" stroke="midnightblue" points="331.205,-83.7027 338.095,-75.6545 327.69,-77.6491 331.205,-83.7027"/>
</g>
<!-- Node16&#45;&gt;Node3 -->
<g id="edge19" class="edge"><title>Node16&#45;&gt;Node3</title>
<path fill="none" stroke="midnightblue" d="M327.757,-58.2846C324.806,-57.5095 321.837,-56.7342 319,-56 273.305,-44.1765 220.917,-30.9749 184.868,-21.9455"/>
<polygon fill="midnightblue" stroke="midnightblue" points="185.703,-18.5467 175.153,-19.514 184.004,-25.3372 185.703,-18.5467"/>
</g>
<!-- Node16&#45;&gt;Node13 -->
<g id="edge18" class="edge"><title>Node16&#45;&gt;Node13</title>
<path fill="none" stroke="midnightblue" d="M355.477,-56.083C357.486,-48.8486 360.386,-38.4087 362.89,-29.3968"/>
<polygon fill="midnightblue" stroke="midnightblue" points="366.265,-30.323 365.569,-19.7511 359.52,-28.4495 366.265,-30.323"/>
</g>
<!-- Node19 -->
<g id="node19" class="node"><title>Node19</title>
<g id="a_node19"><a xlink:href="_timer_8h.html" target="_top" xlink:title="Timer.h">
<polygon fill="none" stroke="black" points="207,-168.5 207,-187.5 257,-187.5 257,-168.5 207,-168.5"/>
<text text-anchor="middle" x="232" y="-175.5" font-family="Helvetica,sans-Serif" font-size="10.00">Timer.h</text>
</a>
</g>
</g>
<!-- Node18&#45;&gt;Node19 -->
<g id="edge22" class="edge"><title>Node18&#45;&gt;Node19</title>
<path fill="none" stroke="midnightblue" d="M188.587,-224.083C196.159,-216.22 207.378,-204.569 216.514,-195.081"/>
<polygon fill="midnightblue" stroke="midnightblue" points="219.158,-197.382 223.573,-187.751 214.115,-192.527 219.158,-197.382"/>
</g>
<!-- Node19&#45;&gt;Node3 -->
<g id="edge24" class="edge"><title>Node19&#45;&gt;Node3</title>
<path fill="none" stroke="midnightblue" d="M224.362,-168.453C209.855,-151.809 178.147,-113.39 160,-76 152.781,-61.126 147.76,-42.9794 144.7,-29.6438"/>
<polygon fill="midnightblue" stroke="midnightblue" points="148.099,-28.7987 142.586,-19.7509 141.253,-30.2616 148.099,-28.7987"/>
</g>
<!-- Node19&#45;&gt;Node8 -->
<g id="edge23" class="edge"><title>Node19&#45;&gt;Node8</title>
<path fill="none" stroke="midnightblue" d="M248.709,-168.324C265.312,-159.703 291.002,-146.364 310.22,-136.386"/>
<polygon fill="midnightblue" stroke="midnightblue" points="312.07,-139.369 319.332,-131.655 308.844,-133.156 312.07,-139.369"/>
</g>
<!-- Node19&#45;&gt;Node12 -->
<g id="edge25" class="edge"><title>Node19&#45;&gt;Node12</title>
<path fill="none" stroke="midnightblue" d="M236.624,-168.083C240.456,-160.691 246.024,-149.953 250.765,-140.811"/>
<polygon fill="midnightblue" stroke="midnightblue" points="253.966,-142.24 255.462,-131.751 247.752,-139.018 253.966,-142.24"/>
</g>
</g>
</svg>
