<?xml version="1.0" encoding="UTF-8" standalone="no"?>
<!DOCTYPE svg PUBLIC "-//W3C//DTD SVG 1.1//EN"
 "http://www.w3.org/Graphics/SVG/1.1/DTD/svg11.dtd">
<!-- Generated by graphviz version 2.34.0 (20140110.0949)
 -->
<!-- Title: include/Postgres.h Pages: 1 -->
<svg width="466pt" height="308pt"
 viewBox="0.00 0.00 466.00 308.00" xmlns="http://www.w3.org/2000/svg" xmlns:xlink="http://www.w3.org/1999/xlink">
<g id="graph0" class="graph" transform="scale(1 1) rotate(0) translate(4 304)">
<title>include/Postgres.h</title>
<!-- Node1 -->
<g id="node1" class="node"><title>Node1</title>
<polygon fill="#bfbfbf" stroke="black" points="189,-280.5 189,-299.5 287,-299.5 287,-280.5 189,-280.5"/>
<text text-anchor="middle" x="238" y="-287.5" font-family="Helvetica,sans-Serif" font-size="10.00">include/Postgres.h</text>
</g>
<!-- Node2 -->
<g id="node2" class="node"><title>Node2</title>
<polygon fill="none" stroke="#bfbfbf" points="0,-224.5 0,-243.5 56,-243.5 56,-224.5 0,-224.5"/>
<text text-anchor="middle" x="28" y="-231.5" font-family="Helvetica,sans-Serif" font-size="10.00">libpq&#45;fe.h</text>
</g>
<!-- Node1&#45;&gt;Node2 -->
<g id="edge1" class="edge"><title>Node1&#45;&gt;Node2</title>
<path fill="none" stroke="midnightblue" d="M204.725,-280.444C166.956,-270.731 105.47,-254.921 65.8877,-244.743"/>
<polygon fill="midnightblue" stroke="midnightblue" points="66.6356,-241.321 56.079,-242.22 64.8923,-248.101 66.6356,-241.321"/>
</g>
<!-- Node3 -->
<g id="node3" class="node"><title>Node3</title>
<polygon fill="none" stroke="#bfbfbf" points="93.5,-0.5 93.5,-19.5 174.5,-19.5 174.5,-0.5 93.5,-0.5"/>
<text text-anchor="middle" x="134" y="-7.5" font-family="Helvetica,sans-Serif" font-size="10.00">event2/event.h</text>
</g>
<!-- Node1&#45;&gt;Node3 -->
<g id="edge2" class="edge"><title>Node1&#45;&gt;Node3</title>
<path fill="none" stroke="midnightblue" d="M193.426,-280.492C168.871,-273.935 139.173,-262.713 118,-244 93.5715,-222.409 84,-211.602 84,-179 84,-179 84,-179 84,-121 84,-85.1842 106.24,-48.214 121.055,-27.5601"/>
<polygon fill="midnightblue" stroke="midnightblue" points="123.878,-29.6289 127.048,-19.5193 118.265,-25.4456 123.878,-29.6289"/>
</g>
<!-- Node4 -->
<g id="node4" class="node"><title>Node4</title>
<polygon fill="none" stroke="#bfbfbf" points="266.5,-224.5 266.5,-243.5 309.5,-243.5 309.5,-224.5 266.5,-224.5"/>
<text text-anchor="middle" x="288" y="-231.5" font-family="Helvetica,sans-Serif" font-size="10.00">deque</text>
</g>
<!-- Node1&#45;&gt;Node4 -->
<g id="edge3" class="edge"><title>Node1&#45;&gt;Node4</title>
<path fill="none" stroke="midnightblue" d="M246.256,-280.083C253.465,-272.298 264.11,-260.801 272.846,-251.367"/>
<polygon fill="midnightblue" stroke="midnightblue" points="275.671,-253.467 279.897,-243.751 270.535,-248.711 275.671,-253.467"/>
</g>
<!-- Node5 -->
<g id="node5" class="node"><title>Node5</title>
<polygon fill="none" stroke="#bfbfbf" points="327.5,-224.5 327.5,-243.5 362.5,-243.5 362.5,-224.5 327.5,-224.5"/>
<text text-anchor="middle" x="345" y="-231.5" font-family="Helvetica,sans-Serif" font-size="10.00">map</text>
</g>
<!-- Node1&#45;&gt;Node5 -->
<g id="edge4" class="edge"><title>Node1&#45;&gt;Node5</title>
<path fill="none" stroke="midnightblue" d="M255.191,-280.324C272.351,-271.664 298.946,-258.242 318.747,-248.249"/>
<polygon fill="midnightblue" stroke="midnightblue" points="320.501,-251.285 327.851,-243.655 317.347,-245.035 320.501,-251.285"/>
</g>
<!-- Node6 -->
<g id="node6" class="node"><title>Node6</title>
<g id="a_node6"><a xlink:href="defines_8h.html" target="_top" xlink:title="defines.h">
<polygon fill="none" stroke="black" points="381,-224.5 381,-243.5 437,-243.5 437,-224.5 381,-224.5"/>
<text text-anchor="middle" x="409" y="-231.5" font-family="Helvetica,sans-Serif" font-size="10.00">defines.h</text>
</a>
</g>
</g>
<!-- Node1&#45;&gt;Node6 -->
<g id="edge5" class="edge"><title>Node1&#45;&gt;Node6</title>
<path fill="none" stroke="midnightblue" d="M265.095,-280.444C293.988,-271.32 339.925,-256.813 372.105,-246.651"/>
<polygon fill="midnightblue" stroke="midnightblue" points="373.549,-249.865 382.031,-243.516 371.441,-243.19 373.549,-249.865"/>
</g>
<!-- Node7 -->
<g id="node7" class="node"><title>Node7</title>
<g id="a_node7"><a xlink:href="_database_8h.html" target="_top" xlink:title="Database.h">
<polygon fill="none" stroke="black" points="255.5,-168.5 255.5,-187.5 322.5,-187.5 322.5,-168.5 255.5,-168.5"/>
<text text-anchor="middle" x="289" y="-175.5" font-family="Helvetica,sans-Serif" font-size="10.00">Database.h</text>
</a>
</g>
</g>
<!-- Node1&#45;&gt;Node7 -->
<g id="edge6" class="edge"><title>Node1&#45;&gt;Node7</title>
<path fill="none" stroke="midnightblue" d="M239.793,-280.273C242.614,-267.493 248.739,-243.129 258,-224 262.797,-214.092 269.613,-203.921 275.634,-195.761"/>
<polygon fill="midnightblue" stroke="midnightblue" points="278.425,-197.873 281.721,-187.803 272.865,-193.62 278.425,-197.873"/>
</g>
<!-- Node16 -->
<g id="node16" class="node"><title>Node16</title>
<g id="a_node16"><a xlink:href="_backoff_timer_8h.html" target="_top" xlink:title="BackoffTimer.h">
<polygon fill="none" stroke="black" points="126.5,-224.5 126.5,-243.5 209.5,-243.5 209.5,-224.5 126.5,-224.5"/>
<text text-anchor="middle" x="168" y="-231.5" font-family="Helvetica,sans-Serif" font-size="10.00">BackoffTimer.h</text>
</a>
</g>
</g>
<!-- Node1&#45;&gt;Node16 -->
<g id="edge19" class="edge"><title>Node1&#45;&gt;Node16</title>
<path fill="none" stroke="midnightblue" d="M226.753,-280.324C216.203,-272.185 200.199,-259.839 187.558,-250.087"/>
<polygon fill="midnightblue" stroke="midnightblue" points="189.507,-247.171 179.451,-243.834 185.231,-252.713 189.507,-247.171"/>
</g>
<!-- Node8 -->
<g id="node8" class="node"><title>Node8</title>
<polygon fill="none" stroke="#bfbfbf" points="259.5,-112.5 259.5,-131.5 318.5,-131.5 318.5,-112.5 259.5,-112.5"/>
<text text-anchor="middle" x="289" y="-119.5" font-family="Helvetica,sans-Serif" font-size="10.00">functional</text>
</g>
<!-- Node7&#45;&gt;Node8 -->
<g id="edge7" class="edge"><title>Node7&#45;&gt;Node8</title>
<path fill="none" stroke="midnightblue" d="M289,-168.083C289,-161.006 289,-150.861 289,-141.986"/>
<polygon fill="midnightblue" stroke="midnightblue" points="292.5,-141.751 289,-131.751 285.5,-141.751 292.5,-141.751"/>
</g>
<!-- Node9 -->
<g id="node9" class="node"><title>Node9</title>
<g id="a_node9"><a xlink:href="_string_8h.html" target="_top" xlink:title="String.h">
<polygon fill="none" stroke="black" points="342,-56.5 342,-75.5 392,-75.5 392,-56.5 342,-56.5"/>
<text text-anchor="middle" x="367" y="-63.5" font-family="Helvetica,sans-Serif" font-size="10.00">String.h</text>
</a>
</g>
</g>
<!-- Node7&#45;&gt;Node9 -->
<g id="edge8" class="edge"><title>Node7&#45;&gt;Node9</title>
<path fill="none" stroke="midnightblue" d="M296.977,-168.353C304.962,-159.519 317.408,-145.254 327,-132 338.143,-116.603 349.356,-98.054 357.063,-84.7188"/>
<polygon fill="midnightblue" stroke="midnightblue" points="360.306,-86.0977 362.214,-75.6761 354.223,-82.633 360.306,-86.0977"/>
</g>
<!-- Node11 -->
<g id="node11" class="node"><title>Node11</title>
<g id="a_node11"><a xlink:href="_module_8h.html" target="_top" xlink:title="Module.h">
<polygon fill="none" stroke="black" points="185,-112.5 185,-131.5 241,-131.5 241,-112.5 185,-112.5"/>
<text text-anchor="middle" x="213" y="-119.5" font-family="Helvetica,sans-Serif" font-size="10.00">Module.h</text>
</a>
</g>
</g>
<!-- Node7&#45;&gt;Node11 -->
<g id="edge10" class="edge"><title>Node7&#45;&gt;Node11</title>
<path fill="none" stroke="midnightblue" d="M276.789,-168.324C265.224,-160.107 247.625,-147.602 233.839,-137.807"/>
<polygon fill="midnightblue" stroke="midnightblue" points="235.612,-134.773 225.433,-131.834 231.557,-140.479 235.612,-134.773"/>
</g>
<!-- Node15 -->
<g id="node15" class="node"><title>Node15</title>
<g id="a_node15"><a xlink:href="_should_delete_8h.html" target="_top" xlink:title="ShouldDelete.h">
<polygon fill="none" stroke="black" points="375.5,-112.5 375.5,-131.5 458.5,-131.5 458.5,-112.5 375.5,-112.5"/>
<text text-anchor="middle" x="417" y="-119.5" font-family="Helvetica,sans-Serif" font-size="10.00">ShouldDelete.h</text>
</a>
</g>
</g>
<!-- Node7&#45;&gt;Node15 -->
<g id="edge18" class="edge"><title>Node7&#45;&gt;Node15</title>
<path fill="none" stroke="midnightblue" d="M309.282,-168.444C330.347,-159.557 363.517,-145.563 387.486,-135.451"/>
<polygon fill="midnightblue" stroke="midnightblue" points="388.96,-138.628 396.813,-131.516 386.239,-132.179 388.96,-138.628"/>
</g>
<!-- Node10 -->
<g id="node10" class="node"><title>Node10</title>
<polygon fill="none" stroke="#bfbfbf" points="346.5,-0.5 346.5,-19.5 387.5,-19.5 387.5,-0.5 346.5,-0.5"/>
<text text-anchor="middle" x="367" y="-7.5" font-family="Helvetica,sans-Serif" font-size="10.00">string</text>
</g>
<!-- Node9&#45;&gt;Node10 -->
<g id="edge9" class="edge"><title>Node9&#45;&gt;Node10</title>
<path fill="none" stroke="midnightblue" d="M367,-56.083C367,-49.0059 367,-38.8611 367,-29.9865"/>
<polygon fill="midnightblue" stroke="midnightblue" points="370.5,-29.751 367,-19.7511 363.5,-29.7511 370.5,-29.751"/>
</g>
<!-- Node11&#45;&gt;Node3 -->
<g id="edge12" class="edge"><title>Node11&#45;&gt;Node3</title>
<path fill="none" stroke="midnightblue" d="M206.375,-112.452C199.443,-103.458 188.298,-88.8519 179,-76 167.477,-60.0721 154.761,-41.6195 145.794,-28.4537"/>
<polygon fill="midnightblue" stroke="midnightblue" points="148.51,-26.2223 139.999,-19.9129 142.718,-30.1529 148.51,-26.2223"/>
</g>
<!-- Node11&#45;&gt;Node9 -->
<g id="edge14" class="edge"><title>Node11&#45;&gt;Node9</title>
<path fill="none" stroke="midnightblue" d="M237.402,-112.444C263.197,-103.399 304.077,-89.064 333.018,-78.9158"/>
<polygon fill="midnightblue" stroke="midnightblue" points="334.434,-82.1283 342.712,-75.5164 332.118,-75.5226 334.434,-82.1283"/>
</g>
<!-- Node12 -->
<g id="node12" class="node"><title>Node12</title>
<polygon fill="none" stroke="#bfbfbf" points="216.5,-0.5 216.5,-19.5 289.5,-19.5 289.5,-0.5 216.5,-0.5"/>
<text text-anchor="middle" x="253" y="-7.5" font-family="Helvetica,sans-Serif" font-size="10.00">event2/dns.h</text>
</g>
<!-- Node11&#45;&gt;Node12 -->
<g id="edge11" class="edge"><title>Node11&#45;&gt;Node12</title>
<path fill="none" stroke="midnightblue" d="M221.985,-112.285C230.064,-103.838 241.483,-90.2439 247,-76 252.699,-61.2879 253.974,-43.354 253.951,-30.0535"/>
<polygon fill="midnightblue" stroke="midnightblue" points="257.442,-29.6582 253.676,-19.7554 250.444,-29.8454 257.442,-29.6582"/>
</g>
<!-- Node13 -->
<g id="node13" class="node"><title>Node13</title>
<polygon fill="none" stroke="#bfbfbf" points="294,-56.5 294,-75.5 324,-75.5 324,-56.5 294,-56.5"/>
<text text-anchor="middle" x="309" y="-63.5" font-family="Helvetica,sans-Serif" font-size="10.00">set</text>
</g>
<!-- Node11&#45;&gt;Node13 -->
<g id="edge13" class="edge"><title>Node11&#45;&gt;Node13</title>
<path fill="none" stroke="midnightblue" d="M228.424,-112.324C243.629,-103.771 267.091,-90.5737 284.784,-80.6215"/>
<polygon fill="midnightblue" stroke="midnightblue" points="286.931,-83.4296 293.931,-75.4765 283.499,-77.3286 286.931,-83.4296"/>
</g>
<!-- Node14 -->
<g id="node14" class="node"><title>Node14</title>
<g id="a_node14"><a xlink:href="_event_8h.html" target="_top" xlink:title="Event.h">
<polygon fill="none" stroke="black" points="188,-56.5 188,-75.5 238,-75.5 238,-56.5 188,-56.5"/>
<text text-anchor="middle" x="213" y="-63.5" font-family="Helvetica,sans-Serif" font-size="10.00">Event.h</text>
</a>
</g>
</g>
<!-- Node11&#45;&gt;Node14 -->
<g id="edge15" class="edge"><title>Node11&#45;&gt;Node14</title>
<path fill="none" stroke="midnightblue" d="M213,-112.083C213,-105.006 213,-94.8611 213,-85.9865"/>
<polygon fill="midnightblue" stroke="midnightblue" points="216.5,-85.751 213,-75.7511 209.5,-85.7511 216.5,-85.751"/>
</g>
<!-- Node14&#45;&gt;Node3 -->
<g id="edge17" class="edge"><title>Node14&#45;&gt;Node3</title>
<path fill="none" stroke="midnightblue" d="M200.307,-56.324C188.099,-47.979 169.422,-35.2122 154.997,-25.3524"/>
<polygon fill="midnightblue" stroke="midnightblue" points="156.892,-22.4082 146.661,-19.6545 152.942,-28.1871 156.892,-22.4082"/>
</g>
<!-- Node14&#45;&gt;Node12 -->
<g id="edge16" class="edge"><title>Node14&#45;&gt;Node12</title>
<path fill="none" stroke="midnightblue" d="M219.605,-56.083C225.255,-48.4554 233.545,-37.2645 240.451,-27.9408"/>
<polygon fill="midnightblue" stroke="midnightblue" points="243.378,-29.87 246.518,-19.7511 237.753,-25.7034 243.378,-29.87"/>
</g>
<!-- Node17 -->
<g id="node17" class="node"><title>Node17</title>
<g id="a_node17"><a xlink:href="_timer_8h.html" target="_top" xlink:title="Timer.h">
<polygon fill="none" stroke="black" points="172,-168.5 172,-187.5 222,-187.5 222,-168.5 172,-168.5"/>
<text text-anchor="middle" x="197" y="-175.5" font-family="Helvetica,sans-Serif" font-size="10.00">Timer.h</text>
</a>
</g>
</g>
<!-- Node16&#45;&gt;Node17 -->
<g id="edge20" class="edge"><title>Node16&#45;&gt;Node17</title>
<path fill="none" stroke="midnightblue" d="M172.789,-224.083C176.758,-216.691 182.525,-205.953 187.435,-196.811"/>
<polygon fill="midnightblue" stroke="midnightblue" points="190.653,-198.217 192.3,-187.751 184.486,-194.905 190.653,-198.217"/>
</g>
<!-- Node17&#45;&gt;Node3 -->
<g id="edge22" class="edge"><title>Node17&#45;&gt;Node3</title>
<path fill="none" stroke="midnightblue" d="M192.709,-168.489C188.265,-159.525 181.25,-144.942 176,-132 161.496,-96.2451 147.358,-53.3696 139.753,-29.4531"/>
<polygon fill="midnightblue" stroke="midnightblue" points="142.999,-28.1068 136.656,-19.6202 136.322,-30.2098 142.999,-28.1068"/>
</g>
<!-- Node17&#45;&gt;Node8 -->
<g id="edge21" class="edge"><title>Node17&#45;&gt;Node8</title>
<path fill="none" stroke="midnightblue" d="M211.781,-168.324C226.267,-159.822 248.573,-146.729 265.493,-136.797"/>
<polygon fill="midnightblue" stroke="midnightblue" points="267.403,-139.735 274.255,-131.655 263.859,-133.698 267.403,-139.735"/>
</g>
<!-- Node17&#45;&gt;Node11 -->
<g id="edge23" class="edge"><title>Node17&#45;&gt;Node11</title>
<path fill="none" stroke="midnightblue" d="M199.642,-168.083C201.786,-160.849 204.879,-150.409 207.549,-141.397"/>
<polygon fill="midnightblue" stroke="midnightblue" points="210.922,-142.333 210.407,-131.751 204.21,-140.345 210.922,-142.333"/>
</g>
</g>
</svg>
