<?xml version="1.0" encoding="UTF-8" standalone="no"?>
<!DOCTYPE svg PUBLIC "-//W3C//DTD SVG 1.1//EN"
 "http://www.w3.org/Graphics/SVG/1.1/DTD/svg11.dtd">
<!-- Generated by graphviz version 2.34.0 (20140110.0949)
 -->
<!-- Title: include/ShouldDelete.h Pages: 1 -->
<svg width="719pt" height="252pt"
 viewBox="0.00 0.00 719.43 252.00" xmlns="http://www.w3.org/2000/svg" xmlns:xlink="http://www.w3.org/1999/xlink">
<g id="graph0" class="graph" transform="scale(1 1) rotate(0) translate(4 248)">
<title>include/ShouldDelete.h</title>
<!-- Node1 -->
<g id="node1" class="node"><title>Node1</title>
<polygon fill="#bfbfbf" stroke="black" points="12.929,-224.5 12.929,-243.5 129.929,-243.5 129.929,-224.5 12.929,-224.5"/>
<text text-anchor="middle" x="71.429" y="-231.5" font-family="Helvetica,sans-Serif" font-size="10.00">include/ShouldDelete.h</text>
</g>
<!-- Node2 -->
<g id="node2" class="node"><title>Node2</title>
<g id="a_node2"><a xlink:href="_writer_8h.html" target="_top" xlink:title="include/Writer.h">
<polygon fill="none" stroke="black" points="300.929,-168.5 300.929,-187.5 385.929,-187.5 385.929,-168.5 300.929,-168.5"/>
<text text-anchor="middle" x="343.429" y="-175.5" font-family="Helvetica,sans-Serif" font-size="10.00">include/Writer.h</text>
</a>
</g>
</g>
<!-- Node1&#45;&gt;Node2 -->
<g id="edge1" class="edge"><title>Node1&#45;&gt;Node2</title>
<path fill="none" stroke="midnightblue" d="M124.452,-222.473C175.858,-212.268 252.866,-196.979 300.531,-187.516"/>
<polygon fill="midnightblue" stroke="midnightblue" points="123.655,-219.063 114.528,-224.444 125.018,-225.929 123.655,-219.063"/>
</g>
<!-- Node6 -->
<g id="node6" class="node"><title>Node6</title>
<g id="a_node6"><a xlink:href="_d_n_s_8h.html" target="_top" xlink:title="include/DNS.h">
<polygon fill="none" stroke="black" points="23.429,-56.5 23.429,-75.5 103.429,-75.5 103.429,-56.5 23.429,-56.5"/>
<text text-anchor="middle" x="63.429" y="-63.5" font-family="Helvetica,sans-Serif" font-size="10.00">include/DNS.h</text>
</a>
</g>
</g>
<!-- Node1&#45;&gt;Node6 -->
<g id="edge14" class="edge"><title>Node1&#45;&gt;Node6</title>
<path fill="none" stroke="midnightblue" d="M64.3745,-214.74C61.6194,-206.675 58.7965,-196.999 57.429,-188 51.0775,-146.204 58.3987,-95.4479 61.8377,-75.5678"/>
<polygon fill="midnightblue" stroke="midnightblue" points="61.1172,-216.024 67.829,-224.222 67.6943,-213.628 61.1172,-216.024"/>
</g>
<!-- Node8 -->
<g id="node8" class="node"><title>Node8</title>
<g id="a_node8"><a xlink:href="_simple_h_t_t_p_socket_8h.html" target="_top" xlink:title="include/SimpleHTTPSocket.h">
<polygon fill="none" stroke="black" points="121.429,-56.5 121.429,-75.5 267.429,-75.5 267.429,-56.5 121.429,-56.5"/>
<text text-anchor="middle" x="194.429" y="-63.5" font-family="Helvetica,sans-Serif" font-size="10.00">include/SimpleHTTPSocket.h</text>
</a>
</g>
</g>
<!-- Node1&#45;&gt;Node8 -->
<g id="edge16" class="edge"><title>Node1&#45;&gt;Node8</title>
<path fill="none" stroke="midnightblue" d="M69.1522,-214.003C67.1207,-188.158 67.3918,-141.739 90.429,-112 105.067,-93.1035 129.237,-82.0074 150.593,-75.5641"/>
<polygon fill="midnightblue" stroke="midnightblue" points="65.7032,-214.69 70.1741,-224.296 72.6689,-213.999 65.7032,-214.69"/>
</g>
<!-- Node11 -->
<g id="node11" class="node"><title>Node11</title>
<g id="a_node11"><a xlink:href="_job_thread_8h.html" target="_top" xlink:title="include/JobThread.h">
<polygon fill="none" stroke="black" points="204.429,-0.5 204.429,-19.5 308.429,-19.5 308.429,-0.5 204.429,-0.5"/>
<text text-anchor="middle" x="256.429" y="-7.5" font-family="Helvetica,sans-Serif" font-size="10.00">include/JobThread.h</text>
</a>
</g>
</g>
<!-- Node1&#45;&gt;Node11 -->
<g id="edge15" class="edge"><title>Node1&#45;&gt;Node11</title>
<path fill="none" stroke="midnightblue" d="M56.6353,-216.162C28.6179,-182.188 -25.9197,-104.543 14.429,-56 38.0916,-27.5317 140.563,-16.9856 204.336,-13.1423"/>
<polygon fill="midnightblue" stroke="midnightblue" points="54.2886,-218.807 63.4244,-224.172 59.6285,-214.281 54.2886,-218.807"/>
</g>
<!-- Node12 -->
<g id="node12" class="node"><title>Node12</title>
<g id="a_node12"><a xlink:href="_database_8h.html" target="_top" xlink:title="include/Database.h">
<polygon fill="none" stroke="black" points="536.929,-168.5 536.929,-187.5 637.929,-187.5 637.929,-168.5 536.929,-168.5"/>
<text text-anchor="middle" x="587.429" y="-175.5" font-family="Helvetica,sans-Serif" font-size="10.00">include/Database.h</text>
</a>
</g>
</g>
<!-- Node1&#45;&gt;Node12 -->
<g id="edge12" class="edge"><title>Node1&#45;&gt;Node12</title>
<path fill="none" stroke="midnightblue" d="M140.313,-225.791C245.536,-214.779 443.863,-194.024 536.872,-184.291"/>
<polygon fill="midnightblue" stroke="midnightblue" points="139.7,-222.336 130.118,-226.858 140.428,-229.298 139.7,-222.336"/>
</g>
<!-- Node3 -->
<g id="node3" class="node"><title>Node3</title>
<g id="a_node3"><a xlink:href="_compressor_8h.html" target="_top" xlink:title="include/Compressor.h">
<polygon fill="none" stroke="black" points="347.429,-112.5 347.429,-131.5 459.429,-131.5 459.429,-112.5 347.429,-112.5"/>
<text text-anchor="middle" x="403.429" y="-119.5" font-family="Helvetica,sans-Serif" font-size="10.00">include/Compressor.h</text>
</a>
</g>
</g>
<!-- Node2&#45;&gt;Node3 -->
<g id="edge2" class="edge"><title>Node2&#45;&gt;Node3</title>
<path fill="none" stroke="midnightblue" d="M360.61,-161.537C371.308,-151.909 384.685,-139.869 393.614,-131.834"/>
<polygon fill="midnightblue" stroke="midnightblue" points="358.161,-159.033 353.069,-168.324 362.843,-164.236 358.161,-159.033"/>
</g>
<!-- Node4 -->
<g id="node4" class="node"><title>Node4</title>
<g id="a_node4"><a xlink:href="_decompressor_8h.html" target="_top" xlink:title="include/Decompressor.h">
<polygon fill="none" stroke="black" points="99.429,-112.5 99.429,-131.5 221.429,-131.5 221.429,-112.5 99.429,-112.5"/>
<text text-anchor="middle" x="160.429" y="-119.5" font-family="Helvetica,sans-Serif" font-size="10.00">include/Decompressor.h</text>
</a>
</g>
</g>
<!-- Node2&#45;&gt;Node4 -->
<g id="edge3" class="edge"><title>Node2&#45;&gt;Node4</title>
<path fill="none" stroke="midnightblue" d="M304.686,-165.568C270.164,-155.381 220.424,-140.703 189.29,-131.516"/>
<polygon fill="midnightblue" stroke="midnightblue" points="303.85,-168.97 314.432,-168.444 305.832,-162.256 303.85,-168.97"/>
</g>
<!-- Node5 -->
<g id="node5" class="node"><title>Node5</title>
<g id="a_node5"><a xlink:href="_socket_8h.html" target="_top" xlink:title="include/Socket.h">
<polygon fill="none" stroke="black" points="239.929,-112.5 239.929,-131.5 328.929,-131.5 328.929,-112.5 239.929,-112.5"/>
<text text-anchor="middle" x="284.429" y="-119.5" font-family="Helvetica,sans-Serif" font-size="10.00">include/Socket.h</text>
</a>
</g>
</g>
<!-- Node2&#45;&gt;Node5 -->
<g id="edge4" class="edge"><title>Node2&#45;&gt;Node5</title>
<path fill="none" stroke="midnightblue" d="M326.534,-161.537C316.014,-151.909 302.86,-139.869 294.081,-131.834"/>
<polygon fill="midnightblue" stroke="midnightblue" points="324.21,-164.154 333.95,-168.324 328.936,-158.99 324.21,-164.154"/>
</g>
<!-- Node9 -->
<g id="node9" class="node"><title>Node9</title>
<g id="a_node9"><a xlink:href="_files_8h.html" target="_top" xlink:title="include/Files.h">
<polygon fill="none" stroke="black" points="477.429,-112.5 477.429,-131.5 557.429,-131.5 557.429,-112.5 477.429,-112.5"/>
<text text-anchor="middle" x="517.429" y="-119.5" font-family="Helvetica,sans-Serif" font-size="10.00">include/Files.h</text>
</a>
</g>
</g>
<!-- Node2&#45;&gt;Node9 -->
<g id="edge8" class="edge"><title>Node2&#45;&gt;Node9</title>
<path fill="none" stroke="midnightblue" d="M380.69,-165.436C413.496,-155.255 460.512,-140.664 489.987,-131.516"/>
<polygon fill="midnightblue" stroke="midnightblue" points="379.513,-162.137 371,-168.444 381.588,-168.822 379.513,-162.137"/>
</g>
<!-- Node10 -->
<g id="node10" class="node"><title>Node10</title>
<g id="a_node10"><a xlink:href="_pipe_8h.html" target="_top" xlink:title="include/Pipe.h">
<polygon fill="none" stroke="black" points="478.429,-56.5 478.429,-75.5 556.429,-75.5 556.429,-56.5 478.429,-56.5"/>
<text text-anchor="middle" x="517.429" y="-63.5" font-family="Helvetica,sans-Serif" font-size="10.00">include/Pipe.h</text>
</a>
</g>
</g>
<!-- Node2&#45;&gt;Node10 -->
<g id="edge11" class="edge"><title>Node2&#45;&gt;Node10</title>
<path fill="none" stroke="midnightblue" d="M396.506,-173.838C455.53,-169.084 545.369,-157.734 566.429,-132 582.539,-112.314 551.77,-88.1765 532.08,-75.5798"/>
<polygon fill="midnightblue" stroke="midnightblue" points="395.933,-170.372 386.229,-174.625 396.467,-177.351 395.933,-170.372"/>
</g>
<!-- Node5&#45;&gt;Node6 -->
<g id="edge5" class="edge"><title>Node5&#45;&gt;Node6</title>
<path fill="none" stroke="midnightblue" d="M239.508,-110.024C197.761,-99.8232 136.447,-84.8414 98.2833,-75.5164"/>
<polygon fill="midnightblue" stroke="midnightblue" points="238.866,-113.47 249.411,-112.444 240.527,-106.67 238.866,-113.47"/>
</g>
<!-- Node7 -->
<g id="node7" class="node"><title>Node7</title>
<g id="a_node7"><a xlink:href="_listener_8h.html" target="_top" xlink:title="include/Listener.h">
<polygon fill="none" stroke="black" points="285.929,-56.5 285.929,-75.5 378.929,-75.5 378.929,-56.5 285.929,-56.5"/>
<text text-anchor="middle" x="332.429" y="-63.5" font-family="Helvetica,sans-Serif" font-size="10.00">include/Listener.h</text>
</a>
</g>
</g>
<!-- Node5&#45;&gt;Node7 -->
<g id="edge6" class="edge"><title>Node5&#45;&gt;Node7</title>
<path fill="none" stroke="midnightblue" d="M299.157,-104.431C307.569,-94.9673 317.778,-83.4827 324.65,-75.7511"/>
<polygon fill="midnightblue" stroke="midnightblue" points="296.383,-102.284 292.355,-112.083 301.615,-106.934 296.383,-102.284"/>
</g>
<!-- Node5&#45;&gt;Node8 -->
<g id="edge7" class="edge"><title>Node5&#45;&gt;Node8</title>
<path fill="none" stroke="midnightblue" d="M261.391,-107.177C244.83,-97.2407 223.011,-84.1492 208.853,-75.6545"/>
<polygon fill="midnightblue" stroke="midnightblue" points="259.593,-110.18 269.969,-112.324 263.195,-104.178 259.593,-110.18"/>
</g>
<!-- Node9&#45;&gt;Node10 -->
<g id="edge9" class="edge"><title>Node9&#45;&gt;Node10</title>
<path fill="none" stroke="midnightblue" d="M517.429,-101.805C517.429,-92.9102 517.429,-82.7798 517.429,-75.7511"/>
<polygon fill="midnightblue" stroke="midnightblue" points="513.929,-102.083 517.429,-112.083 520.929,-102.083 513.929,-102.083"/>
</g>
<!-- Node10&#45;&gt;Node11 -->
<g id="edge10" class="edge"><title>Node10&#45;&gt;Node11</title>
<path fill="none" stroke="midnightblue" d="M468.266,-54.8283C419.071,-44.65 344.229,-29.1655 297.931,-19.5865"/>
<polygon fill="midnightblue" stroke="midnightblue" points="467.853,-58.3169 478.355,-56.9157 469.271,-51.4621 467.853,-58.3169"/>
</g>
<!-- Node13 -->
<g id="node13" class="node"><title>Node13</title>
<g id="a_node13"><a xlink:href="_postgres_8h.html" target="_top" xlink:title="include/Postgres.h">
<polygon fill="none" stroke="black" points="613.429,-112.5 613.429,-131.5 711.429,-131.5 711.429,-112.5 613.429,-112.5"/>
<text text-anchor="middle" x="662.429" y="-119.5" font-family="Helvetica,sans-Serif" font-size="10.00">include/Postgres.h</text>
</a>
</g>
</g>
<!-- Node12&#45;&gt;Node13 -->
<g id="edge13" class="edge"><title>Node12&#45;&gt;Node13</title>
<path fill="none" stroke="midnightblue" d="M607.734,-162.38C621.29,-152.62 638.671,-140.106 650.16,-131.834"/>
<polygon fill="midnightblue" stroke="midnightblue" points="605.549,-159.641 599.479,-168.324 609.639,-165.321 605.549,-159.641"/>
</g>
</g>
</svg>
