<?xml version="1.0" encoding="UTF-8" standalone="no"?>
<!DOCTYPE svg PUBLIC "-//W3C//DTD SVG 1.1//EN"
 "http://www.w3.org/Graphics/SVG/1.1/DTD/svg11.dtd">
<!-- Generated by graphviz version 2.34.0 (20140110.0949)
 -->
<!-- Title: include/ShouldDelete.h Pages: 1 -->
<svg width="749pt" height="252pt"
 viewBox="0.00 0.00 749.00 252.00" xmlns="http://www.w3.org/2000/svg" xmlns:xlink="http://www.w3.org/1999/xlink">
<g id="graph0" class="graph" transform="scale(1 1) rotate(0) translate(4 248)">
<title>include/ShouldDelete.h</title>
<!-- Node1 -->
<g id="node1" class="node"><title>Node1</title>
<polygon fill="#bfbfbf" stroke="black" points="512.5,-224.5 512.5,-243.5 629.5,-243.5 629.5,-224.5 512.5,-224.5"/>
<text text-anchor="middle" x="571" y="-231.5" font-family="Helvetica,sans-Serif" font-size="10.00">include/ShouldDelete.h</text>
</g>
<!-- Node2 -->
<g id="node2" class="node"><title>Node2</title>
<g id="a_node2"><a xlink:href="_writer_8h.html" target="_top" xlink:title="include/Writer.h">
<polygon fill="none" stroke="black" points="207.5,-168.5 207.5,-187.5 292.5,-187.5 292.5,-168.5 207.5,-168.5"/>
<text text-anchor="middle" x="250" y="-175.5" font-family="Helvetica,sans-Serif" font-size="10.00">include/Writer.h</text>
</a>
</g>
</g>
<!-- Node1&#45;&gt;Node2 -->
<g id="edge1" class="edge"><title>Node1&#45;&gt;Node2</title>
<path fill="none" stroke="midnightblue" d="M510.256,-222.781C446.774,-212.102 348.792,-195.619 292.921,-186.22"/>
<polygon fill="midnightblue" stroke="midnightblue" points="509.695,-226.236 520.137,-224.444 510.856,-219.333 509.695,-226.236"/>
</g>
<!-- Node6 -->
<g id="node6" class="node"><title>Node6</title>
<g id="a_node6"><a xlink:href="_d_n_s_8h.html" target="_top" xlink:title="include/DNS.h">
<polygon fill="none" stroke="black" points="339,-56.5 339,-75.5 419,-75.5 419,-56.5 339,-56.5"/>
<text text-anchor="middle" x="379" y="-63.5" font-family="Helvetica,sans-Serif" font-size="10.00">include/DNS.h</text>
</a>
</g>
</g>
<!-- Node1&#45;&gt;Node6 -->
<g id="edge15" class="edge"><title>Node1&#45;&gt;Node6</title>
<path fill="none" stroke="midnightblue" d="M567.108,-214.402C560.629,-187.962 545.145,-139.657 514,-112 499.129,-98.7946 449.567,-84.4006 414.831,-75.536"/>
<polygon fill="midnightblue" stroke="midnightblue" points="563.722,-215.295 569.353,-224.27 570.547,-213.743 563.722,-215.295"/>
</g>
<!-- Node8 -->
<g id="node8" class="node"><title>Node8</title>
<g id="a_node8"><a xlink:href="_simple_h_t_t_p_socket_8h.html" target="_top" xlink:title="include/SimpleHTTPSocket.h">
<polygon fill="none" stroke="black" points="437,-56.5 437,-75.5 583,-75.5 583,-56.5 437,-56.5"/>
<text text-anchor="middle" x="510" y="-63.5" font-family="Helvetica,sans-Serif" font-size="10.00">include/SimpleHTTPSocket.h</text>
</a>
</g>
</g>
<!-- Node1&#45;&gt;Node8 -->
<g id="edge17" class="edge"><title>Node1&#45;&gt;Node8</title>
<path fill="none" stroke="midnightblue" d="M570.108,-214.239C568.322,-189.67 562.974,-145.757 547,-112 540.251,-97.7379 527.988,-84.1476 519.437,-75.7063"/>
<polygon fill="midnightblue" stroke="midnightblue" points="566.621,-214.568 570.717,-224.339 573.609,-214.147 566.621,-214.568"/>
</g>
<!-- Node12 -->
<g id="node12" class="node"><title>Node12</title>
<g id="a_node12"><a xlink:href="_job_thread_8h.html" target="_top" xlink:title="include/JobThread.h">
<polygon fill="none" stroke="black" points="273,-0.5 273,-19.5 377,-19.5 377,-0.5 273,-0.5"/>
<text text-anchor="middle" x="325" y="-7.5" font-family="Helvetica,sans-Serif" font-size="10.00">include/JobThread.h</text>
</a>
</g>
</g>
<!-- Node1&#45;&gt;Node12 -->
<g id="edge16" class="edge"><title>Node1&#45;&gt;Node12</title>
<path fill="none" stroke="midnightblue" d="M580.707,-215.367C598.459,-180.475 630.916,-102.024 592,-56 565.025,-24.0978 446.788,-14.8027 377.027,-12.1009"/>
<polygon fill="midnightblue" stroke="midnightblue" points="577.536,-213.877 575.963,-224.354 583.727,-217.145 577.536,-213.877"/>
</g>
<!-- Node13 -->
<g id="node13" class="node"><title>Node13</title>
<g id="a_node13"><a xlink:href="_database_8h.html" target="_top" xlink:title="include/Database.h">
<polygon fill="none" stroke="black" points="639.5,-168.5 639.5,-187.5 740.5,-187.5 740.5,-168.5 639.5,-168.5"/>
<text text-anchor="middle" x="690" y="-175.5" font-family="Helvetica,sans-Serif" font-size="10.00">include/Database.h</text>
</a>
</g>
</g>
<!-- Node1&#45;&gt;Node13 -->
<g id="edge13" class="edge"><title>Node1&#45;&gt;Node13</title>
<path fill="none" stroke="midnightblue" d="M599.137,-220.232C621.396,-210.131 651.856,-196.309 671.232,-187.516"/>
<polygon fill="midnightblue" stroke="midnightblue" points="597.516,-217.124 589.856,-224.444 600.409,-223.498 597.516,-217.124"/>
</g>
<!-- Node3 -->
<g id="node3" class="node"><title>Node3</title>
<g id="a_node3"><a xlink:href="_compressor_8h.html" target="_top" xlink:title="include/Compressor.h">
<polygon fill="none" stroke="black" points="253,-112.5 253,-131.5 365,-131.5 365,-112.5 253,-112.5"/>
<text text-anchor="middle" x="309" y="-119.5" font-family="Helvetica,sans-Serif" font-size="10.00">include/Compressor.h</text>
</a>
</g>
</g>
<!-- Node2&#45;&gt;Node3 -->
<g id="edge2" class="edge"><title>Node2&#45;&gt;Node3</title>
<path fill="none" stroke="midnightblue" d="M266.895,-161.537C277.415,-151.909 290.569,-139.869 299.348,-131.834"/>
<polygon fill="midnightblue" stroke="midnightblue" points="264.493,-158.99 259.479,-168.324 269.219,-164.154 264.493,-158.99"/>
</g>
<!-- Node4 -->
<g id="node4" class="node"><title>Node4</title>
<g id="a_node4"><a xlink:href="_decompressor_8h.html" target="_top" xlink:title="include/Decompressor.h">
<polygon fill="none" stroke="black" points="383,-112.5 383,-131.5 505,-131.5 505,-112.5 383,-112.5"/>
<text text-anchor="middle" x="444" y="-119.5" font-family="Helvetica,sans-Serif" font-size="10.00">include/Decompressor.h</text>
</a>
</g>
</g>
<!-- Node2&#45;&gt;Node4 -->
<g id="edge3" class="edge"><title>Node2&#45;&gt;Node4</title>
<path fill="none" stroke="midnightblue" d="M290.601,-165.699C327.215,-155.507 380.257,-140.743 413.404,-131.516"/>
<polygon fill="midnightblue" stroke="midnightblue" points="289.435,-162.39 280.74,-168.444 291.312,-169.134 289.435,-162.39"/>
</g>
<!-- Node5 -->
<g id="node5" class="node"><title>Node5</title>
<g id="a_node5"><a xlink:href="_socket_8h.html" target="_top" xlink:title="include/Socket.h">
<polygon fill="none" stroke="black" points="145.5,-112.5 145.5,-131.5 234.5,-131.5 234.5,-112.5 145.5,-112.5"/>
<text text-anchor="middle" x="190" y="-119.5" font-family="Helvetica,sans-Serif" font-size="10.00">include/Socket.h</text>
</a>
</g>
</g>
<!-- Node2&#45;&gt;Node5 -->
<g id="edge4" class="edge"><title>Node2&#45;&gt;Node5</title>
<path fill="none" stroke="midnightblue" d="M232.819,-161.537C222.121,-151.909 208.744,-139.869 199.815,-131.834"/>
<polygon fill="midnightblue" stroke="midnightblue" points="230.586,-164.236 240.36,-168.324 235.268,-159.033 230.586,-164.236"/>
</g>
<!-- Node10 -->
<g id="node10" class="node"><title>Node10</title>
<g id="a_node10"><a xlink:href="_files_8h.html" target="_top" xlink:title="include/Files.h">
<polygon fill="none" stroke="black" points="0,-112.5 0,-131.5 80,-131.5 80,-112.5 0,-112.5"/>
<text text-anchor="middle" x="40" y="-119.5" font-family="Helvetica,sans-Serif" font-size="10.00">include/Files.h</text>
</a>
</g>
</g>
<!-- Node2&#45;&gt;Node10 -->
<g id="edge9" class="edge"><title>Node2&#45;&gt;Node10</title>
<path fill="none" stroke="midnightblue" d="M206.81,-165.894C167.153,-155.697 109.23,-140.802 73.1194,-131.516"/>
<polygon fill="midnightblue" stroke="midnightblue" points="206.168,-169.343 216.725,-168.444 207.912,-162.563 206.168,-169.343"/>
</g>
<!-- Node11 -->
<g id="node11" class="node"><title>Node11</title>
<g id="a_node11"><a xlink:href="_pipe_8h.html" target="_top" xlink:title="include/Pipe.h">
<polygon fill="none" stroke="black" points="0,-56.5 0,-75.5 78,-75.5 78,-56.5 0,-56.5"/>
<text text-anchor="middle" x="39" y="-63.5" font-family="Helvetica,sans-Serif" font-size="10.00">include/Pipe.h</text>
</a>
</g>
</g>
<!-- Node2&#45;&gt;Node11 -->
<g id="edge12" class="edge"><title>Node2&#45;&gt;Node11</title>
<path fill="none" stroke="midnightblue" d="M213.836,-164.974C190.975,-156.829 161.112,-145.175 136,-132 103.149,-114.765 67.6978,-88.9556 50.1505,-75.6376"/>
<polygon fill="midnightblue" stroke="midnightblue" points="212.892,-168.352 223.487,-168.353 215.206,-161.745 212.892,-168.352"/>
</g>
<!-- Node5&#45;&gt;Node6 -->
<g id="edge5" class="edge"><title>Node5&#45;&gt;Node6</title>
<path fill="none" stroke="midnightblue" d="M230.013,-109.568C265.667,-99.381 317.038,-84.7034 349.192,-75.5164"/>
<polygon fill="midnightblue" stroke="midnightblue" points="228.601,-106.331 219.948,-112.444 230.524,-113.062 228.601,-106.331"/>
</g>
<!-- Node7 -->
<g id="node7" class="node"><title>Node7</title>
<g id="a_node7"><a xlink:href="_listener_8h.html" target="_top" xlink:title="include/Listener.h">
<polygon fill="none" stroke="black" points="96.5,-56.5 96.5,-75.5 189.5,-75.5 189.5,-56.5 96.5,-56.5"/>
<text text-anchor="middle" x="143" y="-63.5" font-family="Helvetica,sans-Serif" font-size="10.00">include/Listener.h</text>
</a>
</g>
</g>
<!-- Node5&#45;&gt;Node7 -->
<g id="edge6" class="edge"><title>Node5&#45;&gt;Node7</title>
<path fill="none" stroke="midnightblue" d="M175.579,-104.431C167.342,-94.9673 157.346,-83.4827 150.617,-75.7511"/>
<polygon fill="midnightblue" stroke="midnightblue" points="173.034,-106.838 182.239,-112.083 178.314,-102.242 173.034,-106.838"/>
</g>
<!-- Node5&#45;&gt;Node8 -->
<g id="edge7" class="edge"><title>Node5&#45;&gt;Node8</title>
<path fill="none" stroke="midnightblue" d="M244.911,-111.734C305.129,-101.572 400.957,-85.4009 459.406,-75.5378"/>
<polygon fill="midnightblue" stroke="midnightblue" points="244.11,-108.319 234.832,-113.435 245.275,-115.222 244.11,-108.319"/>
</g>
<!-- Node9 -->
<g id="node9" class="node"><title>Node9</title>
<g id="a_node9"><a xlink:href="_statsd_client_8h.html" target="_top" xlink:title="include/StatsdClient.h">
<polygon fill="none" stroke="black" points="207.5,-56.5 207.5,-75.5 320.5,-75.5 320.5,-56.5 207.5,-56.5"/>
<text text-anchor="middle" x="264" y="-63.5" font-family="Helvetica,sans-Serif" font-size="10.00">include/StatsdClient.h</text>
</a>
</g>
</g>
<!-- Node5&#45;&gt;Node9 -->
<g id="edge8" class="edge"><title>Node5&#45;&gt;Node9</title>
<path fill="none" stroke="midnightblue" d="M210.034,-106.38C223.409,-96.6204 240.559,-84.1057 251.894,-75.8339"/>
<polygon fill="midnightblue" stroke="midnightblue" points="207.904,-103.602 201.889,-112.324 212.03,-109.257 207.904,-103.602"/>
</g>
<!-- Node10&#45;&gt;Node11 -->
<g id="edge10" class="edge"><title>Node10&#45;&gt;Node11</title>
<path fill="none" stroke="midnightblue" d="M39.6445,-101.805C39.4798,-92.9102 39.2922,-82.7798 39.1621,-75.7511"/>
<polygon fill="midnightblue" stroke="midnightblue" points="36.1502,-102.15 39.8349,-112.083 43.149,-102.02 36.1502,-102.15"/>
</g>
<!-- Node11&#45;&gt;Node12 -->
<g id="edge11" class="edge"><title>Node11&#45;&gt;Node12</title>
<path fill="none" stroke="midnightblue" d="M88.1568,-55.7186C141.958,-45.5604 227.493,-29.4103 279.712,-19.5509"/>
<polygon fill="midnightblue" stroke="midnightblue" points="87.3444,-52.3101 78.1674,-57.6048 88.6432,-59.1886 87.3444,-52.3101"/>
</g>
<!-- Node14 -->
<g id="node14" class="node"><title>Node14</title>
<g id="a_node14"><a xlink:href="_postgres_8h.html" target="_top" xlink:title="include/Postgres.h">
<polygon fill="none" stroke="black" points="641,-112.5 641,-131.5 739,-131.5 739,-112.5 641,-112.5"/>
<text text-anchor="middle" x="690" y="-119.5" font-family="Helvetica,sans-Serif" font-size="10.00">include/Postgres.h</text>
</a>
</g>
</g>
<!-- Node13&#45;&gt;Node14 -->
<g id="edge14" class="edge"><title>Node13&#45;&gt;Node14</title>
<path fill="none" stroke="midnightblue" d="M690,-157.805C690,-148.91 690,-138.78 690,-131.751"/>
<polygon fill="midnightblue" stroke="midnightblue" points="686.5,-158.083 690,-168.083 693.5,-158.083 686.5,-158.083"/>
</g>
</g>
</svg>
