<?xml version="1.0" encoding="UTF-8" standalone="no"?>
<!DOCTYPE svg PUBLIC "-//W3C//DTD SVG 1.1//EN"
 "http://www.w3.org/Graphics/SVG/1.1/DTD/svg11.dtd">
<!-- Generated by graphviz version 2.34.0 (20140110.0949)
 -->
<!-- Title: include/ShouldDelete.h Pages: 1 -->
<svg width="732pt" height="252pt"
 viewBox="0.00 0.00 732.00 252.00" xmlns="http://www.w3.org/2000/svg" xmlns:xlink="http://www.w3.org/1999/xlink">
<g id="graph0" class="graph" transform="scale(1 1) rotate(0) translate(4 248)">
<title>include/ShouldDelete.h</title>
<!-- Node1 -->
<g id="node1" class="node"><title>Node1</title>
<polygon fill="#bfbfbf" stroke="black" points="497.5,-224.5 497.5,-243.5 614.5,-243.5 614.5,-224.5 497.5,-224.5"/>
<text text-anchor="middle" x="556" y="-231.5" font-family="Helvetica,sans-Serif" font-size="10.00">include/ShouldDelete.h</text>
</g>
<!-- Node2 -->
<g id="node2" class="node"><title>Node2</title>
<g id="a_node2"><a xlink:href="_writer_8h.html" target="_top" xlink:title="include/Writer.h">
<polygon fill="none" stroke="black" points="248.5,-168.5 248.5,-187.5 333.5,-187.5 333.5,-168.5 248.5,-168.5"/>
<text text-anchor="middle" x="291" y="-175.5" font-family="Helvetica,sans-Serif" font-size="10.00">include/Writer.h</text>
</a>
</g>
</g>
<!-- Node1&#45;&gt;Node2 -->
<g id="edge1" class="edge"><title>Node1&#45;&gt;Node2</title>
<path fill="none" stroke="midnightblue" d="M504.028,-222.41C453.946,-212.204 379.136,-196.96 332.794,-187.516"/>
<polygon fill="midnightblue" stroke="midnightblue" points="503.512,-225.876 514.01,-224.444 504.91,-219.017 503.512,-225.876"/>
</g>
<!-- Node6 -->
<g id="node6" class="node"><title>Node6</title>
<g id="a_node6"><a xlink:href="_d_n_s_8h.html" target="_top" xlink:title="include/DNS.h">
<polygon fill="none" stroke="black" points="443,-56.5 443,-75.5 523,-75.5 523,-56.5 443,-56.5"/>
<text text-anchor="middle" x="483" y="-63.5" font-family="Helvetica,sans-Serif" font-size="10.00">include/DNS.h</text>
</a>
</g>
</g>
<!-- Node1&#45;&gt;Node6 -->
<g id="edge17" class="edge"><title>Node1&#45;&gt;Node6</title>
<path fill="none" stroke="midnightblue" d="M556.775,-214.168C556.974,-189.186 554.389,-144.467 536,-112 527.077,-96.2454 510.415,-83.5037 498.146,-75.6531"/>
<polygon fill="midnightblue" stroke="midnightblue" points="553.269,-214.342 556.522,-224.425 560.267,-214.514 553.269,-214.342"/>
</g>
<!-- Node8 -->
<g id="node8" class="node"><title>Node8</title>
<g id="a_node8"><a xlink:href="_simple_h_t_t_p_socket_8h.html" target="_top" xlink:title="include/SimpleHTTPSocket.h">
<polygon fill="none" stroke="black" points="541,-56.5 541,-75.5 687,-75.5 687,-56.5 541,-56.5"/>
<text text-anchor="middle" x="614" y="-63.5" font-family="Helvetica,sans-Serif" font-size="10.00">include/SimpleHTTPSocket.h</text>
</a>
</g>
</g>
<!-- Node1&#45;&gt;Node8 -->
<g id="edge19" class="edge"><title>Node1&#45;&gt;Node8</title>
<path fill="none" stroke="midnightblue" d="M562.501,-214.395C575.012,-178.585 602.001,-101.342 611.006,-75.5681"/>
<polygon fill="midnightblue" stroke="midnightblue" points="559.113,-213.48 559.118,-224.075 565.721,-215.789 559.113,-213.48"/>
</g>
<!-- Node12 -->
<g id="node12" class="node"><title>Node12</title>
<g id="a_node12"><a xlink:href="_job_thread_8h.html" target="_top" xlink:title="include/JobThread.h">
<polygon fill="none" stroke="black" points="0,-0.5 0,-19.5 104,-19.5 104,-0.5 0,-0.5"/>
<text text-anchor="middle" x="52" y="-7.5" font-family="Helvetica,sans-Serif" font-size="10.00">include/JobThread.h</text>
</a>
</g>
</g>
<!-- Node1&#45;&gt;Node12 -->
<g id="edge18" class="edge"><title>Node1&#45;&gt;Node12</title>
<path fill="none" stroke="midnightblue" d="M487.288,-227.37C365.019,-216.065 116.359,-186.865 51,-132 23.429,-108.856 12.8366,-90.5327 23,-56 27.1461,-41.9125 37.2211,-28.0728 44.3271,-19.5413"/>
<polygon fill="midnightblue" stroke="midnightblue" points="487.017,-230.859 497.294,-228.281 487.652,-223.888 487.017,-230.859"/>
</g>
<!-- Node14 -->
<g id="node14" class="node"><title>Node14</title>
<g id="a_node14"><a xlink:href="_database_8h.html" target="_top" xlink:title="include/Database.h">
<polygon fill="none" stroke="black" points="622.5,-168.5 622.5,-187.5 723.5,-187.5 723.5,-168.5 622.5,-168.5"/>
<text text-anchor="middle" x="673" y="-175.5" font-family="Helvetica,sans-Serif" font-size="10.00">include/Database.h</text>
</a>
</g>
</g>
<!-- Node1&#45;&gt;Node14 -->
<g id="edge15" class="edge"><title>Node1&#45;&gt;Node14</title>
<path fill="none" stroke="midnightblue" d="M583.664,-220.232C605.549,-210.131 635.497,-196.309 654.548,-187.516"/>
<polygon fill="midnightblue" stroke="midnightblue" points="582.152,-217.075 574.539,-224.444 585.085,-223.431 582.152,-217.075"/>
</g>
<!-- Node3 -->
<g id="node3" class="node"><title>Node3</title>
<g id="a_node3"><a xlink:href="_compressor_8h.html" target="_top" xlink:title="include/Compressor.h">
<polygon fill="none" stroke="black" points="168,-112.5 168,-131.5 280,-131.5 280,-112.5 168,-112.5"/>
<text text-anchor="middle" x="224" y="-119.5" font-family="Helvetica,sans-Serif" font-size="10.00">include/Compressor.h</text>
</a>
</g>
</g>
<!-- Node2&#45;&gt;Node3 -->
<g id="edge2" class="edge"><title>Node2&#45;&gt;Node3</title>
<path fill="none" stroke="midnightblue" d="M272.165,-161.82C260.162,-152.145 245.028,-139.948 234.961,-131.834"/>
<polygon fill="midnightblue" stroke="midnightblue" points="270.253,-164.774 280.235,-168.324 274.646,-159.324 270.253,-164.774"/>
</g>
<!-- Node4 -->
<g id="node4" class="node"><title>Node4</title>
<g id="a_node4"><a xlink:href="_decompressor_8h.html" target="_top" xlink:title="include/Decompressor.h">
<polygon fill="none" stroke="black" points="298,-112.5 298,-131.5 420,-131.5 420,-112.5 298,-112.5"/>
<text text-anchor="middle" x="359" y="-119.5" font-family="Helvetica,sans-Serif" font-size="10.00">include/Decompressor.h</text>
</a>
</g>
</g>
<!-- Node2&#45;&gt;Node4 -->
<g id="edge3" class="edge"><title>Node2&#45;&gt;Node4</title>
<path fill="none" stroke="midnightblue" d="M309.762,-162.101C322,-152.382 337.559,-140.027 347.876,-131.834"/>
<polygon fill="midnightblue" stroke="midnightblue" points="307.58,-159.364 301.925,-168.324 311.933,-164.846 307.58,-159.364"/>
</g>
<!-- Node5 -->
<g id="node5" class="node"><title>Node5</title>
<g id="a_node5"><a xlink:href="_socket_8h.html" target="_top" xlink:title="include/Socket.h">
<polygon fill="none" stroke="black" points="438.5,-112.5 438.5,-131.5 527.5,-131.5 527.5,-112.5 438.5,-112.5"/>
<text text-anchor="middle" x="483" y="-119.5" font-family="Helvetica,sans-Serif" font-size="10.00">include/Socket.h</text>
</a>
</g>
</g>
<!-- Node2&#45;&gt;Node5 -->
<g id="edge4" class="edge"><title>Node2&#45;&gt;Node5</title>
<path fill="none" stroke="midnightblue" d="M331.183,-165.699C367.419,-155.507 419.914,-140.743 452.719,-131.516"/>
<polygon fill="midnightblue" stroke="midnightblue" points="330.102,-162.367 321.423,-168.444 331.997,-169.105 330.102,-162.367"/>
</g>
<!-- Node10 -->
<g id="node10" class="node"><title>Node10</title>
<g id="a_node10"><a xlink:href="_files_8h.html" target="_top" xlink:title="include/Files.h">
<polygon fill="none" stroke="black" points="70,-112.5 70,-131.5 150,-131.5 150,-112.5 70,-112.5"/>
<text text-anchor="middle" x="110" y="-119.5" font-family="Helvetica,sans-Serif" font-size="10.00">include/Files.h</text>
</a>
</g>
</g>
<!-- Node2&#45;&gt;Node10 -->
<g id="edge9" class="edge"><title>Node2&#45;&gt;Node10</title>
<path fill="none" stroke="midnightblue" d="M252.681,-165.568C218.536,-155.381 169.339,-140.703 138.546,-131.516"/>
<polygon fill="midnightblue" stroke="midnightblue" points="251.737,-168.938 262.32,-168.444 253.738,-162.231 251.737,-168.938"/>
</g>
<!-- Node11 -->
<g id="node11" class="node"><title>Node11</title>
<g id="a_node11"><a xlink:href="_pipe_8h.html" target="_top" xlink:title="include/Pipe.h">
<polygon fill="none" stroke="black" points="32,-56.5 32,-75.5 110,-75.5 110,-56.5 32,-56.5"/>
<text text-anchor="middle" x="71" y="-63.5" font-family="Helvetica,sans-Serif" font-size="10.00">include/Pipe.h</text>
</a>
</g>
</g>
<!-- Node2&#45;&gt;Node11 -->
<g id="edge14" class="edge"><title>Node2&#45;&gt;Node11</title>
<path fill="none" stroke="midnightblue" d="M238.18,-174.228C177.368,-169.803 83.0023,-158.724 61,-132 47.6471,-115.781 58.655,-89.2979 65.9032,-75.6839"/>
<polygon fill="midnightblue" stroke="midnightblue" points="238.16,-177.735 248.377,-174.931 238.641,-170.752 238.16,-177.735"/>
</g>
<!-- Node5&#45;&gt;Node6 -->
<g id="edge5" class="edge"><title>Node5&#45;&gt;Node6</title>
<path fill="none" stroke="midnightblue" d="M483,-101.805C483,-92.9102 483,-82.7798 483,-75.7511"/>
<polygon fill="midnightblue" stroke="midnightblue" points="479.5,-102.083 483,-112.083 486.5,-102.083 479.5,-102.083"/>
</g>
<!-- Node7 -->
<g id="node7" class="node"><title>Node7</title>
<g id="a_node7"><a xlink:href="_listener_8h.html" target="_top" xlink:title="include/Listener.h">
<polygon fill="none" stroke="black" points="151.5,-0.5 151.5,-19.5 244.5,-19.5 244.5,-0.5 151.5,-0.5"/>
<text text-anchor="middle" x="198" y="-7.5" font-family="Helvetica,sans-Serif" font-size="10.00">include/Listener.h</text>
</a>
</g>
</g>
<!-- Node5&#45;&gt;Node7 -->
<g id="edge6" class="edge"><title>Node5&#45;&gt;Node7</title>
<path fill="none" stroke="midnightblue" d="M466.3,-105.331C449.536,-90.4539 422.341,-68.5516 395,-56 346.378,-33.6787 285.777,-21.9823 244.723,-16.1733"/>
<polygon fill="midnightblue" stroke="midnightblue" points="464.306,-108.249 474.061,-112.384 469.014,-103.069 464.306,-108.249"/>
</g>
<!-- Node5&#45;&gt;Node8 -->
<g id="edge7" class="edge"><title>Node5&#45;&gt;Node8</title>
<path fill="none" stroke="midnightblue" d="M513.317,-108.503C537.876,-98.3795 571.818,-84.388 593.34,-75.5164"/>
<polygon fill="midnightblue" stroke="midnightblue" points="511.669,-105.397 503.757,-112.444 514.337,-111.868 511.669,-105.397"/>
</g>
<!-- Node9 -->
<g id="node9" class="node"><title>Node9</title>
<g id="a_node9"><a xlink:href="_statsd_client_8h.html" target="_top" xlink:title="include/StatsdClient.h">
<polygon fill="none" stroke="black" points="273.5,-56.5 273.5,-75.5 386.5,-75.5 386.5,-56.5 273.5,-56.5"/>
<text text-anchor="middle" x="330" y="-63.5" font-family="Helvetica,sans-Serif" font-size="10.00">include/StatsdClient.h</text>
</a>
</g>
</g>
<!-- Node5&#45;&gt;Node9 -->
<g id="edge8" class="edge"><title>Node5&#45;&gt;Node9</title>
<path fill="none" stroke="midnightblue" d="M449.111,-109.039C420.323,-98.8786 379.713,-84.5457 354.13,-75.5164"/>
<polygon fill="midnightblue" stroke="midnightblue" points="448.162,-112.416 458.757,-112.444 450.492,-105.815 448.162,-112.416"/>
</g>
<!-- Node10&#45;&gt;Node11 -->
<g id="edge10" class="edge"><title>Node10&#45;&gt;Node11</title>
<path fill="none" stroke="midnightblue" d="M97.6178,-103.855C90.8646,-94.5048 82.7914,-83.3265 77.3202,-75.7511"/>
<polygon fill="midnightblue" stroke="midnightblue" points="94.8676,-106.025 103.56,-112.083 100.542,-101.927 94.8676,-106.025"/>
</g>
<!-- Node13 -->
<g id="node13" class="node"><title>Node13</title>
<g id="a_node13"><a xlink:href="_logger_8h.html" target="_top" xlink:title="include/Logger.h">
<polygon fill="none" stroke="black" points="136,-56.5 136,-75.5 224,-75.5 224,-56.5 136,-56.5"/>
<text text-anchor="middle" x="180" y="-63.5" font-family="Helvetica,sans-Serif" font-size="10.00">include/Logger.h</text>
</a>
</g>
</g>
<!-- Node10&#45;&gt;Node13 -->
<g id="edge12" class="edge"><title>Node10&#45;&gt;Node13</title>
<path fill="none" stroke="midnightblue" d="M129.314,-106.101C141.912,-96.3824 157.928,-84.0269 168.549,-75.8339"/>
<polygon fill="midnightblue" stroke="midnightblue" points="127.027,-103.445 121.247,-112.324 131.302,-108.987 127.027,-103.445"/>
</g>
<!-- Node11&#45;&gt;Node12 -->
<g id="edge11" class="edge"><title>Node11&#45;&gt;Node12</title>
<path fill="none" stroke="midnightblue" d="M64.454,-46.3956C61.2755,-37.362 57.6071,-26.936 55.0791,-19.7511"/>
<polygon fill="midnightblue" stroke="midnightblue" points="61.2418,-47.8116 67.8625,-56.083 67.845,-45.4882 61.2418,-47.8116"/>
</g>
<!-- Node13&#45;&gt;Node7 -->
<g id="edge13" class="edge"><title>Node13&#45;&gt;Node7</title>
<path fill="none" stroke="midnightblue" d="M186.201,-46.3956C189.213,-37.362 192.688,-26.936 195.083,-19.7511"/>
<polygon fill="midnightblue" stroke="midnightblue" points="182.814,-45.4893 182.972,-56.083 189.455,-47.703 182.814,-45.4893"/>
</g>
<!-- Node15 -->
<g id="node15" class="node"><title>Node15</title>
<g id="a_node15"><a xlink:href="_postgres_8h.html" target="_top" xlink:title="include/Postgres.h">
<polygon fill="none" stroke="black" points="624,-112.5 624,-131.5 722,-131.5 722,-112.5 624,-112.5"/>
<text text-anchor="middle" x="673" y="-119.5" font-family="Helvetica,sans-Serif" font-size="10.00">include/Postgres.h</text>
</a>
</g>
</g>
<!-- Node14&#45;&gt;Node15 -->
<g id="edge16" class="edge"><title>Node14&#45;&gt;Node15</title>
<path fill="none" stroke="midnightblue" d="M673,-157.805C673,-148.91 673,-138.78 673,-131.751"/>
<polygon fill="midnightblue" stroke="midnightblue" points="669.5,-158.083 673,-168.083 676.5,-158.083 669.5,-158.083"/>
</g>
</g>
</svg>
