<?xml version="1.0" encoding="UTF-8" standalone="no"?>
<!DOCTYPE svg PUBLIC "-//W3C//DTD SVG 1.1//EN"
 "http://www.w3.org/Graphics/SVG/1.1/DTD/svg11.dtd">
<!-- Generated by graphviz version 2.34.0 (20140110.0949)
 -->
<!-- Title: include/ShouldDelete.h Pages: 1 -->
<svg width="855pt" height="252pt"
 viewBox="0.00 0.00 855.00 252.00" xmlns="http://www.w3.org/2000/svg" xmlns:xlink="http://www.w3.org/1999/xlink">
<g id="graph0" class="graph" transform="scale(1 1) rotate(0) translate(4 248)">
<title>include/ShouldDelete.h</title>
<!-- Node1 -->
<g id="node1" class="node"><title>Node1</title>
<polygon fill="#bfbfbf" stroke="black" points="557.5,-224.5 557.5,-243.5 674.5,-243.5 674.5,-224.5 557.5,-224.5"/>
<text text-anchor="middle" x="616" y="-231.5" font-family="Helvetica,sans-Serif" font-size="10.00">include/ShouldDelete.h</text>
</g>
<!-- Node2 -->
<g id="node2" class="node"><title>Node2</title>
<g id="a_node2"><a xlink:href="_writer_8h.html" target="_top" xlink:title="include/Writer.h">
<polygon fill="none" stroke="black" points="249.5,-168.5 249.5,-187.5 334.5,-187.5 334.5,-168.5 249.5,-168.5"/>
<text text-anchor="middle" x="292" y="-175.5" font-family="Helvetica,sans-Serif" font-size="10.00">include/Writer.h</text>
</a>
</g>
</g>
<!-- Node1&#45;&gt;Node2 -->
<g id="edge1" class="edge"><title>Node1&#45;&gt;Node2</title>
<path fill="none" stroke="midnightblue" d="M554.659,-222.777C490.393,-212.066 391.119,-195.52 334.821,-186.137"/>
<polygon fill="midnightblue" stroke="midnightblue" points="554.222,-226.252 564.661,-224.444 555.373,-219.347 554.222,-226.252"/>
</g>
<!-- Node6 -->
<g id="node6" class="node"><title>Node6</title>
<g id="a_node6"><a xlink:href="_d_n_s_8h.html" target="_top" xlink:title="include/DNS.h">
<polygon fill="none" stroke="black" points="445,-56.5 445,-75.5 525,-75.5 525,-56.5 445,-56.5"/>
<text text-anchor="middle" x="485" y="-63.5" font-family="Helvetica,sans-Serif" font-size="10.00">include/DNS.h</text>
</a>
</g>
</g>
<!-- Node1&#45;&gt;Node6 -->
<g id="edge16" class="edge"><title>Node1&#45;&gt;Node6</title>
<path fill="none" stroke="midnightblue" d="M606.332,-215.374C592.465,-190.872 565.346,-145.731 536,-112 523.754,-97.9246 507.197,-84.0821 496.316,-75.5466"/>
<polygon fill="midnightblue" stroke="midnightblue" points="603.351,-217.215 611.28,-224.243 609.464,-213.805 603.351,-217.215"/>
</g>
<!-- Node8 -->
<g id="node8" class="node"><title>Node8</title>
<g id="a_node8"><a xlink:href="_simple_h_t_t_p_socket_8h.html" target="_top" xlink:title="include/SimpleHTTPSocket.h">
<polygon fill="none" stroke="black" points="543,-56.5 543,-75.5 689,-75.5 689,-56.5 543,-56.5"/>
<text text-anchor="middle" x="616" y="-63.5" font-family="Helvetica,sans-Serif" font-size="10.00">include/SimpleHTTPSocket.h</text>
</a>
</g>
</g>
<!-- Node1&#45;&gt;Node8 -->
<g id="edge18" class="edge"><title>Node1&#45;&gt;Node8</title>
<path fill="none" stroke="midnightblue" d="M616,-213.93C616,-177.92 616,-101.231 616,-75.5681"/>
<polygon fill="midnightblue" stroke="midnightblue" points="612.5,-214.075 616,-224.075 619.5,-214.075 612.5,-214.075"/>
</g>
<!-- Node12 -->
<g id="node12" class="node"><title>Node12</title>
<g id="a_node12"><a xlink:href="_job_thread_8h.html" target="_top" xlink:title="include/JobThread.h">
<polygon fill="none" stroke="black" points="326,-0.5 326,-19.5 430,-19.5 430,-0.5 326,-0.5"/>
<text text-anchor="middle" x="378" y="-7.5" font-family="Helvetica,sans-Serif" font-size="10.00">include/JobThread.h</text>
</a>
</g>
</g>
<!-- Node1&#45;&gt;Node12 -->
<g id="edge17" class="edge"><title>Node1&#45;&gt;Node12</title>
<path fill="none" stroke="midnightblue" d="M633.93,-217.249C669.476,-184.177 741.811,-106.403 698,-56 663.91,-16.7804 511.591,-10.758 430.003,-10.4247"/>
<polygon fill="midnightblue" stroke="midnightblue" points="631.214,-214.988 626.169,-224.304 635.923,-220.168 631.214,-214.988"/>
</g>
<!-- Node14 -->
<g id="node14" class="node"><title>Node14</title>
<g id="a_node14"><a xlink:href="_database_8h.html" target="_top" xlink:title="include/Database.h">
<polygon fill="none" stroke="black" points="745.5,-168.5 745.5,-187.5 846.5,-187.5 846.5,-168.5 745.5,-168.5"/>
<text text-anchor="middle" x="796" y="-175.5" font-family="Helvetica,sans-Serif" font-size="10.00">include/Database.h</text>
</a>
</g>
</g>
<!-- Node1&#45;&gt;Node14 -->
<g id="edge14" class="edge"><title>Node1&#45;&gt;Node14</title>
<path fill="none" stroke="midnightblue" d="M654.108,-221.568C688.063,-211.381 736.989,-196.703 767.612,-187.516"/>
<polygon fill="midnightblue" stroke="midnightblue" points="653.094,-218.218 644.522,-224.444 655.106,-224.922 653.094,-218.218"/>
</g>
<!-- Node3 -->
<g id="node3" class="node"><title>Node3</title>
<g id="a_node3"><a xlink:href="_compressor_8h.html" target="_top" xlink:title="include/Compressor.h">
<polygon fill="none" stroke="black" points="168,-112.5 168,-131.5 280,-131.5 280,-112.5 168,-112.5"/>
<text text-anchor="middle" x="224" y="-119.5" font-family="Helvetica,sans-Serif" font-size="10.00">include/Compressor.h</text>
</a>
</g>
</g>
<!-- Node2&#45;&gt;Node3 -->
<g id="edge2" class="edge"><title>Node2&#45;&gt;Node3</title>
<path fill="none" stroke="midnightblue" d="M273.238,-162.101C261,-152.382 245.441,-140.027 235.124,-131.834"/>
<polygon fill="midnightblue" stroke="midnightblue" points="271.067,-164.846 281.075,-168.324 275.42,-159.364 271.067,-164.846"/>
</g>
<!-- Node4 -->
<g id="node4" class="node"><title>Node4</title>
<g id="a_node4"><a xlink:href="_decompressor_8h.html" target="_top" xlink:title="include/Decompressor.h">
<polygon fill="none" stroke="black" points="298,-112.5 298,-131.5 420,-131.5 420,-112.5 298,-112.5"/>
<text text-anchor="middle" x="359" y="-119.5" font-family="Helvetica,sans-Serif" font-size="10.00">include/Decompressor.h</text>
</a>
</g>
</g>
<!-- Node2&#45;&gt;Node4 -->
<g id="edge3" class="edge"><title>Node2&#45;&gt;Node4</title>
<path fill="none" stroke="midnightblue" d="M310.835,-161.82C322.838,-152.145 337.972,-139.948 348.039,-131.834"/>
<polygon fill="midnightblue" stroke="midnightblue" points="308.354,-159.324 302.765,-168.324 312.747,-164.774 308.354,-159.324"/>
</g>
<!-- Node5 -->
<g id="node5" class="node"><title>Node5</title>
<g id="a_node5"><a xlink:href="_socket_8h.html" target="_top" xlink:title="include/Socket.h">
<polygon fill="none" stroke="black" points="438.5,-112.5 438.5,-131.5 527.5,-131.5 527.5,-112.5 438.5,-112.5"/>
<text text-anchor="middle" x="483" y="-119.5" font-family="Helvetica,sans-Serif" font-size="10.00">include/Socket.h</text>
</a>
</g>
</g>
<!-- Node2&#45;&gt;Node5 -->
<g id="edge4" class="edge"><title>Node2&#45;&gt;Node5</title>
<path fill="none" stroke="midnightblue" d="M331.973,-165.699C368.021,-155.507 420.243,-140.743 452.877,-131.516"/>
<polygon fill="midnightblue" stroke="midnightblue" points="330.935,-162.355 322.265,-168.444 332.84,-169.091 330.935,-162.355"/>
</g>
<!-- Node10 -->
<g id="node10" class="node"><title>Node10</title>
<g id="a_node10"><a xlink:href="_files_8h.html" target="_top" xlink:title="include/Files.h">
<polygon fill="none" stroke="black" points="70,-112.5 70,-131.5 150,-131.5 150,-112.5 70,-112.5"/>
<text text-anchor="middle" x="110" y="-119.5" font-family="Helvetica,sans-Serif" font-size="10.00">include/Files.h</text>
</a>
</g>
</g>
<!-- Node2&#45;&gt;Node10 -->
<g id="edge9" class="edge"><title>Node2&#45;&gt;Node10</title>
<path fill="none" stroke="midnightblue" d="M253.469,-165.568C219.136,-155.381 169.667,-140.703 138.704,-131.516"/>
<polygon fill="midnightblue" stroke="midnightblue" points="252.579,-168.954 263.162,-168.444 254.57,-162.244 252.579,-168.954"/>
</g>
<!-- Node11 -->
<g id="node11" class="node"><title>Node11</title>
<g id="a_node11"><a xlink:href="_pipe_8h.html" target="_top" xlink:title="include/Pipe.h">
<polygon fill="none" stroke="black" points="0,-56.5 0,-75.5 78,-75.5 78,-56.5 0,-56.5"/>
<text text-anchor="middle" x="39" y="-63.5" font-family="Helvetica,sans-Serif" font-size="10.00">include/Pipe.h</text>
</a>
</g>
</g>
<!-- Node2&#45;&gt;Node11 -->
<g id="edge13" class="edge"><title>Node2&#45;&gt;Node11</title>
<path fill="none" stroke="midnightblue" d="M239.326,-172.836C179.568,-167.087 87.0246,-154.753 61,-132 44.3174,-117.415 40.2631,-89.7107 39.2932,-75.6505"/>
<polygon fill="midnightblue" stroke="midnightblue" points="239.067,-176.327 249.348,-173.768 239.716,-169.357 239.067,-176.327"/>
</g>
<!-- Node5&#45;&gt;Node6 -->
<g id="edge5" class="edge"><title>Node5&#45;&gt;Node6</title>
<path fill="none" stroke="midnightblue" d="M483.711,-101.805C484.04,-92.9102 484.416,-82.7798 484.676,-75.7511"/>
<polygon fill="midnightblue" stroke="midnightblue" points="480.203,-101.96 483.33,-112.083 487.198,-102.219 480.203,-101.96"/>
</g>
<!-- Node7 -->
<g id="node7" class="node"><title>Node7</title>
<g id="a_node7"><a xlink:href="_listener_8h.html" target="_top" xlink:title="include/Listener.h">
<polygon fill="none" stroke="black" points="333.5,-56.5 333.5,-75.5 426.5,-75.5 426.5,-56.5 333.5,-56.5"/>
<text text-anchor="middle" x="380" y="-63.5" font-family="Helvetica,sans-Serif" font-size="10.00">include/Listener.h</text>
</a>
</g>
</g>
<!-- Node5&#45;&gt;Node7 -->
<g id="edge6" class="edge"><title>Node5&#45;&gt;Node7</title>
<path fill="none" stroke="midnightblue" d="M457.421,-107.59C438.377,-97.6052 412.936,-84.2672 396.508,-75.6545"/>
<polygon fill="midnightblue" stroke="midnightblue" points="455.969,-110.78 466.451,-112.324 459.22,-104.581 455.969,-110.78"/>
</g>
<!-- Node5&#45;&gt;Node8 -->
<g id="edge7" class="edge"><title>Node5&#45;&gt;Node8</title>
<path fill="none" stroke="midnightblue" d="M513.448,-108.638C538.407,-98.504 573.077,-84.4274 595.024,-75.5164"/>
<polygon fill="midnightblue" stroke="midnightblue" points="512.023,-105.439 504.074,-112.444 514.656,-111.924 512.023,-105.439"/>
</g>
<!-- Node9 -->
<g id="node9" class="node"><title>Node9</title>
<g id="a_node9"><a xlink:href="_statsd_client_8h.html" target="_top" xlink:title="include/StatsdClient.h">
<polygon fill="none" stroke="black" points="202.5,-56.5 202.5,-75.5 315.5,-75.5 315.5,-56.5 202.5,-56.5"/>
<text text-anchor="middle" x="259" y="-63.5" font-family="Helvetica,sans-Serif" font-size="10.00">include/StatsdClient.h</text>
</a>
</g>
</g>
<!-- Node5&#45;&gt;Node9 -->
<g id="edge8" class="edge"><title>Node5&#45;&gt;Node9</title>
<path fill="none" stroke="midnightblue" d="M437.737,-110.088C395.418,-99.8865 333.091,-84.8612 294.327,-75.5164"/>
<polygon fill="midnightblue" stroke="midnightblue" points="436.965,-113.502 447.507,-112.444 438.605,-106.697 436.965,-113.502"/>
</g>
<!-- Node10&#45;&gt;Node11 -->
<g id="edge10" class="edge"><title>Node10&#45;&gt;Node11</title>
<path fill="none" stroke="midnightblue" d="M90.4103,-106.101C77.6324,-96.3824 61.3873,-84.0269 50.6149,-75.8339"/>
<polygon fill="midnightblue" stroke="midnightblue" points="88.5143,-109.056 98.5926,-112.324 92.7519,-103.484 88.5143,-109.056"/>
</g>
<!-- Node13 -->
<g id="node13" class="node"><title>Node13</title>
<g id="a_node13"><a xlink:href="_logger_8h.html" target="_top" xlink:title="include/Logger.h">
<polygon fill="none" stroke="black" points="96,-56.5 96,-75.5 184,-75.5 184,-56.5 96,-56.5"/>
<text text-anchor="middle" x="140" y="-63.5" font-family="Helvetica,sans-Serif" font-size="10.00">include/Logger.h</text>
</a>
</g>
</g>
<!-- Node10&#45;&gt;Node13 -->
<g id="edge12" class="edge"><title>Node10&#45;&gt;Node13</title>
<path fill="none" stroke="midnightblue" d="M119.847,-103.275C124.975,-94.0454 131.016,-83.1703 135.138,-75.7511"/>
<polygon fill="midnightblue" stroke="midnightblue" points="116.751,-101.642 114.954,-112.083 122.87,-105.041 116.751,-101.642"/>
</g>
<!-- Node11&#45;&gt;Node12 -->
<g id="edge11" class="edge"><title>Node11&#45;&gt;Node12</title>
<path fill="none" stroke="midnightblue" d="M88.0447,-55.8651C177.368,-40.6882 269.69,-26.7992 325.878,-18.5479"/>
<polygon fill="midnightblue" stroke="midnightblue" points="87.2826,-52.4445 78.014,-57.5771 88.4604,-59.3447 87.2826,-52.4445"/>
</g>
<!-- Node15 -->
<g id="node15" class="node"><title>Node15</title>
<g id="a_node15"><a xlink:href="_postgres_8h.html" target="_top" xlink:title="include/Postgres.h">
<polygon fill="none" stroke="black" points="747,-112.5 747,-131.5 845,-131.5 845,-112.5 747,-112.5"/>
<text text-anchor="middle" x="796" y="-119.5" font-family="Helvetica,sans-Serif" font-size="10.00">include/Postgres.h</text>
</a>
</g>
</g>
<!-- Node14&#45;&gt;Node15 -->
<g id="edge15" class="edge"><title>Node14&#45;&gt;Node15</title>
<path fill="none" stroke="midnightblue" d="M796,-157.805C796,-148.91 796,-138.78 796,-131.751"/>
<polygon fill="midnightblue" stroke="midnightblue" points="792.5,-158.083 796,-168.083 799.5,-158.083 792.5,-158.083"/>
</g>
</g>
</svg>
