<?xml version="1.0" encoding="UTF-8" standalone="no"?>
<!DOCTYPE svg PUBLIC "-//W3C//DTD SVG 1.1//EN"
 "http://www.w3.org/Graphics/SVG/1.1/DTD/svg11.dtd">
<!-- Generated by graphviz version 2.34.0 (20140110.0949)
 -->
<!-- Title: include/SimpleHTTPSocket.h Pages: 1 -->
<svg width="675pt" height="252pt"
 viewBox="0.00 0.00 675.00 252.00" xmlns="http://www.w3.org/2000/svg" xmlns:xlink="http://www.w3.org/1999/xlink">
<g id="graph0" class="graph" transform="scale(1 1) rotate(0) translate(4 248)">
<title>include/SimpleHTTPSocket.h</title>
<!-- Node1 -->
<g id="node1" class="node"><title>Node1</title>
<polygon fill="#bfbfbf" stroke="black" points="126,-224.5 126,-243.5 272,-243.5 272,-224.5 126,-224.5"/>
<text text-anchor="middle" x="199" y="-231.5" font-family="Helvetica,sans-Serif" font-size="10.00">include/SimpleHTTPSocket.h</text>
</g>
<!-- Node2 -->
<g id="node2" class="node"><title>Node2</title>
<polygon fill="none" stroke="#bfbfbf" points="-0.5,-168.5 -0.5,-187.5 34.5,-187.5 34.5,-168.5 -0.5,-168.5"/>
<text text-anchor="middle" x="17" y="-175.5" font-family="Helvetica,sans-Serif" font-size="10.00">map</text>
</g>
<!-- Node1&#45;&gt;Node2 -->
<g id="edge1" class="edge"><title>Node1&#45;&gt;Node2</title>
<path fill="none" stroke="midnightblue" d="M168.308,-224.472C138.919,-216.223 93.1162,-203.148 44.4533,-188.051"/>
<polygon fill="midnightblue" stroke="midnightblue" points="45.2752,-184.641 34.6867,-185.006 43.1914,-191.324 45.2752,-184.641"/>
</g>
<!-- Node3 -->
<g id="node3" class="node"><title>Node3</title>
<polygon fill="none" stroke="#bfbfbf" points="53,-168.5 53,-187.5 93,-187.5 93,-168.5 53,-168.5"/>
<text text-anchor="middle" x="73" y="-175.5" font-family="Helvetica,sans-Serif" font-size="10.00">zlib.h</text>
</g>
<!-- Node1&#45;&gt;Node3 -->
<g id="edge2" class="edge"><title>Node1&#45;&gt;Node3</title>
<path fill="none" stroke="midnightblue" d="M179.035,-224.444C158.391,-215.596 125.937,-201.687 102.368,-191.586"/>
<polygon fill="midnightblue" stroke="midnightblue" points="103.442,-188.239 92.8717,-187.516 100.684,-194.673 103.442,-188.239"/>
</g>
<!-- Node4 -->
<g id="node4" class="node"><title>Node4</title>
<polygon fill="none" stroke="#bfbfbf" points="111.5,-168.5 111.5,-187.5 170.5,-187.5 170.5,-168.5 111.5,-168.5"/>
<text text-anchor="middle" x="141" y="-175.5" font-family="Helvetica,sans-Serif" font-size="10.00">functional</text>
</g>
<!-- Node1&#45;&gt;Node4 -->
<g id="edge3" class="edge"><title>Node1&#45;&gt;Node4</title>
<path fill="none" stroke="midnightblue" d="M189.681,-224.324C181.107,-216.341 168.188,-204.313 157.812,-194.653"/>
<polygon fill="midnightblue" stroke="midnightblue" points="160.192,-192.086 150.488,-187.834 155.422,-197.21 160.192,-192.086"/>
</g>
<!-- Node5 -->
<g id="node5" class="node"><title>Node5</title>
<g id="a_node5"><a xlink:href="defines_8h.html" target="_top" xlink:title="defines.h">
<polygon fill="none" stroke="black" points="510,-56.5 510,-75.5 566,-75.5 566,-56.5 510,-56.5"/>
<text text-anchor="middle" x="538" y="-63.5" font-family="Helvetica,sans-Serif" font-size="10.00">defines.h</text>
</a>
</g>
</g>
<!-- Node1&#45;&gt;Node5 -->
<g id="edge4" class="edge"><title>Node1&#45;&gt;Node5</title>
<path fill="none" stroke="midnightblue" d="M258.388,-224.479C348.551,-210.19 513.197,-178.337 548,-132 558.152,-118.483 553.216,-98.8585 547.249,-84.7128"/>
<polygon fill="midnightblue" stroke="midnightblue" points="550.356,-83.0958 542.922,-75.5465 544.025,-86.0837 550.356,-83.0958"/>
</g>
<!-- Node6 -->
<g id="node6" class="node"><title>Node6</title>
<g id="a_node6"><a xlink:href="_string_8h.html" target="_top" xlink:title="String.h">
<polygon fill="none" stroke="black" points="213,-56.5 213,-75.5 263,-75.5 263,-56.5 213,-56.5"/>
<text text-anchor="middle" x="238" y="-63.5" font-family="Helvetica,sans-Serif" font-size="10.00">String.h</text>
</a>
</g>
</g>
<!-- Node1&#45;&gt;Node6 -->
<g id="edge5" class="edge"><title>Node1&#45;&gt;Node6</title>
<path fill="none" stroke="midnightblue" d="M201.097,-224.075C207.236,-197.945 225.264,-121.211 233.636,-85.577"/>
<polygon fill="midnightblue" stroke="midnightblue" points="237.107,-86.1036 235.987,-75.5681 230.293,-84.5025 237.107,-86.1036"/>
</g>
<!-- Node8 -->
<g id="node8" class="node"><title>Node8</title>
<g id="a_node8"><a xlink:href="_socket_8h.html" target="_top" xlink:title="Socket.h">
<polygon fill="none" stroke="black" points="290,-168.5 290,-187.5 346,-187.5 346,-168.5 290,-168.5"/>
<text text-anchor="middle" x="318" y="-175.5" font-family="Helvetica,sans-Serif" font-size="10.00">Socket.h</text>
</a>
</g>
</g>
<!-- Node1&#45;&gt;Node8 -->
<g id="edge7" class="edge"><title>Node1&#45;&gt;Node8</title>
<path fill="none" stroke="midnightblue" d="M217.856,-224.444C237.266,-215.636 267.73,-201.812 289.965,-191.722"/>
<polygon fill="midnightblue" stroke="midnightblue" points="291.572,-194.836 299.232,-187.516 288.68,-188.462 291.572,-194.836"/>
</g>
<!-- Node17 -->
<g id="node17" class="node"><title>Node17</title>
<g id="a_node17"><a xlink:href="_should_delete_8h.html" target="_top" xlink:title="ShouldDelete.h">
<polygon fill="none" stroke="black" points="584.5,-56.5 584.5,-75.5 667.5,-75.5 667.5,-56.5 584.5,-56.5"/>
<text text-anchor="middle" x="626" y="-63.5" font-family="Helvetica,sans-Serif" font-size="10.00">ShouldDelete.h</text>
</a>
</g>
</g>
<!-- Node1&#45;&gt;Node17 -->
<g id="edge24" class="edge"><title>Node1&#45;&gt;Node17</title>
<path fill="none" stroke="midnightblue" d="M272.246,-229.188C329.33,-224.317 409.753,-213.23 476,-188 519.323,-171.5 528.183,-161.433 564,-132 582.16,-117.077 600.427,-97.1953 612.381,-83.3664"/>
<polygon fill="midnightblue" stroke="midnightblue" points="615.141,-85.523 618.95,-75.6366 609.807,-80.9897 615.141,-85.523"/>
</g>
<!-- Node7 -->
<g id="node7" class="node"><title>Node7</title>
<polygon fill="none" stroke="#bfbfbf" points="217.5,-0.5 217.5,-19.5 258.5,-19.5 258.5,-0.5 217.5,-0.5"/>
<text text-anchor="middle" x="238" y="-7.5" font-family="Helvetica,sans-Serif" font-size="10.00">string</text>
</g>
<!-- Node6&#45;&gt;Node7 -->
<g id="edge6" class="edge"><title>Node6&#45;&gt;Node7</title>
<path fill="none" stroke="midnightblue" d="M238,-56.083C238,-49.0059 238,-38.8611 238,-29.9865"/>
<polygon fill="midnightblue" stroke="midnightblue" points="241.5,-29.751 238,-19.7511 234.5,-29.7511 241.5,-29.751"/>
</g>
<!-- Node8&#45;&gt;Node5 -->
<g id="edge9" class="edge"><title>Node8&#45;&gt;Node5</title>
<path fill="none" stroke="midnightblue" d="M346.143,-174.994C397.987,-170.687 505.526,-158.693 530,-132 541.156,-119.832 542.231,-100.559 541.072,-86.1539"/>
<polygon fill="midnightblue" stroke="midnightblue" points="544.502,-85.3737 539.813,-75.8734 537.554,-86.2247 544.502,-85.3737"/>
</g>
<!-- Node8&#45;&gt;Node6 -->
<g id="edge11" class="edge"><title>Node8&#45;&gt;Node6</title>
<path fill="none" stroke="midnightblue" d="M300.198,-168.366C286.19,-160.686 267.221,-148.173 256,-132 246.509,-118.321 242.008,-99.7849 239.882,-86.0075"/>
<polygon fill="midnightblue" stroke="midnightblue" points="243.315,-85.2512 238.597,-75.7646 236.369,-86.1225 243.315,-85.2512"/>
</g>
<!-- Node9 -->
<g id="node9" class="node"><title>Node9</title>
<polygon fill="none" stroke="#bfbfbf" points="265,-112.5 265,-131.5 371,-131.5 371,-112.5 265,-112.5"/>
<text text-anchor="middle" x="318" y="-119.5" font-family="Helvetica,sans-Serif" font-size="10.00">event2/bufferevent.h</text>
</g>
<!-- Node8&#45;&gt;Node9 -->
<g id="edge8" class="edge"><title>Node8&#45;&gt;Node9</title>
<path fill="none" stroke="midnightblue" d="M318,-168.083C318,-161.006 318,-150.861 318,-141.986"/>
<polygon fill="midnightblue" stroke="midnightblue" points="321.5,-141.751 318,-131.751 314.5,-141.751 321.5,-141.751"/>
</g>
<!-- Node10 -->
<g id="node10" class="node"><title>Node10</title>
<g id="a_node10"><a xlink:href="_closable_8h.html" target="_top" xlink:title="Closable.h">
<polygon fill="none" stroke="black" points="389.5,-112.5 389.5,-131.5 452.5,-131.5 452.5,-112.5 389.5,-112.5"/>
<text text-anchor="middle" x="421" y="-119.5" font-family="Helvetica,sans-Serif" font-size="10.00">Closable.h</text>
</a>
</g>
</g>
<!-- Node8&#45;&gt;Node10 -->
<g id="edge10" class="edge"><title>Node8&#45;&gt;Node10</title>
<path fill="none" stroke="midnightblue" d="M334.549,-168.324C350.992,-159.703 376.435,-146.364 395.468,-136.386"/>
<polygon fill="midnightblue" stroke="midnightblue" points="397.261,-139.398 404.492,-131.655 394.011,-133.198 397.261,-139.398"/>
</g>
<!-- Node11 -->
<g id="node11" class="node"><title>Node11</title>
<g id="a_node11"><a xlink:href="_module_8h.html" target="_top" xlink:title="Module.h">
<polygon fill="none" stroke="black" points="114,-112.5 114,-131.5 170,-131.5 170,-112.5 114,-112.5"/>
<text text-anchor="middle" x="142" y="-119.5" font-family="Helvetica,sans-Serif" font-size="10.00">Module.h</text>
</a>
</g>
</g>
<!-- Node8&#45;&gt;Node11 -->
<g id="edge12" class="edge"><title>Node8&#45;&gt;Node11</title>
<path fill="none" stroke="midnightblue" d="M290.112,-168.444C260.246,-159.28 212.685,-144.688 179.544,-134.519"/>
<polygon fill="midnightblue" stroke="midnightblue" points="180.344,-131.104 169.757,-131.516 178.291,-137.796 180.344,-131.104"/>
</g>
<!-- Node16 -->
<g id="node16" class="node"><title>Node16</title>
<g id="a_node16"><a xlink:href="_writer_8h.html" target="_top" xlink:title="Writer.h">
<polygon fill="none" stroke="black" points="470.5,-112.5 470.5,-131.5 521.5,-131.5 521.5,-112.5 470.5,-112.5"/>
<text text-anchor="middle" x="496" y="-119.5" font-family="Helvetica,sans-Serif" font-size="10.00">Writer.h</text>
</a>
</g>
</g>
<!-- Node8&#45;&gt;Node16 -->
<g id="edge20" class="edge"><title>Node8&#45;&gt;Node16</title>
<path fill="none" stroke="midnightblue" d="M346.205,-168.444C377.121,-159.064 426.785,-143.998 460.371,-133.809"/>
<polygon fill="midnightblue" stroke="midnightblue" points="461.686,-137.067 470.239,-130.815 459.654,-130.369 461.686,-137.067"/>
</g>
<!-- Node11&#45;&gt;Node6 -->
<g id="edge16" class="edge"><title>Node11&#45;&gt;Node6</title>
<path fill="none" stroke="midnightblue" d="M157.424,-112.324C172.54,-103.822 195.815,-90.7288 213.471,-80.7975"/>
<polygon fill="midnightblue" stroke="midnightblue" points="215.614,-83.6077 222.614,-75.6545 212.183,-77.5066 215.614,-83.6077"/>
</g>
<!-- Node12 -->
<g id="node12" class="node"><title>Node12</title>
<polygon fill="none" stroke="#bfbfbf" points="117.5,-0.5 117.5,-19.5 190.5,-19.5 190.5,-0.5 117.5,-0.5"/>
<text text-anchor="middle" x="154" y="-7.5" font-family="Helvetica,sans-Serif" font-size="10.00">event2/dns.h</text>
</g>
<!-- Node11&#45;&gt;Node12 -->
<g id="edge13" class="edge"><title>Node11&#45;&gt;Node12</title>
<path fill="none" stroke="midnightblue" d="M148.367,-112.232C154.26,-103.532 162.607,-89.5719 166,-76 169.87,-60.5185 165.995,-42.6763 161.647,-29.6064"/>
<polygon fill="midnightblue" stroke="midnightblue" points="164.807,-28.0615 158.043,-19.9067 158.245,-30.4996 164.807,-28.0615"/>
</g>
<!-- Node13 -->
<g id="node13" class="node"><title>Node13</title>
<polygon fill="none" stroke="#bfbfbf" points="0.5,-0.5 0.5,-19.5 81.5,-19.5 81.5,-0.5 0.5,-0.5"/>
<text text-anchor="middle" x="41" y="-7.5" font-family="Helvetica,sans-Serif" font-size="10.00">event2/event.h</text>
</g>
<!-- Node11&#45;&gt;Node13 -->
<g id="edge14" class="edge"><title>Node11&#45;&gt;Node13</title>
<path fill="none" stroke="midnightblue" d="M113.639,-114.734C92.6279,-108.545 65.1211,-96.8819 50,-76 40.3951,-62.7359 38.7392,-43.8729 39.1337,-29.8812"/>
<polygon fill="midnightblue" stroke="midnightblue" points="42.6523,-29.7123 39.8178,-19.5037 35.6675,-29.2517 42.6523,-29.7123"/>
</g>
<!-- Node14 -->
<g id="node14" class="node"><title>Node14</title>
<polygon fill="none" stroke="#bfbfbf" points="127,-56.5 127,-75.5 157,-75.5 157,-56.5 127,-56.5"/>
<text text-anchor="middle" x="142" y="-63.5" font-family="Helvetica,sans-Serif" font-size="10.00">set</text>
</g>
<!-- Node11&#45;&gt;Node14 -->
<g id="edge15" class="edge"><title>Node11&#45;&gt;Node14</title>
<path fill="none" stroke="midnightblue" d="M142,-112.083C142,-105.006 142,-94.8611 142,-85.9865"/>
<polygon fill="midnightblue" stroke="midnightblue" points="145.5,-85.751 142,-75.7511 138.5,-85.7511 145.5,-85.751"/>
</g>
<!-- Node15 -->
<g id="node15" class="node"><title>Node15</title>
<g id="a_node15"><a xlink:href="_event_8h.html" target="_top" xlink:title="Event.h">
<polygon fill="none" stroke="black" points="59,-56.5 59,-75.5 109,-75.5 109,-56.5 59,-56.5"/>
<text text-anchor="middle" x="84" y="-63.5" font-family="Helvetica,sans-Serif" font-size="10.00">Event.h</text>
</a>
</g>
</g>
<!-- Node11&#45;&gt;Node15 -->
<g id="edge17" class="edge"><title>Node11&#45;&gt;Node15</title>
<path fill="none" stroke="midnightblue" d="M132.681,-112.324C124.107,-104.341 111.188,-92.3128 100.812,-82.6529"/>
<polygon fill="midnightblue" stroke="midnightblue" points="103.192,-80.0865 93.4883,-75.8339 98.4223,-85.2098 103.192,-80.0865"/>
</g>
<!-- Node15&#45;&gt;Node12 -->
<g id="edge18" class="edge"><title>Node15&#45;&gt;Node12</title>
<path fill="none" stroke="midnightblue" d="M95.2467,-56.324C105.797,-48.1849 121.801,-35.8395 134.442,-26.0874"/>
<polygon fill="midnightblue" stroke="midnightblue" points="136.769,-28.7132 142.549,-19.8339 132.493,-23.1707 136.769,-28.7132"/>
</g>
<!-- Node15&#45;&gt;Node13 -->
<g id="edge19" class="edge"><title>Node15&#45;&gt;Node13</title>
<path fill="none" stroke="midnightblue" d="M76.8994,-56.083C70.763,-48.3768 61.7303,-37.0333 54.2608,-27.6531"/>
<polygon fill="midnightblue" stroke="midnightblue" points="56.9357,-25.3936 47.9685,-19.7511 51.4598,-29.7542 56.9357,-25.3936"/>
</g>
<!-- Node16&#45;&gt;Node5 -->
<g id="edge21" class="edge"><title>Node16&#45;&gt;Node5</title>
<path fill="none" stroke="midnightblue" d="M502.935,-112.083C508.929,-104.377 517.752,-93.0333 525.048,-83.6531"/>
<polygon fill="midnightblue" stroke="midnightblue" points="527.817,-85.7934 531.194,-75.7511 522.291,-81.4958 527.817,-85.7934"/>
</g>
<!-- Node16&#45;&gt;Node6 -->
<g id="edge22" class="edge"><title>Node16&#45;&gt;Node6</title>
<path fill="none" stroke="midnightblue" d="M470.424,-114.258C467.256,-113.472 464.058,-112.701 461,-112 394.889,-96.8406 317.124,-81.7694 273.091,-73.49"/>
<polygon fill="midnightblue" stroke="midnightblue" points="273.648,-70.0335 263.175,-71.6331 272.359,-76.9139 273.648,-70.0335"/>
</g>
<!-- Node16&#45;&gt;Node17 -->
<g id="edge23" class="edge"><title>Node16&#45;&gt;Node17</title>
<path fill="none" stroke="midnightblue" d="M516.599,-112.444C537.993,-103.557 571.681,-89.5632 596.024,-79.4514"/>
<polygon fill="midnightblue" stroke="midnightblue" points="597.605,-82.5848 605.497,-75.5164 594.92,-76.1203 597.605,-82.5848"/>
</g>
</g>
</svg>
