<?xml version="1.0" encoding="UTF-8" standalone="no"?>
<!DOCTYPE svg PUBLIC "-//W3C//DTD SVG 1.1//EN"
 "http://www.w3.org/Graphics/SVG/1.1/DTD/svg11.dtd">
<!-- Generated by graphviz version 2.34.0 (20140110.0949)
 -->
<!-- Title: include/SimpleHTTPSocket.h Pages: 1 -->
<svg width="749pt" height="252pt"
 viewBox="0.00 0.00 749.00 252.00" xmlns="http://www.w3.org/2000/svg" xmlns:xlink="http://www.w3.org/1999/xlink">
<g id="graph0" class="graph" transform="scale(1 1) rotate(0) translate(4 248)">
<title>include/SimpleHTTPSocket.h</title>
<!-- Node1 -->
<g id="node1" class="node"><title>Node1</title>
<polygon fill="#bfbfbf" stroke="black" points="200,-224.5 200,-243.5 346,-243.5 346,-224.5 200,-224.5"/>
<text text-anchor="middle" x="273" y="-231.5" font-family="Helvetica,sans-Serif" font-size="10.00">include/SimpleHTTPSocket.h</text>
</g>
<!-- Node2 -->
<g id="node2" class="node"><title>Node2</title>
<polygon fill="none" stroke="#bfbfbf" points="73.5,-168.5 73.5,-187.5 108.5,-187.5 108.5,-168.5 73.5,-168.5"/>
<text text-anchor="middle" x="91" y="-175.5" font-family="Helvetica,sans-Serif" font-size="10.00">map</text>
</g>
<!-- Node1&#45;&gt;Node2 -->
<g id="edge1" class="edge"><title>Node1&#45;&gt;Node2</title>
<path fill="none" stroke="midnightblue" d="M242.308,-224.472C212.919,-216.223 167.116,-203.148 118.453,-188.051"/>
<polygon fill="midnightblue" stroke="midnightblue" points="119.275,-184.641 108.687,-185.006 117.191,-191.324 119.275,-184.641"/>
</g>
<!-- Node3 -->
<g id="node3" class="node"><title>Node3</title>
<polygon fill="none" stroke="#bfbfbf" points="127,-168.5 127,-187.5 167,-187.5 167,-168.5 127,-168.5"/>
<text text-anchor="middle" x="147" y="-175.5" font-family="Helvetica,sans-Serif" font-size="10.00">zlib.h</text>
</g>
<!-- Node1&#45;&gt;Node3 -->
<g id="edge2" class="edge"><title>Node1&#45;&gt;Node3</title>
<path fill="none" stroke="midnightblue" d="M253.035,-224.444C232.391,-215.596 199.937,-201.687 176.368,-191.586"/>
<polygon fill="midnightblue" stroke="midnightblue" points="177.442,-188.239 166.872,-187.516 174.684,-194.673 177.442,-188.239"/>
</g>
<!-- Node4 -->
<g id="node4" class="node"><title>Node4</title>
<polygon fill="none" stroke="#bfbfbf" points="185.5,-168.5 185.5,-187.5 244.5,-187.5 244.5,-168.5 185.5,-168.5"/>
<text text-anchor="middle" x="215" y="-175.5" font-family="Helvetica,sans-Serif" font-size="10.00">functional</text>
</g>
<!-- Node1&#45;&gt;Node4 -->
<g id="edge3" class="edge"><title>Node1&#45;&gt;Node4</title>
<path fill="none" stroke="midnightblue" d="M263.681,-224.324C255.107,-216.341 242.188,-204.313 231.812,-194.653"/>
<polygon fill="midnightblue" stroke="midnightblue" points="234.192,-192.086 224.488,-187.834 229.422,-197.21 234.192,-192.086"/>
</g>
<!-- Node5 -->
<g id="node5" class="node"><title>Node5</title>
<g id="a_node5"><a xlink:href="defines_8h.html" target="_top" xlink:title="defines.h">
<polygon fill="none" stroke="black" points="584,-56.5 584,-75.5 640,-75.5 640,-56.5 584,-56.5"/>
<text text-anchor="middle" x="612" y="-63.5" font-family="Helvetica,sans-Serif" font-size="10.00">defines.h</text>
</a>
</g>
</g>
<!-- Node1&#45;&gt;Node5 -->
<g id="edge4" class="edge"><title>Node1&#45;&gt;Node5</title>
<path fill="none" stroke="midnightblue" d="M332.388,-224.479C422.551,-210.19 587.197,-178.337 622,-132 632.152,-118.483 627.216,-98.8585 621.249,-84.7128"/>
<polygon fill="midnightblue" stroke="midnightblue" points="624.356,-83.0958 616.922,-75.5465 618.025,-86.0837 624.356,-83.0958"/>
</g>
<!-- Node6 -->
<g id="node6" class="node"><title>Node6</title>
<g id="a_node6"><a xlink:href="_string_8h.html" target="_top" xlink:title="String.h">
<polygon fill="none" stroke="black" points="287,-56.5 287,-75.5 337,-75.5 337,-56.5 287,-56.5"/>
<text text-anchor="middle" x="312" y="-63.5" font-family="Helvetica,sans-Serif" font-size="10.00">String.h</text>
</a>
</g>
</g>
<!-- Node1&#45;&gt;Node6 -->
<g id="edge5" class="edge"><title>Node1&#45;&gt;Node6</title>
<path fill="none" stroke="midnightblue" d="M275.097,-224.075C281.236,-197.945 299.264,-121.211 307.636,-85.577"/>
<polygon fill="midnightblue" stroke="midnightblue" points="311.107,-86.1036 309.987,-75.5681 304.293,-84.5025 311.107,-86.1036"/>
</g>
<!-- Node8 -->
<g id="node8" class="node"><title>Node8</title>
<g id="a_node8"><a xlink:href="_socket_8h.html" target="_top" xlink:title="Socket.h">
<polygon fill="none" stroke="black" points="364,-168.5 364,-187.5 420,-187.5 420,-168.5 364,-168.5"/>
<text text-anchor="middle" x="392" y="-175.5" font-family="Helvetica,sans-Serif" font-size="10.00">Socket.h</text>
</a>
</g>
</g>
<!-- Node1&#45;&gt;Node8 -->
<g id="edge7" class="edge"><title>Node1&#45;&gt;Node8</title>
<path fill="none" stroke="midnightblue" d="M291.856,-224.444C311.266,-215.636 341.73,-201.812 363.965,-191.722"/>
<polygon fill="midnightblue" stroke="midnightblue" points="365.572,-194.836 373.232,-187.516 362.68,-188.462 365.572,-194.836"/>
</g>
<!-- Node18 -->
<g id="node18" class="node"><title>Node18</title>
<g id="a_node18"><a xlink:href="_should_delete_8h.html" target="_top" xlink:title="ShouldDelete.h">
<polygon fill="none" stroke="black" points="658.5,-56.5 658.5,-75.5 741.5,-75.5 741.5,-56.5 658.5,-56.5"/>
<text text-anchor="middle" x="700" y="-63.5" font-family="Helvetica,sans-Serif" font-size="10.00">ShouldDelete.h</text>
</a>
</g>
</g>
<!-- Node1&#45;&gt;Node18 -->
<g id="edge25" class="edge"><title>Node1&#45;&gt;Node18</title>
<path fill="none" stroke="midnightblue" d="M346.246,-229.188C403.33,-224.317 483.753,-213.23 550,-188 593.323,-171.5 602.183,-161.433 638,-132 656.16,-117.077 674.427,-97.1953 686.381,-83.3664"/>
<polygon fill="midnightblue" stroke="midnightblue" points="689.141,-85.523 692.95,-75.6366 683.807,-80.9897 689.141,-85.523"/>
</g>
<!-- Node7 -->
<g id="node7" class="node"><title>Node7</title>
<polygon fill="none" stroke="#bfbfbf" points="291.5,-0.5 291.5,-19.5 332.5,-19.5 332.5,-0.5 291.5,-0.5"/>
<text text-anchor="middle" x="312" y="-7.5" font-family="Helvetica,sans-Serif" font-size="10.00">string</text>
</g>
<!-- Node6&#45;&gt;Node7 -->
<g id="edge6" class="edge"><title>Node6&#45;&gt;Node7</title>
<path fill="none" stroke="midnightblue" d="M312,-56.083C312,-49.0059 312,-38.8611 312,-29.9865"/>
<polygon fill="midnightblue" stroke="midnightblue" points="315.5,-29.751 312,-19.7511 308.5,-29.7511 315.5,-29.751"/>
</g>
<!-- Node8&#45;&gt;Node5 -->
<g id="edge9" class="edge"><title>Node8&#45;&gt;Node5</title>
<path fill="none" stroke="midnightblue" d="M420.143,-174.994C471.987,-170.687 579.526,-158.693 604,-132 615.156,-119.832 616.231,-100.559 615.072,-86.1539"/>
<polygon fill="midnightblue" stroke="midnightblue" points="618.502,-85.3737 613.813,-75.8734 611.554,-86.2247 618.502,-85.3737"/>
</g>
<!-- Node8&#45;&gt;Node6 -->
<g id="edge11" class="edge"><title>Node8&#45;&gt;Node6</title>
<path fill="none" stroke="midnightblue" d="M374.198,-168.366C360.19,-160.686 341.221,-148.173 330,-132 320.509,-118.321 316.008,-99.7849 313.882,-86.0075"/>
<polygon fill="midnightblue" stroke="midnightblue" points="317.315,-85.2512 312.597,-75.7646 310.369,-86.1225 317.315,-85.2512"/>
</g>
<!-- Node9 -->
<g id="node9" class="node"><title>Node9</title>
<polygon fill="none" stroke="#bfbfbf" points="339,-112.5 339,-131.5 445,-131.5 445,-112.5 339,-112.5"/>
<text text-anchor="middle" x="392" y="-119.5" font-family="Helvetica,sans-Serif" font-size="10.00">event2/bufferevent.h</text>
</g>
<!-- Node8&#45;&gt;Node9 -->
<g id="edge8" class="edge"><title>Node8&#45;&gt;Node9</title>
<path fill="none" stroke="midnightblue" d="M392,-168.083C392,-161.006 392,-150.861 392,-141.986"/>
<polygon fill="midnightblue" stroke="midnightblue" points="395.5,-141.751 392,-131.751 388.5,-141.751 395.5,-141.751"/>
</g>
<!-- Node10 -->
<g id="node10" class="node"><title>Node10</title>
<g id="a_node10"><a xlink:href="_closable_8h.html" target="_top" xlink:title="Closable.h">
<polygon fill="none" stroke="black" points="463.5,-112.5 463.5,-131.5 526.5,-131.5 526.5,-112.5 463.5,-112.5"/>
<text text-anchor="middle" x="495" y="-119.5" font-family="Helvetica,sans-Serif" font-size="10.00">Closable.h</text>
</a>
</g>
</g>
<!-- Node8&#45;&gt;Node10 -->
<g id="edge10" class="edge"><title>Node8&#45;&gt;Node10</title>
<path fill="none" stroke="midnightblue" d="M408.549,-168.324C424.992,-159.703 450.435,-146.364 469.468,-136.386"/>
<polygon fill="midnightblue" stroke="midnightblue" points="471.261,-139.398 478.492,-131.655 468.011,-133.198 471.261,-139.398"/>
</g>
<!-- Node11 -->
<g id="node11" class="node"><title>Node11</title>
<g id="a_node11"><a xlink:href="_module_8h.html" target="_top" xlink:title="Module.h">
<polygon fill="none" stroke="black" points="188,-112.5 188,-131.5 244,-131.5 244,-112.5 188,-112.5"/>
<text text-anchor="middle" x="216" y="-119.5" font-family="Helvetica,sans-Serif" font-size="10.00">Module.h</text>
</a>
</g>
</g>
<!-- Node8&#45;&gt;Node11 -->
<g id="edge12" class="edge"><title>Node8&#45;&gt;Node11</title>
<path fill="none" stroke="midnightblue" d="M364.112,-168.444C334.246,-159.28 286.685,-144.688 253.544,-134.519"/>
<polygon fill="midnightblue" stroke="midnightblue" points="254.344,-131.104 243.757,-131.516 252.291,-137.796 254.344,-131.104"/>
</g>
<!-- Node17 -->
<g id="node17" class="node"><title>Node17</title>
<g id="a_node17"><a xlink:href="_writer_8h.html" target="_top" xlink:title="Writer.h">
<polygon fill="none" stroke="black" points="544.5,-112.5 544.5,-131.5 595.5,-131.5 595.5,-112.5 544.5,-112.5"/>
<text text-anchor="middle" x="570" y="-119.5" font-family="Helvetica,sans-Serif" font-size="10.00">Writer.h</text>
</a>
</g>
</g>
<!-- Node8&#45;&gt;Node17 -->
<g id="edge21" class="edge"><title>Node8&#45;&gt;Node17</title>
<path fill="none" stroke="midnightblue" d="M420.205,-168.444C451.121,-159.064 500.785,-143.998 534.371,-133.809"/>
<polygon fill="midnightblue" stroke="midnightblue" points="535.686,-137.067 544.239,-130.815 533.654,-130.369 535.686,-137.067"/>
</g>
<!-- Node11&#45;&gt;Node6 -->
<g id="edge17" class="edge"><title>Node11&#45;&gt;Node6</title>
<path fill="none" stroke="midnightblue" d="M231.424,-112.324C246.54,-103.822 269.815,-90.7288 287.471,-80.7975"/>
<polygon fill="midnightblue" stroke="midnightblue" points="289.614,-83.6077 296.614,-75.6545 286.183,-77.5066 289.614,-83.6077"/>
</g>
<!-- Node12 -->
<g id="node12" class="node"><title>Node12</title>
<polygon fill="none" stroke="#bfbfbf" points="149.5,-0.5 149.5,-19.5 222.5,-19.5 222.5,-0.5 149.5,-0.5"/>
<text text-anchor="middle" x="186" y="-7.5" font-family="Helvetica,sans-Serif" font-size="10.00">event2/dns.h</text>
</g>
<!-- Node11&#45;&gt;Node12 -->
<g id="edge13" class="edge"><title>Node11&#45;&gt;Node12</title>
<path fill="none" stroke="midnightblue" d="M223.518,-112.4C233.588,-99.7776 249.184,-75.6086 240,-56 233.955,-43.0941 222.188,-32.5985 211.177,-24.9999"/>
<polygon fill="midnightblue" stroke="midnightblue" points="212.943,-21.9748 202.633,-19.5364 209.172,-27.8723 212.943,-21.9748"/>
</g>
<!-- Node13 -->
<g id="node13" class="node"><title>Node13</title>
<polygon fill="none" stroke="#bfbfbf" points="-0.5,-0.5 -0.5,-19.5 80.5,-19.5 80.5,-0.5 -0.5,-0.5"/>
<text text-anchor="middle" x="40" y="-7.5" font-family="Helvetica,sans-Serif" font-size="10.00">event2/event.h</text>
</g>
<!-- Node11&#45;&gt;Node13 -->
<g id="edge14" class="edge"><title>Node11&#45;&gt;Node13</title>
<path fill="none" stroke="midnightblue" d="M187.99,-118.309C141.372,-113.187 51.0864,-100.317 32,-76 21.6059,-62.7575 25.9111,-43.0899 31.3894,-28.8591"/>
<polygon fill="midnightblue" stroke="midnightblue" points="34.6252,-30.1944 35.3923,-19.6274 28.2029,-27.4097 34.6252,-30.1944"/>
</g>
<!-- Node14 -->
<g id="node14" class="node"><title>Node14</title>
<polygon fill="none" stroke="#bfbfbf" points="109.5,-56.5 109.5,-75.5 182.5,-75.5 182.5,-56.5 109.5,-56.5"/>
<text text-anchor="middle" x="146" y="-63.5" font-family="Helvetica,sans-Serif" font-size="10.00">libconfig.h++</text>
</g>
<!-- Node11&#45;&gt;Node14 -->
<g id="edge15" class="edge"><title>Node11&#45;&gt;Node14</title>
<path fill="none" stroke="midnightblue" d="M204.753,-112.324C194.203,-104.185 178.199,-91.8395 165.558,-82.0874"/>
<polygon fill="midnightblue" stroke="midnightblue" points="167.507,-79.1707 157.451,-75.8339 163.231,-84.7132 167.507,-79.1707"/>
</g>
<!-- Node15 -->
<g id="node15" class="node"><title>Node15</title>
<polygon fill="none" stroke="#bfbfbf" points="201,-56.5 201,-75.5 231,-75.5 231,-56.5 201,-56.5"/>
<text text-anchor="middle" x="216" y="-63.5" font-family="Helvetica,sans-Serif" font-size="10.00">set</text>
</g>
<!-- Node11&#45;&gt;Node15 -->
<g id="edge16" class="edge"><title>Node11&#45;&gt;Node15</title>
<path fill="none" stroke="midnightblue" d="M216,-112.083C216,-105.006 216,-94.8611 216,-85.9865"/>
<polygon fill="midnightblue" stroke="midnightblue" points="219.5,-85.751 216,-75.7511 212.5,-85.7511 219.5,-85.751"/>
</g>
<!-- Node16 -->
<g id="node16" class="node"><title>Node16</title>
<g id="a_node16"><a xlink:href="_event_8h.html" target="_top" xlink:title="Event.h">
<polygon fill="none" stroke="black" points="41,-56.5 41,-75.5 91,-75.5 91,-56.5 41,-56.5"/>
<text text-anchor="middle" x="66" y="-63.5" font-family="Helvetica,sans-Serif" font-size="10.00">Event.h</text>
</a>
</g>
</g>
<!-- Node11&#45;&gt;Node16 -->
<g id="edge18" class="edge"><title>Node11&#45;&gt;Node16</title>
<path fill="none" stroke="midnightblue" d="M192.232,-112.444C167.107,-103.399 127.289,-89.064 99.0996,-78.9158"/>
<polygon fill="midnightblue" stroke="midnightblue" points="100.251,-75.6106 89.6567,-75.5164 97.8801,-82.1968 100.251,-75.6106"/>
</g>
<!-- Node16&#45;&gt;Node12 -->
<g id="edge19" class="edge"><title>Node16&#45;&gt;Node12</title>
<path fill="none" stroke="midnightblue" d="M85.0144,-56.4435C104.588,-47.6356 135.308,-33.8116 157.729,-23.722"/>
<polygon fill="midnightblue" stroke="midnightblue" points="159.392,-26.8119 167.075,-19.5164 156.519,-20.4284 159.392,-26.8119"/>
</g>
<!-- Node16&#45;&gt;Node13 -->
<g id="edge20" class="edge"><title>Node16&#45;&gt;Node13</title>
<path fill="none" stroke="midnightblue" d="M61.7066,-56.083C58.1477,-48.6913 52.9775,-37.9533 48.5757,-28.8111"/>
<polygon fill="midnightblue" stroke="midnightblue" points="51.7052,-27.2427 44.2135,-19.7511 45.3982,-30.2795 51.7052,-27.2427"/>
</g>
<!-- Node17&#45;&gt;Node5 -->
<g id="edge22" class="edge"><title>Node17&#45;&gt;Node5</title>
<path fill="none" stroke="midnightblue" d="M576.935,-112.083C582.929,-104.377 591.752,-93.0333 599.048,-83.6531"/>
<polygon fill="midnightblue" stroke="midnightblue" points="601.817,-85.7934 605.194,-75.7511 596.291,-81.4958 601.817,-85.7934"/>
</g>
<!-- Node17&#45;&gt;Node6 -->
<g id="edge23" class="edge"><title>Node17&#45;&gt;Node6</title>
<path fill="none" stroke="midnightblue" d="M544.424,-114.258C541.256,-113.472 538.058,-112.701 535,-112 468.889,-96.8406 391.124,-81.7694 347.091,-73.49"/>
<polygon fill="midnightblue" stroke="midnightblue" points="347.648,-70.0335 337.175,-71.6331 346.359,-76.9139 347.648,-70.0335"/>
</g>
<!-- Node17&#45;&gt;Node18 -->
<g id="edge24" class="edge"><title>Node17&#45;&gt;Node18</title>
<path fill="none" stroke="midnightblue" d="M590.599,-112.444C611.993,-103.557 645.681,-89.5632 670.024,-79.4514"/>
<polygon fill="midnightblue" stroke="midnightblue" points="671.605,-82.5848 679.497,-75.5164 668.92,-76.1203 671.605,-82.5848"/>
</g>
</g>
</svg>
