<?xml version="1.0" encoding="UTF-8" standalone="no"?>
<!DOCTYPE svg PUBLIC "-//W3C//DTD SVG 1.1//EN"
 "http://www.w3.org/Graphics/SVG/1.1/DTD/svg11.dtd">
<!-- Generated by graphviz version 2.34.0 (20140110.0949)
 -->
<!-- Title: include/SimpleHTTPSocket.h Pages: 1 -->
<svg width="827pt" height="252pt"
 viewBox="0.00 0.00 827.00 252.00" xmlns="http://www.w3.org/2000/svg" xmlns:xlink="http://www.w3.org/1999/xlink">
<g id="graph0" class="graph" transform="scale(1 1) rotate(0) translate(4 248)">
<title>include/SimpleHTTPSocket.h</title>
<!-- Node1 -->
<g id="node1" class="node"><title>Node1</title>
<polygon fill="#bfbfbf" stroke="black" points="200,-224.5 200,-243.5 346,-243.5 346,-224.5 200,-224.5"/>
<text text-anchor="middle" x="273" y="-231.5" font-family="Helvetica,sans-Serif" font-size="10.00">include/SimpleHTTPSocket.h</text>
</g>
<!-- Node2 -->
<g id="node2" class="node"><title>Node2</title>
<polygon fill="none" stroke="#bfbfbf" points="73.5,-168.5 73.5,-187.5 108.5,-187.5 108.5,-168.5 73.5,-168.5"/>
<text text-anchor="middle" x="91" y="-175.5" font-family="Helvetica,sans-Serif" font-size="10.00">map</text>
</g>
<!-- Node1&#45;&gt;Node2 -->
<g id="edge1" class="edge"><title>Node1&#45;&gt;Node2</title>
<path fill="none" stroke="midnightblue" d="M242.308,-224.472C212.919,-216.223 167.116,-203.148 118.453,-188.051"/>
<polygon fill="midnightblue" stroke="midnightblue" points="119.275,-184.641 108.687,-185.006 117.191,-191.324 119.275,-184.641"/>
</g>
<!-- Node3 -->
<g id="node3" class="node"><title>Node3</title>
<polygon fill="none" stroke="#bfbfbf" points="127,-168.5 127,-187.5 167,-187.5 167,-168.5 127,-168.5"/>
<text text-anchor="middle" x="147" y="-175.5" font-family="Helvetica,sans-Serif" font-size="10.00">zlib.h</text>
</g>
<!-- Node1&#45;&gt;Node3 -->
<g id="edge2" class="edge"><title>Node1&#45;&gt;Node3</title>
<path fill="none" stroke="midnightblue" d="M253.035,-224.444C232.391,-215.596 199.937,-201.687 176.368,-191.586"/>
<polygon fill="midnightblue" stroke="midnightblue" points="177.442,-188.239 166.872,-187.516 174.684,-194.673 177.442,-188.239"/>
</g>
<!-- Node4 -->
<g id="node4" class="node"><title>Node4</title>
<polygon fill="none" stroke="#bfbfbf" points="185.5,-168.5 185.5,-187.5 244.5,-187.5 244.5,-168.5 185.5,-168.5"/>
<text text-anchor="middle" x="215" y="-175.5" font-family="Helvetica,sans-Serif" font-size="10.00">functional</text>
</g>
<!-- Node1&#45;&gt;Node4 -->
<g id="edge3" class="edge"><title>Node1&#45;&gt;Node4</title>
<path fill="none" stroke="midnightblue" d="M263.681,-224.324C255.107,-216.341 242.188,-204.313 231.812,-194.653"/>
<polygon fill="midnightblue" stroke="midnightblue" points="234.192,-192.086 224.488,-187.834 229.422,-197.21 234.192,-192.086"/>
</g>
<!-- Node5 -->
<g id="node5" class="node"><title>Node5</title>
<g id="a_node5"><a xlink:href="defines_8h.html" target="_top" xlink:title="defines.h">
<polygon fill="none" stroke="black" points="662,-56.5 662,-75.5 718,-75.5 718,-56.5 662,-56.5"/>
<text text-anchor="middle" x="690" y="-63.5" font-family="Helvetica,sans-Serif" font-size="10.00">defines.h</text>
</a>
</g>
</g>
<!-- Node1&#45;&gt;Node5 -->
<g id="edge4" class="edge"><title>Node1&#45;&gt;Node5</title>
<path fill="none" stroke="midnightblue" d="M346.361,-226.428C456.594,-214.865 656.697,-186.741 700,-132 710.488,-118.742 705.499,-99.0766 699.428,-84.8507"/>
<polygon fill="midnightblue" stroke="midnightblue" points="702.489,-83.1385 695.021,-75.6228 696.172,-86.1549 702.489,-83.1385"/>
</g>
<!-- Node6 -->
<g id="node6" class="node"><title>Node6</title>
<g id="a_node6"><a xlink:href="_string_8h.html" target="_top" xlink:title="String.h">
<polygon fill="none" stroke="black" points="287,-56.5 287,-75.5 337,-75.5 337,-56.5 287,-56.5"/>
<text text-anchor="middle" x="312" y="-63.5" font-family="Helvetica,sans-Serif" font-size="10.00">String.h</text>
</a>
</g>
</g>
<!-- Node1&#45;&gt;Node6 -->
<g id="edge5" class="edge"><title>Node1&#45;&gt;Node6</title>
<path fill="none" stroke="midnightblue" d="M275.097,-224.075C281.236,-197.945 299.264,-121.211 307.636,-85.577"/>
<polygon fill="midnightblue" stroke="midnightblue" points="311.107,-86.1036 309.987,-75.5681 304.293,-84.5025 311.107,-86.1036"/>
</g>
<!-- Node8 -->
<g id="node8" class="node"><title>Node8</title>
<g id="a_node8"><a xlink:href="_socket_8h.html" target="_top" xlink:title="Socket.h">
<polygon fill="none" stroke="black" points="391,-168.5 391,-187.5 447,-187.5 447,-168.5 391,-168.5"/>
<text text-anchor="middle" x="419" y="-175.5" font-family="Helvetica,sans-Serif" font-size="10.00">Socket.h</text>
</a>
</g>
</g>
<!-- Node1&#45;&gt;Node8 -->
<g id="edge7" class="edge"><title>Node1&#45;&gt;Node8</title>
<path fill="none" stroke="midnightblue" d="M296.134,-224.444C320.482,-215.438 359.007,-201.189 386.423,-191.049"/>
<polygon fill="midnightblue" stroke="midnightblue" points="387.809,-194.268 395.974,-187.516 385.381,-187.703 387.809,-194.268"/>
</g>
<!-- Node19 -->
<g id="node19" class="node"><title>Node19</title>
<g id="a_node19"><a xlink:href="_should_delete_8h.html" target="_top" xlink:title="ShouldDelete.h">
<polygon fill="none" stroke="black" points="736.5,-56.5 736.5,-75.5 819.5,-75.5 819.5,-56.5 736.5,-56.5"/>
<text text-anchor="middle" x="778" y="-63.5" font-family="Helvetica,sans-Serif" font-size="10.00">ShouldDelete.h</text>
</a>
</g>
</g>
<!-- Node1&#45;&gt;Node19 -->
<g id="edge26" class="edge"><title>Node1&#45;&gt;Node19</title>
<path fill="none" stroke="midnightblue" d="M346.253,-232.337C418.682,-229.679 531.739,-220.093 624,-188 669.57,-172.149 679.47,-162.322 717,-132 735.143,-117.341 753.067,-97.4128 764.741,-83.5005"/>
<polygon fill="midnightblue" stroke="midnightblue" points="767.495,-85.6618 771.148,-75.7166 762.09,-81.2132 767.495,-85.6618"/>
</g>
<!-- Node7 -->
<g id="node7" class="node"><title>Node7</title>
<polygon fill="none" stroke="#bfbfbf" points="291.5,-0.5 291.5,-19.5 332.5,-19.5 332.5,-0.5 291.5,-0.5"/>
<text text-anchor="middle" x="312" y="-7.5" font-family="Helvetica,sans-Serif" font-size="10.00">string</text>
</g>
<!-- Node6&#45;&gt;Node7 -->
<g id="edge6" class="edge"><title>Node6&#45;&gt;Node7</title>
<path fill="none" stroke="midnightblue" d="M312,-56.083C312,-49.0059 312,-38.8611 312,-29.9865"/>
<polygon fill="midnightblue" stroke="midnightblue" points="315.5,-29.751 312,-19.7511 308.5,-29.7511 315.5,-29.751"/>
</g>
<!-- Node8&#45;&gt;Node5 -->
<g id="edge10" class="edge"><title>Node8&#45;&gt;Node5</title>
<path fill="none" stroke="midnightblue" d="M447.116,-176.277C508.2,-174.086 650.103,-165.432 682,-132 693.395,-120.056 694.438,-100.753 693.206,-86.2797"/>
<polygon fill="midnightblue" stroke="midnightblue" points="696.624,-85.4162 691.885,-75.9407 689.681,-86.3038 696.624,-85.4162"/>
</g>
<!-- Node8&#45;&gt;Node6 -->
<g id="edge12" class="edge"><title>Node8&#45;&gt;Node6</title>
<path fill="none" stroke="midnightblue" d="M390.623,-169.348C370.9,-162.617 345.472,-150.884 330,-132 319.226,-118.85 314.883,-99.7084 313.142,-85.6014"/>
<polygon fill="midnightblue" stroke="midnightblue" points="316.622,-85.2197 312.23,-75.5778 309.65,-85.8537 316.622,-85.2197"/>
</g>
<!-- Node9 -->
<g id="node9" class="node"><title>Node9</title>
<polygon fill="none" stroke="#bfbfbf" points="339.5,-112.5 339.5,-131.5 398.5,-131.5 398.5,-112.5 339.5,-112.5"/>
<text text-anchor="middle" x="369" y="-119.5" font-family="Helvetica,sans-Serif" font-size="10.00">stdexcept</text>
</g>
<!-- Node8&#45;&gt;Node9 -->
<g id="edge8" class="edge"><title>Node8&#45;&gt;Node9</title>
<path fill="none" stroke="midnightblue" d="M410.744,-168.083C403.535,-160.298 392.89,-148.801 384.154,-139.367"/>
<polygon fill="midnightblue" stroke="midnightblue" points="386.465,-136.711 377.103,-131.751 381.329,-141.467 386.465,-136.711"/>
</g>
<!-- Node10 -->
<g id="node10" class="node"><title>Node10</title>
<polygon fill="none" stroke="#bfbfbf" points="417,-112.5 417,-131.5 523,-131.5 523,-112.5 417,-112.5"/>
<text text-anchor="middle" x="470" y="-119.5" font-family="Helvetica,sans-Serif" font-size="10.00">event2/bufferevent.h</text>
</g>
<!-- Node8&#45;&gt;Node10 -->
<g id="edge9" class="edge"><title>Node8&#45;&gt;Node10</title>
<path fill="none" stroke="midnightblue" d="M427.422,-168.083C434.848,-160.22 445.852,-148.569 454.812,-139.081"/>
<polygon fill="midnightblue" stroke="midnightblue" points="457.413,-141.424 461.735,-131.751 452.324,-136.618 457.413,-141.424"/>
</g>
<!-- Node11 -->
<g id="node11" class="node"><title>Node11</title>
<g id="a_node11"><a xlink:href="_closable_8h.html" target="_top" xlink:title="Closable.h">
<polygon fill="none" stroke="black" points="541.5,-112.5 541.5,-131.5 604.5,-131.5 604.5,-112.5 541.5,-112.5"/>
<text text-anchor="middle" x="573" y="-119.5" font-family="Helvetica,sans-Serif" font-size="10.00">Closable.h</text>
</a>
</g>
</g>
<!-- Node8&#45;&gt;Node11 -->
<g id="edge11" class="edge"><title>Node8&#45;&gt;Node11</title>
<path fill="none" stroke="midnightblue" d="M443.402,-168.444C469.197,-159.399 510.077,-145.064 539.018,-134.916"/>
<polygon fill="midnightblue" stroke="midnightblue" points="540.434,-138.128 548.712,-131.516 538.118,-131.523 540.434,-138.128"/>
</g>
<!-- Node12 -->
<g id="node12" class="node"><title>Node12</title>
<g id="a_node12"><a xlink:href="_module_8h.html" target="_top" xlink:title="Module.h">
<polygon fill="none" stroke="black" points="188,-112.5 188,-131.5 244,-131.5 244,-112.5 188,-112.5"/>
<text text-anchor="middle" x="216" y="-119.5" font-family="Helvetica,sans-Serif" font-size="10.00">Module.h</text>
</a>
</g>
</g>
<!-- Node8&#45;&gt;Node12 -->
<g id="edge13" class="edge"><title>Node8&#45;&gt;Node12</title>
<path fill="none" stroke="midnightblue" d="M390.774,-169.492C355.196,-160.027 293.9,-143.722 254.168,-133.153"/>
<polygon fill="midnightblue" stroke="midnightblue" points="254.877,-129.72 244.313,-130.532 253.077,-136.485 254.877,-129.72"/>
</g>
<!-- Node18 -->
<g id="node18" class="node"><title>Node18</title>
<g id="a_node18"><a xlink:href="_writer_8h.html" target="_top" xlink:title="Writer.h">
<polygon fill="none" stroke="black" points="622.5,-112.5 622.5,-131.5 673.5,-131.5 673.5,-112.5 622.5,-112.5"/>
<text text-anchor="middle" x="648" y="-119.5" font-family="Helvetica,sans-Serif" font-size="10.00">Writer.h</text>
</a>
</g>
</g>
<!-- Node8&#45;&gt;Node18 -->
<g id="edge22" class="edge"><title>Node8&#45;&gt;Node18</title>
<path fill="none" stroke="midnightblue" d="M447.323,-170.652C483.304,-162.539 547.555,-147.892 612.414,-132.098"/>
<polygon fill="midnightblue" stroke="midnightblue" points="613.52,-135.43 622.403,-129.657 611.858,-128.63 613.52,-135.43"/>
</g>
<!-- Node12&#45;&gt;Node6 -->
<g id="edge18" class="edge"><title>Node12&#45;&gt;Node6</title>
<path fill="none" stroke="midnightblue" d="M231.424,-112.324C246.54,-103.822 269.815,-90.7288 287.471,-80.7975"/>
<polygon fill="midnightblue" stroke="midnightblue" points="289.614,-83.6077 296.614,-75.6545 286.183,-77.5066 289.614,-83.6077"/>
</g>
<!-- Node13 -->
<g id="node13" class="node"><title>Node13</title>
<polygon fill="none" stroke="#bfbfbf" points="149.5,-0.5 149.5,-19.5 222.5,-19.5 222.5,-0.5 149.5,-0.5"/>
<text text-anchor="middle" x="186" y="-7.5" font-family="Helvetica,sans-Serif" font-size="10.00">event2/dns.h</text>
</g>
<!-- Node12&#45;&gt;Node13 -->
<g id="edge14" class="edge"><title>Node12&#45;&gt;Node13</title>
<path fill="none" stroke="midnightblue" d="M223.518,-112.4C233.588,-99.7776 249.184,-75.6086 240,-56 233.955,-43.0941 222.188,-32.5985 211.177,-24.9999"/>
<polygon fill="midnightblue" stroke="midnightblue" points="212.943,-21.9748 202.633,-19.5364 209.172,-27.8723 212.943,-21.9748"/>
</g>
<!-- Node14 -->
<g id="node14" class="node"><title>Node14</title>
<polygon fill="none" stroke="#bfbfbf" points="-0.5,-0.5 -0.5,-19.5 80.5,-19.5 80.5,-0.5 -0.5,-0.5"/>
<text text-anchor="middle" x="40" y="-7.5" font-family="Helvetica,sans-Serif" font-size="10.00">event2/event.h</text>
</g>
<!-- Node12&#45;&gt;Node14 -->
<g id="edge15" class="edge"><title>Node12&#45;&gt;Node14</title>
<path fill="none" stroke="midnightblue" d="M187.99,-118.309C141.372,-113.187 51.0864,-100.317 32,-76 21.6059,-62.7575 25.9111,-43.0899 31.3894,-28.8591"/>
<polygon fill="midnightblue" stroke="midnightblue" points="34.6252,-30.1944 35.3923,-19.6274 28.2029,-27.4097 34.6252,-30.1944"/>
</g>
<!-- Node15 -->
<g id="node15" class="node"><title>Node15</title>
<polygon fill="none" stroke="#bfbfbf" points="109.5,-56.5 109.5,-75.5 182.5,-75.5 182.5,-56.5 109.5,-56.5"/>
<text text-anchor="middle" x="146" y="-63.5" font-family="Helvetica,sans-Serif" font-size="10.00">libconfig.h++</text>
</g>
<!-- Node12&#45;&gt;Node15 -->
<g id="edge16" class="edge"><title>Node12&#45;&gt;Node15</title>
<path fill="none" stroke="midnightblue" d="M204.753,-112.324C194.203,-104.185 178.199,-91.8395 165.558,-82.0874"/>
<polygon fill="midnightblue" stroke="midnightblue" points="167.507,-79.1707 157.451,-75.8339 163.231,-84.7132 167.507,-79.1707"/>
</g>
<!-- Node16 -->
<g id="node16" class="node"><title>Node16</title>
<polygon fill="none" stroke="#bfbfbf" points="201,-56.5 201,-75.5 231,-75.5 231,-56.5 201,-56.5"/>
<text text-anchor="middle" x="216" y="-63.5" font-family="Helvetica,sans-Serif" font-size="10.00">set</text>
</g>
<!-- Node12&#45;&gt;Node16 -->
<g id="edge17" class="edge"><title>Node12&#45;&gt;Node16</title>
<path fill="none" stroke="midnightblue" d="M216,-112.083C216,-105.006 216,-94.8611 216,-85.9865"/>
<polygon fill="midnightblue" stroke="midnightblue" points="219.5,-85.751 216,-75.7511 212.5,-85.7511 219.5,-85.751"/>
</g>
<!-- Node17 -->
<g id="node17" class="node"><title>Node17</title>
<g id="a_node17"><a xlink:href="_event_8h.html" target="_top" xlink:title="Event.h">
<polygon fill="none" stroke="black" points="41,-56.5 41,-75.5 91,-75.5 91,-56.5 41,-56.5"/>
<text text-anchor="middle" x="66" y="-63.5" font-family="Helvetica,sans-Serif" font-size="10.00">Event.h</text>
</a>
</g>
</g>
<!-- Node12&#45;&gt;Node17 -->
<g id="edge19" class="edge"><title>Node12&#45;&gt;Node17</title>
<path fill="none" stroke="midnightblue" d="M192.232,-112.444C167.107,-103.399 127.289,-89.064 99.0996,-78.9158"/>
<polygon fill="midnightblue" stroke="midnightblue" points="100.251,-75.6106 89.6567,-75.5164 97.8801,-82.1968 100.251,-75.6106"/>
</g>
<!-- Node17&#45;&gt;Node13 -->
<g id="edge20" class="edge"><title>Node17&#45;&gt;Node13</title>
<path fill="none" stroke="midnightblue" d="M85.0144,-56.4435C104.588,-47.6356 135.308,-33.8116 157.729,-23.722"/>
<polygon fill="midnightblue" stroke="midnightblue" points="159.392,-26.8119 167.075,-19.5164 156.519,-20.4284 159.392,-26.8119"/>
</g>
<!-- Node17&#45;&gt;Node14 -->
<g id="edge21" class="edge"><title>Node17&#45;&gt;Node14</title>
<path fill="none" stroke="midnightblue" d="M61.7066,-56.083C58.1477,-48.6913 52.9775,-37.9533 48.5757,-28.8111"/>
<polygon fill="midnightblue" stroke="midnightblue" points="51.7052,-27.2427 44.2135,-19.7511 45.3982,-30.2795 51.7052,-27.2427"/>
</g>
<!-- Node18&#45;&gt;Node5 -->
<g id="edge23" class="edge"><title>Node18&#45;&gt;Node5</title>
<path fill="none" stroke="midnightblue" d="M654.935,-112.083C660.929,-104.377 669.752,-93.0333 677.048,-83.6531"/>
<polygon fill="midnightblue" stroke="midnightblue" points="679.817,-85.7934 683.194,-75.7511 674.291,-81.4958 679.817,-85.7934"/>
</g>
<!-- Node18&#45;&gt;Node6 -->
<g id="edge24" class="edge"><title>Node18&#45;&gt;Node6</title>
<path fill="none" stroke="midnightblue" d="M622.456,-114.107C619.283,-113.347 616.074,-112.623 613,-112 517.649,-92.6667 403.742,-77.8645 347.303,-71.0772"/>
<polygon fill="midnightblue" stroke="midnightblue" points="347.47,-67.5725 337.127,-69.8657 346.643,-74.5234 347.47,-67.5725"/>
</g>
<!-- Node18&#45;&gt;Node19 -->
<g id="edge25" class="edge"><title>Node18&#45;&gt;Node19</title>
<path fill="none" stroke="midnightblue" d="M668.599,-112.444C689.993,-103.557 723.681,-89.5632 748.024,-79.4514"/>
<polygon fill="midnightblue" stroke="midnightblue" points="749.605,-82.5848 757.497,-75.5164 746.92,-76.1203 749.605,-82.5848"/>
</g>
</g>
</svg>
