<?xml version="1.0" encoding="UTF-8" standalone="no"?>
<!DOCTYPE svg PUBLIC "-//W3C//DTD SVG 1.1//EN"
 "http://www.w3.org/Graphics/SVG/1.1/DTD/svg11.dtd">
<!-- Generated by graphviz version 2.34.0 (20140110.0949)
 -->
<!-- Title: include/Socket.h Pages: 1 -->
<svg width="712pt" height="196pt"
 viewBox="0.00 0.00 712.00 196.00" xmlns="http://www.w3.org/2000/svg" xmlns:xlink="http://www.w3.org/1999/xlink">
<g id="graph0" class="graph" transform="scale(1 1) rotate(0) translate(4 192)">
<title>include/Socket.h</title>
<!-- Node1 -->
<g id="node1" class="node"><title>Node1</title>
<polygon fill="#bfbfbf" stroke="black" points="226.5,-168.5 226.5,-187.5 315.5,-187.5 315.5,-168.5 226.5,-168.5"/>
<text text-anchor="middle" x="271" y="-175.5" font-family="Helvetica,sans-Serif" font-size="10.00">include/Socket.h</text>
</g>
<!-- Node2 -->
<g id="node2" class="node"><title>Node2</title>
<polygon fill="none" stroke="#bfbfbf" points="-0.5,-112.5 -0.5,-131.5 58.5,-131.5 58.5,-112.5 -0.5,-112.5"/>
<text text-anchor="middle" x="29" y="-119.5" font-family="Helvetica,sans-Serif" font-size="10.00">stdexcept</text>
</g>
<!-- Node1&#45;&gt;Node2 -->
<g id="edge1" class="edge"><title>Node1&#45;&gt;Node2</title>
<path fill="none" stroke="midnightblue" d="M232.061,-168.473C193.255,-159.952 131.691,-146.371 68.8907,-132.187"/>
<polygon fill="midnightblue" stroke="midnightblue" points="69.3302,-128.698 58.8044,-129.906 67.7861,-135.525 69.3302,-128.698"/>
</g>
<!-- Node3 -->
<g id="node3" class="node"><title>Node3</title>
<polygon fill="none" stroke="#bfbfbf" points="77,-112.5 77,-131.5 183,-131.5 183,-112.5 77,-112.5"/>
<text text-anchor="middle" x="130" y="-119.5" font-family="Helvetica,sans-Serif" font-size="10.00">event2/bufferevent.h</text>
</g>
<!-- Node1&#45;&gt;Node3 -->
<g id="edge2" class="edge"><title>Node1&#45;&gt;Node3</title>
<path fill="none" stroke="midnightblue" d="M248.658,-168.444C225.247,-159.478 188.264,-145.314 161.81,-135.183"/>
<polygon fill="midnightblue" stroke="midnightblue" points="162.828,-131.824 152.237,-131.516 160.324,-138.361 162.828,-131.824"/>
</g>
<!-- Node4 -->
<g id="node4" class="node"><title>Node4</title>
<g id="a_node4"><a xlink:href="defines_8h.html" target="_top" xlink:title="defines.h">
<polygon fill="none" stroke="black" points="187,-56.5 187,-75.5 243,-75.5 243,-56.5 187,-56.5"/>
<text text-anchor="middle" x="215" y="-63.5" font-family="Helvetica,sans-Serif" font-size="10.00">defines.h</text>
</a>
</g>
</g>
<!-- Node1&#45;&gt;Node4 -->
<g id="edge3" class="edge"><title>Node1&#45;&gt;Node4</title>
<path fill="none" stroke="midnightblue" d="M260.624,-168.45C251.206,-160.118 237.655,-146.602 230,-132 222.438,-117.576 218.658,-99.3848 216.786,-85.9179"/>
<polygon fill="midnightblue" stroke="midnightblue" points="220.253,-85.432 215.622,-75.9031 213.3,-86.2404 220.253,-85.432"/>
</g>
<!-- Node5 -->
<g id="node5" class="node"><title>Node5</title>
<g id="a_node5"><a xlink:href="_closable_8h.html" target="_top" xlink:title="Closable.h">
<polygon fill="none" stroke="black" points="239.5,-112.5 239.5,-131.5 302.5,-131.5 302.5,-112.5 239.5,-112.5"/>
<text text-anchor="middle" x="271" y="-119.5" font-family="Helvetica,sans-Serif" font-size="10.00">Closable.h</text>
</a>
</g>
</g>
<!-- Node1&#45;&gt;Node5 -->
<g id="edge4" class="edge"><title>Node1&#45;&gt;Node5</title>
<path fill="none" stroke="midnightblue" d="M271,-168.083C271,-161.006 271,-150.861 271,-141.986"/>
<polygon fill="midnightblue" stroke="midnightblue" points="274.5,-141.751 271,-131.751 267.5,-141.751 274.5,-141.751"/>
</g>
<!-- Node6 -->
<g id="node6" class="node"><title>Node6</title>
<g id="a_node6"><a xlink:href="_string_8h.html" target="_top" xlink:title="String.h">
<polygon fill="none" stroke="black" points="371,-56.5 371,-75.5 421,-75.5 421,-56.5 371,-56.5"/>
<text text-anchor="middle" x="396" y="-63.5" font-family="Helvetica,sans-Serif" font-size="10.00">String.h</text>
</a>
</g>
</g>
<!-- Node1&#45;&gt;Node6 -->
<g id="edge5" class="edge"><title>Node1&#45;&gt;Node6</title>
<path fill="none" stroke="midnightblue" d="M315.669,-168.563C337.985,-162.135 363.647,-151.014 380,-132 391.002,-119.208 394.671,-100.018 395.786,-85.8026"/>
<polygon fill="midnightblue" stroke="midnightblue" points="399.288,-85.8274 396.224,-75.6854 392.295,-85.5247 399.288,-85.8274"/>
</g>
<!-- Node9 -->
<g id="node9" class="node"><title>Node9</title>
<g id="a_node9"><a xlink:href="_module_8h.html" target="_top" xlink:title="Module.h">
<polygon fill="none" stroke="black" points="469,-112.5 469,-131.5 525,-131.5 525,-112.5 469,-112.5"/>
<text text-anchor="middle" x="497" y="-119.5" font-family="Helvetica,sans-Serif" font-size="10.00">Module.h</text>
</a>
</g>
</g>
<!-- Node1&#45;&gt;Node9 -->
<g id="edge8" class="edge"><title>Node1&#45;&gt;Node9</title>
<path fill="none" stroke="midnightblue" d="M306.81,-168.444C348.32,-158.525 416.447,-142.247 458.905,-132.102"/>
<polygon fill="midnightblue" stroke="midnightblue" points="459.942,-135.453 468.854,-129.725 458.315,-128.645 459.942,-135.453"/>
</g>
<!-- Node15 -->
<g id="node15" class="node"><title>Node15</title>
<g id="a_node15"><a xlink:href="_writer_8h.html" target="_top" xlink:title="Writer.h">
<polygon fill="none" stroke="black" points="320.5,-112.5 320.5,-131.5 371.5,-131.5 371.5,-112.5 320.5,-112.5"/>
<text text-anchor="middle" x="346" y="-119.5" font-family="Helvetica,sans-Serif" font-size="10.00">Writer.h</text>
</a>
</g>
</g>
<!-- Node1&#45;&gt;Node15 -->
<g id="edge17" class="edge"><title>Node1&#45;&gt;Node15</title>
<path fill="none" stroke="midnightblue" d="M283.05,-168.324C294.463,-160.107 311.831,-147.602 325.435,-137.807"/>
<polygon fill="midnightblue" stroke="midnightblue" points="327.66,-140.517 333.731,-131.834 323.57,-134.837 327.66,-140.517"/>
</g>
<!-- Node7 -->
<g id="node7" class="node"><title>Node7</title>
<polygon fill="none" stroke="#bfbfbf" points="323.5,-0.5 323.5,-19.5 364.5,-19.5 364.5,-0.5 323.5,-0.5"/>
<text text-anchor="middle" x="344" y="-7.5" font-family="Helvetica,sans-Serif" font-size="10.00">string</text>
</g>
<!-- Node6&#45;&gt;Node7 -->
<g id="edge6" class="edge"><title>Node6&#45;&gt;Node7</title>
<path fill="none" stroke="midnightblue" d="M387.413,-56.083C379.841,-48.2195 368.622,-36.5688 359.486,-27.0813"/>
<polygon fill="midnightblue" stroke="midnightblue" points="361.885,-24.5266 352.427,-19.7511 356.842,-29.3821 361.885,-24.5266"/>
</g>
<!-- Node8 -->
<g id="node8" class="node"><title>Node8</title>
<polygon fill="none" stroke="#bfbfbf" points="382.5,-0.5 382.5,-19.5 431.5,-19.5 431.5,-0.5 382.5,-0.5"/>
<text text-anchor="middle" x="407" y="-7.5" font-family="Helvetica,sans-Serif" font-size="10.00">stdint.h</text>
</g>
<!-- Node6&#45;&gt;Node8 -->
<g id="edge7" class="edge"><title>Node6&#45;&gt;Node8</title>
<path fill="none" stroke="midnightblue" d="M397.816,-56.083C399.274,-48.9272 401.371,-38.6353 403.193,-29.6911"/>
<polygon fill="midnightblue" stroke="midnightblue" points="406.651,-30.2485 405.217,-19.7511 399.792,-28.8512 406.651,-30.2485"/>
</g>
<!-- Node9&#45;&gt;Node6 -->
<g id="edge13" class="edge"><title>Node9&#45;&gt;Node6</title>
<path fill="none" stroke="midnightblue" d="M480.773,-112.324C464.649,-103.703 439.7,-90.3643 421.036,-80.3855"/>
<polygon fill="midnightblue" stroke="midnightblue" points="422.656,-77.283 412.187,-75.6545 419.356,-83.456 422.656,-77.283"/>
</g>
<!-- Node10 -->
<g id="node10" class="node"><title>Node10</title>
<polygon fill="none" stroke="#bfbfbf" points="463.5,-0.5 463.5,-19.5 536.5,-19.5 536.5,-0.5 463.5,-0.5"/>
<text text-anchor="middle" x="500" y="-7.5" font-family="Helvetica,sans-Serif" font-size="10.00">event2/dns.h</text>
</g>
<!-- Node9&#45;&gt;Node10 -->
<g id="edge9" class="edge"><title>Node9&#45;&gt;Node10</title>
<path fill="none" stroke="midnightblue" d="M497.235,-112.368C497.72,-94.617 498.836,-53.6664 499.493,-29.5974"/>
<polygon fill="midnightblue" stroke="midnightblue" points="502.992,-29.6832 499.766,-19.5914 495.994,-29.4922 502.992,-29.6832"/>
</g>
<!-- Node11 -->
<g id="node11" class="node"><title>Node11</title>
<polygon fill="none" stroke="#bfbfbf" points="559.5,-0.5 559.5,-19.5 640.5,-19.5 640.5,-0.5 559.5,-0.5"/>
<text text-anchor="middle" x="600" y="-7.5" font-family="Helvetica,sans-Serif" font-size="10.00">event2/event.h</text>
</g>
<!-- Node9&#45;&gt;Node11 -->
<g id="edge10" class="edge"><title>Node9&#45;&gt;Node11</title>
<path fill="none" stroke="midnightblue" d="M525.324,-113.173C544.627,-106.404 569.265,-94.6988 584,-76 594.444,-62.7474 598.188,-43.6199 599.472,-29.5439"/>
<polygon fill="midnightblue" stroke="midnightblue" points="602.967,-29.7341 600.056,-19.547 595.979,-29.3259 602.967,-29.7341"/>
</g>
<!-- Node12 -->
<g id="node12" class="node"><title>Node12</title>
<polygon fill="none" stroke="#bfbfbf" points="631.5,-56.5 631.5,-75.5 704.5,-75.5 704.5,-56.5 631.5,-56.5"/>
<text text-anchor="middle" x="668" y="-63.5" font-family="Helvetica,sans-Serif" font-size="10.00">libconfig.h++</text>
</g>
<!-- Node9&#45;&gt;Node12 -->
<g id="edge11" class="edge"><title>Node9&#45;&gt;Node12</title>
<path fill="none" stroke="midnightblue" d="M524.095,-112.444C552.988,-103.32 598.925,-88.8133 631.105,-78.6509"/>
<polygon fill="midnightblue" stroke="midnightblue" points="632.549,-81.8654 641.031,-75.5164 630.441,-75.1903 632.549,-81.8654"/>
</g>
<!-- Node13 -->
<g id="node13" class="node"><title>Node13</title>
<polygon fill="none" stroke="#bfbfbf" points="439,-56.5 439,-75.5 469,-75.5 469,-56.5 439,-56.5"/>
<text text-anchor="middle" x="454" y="-63.5" font-family="Helvetica,sans-Serif" font-size="10.00">set</text>
</g>
<!-- Node9&#45;&gt;Node13 -->
<g id="edge12" class="edge"><title>Node9&#45;&gt;Node13</title>
<path fill="none" stroke="midnightblue" d="M489.899,-112.083C483.763,-104.377 474.73,-93.0333 467.261,-83.6531"/>
<polygon fill="midnightblue" stroke="midnightblue" points="469.936,-81.3936 460.968,-75.7511 464.46,-85.7542 469.936,-81.3936"/>
</g>
<!-- Node14 -->
<g id="node14" class="node"><title>Node14</title>
<g id="a_node14"><a xlink:href="_event_8h.html" target="_top" xlink:title="Event.h">
<polygon fill="none" stroke="black" points="525,-56.5 525,-75.5 575,-75.5 575,-56.5 525,-56.5"/>
<text text-anchor="middle" x="550" y="-63.5" font-family="Helvetica,sans-Serif" font-size="10.00">Event.h</text>
</a>
</g>
</g>
<!-- Node9&#45;&gt;Node14 -->
<g id="edge14" class="edge"><title>Node9&#45;&gt;Node14</title>
<path fill="none" stroke="midnightblue" d="M505.752,-112.083C513.47,-104.22 524.905,-92.5688 534.217,-83.0813"/>
<polygon fill="midnightblue" stroke="midnightblue" points="536.904,-85.3396 541.411,-75.7511 531.908,-80.4363 536.904,-85.3396"/>
</g>
<!-- Node14&#45;&gt;Node10 -->
<g id="edge15" class="edge"><title>Node14&#45;&gt;Node10</title>
<path fill="none" stroke="midnightblue" d="M541.744,-56.083C534.535,-48.2982 523.89,-36.8015 515.154,-27.3665"/>
<polygon fill="midnightblue" stroke="midnightblue" points="517.465,-24.7108 508.103,-19.7511 512.329,-29.4666 517.465,-24.7108"/>
</g>
<!-- Node14&#45;&gt;Node11 -->
<g id="edge16" class="edge"><title>Node14&#45;&gt;Node11</title>
<path fill="none" stroke="midnightblue" d="M558.256,-56.083C565.465,-48.2982 576.11,-36.8015 584.846,-27.3665"/>
<polygon fill="midnightblue" stroke="midnightblue" points="587.671,-29.4666 591.897,-19.7511 582.535,-24.7108 587.671,-29.4666"/>
</g>
<!-- Node15&#45;&gt;Node4 -->
<g id="edge18" class="edge"><title>Node15&#45;&gt;Node4</title>
<path fill="none" stroke="midnightblue" d="M325.243,-112.444C303.684,-103.557 269.737,-89.5632 245.206,-79.4514"/>
<polygon fill="midnightblue" stroke="midnightblue" points="246.239,-76.0917 235.66,-75.5164 243.572,-82.5634 246.239,-76.0917"/>
</g>
<!-- Node15&#45;&gt;Node6 -->
<g id="edge19" class="edge"><title>Node15&#45;&gt;Node6</title>
<path fill="none" stroke="midnightblue" d="M354.256,-112.083C361.465,-104.298 372.11,-92.8015 380.846,-83.3665"/>
<polygon fill="midnightblue" stroke="midnightblue" points="383.671,-85.4666 387.897,-75.7511 378.535,-80.7108 383.671,-85.4666"/>
</g>
<!-- Node16 -->
<g id="node16" class="node"><title>Node16</title>
<g id="a_node16"><a xlink:href="_should_delete_8h.html" target="_top" xlink:title="ShouldDelete.h">
<polygon fill="none" stroke="black" points="269.5,-56.5 269.5,-75.5 352.5,-75.5 352.5,-56.5 269.5,-56.5"/>
<text text-anchor="middle" x="311" y="-63.5" font-family="Helvetica,sans-Serif" font-size="10.00">ShouldDelete.h</text>
</a>
</g>
</g>
<!-- Node15&#45;&gt;Node16 -->
<g id="edge20" class="edge"><title>Node15&#45;&gt;Node16</title>
<path fill="none" stroke="midnightblue" d="M340.22,-112.083C335.328,-104.534 328.173,-93.4948 322.167,-84.2298"/>
<polygon fill="midnightblue" stroke="midnightblue" points="325.048,-82.239 316.672,-75.7511 319.174,-86.0463 325.048,-82.239"/>
</g>
</g>
</svg>
