<?xml version="1.0" encoding="UTF-8" standalone="no"?>
<!DOCTYPE svg PUBLIC "-//W3C//DTD SVG 1.1//EN"
 "http://www.w3.org/Graphics/SVG/1.1/DTD/svg11.dtd">
<!-- Generated by graphviz version 2.34.0 (20140110.0949)
 -->
<!-- Title: include/Socket.h Pages: 1 -->
<svg width="495pt" height="84pt"
 viewBox="0.00 0.00 495.00 84.00" xmlns="http://www.w3.org/2000/svg" xmlns:xlink="http://www.w3.org/1999/xlink">
<g id="graph0" class="graph" transform="scale(1 1) rotate(0) translate(4 80)">
<title>include/Socket.h</title>
<!-- Node1 -->
<g id="node1" class="node"><title>Node1</title>
<polygon fill="#bfbfbf" stroke="black" points="169.5,-56.5 169.5,-75.5 258.5,-75.5 258.5,-56.5 169.5,-56.5"/>
<text text-anchor="middle" x="214" y="-63.5" font-family="Helvetica,sans-Serif" font-size="10.00">include/Socket.h</text>
</g>
<!-- Node2 -->
<g id="node2" class="node"><title>Node2</title>
<g id="a_node2"><a xlink:href="_d_n_s_8h.html" target="_top" xlink:title="include/DNS.h">
<polygon fill="none" stroke="black" points="0,-0.5 0,-19.5 80,-19.5 80,-0.5 0,-0.5"/>
<text text-anchor="middle" x="40" y="-7.5" font-family="Helvetica,sans-Serif" font-size="10.00">include/DNS.h</text>
</a>
</g>
</g>
<!-- Node1&#45;&gt;Node2 -->
<g id="edge1" class="edge"><title>Node1&#45;&gt;Node2</title>
<path fill="none" stroke="midnightblue" d="M176.739,-53.4363C143.933,-43.2551 96.9174,-28.664 67.4418,-19.5164"/>
<polygon fill="midnightblue" stroke="midnightblue" points="175.841,-56.8222 186.429,-56.4435 177.916,-50.1368 175.841,-56.8222"/>
</g>
<!-- Node3 -->
<g id="node3" class="node"><title>Node3</title>
<g id="a_node3"><a xlink:href="_listener_8h.html" target="_top" xlink:title="include/Listener.h">
<polygon fill="none" stroke="black" points="98.5,-0.5 98.5,-19.5 191.5,-19.5 191.5,-0.5 98.5,-0.5"/>
<text text-anchor="middle" x="145" y="-7.5" font-family="Helvetica,sans-Serif" font-size="10.00">include/Listener.h</text>
</a>
</g>
</g>
<!-- Node1&#45;&gt;Node3 -->
<g id="edge2" class="edge"><title>Node1&#45;&gt;Node3</title>
<path fill="none" stroke="midnightblue" d="M194.962,-50.1008C182.544,-40.3824 166.757,-28.0269 156.288,-19.8339"/>
<polygon fill="midnightblue" stroke="midnightblue" points="192.882,-52.9171 202.914,-56.324 197.196,-47.4046 192.882,-52.9171"/>
</g>
<!-- Node4 -->
<g id="node4" class="node"><title>Node4</title>
<g id="a_node4"><a xlink:href="_simple_h_t_t_p_socket_8h.html" target="_top" xlink:title="include/SimpleHTTPSocket.h">
<polygon fill="none" stroke="black" points="210,-0.5 210,-19.5 356,-19.5 356,-0.5 210,-0.5"/>
<text text-anchor="middle" x="283" y="-7.5" font-family="Helvetica,sans-Serif" font-size="10.00">include/SimpleHTTPSocket.h</text>
</a>
</g>
</g>
<!-- Node1&#45;&gt;Node4 -->
<g id="edge3" class="edge"><title>Node1&#45;&gt;Node4</title>
<path fill="none" stroke="midnightblue" d="M233.038,-50.1008C245.456,-40.3824 261.243,-28.0269 271.712,-19.8339"/>
<polygon fill="midnightblue" stroke="midnightblue" points="230.804,-47.4046 225.086,-56.324 235.118,-52.9171 230.804,-47.4046"/>
</g>
<!-- Node5 -->
<g id="node5" class="node"><title>Node5</title>
<g id="a_node5"><a xlink:href="_statsd_client_8h.html" target="_top" xlink:title="include/StatsdClient.h">
<polygon fill="none" stroke="black" points="374.5,-0.5 374.5,-19.5 487.5,-19.5 487.5,-0.5 374.5,-0.5"/>
<text text-anchor="middle" x="431" y="-7.5" font-family="Helvetica,sans-Serif" font-size="10.00">include/StatsdClient.h</text>
</a>
</g>
</g>
<!-- Node1&#45;&gt;Node5 -->
<g id="edge4" class="edge"><title>Node1&#45;&gt;Node5</title>
<path fill="none" stroke="midnightblue" d="M258.108,-54.0237C299.1,-43.8232 359.304,-28.8414 396.777,-19.5164"/>
<polygon fill="midnightblue" stroke="midnightblue" points="257.243,-50.6322 248.384,-56.4435 258.934,-57.425 257.243,-50.6322"/>
</g>
</g>
</svg>
