<?xml version="1.0" encoding="UTF-8" standalone="no"?>
<!DOCTYPE svg PUBLIC "-//W3C//DTD SVG 1.1//EN"
 "http://www.w3.org/Graphics/SVG/1.1/DTD/svg11.dtd">
<!-- Generated by graphviz version 2.34.0 (20140110.0949)
 -->
<!-- Title: include/Socket.h Pages: 1 -->
<svg width="635pt" height="196pt"
 viewBox="0.00 0.00 635.00 196.00" xmlns="http://www.w3.org/2000/svg" xmlns:xlink="http://www.w3.org/1999/xlink">
<g id="graph0" class="graph" transform="scale(1 1) rotate(0) translate(4 192)">
<title>include/Socket.h</title>
<!-- Node1 -->
<g id="node1" class="node"><title>Node1</title>
<polygon fill="#bfbfbf" stroke="black" points="186.5,-168.5 186.5,-187.5 275.5,-187.5 275.5,-168.5 186.5,-168.5"/>
<text text-anchor="middle" x="231" y="-175.5" font-family="Helvetica,sans-Serif" font-size="10.00">include/Socket.h</text>
</g>
<!-- Node2 -->
<g id="node2" class="node"><title>Node2</title>
<polygon fill="none" stroke="#bfbfbf" points="0,-112.5 0,-131.5 106,-131.5 106,-112.5 0,-112.5"/>
<text text-anchor="middle" x="53" y="-119.5" font-family="Helvetica,sans-Serif" font-size="10.00">event2/bufferevent.h</text>
</g>
<!-- Node1&#45;&gt;Node2 -->
<g id="edge1" class="edge"><title>Node1&#45;&gt;Node2</title>
<path fill="none" stroke="midnightblue" d="M202.795,-168.444C172.59,-159.28 124.489,-144.688 90.9707,-134.519"/>
<polygon fill="midnightblue" stroke="midnightblue" points="91.6581,-131.07 81.0727,-131.516 89.6259,-137.769 91.6581,-131.07"/>
</g>
<!-- Node3 -->
<g id="node3" class="node"><title>Node3</title>
<g id="a_node3"><a xlink:href="defines_8h.html" target="_top" xlink:title="defines.h">
<polygon fill="none" stroke="black" points="110,-56.5 110,-75.5 166,-75.5 166,-56.5 110,-56.5"/>
<text text-anchor="middle" x="138" y="-63.5" font-family="Helvetica,sans-Serif" font-size="10.00">defines.h</text>
</a>
</g>
</g>
<!-- Node1&#45;&gt;Node3 -->
<g id="edge2" class="edge"><title>Node1&#45;&gt;Node3</title>
<path fill="none" stroke="midnightblue" d="M205.489,-168.491C188.128,-161.402 166.021,-149.593 153,-132 143.203,-118.764 139.662,-100.179 138.449,-86.2703"/>
<polygon fill="midnightblue" stroke="midnightblue" points="141.924,-85.7045 137.892,-75.9068 134.934,-86.0803 141.924,-85.7045"/>
</g>
<!-- Node4 -->
<g id="node4" class="node"><title>Node4</title>
<g id="a_node4"><a xlink:href="_closable_8h.html" target="_top" xlink:title="Closable.h">
<polygon fill="none" stroke="black" points="162.5,-112.5 162.5,-131.5 225.5,-131.5 225.5,-112.5 162.5,-112.5"/>
<text text-anchor="middle" x="194" y="-119.5" font-family="Helvetica,sans-Serif" font-size="10.00">Closable.h</text>
</a>
</g>
</g>
<!-- Node1&#45;&gt;Node4 -->
<g id="edge3" class="edge"><title>Node1&#45;&gt;Node4</title>
<path fill="none" stroke="midnightblue" d="M224.89,-168.083C219.718,-160.534 212.154,-149.495 205.806,-140.23"/>
<polygon fill="midnightblue" stroke="midnightblue" points="208.536,-138.022 199.996,-131.751 202.761,-141.979 208.536,-138.022"/>
</g>
<!-- Node5 -->
<g id="node5" class="node"><title>Node5</title>
<g id="a_node5"><a xlink:href="_string_8h.html" target="_top" xlink:title="String.h">
<polygon fill="none" stroke="black" points="294,-56.5 294,-75.5 344,-75.5 344,-56.5 294,-56.5"/>
<text text-anchor="middle" x="319" y="-63.5" font-family="Helvetica,sans-Serif" font-size="10.00">String.h</text>
</a>
</g>
</g>
<!-- Node1&#45;&gt;Node5 -->
<g id="edge4" class="edge"><title>Node1&#45;&gt;Node5</title>
<path fill="none" stroke="midnightblue" d="M253.474,-168.416C269.619,-161.113 290.636,-149.072 303,-132 312.692,-118.616 316.554,-100.048 318.072,-86.1829"/>
<polygon fill="midnightblue" stroke="midnightblue" points="321.588,-86.1001 318.872,-75.8595 314.609,-85.559 321.588,-86.1001"/>
</g>
<!-- Node7 -->
<g id="node7" class="node"><title>Node7</title>
<g id="a_node7"><a xlink:href="_module_8h.html" target="_top" xlink:title="Module.h">
<polygon fill="none" stroke="black" points="392,-112.5 392,-131.5 448,-131.5 448,-112.5 392,-112.5"/>
<text text-anchor="middle" x="420" y="-119.5" font-family="Helvetica,sans-Serif" font-size="10.00">Module.h</text>
</a>
</g>
</g>
<!-- Node1&#45;&gt;Node7 -->
<g id="edge6" class="edge"><title>Node1&#45;&gt;Node7</title>
<path fill="none" stroke="midnightblue" d="M260.948,-168.444C293.632,-159.105 346.049,-144.129 381.703,-133.942"/>
<polygon fill="midnightblue" stroke="midnightblue" points="383.082,-137.188 391.736,-131.075 381.159,-130.457 383.082,-137.188"/>
</g>
<!-- Node13 -->
<g id="node13" class="node"><title>Node13</title>
<g id="a_node13"><a xlink:href="_writer_8h.html" target="_top" xlink:title="Writer.h">
<polygon fill="none" stroke="black" points="243.5,-112.5 243.5,-131.5 294.5,-131.5 294.5,-112.5 243.5,-112.5"/>
<text text-anchor="middle" x="269" y="-119.5" font-family="Helvetica,sans-Serif" font-size="10.00">Writer.h</text>
</a>
</g>
</g>
<!-- Node1&#45;&gt;Node13 -->
<g id="edge15" class="edge"><title>Node1&#45;&gt;Node13</title>
<path fill="none" stroke="midnightblue" d="M237.275,-168.083C242.642,-160.455 250.518,-149.264 257.079,-139.941"/>
<polygon fill="midnightblue" stroke="midnightblue" points="259.949,-141.943 262.842,-131.751 254.225,-137.915 259.949,-141.943"/>
</g>
<!-- Node6 -->
<g id="node6" class="node"><title>Node6</title>
<polygon fill="none" stroke="#bfbfbf" points="298.5,-0.5 298.5,-19.5 339.5,-19.5 339.5,-0.5 298.5,-0.5"/>
<text text-anchor="middle" x="319" y="-7.5" font-family="Helvetica,sans-Serif" font-size="10.00">string</text>
</g>
<!-- Node5&#45;&gt;Node6 -->
<g id="edge5" class="edge"><title>Node5&#45;&gt;Node6</title>
<path fill="none" stroke="midnightblue" d="M319,-56.083C319,-49.0059 319,-38.8611 319,-29.9865"/>
<polygon fill="midnightblue" stroke="midnightblue" points="322.5,-29.751 319,-19.7511 315.5,-29.7511 322.5,-29.751"/>
</g>
<!-- Node7&#45;&gt;Node5 -->
<g id="edge11" class="edge"><title>Node7&#45;&gt;Node5</title>
<path fill="none" stroke="midnightblue" d="M403.773,-112.324C387.649,-103.703 362.7,-90.3643 344.036,-80.3855"/>
<polygon fill="midnightblue" stroke="midnightblue" points="345.656,-77.283 335.187,-75.6545 342.356,-83.456 345.656,-77.283"/>
</g>
<!-- Node8 -->
<g id="node8" class="node"><title>Node8</title>
<polygon fill="none" stroke="#bfbfbf" points="386.5,-0.5 386.5,-19.5 459.5,-19.5 459.5,-0.5 386.5,-0.5"/>
<text text-anchor="middle" x="423" y="-7.5" font-family="Helvetica,sans-Serif" font-size="10.00">event2/dns.h</text>
</g>
<!-- Node7&#45;&gt;Node8 -->
<g id="edge7" class="edge"><title>Node7&#45;&gt;Node8</title>
<path fill="none" stroke="midnightblue" d="M420.235,-112.368C420.72,-94.617 421.836,-53.6664 422.493,-29.5974"/>
<polygon fill="midnightblue" stroke="midnightblue" points="425.992,-29.6832 422.766,-19.5914 418.994,-29.4922 425.992,-29.6832"/>
</g>
<!-- Node9 -->
<g id="node9" class="node"><title>Node9</title>
<polygon fill="none" stroke="#bfbfbf" points="482.5,-0.5 482.5,-19.5 563.5,-19.5 563.5,-0.5 482.5,-0.5"/>
<text text-anchor="middle" x="523" y="-7.5" font-family="Helvetica,sans-Serif" font-size="10.00">event2/event.h</text>
</g>
<!-- Node7&#45;&gt;Node9 -->
<g id="edge8" class="edge"><title>Node7&#45;&gt;Node9</title>
<path fill="none" stroke="midnightblue" d="M448.324,-113.173C467.627,-106.404 492.265,-94.6988 507,-76 517.444,-62.7474 521.188,-43.6199 522.472,-29.5439"/>
<polygon fill="midnightblue" stroke="midnightblue" points="525.967,-29.7341 523.056,-19.547 518.979,-29.3259 525.967,-29.7341"/>
</g>
<!-- Node10 -->
<g id="node10" class="node"><title>Node10</title>
<polygon fill="none" stroke="#bfbfbf" points="554.5,-56.5 554.5,-75.5 627.5,-75.5 627.5,-56.5 554.5,-56.5"/>
<text text-anchor="middle" x="591" y="-63.5" font-family="Helvetica,sans-Serif" font-size="10.00">libconfig.h++</text>
</g>
<!-- Node7&#45;&gt;Node10 -->
<g id="edge9" class="edge"><title>Node7&#45;&gt;Node10</title>
<path fill="none" stroke="midnightblue" d="M447.095,-112.444C475.988,-103.32 521.925,-88.8133 554.105,-78.6509"/>
<polygon fill="midnightblue" stroke="midnightblue" points="555.549,-81.8654 564.031,-75.5164 553.441,-75.1903 555.549,-81.8654"/>
</g>
<!-- Node11 -->
<g id="node11" class="node"><title>Node11</title>
<polygon fill="none" stroke="#bfbfbf" points="362,-56.5 362,-75.5 392,-75.5 392,-56.5 362,-56.5"/>
<text text-anchor="middle" x="377" y="-63.5" font-family="Helvetica,sans-Serif" font-size="10.00">set</text>
</g>
<!-- Node7&#45;&gt;Node11 -->
<g id="edge10" class="edge"><title>Node7&#45;&gt;Node11</title>
<path fill="none" stroke="midnightblue" d="M412.899,-112.083C406.763,-104.377 397.73,-93.0333 390.261,-83.6531"/>
<polygon fill="midnightblue" stroke="midnightblue" points="392.936,-81.3936 383.968,-75.7511 387.46,-85.7542 392.936,-81.3936"/>
</g>
<!-- Node12 -->
<g id="node12" class="node"><title>Node12</title>
<g id="a_node12"><a xlink:href="_event_8h.html" target="_top" xlink:title="Event.h">
<polygon fill="none" stroke="black" points="448,-56.5 448,-75.5 498,-75.5 498,-56.5 448,-56.5"/>
<text text-anchor="middle" x="473" y="-63.5" font-family="Helvetica,sans-Serif" font-size="10.00">Event.h</text>
</a>
</g>
</g>
<!-- Node7&#45;&gt;Node12 -->
<g id="edge12" class="edge"><title>Node7&#45;&gt;Node12</title>
<path fill="none" stroke="midnightblue" d="M428.752,-112.083C436.47,-104.22 447.905,-92.5688 457.217,-83.0813"/>
<polygon fill="midnightblue" stroke="midnightblue" points="459.904,-85.3396 464.411,-75.7511 454.908,-80.4363 459.904,-85.3396"/>
</g>
<!-- Node12&#45;&gt;Node8 -->
<g id="edge13" class="edge"><title>Node12&#45;&gt;Node8</title>
<path fill="none" stroke="midnightblue" d="M464.744,-56.083C457.535,-48.2982 446.89,-36.8015 438.154,-27.3665"/>
<polygon fill="midnightblue" stroke="midnightblue" points="440.465,-24.7108 431.103,-19.7511 435.329,-29.4666 440.465,-24.7108"/>
</g>
<!-- Node12&#45;&gt;Node9 -->
<g id="edge14" class="edge"><title>Node12&#45;&gt;Node9</title>
<path fill="none" stroke="midnightblue" d="M481.256,-56.083C488.465,-48.2982 499.11,-36.8015 507.846,-27.3665"/>
<polygon fill="midnightblue" stroke="midnightblue" points="510.671,-29.4666 514.897,-19.7511 505.535,-24.7108 510.671,-29.4666"/>
</g>
<!-- Node13&#45;&gt;Node3 -->
<g id="edge16" class="edge"><title>Node13&#45;&gt;Node3</title>
<path fill="none" stroke="midnightblue" d="M248.243,-112.444C226.684,-103.557 192.737,-89.5632 168.206,-79.4514"/>
<polygon fill="midnightblue" stroke="midnightblue" points="169.239,-76.0917 158.66,-75.5164 166.572,-82.5634 169.239,-76.0917"/>
</g>
<!-- Node13&#45;&gt;Node5 -->
<g id="edge17" class="edge"><title>Node13&#45;&gt;Node5</title>
<path fill="none" stroke="midnightblue" d="M277.256,-112.083C284.465,-104.298 295.11,-92.8015 303.846,-83.3665"/>
<polygon fill="midnightblue" stroke="midnightblue" points="306.671,-85.4666 310.897,-75.7511 301.535,-80.7108 306.671,-85.4666"/>
</g>
<!-- Node14 -->
<g id="node14" class="node"><title>Node14</title>
<g id="a_node14"><a xlink:href="_should_delete_8h.html" target="_top" xlink:title="ShouldDelete.h">
<polygon fill="none" stroke="black" points="192.5,-56.5 192.5,-75.5 275.5,-75.5 275.5,-56.5 192.5,-56.5"/>
<text text-anchor="middle" x="234" y="-63.5" font-family="Helvetica,sans-Serif" font-size="10.00">ShouldDelete.h</text>
</a>
</g>
</g>
<!-- Node13&#45;&gt;Node14 -->
<g id="edge18" class="edge"><title>Node13&#45;&gt;Node14</title>
<path fill="none" stroke="midnightblue" d="M263.22,-112.083C258.328,-104.534 251.173,-93.4948 245.167,-84.2298"/>
<polygon fill="midnightblue" stroke="midnightblue" points="248.048,-82.239 239.672,-75.7511 242.174,-86.0463 248.048,-82.239"/>
</g>
</g>
</svg>
