<?xml version="1.0" encoding="UTF-8" standalone="no"?>
<!DOCTYPE svg PUBLIC "-//W3C//DTD SVG 1.1//EN"
 "http://www.w3.org/Graphics/SVG/1.1/DTD/svg11.dtd">
<!-- Generated by graphviz version 2.34.0 (20140110.0949)
 -->
<!-- Title: include/Socket.h Pages: 1 -->
<svg width="544pt" height="196pt"
 viewBox="0.00 0.00 544.00 196.00" xmlns="http://www.w3.org/2000/svg" xmlns:xlink="http://www.w3.org/1999/xlink">
<g id="graph0" class="graph" transform="scale(1 1) rotate(0) translate(4 192)">
<title>include/Socket.h</title>
<!-- Node1 -->
<g id="node1" class="node"><title>Node1</title>
<polygon fill="#bfbfbf" stroke="black" points="186.5,-168.5 186.5,-187.5 275.5,-187.5 275.5,-168.5 186.5,-168.5"/>
<text text-anchor="middle" x="231" y="-175.5" font-family="Helvetica,sans-Serif" font-size="10.00">include/Socket.h</text>
</g>
<!-- Node2 -->
<g id="node2" class="node"><title>Node2</title>
<polygon fill="none" stroke="#bfbfbf" points="0,-112.5 0,-131.5 106,-131.5 106,-112.5 0,-112.5"/>
<text text-anchor="middle" x="53" y="-119.5" font-family="Helvetica,sans-Serif" font-size="10.00">event2/bufferevent.h</text>
</g>
<!-- Node1&#45;&gt;Node2 -->
<g id="edge1" class="edge"><title>Node1&#45;&gt;Node2</title>
<path fill="none" stroke="midnightblue" d="M202.795,-168.444C172.59,-159.28 124.489,-144.688 90.9707,-134.519"/>
<polygon fill="midnightblue" stroke="midnightblue" points="91.6581,-131.07 81.0727,-131.516 89.6259,-137.769 91.6581,-131.07"/>
</g>
<!-- Node3 -->
<g id="node3" class="node"><title>Node3</title>
<g id="a_node3"><a xlink:href="defines_8h.html" target="_top" xlink:title="defines.h">
<polygon fill="none" stroke="black" points="110,-56.5 110,-75.5 166,-75.5 166,-56.5 110,-56.5"/>
<text text-anchor="middle" x="138" y="-63.5" font-family="Helvetica,sans-Serif" font-size="10.00">defines.h</text>
</a>
</g>
</g>
<!-- Node1&#45;&gt;Node3 -->
<g id="edge2" class="edge"><title>Node1&#45;&gt;Node3</title>
<path fill="none" stroke="midnightblue" d="M205.489,-168.491C188.128,-161.402 166.021,-149.593 153,-132 143.203,-118.764 139.662,-100.179 138.449,-86.2703"/>
<polygon fill="midnightblue" stroke="midnightblue" points="141.924,-85.7045 137.892,-75.9068 134.934,-86.0803 141.924,-85.7045"/>
</g>
<!-- Node4 -->
<g id="node4" class="node"><title>Node4</title>
<g id="a_node4"><a xlink:href="_closable_8h.html" target="_top" xlink:title="Closable.h">
<polygon fill="none" stroke="black" points="162.5,-112.5 162.5,-131.5 225.5,-131.5 225.5,-112.5 162.5,-112.5"/>
<text text-anchor="middle" x="194" y="-119.5" font-family="Helvetica,sans-Serif" font-size="10.00">Closable.h</text>
</a>
</g>
</g>
<!-- Node1&#45;&gt;Node4 -->
<g id="edge3" class="edge"><title>Node1&#45;&gt;Node4</title>
<path fill="none" stroke="midnightblue" d="M224.89,-168.083C219.718,-160.534 212.154,-149.495 205.806,-140.23"/>
<polygon fill="midnightblue" stroke="midnightblue" points="208.536,-138.022 199.996,-131.751 202.761,-141.979 208.536,-138.022"/>
</g>
<!-- Node5 -->
<g id="node5" class="node"><title>Node5</title>
<g id="a_node5"><a xlink:href="_string_8h.html" target="_top" xlink:title="String.h">
<polygon fill="none" stroke="black" points="294,-56.5 294,-75.5 344,-75.5 344,-56.5 294,-56.5"/>
<text text-anchor="middle" x="319" y="-63.5" font-family="Helvetica,sans-Serif" font-size="10.00">String.h</text>
</a>
</g>
</g>
<!-- Node1&#45;&gt;Node5 -->
<g id="edge4" class="edge"><title>Node1&#45;&gt;Node5</title>
<path fill="none" stroke="midnightblue" d="M253.474,-168.416C269.619,-161.113 290.636,-149.072 303,-132 312.692,-118.616 316.554,-100.048 318.072,-86.1829"/>
<polygon fill="midnightblue" stroke="midnightblue" points="321.588,-86.1001 318.872,-75.8595 314.609,-85.559 321.588,-86.1001"/>
</g>
<!-- Node7 -->
<g id="node7" class="node"><title>Node7</title>
<g id="a_node7"><a xlink:href="_module_8h.html" target="_top" xlink:title="Module.h">
<polygon fill="none" stroke="black" points="374,-112.5 374,-131.5 430,-131.5 430,-112.5 374,-112.5"/>
<text text-anchor="middle" x="402" y="-119.5" font-family="Helvetica,sans-Serif" font-size="10.00">Module.h</text>
</a>
</g>
</g>
<!-- Node1&#45;&gt;Node7 -->
<g id="edge6" class="edge"><title>Node1&#45;&gt;Node7</title>
<path fill="none" stroke="midnightblue" d="M258.095,-168.444C286.988,-159.32 332.925,-144.813 365.105,-134.651"/>
<polygon fill="midnightblue" stroke="midnightblue" points="366.549,-137.865 375.031,-131.516 364.441,-131.19 366.549,-137.865"/>
</g>
<!-- Node12 -->
<g id="node12" class="node"><title>Node12</title>
<g id="a_node12"><a xlink:href="_writer_8h.html" target="_top" xlink:title="Writer.h">
<polygon fill="none" stroke="black" points="243.5,-112.5 243.5,-131.5 294.5,-131.5 294.5,-112.5 243.5,-112.5"/>
<text text-anchor="middle" x="269" y="-119.5" font-family="Helvetica,sans-Serif" font-size="10.00">Writer.h</text>
</a>
</g>
</g>
<!-- Node1&#45;&gt;Node12 -->
<g id="edge14" class="edge"><title>Node1&#45;&gt;Node12</title>
<path fill="none" stroke="midnightblue" d="M237.275,-168.083C242.642,-160.455 250.518,-149.264 257.079,-139.941"/>
<polygon fill="midnightblue" stroke="midnightblue" points="259.949,-141.943 262.842,-131.751 254.225,-137.915 259.949,-141.943"/>
</g>
<!-- Node6 -->
<g id="node6" class="node"><title>Node6</title>
<polygon fill="none" stroke="#bfbfbf" points="287.5,-0.5 287.5,-19.5 328.5,-19.5 328.5,-0.5 287.5,-0.5"/>
<text text-anchor="middle" x="308" y="-7.5" font-family="Helvetica,sans-Serif" font-size="10.00">string</text>
</g>
<!-- Node5&#45;&gt;Node6 -->
<g id="edge5" class="edge"><title>Node5&#45;&gt;Node6</title>
<path fill="none" stroke="midnightblue" d="M317.184,-56.083C315.726,-48.9272 313.629,-38.6353 311.807,-29.6911"/>
<polygon fill="midnightblue" stroke="midnightblue" points="315.208,-28.8512 309.783,-19.7511 308.349,-30.2485 315.208,-28.8512"/>
</g>
<!-- Node7&#45;&gt;Node5 -->
<g id="edge10" class="edge"><title>Node7&#45;&gt;Node5</title>
<path fill="none" stroke="midnightblue" d="M388.665,-112.324C375.838,-103.979 356.215,-91.2122 341.06,-81.3524"/>
<polygon fill="midnightblue" stroke="midnightblue" points="342.593,-78.1742 332.302,-75.6545 338.776,-84.0417 342.593,-78.1742"/>
</g>
<!-- Node8 -->
<g id="node8" class="node"><title>Node8</title>
<polygon fill="none" stroke="#bfbfbf" points="346.5,-0.5 346.5,-19.5 419.5,-19.5 419.5,-0.5 346.5,-0.5"/>
<text text-anchor="middle" x="383" y="-7.5" font-family="Helvetica,sans-Serif" font-size="10.00">event2/dns.h</text>
</g>
<!-- Node7&#45;&gt;Node8 -->
<g id="edge7" class="edge"><title>Node7&#45;&gt;Node8</title>
<path fill="none" stroke="midnightblue" d="M399.589,-112.438C397.128,-103.432 393.347,-88.8158 391,-76 388.181,-60.6029 386.08,-42.9678 384.74,-29.9548"/>
<polygon fill="midnightblue" stroke="midnightblue" points="388.212,-29.4953 383.76,-19.8813 381.245,-30.1733 388.212,-29.4953"/>
</g>
<!-- Node9 -->
<g id="node9" class="node"><title>Node9</title>
<polygon fill="none" stroke="#bfbfbf" points="437.5,-0.5 437.5,-19.5 518.5,-19.5 518.5,-0.5 437.5,-0.5"/>
<text text-anchor="middle" x="478" y="-7.5" font-family="Helvetica,sans-Serif" font-size="10.00">event2/event.h</text>
</g>
<!-- Node7&#45;&gt;Node9 -->
<g id="edge8" class="edge"><title>Node7&#45;&gt;Node9</title>
<path fill="none" stroke="midnightblue" d="M417.528,-112.465C430.435,-104.603 448.353,-91.783 459,-76 468.348,-62.1414 473.174,-43.6255 475.616,-29.9012"/>
<polygon fill="midnightblue" stroke="midnightblue" points="479.123,-30.1174 477.155,-19.707 472.201,-29.0728 479.123,-30.1174"/>
</g>
<!-- Node10 -->
<g id="node10" class="node"><title>Node10</title>
<polygon fill="none" stroke="#bfbfbf" points="506,-56.5 506,-75.5 536,-75.5 536,-56.5 506,-56.5"/>
<text text-anchor="middle" x="521" y="-63.5" font-family="Helvetica,sans-Serif" font-size="10.00">set</text>
</g>
<!-- Node7&#45;&gt;Node10 -->
<g id="edge9" class="edge"><title>Node7&#45;&gt;Node10</title>
<path fill="none" stroke="midnightblue" d="M420.856,-112.444C441.294,-103.169 473.987,-88.3338 496.424,-78.1522"/>
<polygon fill="midnightblue" stroke="midnightblue" points="497.978,-81.2905 505.638,-73.971 495.085,-74.9161 497.978,-81.2905"/>
</g>
<!-- Node11 -->
<g id="node11" class="node"><title>Node11</title>
<g id="a_node11"><a xlink:href="_event_8h.html" target="_top" xlink:title="Event.h">
<polygon fill="none" stroke="black" points="400,-56.5 400,-75.5 450,-75.5 450,-56.5 400,-56.5"/>
<text text-anchor="middle" x="425" y="-63.5" font-family="Helvetica,sans-Serif" font-size="10.00">Event.h</text>
</a>
</g>
</g>
<!-- Node7&#45;&gt;Node11 -->
<g id="edge11" class="edge"><title>Node7&#45;&gt;Node11</title>
<path fill="none" stroke="midnightblue" d="M405.798,-112.083C408.913,-104.77 413.423,-94.1814 417.289,-85.1034"/>
<polygon fill="midnightblue" stroke="midnightblue" points="420.574,-86.3229 421.273,-75.7511 414.134,-83.5798 420.574,-86.3229"/>
</g>
<!-- Node11&#45;&gt;Node8 -->
<g id="edge12" class="edge"><title>Node11&#45;&gt;Node8</title>
<path fill="none" stroke="midnightblue" d="M418.065,-56.083C412.071,-48.3768 403.248,-37.0333 395.952,-27.6531"/>
<polygon fill="midnightblue" stroke="midnightblue" points="398.709,-25.4958 389.806,-19.7511 393.183,-29.7934 398.709,-25.4958"/>
</g>
<!-- Node11&#45;&gt;Node9 -->
<g id="edge13" class="edge"><title>Node11&#45;&gt;Node9</title>
<path fill="none" stroke="midnightblue" d="M433.752,-56.083C441.47,-48.2195 452.905,-36.5688 462.217,-27.0813"/>
<polygon fill="midnightblue" stroke="midnightblue" points="464.904,-29.3396 469.411,-19.7511 459.908,-24.4363 464.904,-29.3396"/>
</g>
<!-- Node12&#45;&gt;Node3 -->
<g id="edge15" class="edge"><title>Node12&#45;&gt;Node3</title>
<path fill="none" stroke="midnightblue" d="M248.243,-112.444C226.684,-103.557 192.737,-89.5632 168.206,-79.4514"/>
<polygon fill="midnightblue" stroke="midnightblue" points="169.239,-76.0917 158.66,-75.5164 166.572,-82.5634 169.239,-76.0917"/>
</g>
<!-- Node12&#45;&gt;Node5 -->
<g id="edge16" class="edge"><title>Node12&#45;&gt;Node5</title>
<path fill="none" stroke="midnightblue" d="M277.256,-112.083C284.465,-104.298 295.11,-92.8015 303.846,-83.3665"/>
<polygon fill="midnightblue" stroke="midnightblue" points="306.671,-85.4666 310.897,-75.7511 301.535,-80.7108 306.671,-85.4666"/>
</g>
<!-- Node13 -->
<g id="node13" class="node"><title>Node13</title>
<g id="a_node13"><a xlink:href="_should_delete_8h.html" target="_top" xlink:title="ShouldDelete.h">
<polygon fill="none" stroke="black" points="192.5,-56.5 192.5,-75.5 275.5,-75.5 275.5,-56.5 192.5,-56.5"/>
<text text-anchor="middle" x="234" y="-63.5" font-family="Helvetica,sans-Serif" font-size="10.00">ShouldDelete.h</text>
</a>
</g>
</g>
<!-- Node12&#45;&gt;Node13 -->
<g id="edge17" class="edge"><title>Node12&#45;&gt;Node13</title>
<path fill="none" stroke="midnightblue" d="M263.22,-112.083C258.328,-104.534 251.173,-93.4948 245.167,-84.2298"/>
<polygon fill="midnightblue" stroke="midnightblue" points="248.048,-82.239 239.672,-75.7511 242.174,-86.0463 248.048,-82.239"/>
</g>
</g>
</svg>
