<?xml version="1.0" encoding="UTF-8" standalone="no"?>
<!DOCTYPE svg PUBLIC "-//W3C//DTD SVG 1.1//EN"
 "http://www.w3.org/Graphics/SVG/1.1/DTD/svg11.dtd">
<!-- Generated by graphviz version 2.34.0 (20140110.0949)
 -->
<!-- Title: include/StatsdClient.h Pages: 1 -->
<svg width="652pt" height="252pt"
 viewBox="0.00 0.00 652.00 252.00" xmlns="http://www.w3.org/2000/svg" xmlns:xlink="http://www.w3.org/1999/xlink">
<g id="graph0" class="graph" transform="scale(1 1) rotate(0) translate(4 248)">
<title>include/StatsdClient.h</title>
<!-- Node1 -->
<g id="node1" class="node"><title>Node1</title>
<polygon fill="#bfbfbf" stroke="black" points="203.5,-224.5 203.5,-243.5 316.5,-243.5 316.5,-224.5 203.5,-224.5"/>
<text text-anchor="middle" x="260" y="-231.5" font-family="Helvetica,sans-Serif" font-size="10.00">include/StatsdClient.h</text>
</g>
<!-- Node2 -->
<g id="node2" class="node"><title>Node2</title>
<polygon fill="none" stroke="#bfbfbf" points="152,-168.5 152,-187.5 214,-187.5 214,-168.5 152,-168.5"/>
<text text-anchor="middle" x="183" y="-175.5" font-family="Helvetica,sans-Serif" font-size="10.00">arpa/inet.h</text>
</g>
<!-- Node1&#45;&gt;Node2 -->
<g id="edge1" class="edge"><title>Node1&#45;&gt;Node2</title>
<path fill="none" stroke="midnightblue" d="M247.629,-224.324C235.842,-216.058 217.868,-203.453 203.864,-193.632"/>
<polygon fill="midnightblue" stroke="midnightblue" points="205.538,-190.531 195.341,-187.655 201.518,-196.262 205.538,-190.531"/>
</g>
<!-- Node3 -->
<g id="node3" class="node"><title>Node3</title>
<g id="a_node3"><a xlink:href="_string_8h.html" target="_top" xlink:title="String.h">
<polygon fill="none" stroke="black" points="310,-56.5 310,-75.5 360,-75.5 360,-56.5 310,-56.5"/>
<text text-anchor="middle" x="335" y="-63.5" font-family="Helvetica,sans-Serif" font-size="10.00">String.h</text>
</a>
</g>
</g>
<!-- Node1&#45;&gt;Node3 -->
<g id="edge2" class="edge"><title>Node1&#45;&gt;Node3</title>
<path fill="none" stroke="midnightblue" d="M270.592,-224.37C289.184,-208.446 327.041,-172.361 341,-132 346.209,-116.939 343.885,-98.8107 340.732,-85.5297"/>
<polygon fill="midnightblue" stroke="midnightblue" points="344.053,-84.4074 338.035,-75.6875 337.302,-86.257 344.053,-84.4074"/>
</g>
<!-- Node5 -->
<g id="node5" class="node"><title>Node5</title>
<g id="a_node5"><a xlink:href="_socket_8h.html" target="_top" xlink:title="Socket.h">
<polygon fill="none" stroke="black" points="232,-168.5 232,-187.5 288,-187.5 288,-168.5 232,-168.5"/>
<text text-anchor="middle" x="260" y="-175.5" font-family="Helvetica,sans-Serif" font-size="10.00">Socket.h</text>
</a>
</g>
</g>
<!-- Node1&#45;&gt;Node5 -->
<g id="edge4" class="edge"><title>Node1&#45;&gt;Node5</title>
<path fill="none" stroke="midnightblue" d="M260,-224.083C260,-217.006 260,-206.861 260,-197.986"/>
<polygon fill="midnightblue" stroke="midnightblue" points="263.5,-197.751 260,-187.751 256.5,-197.751 263.5,-197.751"/>
</g>
<!-- Node4 -->
<g id="node4" class="node"><title>Node4</title>
<polygon fill="none" stroke="#bfbfbf" points="303.5,-0.5 303.5,-19.5 344.5,-19.5 344.5,-0.5 303.5,-0.5"/>
<text text-anchor="middle" x="324" y="-7.5" font-family="Helvetica,sans-Serif" font-size="10.00">string</text>
</g>
<!-- Node3&#45;&gt;Node4 -->
<g id="edge3" class="edge"><title>Node3&#45;&gt;Node4</title>
<path fill="none" stroke="midnightblue" d="M333.184,-56.083C331.726,-48.9272 329.629,-38.6353 327.807,-29.6911"/>
<polygon fill="midnightblue" stroke="midnightblue" points="331.208,-28.8512 325.783,-19.7511 324.349,-30.2485 331.208,-28.8512"/>
</g>
<!-- Node5&#45;&gt;Node3 -->
<g id="edge8" class="edge"><title>Node5&#45;&gt;Node3</title>
<path fill="none" stroke="midnightblue" d="M278.409,-168.424C292.57,-160.853 311.447,-148.458 322,-132 330.833,-118.225 333.864,-99.7002 334.814,-85.9509"/>
<polygon fill="midnightblue" stroke="midnightblue" points="338.319,-85.8602 335.203,-75.734 331.325,-85.5933 338.319,-85.8602"/>
</g>
<!-- Node6 -->
<g id="node6" class="node"><title>Node6</title>
<polygon fill="none" stroke="#bfbfbf" points="207,-112.5 207,-131.5 313,-131.5 313,-112.5 207,-112.5"/>
<text text-anchor="middle" x="260" y="-119.5" font-family="Helvetica,sans-Serif" font-size="10.00">event2/bufferevent.h</text>
</g>
<!-- Node5&#45;&gt;Node6 -->
<g id="edge5" class="edge"><title>Node5&#45;&gt;Node6</title>
<path fill="none" stroke="midnightblue" d="M260,-168.083C260,-161.006 260,-150.861 260,-141.986"/>
<polygon fill="midnightblue" stroke="midnightblue" points="263.5,-141.751 260,-131.751 256.5,-141.751 263.5,-141.751"/>
</g>
<!-- Node7 -->
<g id="node7" class="node"><title>Node7</title>
<g id="a_node7"><a xlink:href="defines_8h.html" target="_top" xlink:title="defines.h">
<polygon fill="none" stroke="black" points="0,-56.5 0,-75.5 56,-75.5 56,-56.5 0,-56.5"/>
<text text-anchor="middle" x="28" y="-63.5" font-family="Helvetica,sans-Serif" font-size="10.00">defines.h</text>
</a>
</g>
</g>
<!-- Node5&#45;&gt;Node7 -->
<g id="edge6" class="edge"><title>Node5&#45;&gt;Node7</title>
<path fill="none" stroke="midnightblue" d="M231.743,-170.013C228.794,-169.318 225.839,-168.635 223,-168 145.086,-150.562 105.74,-186.077 47,-132 34.1796,-120.197 29.8356,-100.273 28.4502,-85.5872"/>
<polygon fill="midnightblue" stroke="midnightblue" points="31.9443,-85.3825 27.8762,-75.5998 24.9559,-85.7842 31.9443,-85.3825"/>
</g>
<!-- Node8 -->
<g id="node8" class="node"><title>Node8</title>
<g id="a_node8"><a xlink:href="_closable_8h.html" target="_top" xlink:title="Closable.h">
<polygon fill="none" stroke="black" points="125.5,-112.5 125.5,-131.5 188.5,-131.5 188.5,-112.5 125.5,-112.5"/>
<text text-anchor="middle" x="157" y="-119.5" font-family="Helvetica,sans-Serif" font-size="10.00">Closable.h</text>
</a>
</g>
</g>
<!-- Node5&#45;&gt;Node8 -->
<g id="edge7" class="edge"><title>Node5&#45;&gt;Node8</title>
<path fill="none" stroke="midnightblue" d="M243.451,-168.324C227.008,-159.703 201.565,-146.364 182.532,-136.386"/>
<polygon fill="midnightblue" stroke="midnightblue" points="183.989,-133.198 173.508,-131.655 180.739,-139.398 183.989,-133.198"/>
</g>
<!-- Node9 -->
<g id="node9" class="node"><title>Node9</title>
<g id="a_node9"><a xlink:href="_module_8h.html" target="_top" xlink:title="Module.h">
<polygon fill="none" stroke="black" points="413,-112.5 413,-131.5 469,-131.5 469,-112.5 413,-112.5"/>
<text text-anchor="middle" x="441" y="-119.5" font-family="Helvetica,sans-Serif" font-size="10.00">Module.h</text>
</a>
</g>
</g>
<!-- Node5&#45;&gt;Node9 -->
<g id="edge9" class="edge"><title>Node5&#45;&gt;Node9</title>
<path fill="none" stroke="midnightblue" d="M288.281,-168.562C319.23,-159.329 368.994,-144.482 403.257,-134.26"/>
<polygon fill="midnightblue" stroke="midnightblue" points="404.335,-137.591 412.917,-131.378 402.334,-130.883 404.335,-137.591"/>
</g>
<!-- Node15 -->
<g id="node15" class="node"><title>Node15</title>
<g id="a_node15"><a xlink:href="_writer_8h.html" target="_top" xlink:title="Writer.h">
<polygon fill="none" stroke="black" points="56.5,-112.5 56.5,-131.5 107.5,-131.5 107.5,-112.5 56.5,-112.5"/>
<text text-anchor="middle" x="82" y="-119.5" font-family="Helvetica,sans-Serif" font-size="10.00">Writer.h</text>
</a>
</g>
</g>
<!-- Node5&#45;&gt;Node15 -->
<g id="edge18" class="edge"><title>Node5&#45;&gt;Node15</title>
<path fill="none" stroke="midnightblue" d="M231.795,-168.444C200.879,-159.064 151.215,-143.998 117.629,-133.809"/>
<polygon fill="midnightblue" stroke="midnightblue" points="118.346,-130.369 107.761,-130.815 116.314,-137.067 118.346,-130.369"/>
</g>
<!-- Node9&#45;&gt;Node3 -->
<g id="edge14" class="edge"><title>Node9&#45;&gt;Node3</title>
<path fill="none" stroke="midnightblue" d="M423.969,-112.324C406.97,-103.664 380.624,-90.2424 361.007,-80.249"/>
<polygon fill="midnightblue" stroke="midnightblue" points="362.488,-77.0752 351.988,-75.6545 359.31,-83.3125 362.488,-77.0752"/>
</g>
<!-- Node10 -->
<g id="node10" class="node"><title>Node10</title>
<polygon fill="none" stroke="#bfbfbf" points="362.5,-0.5 362.5,-19.5 435.5,-19.5 435.5,-0.5 362.5,-0.5"/>
<text text-anchor="middle" x="399" y="-7.5" font-family="Helvetica,sans-Serif" font-size="10.00">event2/dns.h</text>
</g>
<!-- Node9&#45;&gt;Node10 -->
<g id="edge10" class="edge"><title>Node9&#45;&gt;Node10</title>
<path fill="none" stroke="midnightblue" d="M432.114,-112.246C424.105,-103.771 412.733,-90.1583 407,-76 401.059,-61.3283 399.214,-43.3908 398.766,-30.0787"/>
<polygon fill="midnightblue" stroke="midnightblue" points="402.263,-29.7344 398.666,-19.7692 395.264,-29.803 402.263,-29.7344"/>
</g>
<!-- Node11 -->
<g id="node11" class="node"><title>Node11</title>
<polygon fill="none" stroke="#bfbfbf" points="453.5,-0.5 453.5,-19.5 534.5,-19.5 534.5,-0.5 453.5,-0.5"/>
<text text-anchor="middle" x="494" y="-7.5" font-family="Helvetica,sans-Serif" font-size="10.00">event2/event.h</text>
</g>
<!-- Node9&#45;&gt;Node11 -->
<g id="edge11" class="edge"><title>Node9&#45;&gt;Node11</title>
<path fill="none" stroke="midnightblue" d="M449.079,-112.343C456.73,-103.725 468.053,-89.8233 475,-76 482.424,-61.2276 487.425,-43.071 490.425,-29.7057"/>
<polygon fill="midnightblue" stroke="midnightblue" points="493.879,-30.2878 492.483,-19.7853 487.025,-28.8657 493.879,-30.2878"/>
</g>
<!-- Node12 -->
<g id="node12" class="node"><title>Node12</title>
<polygon fill="none" stroke="#bfbfbf" points="522.5,-56.5 522.5,-75.5 595.5,-75.5 595.5,-56.5 522.5,-56.5"/>
<text text-anchor="middle" x="559" y="-63.5" font-family="Helvetica,sans-Serif" font-size="10.00">libconfig.h++</text>
</g>
<!-- Node9&#45;&gt;Node12 -->
<g id="edge12" class="edge"><title>Node9&#45;&gt;Node12</title>
<path fill="none" stroke="midnightblue" d="M459.697,-112.444C478.944,-103.636 509.152,-89.8116 531.2,-79.722"/>
<polygon fill="midnightblue" stroke="midnightblue" points="532.753,-82.8603 540.39,-75.5164 529.84,-76.4951 532.753,-82.8603"/>
</g>
<!-- Node13 -->
<g id="node13" class="node"><title>Node13</title>
<polygon fill="none" stroke="#bfbfbf" points="614,-56.5 614,-75.5 644,-75.5 644,-56.5 614,-56.5"/>
<text text-anchor="middle" x="629" y="-63.5" font-family="Helvetica,sans-Serif" font-size="10.00">set</text>
</g>
<!-- Node9&#45;&gt;Node13 -->
<g id="edge13" class="edge"><title>Node9&#45;&gt;Node13</title>
<path fill="none" stroke="midnightblue" d="M469.168,-113.92C501.815,-105.554 557.133,-90.8818 604,-76 604.102,-75.9677 604.204,-75.9353 604.306,-75.9027"/>
<polygon fill="midnightblue" stroke="midnightblue" points="605.65,-79.1427 613.992,-72.6123 603.398,-72.5146 605.65,-79.1427"/>
</g>
<!-- Node14 -->
<g id="node14" class="node"><title>Node14</title>
<g id="a_node14"><a xlink:href="_event_8h.html" target="_top" xlink:title="Event.h">
<polygon fill="none" stroke="black" points="416,-56.5 416,-75.5 466,-75.5 466,-56.5 416,-56.5"/>
<text text-anchor="middle" x="441" y="-63.5" font-family="Helvetica,sans-Serif" font-size="10.00">Event.h</text>
</a>
</g>
</g>
<!-- Node9&#45;&gt;Node14 -->
<g id="edge15" class="edge"><title>Node9&#45;&gt;Node14</title>
<path fill="none" stroke="midnightblue" d="M441,-112.083C441,-105.006 441,-94.8611 441,-85.9865"/>
<polygon fill="midnightblue" stroke="midnightblue" points="444.5,-85.751 441,-75.7511 437.5,-85.7511 444.5,-85.751"/>
</g>
<!-- Node14&#45;&gt;Node10 -->
<g id="edge16" class="edge"><title>Node14&#45;&gt;Node10</title>
<path fill="none" stroke="midnightblue" d="M434.065,-56.083C428.071,-48.3768 419.248,-37.0333 411.952,-27.6531"/>
<polygon fill="midnightblue" stroke="midnightblue" points="414.709,-25.4958 405.806,-19.7511 409.183,-29.7934 414.709,-25.4958"/>
</g>
<!-- Node14&#45;&gt;Node11 -->
<g id="edge17" class="edge"><title>Node14&#45;&gt;Node11</title>
<path fill="none" stroke="midnightblue" d="M449.752,-56.083C457.47,-48.2195 468.905,-36.5688 478.217,-27.0813"/>
<polygon fill="midnightblue" stroke="midnightblue" points="480.904,-29.3396 485.411,-19.7511 475.908,-24.4363 480.904,-29.3396"/>
</g>
<!-- Node15&#45;&gt;Node3 -->
<g id="edge20" class="edge"><title>Node15&#45;&gt;Node3</title>
<path fill="none" stroke="midnightblue" d="M107.581,-114.064C110.416,-113.344 113.266,-112.642 116,-112 180.581,-96.8302 256.541,-81.8588 299.903,-73.5821"/>
<polygon fill="midnightblue" stroke="midnightblue" points="300.768,-76.9803 309.939,-71.675 299.461,-70.1034 300.768,-76.9803"/>
</g>
<!-- Node15&#45;&gt;Node7 -->
<g id="edge19" class="edge"><title>Node15&#45;&gt;Node7</title>
<path fill="none" stroke="midnightblue" d="M73.083,-112.083C65.2195,-104.22 53.5688,-92.5688 44.0813,-83.0813"/>
<polygon fill="midnightblue" stroke="midnightblue" points="46.2971,-80.3473 36.7511,-75.7511 41.3473,-85.2971 46.2971,-80.3473"/>
</g>
<!-- Node16 -->
<g id="node16" class="node"><title>Node16</title>
<g id="a_node16"><a xlink:href="_should_delete_8h.html" target="_top" xlink:title="ShouldDelete.h">
<polygon fill="none" stroke="black" points="74.5,-56.5 74.5,-75.5 157.5,-75.5 157.5,-56.5 74.5,-56.5"/>
<text text-anchor="middle" x="116" y="-63.5" font-family="Helvetica,sans-Serif" font-size="10.00">ShouldDelete.h</text>
</a>
</g>
</g>
<!-- Node15&#45;&gt;Node16 -->
<g id="edge21" class="edge"><title>Node15&#45;&gt;Node16</title>
<path fill="none" stroke="midnightblue" d="M87.6144,-112.083C92.3674,-104.534 99.3181,-93.4948 105.152,-84.2298"/>
<polygon fill="midnightblue" stroke="midnightblue" points="108.124,-86.0783 110.49,-75.7511 102.2,-82.3486 108.124,-86.0783"/>
</g>
</g>
</svg>
