<?xml version="1.0" encoding="UTF-8" standalone="no"?>
<!DOCTYPE svg PUBLIC "-//W3C//DTD SVG 1.1//EN"
 "http://www.w3.org/Graphics/SVG/1.1/DTD/svg11.dtd">
<!-- Generated by graphviz version 2.34.0 (20140110.0949)
 -->
<!-- Title: include/StatsdClient.h Pages: 1 -->
<svg width="689pt" height="252pt"
 viewBox="0.00 0.00 689.03 252.00" xmlns="http://www.w3.org/2000/svg" xmlns:xlink="http://www.w3.org/1999/xlink">
<g id="graph0" class="graph" transform="scale(1 1) rotate(0) translate(4 248)">
<title>include/StatsdClient.h</title>
<!-- Node1 -->
<g id="node1" class="node"><title>Node1</title>
<polygon fill="#bfbfbf" stroke="black" points="223.529,-224.5 223.529,-243.5 336.529,-243.5 336.529,-224.5 223.529,-224.5"/>
<text text-anchor="middle" x="280.029" y="-231.5" font-family="Helvetica,sans-Serif" font-size="10.00">include/StatsdClient.h</text>
</g>
<!-- Node2 -->
<g id="node2" class="node"><title>Node2</title>
<polygon fill="none" stroke="#bfbfbf" points="172.029,-168.5 172.029,-187.5 234.029,-187.5 234.029,-168.5 172.029,-168.5"/>
<text text-anchor="middle" x="203.029" y="-175.5" font-family="Helvetica,sans-Serif" font-size="10.00">arpa/inet.h</text>
</g>
<!-- Node1&#45;&gt;Node2 -->
<g id="edge1" class="edge"><title>Node1&#45;&gt;Node2</title>
<path fill="none" stroke="midnightblue" d="M267.657,-224.324C255.87,-216.058 237.897,-203.453 223.893,-193.632"/>
<polygon fill="midnightblue" stroke="midnightblue" points="225.566,-190.531 215.37,-187.655 221.547,-196.262 225.566,-190.531"/>
</g>
<!-- Node3 -->
<g id="node3" class="node"><title>Node3</title>
<g id="a_node3"><a xlink:href="_string_8h.html" target="_top" xlink:title="String.h">
<polygon fill="none" stroke="black" points="348.029,-56.5 348.029,-75.5 398.029,-75.5 398.029,-56.5 348.029,-56.5"/>
<text text-anchor="middle" x="373.029" y="-63.5" font-family="Helvetica,sans-Serif" font-size="10.00">String.h</text>
</a>
</g>
</g>
<!-- Node1&#45;&gt;Node3 -->
<g id="edge2" class="edge"><title>Node1&#45;&gt;Node3</title>
<path fill="none" stroke="midnightblue" d="M293.18,-224.347C315.293,-208.908 359.159,-174.236 376.029,-132 381.921,-117.247 380.435,-99.0887 377.898,-85.7177"/>
<polygon fill="midnightblue" stroke="midnightblue" points="381.274,-84.7767 375.659,-75.792 374.446,-86.317 381.274,-84.7767"/>
</g>
<!-- Node5 -->
<g id="node5" class="node"><title>Node5</title>
<g id="a_node5"><a xlink:href="_socket_8h.html" target="_top" xlink:title="Socket.h">
<polygon fill="none" stroke="black" points="252.029,-168.5 252.029,-187.5 308.029,-187.5 308.029,-168.5 252.029,-168.5"/>
<text text-anchor="middle" x="280.029" y="-175.5" font-family="Helvetica,sans-Serif" font-size="10.00">Socket.h</text>
</a>
</g>
</g>
<!-- Node1&#45;&gt;Node5 -->
<g id="edge4" class="edge"><title>Node1&#45;&gt;Node5</title>
<path fill="none" stroke="midnightblue" d="M280.029,-224.083C280.029,-217.006 280.029,-206.861 280.029,-197.986"/>
<polygon fill="midnightblue" stroke="midnightblue" points="283.529,-197.751 280.029,-187.751 276.529,-197.751 283.529,-197.751"/>
</g>
<!-- Node4 -->
<g id="node4" class="node"><title>Node4</title>
<polygon fill="none" stroke="#bfbfbf" points="352.529,-0.5 352.529,-19.5 393.529,-19.5 393.529,-0.5 352.529,-0.5"/>
<text text-anchor="middle" x="373.029" y="-7.5" font-family="Helvetica,sans-Serif" font-size="10.00">string</text>
</g>
<!-- Node3&#45;&gt;Node4 -->
<g id="edge3" class="edge"><title>Node3&#45;&gt;Node4</title>
<path fill="none" stroke="midnightblue" d="M373.029,-56.083C373.029,-49.0059 373.029,-38.8611 373.029,-29.9865"/>
<polygon fill="midnightblue" stroke="midnightblue" points="376.529,-29.751 373.029,-19.7511 369.529,-29.7511 376.529,-29.751"/>
</g>
<!-- Node5&#45;&gt;Node3 -->
<g id="edge9" class="edge"><title>Node5&#45;&gt;Node3</title>
<path fill="none" stroke="midnightblue" d="M305.139,-168.352C322.243,-161.196 344.055,-149.366 357.029,-132 366.919,-118.762 370.758,-100.177 372.218,-86.2691"/>
<polygon fill="midnightblue" stroke="midnightblue" points="375.737,-86.1318 372.964,-75.9062 368.755,-85.6288 375.737,-86.1318"/>
</g>
<!-- Node6 -->
<g id="node6" class="node"><title>Node6</title>
<polygon fill="none" stroke="#bfbfbf" points="14.5288,-112.5 14.5288,-131.5 73.5288,-131.5 73.5288,-112.5 14.5288,-112.5"/>
<text text-anchor="middle" x="44.0288" y="-119.5" font-family="Helvetica,sans-Serif" font-size="10.00">stdexcept</text>
</g>
<!-- Node5&#45;&gt;Node6 -->
<g id="edge5" class="edge"><title>Node5&#45;&gt;Node6</title>
<path fill="none" stroke="midnightblue" d="M251.759,-170.07C248.813,-169.364 245.861,-168.663 243.029,-168 175.108,-152.1 155.737,-148.494 83.8456,-132.174"/>
<polygon fill="midnightblue" stroke="midnightblue" points="84.3628,-128.702 73.8355,-129.896 82.8098,-135.527 84.3628,-128.702"/>
</g>
<!-- Node7 -->
<g id="node7" class="node"><title>Node7</title>
<polygon fill="none" stroke="#bfbfbf" points="92.0288,-112.5 92.0288,-131.5 198.029,-131.5 198.029,-112.5 92.0288,-112.5"/>
<text text-anchor="middle" x="145.029" y="-119.5" font-family="Helvetica,sans-Serif" font-size="10.00">event2/bufferevent.h</text>
</g>
<!-- Node5&#45;&gt;Node7 -->
<g id="edge6" class="edge"><title>Node5&#45;&gt;Node7</title>
<path fill="none" stroke="midnightblue" d="M258.638,-168.444C236.322,-159.517 201.126,-145.439 175.821,-135.317"/>
<polygon fill="midnightblue" stroke="midnightblue" points="176.905,-131.981 166.32,-131.516 174.305,-138.48 176.905,-131.981"/>
</g>
<!-- Node8 -->
<g id="node8" class="node"><title>Node8</title>
<g id="a_node8"><a xlink:href="defines_8h.html" target="_top" xlink:title="defines.h">
<polygon fill="none" stroke="black" points="42.0288,-56.5 42.0288,-75.5 98.0288,-75.5 98.0288,-56.5 42.0288,-56.5"/>
<text text-anchor="middle" x="70.0288" y="-63.5" font-family="Helvetica,sans-Serif" font-size="10.00">defines.h</text>
</a>
</g>
</g>
<!-- Node5&#45;&gt;Node8 -->
<g id="edge7" class="edge"><title>Node5&#45;&gt;Node8</title>
<path fill="none" stroke="midnightblue" d="M251.804,-169.862C248.849,-169.196 245.883,-168.562 243.029,-168 190.546,-157.669 39.9094,-172.553 5.02884,-132 -11.3044,-113.01 16.8212,-92.8736 41.0309,-80.1339"/>
<polygon fill="midnightblue" stroke="midnightblue" points="42.6445,-83.2403 50.017,-75.6313 39.5086,-76.982 42.6445,-83.2403"/>
</g>
<!-- Node9 -->
<g id="node9" class="node"><title>Node9</title>
<g id="a_node9"><a xlink:href="_closable_8h.html" target="_top" xlink:title="Closable.h">
<polygon fill="none" stroke="black" points="285.529,-112.5 285.529,-131.5 348.529,-131.5 348.529,-112.5 285.529,-112.5"/>
<text text-anchor="middle" x="317.029" y="-119.5" font-family="Helvetica,sans-Serif" font-size="10.00">Closable.h</text>
</a>
</g>
</g>
<!-- Node5&#45;&gt;Node9 -->
<g id="edge8" class="edge"><title>Node5&#45;&gt;Node9</title>
<path fill="none" stroke="midnightblue" d="M286.139,-168.083C291.311,-160.534 298.875,-149.495 305.223,-140.23"/>
<polygon fill="midnightblue" stroke="midnightblue" points="308.268,-141.979 311.033,-131.751 302.493,-138.022 308.268,-141.979"/>
</g>
<!-- Node10 -->
<g id="node10" class="node"><title>Node10</title>
<g id="a_node10"><a xlink:href="_module_8h.html" target="_top" xlink:title="Module.h">
<polygon fill="none" stroke="black" points="446.029,-112.5 446.029,-131.5 502.029,-131.5 502.029,-112.5 446.029,-112.5"/>
<text text-anchor="middle" x="474.029" y="-119.5" font-family="Helvetica,sans-Serif" font-size="10.00">Module.h</text>
</a>
</g>
</g>
<!-- Node5&#45;&gt;Node10 -->
<g id="edge10" class="edge"><title>Node5&#45;&gt;Node10</title>
<path fill="none" stroke="midnightblue" d="M308.238,-169.148C341.858,-159.79 398.194,-144.109 435.731,-133.66"/>
<polygon fill="midnightblue" stroke="midnightblue" points="437.09,-136.915 445.786,-130.862 435.213,-130.171 437.09,-136.915"/>
</g>
<!-- Node16 -->
<g id="node16" class="node"><title>Node16</title>
<g id="a_node16"><a xlink:href="_writer_8h.html" target="_top" xlink:title="Writer.h">
<polygon fill="none" stroke="black" points="216.529,-112.5 216.529,-131.5 267.529,-131.5 267.529,-112.5 216.529,-112.5"/>
<text text-anchor="middle" x="242.029" y="-119.5" font-family="Helvetica,sans-Serif" font-size="10.00">Writer.h</text>
</a>
</g>
</g>
<!-- Node5&#45;&gt;Node16 -->
<g id="edge19" class="edge"><title>Node5&#45;&gt;Node16</title>
<path fill="none" stroke="midnightblue" d="M273.754,-168.083C268.386,-160.455 260.511,-149.264 253.95,-139.941"/>
<polygon fill="midnightblue" stroke="midnightblue" points="256.804,-137.915 248.187,-131.751 251.08,-141.943 256.804,-137.915"/>
</g>
<!-- Node10&#45;&gt;Node3 -->
<g id="edge15" class="edge"><title>Node10&#45;&gt;Node3</title>
<path fill="none" stroke="midnightblue" d="M457.801,-112.324C441.678,-103.703 416.729,-90.3643 398.065,-80.3855"/>
<polygon fill="midnightblue" stroke="midnightblue" points="399.685,-77.283 389.216,-75.6545 396.384,-83.456 399.685,-77.283"/>
</g>
<!-- Node11 -->
<g id="node11" class="node"><title>Node11</title>
<polygon fill="none" stroke="#bfbfbf" points="440.529,-0.5 440.529,-19.5 513.529,-19.5 513.529,-0.5 440.529,-0.5"/>
<text text-anchor="middle" x="477.029" y="-7.5" font-family="Helvetica,sans-Serif" font-size="10.00">event2/dns.h</text>
</g>
<!-- Node10&#45;&gt;Node11 -->
<g id="edge11" class="edge"><title>Node10&#45;&gt;Node11</title>
<path fill="none" stroke="midnightblue" d="M474.264,-112.368C474.748,-94.617 475.865,-53.6664 476.522,-29.5974"/>
<polygon fill="midnightblue" stroke="midnightblue" points="480.021,-29.6832 476.795,-19.5914 473.023,-29.4922 480.021,-29.6832"/>
</g>
<!-- Node12 -->
<g id="node12" class="node"><title>Node12</title>
<polygon fill="none" stroke="#bfbfbf" points="536.529,-0.5 536.529,-19.5 617.529,-19.5 617.529,-0.5 536.529,-0.5"/>
<text text-anchor="middle" x="577.029" y="-7.5" font-family="Helvetica,sans-Serif" font-size="10.00">event2/event.h</text>
</g>
<!-- Node10&#45;&gt;Node12 -->
<g id="edge12" class="edge"><title>Node10&#45;&gt;Node12</title>
<path fill="none" stroke="midnightblue" d="M502.353,-113.173C521.656,-106.404 546.294,-94.6988 561.029,-76 571.472,-62.7474 575.216,-43.6199 576.501,-29.5439"/>
<polygon fill="midnightblue" stroke="midnightblue" points="579.996,-29.7341 577.085,-19.547 573.008,-29.3259 579.996,-29.7341"/>
</g>
<!-- Node13 -->
<g id="node13" class="node"><title>Node13</title>
<polygon fill="none" stroke="#bfbfbf" points="608.529,-56.5 608.529,-75.5 681.529,-75.5 681.529,-56.5 608.529,-56.5"/>
<text text-anchor="middle" x="645.029" y="-63.5" font-family="Helvetica,sans-Serif" font-size="10.00">libconfig.h++</text>
</g>
<!-- Node10&#45;&gt;Node13 -->
<g id="edge13" class="edge"><title>Node10&#45;&gt;Node13</title>
<path fill="none" stroke="midnightblue" d="M501.124,-112.444C530.017,-103.32 575.954,-88.8133 608.134,-78.6509"/>
<polygon fill="midnightblue" stroke="midnightblue" points="609.578,-81.8654 618.06,-75.5164 607.47,-75.1903 609.578,-81.8654"/>
</g>
<!-- Node14 -->
<g id="node14" class="node"><title>Node14</title>
<polygon fill="none" stroke="#bfbfbf" points="416.029,-56.5 416.029,-75.5 446.029,-75.5 446.029,-56.5 416.029,-56.5"/>
<text text-anchor="middle" x="431.029" y="-63.5" font-family="Helvetica,sans-Serif" font-size="10.00">set</text>
</g>
<!-- Node10&#45;&gt;Node14 -->
<g id="edge14" class="edge"><title>Node10&#45;&gt;Node14</title>
<path fill="none" stroke="midnightblue" d="M466.928,-112.083C460.792,-104.377 451.759,-93.0333 444.29,-83.6531"/>
<polygon fill="midnightblue" stroke="midnightblue" points="446.965,-81.3936 437.997,-75.7511 441.489,-85.7542 446.965,-81.3936"/>
</g>
<!-- Node15 -->
<g id="node15" class="node"><title>Node15</title>
<g id="a_node15"><a xlink:href="_event_8h.html" target="_top" xlink:title="Event.h">
<polygon fill="none" stroke="black" points="502.029,-56.5 502.029,-75.5 552.029,-75.5 552.029,-56.5 502.029,-56.5"/>
<text text-anchor="middle" x="527.029" y="-63.5" font-family="Helvetica,sans-Serif" font-size="10.00">Event.h</text>
</a>
</g>
</g>
<!-- Node10&#45;&gt;Node15 -->
<g id="edge16" class="edge"><title>Node10&#45;&gt;Node15</title>
<path fill="none" stroke="midnightblue" d="M482.781,-112.083C490.499,-104.22 501.934,-92.5688 511.245,-83.0813"/>
<polygon fill="midnightblue" stroke="midnightblue" points="513.933,-85.3396 518.44,-75.7511 508.937,-80.4363 513.933,-85.3396"/>
</g>
<!-- Node15&#45;&gt;Node11 -->
<g id="edge17" class="edge"><title>Node15&#45;&gt;Node11</title>
<path fill="none" stroke="midnightblue" d="M518.772,-56.083C511.564,-48.2982 500.919,-36.8015 492.183,-27.3665"/>
<polygon fill="midnightblue" stroke="midnightblue" points="494.494,-24.7108 485.132,-19.7511 489.358,-29.4666 494.494,-24.7108"/>
</g>
<!-- Node15&#45;&gt;Node12 -->
<g id="edge18" class="edge"><title>Node15&#45;&gt;Node12</title>
<path fill="none" stroke="midnightblue" d="M535.285,-56.083C542.494,-48.2982 553.139,-36.8015 561.875,-27.3665"/>
<polygon fill="midnightblue" stroke="midnightblue" points="564.7,-29.4666 568.926,-19.7511 559.564,-24.7108 564.7,-29.4666"/>
</g>
<!-- Node16&#45;&gt;Node3 -->
<g id="edge21" class="edge"><title>Node16&#45;&gt;Node3</title>
<path fill="none" stroke="midnightblue" d="M262.786,-112.444C284.345,-103.557 318.292,-89.5632 342.823,-79.4514"/>
<polygon fill="midnightblue" stroke="midnightblue" points="344.457,-82.5634 352.369,-75.5164 341.789,-76.0917 344.457,-82.5634"/>
</g>
<!-- Node16&#45;&gt;Node8 -->
<g id="edge20" class="edge"><title>Node16&#45;&gt;Node8</title>
<path fill="none" stroke="midnightblue" d="M216.279,-112.916C187.318,-103.823 140.038,-88.9795 107.103,-78.6395"/>
<polygon fill="midnightblue" stroke="midnightblue" points="107.968,-75.2427 97.3785,-75.5865 105.871,-81.9213 107.968,-75.2427"/>
</g>
<!-- Node17 -->
<g id="node17" class="node"><title>Node17</title>
<g id="a_node17"><a xlink:href="_should_delete_8h.html" target="_top" xlink:title="ShouldDelete.h">
<polygon fill="none" stroke="black" points="200.529,-56.5 200.529,-75.5 283.529,-75.5 283.529,-56.5 200.529,-56.5"/>
<text text-anchor="middle" x="242.029" y="-63.5" font-family="Helvetica,sans-Serif" font-size="10.00">ShouldDelete.h</text>
</a>
</g>
</g>
<!-- Node16&#45;&gt;Node17 -->
<g id="edge22" class="edge"><title>Node16&#45;&gt;Node17</title>
<path fill="none" stroke="midnightblue" d="M242.029,-112.083C242.029,-105.006 242.029,-94.8611 242.029,-85.9865"/>
<polygon fill="midnightblue" stroke="midnightblue" points="245.529,-85.751 242.029,-75.7511 238.529,-85.7511 245.529,-85.751"/>
</g>
</g>
</svg>
