<?xml version="1.0" encoding="UTF-8" standalone="no"?>
<!DOCTYPE svg PUBLIC "-//W3C//DTD SVG 1.1//EN"
 "http://www.w3.org/Graphics/SVG/1.1/DTD/svg11.dtd">
<!-- Generated by graphviz version 2.34.0 (20140110.0949)
 -->
<!-- Title: include/StatsdClient.h Pages: 1 -->
<svg width="582pt" height="252pt"
 viewBox="0.00 0.00 582.00 252.00" xmlns="http://www.w3.org/2000/svg" xmlns:xlink="http://www.w3.org/1999/xlink">
<g id="graph0" class="graph" transform="scale(1 1) rotate(0) translate(4 248)">
<title>include/StatsdClient.h</title>
<!-- Node1 -->
<g id="node1" class="node"><title>Node1</title>
<polygon fill="#bfbfbf" stroke="black" points="203.5,-224.5 203.5,-243.5 316.5,-243.5 316.5,-224.5 203.5,-224.5"/>
<text text-anchor="middle" x="260" y="-231.5" font-family="Helvetica,sans-Serif" font-size="10.00">include/StatsdClient.h</text>
</g>
<!-- Node2 -->
<g id="node2" class="node"><title>Node2</title>
<polygon fill="none" stroke="#bfbfbf" points="152,-168.5 152,-187.5 214,-187.5 214,-168.5 152,-168.5"/>
<text text-anchor="middle" x="183" y="-175.5" font-family="Helvetica,sans-Serif" font-size="10.00">arpa/inet.h</text>
</g>
<!-- Node1&#45;&gt;Node2 -->
<g id="edge1" class="edge"><title>Node1&#45;&gt;Node2</title>
<path fill="none" stroke="midnightblue" d="M247.629,-224.324C235.842,-216.058 217.868,-203.453 203.864,-193.632"/>
<polygon fill="midnightblue" stroke="midnightblue" points="205.538,-190.531 195.341,-187.655 201.518,-196.262 205.538,-190.531"/>
</g>
<!-- Node3 -->
<g id="node3" class="node"><title>Node3</title>
<g id="a_node3"><a xlink:href="_string_8h.html" target="_top" xlink:title="String.h">
<polygon fill="none" stroke="black" points="315,-56.5 315,-75.5 365,-75.5 365,-56.5 315,-56.5"/>
<text text-anchor="middle" x="340" y="-63.5" font-family="Helvetica,sans-Serif" font-size="10.00">String.h</text>
</a>
</g>
</g>
<!-- Node1&#45;&gt;Node3 -->
<g id="edge2" class="edge"><title>Node1&#45;&gt;Node3</title>
<path fill="none" stroke="midnightblue" d="M270.592,-224.37C289.184,-208.446 327.041,-172.361 341,-132 346.136,-117.151 345.39,-99.2289 343.641,-85.9679"/>
<polygon fill="midnightblue" stroke="midnightblue" points="347.032,-85.0149 341.968,-75.7085 340.123,-86.1415 347.032,-85.0149"/>
</g>
<!-- Node5 -->
<g id="node5" class="node"><title>Node5</title>
<g id="a_node5"><a xlink:href="_socket_8h.html" target="_top" xlink:title="Socket.h">
<polygon fill="none" stroke="black" points="232,-168.5 232,-187.5 288,-187.5 288,-168.5 232,-168.5"/>
<text text-anchor="middle" x="260" y="-175.5" font-family="Helvetica,sans-Serif" font-size="10.00">Socket.h</text>
</a>
</g>
</g>
<!-- Node1&#45;&gt;Node5 -->
<g id="edge4" class="edge"><title>Node1&#45;&gt;Node5</title>
<path fill="none" stroke="midnightblue" d="M260,-224.083C260,-217.006 260,-206.861 260,-197.986"/>
<polygon fill="midnightblue" stroke="midnightblue" points="263.5,-197.751 260,-187.751 256.5,-197.751 263.5,-197.751"/>
</g>
<!-- Node4 -->
<g id="node4" class="node"><title>Node4</title>
<polygon fill="none" stroke="#bfbfbf" points="319.5,-0.5 319.5,-19.5 360.5,-19.5 360.5,-0.5 319.5,-0.5"/>
<text text-anchor="middle" x="340" y="-7.5" font-family="Helvetica,sans-Serif" font-size="10.00">string</text>
</g>
<!-- Node3&#45;&gt;Node4 -->
<g id="edge3" class="edge"><title>Node3&#45;&gt;Node4</title>
<path fill="none" stroke="midnightblue" d="M340,-56.083C340,-49.0059 340,-38.8611 340,-29.9865"/>
<polygon fill="midnightblue" stroke="midnightblue" points="343.5,-29.751 340,-19.7511 336.5,-29.7511 343.5,-29.751"/>
</g>
<!-- Node5&#45;&gt;Node3 -->
<g id="edge8" class="edge"><title>Node5&#45;&gt;Node3</title>
<path fill="none" stroke="midnightblue" d="M277.802,-168.366C291.81,-160.686 310.779,-148.173 322,-132 331.491,-118.321 335.992,-99.7849 338.118,-86.0075"/>
<polygon fill="midnightblue" stroke="midnightblue" points="341.631,-86.1225 339.403,-75.7646 334.685,-85.2512 341.631,-86.1225"/>
</g>
<!-- Node6 -->
<g id="node6" class="node"><title>Node6</title>
<polygon fill="none" stroke="#bfbfbf" points="207,-112.5 207,-131.5 313,-131.5 313,-112.5 207,-112.5"/>
<text text-anchor="middle" x="260" y="-119.5" font-family="Helvetica,sans-Serif" font-size="10.00">event2/bufferevent.h</text>
</g>
<!-- Node5&#45;&gt;Node6 -->
<g id="edge5" class="edge"><title>Node5&#45;&gt;Node6</title>
<path fill="none" stroke="midnightblue" d="M260,-168.083C260,-161.006 260,-150.861 260,-141.986"/>
<polygon fill="midnightblue" stroke="midnightblue" points="263.5,-141.751 260,-131.751 256.5,-141.751 263.5,-141.751"/>
</g>
<!-- Node7 -->
<g id="node7" class="node"><title>Node7</title>
<g id="a_node7"><a xlink:href="defines_8h.html" target="_top" xlink:title="defines.h">
<polygon fill="none" stroke="black" points="0,-56.5 0,-75.5 56,-75.5 56,-56.5 0,-56.5"/>
<text text-anchor="middle" x="28" y="-63.5" font-family="Helvetica,sans-Serif" font-size="10.00">defines.h</text>
</a>
</g>
</g>
<!-- Node5&#45;&gt;Node7 -->
<g id="edge6" class="edge"><title>Node5&#45;&gt;Node7</title>
<path fill="none" stroke="midnightblue" d="M231.743,-170.013C228.794,-169.318 225.839,-168.635 223,-168 145.086,-150.562 105.74,-186.077 47,-132 34.1796,-120.197 29.8356,-100.273 28.4502,-85.5872"/>
<polygon fill="midnightblue" stroke="midnightblue" points="31.9443,-85.3825 27.8762,-75.5998 24.9559,-85.7842 31.9443,-85.3825"/>
</g>
<!-- Node8 -->
<g id="node8" class="node"><title>Node8</title>
<g id="a_node8"><a xlink:href="_closable_8h.html" target="_top" xlink:title="Closable.h">
<polygon fill="none" stroke="black" points="125.5,-112.5 125.5,-131.5 188.5,-131.5 188.5,-112.5 125.5,-112.5"/>
<text text-anchor="middle" x="157" y="-119.5" font-family="Helvetica,sans-Serif" font-size="10.00">Closable.h</text>
</a>
</g>
</g>
<!-- Node5&#45;&gt;Node8 -->
<g id="edge7" class="edge"><title>Node5&#45;&gt;Node8</title>
<path fill="none" stroke="midnightblue" d="M243.451,-168.324C227.008,-159.703 201.565,-146.364 182.532,-136.386"/>
<polygon fill="midnightblue" stroke="midnightblue" points="183.989,-133.198 173.508,-131.655 180.739,-139.398 183.989,-133.198"/>
</g>
<!-- Node9 -->
<g id="node9" class="node"><title>Node9</title>
<g id="a_node9"><a xlink:href="_module_8h.html" target="_top" xlink:title="Module.h">
<polygon fill="none" stroke="black" points="407,-112.5 407,-131.5 463,-131.5 463,-112.5 407,-112.5"/>
<text text-anchor="middle" x="435" y="-119.5" font-family="Helvetica,sans-Serif" font-size="10.00">Module.h</text>
</a>
</g>
</g>
<!-- Node5&#45;&gt;Node9 -->
<g id="edge9" class="edge"><title>Node5&#45;&gt;Node9</title>
<path fill="none" stroke="midnightblue" d="M287.729,-168.444C317.426,-159.28 364.716,-144.688 397.669,-134.519"/>
<polygon fill="midnightblue" stroke="midnightblue" points="398.877,-137.809 407.4,-131.516 396.813,-131.121 398.877,-137.809"/>
</g>
<!-- Node14 -->
<g id="node14" class="node"><title>Node14</title>
<g id="a_node14"><a xlink:href="_writer_8h.html" target="_top" xlink:title="Writer.h">
<polygon fill="none" stroke="black" points="56.5,-112.5 56.5,-131.5 107.5,-131.5 107.5,-112.5 56.5,-112.5"/>
<text text-anchor="middle" x="82" y="-119.5" font-family="Helvetica,sans-Serif" font-size="10.00">Writer.h</text>
</a>
</g>
</g>
<!-- Node5&#45;&gt;Node14 -->
<g id="edge17" class="edge"><title>Node5&#45;&gt;Node14</title>
<path fill="none" stroke="midnightblue" d="M231.795,-168.444C200.879,-159.064 151.215,-143.998 117.629,-133.809"/>
<polygon fill="midnightblue" stroke="midnightblue" points="118.346,-130.369 107.761,-130.815 116.314,-137.067 118.346,-130.369"/>
</g>
<!-- Node9&#45;&gt;Node3 -->
<g id="edge13" class="edge"><title>Node9&#45;&gt;Node3</title>
<path fill="none" stroke="midnightblue" d="M419.737,-112.324C404.779,-103.822 381.745,-90.7288 364.273,-80.7975"/>
<polygon fill="midnightblue" stroke="midnightblue" points="365.649,-77.5534 355.226,-75.6545 362.19,-83.639 365.649,-77.5534"/>
</g>
<!-- Node10 -->
<g id="node10" class="node"><title>Node10</title>
<polygon fill="none" stroke="#bfbfbf" points="501.5,-0.5 501.5,-19.5 574.5,-19.5 574.5,-0.5 501.5,-0.5"/>
<text text-anchor="middle" x="538" y="-7.5" font-family="Helvetica,sans-Serif" font-size="10.00">event2/dns.h</text>
</g>
<!-- Node9&#45;&gt;Node10 -->
<g id="edge10" class="edge"><title>Node9&#45;&gt;Node10</title>
<path fill="none" stroke="midnightblue" d="M463.136,-114.88C484.377,-108.736 512.437,-97.0612 528,-76 537.754,-62.8002 539.707,-43.9294 539.544,-29.9183"/>
<polygon fill="midnightblue" stroke="midnightblue" points="543.02,-29.3399 539.035,-19.5232 536.028,-29.6826 543.02,-29.3399"/>
</g>
<!-- Node11 -->
<g id="node11" class="node"><title>Node11</title>
<polygon fill="none" stroke="#bfbfbf" points="394.5,-0.5 394.5,-19.5 475.5,-19.5 475.5,-0.5 394.5,-0.5"/>
<text text-anchor="middle" x="435" y="-7.5" font-family="Helvetica,sans-Serif" font-size="10.00">event2/event.h</text>
</g>
<!-- Node9&#45;&gt;Node11 -->
<g id="edge11" class="edge"><title>Node9&#45;&gt;Node11</title>
<path fill="none" stroke="midnightblue" d="M428.507,-112.344C420.081,-100.048 407.013,-76.7154 412,-56 414.307,-46.4183 419.017,-36.5813 423.578,-28.5579"/>
<polygon fill="midnightblue" stroke="midnightblue" points="426.692,-30.1727 428.895,-19.8095 420.711,-26.537 426.692,-30.1727"/>
</g>
<!-- Node12 -->
<g id="node12" class="node"><title>Node12</title>
<polygon fill="none" stroke="#bfbfbf" points="421,-56.5 421,-75.5 451,-75.5 451,-56.5 421,-56.5"/>
<text text-anchor="middle" x="436" y="-63.5" font-family="Helvetica,sans-Serif" font-size="10.00">set</text>
</g>
<!-- Node9&#45;&gt;Node12 -->
<g id="edge12" class="edge"><title>Node9&#45;&gt;Node12</title>
<path fill="none" stroke="midnightblue" d="M435.165,-112.083C435.296,-105.006 435.484,-94.8611 435.648,-85.9865"/>
<polygon fill="midnightblue" stroke="midnightblue" points="439.152,-85.8142 435.838,-75.7511 432.153,-85.6845 439.152,-85.8142"/>
</g>
<!-- Node13 -->
<g id="node13" class="node"><title>Node13</title>
<g id="a_node13"><a xlink:href="_event_8h.html" target="_top" xlink:title="Event.h">
<polygon fill="none" stroke="black" points="469,-56.5 469,-75.5 519,-75.5 519,-56.5 469,-56.5"/>
<text text-anchor="middle" x="494" y="-63.5" font-family="Helvetica,sans-Serif" font-size="10.00">Event.h</text>
</a>
</g>
</g>
<!-- Node9&#45;&gt;Node13 -->
<g id="edge14" class="edge"><title>Node9&#45;&gt;Node13</title>
<path fill="none" stroke="midnightblue" d="M444.479,-112.324C453.201,-104.341 466.343,-92.3128 476.898,-82.6529"/>
<polygon fill="midnightblue" stroke="midnightblue" points="479.334,-85.1674 484.348,-75.8339 474.608,-80.0036 479.334,-85.1674"/>
</g>
<!-- Node13&#45;&gt;Node10 -->
<g id="edge15" class="edge"><title>Node13&#45;&gt;Node10</title>
<path fill="none" stroke="midnightblue" d="M501.266,-56.083C507.545,-48.3768 516.788,-37.0333 524.431,-27.6531"/>
<polygon fill="midnightblue" stroke="midnightblue" points="527.266,-29.7143 530.869,-19.7511 521.839,-25.2926 527.266,-29.7143"/>
</g>
<!-- Node13&#45;&gt;Node11 -->
<g id="edge16" class="edge"><title>Node13&#45;&gt;Node11</title>
<path fill="none" stroke="midnightblue" d="M484.521,-56.324C475.799,-48.3414 462.657,-36.3128 452.102,-26.6529"/>
<polygon fill="midnightblue" stroke="midnightblue" points="454.392,-24.0036 444.652,-19.8339 449.666,-29.1674 454.392,-24.0036"/>
</g>
<!-- Node14&#45;&gt;Node3 -->
<g id="edge19" class="edge"><title>Node14&#45;&gt;Node3</title>
<path fill="none" stroke="midnightblue" d="M107.578,-114.052C110.414,-113.334 113.264,-112.636 116,-112 182.348,-96.569 260.483,-81.5906 304.733,-73.4017"/>
<polygon fill="midnightblue" stroke="midnightblue" points="305.497,-76.8198 314.698,-71.5664 304.229,-69.9356 305.497,-76.8198"/>
</g>
<!-- Node14&#45;&gt;Node7 -->
<g id="edge18" class="edge"><title>Node14&#45;&gt;Node7</title>
<path fill="none" stroke="midnightblue" d="M73.083,-112.083C65.2195,-104.22 53.5688,-92.5688 44.0813,-83.0813"/>
<polygon fill="midnightblue" stroke="midnightblue" points="46.2971,-80.3473 36.7511,-75.7511 41.3473,-85.2971 46.2971,-80.3473"/>
</g>
<!-- Node15 -->
<g id="node15" class="node"><title>Node15</title>
<g id="a_node15"><a xlink:href="_should_delete_8h.html" target="_top" xlink:title="ShouldDelete.h">
<polygon fill="none" stroke="black" points="74.5,-56.5 74.5,-75.5 157.5,-75.5 157.5,-56.5 74.5,-56.5"/>
<text text-anchor="middle" x="116" y="-63.5" font-family="Helvetica,sans-Serif" font-size="10.00">ShouldDelete.h</text>
</a>
</g>
</g>
<!-- Node14&#45;&gt;Node15 -->
<g id="edge20" class="edge"><title>Node14&#45;&gt;Node15</title>
<path fill="none" stroke="midnightblue" d="M87.6144,-112.083C92.3674,-104.534 99.3181,-93.4948 105.152,-84.2298"/>
<polygon fill="midnightblue" stroke="midnightblue" points="108.124,-86.0783 110.49,-75.7511 102.2,-82.3486 108.124,-86.0783"/>
</g>
</g>
</svg>
