<?xml version="1.0" encoding="UTF-8" standalone="no"?>
<!DOCTYPE svg PUBLIC "-//W3C//DTD SVG 1.1//EN"
 "http://www.w3.org/Graphics/SVG/1.1/DTD/svg11.dtd">
<!-- Generated by graphviz version 2.34.0 (20140110.0949)
 -->
<!-- Title: include/String.h Pages: 1 -->
<svg width="1677pt" height="252pt"
 viewBox="0.00 0.00 1677.00 252.00" xmlns="http://www.w3.org/2000/svg" xmlns:xlink="http://www.w3.org/1999/xlink">
<g id="graph0" class="graph" transform="scale(1 1) rotate(0) translate(4 248)">
<title>include/String.h</title>
<!-- Node1 -->
<g id="node1" class="node"><title>Node1</title>
<polygon fill="#bfbfbf" stroke="black" points="865,-224.5 865,-243.5 949,-243.5 949,-224.5 865,-224.5"/>
<text text-anchor="middle" x="907" y="-231.5" font-family="Helvetica,sans-Serif" font-size="10.00">include/String.h</text>
</g>
<!-- Node2 -->
<g id="node2" class="node"><title>Node2</title>
<g id="a_node2"><a xlink:href="_module_8h.html" target="_top" xlink:title="include/Module.h">
<polygon fill="none" stroke="black" points="611,-168.5 611,-187.5 701,-187.5 701,-168.5 611,-168.5"/>
<text text-anchor="middle" x="656" y="-175.5" font-family="Helvetica,sans-Serif" font-size="10.00">include/Module.h</text>
</a>
</g>
</g>
<!-- Node1&#45;&gt;Node2 -->
<g id="edge1" class="edge"><title>Node1&#45;&gt;Node2</title>
<path fill="none" stroke="midnightblue" d="M857.179,-222.281C809.747,-212.077 739.296,-196.92 695.586,-187.516"/>
<polygon fill="midnightblue" stroke="midnightblue" points="856.716,-225.762 867.228,-224.444 858.188,-218.918 856.716,-225.762"/>
</g>
<!-- Node6 -->
<g id="node6" class="node"><title>Node6</title>
<g id="a_node6"><a xlink:href="_database_8h.html" target="_top" xlink:title="include/Database.h">
<polygon fill="none" stroke="black" points="-0.5,-112.5 -0.5,-131.5 100.5,-131.5 100.5,-112.5 -0.5,-112.5"/>
<text text-anchor="middle" x="50" y="-119.5" font-family="Helvetica,sans-Serif" font-size="10.00">include/Database.h</text>
</a>
</g>
</g>
<!-- Node1&#45;&gt;Node6 -->
<g id="edge29" class="edge"><title>Node1&#45;&gt;Node6</title>
<path fill="none" stroke="midnightblue" d="M854.452,-232.178C688.424,-229.282 182.107,-218.055 115,-188 87.6179,-175.736 65.3983,-146.43 55.5262,-131.726"/>
<polygon fill="midnightblue" stroke="midnightblue" points="854.829,-235.685 864.887,-232.357 854.949,-228.686 854.829,-235.685"/>
</g>
<!-- Node7 -->
<g id="node7" class="node"><title>Node7</title>
<g id="a_node7"><a xlink:href="_socket_8h.html" target="_top" xlink:title="include/Socket.h">
<polygon fill="none" stroke="black" points="862.5,-112.5 862.5,-131.5 951.5,-131.5 951.5,-112.5 862.5,-112.5"/>
<text text-anchor="middle" x="907" y="-119.5" font-family="Helvetica,sans-Serif" font-size="10.00">include/Socket.h</text>
</a>
</g>
</g>
<!-- Node1&#45;&gt;Node7 -->
<g id="edge31" class="edge"><title>Node1&#45;&gt;Node7</title>
<path fill="none" stroke="midnightblue" d="M907,-214.348C907,-190.254 907,-149.308 907,-131.591"/>
<polygon fill="midnightblue" stroke="midnightblue" points="903.5,-214.368 907,-224.368 910.5,-214.369 903.5,-214.368"/>
</g>
<!-- Node8 -->
<g id="node8" class="node"><title>Node8</title>
<g id="a_node8"><a xlink:href="_d_n_s_8h.html" target="_top" xlink:title="include/DNS.h">
<polygon fill="none" stroke="black" points="762,-56.5 762,-75.5 842,-75.5 842,-56.5 762,-56.5"/>
<text text-anchor="middle" x="802" y="-63.5" font-family="Helvetica,sans-Serif" font-size="10.00">include/DNS.h</text>
</a>
</g>
</g>
<!-- Node1&#45;&gt;Node8 -->
<g id="edge32" class="edge"><title>Node1&#45;&gt;Node8</title>
<path fill="none" stroke="midnightblue" d="M854.87,-229.778C696.243,-219.428 227.658,-184.598 186,-132 180.481,-125.032 179.948,-118.51 186,-112 223.396,-71.7738 624.223,-80.004 679,-76 706.654,-73.9786 737.805,-71.6992 761.838,-69.9402"/>
<polygon fill="midnightblue" stroke="midnightblue" points="854.657,-233.272 864.862,-230.425 855.109,-226.286 854.657,-233.272"/>
</g>
<!-- Node10 -->
<g id="node10" class="node"><title>Node10</title>
<g id="a_node10"><a xlink:href="_simple_h_t_t_p_socket_8h.html" target="_top" xlink:title="include/SimpleHTTPSocket.h">
<polygon fill="none" stroke="black" points="1176,-56.5 1176,-75.5 1322,-75.5 1322,-56.5 1176,-56.5"/>
<text text-anchor="middle" x="1249" y="-63.5" font-family="Helvetica,sans-Serif" font-size="10.00">include/SimpleHTTPSocket.h</text>
</a>
</g>
</g>
<!-- Node1&#45;&gt;Node10 -->
<g id="edge40" class="edge"><title>Node1&#45;&gt;Node10</title>
<path fill="none" stroke="midnightblue" d="M959.497,-231.545C1080.62,-227.727 1371.91,-215.738 1406,-188 1432.85,-166.155 1444.19,-139.368 1423,-112 1409.53,-94.6067 1358.12,-82.722 1314.64,-75.5543"/>
<polygon fill="midnightblue" stroke="midnightblue" points="959.237,-228.051 949.35,-231.858 959.453,-235.048 959.237,-228.051"/>
</g>
<!-- Node11 -->
<g id="node11" class="node"><title>Node11</title>
<g id="a_node11"><a xlink:href="_statsd_client_8h.html" target="_top" xlink:title="include/StatsdClient.h">
<polygon fill="none" stroke="black" points="1530.5,-56.5 1530.5,-75.5 1643.5,-75.5 1643.5,-56.5 1530.5,-56.5"/>
<text text-anchor="middle" x="1587" y="-63.5" font-family="Helvetica,sans-Serif" font-size="10.00">include/StatsdClient.h</text>
</a>
</g>
</g>
<!-- Node1&#45;&gt;Node11 -->
<g id="edge41" class="edge"><title>Node1&#45;&gt;Node11</title>
<path fill="none" stroke="midnightblue" d="M959.657,-232.184C1074.59,-229.805 1344.39,-220.795 1429,-188 1495.69,-162.153 1557.83,-98.9926 1579.18,-75.7611"/>
<polygon fill="midnightblue" stroke="midnightblue" points="959.285,-228.691 949.356,-232.388 959.424,-235.689 959.285,-228.691"/>
</g>
<!-- Node12 -->
<g id="node12" class="node"><title>Node12</title>
<g id="a_node12"><a xlink:href="_global_8h.html" target="_top" xlink:title="include/Global.h">
<polygon fill="none" stroke="black" points="195,-112.5 195,-131.5 281,-131.5 281,-112.5 195,-112.5"/>
<text text-anchor="middle" x="238" y="-119.5" font-family="Helvetica,sans-Serif" font-size="10.00">include/Global.h</text>
</a>
</g>
</g>
<!-- Node1&#45;&gt;Node12 -->
<g id="edge34" class="edge"><title>Node1&#45;&gt;Node12</title>
<path fill="none" stroke="midnightblue" d="M854.746,-228.741C780.3,-222.258 639.583,-208.467 521,-188 429.098,-172.138 322.231,-145.257 270.023,-131.566"/>
<polygon fill="midnightblue" stroke="midnightblue" points="854.538,-232.236 864.801,-229.607 855.139,-225.262 854.538,-232.236"/>
</g>
<!-- Node16 -->
<g id="node16" class="node"><title>Node16</title>
<g id="a_node16"><a xlink:href="_sub_module_loader_8h.html" target="_top" xlink:title="include/SubModuleLoader.h">
<polygon fill="none" stroke="black" points="299.5,-112.5 299.5,-131.5 436.5,-131.5 436.5,-112.5 299.5,-112.5"/>
<text text-anchor="middle" x="368" y="-119.5" font-family="Helvetica,sans-Serif" font-size="10.00">include/SubModuleLoader.h</text>
</a>
</g>
</g>
<!-- Node1&#45;&gt;Node16 -->
<g id="edge42" class="edge"><title>Node1&#45;&gt;Node16</title>
<path fill="none" stroke="midnightblue" d="M854.616,-227.282C793.576,-220.156 689.861,-206.609 602,-188 525.897,-171.881 437.947,-145.234 394.755,-131.607"/>
<polygon fill="midnightblue" stroke="midnightblue" points="854.435,-230.784 864.77,-228.454 855.238,-223.83 854.435,-230.784"/>
</g>
<!-- Node18 -->
<g id="node18" class="node"><title>Node18</title>
<g id="a_node18"><a xlink:href="_compressor_8h.html" target="_top" xlink:title="include/Compressor.h">
<polygon fill="none" stroke="black" points="1146,-112.5 1146,-131.5 1258,-131.5 1258,-112.5 1146,-112.5"/>
<text text-anchor="middle" x="1202" y="-119.5" font-family="Helvetica,sans-Serif" font-size="10.00">include/Compressor.h</text>
</a>
</g>
</g>
<!-- Node1&#45;&gt;Node18 -->
<g id="edge19" class="edge"><title>Node1&#45;&gt;Node18</title>
<path fill="none" stroke="midnightblue" d="M940.246,-220.945C965.016,-211.937 999.655,-199.284 1030,-188 1083.71,-168.028 1146.66,-144.107 1179.49,-131.594"/>
<polygon fill="midnightblue" stroke="midnightblue" points="938.811,-217.742 930.607,-224.447 941.201,-224.321 938.811,-217.742"/>
</g>
<!-- Node19 -->
<g id="node19" class="node"><title>Node19</title>
<g id="a_node19"><a xlink:href="_writer_8h.html" target="_top" xlink:title="include/Writer.h">
<polygon fill="none" stroke="black" points="936.5,-168.5 936.5,-187.5 1021.5,-187.5 1021.5,-168.5 936.5,-168.5"/>
<text text-anchor="middle" x="979" y="-175.5" font-family="Helvetica,sans-Serif" font-size="10.00">include/Writer.h</text>
</a>
</g>
</g>
<!-- Node1&#45;&gt;Node19 -->
<g id="edge20" class="edge"><title>Node1&#45;&gt;Node19</title>
<path fill="none" stroke="midnightblue" d="M926.866,-218.101C939.823,-208.382 956.297,-196.027 967.221,-187.834"/>
<polygon fill="midnightblue" stroke="midnightblue" points="924.468,-215.524 918.568,-224.324 928.668,-221.124 924.468,-215.524"/>
</g>
<!-- Node20 -->
<g id="node20" class="node"><title>Node20</title>
<g id="a_node20"><a xlink:href="_decompressor_8h.html" target="_top" xlink:title="include/Decompressor.h">
<polygon fill="none" stroke="black" points="1276,-112.5 1276,-131.5 1398,-131.5 1398,-112.5 1276,-112.5"/>
<text text-anchor="middle" x="1337" y="-119.5" font-family="Helvetica,sans-Serif" font-size="10.00">include/Decompressor.h</text>
</a>
</g>
</g>
<!-- Node1&#45;&gt;Node20 -->
<g id="edge30" class="edge"><title>Node1&#45;&gt;Node20</title>
<path fill="none" stroke="midnightblue" d="M950.33,-221.916C1036.26,-199.934 1226.58,-151.247 1303.64,-131.535"/>
<polygon fill="midnightblue" stroke="midnightblue" points="949.204,-218.591 940.384,-224.46 950.939,-225.372 949.204,-218.591"/>
</g>
<!-- Node21 -->
<g id="node21" class="node"><title>Node21</title>
<g id="a_node21"><a xlink:href="_files_8h.html" target="_top" xlink:title="include/Files.h">
<polygon fill="none" stroke="black" points="764,-112.5 764,-131.5 844,-131.5 844,-112.5 764,-112.5"/>
<text text-anchor="middle" x="804" y="-119.5" font-family="Helvetica,sans-Serif" font-size="10.00">include/Files.h</text>
</a>
</g>
</g>
<!-- Node1&#45;&gt;Node21 -->
<g id="edge33" class="edge"><title>Node1&#45;&gt;Node21</title>
<path fill="none" stroke="midnightblue" d="M891.921,-216.897C869.778,-193.249 829.234,-149.949 812.045,-131.591"/>
<polygon fill="midnightblue" stroke="midnightblue" points="889.528,-219.461 898.918,-224.368 894.638,-214.677 889.528,-219.461"/>
</g>
<!-- Node22 -->
<g id="node22" class="node"><title>Node22</title>
<g id="a_node22"><a xlink:href="_logger_8h.html" target="_top" xlink:title="include/Logger.h">
<polygon fill="none" stroke="black" points="582,-56.5 582,-75.5 670,-75.5 670,-56.5 582,-56.5"/>
<text text-anchor="middle" x="626" y="-63.5" font-family="Helvetica,sans-Serif" font-size="10.00">include/Logger.h</text>
</a>
</g>
</g>
<!-- Node1&#45;&gt;Node22 -->
<g id="edge39" class="edge"><title>Node1&#45;&gt;Node22</title>
<path fill="none" stroke="midnightblue" d="M854.741,-231.858C725.581,-228.609 394.111,-217.565 288,-188 235.153,-173.276 206.672,-178.771 178,-132 173.354,-124.422 172.037,-118.592 178,-112 191.454,-97.127 471.316,-77.1764 581.748,-69.8508"/>
<polygon fill="midnightblue" stroke="midnightblue" points="854.698,-235.358 864.781,-232.105 854.87,-228.36 854.698,-235.358"/>
</g>
<!-- Node23 -->
<g id="node23" class="node"><title>Node23</title>
<g id="a_node23"><a xlink:href="_thread_8h.html" target="_top" xlink:title="include/Thread.h">
<polygon fill="none" stroke="black" points="1308.5,-168.5 1308.5,-187.5 1397.5,-187.5 1397.5,-168.5 1308.5,-168.5"/>
<text text-anchor="middle" x="1353" y="-175.5" font-family="Helvetica,sans-Serif" font-size="10.00">include/Thread.h</text>
</a>
</g>
</g>
<!-- Node1&#45;&gt;Node23 -->
<g id="edge35" class="edge"><title>Node1&#45;&gt;Node23</title>
<path fill="none" stroke="midnightblue" d="M959.441,-226.651C1047.92,-215.938 1225.31,-194.46 1308.29,-184.414"/>
<polygon fill="midnightblue" stroke="midnightblue" points="958.867,-223.194 949.361,-227.871 959.709,-230.144 958.867,-223.194"/>
</g>
<!-- Node24 -->
<g id="node24" class="node"><title>Node24</title>
<g id="a_node24"><a xlink:href="_term_utils_8h.html" target="_top" xlink:title="include/TermUtils.h">
<polygon fill="none" stroke="black" points="1568.5,-168.5 1568.5,-187.5 1669.5,-187.5 1669.5,-168.5 1568.5,-168.5"/>
<text text-anchor="middle" x="1619" y="-175.5" font-family="Helvetica,sans-Serif" font-size="10.00">include/TermUtils.h</text>
</a>
</g>
</g>
<!-- Node1&#45;&gt;Node24 -->
<g id="edge43" class="edge"><title>Node1&#45;&gt;Node24</title>
<path fill="none" stroke="midnightblue" d="M959.271,-230.575C1069.44,-225.198 1333.48,-210.908 1554,-188 1558.65,-187.517 1563.47,-186.958 1568.3,-186.36"/>
<polygon fill="midnightblue" stroke="midnightblue" points="958.916,-227.088 949.097,-231.068 959.254,-234.08 958.916,-227.088"/>
</g>
<!-- Node3 -->
<g id="node3" class="node"><title>Node3</title>
<g id="a_node3"><a xlink:href="_timer_8h.html" target="_top" xlink:title="include/Timer.h">
<polygon fill="none" stroke="black" points="454.5,-112.5 454.5,-131.5 537.5,-131.5 537.5,-112.5 454.5,-112.5"/>
<text text-anchor="middle" x="496" y="-119.5" font-family="Helvetica,sans-Serif" font-size="10.00">include/Timer.h</text>
</a>
</g>
</g>
<!-- Node2&#45;&gt;Node3 -->
<g id="edge2" class="edge"><title>Node2&#45;&gt;Node3</title>
<path fill="none" stroke="midnightblue" d="M620.954,-165.172C590.826,-155.004 548.104,-140.585 521.234,-131.516"/>
<polygon fill="midnightblue" stroke="midnightblue" points="620.053,-168.562 630.648,-168.444 622.292,-161.929 620.053,-168.562"/>
</g>
<!-- Node2&#45;&gt;Node6 -->
<g id="edge5" class="edge"><title>Node2&#45;&gt;Node6</title>
<path fill="none" stroke="midnightblue" d="M600.806,-172.082C484.074,-161.68 213.65,-137.583 100.848,-127.531"/>
<polygon fill="midnightblue" stroke="midnightblue" points="600.675,-175.584 610.947,-172.985 601.297,-168.611 600.675,-175.584"/>
</g>
<!-- Node2&#45;&gt;Node7 -->
<g id="edge7" class="edge"><title>Node2&#45;&gt;Node7</title>
<path fill="none" stroke="midnightblue" d="M705.821,-166.281C753.253,-156.077 823.704,-140.92 867.414,-131.516"/>
<polygon fill="midnightblue" stroke="midnightblue" points="704.812,-162.918 695.772,-168.444 706.284,-169.762 704.812,-162.918"/>
</g>
<!-- Node2&#45;&gt;Node12 -->
<g id="edge12" class="edge"><title>Node2&#45;&gt;Node12</title>
<path fill="none" stroke="midnightblue" d="M600.662,-171.052C528.887,-163.14 399.86,-148.251 290,-132 287.1,-131.571 284.112,-131.109 281.104,-130.628"/>
<polygon fill="midnightblue" stroke="midnightblue" points="600.505,-174.555 610.827,-172.168 601.269,-167.597 600.505,-174.555"/>
</g>
<!-- Node13 -->
<g id="node13" class="node"><title>Node13</title>
<g id="a_node13"><a xlink:href="_job_thread_8h.html" target="_top" xlink:title="include/JobThread.h">
<polygon fill="none" stroke="black" points="915,-0.5 915,-19.5 1019,-19.5 1019,-0.5 915,-0.5"/>
<text text-anchor="middle" x="967" y="-7.5" font-family="Helvetica,sans-Serif" font-size="10.00">include/JobThread.h</text>
</a>
</g>
</g>
<!-- Node2&#45;&gt;Node13 -->
<g id="edge13" class="edge"><title>Node2&#45;&gt;Node13</title>
<path fill="none" stroke="midnightblue" d="M665.005,-159.24C679.61,-132.36 711.103,-81.7541 753,-56 802.485,-25.5816 869.26,-15.449 914.981,-12.2196"/>
<polygon fill="midnightblue" stroke="midnightblue" points="661.808,-157.8 660.248,-168.28 668.003,-161.06 661.808,-157.8"/>
</g>
<!-- Node14 -->
<g id="node14" class="node"><title>Node14</title>
<g id="a_node14"><a xlink:href="_pipe_8h.html" target="_top" xlink:title="include/Pipe.h">
<polygon fill="none" stroke="black" points="928,-56.5 928,-75.5 1006,-75.5 1006,-56.5 928,-56.5"/>
<text text-anchor="middle" x="967" y="-63.5" font-family="Helvetica,sans-Serif" font-size="10.00">include/Pipe.h</text>
</a>
</g>
</g>
<!-- Node2&#45;&gt;Node14 -->
<g id="edge14" class="edge"><title>Node2&#45;&gt;Node14</title>
<path fill="none" stroke="midnightblue" d="M674.054,-162.136C693.052,-147.248 724.39,-124.764 755,-112 812.474,-88.0339 884.239,-76.2479 927.797,-70.9098"/>
<polygon fill="midnightblue" stroke="midnightblue" points="671.868,-159.402 666.241,-168.379 676.238,-164.871 671.868,-159.402"/>
</g>
<!-- Node15 -->
<g id="node15" class="node"><title>Node15</title>
<g id="a_node15"><a xlink:href="_module_thread_8h.html" target="_top" xlink:title="include/ModuleThread.h">
<polygon fill="none" stroke="black" points="1008,-112.5 1008,-131.5 1128,-131.5 1128,-112.5 1008,-112.5"/>
<text text-anchor="middle" x="1068" y="-119.5" font-family="Helvetica,sans-Serif" font-size="10.00">include/ModuleThread.h</text>
</a>
</g>
</g>
<!-- Node2&#45;&gt;Node15 -->
<g id="edge16" class="edge"><title>Node2&#45;&gt;Node15</title>
<path fill="none" stroke="midnightblue" d="M711.275,-169.755C788.436,-159.642 927.915,-141.361 1007.69,-130.905"/>
<polygon fill="midnightblue" stroke="midnightblue" points="710.73,-166.297 701.27,-171.067 711.64,-173.237 710.73,-166.297"/>
</g>
<!-- Node2&#45;&gt;Node16 -->
<g id="edge17" class="edge"><title>Node2&#45;&gt;Node16</title>
<path fill="none" stroke="midnightblue" d="M600.526,-166.599C546.135,-156.4 464.212,-141.04 413.528,-131.536"/>
<polygon fill="midnightblue" stroke="midnightblue" points="600.209,-170.1 610.683,-168.503 601.499,-163.22 600.209,-170.1"/>
</g>
<!-- Node17 -->
<g id="node17" class="node"><title>Node17</title>
<g id="a_node17"><a xlink:href="_trigger_event_8h.html" target="_top" xlink:title="include/TriggerEvent.h">
<polygon fill="none" stroke="black" points="556,-112.5 556,-131.5 670,-131.5 670,-112.5 556,-112.5"/>
<text text-anchor="middle" x="613" y="-119.5" font-family="Helvetica,sans-Serif" font-size="10.00">include/TriggerEvent.h</text>
</a>
</g>
</g>
<!-- Node2&#45;&gt;Node17 -->
<g id="edge18" class="edge"><title>Node2&#45;&gt;Node17</title>
<path fill="none" stroke="midnightblue" d="M642.578,-160.144C635.086,-150.736 626.063,-139.405 619.968,-131.751"/>
<polygon fill="midnightblue" stroke="midnightblue" points="639.932,-162.44 648.899,-168.083 645.408,-158.08 639.932,-162.44"/>
</g>
<!-- Node4 -->
<g id="node4" class="node"><title>Node4</title>
<g id="a_node4"><a xlink:href="_backoff_timer_8h.html" target="_top" xlink:title="include/BackoffTimer.h">
<polygon fill="none" stroke="black" points="347.5,-56.5 347.5,-75.5 464.5,-75.5 464.5,-56.5 347.5,-56.5"/>
<text text-anchor="middle" x="406" y="-63.5" font-family="Helvetica,sans-Serif" font-size="10.00">include/BackoffTimer.h</text>
</a>
</g>
</g>
<!-- Node3&#45;&gt;Node4 -->
<g id="edge3" class="edge"><title>Node3&#45;&gt;Node4</title>
<path fill="none" stroke="midnightblue" d="M472.962,-107.177C456.401,-97.2407 434.582,-84.1492 420.424,-75.6545"/>
<polygon fill="midnightblue" stroke="midnightblue" points="471.164,-110.18 481.54,-112.324 474.766,-104.178 471.164,-110.18"/>
</g>
<!-- Node5 -->
<g id="node5" class="node"><title>Node5</title>
<g id="a_node5"><a xlink:href="_postgres_8h.html" target="_top" xlink:title="include/Postgres.h">
<polygon fill="none" stroke="black" points="224,-0.5 224,-19.5 322,-19.5 322,-0.5 224,-0.5"/>
<text text-anchor="middle" x="273" y="-7.5" font-family="Helvetica,sans-Serif" font-size="10.00">include/Postgres.h</text>
</a>
</g>
</g>
<!-- Node4&#45;&gt;Node5 -->
<g id="edge4" class="edge"><title>Node4&#45;&gt;Node5</title>
<path fill="none" stroke="midnightblue" d="M375.552,-52.6377C350.593,-42.504 315.923,-28.4274 293.976,-19.5164"/>
<polygon fill="midnightblue" stroke="midnightblue" points="374.344,-55.9245 384.926,-56.4435 376.977,-49.4387 374.344,-55.9245"/>
</g>
<!-- Node6&#45;&gt;Node5 -->
<g id="edge6" class="edge"><title>Node6&#45;&gt;Node5</title>
<path fill="none" stroke="midnightblue" d="M76.6011,-107.878C122.824,-85.0778 216.741,-38.7509 255.583,-19.5914"/>
<polygon fill="midnightblue" stroke="midnightblue" points="74.9184,-104.806 67.4984,-112.368 78.0151,-111.084 74.9184,-104.806"/>
</g>
<!-- Node7&#45;&gt;Node8 -->
<g id="edge8" class="edge"><title>Node7&#45;&gt;Node8</title>
<path fill="none" stroke="midnightblue" d="M881.19,-107.726C861.747,-97.7271 835.652,-84.3065 818.828,-75.6545"/>
<polygon fill="midnightblue" stroke="midnightblue" points="879.636,-110.863 890.13,-112.324 882.838,-104.638 879.636,-110.863"/>
</g>
<!-- Node9 -->
<g id="node9" class="node"><title>Node9</title>
<g id="a_node9"><a xlink:href="_listener_8h.html" target="_top" xlink:title="include/Listener.h">
<polygon fill="none" stroke="black" points="691.5,-0.5 691.5,-19.5 784.5,-19.5 784.5,-0.5 691.5,-0.5"/>
<text text-anchor="middle" x="738" y="-7.5" font-family="Helvetica,sans-Serif" font-size="10.00">include/Listener.h</text>
</a>
</g>
</g>
<!-- Node7&#45;&gt;Node9 -->
<g id="edge9" class="edge"><title>Node7&#45;&gt;Node9</title>
<path fill="none" stroke="midnightblue" d="M895.696,-103.737C885.494,-89.3076 869.307,-69.0505 851,-56 826.67,-38.6556 794.712,-26.7367 770.993,-19.5446"/>
<polygon fill="midnightblue" stroke="midnightblue" points="892.972,-105.954 901.499,-112.243 898.755,-102.009 892.972,-105.954"/>
</g>
<!-- Node7&#45;&gt;Node10 -->
<g id="edge10" class="edge"><title>Node7&#45;&gt;Node10</title>
<path fill="none" stroke="midnightblue" d="M961.622,-112.375C1025.68,-102.262 1131.18,-85.6026 1194.98,-75.5299"/>
<polygon fill="midnightblue" stroke="midnightblue" points="961.042,-108.924 951.711,-113.94 962.134,-115.838 961.042,-108.924"/>
</g>
<!-- Node7&#45;&gt;Node11 -->
<g id="edge11" class="edge"><title>Node7&#45;&gt;Node11</title>
<path fill="none" stroke="midnightblue" d="M961.955,-115.432C974.148,-114.25 987.009,-113.045 999,-112 1193.81,-95.0186 1425.24,-78.3271 1530.21,-70.9457"/>
<polygon fill="midnightblue" stroke="midnightblue" points="961.516,-111.958 951.904,-116.415 962.198,-118.925 961.516,-111.958"/>
</g>
<!-- Node14&#45;&gt;Node13 -->
<g id="edge15" class="edge"><title>Node14&#45;&gt;Node13</title>
<path fill="none" stroke="midnightblue" d="M967,-45.8045C967,-36.9102 967,-26.7798 967,-19.7511"/>
<polygon fill="midnightblue" stroke="midnightblue" points="963.5,-46.083 967,-56.083 970.5,-46.083 963.5,-46.083"/>
</g>
<!-- Node19&#45;&gt;Node7 -->
<g id="edge23" class="edge"><title>Node19&#45;&gt;Node7</title>
<path fill="none" stroke="midnightblue" d="M959.134,-162.101C946.177,-152.382 929.703,-140.027 918.779,-131.834"/>
<polygon fill="midnightblue" stroke="midnightblue" points="957.332,-165.124 967.432,-168.324 961.532,-159.524 957.332,-165.124"/>
</g>
<!-- Node19&#45;&gt;Node14 -->
<g id="edge28" class="edge"><title>Node19&#45;&gt;Node14</title>
<path fill="none" stroke="midnightblue" d="M976.965,-158.348C974.337,-134.254 969.87,-93.3079 967.937,-75.5914"/>
<polygon fill="midnightblue" stroke="midnightblue" points="973.494,-158.807 978.058,-168.368 980.453,-158.048 973.494,-158.807"/>
</g>
<!-- Node19&#45;&gt;Node18 -->
<g id="edge21" class="edge"><title>Node19&#45;&gt;Node18</title>
<path fill="none" stroke="midnightblue" d="M1024.06,-166.088C1066.19,-155.887 1128.24,-140.861 1166.83,-131.516"/>
<polygon fill="midnightblue" stroke="midnightblue" points="1023.23,-162.688 1014.34,-168.444 1024.88,-169.492 1023.23,-162.688"/>
</g>
<!-- Node19&#45;&gt;Node20 -->
<g id="edge22" class="edge"><title>Node19&#45;&gt;Node20</title>
<path fill="none" stroke="midnightblue" d="M1032.1,-168.991C1098.71,-158.943 1212.45,-141.787 1280.59,-131.509"/>
<polygon fill="midnightblue" stroke="midnightblue" points="1031.19,-165.588 1021.83,-170.54 1032.24,-172.509 1031.19,-165.588"/>
</g>
<!-- Node19&#45;&gt;Node21 -->
<g id="edge24" class="edge"><title>Node19&#45;&gt;Node21</title>
<path fill="none" stroke="midnightblue" d="M941.525,-165.436C908.53,-155.255 861.244,-140.664 831.6,-131.516"/>
<polygon fill="midnightblue" stroke="midnightblue" points="940.683,-168.839 951.271,-168.444 942.747,-162.151 940.683,-168.839"/>
</g>
<!-- Node21&#45;&gt;Node14 -->
<g id="edge25" class="edge"><title>Node21&#45;&gt;Node14</title>
<path fill="none" stroke="midnightblue" d="M839.703,-109.172C870.396,-99.0039 913.919,-84.5852 941.293,-75.5164"/>
<polygon fill="midnightblue" stroke="midnightblue" points="838.22,-105.976 829.828,-112.444 840.421,-112.621 838.22,-105.976"/>
</g>
<!-- Node21&#45;&gt;Node22 -->
<g id="edge26" class="edge"><title>Node21&#45;&gt;Node22</title>
<path fill="none" stroke="midnightblue" d="M765.883,-109.436C732.322,-99.2551 684.226,-84.664 654.073,-75.5164"/>
<polygon fill="midnightblue" stroke="midnightblue" points="765.21,-112.89 775.795,-112.444 767.242,-106.191 765.21,-112.89"/>
</g>
<!-- Node22&#45;&gt;Node9 -->
<g id="edge27" class="edge"><title>Node22&#45;&gt;Node9</title>
<path fill="none" stroke="midnightblue" d="M653.249,-51.8622C674.016,-41.8492 702.023,-28.3458 720.05,-19.6545"/>
<polygon fill="midnightblue" stroke="midnightblue" points="651.482,-48.8282 643.995,-56.324 654.523,-55.1336 651.482,-48.8282"/>
</g>
<!-- Node23&#45;&gt;Node13 -->
<g id="edge36" class="edge"><title>Node23&#45;&gt;Node13</title>
<path fill="none" stroke="midnightblue" d="M1384.88,-164.174C1408.72,-152.513 1435.27,-133.825 1423,-112 1399.55,-70.2703 1376.21,-71.7328 1331,-56 1224.56,-18.957 1091.3,-11.6256 1019.19,-10.6284"/>
<polygon fill="midnightblue" stroke="midnightblue" points="1383.24,-161.075 1375.62,-168.437 1386.17,-167.433 1383.24,-161.075"/>
</g>
<!-- Node23&#45;&gt;Node14 -->
<g id="edge37" class="edge"><title>Node23&#45;&gt;Node14</title>
<path fill="none" stroke="midnightblue" d="M1377.71,-163.153C1398.48,-149.801 1422.49,-129.15 1407,-112 1393.62,-97.1821 1111.51,-76.7362 1006.19,-69.59"/>
<polygon fill="midnightblue" stroke="midnightblue" points="1375.84,-160.195 1369.13,-168.397 1379.49,-166.167 1375.84,-160.195"/>
</g>
<!-- Node23&#45;&gt;Node15 -->
<g id="edge38" class="edge"><title>Node23&#45;&gt;Node15</title>
<path fill="none" stroke="midnightblue" d="M1298.43,-166.66C1244.64,-156.469 1163.42,-141.08 1113.16,-131.556"/>
<polygon fill="midnightblue" stroke="midnightblue" points="1297.99,-170.14 1308.47,-168.562 1299.3,-163.262 1297.99,-170.14"/>
</g>
</g>
</svg>
