<?xml version="1.0" encoding="UTF-8" standalone="no"?>
<!DOCTYPE svg PUBLIC "-//W3C//DTD SVG 1.1//EN"
 "http://www.w3.org/Graphics/SVG/1.1/DTD/svg11.dtd">
<!-- Generated by graphviz version 2.34.0 (20140110.0949)
 -->
<!-- Title: include/String.h Pages: 1 -->
<svg width="1564pt" height="252pt"
 viewBox="0.00 0.00 1564.00 252.00" xmlns="http://www.w3.org/2000/svg" xmlns:xlink="http://www.w3.org/1999/xlink">
<g id="graph0" class="graph" transform="scale(1 1) rotate(0) translate(4 248)">
<title>include/String.h</title>
<!-- Node1 -->
<g id="node1" class="node"><title>Node1</title>
<polygon fill="#bfbfbf" stroke="black" points="725,-224.5 725,-243.5 809,-243.5 809,-224.5 725,-224.5"/>
<text text-anchor="middle" x="767" y="-231.5" font-family="Helvetica,sans-Serif" font-size="10.00">include/String.h</text>
</g>
<!-- Node2 -->
<g id="node2" class="node"><title>Node2</title>
<g id="a_node2"><a xlink:href="_module_8h.html" target="_top" xlink:title="include/Module.h">
<polygon fill="none" stroke="black" points="594,-168.5 594,-187.5 684,-187.5 684,-168.5 594,-168.5"/>
<text text-anchor="middle" x="639" y="-175.5" font-family="Helvetica,sans-Serif" font-size="10.00">include/Module.h</text>
</a>
</g>
</g>
<!-- Node1&#45;&gt;Node2 -->
<g id="edge1" class="edge"><title>Node1&#45;&gt;Node2</title>
<path fill="none" stroke="midnightblue" d="M737.377,-220.503C713.381,-210.38 680.216,-196.388 659.187,-187.516"/>
<polygon fill="midnightblue" stroke="midnightblue" points="736.144,-223.781 746.718,-224.444 738.865,-217.332 736.144,-223.781"/>
</g>
<!-- Node6 -->
<g id="node6" class="node"><title>Node6</title>
<g id="a_node6"><a xlink:href="_database_8h.html" target="_top" xlink:title="include/Database.h">
<polygon fill="none" stroke="black" points="224.5,-112.5 224.5,-131.5 325.5,-131.5 325.5,-112.5 224.5,-112.5"/>
<text text-anchor="middle" x="275" y="-119.5" font-family="Helvetica,sans-Serif" font-size="10.00">include/Database.h</text>
</a>
</g>
</g>
<!-- Node1&#45;&gt;Node6 -->
<g id="edge26" class="edge"><title>Node1&#45;&gt;Node6</title>
<path fill="none" stroke="midnightblue" d="M714.568,-231.812C615.532,-228.865 405.058,-219.042 340,-188 312.922,-175.08 290.56,-146.081 280.59,-131.587"/>
<polygon fill="midnightblue" stroke="midnightblue" points="714.556,-235.313 724.652,-232.1 714.756,-228.316 714.556,-235.313"/>
</g>
<!-- Node7 -->
<g id="node7" class="node"><title>Node7</title>
<g id="a_node7"><a xlink:href="_socket_8h.html" target="_top" xlink:title="include/Socket.h">
<polygon fill="none" stroke="black" points="382.5,-112.5 382.5,-131.5 471.5,-131.5 471.5,-112.5 382.5,-112.5"/>
<text text-anchor="middle" x="427" y="-119.5" font-family="Helvetica,sans-Serif" font-size="10.00">include/Socket.h</text>
</a>
</g>
</g>
<!-- Node1&#45;&gt;Node7 -->
<g id="edge28" class="edge"><title>Node1&#45;&gt;Node7</title>
<path fill="none" stroke="midnightblue" d="M714.957,-222.282C678.243,-214.2 628.12,-202.115 585,-188 533.132,-171.022 474.201,-144.871 445.155,-131.504"/>
<polygon fill="midnightblue" stroke="midnightblue" points="714.425,-225.747 724.94,-224.453 715.913,-218.907 714.425,-225.747"/>
</g>
<!-- Node8 -->
<g id="node8" class="node"><title>Node8</title>
<g id="a_node8"><a xlink:href="_d_n_s_8h.html" target="_top" xlink:title="include/DNS.h">
<polygon fill="none" stroke="black" points="0,-56.5 0,-75.5 80,-75.5 80,-56.5 0,-56.5"/>
<text text-anchor="middle" x="40" y="-63.5" font-family="Helvetica,sans-Serif" font-size="10.00">include/DNS.h</text>
</a>
</g>
</g>
<!-- Node1&#45;&gt;Node8 -->
<g id="edge29" class="edge"><title>Node1&#45;&gt;Node8</title>
<path fill="none" stroke="midnightblue" d="M714.632,-231.153C602.278,-226.741 341.447,-213.969 257,-188 171.656,-161.755 82.4493,-98.8406 51.4267,-75.7175"/>
<polygon fill="midnightblue" stroke="midnightblue" points="714.583,-234.654 724.71,-231.542 714.853,-227.659 714.583,-234.654"/>
</g>
<!-- Node10 -->
<g id="node10" class="node"><title>Node10</title>
<g id="a_node10"><a xlink:href="_simple_h_t_t_p_socket_8h.html" target="_top" xlink:title="include/SimpleHTTPSocket.h">
<polygon fill="none" stroke="black" points="98,-56.5 98,-75.5 244,-75.5 244,-56.5 98,-56.5"/>
<text text-anchor="middle" x="171" y="-63.5" font-family="Helvetica,sans-Serif" font-size="10.00">include/SimpleHTTPSocket.h</text>
</a>
</g>
</g>
<!-- Node1&#45;&gt;Node10 -->
<g id="edge36" class="edge"><title>Node1&#45;&gt;Node10</title>
<path fill="none" stroke="midnightblue" d="M714.577,-230.682C611.056,-225.641 384.008,-212.148 310,-188 263.406,-172.797 250.721,-165.558 215,-132 196.924,-115.019 182.311,-89.3296 175.373,-75.897"/>
<polygon fill="midnightblue" stroke="midnightblue" points="714.638,-234.189 724.794,-231.172 714.973,-227.197 714.638,-234.189"/>
</g>
<!-- Node11 -->
<g id="node11" class="node"><title>Node11</title>
<g id="a_node11"><a xlink:href="_statsd_client_8h.html" target="_top" xlink:title="include/StatsdClient.h">
<polygon fill="none" stroke="black" points="300.5,-56.5 300.5,-75.5 413.5,-75.5 413.5,-56.5 300.5,-56.5"/>
<text text-anchor="middle" x="357" y="-63.5" font-family="Helvetica,sans-Serif" font-size="10.00">include/StatsdClient.h</text>
</a>
</g>
</g>
<!-- Node1&#45;&gt;Node11 -->
<g id="edge37" class="edge"><title>Node1&#45;&gt;Node11</title>
<path fill="none" stroke="midnightblue" d="M714.682,-226.754C618.332,-214.145 418.511,-182.473 373,-132 358.68,-116.119 356.679,-89.4879 356.687,-75.764"/>
<polygon fill="midnightblue" stroke="midnightblue" points="714.424,-230.25 724.789,-228.057 715.318,-223.307 714.424,-230.25"/>
</g>
<!-- Node12 -->
<g id="node12" class="node"><title>Node12</title>
<g id="a_node12"><a xlink:href="_global_8h.html" target="_top" xlink:title="include/Global.h">
<polygon fill="none" stroke="black" points="667,-112.5 667,-131.5 753,-131.5 753,-112.5 667,-112.5"/>
<text text-anchor="middle" x="710" y="-119.5" font-family="Helvetica,sans-Serif" font-size="10.00">include/Global.h</text>
</a>
</g>
</g>
<!-- Node1&#45;&gt;Node12 -->
<g id="edge31" class="edge"><title>Node1&#45;&gt;Node12</title>
<path fill="none" stroke="midnightblue" d="M757.839,-215.32C745.428,-191.37 723.757,-149.548 714.452,-131.591"/>
<polygon fill="midnightblue" stroke="midnightblue" points="754.819,-217.1 762.527,-224.368 761.034,-213.879 754.819,-217.1"/>
</g>
<!-- Node16 -->
<g id="node16" class="node"><title>Node16</title>
<g id="a_node16"><a xlink:href="_sub_module_loader_8h.html" target="_top" xlink:title="include/SubModuleLoader.h">
<polygon fill="none" stroke="black" points="771.5,-112.5 771.5,-131.5 908.5,-131.5 908.5,-112.5 771.5,-112.5"/>
<text text-anchor="middle" x="840" y="-119.5" font-family="Helvetica,sans-Serif" font-size="10.00">include/SubModuleLoader.h</text>
</a>
</g>
</g>
<!-- Node1&#45;&gt;Node16 -->
<g id="edge38" class="edge"><title>Node1&#45;&gt;Node16</title>
<path fill="none" stroke="midnightblue" d="M778.31,-215.957C794.131,-192.118 822.275,-149.709 834.298,-131.591"/>
<polygon fill="midnightblue" stroke="midnightblue" points="775.341,-214.101 772.728,-224.368 781.174,-217.972 775.341,-214.101"/>
</g>
<!-- Node17 -->
<g id="node17" class="node"><title>Node17</title>
<g id="a_node17"><a xlink:href="_compressor_8h.html" target="_top" xlink:title="include/Compressor.h">
<polygon fill="none" stroke="black" points="1063,-112.5 1063,-131.5 1175,-131.5 1175,-112.5 1063,-112.5"/>
<text text-anchor="middle" x="1119" y="-119.5" font-family="Helvetica,sans-Serif" font-size="10.00">include/Compressor.h</text>
</a>
</g>
</g>
<!-- Node1&#45;&gt;Node17 -->
<g id="edge18" class="edge"><title>Node1&#45;&gt;Node17</title>
<path fill="none" stroke="midnightblue" d="M819.378,-232.1C875.676,-229.389 966.679,-219.884 1038,-188 1068.62,-174.313 1097.5,-146.202 1111.01,-131.852"/>
<polygon fill="midnightblue" stroke="midnightblue" points="819.124,-228.608 809.283,-232.531 819.423,-235.602 819.124,-228.608"/>
</g>
<!-- Node18 -->
<g id="node18" class="node"><title>Node18</title>
<g id="a_node18"><a xlink:href="_writer_8h.html" target="_top" xlink:title="include/Writer.h">
<polygon fill="none" stroke="black" points="944.5,-168.5 944.5,-187.5 1029.5,-187.5 1029.5,-168.5 944.5,-168.5"/>
<text text-anchor="middle" x="987" y="-175.5" font-family="Helvetica,sans-Serif" font-size="10.00">include/Writer.h</text>
</a>
</g>
</g>
<!-- Node1&#45;&gt;Node18 -->
<g id="edge19" class="edge"><title>Node1&#45;&gt;Node18</title>
<path fill="none" stroke="midnightblue" d="M811.718,-222.024C853.276,-211.823 914.313,-196.841 952.303,-187.516"/>
<polygon fill="midnightblue" stroke="midnightblue" points="810.737,-218.661 801.86,-224.444 812.406,-225.459 810.737,-218.661"/>
</g>
<!-- Node19 -->
<g id="node19" class="node"><title>Node19</title>
<g id="a_node19"><a xlink:href="_decompressor_8h.html" target="_top" xlink:title="include/Decompressor.h">
<polygon fill="none" stroke="black" points="1193,-112.5 1193,-131.5 1315,-131.5 1315,-112.5 1193,-112.5"/>
<text text-anchor="middle" x="1254" y="-119.5" font-family="Helvetica,sans-Serif" font-size="10.00">include/Decompressor.h</text>
</a>
</g>
</g>
<!-- Node1&#45;&gt;Node19 -->
<g id="edge27" class="edge"><title>Node1&#45;&gt;Node19</title>
<path fill="none" stroke="midnightblue" d="M819.437,-228.178C879.956,-221.919 982.174,-209.212 1068,-188 1129.6,-172.775 1199.59,-145.486 1233.47,-131.61"/>
<polygon fill="midnightblue" stroke="midnightblue" points="818.959,-224.708 809.363,-229.2 819.666,-231.672 818.959,-224.708"/>
</g>
<!-- Node20 -->
<g id="node20" class="node"><title>Node20</title>
<g id="a_node20"><a xlink:href="_files_8h.html" target="_top" xlink:title="include/Files.h">
<polygon fill="none" stroke="black" points="927,-112.5 927,-131.5 1007,-131.5 1007,-112.5 927,-112.5"/>
<text text-anchor="middle" x="967" y="-119.5" font-family="Helvetica,sans-Serif" font-size="10.00">include/Files.h</text>
</a>
</g>
</g>
<!-- Node1&#45;&gt;Node20 -->
<g id="edge30" class="edge"><title>Node1&#45;&gt;Node20</title>
<path fill="none" stroke="midnightblue" d="M791.643,-219.446C833.369,-196.497 916.762,-150.631 951.379,-131.591"/>
<polygon fill="midnightblue" stroke="midnightblue" points="789.769,-216.482 782.694,-224.368 793.143,-222.616 789.769,-216.482"/>
</g>
<!-- Node21 -->
<g id="node21" class="node"><title>Node21</title>
<g id="a_node21"><a xlink:href="_thread_8h.html" target="_top" xlink:title="include/Thread.h">
<polygon fill="none" stroke="black" points="1348.5,-168.5 1348.5,-187.5 1437.5,-187.5 1437.5,-168.5 1348.5,-168.5"/>
<text text-anchor="middle" x="1393" y="-175.5" font-family="Helvetica,sans-Serif" font-size="10.00">include/Thread.h</text>
</a>
</g>
</g>
<!-- Node1&#45;&gt;Node21 -->
<g id="edge32" class="edge"><title>Node1&#45;&gt;Node21</title>
<path fill="none" stroke="midnightblue" d="M819.118,-228.504C939.524,-218.118 1235.33,-192.601 1348.22,-182.863"/>
<polygon fill="midnightblue" stroke="midnightblue" points="818.708,-225.026 809.046,-229.373 819.309,-232.001 818.708,-225.026"/>
</g>
<!-- Node22 -->
<g id="node22" class="node"><title>Node22</title>
<g id="a_node22"><a xlink:href="_term_utils_8h.html" target="_top" xlink:title="include/TermUtils.h">
<polygon fill="none" stroke="black" points="1455.5,-168.5 1455.5,-187.5 1556.5,-187.5 1556.5,-168.5 1455.5,-168.5"/>
<text text-anchor="middle" x="1506" y="-175.5" font-family="Helvetica,sans-Serif" font-size="10.00">include/TermUtils.h</text>
</a>
</g>
</g>
<!-- Node1&#45;&gt;Node22 -->
<g id="edge39" class="edge"><title>Node1&#45;&gt;Node22</title>
<path fill="none" stroke="midnightblue" d="M819.419,-231.005C933.565,-226.336 1213.07,-213.145 1446,-188 1449.04,-187.672 1452.16,-187.303 1455.3,-186.906"/>
<polygon fill="midnightblue" stroke="midnightblue" points="819.069,-227.516 809.219,-231.417 819.352,-234.51 819.069,-227.516"/>
</g>
<!-- Node3 -->
<g id="node3" class="node"><title>Node3</title>
<g id="a_node3"><a xlink:href="_timer_8h.html" target="_top" xlink:title="include/Timer.h">
<polygon fill="none" stroke="black" points="489.5,-112.5 489.5,-131.5 572.5,-131.5 572.5,-112.5 489.5,-112.5"/>
<text text-anchor="middle" x="531" y="-119.5" font-family="Helvetica,sans-Serif" font-size="10.00">include/Timer.h</text>
</a>
</g>
</g>
<!-- Node2&#45;&gt;Node3 -->
<g id="edge2" class="edge"><title>Node2&#45;&gt;Node3</title>
<path fill="none" stroke="midnightblue" d="M612.452,-163.726C592.454,-153.727 565.613,-140.307 548.309,-131.655"/>
<polygon fill="midnightblue" stroke="midnightblue" points="611.138,-166.982 621.648,-168.324 614.269,-160.721 611.138,-166.982"/>
</g>
<!-- Node2&#45;&gt;Node6 -->
<g id="edge5" class="edge"><title>Node2&#45;&gt;Node6</title>
<path fill="none" stroke="midnightblue" d="M583.655,-168.789C513.478,-158.379 393.472,-140.576 325.622,-130.51"/>
<polygon fill="midnightblue" stroke="midnightblue" points="583.23,-172.265 593.635,-170.27 584.257,-165.34 583.23,-172.265"/>
</g>
<!-- Node2&#45;&gt;Node7 -->
<g id="edge7" class="edge"><title>Node2&#45;&gt;Node7</title>
<path fill="none" stroke="midnightblue" d="M595.654,-165.959C555.613,-155.76 496.967,-140.822 460.435,-131.516"/>
<polygon fill="midnightblue" stroke="midnightblue" points="594.853,-169.367 605.408,-168.444 596.581,-162.583 594.853,-169.367"/>
</g>
<!-- Node2&#45;&gt;Node12 -->
<g id="edge12" class="edge"><title>Node2&#45;&gt;Node12</title>
<path fill="none" stroke="midnightblue" d="M658.59,-162.101C671.368,-152.382 687.613,-140.027 698.385,-131.834"/>
<polygon fill="midnightblue" stroke="midnightblue" points="656.248,-159.484 650.407,-168.324 660.486,-165.056 656.248,-159.484"/>
</g>
<!-- Node13 -->
<g id="node13" class="node"><title>Node13</title>
<g id="a_node13"><a xlink:href="_job_thread_8h.html" target="_top" xlink:title="include/JobThread.h">
<polygon fill="none" stroke="black" points="949,-0.5 949,-19.5 1053,-19.5 1053,-0.5 949,-0.5"/>
<text text-anchor="middle" x="1001" y="-7.5" font-family="Helvetica,sans-Serif" font-size="10.00">include/JobThread.h</text>
</a>
</g>
</g>
<!-- Node2&#45;&gt;Node13 -->
<g id="edge13" class="edge"><title>Node2&#45;&gt;Node13</title>
<path fill="none" stroke="midnightblue" d="M634.465,-158.225C632.203,-144.025 631.798,-124.842 642,-112 680.21,-63.9025 859.009,-31.617 948.992,-18.128"/>
<polygon fill="midnightblue" stroke="midnightblue" points="631.096,-159.223 636.51,-168.33 637.957,-157.834 631.096,-159.223"/>
</g>
<!-- Node14 -->
<g id="node14" class="node"><title>Node14</title>
<g id="a_node14"><a xlink:href="_pipe_8h.html" target="_top" xlink:title="include/Pipe.h">
<polygon fill="none" stroke="black" points="962,-56.5 962,-75.5 1040,-75.5 1040,-56.5 962,-56.5"/>
<text text-anchor="middle" x="1001" y="-63.5" font-family="Helvetica,sans-Serif" font-size="10.00">include/Pipe.h</text>
</a>
</g>
</g>
<!-- Node2&#45;&gt;Node14 -->
<g id="edge14" class="edge"><title>Node2&#45;&gt;Node14</title>
<path fill="none" stroke="midnightblue" d="M639.231,-158.166C640.488,-143.336 644.767,-123.338 658,-112 702.924,-73.5092 881.824,-67.6101 961.9,-66.9355"/>
<polygon fill="midnightblue" stroke="midnightblue" points="635.729,-158.117 638.76,-168.269 642.722,-158.443 635.729,-158.117"/>
</g>
<!-- Node15 -->
<g id="node15" class="node"><title>Node15</title>
<g id="a_node15"><a xlink:href="_module_thread_8h.html" target="_top" xlink:title="include/ModuleThread.h">
<polygon fill="none" stroke="black" points="1333,-112.5 1333,-131.5 1453,-131.5 1453,-112.5 1333,-112.5"/>
<text text-anchor="middle" x="1393" y="-119.5" font-family="Helvetica,sans-Serif" font-size="10.00">include/ModuleThread.h</text>
</a>
</g>
</g>
<!-- Node2&#45;&gt;Node15 -->
<g id="edge16" class="edge"><title>Node2&#45;&gt;Node15</title>
<path fill="none" stroke="midnightblue" d="M694.485,-174.563C811.192,-169.172 1090.56,-154.868 1324,-132 1326.89,-131.717 1329.84,-131.409 1332.82,-131.081"/>
<polygon fill="midnightblue" stroke="midnightblue" points="694.198,-171.072 684.369,-175.027 694.519,-178.065 694.198,-171.072"/>
</g>
<!-- Node2&#45;&gt;Node16 -->
<g id="edge17" class="edge"><title>Node2&#45;&gt;Node16</title>
<path fill="none" stroke="midnightblue" d="M680.581,-165.829C718.531,-155.633 773.81,-140.782 808.3,-131.516"/>
<polygon fill="midnightblue" stroke="midnightblue" points="679.598,-162.469 670.849,-168.444 681.415,-169.229 679.598,-162.469"/>
</g>
<!-- Node4 -->
<g id="node4" class="node"><title>Node4</title>
<g id="a_node4"><a xlink:href="_backoff_timer_8h.html" target="_top" xlink:title="include/BackoffTimer.h">
<polygon fill="none" stroke="black" points="542.5,-56.5 542.5,-75.5 659.5,-75.5 659.5,-56.5 542.5,-56.5"/>
<text text-anchor="middle" x="601" y="-63.5" font-family="Helvetica,sans-Serif" font-size="10.00">include/BackoffTimer.h</text>
</a>
</g>
</g>
<!-- Node3&#45;&gt;Node4 -->
<g id="edge3" class="edge"><title>Node3&#45;&gt;Node4</title>
<path fill="none" stroke="midnightblue" d="M550.314,-106.101C562.912,-96.3824 578.928,-84.0269 589.549,-75.8339"/>
<polygon fill="midnightblue" stroke="midnightblue" points="548.027,-103.445 542.247,-112.324 552.302,-108.987 548.027,-103.445"/>
</g>
<!-- Node5 -->
<g id="node5" class="node"><title>Node5</title>
<g id="a_node5"><a xlink:href="_postgres_8h.html" target="_top" xlink:title="include/Postgres.h">
<polygon fill="none" stroke="black" points="388,-0.5 388,-19.5 486,-19.5 486,-0.5 388,-0.5"/>
<text text-anchor="middle" x="437" y="-7.5" font-family="Helvetica,sans-Serif" font-size="10.00">include/Postgres.h</text>
</a>
</g>
</g>
<!-- Node4&#45;&gt;Node5 -->
<g id="edge4" class="edge"><title>Node4&#45;&gt;Node5</title>
<path fill="none" stroke="midnightblue" d="M565.48,-53.3044C534.578,-43.1294 490.527,-28.6246 462.865,-19.5164"/>
<polygon fill="midnightblue" stroke="midnightblue" points="564.421,-56.6404 575.014,-56.4435 566.61,-49.9915 564.421,-56.6404"/>
</g>
<!-- Node6&#45;&gt;Node5 -->
<g id="edge6" class="edge"><title>Node6&#45;&gt;Node5</title>
<path fill="none" stroke="midnightblue" d="M274.888,-101.904C275.827,-87.5293 279.418,-68.2698 291,-56 315.944,-29.5758 356.003,-18.5461 387.856,-14.0017"/>
<polygon fill="midnightblue" stroke="midnightblue" points="271.382,-102.064 274.602,-112.157 278.379,-102.259 271.382,-102.064"/>
</g>
<!-- Node7&#45;&gt;Node8 -->
<g id="edge8" class="edge"><title>Node7&#45;&gt;Node8</title>
<path fill="none" stroke="midnightblue" d="M372.022,-114.525C305.037,-106.442 188.486,-91.7492 89,-76 86.0954,-75.5402 83.0981,-75.0438 80.0838,-74.5286"/>
<polygon fill="midnightblue" stroke="midnightblue" points="371.99,-118.047 382.336,-115.765 372.826,-111.097 371.99,-118.047"/>
</g>
<!-- Node9 -->
<g id="node9" class="node"><title>Node9</title>
<g id="a_node9"><a xlink:href="_listener_8h.html" target="_top" xlink:title="include/Listener.h">
<polygon fill="none" stroke="black" points="431.5,-56.5 431.5,-75.5 524.5,-75.5 524.5,-56.5 431.5,-56.5"/>
<text text-anchor="middle" x="478" y="-63.5" font-family="Helvetica,sans-Serif" font-size="10.00">include/Listener.h</text>
</a>
</g>
</g>
<!-- Node7&#45;&gt;Node9 -->
<g id="edge9" class="edge"><title>Node7&#45;&gt;Node9</title>
<path fill="none" stroke="midnightblue" d="M442.378,-104.718C451.367,-95.1997 462.359,-83.5608 469.735,-75.7511"/>
<polygon fill="midnightblue" stroke="midnightblue" points="439.743,-102.41 435.422,-112.083 444.832,-107.216 439.743,-102.41"/>
</g>
<!-- Node7&#45;&gt;Node10 -->
<g id="edge10" class="edge"><title>Node7&#45;&gt;Node10</title>
<path fill="none" stroke="midnightblue" d="M376.49,-110.346C328.111,-100.141 256.049,-84.94 211.374,-75.5164"/>
<polygon fill="midnightblue" stroke="midnightblue" points="375.929,-113.804 386.436,-112.444 377.374,-106.955 375.929,-113.804"/>
</g>
<!-- Node7&#45;&gt;Node11 -->
<g id="edge11" class="edge"><title>Node7&#45;&gt;Node11</title>
<path fill="none" stroke="midnightblue" d="M407.686,-106.101C395.088,-96.3824 379.072,-84.0269 368.451,-75.8339"/>
<polygon fill="midnightblue" stroke="midnightblue" points="405.698,-108.987 415.753,-112.324 409.973,-103.445 405.698,-108.987"/>
</g>
<!-- Node14&#45;&gt;Node13 -->
<g id="edge15" class="edge"><title>Node14&#45;&gt;Node13</title>
<path fill="none" stroke="midnightblue" d="M1001,-45.8045C1001,-36.9102 1001,-26.7798 1001,-19.7511"/>
<polygon fill="midnightblue" stroke="midnightblue" points="997.5,-46.083 1001,-56.083 1004.5,-46.083 997.5,-46.083"/>
</g>
<!-- Node18&#45;&gt;Node7 -->
<g id="edge22" class="edge"><title>Node18&#45;&gt;Node7</title>
<path fill="none" stroke="midnightblue" d="M934.279,-173.71C841.973,-167.641 645.189,-153.322 480,-132 477.316,-131.654 474.559,-131.27 471.782,-130.862"/>
<polygon fill="midnightblue" stroke="midnightblue" points="934.271,-177.217 944.477,-174.375 934.726,-170.232 934.271,-177.217"/>
</g>
<!-- Node18&#45;&gt;Node14 -->
<g id="edge25" class="edge"><title>Node18&#45;&gt;Node14</title>
<path fill="none" stroke="midnightblue" d="M1000.99,-160.373C1006.85,-152.34 1012.99,-142.235 1016,-132 1021.82,-112.224 1012.29,-88.5241 1005.95,-75.9179"/>
<polygon fill="midnightblue" stroke="midnightblue" points="998.068,-158.423 994.673,-168.459 1003.59,-162.731 998.068,-158.423"/>
</g>
<!-- Node18&#45;&gt;Node17 -->
<g id="edge20" class="edge"><title>Node18&#45;&gt;Node17</title>
<path fill="none" stroke="midnightblue" d="M1017.22,-164.638C1041.99,-154.504 1076.4,-140.427 1098.18,-131.516"/>
<polygon fill="midnightblue" stroke="midnightblue" points="1015.85,-161.418 1007.92,-168.444 1018.5,-167.897 1015.85,-161.418"/>
</g>
<!-- Node18&#45;&gt;Node19 -->
<g id="edge21" class="edge"><title>Node18&#45;&gt;Node19</title>
<path fill="none" stroke="midnightblue" d="M1039.36,-166.41C1089.82,-156.204 1165.2,-140.96 1211.89,-131.516"/>
<polygon fill="midnightblue" stroke="midnightblue" points="1038.41,-163.031 1029.31,-168.444 1039.8,-169.892 1038.41,-163.031"/>
</g>
<!-- Node18&#45;&gt;Node20 -->
<g id="edge23" class="edge"><title>Node18&#45;&gt;Node20</title>
<path fill="none" stroke="midnightblue" d="M980.218,-158.69C976.848,-149.589 972.931,-139.014 970.241,-131.751"/>
<polygon fill="midnightblue" stroke="midnightblue" points="976.942,-159.921 983.697,-168.083 983.506,-157.49 976.942,-159.921"/>
</g>
<!-- Node20&#45;&gt;Node14 -->
<g id="edge24" class="edge"><title>Node20&#45;&gt;Node14</title>
<path fill="none" stroke="midnightblue" d="M977.977,-103.566C983.827,-94.2747 990.77,-83.2484 995.49,-75.7511"/>
<polygon fill="midnightblue" stroke="midnightblue" points="974.981,-101.756 972.614,-112.083 980.904,-105.486 974.981,-101.756"/>
</g>
<!-- Node21&#45;&gt;Node13 -->
<g id="edge33" class="edge"><title>Node21&#45;&gt;Node13</title>
<path fill="none" stroke="midnightblue" d="M1431.13,-164.92C1461.46,-153.308 1496.05,-134.27 1478,-112 1424.9,-46.4832 1165.5,-21.7685 1053.1,-14.0306"/>
<polygon fill="midnightblue" stroke="midnightblue" points="1429.7,-161.714 1421.5,-168.423 1432.1,-168.292 1429.7,-161.714"/>
</g>
<!-- Node21&#45;&gt;Node14 -->
<g id="edge34" class="edge"><title>Node21&#45;&gt;Node14</title>
<path fill="none" stroke="midnightblue" d="M1423.45,-164.097C1449.23,-151.413 1479.43,-131.215 1462,-112 1433.87,-80.9915 1146.44,-70.6539 1040.2,-67.8763"/>
<polygon fill="midnightblue" stroke="midnightblue" points="1421.81,-160.998 1414.25,-168.414 1424.79,-167.335 1421.81,-160.998"/>
</g>
<!-- Node21&#45;&gt;Node15 -->
<g id="edge35" class="edge"><title>Node21&#45;&gt;Node15</title>
<path fill="none" stroke="midnightblue" d="M1393,-157.805C1393,-148.91 1393,-138.78 1393,-131.751"/>
<polygon fill="midnightblue" stroke="midnightblue" points="1389.5,-158.083 1393,-168.083 1396.5,-158.083 1389.5,-158.083"/>
</g>
</g>
</svg>
