<?xml version="1.0" encoding="UTF-8" standalone="no"?>
<!DOCTYPE svg PUBLIC "-//W3C//DTD SVG 1.1//EN"
 "http://www.w3.org/Graphics/SVG/1.1/DTD/svg11.dtd">
<!-- Generated by graphviz version 2.34.0 (20140110.0949)
 -->
<!-- Title: include/String.h Pages: 1 -->
<svg width="1675pt" height="252pt"
 viewBox="0.00 0.00 1675.00 252.00" xmlns="http://www.w3.org/2000/svg" xmlns:xlink="http://www.w3.org/1999/xlink">
<g id="graph0" class="graph" transform="scale(1 1) rotate(0) translate(4 248)">
<title>include/String.h</title>
<!-- Node1 -->
<g id="node1" class="node"><title>Node1</title>
<polygon fill="#bfbfbf" stroke="black" points="779,-224.5 779,-243.5 863,-243.5 863,-224.5 779,-224.5"/>
<text text-anchor="middle" x="821" y="-231.5" font-family="Helvetica,sans-Serif" font-size="10.00">include/String.h</text>
</g>
<!-- Node2 -->
<g id="node2" class="node"><title>Node2</title>
<g id="a_node2"><a xlink:href="_module_8h.html" target="_top" xlink:title="include/Module.h">
<polygon fill="none" stroke="black" points="641,-168.5 641,-187.5 731,-187.5 731,-168.5 641,-168.5"/>
<text text-anchor="middle" x="686" y="-175.5" font-family="Helvetica,sans-Serif" font-size="10.00">include/Module.h</text>
</a>
</g>
</g>
<!-- Node1&#45;&gt;Node2 -->
<g id="edge1" class="edge"><title>Node1&#45;&gt;Node2</title>
<path fill="none" stroke="midnightblue" d="M790.094,-220.638C764.76,-210.504 729.569,-196.427 707.291,-187.516"/>
<polygon fill="midnightblue" stroke="midnightblue" points="789.024,-223.979 799.609,-224.444 791.624,-217.48 789.024,-223.979"/>
</g>
<!-- Node6 -->
<g id="node6" class="node"><title>Node6</title>
<g id="a_node6"><a xlink:href="_database_8h.html" target="_top" xlink:title="include/Database.h">
<polygon fill="none" stroke="black" points="455.5,-112.5 455.5,-131.5 556.5,-131.5 556.5,-112.5 455.5,-112.5"/>
<text text-anchor="middle" x="506" y="-119.5" font-family="Helvetica,sans-Serif" font-size="10.00">include/Database.h</text>
</a>
</g>
</g>
<!-- Node1&#45;&gt;Node6 -->
<g id="edge27" class="edge"><title>Node1&#45;&gt;Node6</title>
<path fill="none" stroke="midnightblue" d="M768.891,-224.126C730.363,-216.721 677,-204.682 632,-188 589.303,-172.172 542.515,-145.275 519.847,-131.574"/>
<polygon fill="midnightblue" stroke="midnightblue" points="768.373,-227.589 778.848,-226 769.668,-220.71 768.373,-227.589"/>
</g>
<!-- Node7 -->
<g id="node7" class="node"><title>Node7</title>
<g id="a_node7"><a xlink:href="_socket_8h.html" target="_top" xlink:title="include/Socket.h">
<polygon fill="none" stroke="black" points="348.5,-112.5 348.5,-131.5 437.5,-131.5 437.5,-112.5 348.5,-112.5"/>
<text text-anchor="middle" x="393" y="-119.5" font-family="Helvetica,sans-Serif" font-size="10.00">include/Socket.h</text>
</a>
</g>
</g>
<!-- Node1&#45;&gt;Node7 -->
<g id="edge29" class="edge"><title>Node1&#45;&gt;Node7</title>
<path fill="none" stroke="midnightblue" d="M768.448,-225.034C720.519,-217.275 647.945,-204.282 586,-188 523.082,-171.462 450.904,-145.119 415.282,-131.608"/>
<polygon fill="midnightblue" stroke="midnightblue" points="768.159,-228.532 778.587,-226.657 769.266,-221.62 768.159,-228.532"/>
</g>
<!-- Node8 -->
<g id="node8" class="node"><title>Node8</title>
<g id="a_node8"><a xlink:href="_d_n_s_8h.html" target="_top" xlink:title="include/DNS.h">
<polygon fill="none" stroke="black" points="0,-56.5 0,-75.5 80,-75.5 80,-56.5 0,-56.5"/>
<text text-anchor="middle" x="40" y="-63.5" font-family="Helvetica,sans-Serif" font-size="10.00">include/DNS.h</text>
</a>
</g>
</g>
<!-- Node1&#45;&gt;Node8 -->
<g id="edge30" class="edge"><title>Node1&#45;&gt;Node8</title>
<path fill="none" stroke="midnightblue" d="M768.544,-231.707C647.185,-228.254 350.168,-217.02 255,-188 170.194,-162.14 81.9629,-98.9878 51.2941,-75.7597"/>
<polygon fill="midnightblue" stroke="midnightblue" points="768.605,-235.21 778.698,-231.99 768.799,-228.213 768.605,-235.21"/>
</g>
<!-- Node10 -->
<g id="node10" class="node"><title>Node10</title>
<g id="a_node10"><a xlink:href="_simple_h_t_t_p_socket_8h.html" target="_top" xlink:title="include/SimpleHTTPSocket.h">
<polygon fill="none" stroke="black" points="98,-56.5 98,-75.5 244,-75.5 244,-56.5 98,-56.5"/>
<text text-anchor="middle" x="171" y="-63.5" font-family="Helvetica,sans-Serif" font-size="10.00">include/SimpleHTTPSocket.h</text>
</a>
</g>
</g>
<!-- Node1&#45;&gt;Node10 -->
<g id="edge38" class="edge"><title>Node1&#45;&gt;Node10</title>
<path fill="none" stroke="midnightblue" d="M768.761,-232.788C652.154,-231.641 374.219,-224.987 289,-188 233.014,-163.701 190.107,-99.0088 175.985,-75.6037"/>
<polygon fill="midnightblue" stroke="midnightblue" points="768.837,-236.288 778.868,-232.877 768.899,-229.289 768.837,-236.288"/>
</g>
<!-- Node11 -->
<g id="node11" class="node"><title>Node11</title>
<g id="a_node11"><a xlink:href="_statsd_client_8h.html" target="_top" xlink:title="include/StatsdClient.h">
<polygon fill="none" stroke="black" points="262.5,-56.5 262.5,-75.5 375.5,-75.5 375.5,-56.5 262.5,-56.5"/>
<text text-anchor="middle" x="319" y="-63.5" font-family="Helvetica,sans-Serif" font-size="10.00">include/StatsdClient.h</text>
</a>
</g>
</g>
<!-- Node1&#45;&gt;Node11 -->
<g id="edge39" class="edge"><title>Node1&#45;&gt;Node11</title>
<path fill="none" stroke="midnightblue" d="M768.5,-232.602C636.951,-230.336 299.168,-216.266 235,-132 215.953,-106.987 259.538,-86.4596 290.775,-75.538"/>
<polygon fill="midnightblue" stroke="midnightblue" points="768.671,-236.105 778.724,-232.761 768.78,-229.106 768.671,-236.105"/>
</g>
<!-- Node12 -->
<g id="node12" class="node"><title>Node12</title>
<g id="a_node12"><a xlink:href="_global_8h.html" target="_top" xlink:title="include/Global.h">
<polygon fill="none" stroke="black" points="244,-112.5 244,-131.5 330,-131.5 330,-112.5 244,-112.5"/>
<text text-anchor="middle" x="287" y="-119.5" font-family="Helvetica,sans-Serif" font-size="10.00">include/Global.h</text>
</a>
</g>
</g>
<!-- Node1&#45;&gt;Node12 -->
<g id="edge32" class="edge"><title>Node1&#45;&gt;Node12</title>
<path fill="none" stroke="midnightblue" d="M768.436,-227.246C707.72,-220.127 605.012,-206.625 518,-188 442.633,-171.868 355.559,-145.107 313.058,-131.503"/>
<polygon fill="midnightblue" stroke="midnightblue" points="768.205,-230.743 778.541,-228.417 769.011,-223.789 768.205,-230.743"/>
</g>
<!-- Node16 -->
<g id="node16" class="node"><title>Node16</title>
<g id="a_node16"><a xlink:href="_sub_module_loader_8h.html" target="_top" xlink:title="include/SubModuleLoader.h">
<polygon fill="none" stroke="black" points="752.5,-112.5 752.5,-131.5 889.5,-131.5 889.5,-112.5 752.5,-112.5"/>
<text text-anchor="middle" x="821" y="-119.5" font-family="Helvetica,sans-Serif" font-size="10.00">include/SubModuleLoader.h</text>
</a>
</g>
</g>
<!-- Node1&#45;&gt;Node16 -->
<g id="edge40" class="edge"><title>Node1&#45;&gt;Node16</title>
<path fill="none" stroke="midnightblue" d="M821,-214.348C821,-190.254 821,-149.308 821,-131.591"/>
<polygon fill="midnightblue" stroke="midnightblue" points="817.5,-214.368 821,-224.368 824.5,-214.369 817.5,-214.368"/>
</g>
<!-- Node17 -->
<g id="node17" class="node"><title>Node17</title>
<g id="a_node17"><a xlink:href="_compressor_8h.html" target="_top" xlink:title="include/Compressor.h">
<polygon fill="none" stroke="black" points="1122,-112.5 1122,-131.5 1234,-131.5 1234,-112.5 1122,-112.5"/>
<text text-anchor="middle" x="1178" y="-119.5" font-family="Helvetica,sans-Serif" font-size="10.00">include/Compressor.h</text>
</a>
</g>
</g>
<!-- Node1&#45;&gt;Node17 -->
<g id="edge18" class="edge"><title>Node1&#45;&gt;Node17</title>
<path fill="none" stroke="midnightblue" d="M873.24,-226.592C919.715,-219.957 989.09,-207.743 1047,-188 1091.7,-172.762 1140.6,-145.354 1164,-131.504"/>
<polygon fill="midnightblue" stroke="midnightblue" points="872.526,-223.157 863.103,-228.002 873.49,-230.09 872.526,-223.157"/>
</g>
<!-- Node18 -->
<g id="node18" class="node"><title>Node18</title>
<g id="a_node18"><a xlink:href="_writer_8h.html" target="_top" xlink:title="include/Writer.h">
<polygon fill="none" stroke="black" points="1155.5,-168.5 1155.5,-187.5 1240.5,-187.5 1240.5,-168.5 1155.5,-168.5"/>
<text text-anchor="middle" x="1198" y="-175.5" font-family="Helvetica,sans-Serif" font-size="10.00">include/Writer.h</text>
</a>
</g>
</g>
<!-- Node1&#45;&gt;Node18 -->
<g id="edge19" class="edge"><title>Node1&#45;&gt;Node18</title>
<path fill="none" stroke="midnightblue" d="M873.337,-225.503C948.55,-214.73 1085.78,-195.075 1155.26,-185.122"/>
<polygon fill="midnightblue" stroke="midnightblue" points="872.552,-222.08 863.149,-226.963 873.545,-229.009 872.552,-222.08"/>
</g>
<!-- Node19 -->
<g id="node19" class="node"><title>Node19</title>
<g id="a_node19"><a xlink:href="_decompressor_8h.html" target="_top" xlink:title="include/Decompressor.h">
<polygon fill="none" stroke="black" points="1388,-112.5 1388,-131.5 1510,-131.5 1510,-112.5 1388,-112.5"/>
<text text-anchor="middle" x="1449" y="-119.5" font-family="Helvetica,sans-Serif" font-size="10.00">include/Decompressor.h</text>
</a>
</g>
</g>
<!-- Node1&#45;&gt;Node19 -->
<g id="edge28" class="edge"><title>Node1&#45;&gt;Node19</title>
<path fill="none" stroke="midnightblue" d="M873.307,-232.379C959.146,-230.359 1134.78,-222.008 1279,-188 1336.51,-174.439 1400.71,-146.007 1431.14,-131.665"/>
<polygon fill="midnightblue" stroke="midnightblue" points="873.214,-228.88 863.292,-232.595 873.365,-235.879 873.214,-228.88"/>
</g>
<!-- Node20 -->
<g id="node20" class="node"><title>Node20</title>
<g id="a_node20"><a xlink:href="_files_8h.html" target="_top" xlink:title="include/Files.h">
<polygon fill="none" stroke="black" points="1290,-112.5 1290,-131.5 1370,-131.5 1370,-112.5 1290,-112.5"/>
<text text-anchor="middle" x="1330" y="-119.5" font-family="Helvetica,sans-Serif" font-size="10.00">include/Files.h</text>
</a>
</g>
</g>
<!-- Node1&#45;&gt;Node20 -->
<g id="edge31" class="edge"><title>Node1&#45;&gt;Node20</title>
<path fill="none" stroke="midnightblue" d="M873.268,-231.177C972.04,-227.134 1182.19,-215.503 1249,-188 1280.35,-175.097 1309.34,-146.09 1322.53,-131.591"/>
<polygon fill="midnightblue" stroke="midnightblue" points="873.064,-227.683 863.211,-231.579 873.343,-234.677 873.064,-227.683"/>
</g>
<!-- Node21 -->
<g id="node21" class="node"><title>Node21</title>
<g id="a_node21"><a xlink:href="_logger_8h.html" target="_top" xlink:title="include/Logger.h">
<polygon fill="none" stroke="black" points="1390,-56.5 1390,-75.5 1478,-75.5 1478,-56.5 1390,-56.5"/>
<text text-anchor="middle" x="1434" y="-63.5" font-family="Helvetica,sans-Serif" font-size="10.00">include/Logger.h</text>
</a>
</g>
</g>
<!-- Node1&#45;&gt;Node21 -->
<g id="edge37" class="edge"><title>Node1&#45;&gt;Node21</title>
<path fill="none" stroke="midnightblue" d="M873.361,-231.63C965.436,-228.488 1162.04,-218.503 1325,-188 1413.21,-171.489 1465.05,-203.719 1519,-132 1537.98,-106.761 1494.27,-86.3791 1462.76,-75.5331"/>
<polygon fill="midnightblue" stroke="midnightblue" points="873.069,-228.137 863.189,-231.963 873.298,-235.134 873.069,-228.137"/>
</g>
<!-- Node22 -->
<g id="node22" class="node"><title>Node22</title>
<g id="a_node22"><a xlink:href="_thread_8h.html" target="_top" xlink:title="include/Thread.h">
<polygon fill="none" stroke="black" points="949.5,-168.5 949.5,-187.5 1038.5,-187.5 1038.5,-168.5 949.5,-168.5"/>
<text text-anchor="middle" x="994" y="-175.5" font-family="Helvetica,sans-Serif" font-size="10.00">include/Thread.h</text>
</a>
</g>
</g>
<!-- Node1&#45;&gt;Node22 -->
<g id="edge33" class="edge"><title>Node1&#45;&gt;Node22</title>
<path fill="none" stroke="midnightblue" d="M858.047,-221.436C890.664,-211.255 937.41,-196.664 966.716,-187.516"/>
<polygon fill="midnightblue" stroke="midnightblue" points="856.915,-218.123 848.412,-224.444 859.001,-224.805 856.915,-218.123"/>
</g>
<!-- Node23 -->
<g id="node23" class="node"><title>Node23</title>
<g id="a_node23"><a xlink:href="_term_utils_8h.html" target="_top" xlink:title="include/TermUtils.h">
<polygon fill="none" stroke="black" points="1566.5,-168.5 1566.5,-187.5 1667.5,-187.5 1667.5,-168.5 1566.5,-168.5"/>
<text text-anchor="middle" x="1617" y="-175.5" font-family="Helvetica,sans-Serif" font-size="10.00">include/TermUtils.h</text>
</a>
</g>
</g>
<!-- Node1&#45;&gt;Node23 -->
<g id="edge41" class="edge"><title>Node1&#45;&gt;Node23</title>
<path fill="none" stroke="midnightblue" d="M873.134,-231.154C993.146,-226.608 1298.13,-213.352 1552,-188 1556.65,-187.536 1561.47,-186.99 1566.3,-186.399"/>
<polygon fill="midnightblue" stroke="midnightblue" points="872.98,-227.658 863.118,-231.53 873.242,-234.653 872.98,-227.658"/>
</g>
<!-- Node3 -->
<g id="node3" class="node"><title>Node3</title>
<g id="a_node3"><a xlink:href="_timer_8h.html" target="_top" xlink:title="include/Timer.h">
<polygon fill="none" stroke="black" points="574.5,-112.5 574.5,-131.5 657.5,-131.5 657.5,-112.5 574.5,-112.5"/>
<text text-anchor="middle" x="616" y="-119.5" font-family="Helvetica,sans-Serif" font-size="10.00">include/Timer.h</text>
</a>
</g>
</g>
<!-- Node2&#45;&gt;Node3 -->
<g id="edge2" class="edge"><title>Node2&#45;&gt;Node3</title>
<path fill="none" stroke="midnightblue" d="M666.686,-162.101C654.088,-152.382 638.072,-140.027 627.451,-131.834"/>
<polygon fill="midnightblue" stroke="midnightblue" points="664.698,-164.987 674.753,-168.324 668.973,-159.445 664.698,-164.987"/>
</g>
<!-- Node2&#45;&gt;Node6 -->
<g id="edge5" class="edge"><title>Node2&#45;&gt;Node6</title>
<path fill="none" stroke="midnightblue" d="M647.892,-165.568C613.937,-155.381 565.011,-140.703 534.388,-131.516"/>
<polygon fill="midnightblue" stroke="midnightblue" points="646.894,-168.922 657.478,-168.444 648.906,-162.218 646.894,-168.922"/>
</g>
<!-- Node2&#45;&gt;Node7 -->
<g id="edge7" class="edge"><title>Node2&#45;&gt;Node7</title>
<path fill="none" stroke="midnightblue" d="M630.781,-166.823C574.883,-156.521 489.51,-140.787 437.71,-131.24"/>
<polygon fill="midnightblue" stroke="midnightblue" points="630.392,-170.31 640.861,-168.681 631.661,-163.426 630.392,-170.31"/>
</g>
<!-- Node2&#45;&gt;Node12 -->
<g id="edge12" class="edge"><title>Node2&#45;&gt;Node12</title>
<path fill="none" stroke="midnightblue" d="M630.862,-170.581C562.327,-162.435 441.836,-147.56 339,-132 336.101,-131.561 333.115,-131.092 330.107,-130.606"/>
<polygon fill="midnightblue" stroke="midnightblue" points="630.654,-174.081 640.996,-171.782 631.477,-167.13 630.654,-174.081"/>
</g>
<!-- Node13 -->
<g id="node13" class="node"><title>Node13</title>
<g id="a_node13"><a xlink:href="_job_thread_8h.html" target="_top" xlink:title="include/JobThread.h">
<polygon fill="none" stroke="black" points="1004,-0.5 1004,-19.5 1108,-19.5 1108,-0.5 1004,-0.5"/>
<text text-anchor="middle" x="1056" y="-7.5" font-family="Helvetica,sans-Serif" font-size="10.00">include/JobThread.h</text>
</a>
</g>
</g>
<!-- Node2&#45;&gt;Node13 -->
<g id="edge13" class="edge"><title>Node2&#45;&gt;Node13</title>
<path fill="none" stroke="midnightblue" d="M689.768,-158.555C693.68,-143.953 701.225,-124.071 715,-112 797.891,-39.3649 930.975,-18.9176 1003.96,-13.1943"/>
<polygon fill="midnightblue" stroke="midnightblue" points="686.317,-157.941 687.442,-168.476 693.132,-159.539 686.317,-157.941"/>
</g>
<!-- Node14 -->
<g id="node14" class="node"><title>Node14</title>
<g id="a_node14"><a xlink:href="_pipe_8h.html" target="_top" xlink:title="include/Pipe.h">
<polygon fill="none" stroke="black" points="1084,-56.5 1084,-75.5 1162,-75.5 1162,-56.5 1084,-56.5"/>
<text text-anchor="middle" x="1123" y="-63.5" font-family="Helvetica,sans-Serif" font-size="10.00">include/Pipe.h</text>
</a>
</g>
</g>
<!-- Node2&#45;&gt;Node14 -->
<g id="edge14" class="edge"><title>Node2&#45;&gt;Node14</title>
<path fill="none" stroke="midnightblue" d="M695.872,-159.893C705.712,-144.568 722.321,-122.881 743,-112 801.571,-81.181 999.165,-71.0759 1083.89,-68.1102"/>
<polygon fill="midnightblue" stroke="midnightblue" points="692.865,-158.1 690.643,-168.459 698.84,-161.747 692.865,-158.1"/>
</g>
<!-- Node15 -->
<g id="node15" class="node"><title>Node15</title>
<g id="a_node15"><a xlink:href="_module_thread_8h.html" target="_top" xlink:title="include/ModuleThread.h">
<polygon fill="none" stroke="black" points="908,-112.5 908,-131.5 1028,-131.5 1028,-112.5 908,-112.5"/>
<text text-anchor="middle" x="968" y="-119.5" font-family="Helvetica,sans-Serif" font-size="10.00">include/ModuleThread.h</text>
</a>
</g>
</g>
<!-- Node2&#45;&gt;Node15 -->
<g id="edge16" class="edge"><title>Node2&#45;&gt;Node15</title>
<path fill="none" stroke="midnightblue" d="M740.639,-166.537C793.935,-156.332 874.004,-140.999 923.525,-131.516"/>
<polygon fill="midnightblue" stroke="midnightblue" points="739.847,-163.125 730.684,-168.444 741.164,-170 739.847,-163.125"/>
</g>
<!-- Node2&#45;&gt;Node16 -->
<g id="edge17" class="edge"><title>Node2&#45;&gt;Node16</title>
<path fill="none" stroke="midnightblue" d="M716.906,-164.638C742.24,-154.504 777.431,-140.427 799.709,-131.516"/>
<polygon fill="midnightblue" stroke="midnightblue" points="715.376,-161.48 707.391,-168.444 717.976,-167.979 715.376,-161.48"/>
</g>
<!-- Node4 -->
<g id="node4" class="node"><title>Node4</title>
<g id="a_node4"><a xlink:href="_backoff_timer_8h.html" target="_top" xlink:title="include/BackoffTimer.h">
<polygon fill="none" stroke="black" points="543.5,-56.5 543.5,-75.5 660.5,-75.5 660.5,-56.5 543.5,-56.5"/>
<text text-anchor="middle" x="602" y="-63.5" font-family="Helvetica,sans-Serif" font-size="10.00">include/BackoffTimer.h</text>
</a>
</g>
</g>
<!-- Node3&#45;&gt;Node4 -->
<g id="edge3" class="edge"><title>Node3&#45;&gt;Node4</title>
<path fill="none" stroke="midnightblue" d="M611.177,-102.396C608.835,-93.362 606.132,-82.936 604.269,-75.7511"/>
<polygon fill="midnightblue" stroke="midnightblue" points="607.79,-103.281 613.688,-112.083 614.566,-101.525 607.79,-103.281"/>
</g>
<!-- Node5 -->
<g id="node5" class="node"><title>Node5</title>
<g id="a_node5"><a xlink:href="_postgres_8h.html" target="_top" xlink:title="include/Postgres.h">
<polygon fill="none" stroke="black" points="510,-0.5 510,-19.5 608,-19.5 608,-0.5 510,-0.5"/>
<text text-anchor="middle" x="559" y="-7.5" font-family="Helvetica,sans-Serif" font-size="10.00">include/Postgres.h</text>
</a>
</g>
</g>
<!-- Node4&#45;&gt;Node5 -->
<g id="edge4" class="edge"><title>Node4&#45;&gt;Node5</title>
<path fill="none" stroke="midnightblue" d="M588.578,-48.144C581.086,-38.7357 572.063,-27.4046 565.968,-19.7511"/>
<polygon fill="midnightblue" stroke="midnightblue" points="585.932,-50.4404 594.899,-56.083 591.408,-46.0799 585.932,-50.4404"/>
</g>
<!-- Node6&#45;&gt;Node5 -->
<g id="edge6" class="edge"><title>Node6&#45;&gt;Node5</title>
<path fill="none" stroke="midnightblue" d="M513.129,-103.135C518.526,-89.9525 526.301,-71.6614 534,-56 540.309,-43.1674 548.497,-28.7975 553.751,-19.8245"/>
<polygon fill="midnightblue" stroke="midnightblue" points="509.861,-101.88 509.358,-112.463 516.351,-104.504 509.861,-101.88"/>
</g>
<!-- Node7&#45;&gt;Node8 -->
<g id="edge8" class="edge"><title>Node7&#45;&gt;Node8</title>
<path fill="none" stroke="midnightblue" d="M338.232,-111.914C226.404,-94.7218 196.644,-93.6293 89,-76 86.0979,-75.5247 83.1024,-75.0169 80.0894,-74.4936"/>
<polygon fill="midnightblue" stroke="midnightblue" points="337.806,-115.389 348.223,-113.459 338.876,-108.472 337.806,-115.389"/>
</g>
<!-- Node9 -->
<g id="node9" class="node"><title>Node9</title>
<g id="a_node9"><a xlink:href="_listener_8h.html" target="_top" xlink:title="include/Listener.h">
<polygon fill="none" stroke="black" points="393.5,-56.5 393.5,-75.5 486.5,-75.5 486.5,-56.5 393.5,-56.5"/>
<text text-anchor="middle" x="440" y="-63.5" font-family="Helvetica,sans-Serif" font-size="10.00">include/Listener.h</text>
</a>
</g>
</g>
<!-- Node7&#45;&gt;Node9 -->
<g id="edge9" class="edge"><title>Node7&#45;&gt;Node9</title>
<path fill="none" stroke="midnightblue" d="M407.421,-104.431C415.658,-94.9673 425.654,-83.4827 432.383,-75.7511"/>
<polygon fill="midnightblue" stroke="midnightblue" points="404.686,-102.242 400.761,-112.083 409.966,-106.838 404.686,-102.242"/>
</g>
<!-- Node7&#45;&gt;Node10 -->
<g id="edge10" class="edge"><title>Node7&#45;&gt;Node10</title>
<path fill="none" stroke="midnightblue" d="M347.875,-110.024C305.94,-99.8232 244.348,-84.8414 206.012,-75.5164"/>
<polygon fill="midnightblue" stroke="midnightblue" points="347.28,-113.481 357.823,-112.444 348.934,-106.679 347.28,-113.481"/>
</g>
<!-- Node7&#45;&gt;Node11 -->
<g id="edge11" class="edge"><title>Node7&#45;&gt;Node11</title>
<path fill="none" stroke="midnightblue" d="M372.966,-106.38C359.591,-96.6204 342.441,-84.1057 331.106,-75.8339"/>
<polygon fill="midnightblue" stroke="midnightblue" points="370.97,-109.257 381.111,-112.324 375.096,-103.602 370.97,-109.257"/>
</g>
<!-- Node14&#45;&gt;Node13 -->
<g id="edge15" class="edge"><title>Node14&#45;&gt;Node13</title>
<path fill="none" stroke="midnightblue" d="M1104.17,-49.8197C1092.16,-40.1452 1077.03,-27.9481 1066.96,-19.8339"/>
<polygon fill="midnightblue" stroke="midnightblue" points="1102.25,-52.7738 1112.24,-56.324 1106.65,-47.3236 1102.25,-52.7738"/>
</g>
<!-- Node18&#45;&gt;Node7 -->
<g id="edge22" class="edge"><title>Node18&#45;&gt;Node7</title>
<path fill="none" stroke="midnightblue" d="M1145.28,-173.854C974.622,-163.672 448.177,-132.249 446,-132 443.311,-131.692 440.551,-131.339 437.771,-130.954"/>
<polygon fill="midnightblue" stroke="midnightblue" points="1145.09,-177.349 1155.28,-174.451 1145.51,-170.362 1145.09,-177.349"/>
</g>
<!-- Node18&#45;&gt;Node14 -->
<g id="edge26" class="edge"><title>Node18&#45;&gt;Node14</title>
<path fill="none" stroke="midnightblue" d="M1219.99,-162.135C1236.69,-148.959 1254.92,-129.196 1243,-112 1224.94,-85.9398 1189.8,-74.9487 1162.2,-70.3253"/>
<polygon fill="midnightblue" stroke="midnightblue" points="1217.51,-159.612 1211.56,-168.377 1221.68,-165.237 1217.51,-159.612"/>
</g>
<!-- Node18&#45;&gt;Node17 -->
<g id="edge20" class="edge"><title>Node18&#45;&gt;Node17</title>
<path fill="none" stroke="midnightblue" d="M1191.22,-158.69C1187.85,-149.589 1183.93,-139.014 1181.24,-131.751"/>
<polygon fill="midnightblue" stroke="midnightblue" points="1187.94,-159.921 1194.7,-168.083 1194.51,-157.49 1187.94,-159.921"/>
</g>
<!-- Node18&#45;&gt;Node19 -->
<g id="edge21" class="edge"><title>Node18&#45;&gt;Node19</title>
<path fill="none" stroke="midnightblue" d="M1247.82,-166.281C1295.25,-156.077 1365.7,-140.92 1409.41,-131.516"/>
<polygon fill="midnightblue" stroke="midnightblue" points="1246.81,-162.918 1237.77,-168.444 1248.28,-169.762 1246.81,-162.918"/>
</g>
<!-- Node18&#45;&gt;Node20 -->
<g id="edge23" class="edge"><title>Node18&#45;&gt;Node20</title>
<path fill="none" stroke="midnightblue" d="M1228.22,-164.638C1252.99,-154.504 1287.4,-140.427 1309.18,-131.516"/>
<polygon fill="midnightblue" stroke="midnightblue" points="1226.85,-161.418 1218.92,-168.444 1229.5,-167.897 1226.85,-161.418"/>
</g>
<!-- Node20&#45;&gt;Node14 -->
<g id="edge24" class="edge"><title>Node20&#45;&gt;Node14</title>
<path fill="none" stroke="midnightblue" d="M1287.18,-109.829C1248.09,-99.6333 1191.17,-84.7823 1155.65,-75.5164"/>
<polygon fill="midnightblue" stroke="midnightblue" points="1286.64,-113.306 1297.2,-112.444 1288.41,-106.533 1286.64,-113.306"/>
</g>
<!-- Node20&#45;&gt;Node21 -->
<g id="edge25" class="edge"><title>Node20&#45;&gt;Node21</title>
<path fill="none" stroke="midnightblue" d="M1355.83,-107.59C1375.06,-97.6052 1400.74,-84.2672 1417.33,-75.6545"/>
<polygon fill="midnightblue" stroke="midnightblue" points="1353.97,-104.61 1346.71,-112.324 1357.2,-110.822 1353.97,-104.61"/>
</g>
<!-- Node22&#45;&gt;Node13 -->
<g id="edge34" class="edge"><title>Node22&#45;&gt;Node13</title>
<path fill="none" stroke="midnightblue" d="M1013.11,-161.814C1021.79,-153.867 1031.35,-143.421 1037,-132 1056.04,-93.496 1056.86,-40.4191 1056.36,-19.7406"/>
<polygon fill="midnightblue" stroke="midnightblue" points="1010.8,-159.179 1005.53,-168.365 1015.38,-164.475 1010.8,-159.179"/>
</g>
<!-- Node22&#45;&gt;Node14 -->
<g id="edge35" class="edge"><title>Node22&#45;&gt;Node14</title>
<path fill="none" stroke="midnightblue" d="M1021.31,-163.857C1036.51,-155.826 1055.27,-144.674 1070,-132 1090.09,-114.713 1108.4,-89.1527 1117.31,-75.8203"/>
<polygon fill="midnightblue" stroke="midnightblue" points="1019.67,-160.762 1012.37,-168.44 1022.87,-166.991 1019.67,-160.762"/>
</g>
<!-- Node22&#45;&gt;Node15 -->
<g id="edge36" class="edge"><title>Node22&#45;&gt;Node15</title>
<path fill="none" stroke="midnightblue" d="M985.325,-158.983C980.912,-149.817 975.748,-139.092 972.213,-131.751"/>
<polygon fill="midnightblue" stroke="midnightblue" points="982.215,-160.591 989.707,-168.083 988.522,-157.555 982.215,-160.591"/>
</g>
</g>
</svg>
