<?xml version="1.0" encoding="UTF-8" standalone="no"?>
<!DOCTYPE svg PUBLIC "-//W3C//DTD SVG 1.1//EN"
 "http://www.w3.org/Graphics/SVG/1.1/DTD/svg11.dtd">
<!-- Generated by graphviz version 2.34.0 (20140110.0949)
 -->
<!-- Title: include/String.h Pages: 1 -->
<svg width="1479pt" height="252pt"
 viewBox="0.00 0.00 1479.00 252.00" xmlns="http://www.w3.org/2000/svg" xmlns:xlink="http://www.w3.org/1999/xlink">
<g id="graph0" class="graph" transform="scale(1 1) rotate(0) translate(4 248)">
<title>include/String.h</title>
<!-- Node1 -->
<g id="node1" class="node"><title>Node1</title>
<polygon fill="#bfbfbf" stroke="black" points="558,-224.5 558,-243.5 642,-243.5 642,-224.5 558,-224.5"/>
<text text-anchor="middle" x="600" y="-231.5" font-family="Helvetica,sans-Serif" font-size="10.00">include/String.h</text>
</g>
<!-- Node2 -->
<g id="node2" class="node"><title>Node2</title>
<g id="a_node2"><a xlink:href="_module_8h.html" target="_top" xlink:title="include/Module.h">
<polygon fill="none" stroke="black" points="809,-168.5 809,-187.5 899,-187.5 899,-168.5 809,-168.5"/>
<text text-anchor="middle" x="854" y="-175.5" font-family="Helvetica,sans-Serif" font-size="10.00">include/Module.h</text>
</a>
</g>
</g>
<!-- Node1&#45;&gt;Node2 -->
<g id="edge1" class="edge"><title>Node1&#45;&gt;Node2</title>
<path fill="none" stroke="midnightblue" d="M650.115,-222.346C698.117,-212.141 769.615,-196.94 813.941,-187.516"/>
<polygon fill="midnightblue" stroke="midnightblue" points="649.301,-218.94 640.247,-224.444 650.756,-225.787 649.301,-218.94"/>
</g>
<!-- Node6 -->
<g id="node6" class="node"><title>Node6</title>
<g id="a_node6"><a xlink:href="_database_8h.html" target="_top" xlink:title="include/Database.h">
<polygon fill="none" stroke="black" points="620.5,-112.5 620.5,-131.5 721.5,-131.5 721.5,-112.5 620.5,-112.5"/>
<text text-anchor="middle" x="671" y="-119.5" font-family="Helvetica,sans-Serif" font-size="10.00">include/Database.h</text>
</a>
</g>
</g>
<!-- Node1&#45;&gt;Node6 -->
<g id="edge25" class="edge"><title>Node1&#45;&gt;Node6</title>
<path fill="none" stroke="midnightblue" d="M611,-215.957C626.387,-192.118 653.761,-149.709 665.455,-131.591"/>
<polygon fill="midnightblue" stroke="midnightblue" points="608.054,-214.069 605.571,-224.368 613.935,-217.865 608.054,-214.069"/>
</g>
<!-- Node7 -->
<g id="node7" class="node"><title>Node7</title>
<g id="a_node7"><a xlink:href="_socket_8h.html" target="_top" xlink:title="include/Socket.h">
<polygon fill="none" stroke="black" points="204.5,-112.5 204.5,-131.5 293.5,-131.5 293.5,-112.5 204.5,-112.5"/>
<text text-anchor="middle" x="249" y="-119.5" font-family="Helvetica,sans-Serif" font-size="10.00">include/Socket.h</text>
</a>
</g>
</g>
<!-- Node1&#45;&gt;Node7 -->
<g id="edge27" class="edge"><title>Node1&#45;&gt;Node7</title>
<path fill="none" stroke="midnightblue" d="M547.329,-231.901C466.622,-229.208 317.35,-219.93 276,-188 258.011,-174.109 251.909,-146.09 249.917,-131.806"/>
<polygon fill="midnightblue" stroke="midnightblue" points="547.665,-235.413 557.769,-232.225 547.882,-228.416 547.665,-235.413"/>
</g>
<!-- Node8 -->
<g id="node8" class="node"><title>Node8</title>
<g id="a_node8"><a xlink:href="_d_n_s_8h.html" target="_top" xlink:title="include/DNS.h">
<polygon fill="none" stroke="black" points="0,-56.5 0,-75.5 80,-75.5 80,-56.5 0,-56.5"/>
<text text-anchor="middle" x="40" y="-63.5" font-family="Helvetica,sans-Serif" font-size="10.00">include/DNS.h</text>
</a>
</g>
</g>
<!-- Node1&#45;&gt;Node8 -->
<g id="edge28" class="edge"><title>Node1&#45;&gt;Node8</title>
<path fill="none" stroke="midnightblue" d="M547.942,-232.614C443.025,-231.08 210.198,-223.634 140,-188 89.6973,-162.465 55.3611,-99.1122 44.0597,-75.7955"/>
<polygon fill="midnightblue" stroke="midnightblue" points="547.94,-236.114 557.986,-232.748 548.034,-229.115 547.94,-236.114"/>
</g>
<!-- Node10 -->
<g id="node10" class="node"><title>Node10</title>
<g id="a_node10"><a xlink:href="_simple_h_t_t_p_socket_8h.html" target="_top" xlink:title="include/SimpleHTTPSocket.h">
<polygon fill="none" stroke="black" points="98,-56.5 98,-75.5 244,-75.5 244,-56.5 98,-56.5"/>
<text text-anchor="middle" x="171" y="-63.5" font-family="Helvetica,sans-Serif" font-size="10.00">include/SimpleHTTPSocket.h</text>
</a>
</g>
</g>
<!-- Node1&#45;&gt;Node10 -->
<g id="edge35" class="edge"><title>Node1&#45;&gt;Node10</title>
<path fill="none" stroke="midnightblue" d="M547.644,-231.556C428.664,-226.955 144.559,-208.057 97,-132 81.4972,-107.208 119.723,-86.5345 146.816,-75.5394"/>
<polygon fill="midnightblue" stroke="midnightblue" points="547.833,-235.065 557.955,-231.935 548.09,-228.07 547.833,-235.065"/>
</g>
<!-- Node11 -->
<g id="node11" class="node"><title>Node11</title>
<g id="a_node11"><a xlink:href="_global_8h.html" target="_top" xlink:title="include/Global.h">
<polygon fill="none" stroke="black" points="740,-112.5 740,-131.5 826,-131.5 826,-112.5 740,-112.5"/>
<text text-anchor="middle" x="783" y="-119.5" font-family="Helvetica,sans-Serif" font-size="10.00">include/Global.h</text>
</a>
</g>
</g>
<!-- Node1&#45;&gt;Node11 -->
<g id="edge30" class="edge"><title>Node1&#45;&gt;Node11</title>
<path fill="none" stroke="midnightblue" d="M623.276,-219.009C661.689,-195.919 737.233,-150.51 768.707,-131.591"/>
<polygon fill="midnightblue" stroke="midnightblue" points="621.127,-216.217 614.36,-224.368 624.734,-222.216 621.127,-216.217"/>
</g>
<!-- Node15 -->
<g id="node15" class="node"><title>Node15</title>
<g id="a_node15"><a xlink:href="_sub_module_loader_8h.html" target="_top" xlink:title="include/SubModuleLoader.h">
<polygon fill="none" stroke="black" points="1021.5,-112.5 1021.5,-131.5 1158.5,-131.5 1158.5,-112.5 1021.5,-112.5"/>
<text text-anchor="middle" x="1090" y="-119.5" font-family="Helvetica,sans-Serif" font-size="10.00">include/SubModuleLoader.h</text>
</a>
</g>
</g>
<!-- Node1&#45;&gt;Node15 -->
<g id="edge37" class="edge"><title>Node1&#45;&gt;Node15</title>
<path fill="none" stroke="midnightblue" d="M652.379,-228.534C714.161,-222.537 819.64,-210.003 908,-188 968.557,-172.92 1037.19,-145.44 1070.2,-131.54"/>
<polygon fill="midnightblue" stroke="midnightblue" points="651.732,-225.08 642.108,-229.51 652.394,-232.048 651.732,-225.08"/>
</g>
<!-- Node16 -->
<g id="node16" class="node"><title>Node16</title>
<g id="a_node16"><a xlink:href="_compressor_8h.html" target="_top" xlink:title="include/Compressor.h">
<polygon fill="none" stroke="black" points="350,-112.5 350,-131.5 462,-131.5 462,-112.5 350,-112.5"/>
<text text-anchor="middle" x="406" y="-119.5" font-family="Helvetica,sans-Serif" font-size="10.00">include/Compressor.h</text>
</a>
</g>
</g>
<!-- Node1&#45;&gt;Node16 -->
<g id="edge17" class="edge"><title>Node1&#45;&gt;Node16</title>
<path fill="none" stroke="midnightblue" d="M575.84,-219.301C535.282,-196.304 454.66,-150.591 421.152,-131.591"/>
<polygon fill="midnightblue" stroke="midnightblue" points="574.352,-222.481 584.777,-224.368 577.805,-216.391 574.352,-222.481"/>
</g>
<!-- Node17 -->
<g id="node17" class="node"><title>Node17</title>
<g id="a_node17"><a xlink:href="_writer_8h.html" target="_top" xlink:title="include/Writer.h">
<polygon fill="none" stroke="black" points="285.5,-168.5 285.5,-187.5 370.5,-187.5 370.5,-168.5 285.5,-168.5"/>
<text text-anchor="middle" x="328" y="-175.5" font-family="Helvetica,sans-Serif" font-size="10.00">include/Writer.h</text>
</a>
</g>
</g>
<!-- Node1&#45;&gt;Node17 -->
<g id="edge18" class="edge"><title>Node1&#45;&gt;Node17</title>
<path fill="none" stroke="midnightblue" d="M547.874,-222.651C496.418,-212.436 418.681,-197.003 370.749,-187.487"/>
<polygon fill="midnightblue" stroke="midnightblue" points="547.308,-226.107 557.798,-224.622 548.671,-219.241 547.308,-226.107"/>
</g>
<!-- Node18 -->
<g id="node18" class="node"><title>Node18</title>
<g id="a_node18"><a xlink:href="_decompressor_8h.html" target="_top" xlink:title="include/Decompressor.h">
<polygon fill="none" stroke="black" points="480,-112.5 480,-131.5 602,-131.5 602,-112.5 480,-112.5"/>
<text text-anchor="middle" x="541" y="-119.5" font-family="Helvetica,sans-Serif" font-size="10.00">include/Decompressor.h</text>
</a>
</g>
</g>
<!-- Node1&#45;&gt;Node18 -->
<g id="edge26" class="edge"><title>Node1&#45;&gt;Node18</title>
<path fill="none" stroke="midnightblue" d="M590.517,-215.32C577.671,-191.37 555.24,-149.548 545.608,-131.591"/>
<polygon fill="midnightblue" stroke="midnightblue" points="587.559,-217.21 595.37,-224.368 593.728,-213.902 587.559,-217.21"/>
</g>
<!-- Node19 -->
<g id="node19" class="node"><title>Node19</title>
<g id="a_node19"><a xlink:href="_files_8h.html" target="_top" xlink:title="include/Files.h">
<polygon fill="none" stroke="black" points="106,-112.5 106,-131.5 186,-131.5 186,-112.5 106,-112.5"/>
<text text-anchor="middle" x="146" y="-119.5" font-family="Helvetica,sans-Serif" font-size="10.00">include/Files.h</text>
</a>
</g>
</g>
<!-- Node1&#45;&gt;Node19 -->
<g id="edge29" class="edge"><title>Node1&#45;&gt;Node19</title>
<path fill="none" stroke="midnightblue" d="M547.756,-232.544C479.217,-230.519 356.032,-221.932 257,-188 217.494,-174.464 176.476,-146.02 157.235,-131.671"/>
<polygon fill="midnightblue" stroke="midnightblue" points="547.781,-236.045 557.868,-232.806 547.962,-229.048 547.781,-236.045"/>
</g>
<!-- Node20 -->
<g id="node20" class="node"><title>Node20</title>
<g id="a_node20"><a xlink:href="_thread_8h.html" target="_top" xlink:title="include/Thread.h">
<polygon fill="none" stroke="black" points="1132.5,-168.5 1132.5,-187.5 1221.5,-187.5 1221.5,-168.5 1132.5,-168.5"/>
<text text-anchor="middle" x="1177" y="-175.5" font-family="Helvetica,sans-Serif" font-size="10.00">include/Thread.h</text>
</a>
</g>
</g>
<!-- Node1&#45;&gt;Node20 -->
<g id="edge31" class="edge"><title>Node1&#45;&gt;Node20</title>
<path fill="none" stroke="midnightblue" d="M652.505,-228.086C764.869,-217.57 1026.95,-193.042 1132.14,-183.198"/>
<polygon fill="midnightblue" stroke="midnightblue" points="652.059,-224.613 642.428,-229.029 652.711,-231.582 652.059,-224.613"/>
</g>
<!-- Node21 -->
<g id="node21" class="node"><title>Node21</title>
<g id="a_node21"><a xlink:href="_statsd_client_8h.html" target="_top" xlink:title="include/StatsdClient.h">
<polygon fill="none" stroke="black" points="1239.5,-168.5 1239.5,-187.5 1352.5,-187.5 1352.5,-168.5 1239.5,-168.5"/>
<text text-anchor="middle" x="1296" y="-175.5" font-family="Helvetica,sans-Serif" font-size="10.00">include/StatsdClient.h</text>
</a>
</g>
</g>
<!-- Node1&#45;&gt;Node21 -->
<g id="edge36" class="edge"><title>Node1&#45;&gt;Node21</title>
<path fill="none" stroke="midnightblue" d="M652.413,-230.397C760.567,-224.774 1016.26,-210.184 1230,-188 1232.99,-187.69 1236.05,-187.349 1239.15,-186.989"/>
<polygon fill="midnightblue" stroke="midnightblue" points="651.913,-226.918 642.106,-230.929 652.273,-233.909 651.913,-226.918"/>
</g>
<!-- Node22 -->
<g id="node22" class="node"><title>Node22</title>
<g id="a_node22"><a xlink:href="_term_utils_8h.html" target="_top" xlink:title="include/TermUtils.h">
<polygon fill="none" stroke="black" points="1370.5,-168.5 1370.5,-187.5 1471.5,-187.5 1471.5,-168.5 1370.5,-168.5"/>
<text text-anchor="middle" x="1421" y="-175.5" font-family="Helvetica,sans-Serif" font-size="10.00">include/TermUtils.h</text>
</a>
</g>
</g>
<!-- Node1&#45;&gt;Node22 -->
<g id="edge38" class="edge"><title>Node1&#45;&gt;Node22</title>
<path fill="none" stroke="midnightblue" d="M652.494,-231.52C776.202,-227.679 1095.59,-215.696 1361,-188 1364.04,-187.683 1367.16,-187.322 1370.3,-186.932"/>
<polygon fill="midnightblue" stroke="midnightblue" points="652.07,-228.032 642.182,-231.836 652.284,-235.028 652.07,-228.032"/>
</g>
<!-- Node3 -->
<g id="node3" class="node"><title>Node3</title>
<g id="a_node3"><a xlink:href="_timer_8h.html" target="_top" xlink:title="include/Timer.h">
<polygon fill="none" stroke="black" points="920.5,-112.5 920.5,-131.5 1003.5,-131.5 1003.5,-112.5 920.5,-112.5"/>
<text text-anchor="middle" x="962" y="-119.5" font-family="Helvetica,sans-Serif" font-size="10.00">include/Timer.h</text>
</a>
</g>
</g>
<!-- Node2&#45;&gt;Node3 -->
<g id="edge2" class="edge"><title>Node2&#45;&gt;Node3</title>
<path fill="none" stroke="midnightblue" d="M880.548,-163.726C900.546,-153.727 927.387,-140.307 944.691,-131.655"/>
<polygon fill="midnightblue" stroke="midnightblue" points="878.731,-160.721 871.352,-168.324 881.862,-166.982 878.731,-160.721"/>
</g>
<!-- Node2&#45;&gt;Node6 -->
<g id="edge5" class="edge"><title>Node2&#45;&gt;Node6</title>
<path fill="none" stroke="midnightblue" d="M815.257,-165.568C780.735,-155.381 730.995,-140.703 699.861,-131.516"/>
<polygon fill="midnightblue" stroke="midnightblue" points="814.421,-168.97 825.003,-168.444 816.403,-162.256 814.421,-168.97"/>
</g>
<!-- Node2&#45;&gt;Node7 -->
<g id="edge7" class="edge"><title>Node2&#45;&gt;Node7</title>
<path fill="none" stroke="midnightblue" d="M798.552,-172.319C704.447,-164.335 507.463,-147.443 341,-132 325.659,-130.577 308.887,-128.955 293.913,-127.485"/>
<polygon fill="midnightblue" stroke="midnightblue" points="798.435,-175.822 808.695,-173.179 799.026,-168.847 798.435,-175.822"/>
</g>
<!-- Node2&#45;&gt;Node11 -->
<g id="edge11" class="edge"><title>Node2&#45;&gt;Node11</title>
<path fill="none" stroke="midnightblue" d="M834.41,-162.101C821.632,-152.382 805.387,-140.027 794.615,-131.834"/>
<polygon fill="midnightblue" stroke="midnightblue" points="832.514,-165.056 842.593,-168.324 836.752,-159.484 832.514,-165.056"/>
</g>
<!-- Node12 -->
<g id="node12" class="node"><title>Node12</title>
<g id="a_node12"><a xlink:href="_job_thread_8h.html" target="_top" xlink:title="include/JobThread.h">
<polygon fill="none" stroke="black" points="840,-0.5 840,-19.5 944,-19.5 944,-0.5 840,-0.5"/>
<text text-anchor="middle" x="892" y="-7.5" font-family="Helvetica,sans-Serif" font-size="10.00">include/JobThread.h</text>
</a>
</g>
</g>
<!-- Node2&#45;&gt;Node12 -->
<g id="edge12" class="edge"><title>Node2&#45;&gt;Node12</title>
<path fill="none" stroke="midnightblue" d="M858.366,-157.93C866.609,-121.92 884.164,-45.2312 890.039,-19.5681"/>
<polygon fill="midnightblue" stroke="midnightblue" points="854.863,-157.546 856.043,-168.075 861.686,-159.108 854.863,-157.546"/>
</g>
<!-- Node13 -->
<g id="node13" class="node"><title>Node13</title>
<g id="a_node13"><a xlink:href="_pipe_8h.html" target="_top" xlink:title="include/Pipe.h">
<polygon fill="none" stroke="black" points="786,-56.5 786,-75.5 864,-75.5 864,-56.5 786,-56.5"/>
<text text-anchor="middle" x="825" y="-63.5" font-family="Helvetica,sans-Serif" font-size="10.00">include/Pipe.h</text>
</a>
</g>
</g>
<!-- Node2&#45;&gt;Node13 -->
<g id="edge13" class="edge"><title>Node2&#45;&gt;Node13</title>
<path fill="none" stroke="midnightblue" d="M849.169,-158.674C842.828,-134.625 831.957,-93.3881 827.265,-75.5914"/>
<polygon fill="midnightblue" stroke="midnightblue" points="845.791,-159.591 851.724,-168.368 852.559,-157.807 845.791,-159.591"/>
</g>
<!-- Node14 -->
<g id="node14" class="node"><title>Node14</title>
<g id="a_node14"><a xlink:href="_module_thread_8h.html" target="_top" xlink:title="include/ModuleThread.h">
<polygon fill="none" stroke="black" points="1177,-112.5 1177,-131.5 1297,-131.5 1297,-112.5 1177,-112.5"/>
<text text-anchor="middle" x="1237" y="-119.5" font-family="Helvetica,sans-Serif" font-size="10.00">include/ModuleThread.h</text>
</a>
</g>
</g>
<!-- Node2&#45;&gt;Node14 -->
<g id="edge15" class="edge"><title>Node2&#45;&gt;Node14</title>
<path fill="none" stroke="midnightblue" d="M909.154,-169.224C980.198,-159.207 1103.25,-141.857 1176.71,-131.501"/>
<polygon fill="midnightblue" stroke="midnightblue" points="908.475,-165.785 899.061,-170.647 909.452,-172.716 908.475,-165.785"/>
</g>
<!-- Node2&#45;&gt;Node15 -->
<g id="edge16" class="edge"><title>Node2&#45;&gt;Node15</title>
<path fill="none" stroke="midnightblue" d="M901.406,-166.153C945.997,-155.95 1011.85,-140.881 1052.78,-131.516"/>
<polygon fill="midnightblue" stroke="midnightblue" points="900.362,-162.801 891.395,-168.444 901.924,-169.625 900.362,-162.801"/>
</g>
<!-- Node4 -->
<g id="node4" class="node"><title>Node4</title>
<g id="a_node4"><a xlink:href="_backoff_timer_8h.html" target="_top" xlink:title="include/BackoffTimer.h">
<polygon fill="none" stroke="black" points="920.5,-56.5 920.5,-75.5 1037.5,-75.5 1037.5,-56.5 920.5,-56.5"/>
<text text-anchor="middle" x="979" y="-63.5" font-family="Helvetica,sans-Serif" font-size="10.00">include/BackoffTimer.h</text>
</a>
</g>
</g>
<!-- Node3&#45;&gt;Node4 -->
<g id="edge3" class="edge"><title>Node3&#45;&gt;Node4</title>
<path fill="none" stroke="midnightblue" d="M967.857,-102.396C970.701,-93.362 973.983,-82.936 976.245,-75.7511"/>
<polygon fill="midnightblue" stroke="midnightblue" points="964.472,-101.493 964.807,-112.083 971.149,-103.596 964.472,-101.493"/>
</g>
<!-- Node5 -->
<g id="node5" class="node"><title>Node5</title>
<g id="a_node5"><a xlink:href="_postgres_8h.html" target="_top" xlink:title="include/Postgres.h">
<polygon fill="none" stroke="black" points="695,-0.5 695,-19.5 793,-19.5 793,-0.5 695,-0.5"/>
<text text-anchor="middle" x="744" y="-7.5" font-family="Helvetica,sans-Serif" font-size="10.00">include/Postgres.h</text>
</a>
</g>
</g>
<!-- Node4&#45;&gt;Node5 -->
<g id="edge4" class="edge"><title>Node4&#45;&gt;Node5</title>
<path fill="none" stroke="midnightblue" d="M931.795,-54.1529C887.393,-43.95 821.815,-28.8809 781.062,-19.5164"/>
<polygon fill="midnightblue" stroke="midnightblue" points="931.234,-57.6151 941.764,-56.4435 932.801,-50.7929 931.234,-57.6151"/>
</g>
<!-- Node6&#45;&gt;Node5 -->
<g id="edge6" class="edge"><title>Node6&#45;&gt;Node5</title>
<path fill="none" stroke="midnightblue" d="M682.31,-103.957C698.131,-80.1184 726.275,-37.7088 738.298,-19.5914"/>
<polygon fill="midnightblue" stroke="midnightblue" points="679.341,-102.101 676.728,-112.368 685.174,-105.972 679.341,-102.101"/>
</g>
<!-- Node7&#45;&gt;Node8 -->
<g id="edge8" class="edge"><title>Node7&#45;&gt;Node8</title>
<path fill="none" stroke="midnightblue" d="M206.016,-109.894C166.548,-99.6966 108.9,-84.802 72.9617,-75.5164"/>
<polygon fill="midnightblue" stroke="midnightblue" points="205.326,-113.331 215.883,-112.444 207.077,-106.553 205.326,-113.331"/>
</g>
<!-- Node9 -->
<g id="node9" class="node"><title>Node9</title>
<g id="a_node9"><a xlink:href="_listener_8h.html" target="_top" xlink:title="include/Listener.h">
<polygon fill="none" stroke="black" points="262.5,-56.5 262.5,-75.5 355.5,-75.5 355.5,-56.5 262.5,-56.5"/>
<text text-anchor="middle" x="309" y="-63.5" font-family="Helvetica,sans-Serif" font-size="10.00">include/Listener.h</text>
</a>
</g>
</g>
<!-- Node7&#45;&gt;Node9 -->
<g id="edge9" class="edge"><title>Node7&#45;&gt;Node9</title>
<path fill="none" stroke="midnightblue" d="M266.181,-105.537C276.879,-95.9087 290.256,-83.8694 299.185,-75.8339"/>
<polygon fill="midnightblue" stroke="midnightblue" points="263.732,-103.033 258.64,-112.324 268.414,-108.236 263.732,-103.033"/>
</g>
<!-- Node7&#45;&gt;Node10 -->
<g id="edge10" class="edge"><title>Node7&#45;&gt;Node10</title>
<path fill="none" stroke="midnightblue" d="M228.232,-106.622C213.983,-96.7574 195.544,-83.9919 183.501,-75.6545"/>
<polygon fill="midnightblue" stroke="midnightblue" points="226.254,-109.51 236.468,-112.324 230.238,-103.754 226.254,-109.51"/>
</g>
<!-- Node13&#45;&gt;Node12 -->
<g id="edge14" class="edge"><title>Node13&#45;&gt;Node12</title>
<path fill="none" stroke="midnightblue" d="M843.835,-49.8197C855.838,-40.1452 870.972,-27.9481 881.039,-19.8339"/>
<polygon fill="midnightblue" stroke="midnightblue" points="841.354,-47.3236 835.765,-56.324 845.747,-52.7738 841.354,-47.3236"/>
</g>
<!-- Node17&#45;&gt;Node7 -->
<g id="edge21" class="edge"><title>Node17&#45;&gt;Node7</title>
<path fill="none" stroke="midnightblue" d="M306.966,-162.622C292.534,-152.757 273.859,-139.992 261.661,-131.655"/>
<polygon fill="midnightblue" stroke="midnightblue" points="305.077,-165.57 315.307,-168.324 309.027,-159.791 305.077,-165.57"/>
</g>
<!-- Node17&#45;&gt;Node13 -->
<g id="edge24" class="edge"><title>Node17&#45;&gt;Node13</title>
<path fill="none" stroke="midnightblue" d="M326.232,-158.206C325.969,-143.4 328.324,-123.414 341,-112 373.807,-82.4596 676.35,-71.1457 785.755,-67.9986"/>
<polygon fill="midnightblue" stroke="midnightblue" points="322.744,-158.51 326.816,-168.291 329.732,-158.105 322.744,-158.51"/>
</g>
<!-- Node17&#45;&gt;Node16 -->
<g id="edge19" class="edge"><title>Node17&#45;&gt;Node16</title>
<path fill="none" stroke="midnightblue" d="M348.768,-162.622C363.017,-152.757 381.456,-139.992 393.499,-131.655"/>
<polygon fill="midnightblue" stroke="midnightblue" points="346.762,-159.754 340.532,-168.324 350.746,-165.51 346.762,-159.754"/>
</g>
<!-- Node17&#45;&gt;Node18 -->
<g id="edge20" class="edge"><title>Node17&#45;&gt;Node18</title>
<path fill="none" stroke="midnightblue" d="M371.551,-165.959C411.781,-155.76 470.703,-140.822 507.407,-131.516"/>
<polygon fill="midnightblue" stroke="midnightblue" points="370.584,-162.593 361.75,-168.444 372.304,-169.379 370.584,-162.593"/>
</g>
<!-- Node17&#45;&gt;Node19 -->
<g id="edge22" class="edge"><title>Node17&#45;&gt;Node19</title>
<path fill="none" stroke="midnightblue" d="M289.469,-165.568C255.136,-155.381 205.667,-140.703 174.704,-131.516"/>
<polygon fill="midnightblue" stroke="midnightblue" points="288.579,-168.954 299.162,-168.444 290.57,-162.244 288.579,-168.954"/>
</g>
<!-- Node19&#45;&gt;Node13 -->
<g id="edge23" class="edge"><title>Node19&#45;&gt;Node13</title>
<path fill="none" stroke="midnightblue" d="M196.248,-111.983C425.297,-83.3696 687.975,-71.8507 785.777,-68.2965"/>
<polygon fill="midnightblue" stroke="midnightblue" points="195.538,-108.545 186.055,-113.271 196.415,-115.49 195.538,-108.545"/>
</g>
<!-- Node20&#45;&gt;Node12 -->
<g id="edge32" class="edge"><title>Node20&#45;&gt;Node12</title>
<path fill="none" stroke="midnightblue" d="M1231.65,-167.01C1267.97,-159.131 1310.96,-146.984 1322,-132 1327.27,-124.843 1327.52,-118.967 1322,-112 1275.33,-53.0974 1048.07,-25.1851 944.099,-15.3368"/>
<polygon fill="midnightblue" stroke="midnightblue" points="1230.68,-163.638 1221.61,-169.119 1232.12,-170.488 1230.68,-163.638"/>
</g>
<!-- Node20&#45;&gt;Node13 -->
<g id="edge33" class="edge"><title>Node20&#45;&gt;Node13</title>
<path fill="none" stroke="midnightblue" d="M1226.52,-165.996C1258.7,-157.729 1296.38,-145.538 1306,-132 1311.15,-124.753 1311.99,-118.564 1306,-112 1276.29,-79.4537 954.861,-80.2936 911,-76 895.761,-74.5082 879.012,-72.7764 864.377,-71.2327"/>
<polygon fill="midnightblue" stroke="midnightblue" points="1225.61,-162.617 1216.75,-168.433 1227.3,-169.409 1225.61,-162.617"/>
</g>
<!-- Node20&#45;&gt;Node14 -->
<g id="edge34" class="edge"><title>Node20&#45;&gt;Node14</title>
<path fill="none" stroke="midnightblue" d="M1194.18,-161.537C1204.88,-151.909 1218.26,-139.869 1227.18,-131.834"/>
<polygon fill="midnightblue" stroke="midnightblue" points="1191.73,-159.033 1186.64,-168.324 1196.41,-164.236 1191.73,-159.033"/>
</g>
</g>
</svg>
