<?xml version="1.0" encoding="UTF-8" standalone="no"?>
<!DOCTYPE svg PUBLIC "-//W3C//DTD SVG 1.1//EN"
 "http://www.w3.org/Graphics/SVG/1.1/DTD/svg11.dtd">
<!-- Generated by graphviz version 2.34.0 (20140110.0949)
 -->
<!-- Title: include/String.h Pages: 1 -->
<svg width="1545pt" height="252pt"
 viewBox="0.00 0.00 1545.00 252.00" xmlns="http://www.w3.org/2000/svg" xmlns:xlink="http://www.w3.org/1999/xlink">
<g id="graph0" class="graph" transform="scale(1 1) rotate(0) translate(4 248)">
<title>include/String.h</title>
<!-- Node1 -->
<g id="node1" class="node"><title>Node1</title>
<polygon fill="#bfbfbf" stroke="black" points="912,-224.5 912,-243.5 996,-243.5 996,-224.5 912,-224.5"/>
<text text-anchor="middle" x="954" y="-231.5" font-family="Helvetica,sans-Serif" font-size="10.00">include/String.h</text>
</g>
<!-- Node2 -->
<g id="node2" class="node"><title>Node2</title>
<g id="a_node2"><a xlink:href="_module_8h.html" target="_top" xlink:title="include/Module.h">
<polygon fill="none" stroke="black" points="445,-168.5 445,-187.5 535,-187.5 535,-168.5 445,-168.5"/>
<text text-anchor="middle" x="490" y="-175.5" font-family="Helvetica,sans-Serif" font-size="10.00">include/Module.h</text>
</a>
</g>
</g>
<!-- Node1&#45;&gt;Node2 -->
<g id="edge1" class="edge"><title>Node1&#45;&gt;Node2</title>
<path fill="none" stroke="midnightblue" d="M901.416,-226.88C809.587,-216.193 621.559,-194.311 535.197,-184.26"/>
<polygon fill="midnightblue" stroke="midnightblue" points="901.255,-230.385 911.593,-228.065 902.065,-223.432 901.255,-230.385"/>
</g>
<!-- Node6 -->
<g id="node6" class="node"><title>Node6</title>
<g id="a_node6"><a xlink:href="_database_8h.html" target="_top" xlink:title="include/Database.h">
<polygon fill="none" stroke="black" points="-0.5,-112.5 -0.5,-131.5 100.5,-131.5 100.5,-112.5 -0.5,-112.5"/>
<text text-anchor="middle" x="50" y="-119.5" font-family="Helvetica,sans-Serif" font-size="10.00">include/Database.h</text>
</a>
</g>
</g>
<!-- Node1&#45;&gt;Node6 -->
<g id="edge28" class="edge"><title>Node1&#45;&gt;Node6</title>
<path fill="none" stroke="midnightblue" d="M901.462,-232.757C789.551,-231.507 519.681,-224.589 297,-188 214.959,-174.52 120.594,-145.917 75.9681,-131.576"/>
<polygon fill="midnightblue" stroke="midnightblue" points="901.757,-236.261 911.792,-232.862 901.828,-229.261 901.757,-236.261"/>
</g>
<!-- Node7 -->
<g id="node7" class="node"><title>Node7</title>
<g id="a_node7"><a xlink:href="_socket_8h.html" target="_top" xlink:title="include/Socket.h">
<polygon fill="none" stroke="black" points="982.5,-112.5 982.5,-131.5 1071.5,-131.5 1071.5,-112.5 982.5,-112.5"/>
<text text-anchor="middle" x="1027" y="-119.5" font-family="Helvetica,sans-Serif" font-size="10.00">include/Socket.h</text>
</a>
</g>
</g>
<!-- Node1&#45;&gt;Node7 -->
<g id="edge30" class="edge"><title>Node1&#45;&gt;Node7</title>
<path fill="none" stroke="midnightblue" d="M965.31,-215.957C981.131,-192.118 1009.28,-149.709 1021.3,-131.591"/>
<polygon fill="midnightblue" stroke="midnightblue" points="962.341,-214.101 959.728,-224.368 968.174,-217.972 962.341,-214.101"/>
</g>
<!-- Node8 -->
<g id="node8" class="node"><title>Node8</title>
<g id="a_node8"><a xlink:href="_d_n_s_8h.html" target="_top" xlink:title="include/DNS.h">
<polygon fill="none" stroke="black" points="934,-56.5 934,-75.5 1014,-75.5 1014,-56.5 934,-56.5"/>
<text text-anchor="middle" x="974" y="-63.5" font-family="Helvetica,sans-Serif" font-size="10.00">include/DNS.h</text>
</a>
</g>
</g>
<!-- Node1&#45;&gt;Node8 -->
<g id="edge31" class="edge"><title>Node1&#45;&gt;Node8</title>
<path fill="none" stroke="midnightblue" d="M956.298,-213.93C960.636,-177.92 969.876,-101.231 972.968,-75.5681"/>
<polygon fill="midnightblue" stroke="midnightblue" points="952.797,-213.728 955.075,-224.075 959.746,-214.566 952.797,-213.728"/>
</g>
<!-- Node10 -->
<g id="node10" class="node"><title>Node10</title>
<g id="a_node10"><a xlink:href="_simple_h_t_t_p_socket_8h.html" target="_top" xlink:title="include/SimpleHTTPSocket.h">
<polygon fill="none" stroke="black" points="1128,-56.5 1128,-75.5 1274,-75.5 1274,-56.5 1128,-56.5"/>
<text text-anchor="middle" x="1201" y="-63.5" font-family="Helvetica,sans-Serif" font-size="10.00">include/SimpleHTTPSocket.h</text>
</a>
</g>
</g>
<!-- Node1&#45;&gt;Node10 -->
<g id="edge39" class="edge"><title>Node1&#45;&gt;Node10</title>
<path fill="none" stroke="midnightblue" d="M1006.3,-227.783C1104.51,-216.763 1310.32,-187.45 1351,-132 1375.47,-98.6482 1323.46,-82.2038 1274.12,-74.2257"/>
<polygon fill="midnightblue" stroke="midnightblue" points="1005.85,-224.312 996.29,-228.885 1006.61,-231.27 1005.85,-224.312"/>
</g>
<!-- Node11 -->
<g id="node11" class="node"><title>Node11</title>
<g id="a_node11"><a xlink:href="_statsd_client_8h.html" target="_top" xlink:title="include/StatsdClient.h">
<polygon fill="none" stroke="black" points="1321.5,-56.5 1321.5,-75.5 1434.5,-75.5 1434.5,-56.5 1321.5,-56.5"/>
<text text-anchor="middle" x="1378" y="-63.5" font-family="Helvetica,sans-Serif" font-size="10.00">include/StatsdClient.h</text>
</a>
</g>
</g>
<!-- Node1&#45;&gt;Node11 -->
<g id="edge40" class="edge"><title>Node1&#45;&gt;Node11</title>
<path fill="none" stroke="midnightblue" d="M1006.25,-232.813C1072.44,-231.023 1189.08,-222.632 1282,-188 1324.74,-172.07 1343.27,-170.323 1368,-132 1379.27,-114.541 1379.57,-89.0532 1378.8,-75.7771"/>
<polygon fill="midnightblue" stroke="midnightblue" points="1005.98,-229.318 996.067,-233.047 1006.15,-236.316 1005.98,-229.318"/>
</g>
<!-- Node12 -->
<g id="node12" class="node"><title>Node12</title>
<g id="a_node12"><a xlink:href="_global_8h.html" target="_top" xlink:title="include/Global.h">
<polygon fill="none" stroke="black" points="119,-112.5 119,-131.5 205,-131.5 205,-112.5 119,-112.5"/>
<text text-anchor="middle" x="162" y="-119.5" font-family="Helvetica,sans-Serif" font-size="10.00">include/Global.h</text>
</a>
</g>
</g>
<!-- Node1&#45;&gt;Node12 -->
<g id="edge33" class="edge"><title>Node1&#45;&gt;Node12</title>
<path fill="none" stroke="midnightblue" d="M901.753,-232.618C800.175,-231.061 569.325,-223.532 379,-188 306.513,-174.467 223.801,-145.889 184.726,-131.564"/>
<polygon fill="midnightblue" stroke="midnightblue" points="901.706,-236.118 911.754,-232.758 901.804,-229.118 901.706,-236.118"/>
</g>
<!-- Node16 -->
<g id="node16" class="node"><title>Node16</title>
<g id="a_node16"><a xlink:href="_sub_module_loader_8h.html" target="_top" xlink:title="include/SubModuleLoader.h">
<polygon fill="none" stroke="black" points="223.5,-112.5 223.5,-131.5 360.5,-131.5 360.5,-112.5 223.5,-112.5"/>
<text text-anchor="middle" x="292" y="-119.5" font-family="Helvetica,sans-Serif" font-size="10.00">include/SubModuleLoader.h</text>
</a>
</g>
</g>
<!-- Node1&#45;&gt;Node16 -->
<g id="edge41" class="edge"><title>Node1&#45;&gt;Node16</title>
<path fill="none" stroke="midnightblue" d="M901.797,-230.697C788.451,-225.335 523.028,-210.717 436,-188 386.105,-174.976 331.833,-146.026 306.522,-131.565"/>
<polygon fill="midnightblue" stroke="midnightblue" points="901.805,-234.201 911.958,-231.172 902.132,-227.209 901.805,-234.201"/>
</g>
<!-- Node17 -->
<g id="node17" class="node"><title>Node17</title>
<g id="a_node17"><a xlink:href="_compressor_8h.html" target="_top" xlink:title="include/Compressor.h">
<polygon fill="none" stroke="black" points="1090,-112.5 1090,-131.5 1202,-131.5 1202,-112.5 1090,-112.5"/>
<text text-anchor="middle" x="1146" y="-119.5" font-family="Helvetica,sans-Serif" font-size="10.00">include/Compressor.h</text>
</a>
</g>
</g>
<!-- Node1&#45;&gt;Node17 -->
<g id="edge18" class="edge"><title>Node1&#45;&gt;Node17</title>
<path fill="none" stroke="midnightblue" d="M1006.33,-229.19C1040.31,-224.289 1083.74,-213.165 1114,-188 1131.99,-173.041 1140.73,-145.506 1144.17,-131.567"/>
<polygon fill="midnightblue" stroke="midnightblue" points="1005.58,-225.758 996.111,-230.52 1006.48,-232.7 1005.58,-225.758"/>
</g>
<!-- Node18 -->
<g id="node18" class="node"><title>Node18</title>
<g id="a_node18"><a xlink:href="_writer_8h.html" target="_top" xlink:title="include/Writer.h">
<polygon fill="none" stroke="black" points="1020.5,-168.5 1020.5,-187.5 1105.5,-187.5 1105.5,-168.5 1020.5,-168.5"/>
<text text-anchor="middle" x="1063" y="-175.5" font-family="Helvetica,sans-Serif" font-size="10.00">include/Writer.h</text>
</a>
</g>
</g>
<!-- Node1&#45;&gt;Node18 -->
<g id="edge19" class="edge"><title>Node1&#45;&gt;Node18</title>
<path fill="none" stroke="midnightblue" d="M980.519,-219.862C1000.73,-209.849 1027.99,-196.346 1045.53,-187.655"/>
<polygon fill="midnightblue" stroke="midnightblue" points="978.92,-216.748 971.513,-224.324 982.027,-223.021 978.92,-216.748"/>
</g>
<!-- Node19 -->
<g id="node19" class="node"><title>Node19</title>
<g id="a_node19"><a xlink:href="_decompressor_8h.html" target="_top" xlink:title="include/Decompressor.h">
<polygon fill="none" stroke="black" points="1220,-112.5 1220,-131.5 1342,-131.5 1342,-112.5 1220,-112.5"/>
<text text-anchor="middle" x="1281" y="-119.5" font-family="Helvetica,sans-Serif" font-size="10.00">include/Decompressor.h</text>
</a>
</g>
</g>
<!-- Node1&#45;&gt;Node19 -->
<g id="edge29" class="edge"><title>Node1&#45;&gt;Node19</title>
<path fill="none" stroke="midnightblue" d="M1006.24,-222.556C1042.78,-214.637 1092.46,-202.632 1135,-188 1183.28,-171.396 1237.58,-145.081 1264.31,-131.592"/>
<polygon fill="midnightblue" stroke="midnightblue" points="1005.35,-219.167 996.301,-224.68 1006.81,-226.013 1005.35,-219.167"/>
</g>
<!-- Node20 -->
<g id="node20" class="node"><title>Node20</title>
<g id="a_node20"><a xlink:href="_files_8h.html" target="_top" xlink:title="include/Files.h">
<polygon fill="none" stroke="black" points="770,-112.5 770,-131.5 850,-131.5 850,-112.5 770,-112.5"/>
<text text-anchor="middle" x="810" y="-119.5" font-family="Helvetica,sans-Serif" font-size="10.00">include/Files.h</text>
</a>
</g>
</g>
<!-- Node1&#45;&gt;Node20 -->
<g id="edge32" class="edge"><title>Node1&#45;&gt;Node20</title>
<path fill="none" stroke="midnightblue" d="M934.517,-218.118C903.952,-194.769 845.699,-150.27 821.247,-131.591"/>
<polygon fill="midnightblue" stroke="midnightblue" points="932.629,-221.079 942.701,-224.368 936.878,-215.517 932.629,-221.079"/>
</g>
<!-- Node21 -->
<g id="node21" class="node"><title>Node21</title>
<g id="a_node21"><a xlink:href="_logger_8h.html" target="_top" xlink:title="include/Logger.h">
<polygon fill="none" stroke="black" points="828,-56.5 828,-75.5 916,-75.5 916,-56.5 828,-56.5"/>
<text text-anchor="middle" x="872" y="-63.5" font-family="Helvetica,sans-Serif" font-size="10.00">include/Logger.h</text>
</a>
</g>
</g>
<!-- Node1&#45;&gt;Node21 -->
<g id="edge38" class="edge"><title>Node1&#45;&gt;Node21</title>
<path fill="none" stroke="midnightblue" d="M945.037,-214.856C927.45,-179.252 889.019,-101.453 876.232,-75.5681"/>
<polygon fill="midnightblue" stroke="midnightblue" points="942.024,-216.659 949.591,-224.075 948.3,-213.559 942.024,-216.659"/>
</g>
<!-- Node22 -->
<g id="node22" class="node"><title>Node22</title>
<g id="a_node22"><a xlink:href="_thread_8h.html" target="_top" xlink:title="include/Thread.h">
<polygon fill="none" stroke="black" points="678.5,-168.5 678.5,-187.5 767.5,-187.5 767.5,-168.5 678.5,-168.5"/>
<text text-anchor="middle" x="723" y="-175.5" font-family="Helvetica,sans-Serif" font-size="10.00">include/Thread.h</text>
</a>
</g>
</g>
<!-- Node1&#45;&gt;Node22 -->
<g id="edge34" class="edge"><title>Node1&#45;&gt;Node22</title>
<path fill="none" stroke="midnightblue" d="M907.598,-222.153C863.953,-211.95 799.49,-196.881 759.431,-187.516"/>
<polygon fill="midnightblue" stroke="midnightblue" points="906.863,-225.575 917.397,-224.444 908.457,-218.759 906.863,-225.575"/>
</g>
<!-- Node23 -->
<g id="node23" class="node"><title>Node23</title>
<g id="a_node23"><a xlink:href="_term_utils_8h.html" target="_top" xlink:title="include/TermUtils.h">
<polygon fill="none" stroke="black" points="1436.5,-168.5 1436.5,-187.5 1537.5,-187.5 1537.5,-168.5 1436.5,-168.5"/>
<text text-anchor="middle" x="1487" y="-175.5" font-family="Helvetica,sans-Serif" font-size="10.00">include/TermUtils.h</text>
</a>
</g>
</g>
<!-- Node1&#45;&gt;Node23 -->
<g id="edge42" class="edge"><title>Node1&#45;&gt;Node23</title>
<path fill="none" stroke="midnightblue" d="M1006.1,-228.705C1092.6,-221.415 1271.26,-205.675 1422,-188 1426.64,-187.456 1431.46,-186.855 1436.28,-186.23"/>
<polygon fill="midnightblue" stroke="midnightblue" points="1005.69,-225.227 996.014,-229.552 1006.27,-232.203 1005.69,-225.227"/>
</g>
<!-- Node3 -->
<g id="node3" class="node"><title>Node3</title>
<g id="a_node3"><a xlink:href="_timer_8h.html" target="_top" xlink:title="include/Timer.h">
<polygon fill="none" stroke="black" points="378.5,-112.5 378.5,-131.5 461.5,-131.5 461.5,-112.5 378.5,-112.5"/>
<text text-anchor="middle" x="420" y="-119.5" font-family="Helvetica,sans-Serif" font-size="10.00">include/Timer.h</text>
</a>
</g>
</g>
<!-- Node2&#45;&gt;Node3 -->
<g id="edge2" class="edge"><title>Node2&#45;&gt;Node3</title>
<path fill="none" stroke="midnightblue" d="M470.686,-162.101C458.088,-152.382 442.072,-140.027 431.451,-131.834"/>
<polygon fill="midnightblue" stroke="midnightblue" points="468.698,-164.987 478.753,-168.324 472.973,-159.445 468.698,-164.987"/>
</g>
<!-- Node2&#45;&gt;Node6 -->
<g id="edge5" class="edge"><title>Node2&#45;&gt;Node6</title>
<path fill="none" stroke="midnightblue" d="M434.878,-171.015C360.887,-162.857 225.395,-147.483 110,-132 106.973,-131.594 103.861,-131.164 100.723,-130.721"/>
<polygon fill="midnightblue" stroke="midnightblue" points="434.579,-174.503 444.901,-172.117 435.344,-167.545 434.579,-174.503"/>
</g>
<!-- Node2&#45;&gt;Node7 -->
<g id="edge7" class="edge"><title>Node2&#45;&gt;Node7</title>
<path fill="none" stroke="midnightblue" d="M545.573,-171.412C652.463,-160.663 884.745,-137.305 982.367,-127.488"/>
<polygon fill="midnightblue" stroke="midnightblue" points="544.921,-167.959 535.322,-172.443 545.622,-174.924 544.921,-167.959"/>
</g>
<!-- Node2&#45;&gt;Node12 -->
<g id="edge12" class="edge"><title>Node2&#45;&gt;Node12</title>
<path fill="none" stroke="midnightblue" d="M434.538,-168.12C378.788,-159.156 290.398,-144.839 214,-132 211.109,-131.514 208.128,-131.009 205.125,-130.497"/>
<polygon fill="midnightblue" stroke="midnightblue" points="434.129,-171.599 444.557,-169.73 435.239,-164.688 434.129,-171.599"/>
</g>
<!-- Node13 -->
<g id="node13" class="node"><title>Node13</title>
<g id="a_node13"><a xlink:href="_job_thread_8h.html" target="_top" xlink:title="include/JobThread.h">
<polygon fill="none" stroke="black" points="652,-0.5 652,-19.5 756,-19.5 756,-0.5 652,-0.5"/>
<text text-anchor="middle" x="704" y="-7.5" font-family="Helvetica,sans-Serif" font-size="10.00">include/JobThread.h</text>
</a>
</g>
</g>
<!-- Node2&#45;&gt;Node13 -->
<g id="edge13" class="edge"><title>Node2&#45;&gt;Node13</title>
<path fill="none" stroke="midnightblue" d="M494.942,-158.841C499.537,-144.71 507.57,-125.327 520,-112 564.988,-63.7666 638.34,-33.249 677.459,-19.5075"/>
<polygon fill="midnightblue" stroke="midnightblue" points="491.585,-157.853 492.083,-168.436 498.293,-159.852 491.585,-157.853"/>
</g>
<!-- Node14 -->
<g id="node14" class="node"><title>Node14</title>
<g id="a_node14"><a xlink:href="_pipe_8h.html" target="_top" xlink:title="include/Pipe.h">
<polygon fill="none" stroke="black" points="732,-56.5 732,-75.5 810,-75.5 810,-56.5 732,-56.5"/>
<text text-anchor="middle" x="771" y="-63.5" font-family="Helvetica,sans-Serif" font-size="10.00">include/Pipe.h</text>
</a>
</g>
</g>
<!-- Node2&#45;&gt;Node14 -->
<g id="edge14" class="edge"><title>Node2&#45;&gt;Node14</title>
<path fill="none" stroke="midnightblue" d="M500.687,-159.362C510.737,-144.357 527.179,-123.469 547,-112 605.365,-78.2275 684.993,-69.4651 731.907,-67.3891"/>
<polygon fill="midnightblue" stroke="midnightblue" points="497.466,-157.902 495.035,-168.214 503.366,-161.669 497.466,-157.902"/>
</g>
<!-- Node15 -->
<g id="node15" class="node"><title>Node15</title>
<g id="a_node15"><a xlink:href="_module_thread_8h.html" target="_top" xlink:title="include/ModuleThread.h">
<polygon fill="none" stroke="black" points="556,-112.5 556,-131.5 676,-131.5 676,-112.5 556,-112.5"/>
<text text-anchor="middle" x="616" y="-119.5" font-family="Helvetica,sans-Serif" font-size="10.00">include/ModuleThread.h</text>
</a>
</g>
</g>
<!-- Node2&#45;&gt;Node15 -->
<g id="edge16" class="edge"><title>Node2&#45;&gt;Node15</title>
<path fill="none" stroke="midnightblue" d="M519.16,-164.503C542.781,-154.38 575.428,-140.388 596.128,-131.516"/>
<polygon fill="midnightblue" stroke="midnightblue" points="517.778,-161.287 509.965,-168.444 520.535,-167.721 517.778,-161.287"/>
</g>
<!-- Node2&#45;&gt;Node16 -->
<g id="edge17" class="edge"><title>Node2&#45;&gt;Node16</title>
<path fill="none" stroke="midnightblue" d="M448.562,-165.699C411.193,-155.507 357.057,-140.743 323.227,-131.516"/>
<polygon fill="midnightblue" stroke="midnightblue" points="448.058,-169.189 458.626,-168.444 449.9,-162.436 448.058,-169.189"/>
</g>
<!-- Node4 -->
<g id="node4" class="node"><title>Node4</title>
<g id="a_node4"><a xlink:href="_backoff_timer_8h.html" target="_top" xlink:title="include/BackoffTimer.h">
<polygon fill="none" stroke="black" points="278.5,-56.5 278.5,-75.5 395.5,-75.5 395.5,-56.5 278.5,-56.5"/>
<text text-anchor="middle" x="337" y="-63.5" font-family="Helvetica,sans-Serif" font-size="10.00">include/BackoffTimer.h</text>
</a>
</g>
</g>
<!-- Node3&#45;&gt;Node4 -->
<g id="edge3" class="edge"><title>Node3&#45;&gt;Node4</title>
<path fill="none" stroke="midnightblue" d="M397.901,-106.622C382.738,-96.7574 363.117,-83.9919 350.302,-75.6545"/>
<polygon fill="midnightblue" stroke="midnightblue" points="396.374,-109.804 406.665,-112.324 400.191,-103.937 396.374,-109.804"/>
</g>
<!-- Node5 -->
<g id="node5" class="node"><title>Node5</title>
<g id="a_node5"><a xlink:href="_postgres_8h.html" target="_top" xlink:title="include/Postgres.h">
<polygon fill="none" stroke="black" points="178,-0.5 178,-19.5 276,-19.5 276,-0.5 178,-0.5"/>
<text text-anchor="middle" x="227" y="-7.5" font-family="Helvetica,sans-Serif" font-size="10.00">include/Postgres.h</text>
</a>
</g>
</g>
<!-- Node4&#45;&gt;Node5 -->
<g id="edge4" class="edge"><title>Node4&#45;&gt;Node5</title>
<path fill="none" stroke="midnightblue" d="M310.238,-51.8622C289.841,-41.8492 262.334,-28.3458 244.63,-19.6545"/>
<polygon fill="midnightblue" stroke="midnightblue" points="308.808,-55.059 319.327,-56.324 311.892,-48.7753 308.808,-55.059"/>
</g>
<!-- Node6&#45;&gt;Node5 -->
<g id="edge6" class="edge"><title>Node6&#45;&gt;Node5</title>
<path fill="none" stroke="midnightblue" d="M72.5131,-107.009C109.667,-83.919 182.733,-38.5104 213.176,-19.5914"/>
<polygon fill="midnightblue" stroke="midnightblue" points="70.5349,-104.117 63.8889,-112.368 74.2298,-110.063 70.5349,-104.117"/>
</g>
<!-- Node7&#45;&gt;Node8 -->
<g id="edge8" class="edge"><title>Node7&#45;&gt;Node8</title>
<path fill="none" stroke="midnightblue" d="M1011.02,-104.718C1001.68,-95.1997 990.254,-83.5608 982.589,-75.7511"/>
<polygon fill="midnightblue" stroke="midnightblue" points="1008.75,-107.398 1018.25,-112.083 1013.74,-102.494 1008.75,-107.398"/>
</g>
<!-- Node9 -->
<g id="node9" class="node"><title>Node9</title>
<g id="a_node9"><a xlink:href="_listener_8h.html" target="_top" xlink:title="include/Listener.h">
<polygon fill="none" stroke="black" points="910.5,-0.5 910.5,-19.5 1003.5,-19.5 1003.5,-0.5 910.5,-0.5"/>
<text text-anchor="middle" x="957" y="-7.5" font-family="Helvetica,sans-Serif" font-size="10.00">include/Listener.h</text>
</a>
</g>
</g>
<!-- Node7&#45;&gt;Node9 -->
<g id="edge9" class="edge"><title>Node7&#45;&gt;Node9</title>
<path fill="none" stroke="midnightblue" d="M1030.04,-102.168C1031.3,-88.4783 1030.94,-69.9754 1023,-56 1013.27,-38.88 994.025,-26.907 978.818,-19.6385"/>
<polygon fill="midnightblue" stroke="midnightblue" points="1026.54,-101.967 1028.74,-112.33 1033.48,-102.856 1026.54,-101.967"/>
</g>
<!-- Node7&#45;&gt;Node10 -->
<g id="edge10" class="edge"><title>Node7&#45;&gt;Node10</title>
<path fill="none" stroke="midnightblue" d="M1064.26,-109.436C1097.07,-99.2551 1144.08,-84.664 1173.56,-75.5164"/>
<polygon fill="midnightblue" stroke="midnightblue" points="1063.08,-106.137 1054.57,-112.444 1065.16,-112.822 1063.08,-106.137"/>
</g>
<!-- Node7&#45;&gt;Node11 -->
<g id="edge11" class="edge"><title>Node7&#45;&gt;Node11</title>
<path fill="none" stroke="midnightblue" d="M1081.85,-111.884C1171.52,-97.6646 1263.67,-83.8677 1321.3,-75.3363"/>
<polygon fill="midnightblue" stroke="midnightblue" points="1081.11,-108.458 1071.78,-113.484 1082.21,-115.371 1081.11,-108.458"/>
</g>
<!-- Node14&#45;&gt;Node13 -->
<g id="edge15" class="edge"><title>Node14&#45;&gt;Node13</title>
<path fill="none" stroke="midnightblue" d="M752.165,-49.8197C740.162,-40.1452 725.028,-27.9481 714.961,-19.8339"/>
<polygon fill="midnightblue" stroke="midnightblue" points="750.253,-52.7738 760.235,-56.324 754.646,-47.3236 750.253,-52.7738"/>
</g>
<!-- Node18&#45;&gt;Node7 -->
<g id="edge22" class="edge"><title>Node18&#45;&gt;Node7</title>
<path fill="none" stroke="midnightblue" d="M1051.38,-159.566C1045.18,-150.275 1037.83,-139.248 1032.83,-131.751"/>
<polygon fill="midnightblue" stroke="midnightblue" points="1048.6,-161.704 1057.06,-168.083 1054.42,-157.821 1048.6,-161.704"/>
</g>
<!-- Node18&#45;&gt;Node14 -->
<g id="edge27" class="edge"><title>Node18&#45;&gt;Node14</title>
<path fill="none" stroke="midnightblue" d="M1030.42,-164.726C970.741,-142.245 845.304,-94.9914 793.806,-75.5914"/>
<polygon fill="midnightblue" stroke="midnightblue" points="1029.5,-168.118 1040.09,-168.368 1031.96,-161.568 1029.5,-168.118"/>
</g>
<!-- Node18&#45;&gt;Node17 -->
<g id="edge20" class="edge"><title>Node18&#45;&gt;Node17</title>
<path fill="none" stroke="midnightblue" d="M1085.1,-162.622C1100.26,-152.757 1119.88,-139.992 1132.7,-131.655"/>
<polygon fill="midnightblue" stroke="midnightblue" points="1082.81,-159.937 1076.34,-168.324 1086.63,-165.804 1082.81,-159.937"/>
</g>
<!-- Node18&#45;&gt;Node19 -->
<g id="edge21" class="edge"><title>Node18&#45;&gt;Node19</title>
<path fill="none" stroke="midnightblue" d="M1107.31,-166.024C1148.49,-155.823 1208.97,-140.841 1246.62,-131.516"/>
<polygon fill="midnightblue" stroke="midnightblue" points="1106.41,-162.642 1097.54,-168.444 1108.09,-169.436 1106.41,-162.642"/>
</g>
<!-- Node18&#45;&gt;Node20 -->
<g id="edge23" class="edge"><title>Node18&#45;&gt;Node20</title>
<path fill="none" stroke="midnightblue" d="M1013.08,-166.346C965.269,-156.141 894.052,-140.94 849.901,-131.516"/>
<polygon fill="midnightblue" stroke="midnightblue" points="1012.4,-169.779 1022.91,-168.444 1013.86,-162.933 1012.4,-169.779"/>
</g>
<!-- Node20&#45;&gt;Node14 -->
<g id="edge24" class="edge"><title>Node20&#45;&gt;Node14</title>
<path fill="none" stroke="midnightblue" d="M797.618,-103.855C790.865,-94.5048 782.791,-83.3265 777.32,-75.7511"/>
<polygon fill="midnightblue" stroke="midnightblue" points="794.868,-106.025 803.56,-112.083 800.542,-101.927 794.868,-106.025"/>
</g>
<!-- Node20&#45;&gt;Node21 -->
<g id="edge25" class="edge"><title>Node20&#45;&gt;Node21</title>
<path fill="none" stroke="midnightblue" d="M827.754,-105.537C838.808,-95.9087 852.631,-83.8694 861.857,-75.8339"/>
<polygon fill="midnightblue" stroke="midnightblue" points="825.203,-103.117 819.961,-112.324 829.801,-108.395 825.203,-103.117"/>
</g>
<!-- Node21&#45;&gt;Node9 -->
<g id="edge26" class="edge"><title>Node21&#45;&gt;Node9</title>
<path fill="none" stroke="midnightblue" d="M894.194,-50.9005C909.78,-40.9986 930.13,-28.0705 943.377,-19.6545"/>
<polygon fill="midnightblue" stroke="midnightblue" points="892.221,-48.0073 885.657,-56.324 895.974,-53.9158 892.221,-48.0073"/>
</g>
<!-- Node22&#45;&gt;Node13 -->
<g id="edge35" class="edge"><title>Node22&#45;&gt;Node13</title>
<path fill="none" stroke="midnightblue" d="M720.817,-157.93C716.696,-121.92 707.918,-45.2312 704.981,-19.5681"/>
<polygon fill="midnightblue" stroke="midnightblue" points="717.364,-158.538 721.978,-168.075 724.319,-157.742 717.364,-158.538"/>
</g>
<!-- Node22&#45;&gt;Node14 -->
<g id="edge36" class="edge"><title>Node22&#45;&gt;Node14</title>
<path fill="none" stroke="midnightblue" d="M730.855,-158.998C741.329,-134.997 759.45,-93.4683 767.251,-75.5914"/>
<polygon fill="midnightblue" stroke="midnightblue" points="727.558,-157.803 726.766,-168.368 733.974,-160.603 727.558,-157.803"/>
</g>
<!-- Node22&#45;&gt;Node15 -->
<g id="edge37" class="edge"><title>Node22&#45;&gt;Node15</title>
<path fill="none" stroke="midnightblue" d="M696.698,-163.726C676.885,-153.727 650.293,-140.307 633.149,-131.655"/>
<polygon fill="midnightblue" stroke="midnightblue" points="695.304,-166.943 705.809,-168.324 698.458,-160.694 695.304,-166.943"/>
</g>
</g>
</svg>
