<?xml version="1.0" encoding="UTF-8" standalone="no"?>
<!DOCTYPE svg PUBLIC "-//W3C//DTD SVG 1.1//EN"
 "http://www.w3.org/Graphics/SVG/1.1/DTD/svg11.dtd">
<!-- Generated by graphviz version 2.34.0 (20140110.0949)
 -->
<!-- Title: include/SubModuleLoader.h Pages: 1 -->
<svg width="357pt" height="196pt"
 viewBox="0.00 0.00 357.00 196.00" xmlns="http://www.w3.org/2000/svg" xmlns:xlink="http://www.w3.org/1999/xlink">
<g id="graph0" class="graph" transform="scale(1 1) rotate(0) translate(4 192)">
<title>include/SubModuleLoader.h</title>
<!-- Node1 -->
<g id="node1" class="node"><title>Node1</title>
<polygon fill="#bfbfbf" stroke="black" points="3.5,-168.5 3.5,-187.5 140.5,-187.5 140.5,-168.5 3.5,-168.5"/>
<text text-anchor="middle" x="72" y="-175.5" font-family="Helvetica,sans-Serif" font-size="10.00">include/SubModuleLoader.h</text>
</g>
<!-- Node2 -->
<g id="node2" class="node"><title>Node2</title>
<polygon fill="none" stroke="#bfbfbf" points="0,-112.5 0,-131.5 44,-131.5 44,-112.5 0,-112.5"/>
<text text-anchor="middle" x="22" y="-119.5" font-family="Helvetica,sans-Serif" font-size="10.00">vector</text>
</g>
<!-- Node1&#45;&gt;Node2 -->
<g id="edge1" class="edge"><title>Node1&#45;&gt;Node2</title>
<path fill="none" stroke="midnightblue" d="M63.7435,-168.083C56.5353,-160.298 45.8902,-148.801 37.1542,-139.367"/>
<polygon fill="midnightblue" stroke="midnightblue" points="39.4651,-136.711 30.1028,-131.751 34.3288,-141.467 39.4651,-136.711"/>
</g>
<!-- Node3 -->
<g id="node3" class="node"><title>Node3</title>
<g id="a_node3"><a xlink:href="_string_8h.html" target="_top" xlink:title="String.h">
<polygon fill="none" stroke="black" points="16,-56.5 16,-75.5 66,-75.5 66,-56.5 16,-56.5"/>
<text text-anchor="middle" x="41" y="-63.5" font-family="Helvetica,sans-Serif" font-size="10.00">String.h</text>
</a>
</g>
</g>
<!-- Node1&#45;&gt;Node3 -->
<g id="edge2" class="edge"><title>Node1&#45;&gt;Node3</title>
<path fill="none" stroke="midnightblue" d="M69.5675,-168.368C64.5421,-150.537 52.9196,-109.295 46.1493,-85.2717"/>
<polygon fill="midnightblue" stroke="midnightblue" points="49.5026,-84.2671 43.4212,-75.5914 42.765,-86.1659 49.5026,-84.2671"/>
</g>
<!-- Node5 -->
<g id="node5" class="node"><title>Node5</title>
<g id="a_node5"><a xlink:href="_module_8h.html" target="_top" xlink:title="Module.h">
<polygon fill="none" stroke="black" points="131,-112.5 131,-131.5 187,-131.5 187,-112.5 131,-112.5"/>
<text text-anchor="middle" x="159" y="-119.5" font-family="Helvetica,sans-Serif" font-size="10.00">Module.h</text>
</a>
</g>
</g>
<!-- Node1&#45;&gt;Node5 -->
<g id="edge4" class="edge"><title>Node1&#45;&gt;Node5</title>
<path fill="none" stroke="midnightblue" d="M85.9781,-168.324C99.5496,-159.9 120.38,-146.971 136.325,-137.074"/>
<polygon fill="midnightblue" stroke="midnightblue" points="138.406,-139.902 145.057,-131.655 134.714,-133.954 138.406,-139.902"/>
</g>
<!-- Node4 -->
<g id="node4" class="node"><title>Node4</title>
<polygon fill="none" stroke="#bfbfbf" points="20.5,-0.5 20.5,-19.5 61.5,-19.5 61.5,-0.5 20.5,-0.5"/>
<text text-anchor="middle" x="41" y="-7.5" font-family="Helvetica,sans-Serif" font-size="10.00">string</text>
</g>
<!-- Node3&#45;&gt;Node4 -->
<g id="edge3" class="edge"><title>Node3&#45;&gt;Node4</title>
<path fill="none" stroke="midnightblue" d="M41,-56.083C41,-49.0059 41,-38.8611 41,-29.9865"/>
<polygon fill="midnightblue" stroke="midnightblue" points="44.5001,-29.751 41,-19.7511 37.5001,-29.7511 44.5001,-29.751"/>
</g>
<!-- Node5&#45;&gt;Node3 -->
<g id="edge9" class="edge"><title>Node5&#45;&gt;Node3</title>
<path fill="none" stroke="midnightblue" d="M140.303,-112.444C121.056,-103.636 90.8475,-89.8116 68.7999,-79.722"/>
<polygon fill="midnightblue" stroke="midnightblue" points="70.1595,-76.4951 59.61,-75.5164 67.2466,-82.8603 70.1595,-76.4951"/>
</g>
<!-- Node6 -->
<g id="node6" class="node"><title>Node6</title>
<polygon fill="none" stroke="#bfbfbf" points="276.5,-0.5 276.5,-19.5 349.5,-19.5 349.5,-0.5 276.5,-0.5"/>
<text text-anchor="middle" x="313" y="-7.5" font-family="Helvetica,sans-Serif" font-size="10.00">event2/dns.h</text>
</g>
<!-- Node5&#45;&gt;Node6 -->
<g id="edge5" class="edge"><title>Node5&#45;&gt;Node6</title>
<path fill="none" stroke="midnightblue" d="M187.063,-117.297C229,-111.122 304.838,-97.2636 321,-76 331.187,-62.5975 326.914,-42.955 321.5,-28.7738"/>
<polygon fill="midnightblue" stroke="midnightblue" points="324.713,-27.3841 317.547,-19.5802 318.282,-30.1495 324.713,-27.3841"/>
</g>
<!-- Node7 -->
<g id="node7" class="node"><title>Node7</title>
<polygon fill="none" stroke="#bfbfbf" points="141.5,-0.5 141.5,-19.5 222.5,-19.5 222.5,-0.5 141.5,-0.5"/>
<text text-anchor="middle" x="182" y="-7.5" font-family="Helvetica,sans-Serif" font-size="10.00">event2/event.h</text>
</g>
<!-- Node5&#45;&gt;Node7 -->
<g id="edge6" class="edge"><title>Node5&#45;&gt;Node7</title>
<path fill="none" stroke="midnightblue" d="M145.232,-112.397C127.797,-100.352 101.345,-77.5158 113,-56 120.749,-41.6958 135.234,-31.2188 148.94,-23.992"/>
<polygon fill="midnightblue" stroke="midnightblue" points="150.738,-27.0103 158.212,-19.501 147.686,-20.7104 150.738,-27.0103"/>
</g>
<!-- Node8 -->
<g id="node8" class="node"><title>Node8</title>
<polygon fill="none" stroke="#bfbfbf" points="122.5,-56.5 122.5,-75.5 195.5,-75.5 195.5,-56.5 122.5,-56.5"/>
<text text-anchor="middle" x="159" y="-63.5" font-family="Helvetica,sans-Serif" font-size="10.00">libconfig.h++</text>
</g>
<!-- Node5&#45;&gt;Node8 -->
<g id="edge7" class="edge"><title>Node5&#45;&gt;Node8</title>
<path fill="none" stroke="midnightblue" d="M159,-112.083C159,-105.006 159,-94.8611 159,-85.9865"/>
<polygon fill="midnightblue" stroke="midnightblue" points="162.5,-85.751 159,-75.7511 155.5,-85.7511 162.5,-85.751"/>
</g>
<!-- Node9 -->
<g id="node9" class="node"><title>Node9</title>
<polygon fill="none" stroke="#bfbfbf" points="214,-56.5 214,-75.5 244,-75.5 244,-56.5 214,-56.5"/>
<text text-anchor="middle" x="229" y="-63.5" font-family="Helvetica,sans-Serif" font-size="10.00">set</text>
</g>
<!-- Node5&#45;&gt;Node9 -->
<g id="edge8" class="edge"><title>Node5&#45;&gt;Node9</title>
<path fill="none" stroke="midnightblue" d="M170.247,-112.324C180.797,-104.185 196.801,-91.8395 209.442,-82.0874"/>
<polygon fill="midnightblue" stroke="midnightblue" points="211.769,-84.7132 217.549,-75.8339 207.493,-79.1707 211.769,-84.7132"/>
</g>
<!-- Node10 -->
<g id="node10" class="node"><title>Node10</title>
<g id="a_node10"><a xlink:href="_event_8h.html" target="_top" xlink:title="Event.h">
<polygon fill="none" stroke="black" points="262,-56.5 262,-75.5 312,-75.5 312,-56.5 262,-56.5"/>
<text text-anchor="middle" x="287" y="-63.5" font-family="Helvetica,sans-Serif" font-size="10.00">Event.h</text>
</a>
</g>
</g>
<!-- Node5&#45;&gt;Node10 -->
<g id="edge10" class="edge"><title>Node5&#45;&gt;Node10</title>
<path fill="none" stroke="midnightblue" d="M179.282,-112.444C200.347,-103.557 233.517,-89.5632 257.486,-79.4514"/>
<polygon fill="midnightblue" stroke="midnightblue" points="258.96,-82.6283 266.813,-75.5164 256.239,-76.1787 258.96,-82.6283"/>
</g>
<!-- Node10&#45;&gt;Node6 -->
<g id="edge11" class="edge"><title>Node10&#45;&gt;Node6</title>
<path fill="none" stroke="midnightblue" d="M291.293,-56.083C294.852,-48.6913 300.022,-37.9533 304.424,-28.8111"/>
<polygon fill="midnightblue" stroke="midnightblue" points="307.602,-30.2795 308.787,-19.7511 301.295,-27.2427 307.602,-30.2795"/>
</g>
<!-- Node10&#45;&gt;Node7 -->
<g id="edge12" class="edge"><title>Node10&#45;&gt;Node7</title>
<path fill="none" stroke="midnightblue" d="M270.13,-56.324C253.291,-47.6641 227.193,-34.2424 207.762,-24.249"/>
<polygon fill="midnightblue" stroke="midnightblue" points="209.322,-21.1155 198.828,-19.6545 206.12,-27.3405 209.322,-21.1155"/>
</g>
</g>
</svg>
