<?xml version="1.0" encoding="UTF-8" standalone="no"?>
<!DOCTYPE svg PUBLIC "-//W3C//DTD SVG 1.1//EN"
 "http://www.w3.org/Graphics/SVG/1.1/DTD/svg11.dtd">
<!-- Generated by graphviz version 2.34.0 (20140110.0949)
 -->
<!-- Title: include/SubModuleLoader.h Pages: 1 -->
<svg width="304pt" height="196pt"
 viewBox="0.00 0.00 304.00 196.00" xmlns="http://www.w3.org/2000/svg" xmlns:xlink="http://www.w3.org/1999/xlink">
<g id="graph0" class="graph" transform="scale(1 1) rotate(0) translate(4 192)">
<title>include/SubModuleLoader.h</title>
<!-- Node1 -->
<g id="node1" class="node"><title>Node1</title>
<polygon fill="#bfbfbf" stroke="black" points="3.5,-168.5 3.5,-187.5 140.5,-187.5 140.5,-168.5 3.5,-168.5"/>
<text text-anchor="middle" x="72" y="-175.5" font-family="Helvetica,sans-Serif" font-size="10.00">include/SubModuleLoader.h</text>
</g>
<!-- Node2 -->
<g id="node2" class="node"><title>Node2</title>
<polygon fill="none" stroke="#bfbfbf" points="0,-112.5 0,-131.5 44,-131.5 44,-112.5 0,-112.5"/>
<text text-anchor="middle" x="22" y="-119.5" font-family="Helvetica,sans-Serif" font-size="10.00">vector</text>
</g>
<!-- Node1&#45;&gt;Node2 -->
<g id="edge1" class="edge"><title>Node1&#45;&gt;Node2</title>
<path fill="none" stroke="midnightblue" d="M63.7435,-168.083C56.5353,-160.298 45.8902,-148.801 37.1542,-139.367"/>
<polygon fill="midnightblue" stroke="midnightblue" points="39.4651,-136.711 30.1028,-131.751 34.3288,-141.467 39.4651,-136.711"/>
</g>
<!-- Node3 -->
<g id="node3" class="node"><title>Node3</title>
<g id="a_node3"><a xlink:href="_string_8h.html" target="_top" xlink:title="String.h">
<polygon fill="none" stroke="black" points="37,-56.5 37,-75.5 87,-75.5 87,-56.5 37,-56.5"/>
<text text-anchor="middle" x="62" y="-63.5" font-family="Helvetica,sans-Serif" font-size="10.00">String.h</text>
</a>
</g>
</g>
<!-- Node1&#45;&gt;Node3 -->
<g id="edge2" class="edge"><title>Node1&#45;&gt;Node3</title>
<path fill="none" stroke="midnightblue" d="M71.2153,-168.368C69.6015,-150.617 65.8788,-109.666 63.6907,-85.5974"/>
<polygon fill="midnightblue" stroke="midnightblue" points="67.1721,-85.2334 62.781,-75.5914 60.2009,-85.8673 67.1721,-85.2334"/>
</g>
<!-- Node5 -->
<g id="node5" class="node"><title>Node5</title>
<g id="a_node5"><a xlink:href="_module_8h.html" target="_top" xlink:title="Module.h">
<polygon fill="none" stroke="black" points="110,-112.5 110,-131.5 166,-131.5 166,-112.5 110,-112.5"/>
<text text-anchor="middle" x="138" y="-119.5" font-family="Helvetica,sans-Serif" font-size="10.00">Module.h</text>
</a>
</g>
</g>
<!-- Node1&#45;&gt;Node5 -->
<g id="edge4" class="edge"><title>Node1&#45;&gt;Node5</title>
<path fill="none" stroke="midnightblue" d="M82.604,-168.324C92.4562,-160.263 107.351,-148.077 119.215,-138.369"/>
<polygon fill="midnightblue" stroke="midnightblue" points="121.68,-140.875 127.203,-131.834 117.247,-135.457 121.68,-140.875"/>
</g>
<!-- Node4 -->
<g id="node4" class="node"><title>Node4</title>
<polygon fill="none" stroke="#bfbfbf" points="41.5,-0.5 41.5,-19.5 82.5,-19.5 82.5,-0.5 41.5,-0.5"/>
<text text-anchor="middle" x="62" y="-7.5" font-family="Helvetica,sans-Serif" font-size="10.00">string</text>
</g>
<!-- Node3&#45;&gt;Node4 -->
<g id="edge3" class="edge"><title>Node3&#45;&gt;Node4</title>
<path fill="none" stroke="midnightblue" d="M62,-56.083C62,-49.0059 62,-38.8611 62,-29.9865"/>
<polygon fill="midnightblue" stroke="midnightblue" points="65.5001,-29.751 62,-19.7511 58.5001,-29.7511 65.5001,-29.751"/>
</g>
<!-- Node5&#45;&gt;Node3 -->
<g id="edge8" class="edge"><title>Node5&#45;&gt;Node3</title>
<path fill="none" stroke="midnightblue" d="M125.789,-112.324C114.224,-104.107 96.6246,-91.6017 82.8393,-81.8069"/>
<polygon fill="midnightblue" stroke="midnightblue" points="84.612,-78.7729 74.4329,-75.8339 80.5575,-84.4791 84.612,-78.7729"/>
</g>
<!-- Node6 -->
<g id="node6" class="node"><title>Node6</title>
<polygon fill="none" stroke="#bfbfbf" points="223.5,-0.5 223.5,-19.5 296.5,-19.5 296.5,-0.5 223.5,-0.5"/>
<text text-anchor="middle" x="260" y="-7.5" font-family="Helvetica,sans-Serif" font-size="10.00">event2/dns.h</text>
</g>
<!-- Node5&#45;&gt;Node6 -->
<g id="edge5" class="edge"><title>Node5&#45;&gt;Node6</title>
<path fill="none" stroke="midnightblue" d="M166.12,-117.579C192.06,-112.859 229.552,-101.773 250,-76 260.303,-63.014 262.136,-43.8507 261.792,-29.6938"/>
<polygon fill="midnightblue" stroke="midnightblue" points="265.281,-29.3923 261.17,-19.6272 258.294,-29.824 265.281,-29.3923"/>
</g>
<!-- Node7 -->
<g id="node7" class="node"><title>Node7</title>
<polygon fill="none" stroke="#bfbfbf" points="116.5,-0.5 116.5,-19.5 197.5,-19.5 197.5,-0.5 116.5,-0.5"/>
<text text-anchor="middle" x="157" y="-7.5" font-family="Helvetica,sans-Serif" font-size="10.00">event2/event.h</text>
</g>
<!-- Node5&#45;&gt;Node7 -->
<g id="edge6" class="edge"><title>Node5&#45;&gt;Node7</title>
<path fill="none" stroke="midnightblue" d="M135.892,-112.447C133.149,-99.8827 129.237,-75.7856 134,-56 136.307,-46.4183 141.017,-36.5813 145.578,-28.5579"/>
<polygon fill="midnightblue" stroke="midnightblue" points="148.692,-30.1727 150.895,-19.8095 142.711,-26.537 148.692,-30.1727"/>
</g>
<!-- Node8 -->
<g id="node8" class="node"><title>Node8</title>
<polygon fill="none" stroke="#bfbfbf" points="143,-56.5 143,-75.5 173,-75.5 173,-56.5 143,-56.5"/>
<text text-anchor="middle" x="158" y="-63.5" font-family="Helvetica,sans-Serif" font-size="10.00">set</text>
</g>
<!-- Node5&#45;&gt;Node8 -->
<g id="edge7" class="edge"><title>Node5&#45;&gt;Node8</title>
<path fill="none" stroke="midnightblue" d="M141.303,-112.083C143.982,-104.849 147.849,-94.4087 151.186,-85.3968"/>
<polygon fill="midnightblue" stroke="midnightblue" points="154.568,-86.3442 154.759,-75.7511 148.004,-83.9129 154.568,-86.3442"/>
</g>
<!-- Node9 -->
<g id="node9" class="node"><title>Node9</title>
<g id="a_node9"><a xlink:href="_event_8h.html" target="_top" xlink:title="Event.h">
<polygon fill="none" stroke="black" points="191,-56.5 191,-75.5 241,-75.5 241,-56.5 191,-56.5"/>
<text text-anchor="middle" x="216" y="-63.5" font-family="Helvetica,sans-Serif" font-size="10.00">Event.h</text>
</a>
</g>
</g>
<!-- Node5&#45;&gt;Node9 -->
<g id="edge9" class="edge"><title>Node5&#45;&gt;Node9</title>
<path fill="none" stroke="midnightblue" d="M150.532,-112.324C162.586,-103.979 181.027,-91.2122 195.269,-81.3524"/>
<polygon fill="midnightblue" stroke="midnightblue" points="197.269,-84.2243 203.499,-75.6545 193.285,-78.469 197.269,-84.2243"/>
</g>
<!-- Node9&#45;&gt;Node6 -->
<g id="edge10" class="edge"><title>Node9&#45;&gt;Node6</title>
<path fill="none" stroke="midnightblue" d="M223.266,-56.083C229.545,-48.3768 238.788,-37.0333 246.431,-27.6531"/>
<polygon fill="midnightblue" stroke="midnightblue" points="249.266,-29.7143 252.869,-19.7511 243.839,-25.2926 249.266,-29.7143"/>
</g>
<!-- Node9&#45;&gt;Node7 -->
<g id="edge11" class="edge"><title>Node9&#45;&gt;Node7</title>
<path fill="none" stroke="midnightblue" d="M206.521,-56.324C197.799,-48.3414 184.657,-36.3128 174.102,-26.6529"/>
<polygon fill="midnightblue" stroke="midnightblue" points="176.392,-24.0036 166.652,-19.8339 171.666,-29.1674 176.392,-24.0036"/>
</g>
</g>
</svg>
