<?xml version="1.0" encoding="UTF-8" standalone="no"?>
<!DOCTYPE svg PUBLIC "-//W3C//DTD SVG 1.1//EN"
 "http://www.w3.org/Graphics/SVG/1.1/DTD/svg11.dtd">
<!-- Generated by graphviz version 2.34.0 (20140110.0949)
 -->
<!-- Title: include/SubModuleLoader.h Pages: 1 -->
<svg width="367pt" height="196pt"
 viewBox="0.00 0.00 367.00 196.00" xmlns="http://www.w3.org/2000/svg" xmlns:xlink="http://www.w3.org/1999/xlink">
<g id="graph0" class="graph" transform="scale(1 1) rotate(0) translate(4 192)">
<title>include/SubModuleLoader.h</title>
<!-- Node1 -->
<g id="node1" class="node"><title>Node1</title>
<polygon fill="#bfbfbf" stroke="black" points="13.5,-168.5 13.5,-187.5 150.5,-187.5 150.5,-168.5 13.5,-168.5"/>
<text text-anchor="middle" x="82" y="-175.5" font-family="Helvetica,sans-Serif" font-size="10.00">include/SubModuleLoader.h</text>
</g>
<!-- Node2 -->
<g id="node2" class="node"><title>Node2</title>
<polygon fill="none" stroke="#bfbfbf" points="10,-112.5 10,-131.5 54,-131.5 54,-112.5 10,-112.5"/>
<text text-anchor="middle" x="32" y="-119.5" font-family="Helvetica,sans-Serif" font-size="10.00">vector</text>
</g>
<!-- Node1&#45;&gt;Node2 -->
<g id="edge1" class="edge"><title>Node1&#45;&gt;Node2</title>
<path fill="none" stroke="midnightblue" d="M73.7435,-168.083C66.5353,-160.298 55.8902,-148.801 47.1542,-139.367"/>
<polygon fill="midnightblue" stroke="midnightblue" points="49.4651,-136.711 40.1028,-131.751 44.3288,-141.467 49.4651,-136.711"/>
</g>
<!-- Node3 -->
<g id="node3" class="node"><title>Node3</title>
<g id="a_node3"><a xlink:href="_string_8h.html" target="_top" xlink:title="String.h">
<polygon fill="none" stroke="black" points="26,-56.5 26,-75.5 76,-75.5 76,-56.5 26,-56.5"/>
<text text-anchor="middle" x="51" y="-63.5" font-family="Helvetica,sans-Serif" font-size="10.00">String.h</text>
</a>
</g>
</g>
<!-- Node1&#45;&gt;Node3 -->
<g id="edge2" class="edge"><title>Node1&#45;&gt;Node3</title>
<path fill="none" stroke="midnightblue" d="M79.5675,-168.368C74.5421,-150.537 62.9196,-109.295 56.1493,-85.2717"/>
<polygon fill="midnightblue" stroke="midnightblue" points="59.5026,-84.2671 53.4212,-75.5914 52.765,-86.1659 59.5026,-84.2671"/>
</g>
<!-- Node6 -->
<g id="node6" class="node"><title>Node6</title>
<g id="a_node6"><a xlink:href="_module_8h.html" target="_top" xlink:title="Module.h">
<polygon fill="none" stroke="black" points="141,-112.5 141,-131.5 197,-131.5 197,-112.5 141,-112.5"/>
<text text-anchor="middle" x="169" y="-119.5" font-family="Helvetica,sans-Serif" font-size="10.00">Module.h</text>
</a>
</g>
</g>
<!-- Node1&#45;&gt;Node6 -->
<g id="edge5" class="edge"><title>Node1&#45;&gt;Node6</title>
<path fill="none" stroke="midnightblue" d="M95.9781,-168.324C109.55,-159.9 130.38,-146.971 146.325,-137.074"/>
<polygon fill="midnightblue" stroke="midnightblue" points="148.406,-139.902 155.057,-131.655 144.714,-133.954 148.406,-139.902"/>
</g>
<!-- Node4 -->
<g id="node4" class="node"><title>Node4</title>
<polygon fill="none" stroke="#bfbfbf" points="-0.5,-0.5 -0.5,-19.5 40.5,-19.5 40.5,-0.5 -0.5,-0.5"/>
<text text-anchor="middle" x="20" y="-7.5" font-family="Helvetica,sans-Serif" font-size="10.00">string</text>
</g>
<!-- Node3&#45;&gt;Node4 -->
<g id="edge3" class="edge"><title>Node3&#45;&gt;Node4</title>
<path fill="none" stroke="midnightblue" d="M45.881,-56.083C41.5925,-48.6127 35.3418,-37.7244 30.0577,-28.5199"/>
<polygon fill="midnightblue" stroke="midnightblue" points="33.0379,-26.6811 25.0238,-19.7511 26.9671,-30.1662 33.0379,-26.6811"/>
</g>
<!-- Node5 -->
<g id="node5" class="node"><title>Node5</title>
<polygon fill="none" stroke="#bfbfbf" points="58.5,-0.5 58.5,-19.5 107.5,-19.5 107.5,-0.5 58.5,-0.5"/>
<text text-anchor="middle" x="83" y="-7.5" font-family="Helvetica,sans-Serif" font-size="10.00">stdint.h</text>
</g>
<!-- Node3&#45;&gt;Node5 -->
<g id="edge4" class="edge"><title>Node3&#45;&gt;Node5</title>
<path fill="none" stroke="midnightblue" d="M56.2841,-56.083C60.711,-48.6127 67.1633,-37.7244 72.6179,-28.5199"/>
<polygon fill="midnightblue" stroke="midnightblue" points="75.7271,-30.1383 77.8142,-19.7511 69.7051,-26.5697 75.7271,-30.1383"/>
</g>
<!-- Node6&#45;&gt;Node3 -->
<g id="edge10" class="edge"><title>Node6&#45;&gt;Node3</title>
<path fill="none" stroke="midnightblue" d="M150.303,-112.444C131.056,-103.636 100.848,-89.8116 78.7999,-79.722"/>
<polygon fill="midnightblue" stroke="midnightblue" points="80.1595,-76.4951 69.61,-75.5164 77.2466,-82.8603 80.1595,-76.4951"/>
</g>
<!-- Node7 -->
<g id="node7" class="node"><title>Node7</title>
<polygon fill="none" stroke="#bfbfbf" points="286.5,-0.5 286.5,-19.5 359.5,-19.5 359.5,-0.5 286.5,-0.5"/>
<text text-anchor="middle" x="323" y="-7.5" font-family="Helvetica,sans-Serif" font-size="10.00">event2/dns.h</text>
</g>
<!-- Node6&#45;&gt;Node7 -->
<g id="edge6" class="edge"><title>Node6&#45;&gt;Node7</title>
<path fill="none" stroke="midnightblue" d="M197.063,-117.297C239,-111.122 314.838,-97.2636 331,-76 341.187,-62.5975 336.914,-42.955 331.5,-28.7738"/>
<polygon fill="midnightblue" stroke="midnightblue" points="334.713,-27.3841 327.547,-19.5802 328.282,-30.1495 334.713,-27.3841"/>
</g>
<!-- Node8 -->
<g id="node8" class="node"><title>Node8</title>
<polygon fill="none" stroke="#bfbfbf" points="169.5,-0.5 169.5,-19.5 250.5,-19.5 250.5,-0.5 169.5,-0.5"/>
<text text-anchor="middle" x="210" y="-7.5" font-family="Helvetica,sans-Serif" font-size="10.00">event2/event.h</text>
</g>
<!-- Node6&#45;&gt;Node8 -->
<g id="edge7" class="edge"><title>Node6&#45;&gt;Node8</title>
<path fill="none" stroke="midnightblue" d="M155.228,-112.429C137.443,-100.234 110.206,-77.0209 123,-56 132.46,-40.4569 149.21,-30.0455 165.505,-23.1913"/>
<polygon fill="midnightblue" stroke="midnightblue" points="166.903,-26.4035 174.987,-19.5548 164.397,-19.8676 166.903,-26.4035"/>
</g>
<!-- Node9 -->
<g id="node9" class="node"><title>Node9</title>
<polygon fill="none" stroke="#bfbfbf" points="132.5,-56.5 132.5,-75.5 205.5,-75.5 205.5,-56.5 132.5,-56.5"/>
<text text-anchor="middle" x="169" y="-63.5" font-family="Helvetica,sans-Serif" font-size="10.00">libconfig.h++</text>
</g>
<!-- Node6&#45;&gt;Node9 -->
<g id="edge8" class="edge"><title>Node6&#45;&gt;Node9</title>
<path fill="none" stroke="midnightblue" d="M169,-112.083C169,-105.006 169,-94.8611 169,-85.9865"/>
<polygon fill="midnightblue" stroke="midnightblue" points="172.5,-85.751 169,-75.7511 165.5,-85.7511 172.5,-85.751"/>
</g>
<!-- Node10 -->
<g id="node10" class="node"><title>Node10</title>
<polygon fill="none" stroke="#bfbfbf" points="224,-56.5 224,-75.5 254,-75.5 254,-56.5 224,-56.5"/>
<text text-anchor="middle" x="239" y="-63.5" font-family="Helvetica,sans-Serif" font-size="10.00">set</text>
</g>
<!-- Node6&#45;&gt;Node10 -->
<g id="edge9" class="edge"><title>Node6&#45;&gt;Node10</title>
<path fill="none" stroke="midnightblue" d="M180.247,-112.324C190.797,-104.185 206.801,-91.8395 219.442,-82.0874"/>
<polygon fill="midnightblue" stroke="midnightblue" points="221.769,-84.7132 227.549,-75.8339 217.493,-79.1707 221.769,-84.7132"/>
</g>
<!-- Node11 -->
<g id="node11" class="node"><title>Node11</title>
<g id="a_node11"><a xlink:href="_event_8h.html" target="_top" xlink:title="Event.h">
<polygon fill="none" stroke="black" points="272,-56.5 272,-75.5 322,-75.5 322,-56.5 272,-56.5"/>
<text text-anchor="middle" x="297" y="-63.5" font-family="Helvetica,sans-Serif" font-size="10.00">Event.h</text>
</a>
</g>
</g>
<!-- Node6&#45;&gt;Node11 -->
<g id="edge11" class="edge"><title>Node6&#45;&gt;Node11</title>
<path fill="none" stroke="midnightblue" d="M189.282,-112.444C210.347,-103.557 243.517,-89.5632 267.486,-79.4514"/>
<polygon fill="midnightblue" stroke="midnightblue" points="268.96,-82.6283 276.813,-75.5164 266.239,-76.1787 268.96,-82.6283"/>
</g>
<!-- Node11&#45;&gt;Node7 -->
<g id="edge12" class="edge"><title>Node11&#45;&gt;Node7</title>
<path fill="none" stroke="midnightblue" d="M301.293,-56.083C304.852,-48.6913 310.022,-37.9533 314.424,-28.8111"/>
<polygon fill="midnightblue" stroke="midnightblue" points="317.602,-30.2795 318.787,-19.7511 311.295,-27.2427 317.602,-30.2795"/>
</g>
<!-- Node11&#45;&gt;Node8 -->
<g id="edge13" class="edge"><title>Node11&#45;&gt;Node8</title>
<path fill="none" stroke="midnightblue" d="M283.022,-56.324C269.45,-47.9002 248.62,-34.9709 232.675,-25.0741"/>
<polygon fill="midnightblue" stroke="midnightblue" points="234.286,-21.9544 223.943,-19.6545 230.594,-27.9019 234.286,-21.9544"/>
</g>
</g>
</svg>
