<?xml version="1.0" encoding="UTF-8" standalone="no"?>
<!DOCTYPE svg PUBLIC "-//W3C//DTD SVG 1.1//EN"
 "http://www.w3.org/Graphics/SVG/1.1/DTD/svg11.dtd">
<!-- Generated by graphviz version 2.34.0 (20140110.0949)
 -->
<!-- Title: include/TermUtils.h Pages: 1 -->
<svg width="115pt" height="140pt"
 viewBox="0.00 0.00 115.00 140.00" xmlns="http://www.w3.org/2000/svg" xmlns:xlink="http://www.w3.org/1999/xlink">
<g id="graph0" class="graph" transform="scale(1 1) rotate(0) translate(4 136)">
<title>include/TermUtils.h</title>
<!-- Node1 -->
<g id="node1" class="node"><title>Node1</title>
<polygon fill="#bfbfbf" stroke="black" points="0.5,-112.5 0.5,-131.5 101.5,-131.5 101.5,-112.5 0.5,-112.5"/>
<text text-anchor="middle" x="51" y="-119.5" font-family="Helvetica,sans-Serif" font-size="10.00">include/TermUtils.h</text>
</g>
<!-- Node2 -->
<g id="node2" class="node"><title>Node2</title>
<g id="a_node2"><a xlink:href="_string_8h.html" target="_top" xlink:title="String.h">
<polygon fill="none" stroke="black" points="26,-56.5 26,-75.5 76,-75.5 76,-56.5 26,-56.5"/>
<text text-anchor="middle" x="51" y="-63.5" font-family="Helvetica,sans-Serif" font-size="10.00">String.h</text>
</a>
</g>
</g>
<!-- Node1&#45;&gt;Node2 -->
<g id="edge1" class="edge"><title>Node1&#45;&gt;Node2</title>
<path fill="none" stroke="midnightblue" d="M51,-112.083C51,-105.006 51,-94.8611 51,-85.9865"/>
<polygon fill="midnightblue" stroke="midnightblue" points="54.5001,-85.751 51,-75.7511 47.5001,-85.7511 54.5001,-85.751"/>
</g>
<!-- Node3 -->
<g id="node3" class="node"><title>Node3</title>
<polygon fill="none" stroke="#bfbfbf" points="-0.5,-0.5 -0.5,-19.5 40.5,-19.5 40.5,-0.5 -0.5,-0.5"/>
<text text-anchor="middle" x="20" y="-7.5" font-family="Helvetica,sans-Serif" font-size="10.00">string</text>
</g>
<!-- Node2&#45;&gt;Node3 -->
<g id="edge2" class="edge"><title>Node2&#45;&gt;Node3</title>
<path fill="none" stroke="midnightblue" d="M45.881,-56.083C41.5925,-48.6127 35.3418,-37.7244 30.0577,-28.5199"/>
<polygon fill="midnightblue" stroke="midnightblue" points="33.0379,-26.6811 25.0238,-19.7511 26.9671,-30.1662 33.0379,-26.6811"/>
</g>
<!-- Node4 -->
<g id="node4" class="node"><title>Node4</title>
<polygon fill="none" stroke="#bfbfbf" points="58.5,-0.5 58.5,-19.5 107.5,-19.5 107.5,-0.5 58.5,-0.5"/>
<text text-anchor="middle" x="83" y="-7.5" font-family="Helvetica,sans-Serif" font-size="10.00">stdint.h</text>
</g>
<!-- Node2&#45;&gt;Node4 -->
<g id="edge3" class="edge"><title>Node2&#45;&gt;Node4</title>
<path fill="none" stroke="midnightblue" d="M56.2841,-56.083C60.711,-48.6127 67.1633,-37.7244 72.6179,-28.5199"/>
<polygon fill="midnightblue" stroke="midnightblue" points="75.7271,-30.1383 77.8142,-19.7511 69.7051,-26.5697 75.7271,-30.1383"/>
</g>
</g>
</svg>
