<?xml version="1.0" encoding="UTF-8" standalone="no"?>
<!DOCTYPE svg PUBLIC "-//W3C//DTD SVG 1.1//EN"
 "http://www.w3.org/Graphics/SVG/1.1/DTD/svg11.dtd">
<!-- Generated by graphviz version 2.34.0 (20140110.0949)
 -->
<!-- Title: include/Thread.h Pages: 1 -->
<svg width="406pt" height="140pt"
 viewBox="0.00 0.00 406.00 140.00" xmlns="http://www.w3.org/2000/svg" xmlns:xlink="http://www.w3.org/1999/xlink">
<g id="graph0" class="graph" transform="scale(1 1) rotate(0) translate(4 136)">
<title>include/Thread.h</title>
<!-- Node1 -->
<g id="node1" class="node"><title>Node1</title>
<polygon fill="#bfbfbf" stroke="black" points="75.5,-112.5 75.5,-131.5 164.5,-131.5 164.5,-112.5 75.5,-112.5"/>
<text text-anchor="middle" x="120" y="-119.5" font-family="Helvetica,sans-Serif" font-size="10.00">include/Thread.h</text>
</g>
<!-- Node2 -->
<g id="node2" class="node"><title>Node2</title>
<polygon fill="none" stroke="#bfbfbf" points="-0.5,-56.5 -0.5,-75.5 34.5,-75.5 34.5,-56.5 -0.5,-56.5"/>
<text text-anchor="middle" x="17" y="-63.5" font-family="Helvetica,sans-Serif" font-size="10.00">map</text>
</g>
<!-- Node1&#45;&gt;Node2 -->
<g id="edge1" class="edge"><title>Node1&#45;&gt;Node2</title>
<path fill="none" stroke="midnightblue" d="M103.451,-112.324C87.0084,-103.703 61.5652,-90.3643 42.5316,-80.3855"/>
<polygon fill="midnightblue" stroke="midnightblue" points="43.9895,-77.198 33.5077,-75.6545 40.7391,-83.3977 43.9895,-77.198"/>
</g>
<!-- Node3 -->
<g id="node3" class="node"><title>Node3</title>
<polygon fill="none" stroke="#bfbfbf" points="69.5,-0.5 69.5,-19.5 118.5,-19.5 118.5,-0.5 69.5,-0.5"/>
<text text-anchor="middle" x="94" y="-7.5" font-family="Helvetica,sans-Serif" font-size="10.00">stdint.h</text>
</g>
<!-- Node1&#45;&gt;Node3 -->
<g id="edge2" class="edge"><title>Node1&#45;&gt;Node3</title>
<path fill="none" stroke="midnightblue" d="M109.286,-112.305C100.062,-104.069 87.409,-90.789 82,-76 76.4016,-60.693 80.709,-42.363 85.6539,-29.0762"/>
<polygon fill="midnightblue" stroke="midnightblue" points="88.9637,-30.2326 89.5792,-19.6557 82.5021,-27.5402 88.9637,-30.2326"/>
</g>
<!-- Node4 -->
<g id="node4" class="node"><title>Node4</title>
<polygon fill="none" stroke="#bfbfbf" points="91.5,-56.5 91.5,-75.5 148.5,-75.5 148.5,-56.5 91.5,-56.5"/>
<text text-anchor="middle" x="120" y="-63.5" font-family="Helvetica,sans-Serif" font-size="10.00">pthread.h</text>
</g>
<!-- Node1&#45;&gt;Node4 -->
<g id="edge3" class="edge"><title>Node1&#45;&gt;Node4</title>
<path fill="none" stroke="midnightblue" d="M120,-112.083C120,-105.006 120,-94.8611 120,-85.9865"/>
<polygon fill="midnightblue" stroke="midnightblue" points="123.5,-85.751 120,-75.7511 116.5,-85.7511 123.5,-85.751"/>
</g>
<!-- Node5 -->
<g id="node5" class="node"><title>Node5</title>
<g id="a_node5"><a xlink:href="_string_8h.html" target="_top" xlink:title="String.h">
<polygon fill="none" stroke="black" points="167,-56.5 167,-75.5 217,-75.5 217,-56.5 167,-56.5"/>
<text text-anchor="middle" x="192" y="-63.5" font-family="Helvetica,sans-Serif" font-size="10.00">String.h</text>
</a>
</g>
</g>
<!-- Node1&#45;&gt;Node5 -->
<g id="edge4" class="edge"><title>Node1&#45;&gt;Node5</title>
<path fill="none" stroke="midnightblue" d="M131.568,-112.324C142.42,-104.185 158.881,-91.8395 171.883,-82.0874"/>
<polygon fill="midnightblue" stroke="midnightblue" points="174.321,-84.6339 180.221,-75.8339 170.121,-79.0339 174.321,-84.6339"/>
</g>
<!-- Node7 -->
<g id="node7" class="node"><title>Node7</title>
<g id="a_node7"><a xlink:href="_event_8h.html" target="_top" xlink:title="Event.h">
<polygon fill="none" stroke="black" points="238,-56.5 238,-75.5 288,-75.5 288,-56.5 238,-56.5"/>
<text text-anchor="middle" x="263" y="-63.5" font-family="Helvetica,sans-Serif" font-size="10.00">Event.h</text>
</a>
</g>
</g>
<!-- Node1&#45;&gt;Node7 -->
<g id="edge7" class="edge"><title>Node1&#45;&gt;Node7</title>
<path fill="none" stroke="midnightblue" d="M142.659,-112.444C166.402,-103.478 203.909,-89.314 230.738,-79.1827"/>
<polygon fill="midnightblue" stroke="midnightblue" points="232.329,-82.3235 240.447,-75.5164 229.856,-75.7749 232.329,-82.3235"/>
</g>
<!-- Node5&#45;&gt;Node3 -->
<g id="edge6" class="edge"><title>Node5&#45;&gt;Node3</title>
<path fill="none" stroke="midnightblue" d="M176.255,-56.324C160.681,-47.7428 136.623,-34.486 118.541,-24.5224"/>
<polygon fill="midnightblue" stroke="midnightblue" points="120.154,-21.4152 109.706,-19.6545 116.776,-27.546 120.154,-21.4152"/>
</g>
<!-- Node6 -->
<g id="node6" class="node"><title>Node6</title>
<polygon fill="none" stroke="#bfbfbf" points="167.5,-0.5 167.5,-19.5 208.5,-19.5 208.5,-0.5 167.5,-0.5"/>
<text text-anchor="middle" x="188" y="-7.5" font-family="Helvetica,sans-Serif" font-size="10.00">string</text>
</g>
<!-- Node5&#45;&gt;Node6 -->
<g id="edge5" class="edge"><title>Node5&#45;&gt;Node6</title>
<path fill="none" stroke="midnightblue" d="M191.339,-56.083C190.815,-49.0059 190.064,-38.8611 189.406,-29.9865"/>
<polygon fill="midnightblue" stroke="midnightblue" points="192.877,-29.4652 188.648,-19.7511 185.897,-29.9823 192.877,-29.4652"/>
</g>
<!-- Node8 -->
<g id="node8" class="node"><title>Node8</title>
<polygon fill="none" stroke="#bfbfbf" points="226.5,-0.5 226.5,-19.5 299.5,-19.5 299.5,-0.5 226.5,-0.5"/>
<text text-anchor="middle" x="263" y="-7.5" font-family="Helvetica,sans-Serif" font-size="10.00">event2/dns.h</text>
</g>
<!-- Node7&#45;&gt;Node8 -->
<g id="edge8" class="edge"><title>Node7&#45;&gt;Node8</title>
<path fill="none" stroke="midnightblue" d="M263,-56.083C263,-49.0059 263,-38.8611 263,-29.9865"/>
<polygon fill="midnightblue" stroke="midnightblue" points="266.5,-29.751 263,-19.7511 259.5,-29.7511 266.5,-29.751"/>
</g>
<!-- Node9 -->
<g id="node9" class="node"><title>Node9</title>
<polygon fill="none" stroke="#bfbfbf" points="317.5,-0.5 317.5,-19.5 398.5,-19.5 398.5,-0.5 317.5,-0.5"/>
<text text-anchor="middle" x="358" y="-7.5" font-family="Helvetica,sans-Serif" font-size="10.00">event2/event.h</text>
</g>
<!-- Node7&#45;&gt;Node9 -->
<g id="edge9" class="edge"><title>Node7&#45;&gt;Node9</title>
<path fill="none" stroke="midnightblue" d="M278.263,-56.324C293.221,-47.8215 316.255,-34.7288 333.727,-24.7975"/>
<polygon fill="midnightblue" stroke="midnightblue" points="335.81,-27.639 342.774,-19.6545 332.351,-21.5534 335.81,-27.639"/>
</g>
</g>
</svg>
