<?xml version="1.0" encoding="UTF-8" standalone="no"?>
<!DOCTYPE svg PUBLIC "-//W3C//DTD SVG 1.1//EN"
 "http://www.w3.org/Graphics/SVG/1.1/DTD/svg11.dtd">
<!-- Generated by graphviz version 2.34.0 (20140110.0949)
 -->
<!-- Title: include/Thread.h Pages: 1 -->
<svg width="271pt" height="140pt"
 viewBox="0.00 0.00 271.00 140.00" xmlns="http://www.w3.org/2000/svg" xmlns:xlink="http://www.w3.org/1999/xlink">
<g id="graph0" class="graph" transform="scale(1 1) rotate(0) translate(4 136)">
<title>include/Thread.h</title>
<!-- Node1 -->
<g id="node1" class="node"><title>Node1</title>
<polygon fill="#bfbfbf" stroke="black" points="41.5,-112.5 41.5,-131.5 130.5,-131.5 130.5,-112.5 41.5,-112.5"/>
<text text-anchor="middle" x="86" y="-119.5" font-family="Helvetica,sans-Serif" font-size="10.00">include/Thread.h</text>
</g>
<!-- Node2 -->
<g id="node2" class="node"><title>Node2</title>
<g id="a_node2"><a xlink:href="_job_thread_8h.html" target="_top" xlink:title="include/JobThread.h">
<polygon fill="none" stroke="black" points="0,-0.5 0,-19.5 104,-19.5 104,-0.5 0,-0.5"/>
<text text-anchor="middle" x="52" y="-7.5" font-family="Helvetica,sans-Serif" font-size="10.00">include/JobThread.h</text>
</a>
</g>
</g>
<!-- Node1&#45;&gt;Node2 -->
<g id="edge1" class="edge"><title>Node1&#45;&gt;Node2</title>
<path fill="none" stroke="midnightblue" d="M63.3648,-106.257C53.6195,-98.5406 43.2681,-88.1601 38,-76 29.74,-56.934 40.017,-32.5446 46.847,-19.7437"/>
<polygon fill="midnightblue" stroke="midnightblue" points="61.499,-109.229 71.6299,-112.33 65.644,-103.588 61.499,-109.229"/>
</g>
<!-- Node3 -->
<g id="node3" class="node"><title>Node3</title>
<g id="a_node3"><a xlink:href="_pipe_8h.html" target="_top" xlink:title="include/Pipe.h">
<polygon fill="none" stroke="black" points="47,-56.5 47,-75.5 125,-75.5 125,-56.5 47,-56.5"/>
<text text-anchor="middle" x="86" y="-63.5" font-family="Helvetica,sans-Serif" font-size="10.00">include/Pipe.h</text>
</a>
</g>
</g>
<!-- Node1&#45;&gt;Node3 -->
<g id="edge2" class="edge"><title>Node1&#45;&gt;Node3</title>
<path fill="none" stroke="midnightblue" d="M86,-101.805C86,-92.9102 86,-82.7798 86,-75.7511"/>
<polygon fill="midnightblue" stroke="midnightblue" points="82.5001,-102.083 86,-112.083 89.5001,-102.083 82.5001,-102.083"/>
</g>
<!-- Node4 -->
<g id="node4" class="node"><title>Node4</title>
<g id="a_node4"><a xlink:href="_module_thread_8h.html" target="_top" xlink:title="include/ModuleThread.h">
<polygon fill="none" stroke="black" points="143,-56.5 143,-75.5 263,-75.5 263,-56.5 143,-56.5"/>
<text text-anchor="middle" x="203" y="-63.5" font-family="Helvetica,sans-Serif" font-size="10.00">include/ModuleThread.h</text>
</a>
</g>
</g>
<!-- Node1&#45;&gt;Node4 -->
<g id="edge4" class="edge"><title>Node1&#45;&gt;Node4</title>
<path fill="none" stroke="midnightblue" d="M113.664,-108.232C135.549,-98.1312 165.497,-84.3091 184.548,-75.5164"/>
<polygon fill="midnightblue" stroke="midnightblue" points="112.152,-105.075 104.539,-112.444 115.085,-111.431 112.152,-105.075"/>
</g>
<!-- Node3&#45;&gt;Node2 -->
<g id="edge3" class="edge"><title>Node3&#45;&gt;Node2</title>
<path fill="none" stroke="midnightblue" d="M75.0228,-47.5656C69.173,-38.2747 62.2305,-27.2484 57.5099,-19.7511"/>
<polygon fill="midnightblue" stroke="midnightblue" points="72.0956,-49.4855 80.3856,-56.083 78.0192,-45.7558 72.0956,-49.4855"/>
</g>
</g>
</svg>
