<?xml version="1.0" encoding="UTF-8" standalone="no"?>
<!DOCTYPE svg PUBLIC "-//W3C//DTD SVG 1.1//EN"
 "http://www.w3.org/Graphics/SVG/1.1/DTD/svg11.dtd">
<!-- Generated by graphviz version 2.34.0 (20140110.0949)
 -->
<!-- Title: include/Thread.h Pages: 1 -->
<svg width="434pt" height="140pt"
 viewBox="0.00 0.00 434.00 140.00" xmlns="http://www.w3.org/2000/svg" xmlns:xlink="http://www.w3.org/1999/xlink">
<g id="graph0" class="graph" transform="scale(1 1) rotate(0) translate(4 136)">
<title>include/Thread.h</title>
<!-- Node1 -->
<g id="node1" class="node"><title>Node1</title>
<polygon fill="#bfbfbf" stroke="black" points="103.5,-112.5 103.5,-131.5 192.5,-131.5 192.5,-112.5 103.5,-112.5"/>
<text text-anchor="middle" x="148" y="-119.5" font-family="Helvetica,sans-Serif" font-size="10.00">include/Thread.h</text>
</g>
<!-- Node2 -->
<g id="node2" class="node"><title>Node2</title>
<polygon fill="none" stroke="#bfbfbf" points="-0.5,-56.5 -0.5,-75.5 34.5,-75.5 34.5,-56.5 -0.5,-56.5"/>
<text text-anchor="middle" x="17" y="-63.5" font-family="Helvetica,sans-Serif" font-size="10.00">map</text>
</g>
<!-- Node1&#45;&gt;Node2 -->
<g id="edge1" class="edge"><title>Node1&#45;&gt;Node2</title>
<path fill="none" stroke="midnightblue" d="M127.243,-112.444C104.796,-103.191 68.92,-88.4021 44.2254,-78.2227"/>
<polygon fill="midnightblue" stroke="midnightblue" points="45.2986,-74.8794 34.7194,-74.3042 42.6308,-81.3511 45.2986,-74.8794"/>
</g>
<!-- Node3 -->
<g id="node3" class="node"><title>Node3</title>
<polygon fill="none" stroke="#bfbfbf" points="52.5,-56.5 52.5,-75.5 101.5,-75.5 101.5,-56.5 52.5,-56.5"/>
<text text-anchor="middle" x="77" y="-63.5" font-family="Helvetica,sans-Serif" font-size="10.00">stdint.h</text>
</g>
<!-- Node1&#45;&gt;Node3 -->
<g id="edge2" class="edge"><title>Node1&#45;&gt;Node3</title>
<path fill="none" stroke="midnightblue" d="M136.593,-112.324C125.891,-104.185 109.659,-91.8395 96.8372,-82.0874"/>
<polygon fill="midnightblue" stroke="midnightblue" points="98.6932,-79.1018 88.6149,-75.8339 94.4556,-84.6734 98.6932,-79.1018"/>
</g>
<!-- Node4 -->
<g id="node4" class="node"><title>Node4</title>
<polygon fill="none" stroke="#bfbfbf" points="119.5,-56.5 119.5,-75.5 176.5,-75.5 176.5,-56.5 119.5,-56.5"/>
<text text-anchor="middle" x="148" y="-63.5" font-family="Helvetica,sans-Serif" font-size="10.00">pthread.h</text>
</g>
<!-- Node1&#45;&gt;Node4 -->
<g id="edge3" class="edge"><title>Node1&#45;&gt;Node4</title>
<path fill="none" stroke="midnightblue" d="M148,-112.083C148,-105.006 148,-94.8611 148,-85.9865"/>
<polygon fill="midnightblue" stroke="midnightblue" points="151.5,-85.751 148,-75.7511 144.5,-85.7511 151.5,-85.751"/>
</g>
<!-- Node5 -->
<g id="node5" class="node"><title>Node5</title>
<g id="a_node5"><a xlink:href="_string_8h.html" target="_top" xlink:title="String.h">
<polygon fill="none" stroke="black" points="195,-56.5 195,-75.5 245,-75.5 245,-56.5 195,-56.5"/>
<text text-anchor="middle" x="220" y="-63.5" font-family="Helvetica,sans-Serif" font-size="10.00">String.h</text>
</a>
</g>
</g>
<!-- Node1&#45;&gt;Node5 -->
<g id="edge4" class="edge"><title>Node1&#45;&gt;Node5</title>
<path fill="none" stroke="midnightblue" d="M159.568,-112.324C170.42,-104.185 186.881,-91.8395 199.883,-82.0874"/>
<polygon fill="midnightblue" stroke="midnightblue" points="202.321,-84.6339 208.221,-75.8339 198.121,-79.0339 202.321,-84.6339"/>
</g>
<!-- Node7 -->
<g id="node7" class="node"><title>Node7</title>
<g id="a_node7"><a xlink:href="_event_8h.html" target="_top" xlink:title="Event.h">
<polygon fill="none" stroke="black" points="266,-56.5 266,-75.5 316,-75.5 316,-56.5 266,-56.5"/>
<text text-anchor="middle" x="291" y="-63.5" font-family="Helvetica,sans-Serif" font-size="10.00">Event.h</text>
</a>
</g>
</g>
<!-- Node1&#45;&gt;Node7 -->
<g id="edge6" class="edge"><title>Node1&#45;&gt;Node7</title>
<path fill="none" stroke="midnightblue" d="M170.659,-112.444C194.402,-103.478 231.909,-89.314 258.738,-79.1827"/>
<polygon fill="midnightblue" stroke="midnightblue" points="260.329,-82.3235 268.447,-75.5164 257.856,-75.7749 260.329,-82.3235"/>
</g>
<!-- Node6 -->
<g id="node6" class="node"><title>Node6</title>
<polygon fill="none" stroke="#bfbfbf" points="195.5,-0.5 195.5,-19.5 236.5,-19.5 236.5,-0.5 195.5,-0.5"/>
<text text-anchor="middle" x="216" y="-7.5" font-family="Helvetica,sans-Serif" font-size="10.00">string</text>
</g>
<!-- Node5&#45;&gt;Node6 -->
<g id="edge5" class="edge"><title>Node5&#45;&gt;Node6</title>
<path fill="none" stroke="midnightblue" d="M219.339,-56.083C218.815,-49.0059 218.064,-38.8611 217.406,-29.9865"/>
<polygon fill="midnightblue" stroke="midnightblue" points="220.877,-29.4652 216.648,-19.7511 213.897,-29.9823 220.877,-29.4652"/>
</g>
<!-- Node8 -->
<g id="node8" class="node"><title>Node8</title>
<polygon fill="none" stroke="#bfbfbf" points="254.5,-0.5 254.5,-19.5 327.5,-19.5 327.5,-0.5 254.5,-0.5"/>
<text text-anchor="middle" x="291" y="-7.5" font-family="Helvetica,sans-Serif" font-size="10.00">event2/dns.h</text>
</g>
<!-- Node7&#45;&gt;Node8 -->
<g id="edge7" class="edge"><title>Node7&#45;&gt;Node8</title>
<path fill="none" stroke="midnightblue" d="M291,-56.083C291,-49.0059 291,-38.8611 291,-29.9865"/>
<polygon fill="midnightblue" stroke="midnightblue" points="294.5,-29.751 291,-19.7511 287.5,-29.7511 294.5,-29.751"/>
</g>
<!-- Node9 -->
<g id="node9" class="node"><title>Node9</title>
<polygon fill="none" stroke="#bfbfbf" points="345.5,-0.5 345.5,-19.5 426.5,-19.5 426.5,-0.5 345.5,-0.5"/>
<text text-anchor="middle" x="386" y="-7.5" font-family="Helvetica,sans-Serif" font-size="10.00">event2/event.h</text>
</g>
<!-- Node7&#45;&gt;Node9 -->
<g id="edge8" class="edge"><title>Node7&#45;&gt;Node9</title>
<path fill="none" stroke="midnightblue" d="M306.263,-56.324C321.221,-47.8215 344.255,-34.7288 361.727,-24.7975"/>
<polygon fill="midnightblue" stroke="midnightblue" points="363.81,-27.639 370.774,-19.6545 360.351,-21.5534 363.81,-27.639"/>
</g>
</g>
</svg>
