<?xml version="1.0" encoding="UTF-8" standalone="no"?>
<!DOCTYPE svg PUBLIC "-//W3C//DTD SVG 1.1//EN"
 "http://www.w3.org/Graphics/SVG/1.1/DTD/svg11.dtd">
<!-- Generated by graphviz version 2.34.0 (20140110.0949)
 -->
<!-- Title: include/Timer.h Pages: 1 -->
<svg width="457pt" height="196pt"
 viewBox="0.00 0.00 457.00 196.00" xmlns="http://www.w3.org/2000/svg" xmlns:xlink="http://www.w3.org/1999/xlink">
<g id="graph0" class="graph" transform="scale(1 1) rotate(0) translate(4 192)">
<title>include/Timer.h</title>
<!-- Node1 -->
<g id="node1" class="node"><title>Node1</title>
<polygon fill="#bfbfbf" stroke="black" points="45.5,-168.5 45.5,-187.5 128.5,-187.5 128.5,-168.5 45.5,-168.5"/>
<text text-anchor="middle" x="87" y="-175.5" font-family="Helvetica,sans-Serif" font-size="10.00">include/Timer.h</text>
</g>
<!-- Node2 -->
<g id="node2" class="node"><title>Node2</title>
<polygon fill="none" stroke="#bfbfbf" points="-0.5,-112.5 -0.5,-131.5 58.5,-131.5 58.5,-112.5 -0.5,-112.5"/>
<text text-anchor="middle" x="29" y="-119.5" font-family="Helvetica,sans-Serif" font-size="10.00">functional</text>
</g>
<!-- Node1&#45;&gt;Node2 -->
<g id="edge1" class="edge"><title>Node1&#45;&gt;Node2</title>
<path fill="none" stroke="midnightblue" d="M77.6813,-168.324C69.1074,-160.341 56.1878,-148.313 45.8124,-138.653"/>
<polygon fill="midnightblue" stroke="midnightblue" points="48.1922,-136.086 38.4883,-131.834 43.4223,-141.21 48.1922,-136.086"/>
</g>
<!-- Node3 -->
<g id="node3" class="node"><title>Node3</title>
<polygon fill="none" stroke="#bfbfbf" points="84.5,-0.5 84.5,-19.5 165.5,-19.5 165.5,-0.5 84.5,-0.5"/>
<text text-anchor="middle" x="125" y="-7.5" font-family="Helvetica,sans-Serif" font-size="10.00">event2/event.h</text>
</g>
<!-- Node1&#45;&gt;Node3 -->
<g id="edge2" class="edge"><title>Node1&#45;&gt;Node3</title>
<path fill="none" stroke="midnightblue" d="M89.043,-168.075C95.0246,-141.945 112.59,-65.2106 120.747,-29.577"/>
<polygon fill="midnightblue" stroke="midnightblue" points="124.219,-30.097 123.039,-19.5681 117.395,-28.5349 124.219,-30.097"/>
</g>
<!-- Node4 -->
<g id="node4" class="node"><title>Node4</title>
<g id="a_node4"><a xlink:href="_module_8h.html" target="_top" xlink:title="Module.h">
<polygon fill="none" stroke="black" points="203,-112.5 203,-131.5 259,-131.5 259,-112.5 203,-112.5"/>
<text text-anchor="middle" x="231" y="-119.5" font-family="Helvetica,sans-Serif" font-size="10.00">Module.h</text>
</a>
</g>
</g>
<!-- Node1&#45;&gt;Node4 -->
<g id="edge3" class="edge"><title>Node1&#45;&gt;Node4</title>
<path fill="none" stroke="midnightblue" d="M109.817,-168.444C133.832,-159.438 171.829,-145.189 198.869,-135.049"/>
<polygon fill="midnightblue" stroke="midnightblue" points="200.155,-138.305 208.29,-131.516 197.697,-131.751 200.155,-138.305"/>
</g>
<!-- Node4&#45;&gt;Node3 -->
<g id="edge5" class="edge"><title>Node4&#45;&gt;Node3</title>
<path fill="none" stroke="midnightblue" d="M202.921,-112.975C183.735,-106.113 159.134,-94.3775 144,-76 133.149,-62.8234 128.495,-43.6857 126.499,-29.5867"/>
<polygon fill="midnightblue" stroke="midnightblue" points="129.969,-29.1287 125.4,-19.5699 123.011,-29.8919 129.969,-29.1287"/>
</g>
<!-- Node5 -->
<g id="node5" class="node"><title>Node5</title>
<polygon fill="none" stroke="#bfbfbf" points="188.5,-0.5 188.5,-19.5 261.5,-19.5 261.5,-0.5 188.5,-0.5"/>
<text text-anchor="middle" x="225" y="-7.5" font-family="Helvetica,sans-Serif" font-size="10.00">event2/dns.h</text>
</g>
<!-- Node4&#45;&gt;Node5 -->
<g id="edge4" class="edge"><title>Node4&#45;&gt;Node5</title>
<path fill="none" stroke="midnightblue" d="M230.529,-112.368C229.561,-94.617 227.327,-53.6664 226.014,-29.5974"/>
<polygon fill="midnightblue" stroke="midnightblue" points="229.508,-29.3859 225.469,-19.5914 222.519,-29.7672 229.508,-29.3859"/>
</g>
<!-- Node6 -->
<g id="node6" class="node"><title>Node6</title>
<polygon fill="none" stroke="#bfbfbf" points="259.5,-56.5 259.5,-75.5 332.5,-75.5 332.5,-56.5 259.5,-56.5"/>
<text text-anchor="middle" x="296" y="-63.5" font-family="Helvetica,sans-Serif" font-size="10.00">libconfig.h++</text>
</g>
<!-- Node4&#45;&gt;Node6 -->
<g id="edge6" class="edge"><title>Node4&#45;&gt;Node6</title>
<path fill="none" stroke="midnightblue" d="M241.443,-112.324C251.146,-104.263 265.815,-92.0765 277.5,-82.3695"/>
<polygon fill="midnightblue" stroke="midnightblue" points="279.911,-84.9163 285.367,-75.8339 275.438,-79.532 279.911,-84.9163"/>
</g>
<!-- Node7 -->
<g id="node7" class="node"><title>Node7</title>
<polygon fill="none" stroke="#bfbfbf" points="351,-56.5 351,-75.5 381,-75.5 381,-56.5 351,-56.5"/>
<text text-anchor="middle" x="366" y="-63.5" font-family="Helvetica,sans-Serif" font-size="10.00">set</text>
</g>
<!-- Node4&#45;&gt;Node7 -->
<g id="edge7" class="edge"><title>Node4&#45;&gt;Node7</title>
<path fill="none" stroke="midnightblue" d="M252.391,-112.444C276.676,-102.729 316.215,-86.9142 341.66,-76.7362"/>
<polygon fill="midnightblue" stroke="midnightblue" points="342.994,-79.9721 350.979,-73.0084 340.394,-73.4727 342.994,-79.9721"/>
</g>
<!-- Node8 -->
<g id="node8" class="node"><title>Node8</title>
<g id="a_node8"><a xlink:href="_string_8h.html" target="_top" xlink:title="String.h">
<polygon fill="none" stroke="black" points="399,-56.5 399,-75.5 449,-75.5 449,-56.5 399,-56.5"/>
<text text-anchor="middle" x="424" y="-63.5" font-family="Helvetica,sans-Serif" font-size="10.00">String.h</text>
</a>
</g>
</g>
<!-- Node4&#45;&gt;Node8 -->
<g id="edge8" class="edge"><title>Node4&#45;&gt;Node8</title>
<path fill="none" stroke="midnightblue" d="M259.064,-113.148C293.466,-103.522 351.777,-87.2075 389.054,-76.7777"/>
<polygon fill="midnightblue" stroke="midnightblue" points="390.286,-80.0675 398.973,-74.0025 388.399,-73.3264 390.286,-80.0675"/>
</g>
<!-- Node10 -->
<g id="node10" class="node"><title>Node10</title>
<g id="a_node10"><a xlink:href="_event_8h.html" target="_top" xlink:title="Event.h">
<polygon fill="none" stroke="black" points="153,-56.5 153,-75.5 203,-75.5 203,-56.5 153,-56.5"/>
<text text-anchor="middle" x="178" y="-63.5" font-family="Helvetica,sans-Serif" font-size="10.00">Event.h</text>
</a>
</g>
</g>
<!-- Node4&#45;&gt;Node10 -->
<g id="edge10" class="edge"><title>Node4&#45;&gt;Node10</title>
<path fill="none" stroke="midnightblue" d="M222.248,-112.083C214.53,-104.22 203.095,-92.5688 193.783,-83.0813"/>
<polygon fill="midnightblue" stroke="midnightblue" points="196.092,-80.4363 186.589,-75.7511 191.096,-85.3396 196.092,-80.4363"/>
</g>
<!-- Node9 -->
<g id="node9" class="node"><title>Node9</title>
<polygon fill="none" stroke="#bfbfbf" points="403.5,-0.5 403.5,-19.5 444.5,-19.5 444.5,-0.5 403.5,-0.5"/>
<text text-anchor="middle" x="424" y="-7.5" font-family="Helvetica,sans-Serif" font-size="10.00">string</text>
</g>
<!-- Node8&#45;&gt;Node9 -->
<g id="edge9" class="edge"><title>Node8&#45;&gt;Node9</title>
<path fill="none" stroke="midnightblue" d="M424,-56.083C424,-49.0059 424,-38.8611 424,-29.9865"/>
<polygon fill="midnightblue" stroke="midnightblue" points="427.5,-29.751 424,-19.7511 420.5,-29.7511 427.5,-29.751"/>
</g>
<!-- Node10&#45;&gt;Node3 -->
<g id="edge12" class="edge"><title>Node10&#45;&gt;Node3</title>
<path fill="none" stroke="midnightblue" d="M169.248,-56.083C161.53,-48.2195 150.095,-36.5688 140.783,-27.0813"/>
<polygon fill="midnightblue" stroke="midnightblue" points="143.092,-24.4363 133.589,-19.7511 138.096,-29.3396 143.092,-24.4363"/>
</g>
<!-- Node10&#45;&gt;Node5 -->
<g id="edge11" class="edge"><title>Node10&#45;&gt;Node5</title>
<path fill="none" stroke="midnightblue" d="M185.761,-56.083C192.537,-48.2982 202.543,-36.8015 210.755,-27.3665"/>
<polygon fill="midnightblue" stroke="midnightblue" points="213.458,-29.592 217.383,-19.7511 208.178,-24.9963 213.458,-29.592"/>
</g>
</g>
</svg>
