<?xml version="1.0" encoding="UTF-8" standalone="no"?>
<!DOCTYPE svg PUBLIC "-//W3C//DTD SVG 1.1//EN"
 "http://www.w3.org/Graphics/SVG/1.1/DTD/svg11.dtd">
<!-- Generated by graphviz version 2.34.0 (20140110.0949)
 -->
<!-- Title: include/Timer.h Pages: 1 -->
<svg width="124pt" height="140pt"
 viewBox="0.00 0.00 124.00 140.00" xmlns="http://www.w3.org/2000/svg" xmlns:xlink="http://www.w3.org/1999/xlink">
<g id="graph0" class="graph" transform="scale(1 1) rotate(0) translate(4 136)">
<title>include/Timer.h</title>
<!-- Node1 -->
<g id="node1" class="node"><title>Node1</title>
<polygon fill="#bfbfbf" stroke="black" points="16.5,-112.5 16.5,-131.5 99.5,-131.5 99.5,-112.5 16.5,-112.5"/>
<text text-anchor="middle" x="58" y="-119.5" font-family="Helvetica,sans-Serif" font-size="10.00">include/Timer.h</text>
</g>
<!-- Node2 -->
<g id="node2" class="node"><title>Node2</title>
<g id="a_node2"><a xlink:href="_backoff_timer_8h.html" target="_top" xlink:title="include/BackoffTimer.h">
<polygon fill="none" stroke="black" points="-0.5,-56.5 -0.5,-75.5 116.5,-75.5 116.5,-56.5 -0.5,-56.5"/>
<text text-anchor="middle" x="58" y="-63.5" font-family="Helvetica,sans-Serif" font-size="10.00">include/BackoffTimer.h</text>
</a>
</g>
</g>
<!-- Node1&#45;&gt;Node2 -->
<g id="edge1" class="edge"><title>Node1&#45;&gt;Node2</title>
<path fill="none" stroke="midnightblue" d="M58,-101.805C58,-92.9102 58,-82.7798 58,-75.7511"/>
<polygon fill="midnightblue" stroke="midnightblue" points="54.5001,-102.083 58,-112.083 61.5001,-102.083 54.5001,-102.083"/>
</g>
<!-- Node3 -->
<g id="node3" class="node"><title>Node3</title>
<g id="a_node3"><a xlink:href="_postgres_8h.html" target="_top" xlink:title="include/Postgres.h">
<polygon fill="none" stroke="black" points="9,-0.5 9,-19.5 107,-19.5 107,-0.5 9,-0.5"/>
<text text-anchor="middle" x="58" y="-7.5" font-family="Helvetica,sans-Serif" font-size="10.00">include/Postgres.h</text>
</a>
</g>
</g>
<!-- Node2&#45;&gt;Node3 -->
<g id="edge2" class="edge"><title>Node2&#45;&gt;Node3</title>
<path fill="none" stroke="midnightblue" d="M58,-45.8045C58,-36.9102 58,-26.7798 58,-19.7511"/>
<polygon fill="midnightblue" stroke="midnightblue" points="54.5001,-46.083 58,-56.083 61.5001,-46.083 54.5001,-46.083"/>
</g>
</g>
</svg>
