<?xml version="1.0" encoding="UTF-8" standalone="no"?>
<!DOCTYPE svg PUBLIC "-//W3C//DTD SVG 1.1//EN"
 "http://www.w3.org/Graphics/SVG/1.1/DTD/svg11.dtd">
<!-- Generated by graphviz version 2.34.0 (20140110.0949)
 -->
<!-- Title: include/Timer.h Pages: 1 -->
<svg width="365pt" height="196pt"
 viewBox="0.00 0.00 365.00 196.00" xmlns="http://www.w3.org/2000/svg" xmlns:xlink="http://www.w3.org/1999/xlink">
<g id="graph0" class="graph" transform="scale(1 1) rotate(0) translate(4 192)">
<title>include/Timer.h</title>
<!-- Node1 -->
<g id="node1" class="node"><title>Node1</title>
<polygon fill="#bfbfbf" stroke="black" points="45.5,-168.5 45.5,-187.5 128.5,-187.5 128.5,-168.5 45.5,-168.5"/>
<text text-anchor="middle" x="87" y="-175.5" font-family="Helvetica,sans-Serif" font-size="10.00">include/Timer.h</text>
</g>
<!-- Node2 -->
<g id="node2" class="node"><title>Node2</title>
<polygon fill="none" stroke="#bfbfbf" points="-0.5,-112.5 -0.5,-131.5 58.5,-131.5 58.5,-112.5 -0.5,-112.5"/>
<text text-anchor="middle" x="29" y="-119.5" font-family="Helvetica,sans-Serif" font-size="10.00">functional</text>
</g>
<!-- Node1&#45;&gt;Node2 -->
<g id="edge1" class="edge"><title>Node1&#45;&gt;Node2</title>
<path fill="none" stroke="midnightblue" d="M77.6813,-168.324C69.1074,-160.341 56.1878,-148.313 45.8124,-138.653"/>
<polygon fill="midnightblue" stroke="midnightblue" points="48.1922,-136.086 38.4883,-131.834 43.4223,-141.21 48.1922,-136.086"/>
</g>
<!-- Node3 -->
<g id="node3" class="node"><title>Node3</title>
<polygon fill="none" stroke="#bfbfbf" points="84.5,-0.5 84.5,-19.5 165.5,-19.5 165.5,-0.5 84.5,-0.5"/>
<text text-anchor="middle" x="125" y="-7.5" font-family="Helvetica,sans-Serif" font-size="10.00">event2/event.h</text>
</g>
<!-- Node1&#45;&gt;Node3 -->
<g id="edge2" class="edge"><title>Node1&#45;&gt;Node3</title>
<path fill="none" stroke="midnightblue" d="M89.043,-168.075C95.0246,-141.945 112.59,-65.2106 120.747,-29.577"/>
<polygon fill="midnightblue" stroke="midnightblue" points="124.219,-30.097 123.039,-19.5681 117.395,-28.5349 124.219,-30.097"/>
</g>
<!-- Node4 -->
<g id="node4" class="node"><title>Node4</title>
<g id="a_node4"><a xlink:href="_module_8h.html" target="_top" xlink:title="Module.h">
<polygon fill="none" stroke="black" points="177,-112.5 177,-131.5 233,-131.5 233,-112.5 177,-112.5"/>
<text text-anchor="middle" x="205" y="-119.5" font-family="Helvetica,sans-Serif" font-size="10.00">Module.h</text>
</a>
</g>
</g>
<!-- Node1&#45;&gt;Node4 -->
<g id="edge3" class="edge"><title>Node1&#45;&gt;Node4</title>
<path fill="none" stroke="midnightblue" d="M105.697,-168.444C124.944,-159.636 155.152,-145.812 177.2,-135.722"/>
<polygon fill="midnightblue" stroke="midnightblue" points="178.753,-138.86 186.39,-131.516 175.84,-132.495 178.753,-138.86"/>
</g>
<!-- Node4&#45;&gt;Node3 -->
<g id="edge5" class="edge"><title>Node4&#45;&gt;Node3</title>
<path fill="none" stroke="midnightblue" d="M187.824,-112.412C174.052,-104.681 155.23,-92.0744 144,-76 134.426,-62.2961 129.626,-43.7631 127.25,-29.9929"/>
<polygon fill="midnightblue" stroke="midnightblue" points="130.666,-29.1543 125.773,-19.7567 123.737,-30.1541 130.666,-29.1543"/>
</g>
<!-- Node5 -->
<g id="node5" class="node"><title>Node5</title>
<polygon fill="none" stroke="#bfbfbf" points="188.5,-0.5 188.5,-19.5 261.5,-19.5 261.5,-0.5 188.5,-0.5"/>
<text text-anchor="middle" x="225" y="-7.5" font-family="Helvetica,sans-Serif" font-size="10.00">event2/dns.h</text>
</g>
<!-- Node4&#45;&gt;Node5 -->
<g id="edge4" class="edge"><title>Node4&#45;&gt;Node5</title>
<path fill="none" stroke="midnightblue" d="M206.569,-112.368C209.797,-94.617 217.242,-53.6664 221.619,-29.5974"/>
<polygon fill="midnightblue" stroke="midnightblue" points="225.093,-30.0562 223.438,-19.5914 218.205,-28.804 225.093,-30.0562"/>
</g>
<!-- Node6 -->
<g id="node6" class="node"><title>Node6</title>
<polygon fill="none" stroke="#bfbfbf" points="259,-56.5 259,-75.5 289,-75.5 289,-56.5 259,-56.5"/>
<text text-anchor="middle" x="274" y="-63.5" font-family="Helvetica,sans-Serif" font-size="10.00">set</text>
</g>
<!-- Node4&#45;&gt;Node6 -->
<g id="edge6" class="edge"><title>Node4&#45;&gt;Node6</title>
<path fill="none" stroke="midnightblue" d="M216.086,-112.324C226.486,-104.185 242.261,-91.8395 254.722,-82.0874"/>
<polygon fill="midnightblue" stroke="midnightblue" points="256.994,-84.7533 262.712,-75.8339 252.68,-79.2407 256.994,-84.7533"/>
</g>
<!-- Node7 -->
<g id="node7" class="node"><title>Node7</title>
<g id="a_node7"><a xlink:href="_string_8h.html" target="_top" xlink:title="String.h">
<polygon fill="none" stroke="black" points="307,-56.5 307,-75.5 357,-75.5 357,-56.5 307,-56.5"/>
<text text-anchor="middle" x="332" y="-63.5" font-family="Helvetica,sans-Serif" font-size="10.00">String.h</text>
</a>
</g>
</g>
<!-- Node4&#45;&gt;Node7 -->
<g id="edge7" class="edge"><title>Node4&#45;&gt;Node7</title>
<path fill="none" stroke="midnightblue" d="M225.124,-112.444C246.024,-103.557 278.935,-89.5632 302.716,-79.4514"/>
<polygon fill="midnightblue" stroke="midnightblue" points="304.138,-82.6504 311.971,-75.5164 301.398,-76.2085 304.138,-82.6504"/>
</g>
<!-- Node9 -->
<g id="node9" class="node"><title>Node9</title>
<g id="a_node9"><a xlink:href="_event_8h.html" target="_top" xlink:title="Event.h">
<polygon fill="none" stroke="black" points="153,-56.5 153,-75.5 203,-75.5 203,-56.5 153,-56.5"/>
<text text-anchor="middle" x="178" y="-63.5" font-family="Helvetica,sans-Serif" font-size="10.00">Event.h</text>
</a>
</g>
</g>
<!-- Node4&#45;&gt;Node9 -->
<g id="edge9" class="edge"><title>Node4&#45;&gt;Node9</title>
<path fill="none" stroke="midnightblue" d="M200.541,-112.083C196.846,-104.691 191.477,-93.9533 186.906,-84.8111"/>
<polygon fill="midnightblue" stroke="midnightblue" points="189.978,-83.1301 182.376,-75.7511 183.717,-86.2606 189.978,-83.1301"/>
</g>
<!-- Node8 -->
<g id="node8" class="node"><title>Node8</title>
<polygon fill="none" stroke="#bfbfbf" points="311.5,-0.5 311.5,-19.5 352.5,-19.5 352.5,-0.5 311.5,-0.5"/>
<text text-anchor="middle" x="332" y="-7.5" font-family="Helvetica,sans-Serif" font-size="10.00">string</text>
</g>
<!-- Node7&#45;&gt;Node8 -->
<g id="edge8" class="edge"><title>Node7&#45;&gt;Node8</title>
<path fill="none" stroke="midnightblue" d="M332,-56.083C332,-49.0059 332,-38.8611 332,-29.9865"/>
<polygon fill="midnightblue" stroke="midnightblue" points="335.5,-29.751 332,-19.7511 328.5,-29.7511 335.5,-29.751"/>
</g>
<!-- Node9&#45;&gt;Node3 -->
<g id="edge11" class="edge"><title>Node9&#45;&gt;Node3</title>
<path fill="none" stroke="midnightblue" d="M169.248,-56.083C161.53,-48.2195 150.095,-36.5688 140.783,-27.0813"/>
<polygon fill="midnightblue" stroke="midnightblue" points="143.092,-24.4363 133.589,-19.7511 138.096,-29.3396 143.092,-24.4363"/>
</g>
<!-- Node9&#45;&gt;Node5 -->
<g id="edge10" class="edge"><title>Node9&#45;&gt;Node5</title>
<path fill="none" stroke="midnightblue" d="M185.761,-56.083C192.537,-48.2982 202.543,-36.8015 210.755,-27.3665"/>
<polygon fill="midnightblue" stroke="midnightblue" points="213.458,-29.592 217.383,-19.7511 208.178,-24.9963 213.458,-29.592"/>
</g>
</g>
</svg>
