<?xml version="1.0" encoding="UTF-8" standalone="no"?>
<!DOCTYPE svg PUBLIC "-//W3C//DTD SVG 1.1//EN"
 "http://www.w3.org/Graphics/SVG/1.1/DTD/svg11.dtd">
<!-- Generated by graphviz version 2.34.0 (20140110.0949)
 -->
<!-- Title: include/TriggerEvent.h Pages: 1 -->
<svg width="383pt" height="196pt"
 viewBox="0.00 0.00 383.00 196.00" xmlns="http://www.w3.org/2000/svg" xmlns:xlink="http://www.w3.org/1999/xlink">
<g id="graph0" class="graph" transform="scale(1 1) rotate(0) translate(4 192)">
<title>include/TriggerEvent.h</title>
<!-- Node1 -->
<g id="node1" class="node"><title>Node1</title>
<polygon fill="#bfbfbf" stroke="black" points="9,-168.5 9,-187.5 123,-187.5 123,-168.5 9,-168.5"/>
<text text-anchor="middle" x="66" y="-175.5" font-family="Helvetica,sans-Serif" font-size="10.00">include/TriggerEvent.h</text>
</g>
<!-- Node2 -->
<g id="node2" class="node"><title>Node2</title>
<polygon fill="none" stroke="#bfbfbf" points="-0.5,-0.5 -0.5,-19.5 80.5,-19.5 80.5,-0.5 -0.5,-0.5"/>
<text text-anchor="middle" x="40" y="-7.5" font-family="Helvetica,sans-Serif" font-size="10.00">event2/event.h</text>
</g>
<!-- Node1&#45;&gt;Node2 -->
<g id="edge1" class="edge"><title>Node1&#45;&gt;Node2</title>
<path fill="none" stroke="midnightblue" d="M61.2805,-168.404C51.0745,-148.872 28.1659,-99.4723 32,-56 32.7764,-47.1966 34.3915,-37.5357 35.9685,-29.4298"/>
<polygon fill="midnightblue" stroke="midnightblue" points="39.4104,-30.0689 38.0131,-19.5666 32.5561,-28.648 39.4104,-30.0689"/>
</g>
<!-- Node3 -->
<g id="node3" class="node"><title>Node3</title>
<g id="a_node3"><a xlink:href="_module_8h.html" target="_top" xlink:title="Module.h">
<polygon fill="none" stroke="black" points="129,-112.5 129,-131.5 185,-131.5 185,-112.5 129,-112.5"/>
<text text-anchor="middle" x="157" y="-119.5" font-family="Helvetica,sans-Serif" font-size="10.00">Module.h</text>
</a>
</g>
</g>
<!-- Node1&#45;&gt;Node3 -->
<g id="edge2" class="edge"><title>Node1&#45;&gt;Node3</title>
<path fill="none" stroke="midnightblue" d="M80.6207,-168.324C94.9489,-159.822 117.013,-146.729 133.749,-136.797"/>
<polygon fill="midnightblue" stroke="midnightblue" points="135.602,-139.768 142.416,-131.655 132.03,-133.748 135.602,-139.768"/>
</g>
<!-- Node10 -->
<g id="node10" class="node"><title>Node10</title>
<g id="a_node10"><a xlink:href="_event_8h.html" target="_top" xlink:title="Event.h">
<polygon fill="none" stroke="black" points="41,-56.5 41,-75.5 91,-75.5 91,-56.5 41,-56.5"/>
<text text-anchor="middle" x="66" y="-63.5" font-family="Helvetica,sans-Serif" font-size="10.00">Event.h</text>
</a>
</g>
</g>
<!-- Node1&#45;&gt;Node10 -->
<g id="edge13" class="edge"><title>Node1&#45;&gt;Node10</title>
<path fill="none" stroke="midnightblue" d="M66,-168.368C66,-150.617 66,-109.666 66,-85.5974"/>
<polygon fill="midnightblue" stroke="midnightblue" points="69.5001,-85.5914 66,-75.5914 62.5001,-85.5915 69.5001,-85.5914"/>
</g>
<!-- Node3&#45;&gt;Node2 -->
<g id="edge4" class="edge"><title>Node3&#45;&gt;Node2</title>
<path fill="none" stroke="midnightblue" d="M150.489,-112.5C140.395,-99.5853 120.039,-74.5638 100,-56 87.9733,-44.8589 73.2633,-33.7917 61.4185,-25.4206"/>
<polygon fill="midnightblue" stroke="midnightblue" points="63.2226,-22.4124 53.0111,-19.5882 59.2326,-28.164 63.2226,-22.4124"/>
</g>
<!-- Node4 -->
<g id="node4" class="node"><title>Node4</title>
<polygon fill="none" stroke="#bfbfbf" points="98.5,-0.5 98.5,-19.5 171.5,-19.5 171.5,-0.5 98.5,-0.5"/>
<text text-anchor="middle" x="135" y="-7.5" font-family="Helvetica,sans-Serif" font-size="10.00">event2/dns.h</text>
</g>
<!-- Node3&#45;&gt;Node4 -->
<g id="edge3" class="edge"><title>Node3&#45;&gt;Node4</title>
<path fill="none" stroke="midnightblue" d="M155.274,-112.368C151.723,-94.617 143.533,-53.6664 138.719,-29.5974"/>
<polygon fill="midnightblue" stroke="midnightblue" points="142.112,-28.7108 136.718,-19.5914 135.247,-30.0837 142.112,-28.7108"/>
</g>
<!-- Node5 -->
<g id="node5" class="node"><title>Node5</title>
<polygon fill="none" stroke="#bfbfbf" points="253.5,-56.5 253.5,-75.5 326.5,-75.5 326.5,-56.5 253.5,-56.5"/>
<text text-anchor="middle" x="290" y="-63.5" font-family="Helvetica,sans-Serif" font-size="10.00">libconfig.h++</text>
</g>
<!-- Node3&#45;&gt;Node5 -->
<g id="edge5" class="edge"><title>Node3&#45;&gt;Node5</title>
<path fill="none" stroke="midnightblue" d="M178.074,-112.444C200.06,-103.517 234.734,-89.4387 259.664,-79.3168"/>
<polygon fill="midnightblue" stroke="midnightblue" points="261.076,-82.5213 269.024,-75.5164 258.442,-76.0355 261.076,-82.5213"/>
</g>
<!-- Node6 -->
<g id="node6" class="node"><title>Node6</title>
<polygon fill="none" stroke="#bfbfbf" points="345,-56.5 345,-75.5 375,-75.5 375,-56.5 345,-56.5"/>
<text text-anchor="middle" x="360" y="-63.5" font-family="Helvetica,sans-Serif" font-size="10.00">set</text>
</g>
<!-- Node3&#45;&gt;Node6 -->
<g id="edge6" class="edge"><title>Node3&#45;&gt;Node6</title>
<path fill="none" stroke="midnightblue" d="M185.29,-114.75C220.602,-106.743 282.721,-91.9765 335,-76 335.099,-75.9697 335.199,-75.9392 335.298,-75.9085"/>
<polygon fill="midnightblue" stroke="midnightblue" points="336.363,-79.2431 344.743,-72.7603 334.149,-72.6023 336.363,-79.2431"/>
</g>
<!-- Node7 -->
<g id="node7" class="node"><title>Node7</title>
<g id="a_node7"><a xlink:href="_string_8h.html" target="_top" xlink:title="String.h">
<polygon fill="none" stroke="black" points="185,-56.5 185,-75.5 235,-75.5 235,-56.5 185,-56.5"/>
<text text-anchor="middle" x="210" y="-63.5" font-family="Helvetica,sans-Serif" font-size="10.00">String.h</text>
</a>
</g>
</g>
<!-- Node3&#45;&gt;Node7 -->
<g id="edge7" class="edge"><title>Node3&#45;&gt;Node7</title>
<path fill="none" stroke="midnightblue" d="M165.752,-112.083C173.47,-104.22 184.905,-92.5688 194.217,-83.0813"/>
<polygon fill="midnightblue" stroke="midnightblue" points="196.904,-85.3396 201.411,-75.7511 191.908,-80.4363 196.904,-85.3396"/>
</g>
<!-- Node3&#45;&gt;Node10 -->
<g id="edge10" class="edge"><title>Node3&#45;&gt;Node10</title>
<path fill="none" stroke="midnightblue" d="M142.379,-112.324C128.051,-103.822 105.987,-90.7288 89.2513,-80.7975"/>
<polygon fill="midnightblue" stroke="midnightblue" points="90.9704,-77.7478 80.5844,-75.6545 87.3982,-83.7677 90.9704,-77.7478"/>
</g>
<!-- Node8 -->
<g id="node8" class="node"><title>Node8</title>
<polygon fill="none" stroke="#bfbfbf" points="189.5,-0.5 189.5,-19.5 230.5,-19.5 230.5,-0.5 189.5,-0.5"/>
<text text-anchor="middle" x="210" y="-7.5" font-family="Helvetica,sans-Serif" font-size="10.00">string</text>
</g>
<!-- Node7&#45;&gt;Node8 -->
<g id="edge8" class="edge"><title>Node7&#45;&gt;Node8</title>
<path fill="none" stroke="midnightblue" d="M210,-56.083C210,-49.0059 210,-38.8611 210,-29.9865"/>
<polygon fill="midnightblue" stroke="midnightblue" points="213.5,-29.751 210,-19.7511 206.5,-29.7511 213.5,-29.751"/>
</g>
<!-- Node9 -->
<g id="node9" class="node"><title>Node9</title>
<polygon fill="none" stroke="#bfbfbf" points="248.5,-0.5 248.5,-19.5 297.5,-19.5 297.5,-0.5 248.5,-0.5"/>
<text text-anchor="middle" x="273" y="-7.5" font-family="Helvetica,sans-Serif" font-size="10.00">stdint.h</text>
</g>
<!-- Node7&#45;&gt;Node9 -->
<g id="edge9" class="edge"><title>Node7&#45;&gt;Node9</title>
<path fill="none" stroke="midnightblue" d="M220.122,-56.324C229.526,-48.2631 243.744,-36.0765 255.069,-26.3695"/>
<polygon fill="midnightblue" stroke="midnightblue" points="257.379,-28.9993 262.694,-19.8339 252.823,-23.6844 257.379,-28.9993"/>
</g>
<!-- Node10&#45;&gt;Node2 -->
<g id="edge12" class="edge"><title>Node10&#45;&gt;Node2</title>
<path fill="none" stroke="midnightblue" d="M61.7066,-56.083C58.1477,-48.6913 52.9775,-37.9533 48.5757,-28.8111"/>
<polygon fill="midnightblue" stroke="midnightblue" points="51.7052,-27.2427 44.2135,-19.7511 45.3982,-30.2795 51.7052,-27.2427"/>
</g>
<!-- Node10&#45;&gt;Node4 -->
<g id="edge11" class="edge"><title>Node10&#45;&gt;Node4</title>
<path fill="none" stroke="midnightblue" d="M77.086,-56.324C87.486,-48.1849 103.261,-35.8395 115.722,-26.0874"/>
<polygon fill="midnightblue" stroke="midnightblue" points="117.994,-28.7533 123.712,-19.8339 113.68,-23.2407 117.994,-28.7533"/>
</g>
</g>
</svg>
