<?xml version="1.0" encoding="UTF-8" standalone="no"?>
<!DOCTYPE svg PUBLIC "-//W3C//DTD SVG 1.1//EN"
 "http://www.w3.org/Graphics/SVG/1.1/DTD/svg11.dtd">
<!-- Generated by graphviz version 2.34.0 (20140110.0949)
 -->
<!-- Title: include/Writer.h Pages: 1 -->
<svg width="699pt" height="196pt"
 viewBox="0.00 0.00 699.00 196.00" xmlns="http://www.w3.org/2000/svg" xmlns:xlink="http://www.w3.org/1999/xlink">
<g id="graph0" class="graph" transform="scale(1 1) rotate(0) translate(4 192)">
<title>include/Writer.h</title>
<!-- Node1 -->
<g id="node1" class="node"><title>Node1</title>
<polygon fill="#bfbfbf" stroke="black" points="272.5,-168.5 272.5,-187.5 357.5,-187.5 357.5,-168.5 272.5,-168.5"/>
<text text-anchor="middle" x="315" y="-175.5" font-family="Helvetica,sans-Serif" font-size="10.00">include/Writer.h</text>
</g>
<!-- Node2 -->
<g id="node2" class="node"><title>Node2</title>
<g id="a_node2"><a xlink:href="_compressor_8h.html" target="_top" xlink:title="include/Compressor.h">
<polygon fill="none" stroke="black" points="0,-112.5 0,-131.5 112,-131.5 112,-112.5 0,-112.5"/>
<text text-anchor="middle" x="56" y="-119.5" font-family="Helvetica,sans-Serif" font-size="10.00">include/Compressor.h</text>
</a>
</g>
</g>
<!-- Node1&#45;&gt;Node2 -->
<g id="edge1" class="edge"><title>Node1&#45;&gt;Node2</title>
<path fill="none" stroke="midnightblue" d="M263.898,-166.346C214.952,-156.141 142.046,-140.94 96.8473,-131.516"/>
<polygon fill="midnightblue" stroke="midnightblue" points="263.457,-169.829 273.961,-168.444 264.886,-162.976 263.457,-169.829"/>
</g>
<!-- Node3 -->
<g id="node3" class="node"><title>Node3</title>
<g id="a_node3"><a xlink:href="_decompressor_8h.html" target="_top" xlink:title="include/Decompressor.h">
<polygon fill="none" stroke="black" points="130,-112.5 130,-131.5 252,-131.5 252,-112.5 130,-112.5"/>
<text text-anchor="middle" x="191" y="-119.5" font-family="Helvetica,sans-Serif" font-size="10.00">include/Decompressor.h</text>
</a>
</g>
</g>
<!-- Node1&#45;&gt;Node3 -->
<g id="edge2" class="edge"><title>Node1&#45;&gt;Node3</title>
<path fill="none" stroke="midnightblue" d="M285.993,-164.368C262.771,-154.255 230.837,-140.349 210.556,-131.516"/>
<polygon fill="midnightblue" stroke="midnightblue" points="284.786,-167.66 295.352,-168.444 287.581,-161.242 284.786,-167.66"/>
</g>
<!-- Node4 -->
<g id="node4" class="node"><title>Node4</title>
<g id="a_node4"><a xlink:href="_socket_8h.html" target="_top" xlink:title="include/Socket.h">
<polygon fill="none" stroke="black" points="270.5,-112.5 270.5,-131.5 359.5,-131.5 359.5,-112.5 270.5,-112.5"/>
<text text-anchor="middle" x="315" y="-119.5" font-family="Helvetica,sans-Serif" font-size="10.00">include/Socket.h</text>
</a>
</g>
</g>
<!-- Node1&#45;&gt;Node4 -->
<g id="edge3" class="edge"><title>Node1&#45;&gt;Node4</title>
<path fill="none" stroke="midnightblue" d="M315,-157.805C315,-148.91 315,-138.78 315,-131.751"/>
<polygon fill="midnightblue" stroke="midnightblue" points="311.5,-158.083 315,-168.083 318.5,-158.083 311.5,-158.083"/>
</g>
<!-- Node9 -->
<g id="node9" class="node"><title>Node9</title>
<g id="a_node9"><a xlink:href="_files_8h.html" target="_top" xlink:title="include/Files.h">
<polygon fill="none" stroke="black" points="506,-112.5 506,-131.5 586,-131.5 586,-112.5 506,-112.5"/>
<text text-anchor="middle" x="546" y="-119.5" font-family="Helvetica,sans-Serif" font-size="10.00">include/Files.h</text>
</a>
</g>
</g>
<!-- Node1&#45;&gt;Node9 -->
<g id="edge8" class="edge"><title>Node1&#45;&gt;Node9</title>
<path fill="none" stroke="midnightblue" d="M361.402,-166.153C405.047,-155.95 469.51,-140.881 509.569,-131.516"/>
<polygon fill="midnightblue" stroke="midnightblue" points="360.543,-162.759 351.603,-168.444 362.137,-169.575 360.543,-162.759"/>
</g>
<!-- Node10 -->
<g id="node10" class="node"><title>Node10</title>
<g id="a_node10"><a xlink:href="_pipe_8h.html" target="_top" xlink:title="include/Pipe.h">
<polygon fill="none" stroke="black" points="507,-56.5 507,-75.5 585,-75.5 585,-56.5 507,-56.5"/>
<text text-anchor="middle" x="546" y="-63.5" font-family="Helvetica,sans-Serif" font-size="10.00">include/Pipe.h</text>
</a>
</g>
</g>
<!-- Node1&#45;&gt;Node10 -->
<g id="edge12" class="edge"><title>Node1&#45;&gt;Node10</title>
<path fill="none" stroke="midnightblue" d="M342.255,-164.021C390.029,-141.272 487.639,-94.791 527.958,-75.5914"/>
<polygon fill="midnightblue" stroke="midnightblue" points="340.65,-160.909 333.126,-168.368 343.66,-167.229 340.65,-160.909"/>
</g>
<!-- Node5 -->
<g id="node5" class="node"><title>Node5</title>
<g id="a_node5"><a xlink:href="_d_n_s_8h.html" target="_top" xlink:title="include/DNS.h">
<polygon fill="none" stroke="black" points="1,-56.5 1,-75.5 81,-75.5 81,-56.5 1,-56.5"/>
<text text-anchor="middle" x="41" y="-63.5" font-family="Helvetica,sans-Serif" font-size="10.00">include/DNS.h</text>
</a>
</g>
</g>
<!-- Node4&#45;&gt;Node5 -->
<g id="edge4" class="edge"><title>Node4&#45;&gt;Node5</title>
<path fill="none" stroke="midnightblue" d="M261.704,-110.496C208.784,-100.067 128.845,-84.3124 81.0929,-74.9015"/>
<polygon fill="midnightblue" stroke="midnightblue" points="261.096,-113.944 271.584,-112.444 262.449,-107.076 261.096,-113.944"/>
</g>
<!-- Node6 -->
<g id="node6" class="node"><title>Node6</title>
<g id="a_node6"><a xlink:href="_listener_8h.html" target="_top" xlink:title="include/Listener.h">
<polygon fill="none" stroke="black" points="99.5,-56.5 99.5,-75.5 192.5,-75.5 192.5,-56.5 99.5,-56.5"/>
<text text-anchor="middle" x="146" y="-63.5" font-family="Helvetica,sans-Serif" font-size="10.00">include/Listener.h</text>
</a>
</g>
</g>
<!-- Node4&#45;&gt;Node6 -->
<g id="edge5" class="edge"><title>Node4&#45;&gt;Node6</title>
<path fill="none" stroke="midnightblue" d="M278.397,-109.304C246.553,-99.1294 201.158,-84.6246 172.653,-75.5164"/>
<polygon fill="midnightblue" stroke="midnightblue" points="277.631,-112.734 288.221,-112.444 279.761,-106.066 277.631,-112.734"/>
</g>
<!-- Node7 -->
<g id="node7" class="node"><title>Node7</title>
<g id="a_node7"><a xlink:href="_simple_h_t_t_p_socket_8h.html" target="_top" xlink:title="include/SimpleHTTPSocket.h">
<polygon fill="none" stroke="black" points="211,-56.5 211,-75.5 357,-75.5 357,-56.5 211,-56.5"/>
<text text-anchor="middle" x="284" y="-63.5" font-family="Helvetica,sans-Serif" font-size="10.00">include/SimpleHTTPSocket.h</text>
</a>
</g>
</g>
<!-- Node4&#45;&gt;Node7 -->
<g id="edge6" class="edge"><title>Node4&#45;&gt;Node7</title>
<path fill="none" stroke="midnightblue" d="M304.824,-103.275C299.526,-94.0454 293.283,-83.1703 289.024,-75.7511"/>
<polygon fill="midnightblue" stroke="midnightblue" points="301.867,-105.153 309.881,-112.083 307.938,-101.668 301.867,-105.153"/>
</g>
<!-- Node8 -->
<g id="node8" class="node"><title>Node8</title>
<g id="a_node8"><a xlink:href="_statsd_client_8h.html" target="_top" xlink:title="include/StatsdClient.h">
<polygon fill="none" stroke="black" points="375.5,-56.5 375.5,-75.5 488.5,-75.5 488.5,-56.5 375.5,-56.5"/>
<text text-anchor="middle" x="432" y="-63.5" font-family="Helvetica,sans-Serif" font-size="10.00">include/StatsdClient.h</text>
</a>
</g>
</g>
<!-- Node4&#45;&gt;Node8 -->
<g id="edge7" class="edge"><title>Node4&#45;&gt;Node8</title>
<path fill="none" stroke="midnightblue" d="M342.664,-108.232C364.549,-98.1312 394.497,-84.3091 413.548,-75.5164"/>
<polygon fill="midnightblue" stroke="midnightblue" points="341.152,-105.075 333.539,-112.444 344.085,-111.431 341.152,-105.075"/>
</g>
<!-- Node9&#45;&gt;Node10 -->
<g id="edge9" class="edge"><title>Node9&#45;&gt;Node10</title>
<path fill="none" stroke="midnightblue" d="M546,-101.805C546,-92.9102 546,-82.7798 546,-75.7511"/>
<polygon fill="midnightblue" stroke="midnightblue" points="542.5,-102.083 546,-112.083 549.5,-102.083 542.5,-102.083"/>
</g>
<!-- Node12 -->
<g id="node12" class="node"><title>Node12</title>
<g id="a_node12"><a xlink:href="_logger_8h.html" target="_top" xlink:title="include/Logger.h">
<polygon fill="none" stroke="black" points="603,-56.5 603,-75.5 691,-75.5 691,-56.5 603,-56.5"/>
<text text-anchor="middle" x="647" y="-63.5" font-family="Helvetica,sans-Serif" font-size="10.00">include/Logger.h</text>
</a>
</g>
</g>
<!-- Node9&#45;&gt;Node12 -->
<g id="edge11" class="edge"><title>Node9&#45;&gt;Node12</title>
<path fill="none" stroke="midnightblue" d="M571.083,-107.59C589.757,-97.6052 614.704,-84.2672 630.813,-75.6545"/>
<polygon fill="midnightblue" stroke="midnightblue" points="569.396,-104.522 562.227,-112.324 572.696,-110.696 569.396,-104.522"/>
</g>
<!-- Node11 -->
<g id="node11" class="node"><title>Node11</title>
<g id="a_node11"><a xlink:href="_job_thread_8h.html" target="_top" xlink:title="include/JobThread.h">
<polygon fill="none" stroke="black" points="494,-0.5 494,-19.5 598,-19.5 598,-0.5 494,-0.5"/>
<text text-anchor="middle" x="546" y="-7.5" font-family="Helvetica,sans-Serif" font-size="10.00">include/JobThread.h</text>
</a>
</g>
</g>
<!-- Node10&#45;&gt;Node11 -->
<g id="edge10" class="edge"><title>Node10&#45;&gt;Node11</title>
<path fill="none" stroke="midnightblue" d="M546,-45.8045C546,-36.9102 546,-26.7798 546,-19.7511"/>
<polygon fill="midnightblue" stroke="midnightblue" points="542.5,-46.083 546,-56.083 549.5,-46.083 542.5,-46.083"/>
</g>
</g>
</svg>
