<?xml version="1.0" encoding="UTF-8" standalone="no"?>
<!DOCTYPE svg PUBLIC "-//W3C//DTD SVG 1.1//EN"
 "http://www.w3.org/Graphics/SVG/1.1/DTD/svg11.dtd">
<!-- Generated by graphviz version 2.34.0 (20140110.0949)
 -->
<!-- Title: include/Writer.h Pages: 1 -->
<svg width="637pt" height="196pt"
 viewBox="0.00 0.00 637.00 196.00" xmlns="http://www.w3.org/2000/svg" xmlns:xlink="http://www.w3.org/1999/xlink">
<g id="graph0" class="graph" transform="scale(1 1) rotate(0) translate(4 192)">
<title>include/Writer.h</title>
<!-- Node1 -->
<g id="node1" class="node"><title>Node1</title>
<polygon fill="#bfbfbf" stroke="black" points="312.5,-168.5 312.5,-187.5 397.5,-187.5 397.5,-168.5 312.5,-168.5"/>
<text text-anchor="middle" x="355" y="-175.5" font-family="Helvetica,sans-Serif" font-size="10.00">include/Writer.h</text>
</g>
<!-- Node2 -->
<g id="node2" class="node"><title>Node2</title>
<g id="a_node2"><a xlink:href="_compressor_8h.html" target="_top" xlink:title="include/Compressor.h">
<polygon fill="none" stroke="black" points="40,-112.5 40,-131.5 152,-131.5 152,-112.5 40,-112.5"/>
<text text-anchor="middle" x="96" y="-119.5" font-family="Helvetica,sans-Serif" font-size="10.00">include/Compressor.h</text>
</a>
</g>
</g>
<!-- Node1&#45;&gt;Node2 -->
<g id="edge1" class="edge"><title>Node1&#45;&gt;Node2</title>
<path fill="none" stroke="midnightblue" d="M303.898,-166.346C254.952,-156.141 182.046,-140.94 136.847,-131.516"/>
<polygon fill="midnightblue" stroke="midnightblue" points="303.457,-169.829 313.961,-168.444 304.886,-162.976 303.457,-169.829"/>
</g>
<!-- Node3 -->
<g id="node3" class="node"><title>Node3</title>
<g id="a_node3"><a xlink:href="_decompressor_8h.html" target="_top" xlink:title="include/Decompressor.h">
<polygon fill="none" stroke="black" points="170,-112.5 170,-131.5 292,-131.5 292,-112.5 170,-112.5"/>
<text text-anchor="middle" x="231" y="-119.5" font-family="Helvetica,sans-Serif" font-size="10.00">include/Decompressor.h</text>
</a>
</g>
</g>
<!-- Node1&#45;&gt;Node3 -->
<g id="edge2" class="edge"><title>Node1&#45;&gt;Node3</title>
<path fill="none" stroke="midnightblue" d="M325.993,-164.368C302.771,-154.255 270.837,-140.349 250.556,-131.516"/>
<polygon fill="midnightblue" stroke="midnightblue" points="324.786,-167.66 335.352,-168.444 327.581,-161.242 324.786,-167.66"/>
</g>
<!-- Node4 -->
<g id="node4" class="node"><title>Node4</title>
<g id="a_node4"><a xlink:href="_socket_8h.html" target="_top" xlink:title="include/Socket.h">
<polygon fill="none" stroke="black" points="310.5,-112.5 310.5,-131.5 399.5,-131.5 399.5,-112.5 310.5,-112.5"/>
<text text-anchor="middle" x="355" y="-119.5" font-family="Helvetica,sans-Serif" font-size="10.00">include/Socket.h</text>
</a>
</g>
</g>
<!-- Node1&#45;&gt;Node4 -->
<g id="edge3" class="edge"><title>Node1&#45;&gt;Node4</title>
<path fill="none" stroke="midnightblue" d="M355,-157.805C355,-148.91 355,-138.78 355,-131.751"/>
<polygon fill="midnightblue" stroke="midnightblue" points="351.5,-158.083 355,-168.083 358.5,-158.083 351.5,-158.083"/>
</g>
<!-- Node9 -->
<g id="node9" class="node"><title>Node9</title>
<g id="a_node9"><a xlink:href="_files_8h.html" target="_top" xlink:title="include/Files.h">
<polygon fill="none" stroke="black" points="436,-112.5 436,-131.5 516,-131.5 516,-112.5 436,-112.5"/>
<text text-anchor="middle" x="476" y="-119.5" font-family="Helvetica,sans-Serif" font-size="10.00">include/Files.h</text>
</a>
</g>
</g>
<!-- Node1&#45;&gt;Node9 -->
<g id="edge8" class="edge"><title>Node1&#45;&gt;Node9</title>
<path fill="none" stroke="midnightblue" d="M383.306,-164.368C405.965,-154.255 437.126,-140.349 456.917,-131.516"/>
<polygon fill="midnightblue" stroke="midnightblue" points="381.878,-161.172 374.173,-168.444 384.731,-167.564 381.878,-161.172"/>
</g>
<!-- Node10 -->
<g id="node10" class="node"><title>Node10</title>
<g id="a_node10"><a xlink:href="_pipe_8h.html" target="_top" xlink:title="include/Pipe.h">
<polygon fill="none" stroke="black" points="538,-56.5 538,-75.5 616,-75.5 616,-56.5 538,-56.5"/>
<text text-anchor="middle" x="577" y="-63.5" font-family="Helvetica,sans-Serif" font-size="10.00">include/Pipe.h</text>
</a>
</g>
</g>
<!-- Node1&#45;&gt;Node10 -->
<g id="edge13" class="edge"><title>Node1&#45;&gt;Node10</title>
<path fill="none" stroke="midnightblue" d="M407.996,-171.722C443.439,-166.185 489.843,-154.904 525,-132 547.522,-117.327 564.767,-89.6629 572.514,-75.6309"/>
<polygon fill="midnightblue" stroke="midnightblue" points="407.234,-168.296 397.842,-173.199 408.242,-175.223 407.234,-168.296"/>
</g>
<!-- Node5 -->
<g id="node5" class="node"><title>Node5</title>
<g id="a_node5"><a xlink:href="_d_n_s_8h.html" target="_top" xlink:title="include/DNS.h">
<polygon fill="none" stroke="black" points="296,-56.5 296,-75.5 376,-75.5 376,-56.5 296,-56.5"/>
<text text-anchor="middle" x="336" y="-63.5" font-family="Helvetica,sans-Serif" font-size="10.00">include/DNS.h</text>
</a>
</g>
</g>
<!-- Node4&#45;&gt;Node5 -->
<g id="edge4" class="edge"><title>Node4&#45;&gt;Node5</title>
<path fill="none" stroke="midnightblue" d="M348.454,-102.396C345.276,-93.362 341.607,-82.936 339.079,-75.7511"/>
<polygon fill="midnightblue" stroke="midnightblue" points="345.242,-103.812 351.863,-112.083 351.845,-101.488 345.242,-103.812"/>
</g>
<!-- Node6 -->
<g id="node6" class="node"><title>Node6</title>
<g id="a_node6"><a xlink:href="_listener_8h.html" target="_top" xlink:title="include/Listener.h">
<polygon fill="none" stroke="black" points="385.5,-0.5 385.5,-19.5 478.5,-19.5 478.5,-0.5 385.5,-0.5"/>
<text text-anchor="middle" x="432" y="-7.5" font-family="Helvetica,sans-Serif" font-size="10.00">include/Listener.h</text>
</a>
</g>
</g>
<!-- Node4&#45;&gt;Node6 -->
<g id="edge5" class="edge"><title>Node4&#45;&gt;Node6</title>
<path fill="none" stroke="midnightblue" d="M366.93,-103.957C383.617,-80.1184 413.304,-37.7088 425.986,-19.5914"/>
<polygon fill="midnightblue" stroke="midnightblue" points="363.909,-102.169 361.042,-112.368 369.644,-106.183 363.909,-102.169"/>
</g>
<!-- Node7 -->
<g id="node7" class="node"><title>Node7</title>
<g id="a_node7"><a xlink:href="_simple_h_t_t_p_socket_8h.html" target="_top" xlink:title="include/SimpleHTTPSocket.h">
<polygon fill="none" stroke="black" points="0,-56.5 0,-75.5 146,-75.5 146,-56.5 0,-56.5"/>
<text text-anchor="middle" x="73" y="-63.5" font-family="Helvetica,sans-Serif" font-size="10.00">include/SimpleHTTPSocket.h</text>
</a>
</g>
</g>
<!-- Node4&#45;&gt;Node7 -->
<g id="edge6" class="edge"><title>Node4&#45;&gt;Node7</title>
<path fill="none" stroke="midnightblue" d="M300.361,-110.537C247.065,-100.332 166.996,-84.9992 117.475,-75.5164"/>
<polygon fill="midnightblue" stroke="midnightblue" points="299.836,-114 310.316,-112.444 301.153,-107.125 299.836,-114"/>
</g>
<!-- Node8 -->
<g id="node8" class="node"><title>Node8</title>
<g id="a_node8"><a xlink:href="_statsd_client_8h.html" target="_top" xlink:title="include/StatsdClient.h">
<polygon fill="none" stroke="black" points="164.5,-56.5 164.5,-75.5 277.5,-75.5 277.5,-56.5 164.5,-56.5"/>
<text text-anchor="middle" x="221" y="-63.5" font-family="Helvetica,sans-Serif" font-size="10.00">include/StatsdClient.h</text>
</a>
</g>
</g>
<!-- Node4&#45;&gt;Node8 -->
<g id="edge7" class="edge"><title>Node4&#45;&gt;Node8</title>
<path fill="none" stroke="midnightblue" d="M324.323,-108.638C299.177,-98.504 264.246,-84.4274 242.133,-75.5164"/>
<polygon fill="midnightblue" stroke="midnightblue" points="323.184,-111.952 333.767,-112.444 325.8,-105.459 323.184,-111.952"/>
</g>
<!-- Node9&#45;&gt;Node10 -->
<g id="edge9" class="edge"><title>Node9&#45;&gt;Node10</title>
<path fill="none" stroke="midnightblue" d="M501.083,-107.59C519.757,-97.6052 544.704,-84.2672 560.813,-75.6545"/>
<polygon fill="midnightblue" stroke="midnightblue" points="499.396,-104.522 492.227,-112.324 502.696,-110.696 499.396,-104.522"/>
</g>
<!-- Node12 -->
<g id="node12" class="node"><title>Node12</title>
<g id="a_node12"><a xlink:href="_logger_8h.html" target="_top" xlink:title="include/Logger.h">
<polygon fill="none" stroke="black" points="432,-56.5 432,-75.5 520,-75.5 520,-56.5 432,-56.5"/>
<text text-anchor="middle" x="476" y="-63.5" font-family="Helvetica,sans-Serif" font-size="10.00">include/Logger.h</text>
</a>
</g>
</g>
<!-- Node9&#45;&gt;Node12 -->
<g id="edge11" class="edge"><title>Node9&#45;&gt;Node12</title>
<path fill="none" stroke="midnightblue" d="M476,-101.805C476,-92.9102 476,-82.7798 476,-75.7511"/>
<polygon fill="midnightblue" stroke="midnightblue" points="472.5,-102.083 476,-112.083 479.5,-102.083 472.5,-102.083"/>
</g>
<!-- Node11 -->
<g id="node11" class="node"><title>Node11</title>
<g id="a_node11"><a xlink:href="_job_thread_8h.html" target="_top" xlink:title="include/JobThread.h">
<polygon fill="none" stroke="black" points="525,-0.5 525,-19.5 629,-19.5 629,-0.5 525,-0.5"/>
<text text-anchor="middle" x="577" y="-7.5" font-family="Helvetica,sans-Serif" font-size="10.00">include/JobThread.h</text>
</a>
</g>
</g>
<!-- Node10&#45;&gt;Node11 -->
<g id="edge10" class="edge"><title>Node10&#45;&gt;Node11</title>
<path fill="none" stroke="midnightblue" d="M577,-45.8045C577,-36.9102 577,-26.7798 577,-19.7511"/>
<polygon fill="midnightblue" stroke="midnightblue" points="573.5,-46.083 577,-56.083 580.5,-46.083 573.5,-46.083"/>
</g>
<!-- Node12&#45;&gt;Node6 -->
<g id="edge12" class="edge"><title>Node12&#45;&gt;Node6</title>
<path fill="none" stroke="midnightblue" d="M462.265,-48.144C454.599,-38.7357 445.367,-27.4046 439.131,-19.7511"/>
<polygon fill="midnightblue" stroke="midnightblue" points="459.704,-50.5415 468.734,-56.083 465.131,-46.1198 459.704,-50.5415"/>
</g>
</g>
</svg>
