<?xml version="1.0" encoding="UTF-8" standalone="no"?>
<!DOCTYPE svg PUBLIC "-//W3C//DTD SVG 1.1//EN"
 "http://www.w3.org/Graphics/SVG/1.1/DTD/svg11.dtd">
<!-- Generated by graphviz version 2.34.0 (20140110.0949)
 -->
<!-- Title: include/Writer.h Pages: 1 -->
<svg width="625pt" height="196pt"
 viewBox="0.00 0.00 625.00 196.00" xmlns="http://www.w3.org/2000/svg" xmlns:xlink="http://www.w3.org/1999/xlink">
<g id="graph0" class="graph" transform="scale(1 1) rotate(0) translate(4 192)">
<title>include/Writer.h</title>
<!-- Node1 -->
<g id="node1" class="node"><title>Node1</title>
<polygon fill="#bfbfbf" stroke="black" points="272.5,-168.5 272.5,-187.5 357.5,-187.5 357.5,-168.5 272.5,-168.5"/>
<text text-anchor="middle" x="315" y="-175.5" font-family="Helvetica,sans-Serif" font-size="10.00">include/Writer.h</text>
</g>
<!-- Node2 -->
<g id="node2" class="node"><title>Node2</title>
<g id="a_node2"><a xlink:href="_compressor_8h.html" target="_top" xlink:title="include/Compressor.h">
<polygon fill="none" stroke="black" points="0,-112.5 0,-131.5 112,-131.5 112,-112.5 0,-112.5"/>
<text text-anchor="middle" x="56" y="-119.5" font-family="Helvetica,sans-Serif" font-size="10.00">include/Compressor.h</text>
</a>
</g>
</g>
<!-- Node1&#45;&gt;Node2 -->
<g id="edge1" class="edge"><title>Node1&#45;&gt;Node2</title>
<path fill="none" stroke="midnightblue" d="M263.898,-166.346C214.952,-156.141 142.046,-140.94 96.8473,-131.516"/>
<polygon fill="midnightblue" stroke="midnightblue" points="263.457,-169.829 273.961,-168.444 264.886,-162.976 263.457,-169.829"/>
</g>
<!-- Node3 -->
<g id="node3" class="node"><title>Node3</title>
<g id="a_node3"><a xlink:href="_decompressor_8h.html" target="_top" xlink:title="include/Decompressor.h">
<polygon fill="none" stroke="black" points="130,-112.5 130,-131.5 252,-131.5 252,-112.5 130,-112.5"/>
<text text-anchor="middle" x="191" y="-119.5" font-family="Helvetica,sans-Serif" font-size="10.00">include/Decompressor.h</text>
</a>
</g>
</g>
<!-- Node1&#45;&gt;Node3 -->
<g id="edge2" class="edge"><title>Node1&#45;&gt;Node3</title>
<path fill="none" stroke="midnightblue" d="M285.993,-164.368C262.771,-154.255 230.837,-140.349 210.556,-131.516"/>
<polygon fill="midnightblue" stroke="midnightblue" points="284.786,-167.66 295.352,-168.444 287.581,-161.242 284.786,-167.66"/>
</g>
<!-- Node4 -->
<g id="node4" class="node"><title>Node4</title>
<g id="a_node4"><a xlink:href="_socket_8h.html" target="_top" xlink:title="include/Socket.h">
<polygon fill="none" stroke="black" points="270.5,-112.5 270.5,-131.5 359.5,-131.5 359.5,-112.5 270.5,-112.5"/>
<text text-anchor="middle" x="315" y="-119.5" font-family="Helvetica,sans-Serif" font-size="10.00">include/Socket.h</text>
</a>
</g>
</g>
<!-- Node1&#45;&gt;Node4 -->
<g id="edge3" class="edge"><title>Node1&#45;&gt;Node4</title>
<path fill="none" stroke="midnightblue" d="M315,-157.805C315,-148.91 315,-138.78 315,-131.751"/>
<polygon fill="midnightblue" stroke="midnightblue" points="311.5,-158.083 315,-168.083 318.5,-158.083 311.5,-158.083"/>
</g>
<!-- Node9 -->
<g id="node9" class="node"><title>Node9</title>
<g id="a_node9"><a xlink:href="_files_8h.html" target="_top" xlink:title="include/Files.h">
<polygon fill="none" stroke="black" points="389,-112.5 389,-131.5 469,-131.5 469,-112.5 389,-112.5"/>
<text text-anchor="middle" x="429" y="-119.5" font-family="Helvetica,sans-Serif" font-size="10.00">include/Files.h</text>
</a>
</g>
</g>
<!-- Node1&#45;&gt;Node9 -->
<g id="edge8" class="edge"><title>Node1&#45;&gt;Node9</title>
<path fill="none" stroke="midnightblue" d="M342.242,-164.096C363.54,-154.007 392.542,-140.27 411.021,-131.516"/>
<polygon fill="midnightblue" stroke="midnightblue" points="340.603,-161 333.064,-168.444 343.599,-167.326 340.603,-161"/>
</g>
<!-- Node10 -->
<g id="node10" class="node"><title>Node10</title>
<g id="a_node10"><a xlink:href="_pipe_8h.html" target="_top" xlink:title="include/Pipe.h">
<polygon fill="none" stroke="black" points="526,-56.5 526,-75.5 604,-75.5 604,-56.5 526,-56.5"/>
<text text-anchor="middle" x="565" y="-63.5" font-family="Helvetica,sans-Serif" font-size="10.00">include/Pipe.h</text>
</a>
</g>
</g>
<!-- Node1&#45;&gt;Node10 -->
<g id="edge11" class="edge"><title>Node1&#45;&gt;Node10</title>
<path fill="none" stroke="midnightblue" d="M367.617,-167.676C400.46,-160.611 442.998,-149.147 478,-132 509.154,-116.738 540.469,-89.8362 555.619,-75.911"/>
<polygon fill="midnightblue" stroke="midnightblue" points="366.832,-164.264 357.755,-169.729 368.258,-171.118 366.832,-164.264"/>
</g>
<!-- Node5 -->
<g id="node5" class="node"><title>Node5</title>
<g id="a_node5"><a xlink:href="_d_n_s_8h.html" target="_top" xlink:title="include/DNS.h">
<polygon fill="none" stroke="black" points="20,-56.5 20,-75.5 100,-75.5 100,-56.5 20,-56.5"/>
<text text-anchor="middle" x="60" y="-63.5" font-family="Helvetica,sans-Serif" font-size="10.00">include/DNS.h</text>
</a>
</g>
</g>
<!-- Node4&#45;&gt;Node5 -->
<g id="edge4" class="edge"><title>Node4&#45;&gt;Node5</title>
<path fill="none" stroke="midnightblue" d="M264.688,-110.346C216.497,-100.141 144.717,-84.94 100.216,-75.5164"/>
<polygon fill="midnightblue" stroke="midnightblue" points="264.086,-113.796 274.594,-112.444 265.537,-106.948 264.086,-113.796"/>
</g>
<!-- Node6 -->
<g id="node6" class="node"><title>Node6</title>
<g id="a_node6"><a xlink:href="_listener_8h.html" target="_top" xlink:title="include/Listener.h">
<polygon fill="none" stroke="black" points="118.5,-56.5 118.5,-75.5 211.5,-75.5 211.5,-56.5 118.5,-56.5"/>
<text text-anchor="middle" x="165" y="-63.5" font-family="Helvetica,sans-Serif" font-size="10.00">include/Listener.h</text>
</a>
</g>
</g>
<!-- Node4&#45;&gt;Node6 -->
<g id="edge5" class="edge"><title>Node4&#45;&gt;Node6</title>
<path fill="none" stroke="midnightblue" d="M281.775,-109.039C253.552,-98.8786 213.738,-84.5457 188.657,-75.5164"/>
<polygon fill="midnightblue" stroke="midnightblue" points="280.638,-112.349 291.232,-112.444 283.009,-105.763 280.638,-112.349"/>
</g>
<!-- Node7 -->
<g id="node7" class="node"><title>Node7</title>
<g id="a_node7"><a xlink:href="_simple_h_t_t_p_socket_8h.html" target="_top" xlink:title="include/SimpleHTTPSocket.h">
<polygon fill="none" stroke="black" points="230,-56.5 230,-75.5 376,-75.5 376,-56.5 230,-56.5"/>
<text text-anchor="middle" x="303" y="-63.5" font-family="Helvetica,sans-Serif" font-size="10.00">include/SimpleHTTPSocket.h</text>
</a>
</g>
</g>
<!-- Node4&#45;&gt;Node7 -->
<g id="edge6" class="edge"><title>Node4&#45;&gt;Node7</title>
<path fill="none" stroke="midnightblue" d="M310.8,-102.101C308.808,-93.1357 306.524,-82.8579 304.945,-75.7511"/>
<polygon fill="midnightblue" stroke="midnightblue" points="307.432,-103.08 313.018,-112.083 314.266,-101.562 307.432,-103.08"/>
</g>
<!-- Node8 -->
<g id="node8" class="node"><title>Node8</title>
<g id="a_node8"><a xlink:href="_statsd_client_8h.html" target="_top" xlink:title="include/StatsdClient.h">
<polygon fill="none" stroke="black" points="394.5,-56.5 394.5,-75.5 507.5,-75.5 507.5,-56.5 394.5,-56.5"/>
<text text-anchor="middle" x="451" y="-63.5" font-family="Helvetica,sans-Serif" font-size="10.00">include/StatsdClient.h</text>
</a>
</g>
</g>
<!-- Node4&#45;&gt;Node8 -->
<g id="edge7" class="edge"><title>Node4&#45;&gt;Node8</title>
<path fill="none" stroke="midnightblue" d="M346.135,-108.638C371.657,-98.504 407.109,-84.4274 429.551,-75.5164"/>
<polygon fill="midnightblue" stroke="midnightblue" points="344.552,-105.5 336.55,-112.444 347.135,-112.006 344.552,-105.5"/>
</g>
<!-- Node9&#45;&gt;Node10 -->
<g id="edge9" class="edge"><title>Node9&#45;&gt;Node10</title>
<path fill="none" stroke="midnightblue" d="M460.135,-108.638C485.657,-98.504 521.109,-84.4274 543.551,-75.5164"/>
<polygon fill="midnightblue" stroke="midnightblue" points="458.552,-105.5 450.55,-112.444 461.135,-112.006 458.552,-105.5"/>
</g>
<!-- Node11 -->
<g id="node11" class="node"><title>Node11</title>
<g id="a_node11"><a xlink:href="_job_thread_8h.html" target="_top" xlink:title="include/JobThread.h">
<polygon fill="none" stroke="black" points="513,-0.5 513,-19.5 617,-19.5 617,-0.5 513,-0.5"/>
<text text-anchor="middle" x="565" y="-7.5" font-family="Helvetica,sans-Serif" font-size="10.00">include/JobThread.h</text>
</a>
</g>
</g>
<!-- Node10&#45;&gt;Node11 -->
<g id="edge10" class="edge"><title>Node10&#45;&gt;Node11</title>
<path fill="none" stroke="midnightblue" d="M565,-45.8045C565,-36.9102 565,-26.7798 565,-19.7511"/>
<polygon fill="midnightblue" stroke="midnightblue" points="561.5,-46.083 565,-56.083 568.5,-46.083 561.5,-46.083"/>
</g>
</g>
</svg>
