<?xml version="1.0" encoding="UTF-8" standalone="no"?>
<!DOCTYPE svg PUBLIC "-//W3C//DTD SVG 1.1//EN"
 "http://www.w3.org/Graphics/SVG/1.1/DTD/svg11.dtd">
<!-- Generated by graphviz version 2.34.0 (20140110.0949)
 -->
<!-- Title: include/Writer.h Pages: 1 -->
<svg width="233pt" height="140pt"
 viewBox="0.00 0.00 233.00 140.00" xmlns="http://www.w3.org/2000/svg" xmlns:xlink="http://www.w3.org/1999/xlink">
<g id="graph0" class="graph" transform="scale(1 1) rotate(0) translate(4 136)">
<title>include/Writer.h</title>
<!-- Node1 -->
<g id="node1" class="node"><title>Node1</title>
<polygon fill="#bfbfbf" stroke="black" points="56.5,-112.5 56.5,-131.5 141.5,-131.5 141.5,-112.5 56.5,-112.5"/>
<text text-anchor="middle" x="99" y="-119.5" font-family="Helvetica,sans-Serif" font-size="10.00">include/Writer.h</text>
</g>
<!-- Node2 -->
<g id="node2" class="node"><title>Node2</title>
<g id="a_node2"><a xlink:href="defines_8h.html" target="_top" xlink:title="defines.h">
<polygon fill="none" stroke="black" points="0,-56.5 0,-75.5 56,-75.5 56,-56.5 0,-56.5"/>
<text text-anchor="middle" x="28" y="-63.5" font-family="Helvetica,sans-Serif" font-size="10.00">defines.h</text>
</a>
</g>
</g>
<!-- Node1&#45;&gt;Node2 -->
<g id="edge1" class="edge"><title>Node1&#45;&gt;Node2</title>
<path fill="none" stroke="midnightblue" d="M87.5926,-112.324C76.8912,-104.185 60.6593,-91.8395 47.8372,-82.0874"/>
<polygon fill="midnightblue" stroke="midnightblue" points="49.6932,-79.1018 39.6149,-75.8339 45.4556,-84.6734 49.6932,-79.1018"/>
</g>
<!-- Node3 -->
<g id="node3" class="node"><title>Node3</title>
<g id="a_node3"><a xlink:href="_string_8h.html" target="_top" xlink:title="String.h">
<polygon fill="none" stroke="black" points="74,-56.5 74,-75.5 124,-75.5 124,-56.5 74,-56.5"/>
<text text-anchor="middle" x="99" y="-63.5" font-family="Helvetica,sans-Serif" font-size="10.00">String.h</text>
</a>
</g>
</g>
<!-- Node1&#45;&gt;Node3 -->
<g id="edge2" class="edge"><title>Node1&#45;&gt;Node3</title>
<path fill="none" stroke="midnightblue" d="M99,-112.083C99,-105.006 99,-94.8611 99,-85.9865"/>
<polygon fill="midnightblue" stroke="midnightblue" points="102.5,-85.751 99,-75.7511 95.5001,-85.7511 102.5,-85.751"/>
</g>
<!-- Node6 -->
<g id="node6" class="node"><title>Node6</title>
<g id="a_node6"><a xlink:href="_should_delete_8h.html" target="_top" xlink:title="ShouldDelete.h">
<polygon fill="none" stroke="black" points="142.5,-56.5 142.5,-75.5 225.5,-75.5 225.5,-56.5 142.5,-56.5"/>
<text text-anchor="middle" x="184" y="-63.5" font-family="Helvetica,sans-Serif" font-size="10.00">ShouldDelete.h</text>
</a>
</g>
</g>
<!-- Node1&#45;&gt;Node6 -->
<g id="edge5" class="edge"><title>Node1&#45;&gt;Node6</title>
<path fill="none" stroke="midnightblue" d="M112.657,-112.324C125.916,-103.9 146.268,-90.9709 161.846,-81.0741"/>
<polygon fill="midnightblue" stroke="midnightblue" points="163.813,-83.9711 170.377,-75.6545 160.06,-78.0626 163.813,-83.9711"/>
</g>
<!-- Node4 -->
<g id="node4" class="node"><title>Node4</title>
<polygon fill="none" stroke="#bfbfbf" points="46.5,-0.5 46.5,-19.5 87.5,-19.5 87.5,-0.5 46.5,-0.5"/>
<text text-anchor="middle" x="67" y="-7.5" font-family="Helvetica,sans-Serif" font-size="10.00">string</text>
</g>
<!-- Node3&#45;&gt;Node4 -->
<g id="edge3" class="edge"><title>Node3&#45;&gt;Node4</title>
<path fill="none" stroke="midnightblue" d="M93.7159,-56.083C89.289,-48.6127 82.8367,-37.7244 77.3821,-28.5199"/>
<polygon fill="midnightblue" stroke="midnightblue" points="80.2949,-26.5697 72.1858,-19.7511 74.2729,-30.1383 80.2949,-26.5697"/>
</g>
<!-- Node5 -->
<g id="node5" class="node"><title>Node5</title>
<polygon fill="none" stroke="#bfbfbf" points="105.5,-0.5 105.5,-19.5 154.5,-19.5 154.5,-0.5 105.5,-0.5"/>
<text text-anchor="middle" x="130" y="-7.5" font-family="Helvetica,sans-Serif" font-size="10.00">stdint.h</text>
</g>
<!-- Node3&#45;&gt;Node5 -->
<g id="edge4" class="edge"><title>Node3&#45;&gt;Node5</title>
<path fill="none" stroke="midnightblue" d="M104.119,-56.083C108.408,-48.6127 114.658,-37.7244 119.942,-28.5199"/>
<polygon fill="midnightblue" stroke="midnightblue" points="123.033,-30.1662 124.976,-19.7511 116.962,-26.6811 123.033,-30.1662"/>
</g>
</g>
</svg>
