<?xml version="1.0" encoding="UTF-8" standalone="no"?>
<!DOCTYPE svg PUBLIC "-//W3C//DTD SVG 1.1//EN"
 "http://www.w3.org/Graphics/SVG/1.1/DTD/svg11.dtd">
<!-- Generated by graphviz version 2.34.0 (20140110.0949)
 -->
<!-- Title: include/Writer.h Pages: 1 -->
<svg width="546pt" height="196pt"
 viewBox="0.00 0.00 546.00 196.00" xmlns="http://www.w3.org/2000/svg" xmlns:xlink="http://www.w3.org/1999/xlink">
<g id="graph0" class="graph" transform="scale(1 1) rotate(0) translate(4 192)">
<title>include/Writer.h</title>
<!-- Node1 -->
<g id="node1" class="node"><title>Node1</title>
<polygon fill="#bfbfbf" stroke="black" points="272.5,-168.5 272.5,-187.5 357.5,-187.5 357.5,-168.5 272.5,-168.5"/>
<text text-anchor="middle" x="315" y="-175.5" font-family="Helvetica,sans-Serif" font-size="10.00">include/Writer.h</text>
</g>
<!-- Node2 -->
<g id="node2" class="node"><title>Node2</title>
<g id="a_node2"><a xlink:href="_compressor_8h.html" target="_top" xlink:title="include/Compressor.h">
<polygon fill="none" stroke="black" points="0,-112.5 0,-131.5 112,-131.5 112,-112.5 0,-112.5"/>
<text text-anchor="middle" x="56" y="-119.5" font-family="Helvetica,sans-Serif" font-size="10.00">include/Compressor.h</text>
</a>
</g>
</g>
<!-- Node1&#45;&gt;Node2 -->
<g id="edge1" class="edge"><title>Node1&#45;&gt;Node2</title>
<path fill="none" stroke="midnightblue" d="M263.898,-166.346C214.952,-156.141 142.046,-140.94 96.8473,-131.516"/>
<polygon fill="midnightblue" stroke="midnightblue" points="263.457,-169.829 273.961,-168.444 264.886,-162.976 263.457,-169.829"/>
</g>
<!-- Node3 -->
<g id="node3" class="node"><title>Node3</title>
<g id="a_node3"><a xlink:href="_decompressor_8h.html" target="_top" xlink:title="include/Decompressor.h">
<polygon fill="none" stroke="black" points="130,-112.5 130,-131.5 252,-131.5 252,-112.5 130,-112.5"/>
<text text-anchor="middle" x="191" y="-119.5" font-family="Helvetica,sans-Serif" font-size="10.00">include/Decompressor.h</text>
</a>
</g>
</g>
<!-- Node1&#45;&gt;Node3 -->
<g id="edge2" class="edge"><title>Node1&#45;&gt;Node3</title>
<path fill="none" stroke="midnightblue" d="M285.993,-164.368C262.771,-154.255 230.837,-140.349 210.556,-131.516"/>
<polygon fill="midnightblue" stroke="midnightblue" points="284.786,-167.66 295.352,-168.444 287.581,-161.242 284.786,-167.66"/>
</g>
<!-- Node4 -->
<g id="node4" class="node"><title>Node4</title>
<g id="a_node4"><a xlink:href="_socket_8h.html" target="_top" xlink:title="include/Socket.h">
<polygon fill="none" stroke="black" points="270.5,-112.5 270.5,-131.5 359.5,-131.5 359.5,-112.5 270.5,-112.5"/>
<text text-anchor="middle" x="315" y="-119.5" font-family="Helvetica,sans-Serif" font-size="10.00">include/Socket.h</text>
</a>
</g>
</g>
<!-- Node1&#45;&gt;Node4 -->
<g id="edge3" class="edge"><title>Node1&#45;&gt;Node4</title>
<path fill="none" stroke="midnightblue" d="M315,-157.805C315,-148.91 315,-138.78 315,-131.751"/>
<polygon fill="midnightblue" stroke="midnightblue" points="311.5,-158.083 315,-168.083 318.5,-158.083 311.5,-158.083"/>
</g>
<!-- Node8 -->
<g id="node8" class="node"><title>Node8</title>
<g id="a_node8"><a xlink:href="_files_8h.html" target="_top" xlink:title="include/Files.h">
<polygon fill="none" stroke="black" points="378,-112.5 378,-131.5 458,-131.5 458,-112.5 378,-112.5"/>
<text text-anchor="middle" x="418" y="-119.5" font-family="Helvetica,sans-Serif" font-size="10.00">include/Files.h</text>
</a>
</g>
</g>
<!-- Node1&#45;&gt;Node8 -->
<g id="edge7" class="edge"><title>Node1&#45;&gt;Node8</title>
<path fill="none" stroke="midnightblue" d="M340.579,-163.59C359.623,-153.605 385.064,-140.267 401.492,-131.655"/>
<polygon fill="midnightblue" stroke="midnightblue" points="338.78,-160.581 331.549,-168.324 342.031,-166.78 338.78,-160.581"/>
</g>
<!-- Node9 -->
<g id="node9" class="node"><title>Node9</title>
<g id="a_node9"><a xlink:href="_pipe_8h.html" target="_top" xlink:title="include/Pipe.h">
<polygon fill="none" stroke="black" points="447,-56.5 447,-75.5 525,-75.5 525,-56.5 447,-56.5"/>
<text text-anchor="middle" x="486" y="-63.5" font-family="Helvetica,sans-Serif" font-size="10.00">include/Pipe.h</text>
</a>
</g>
</g>
<!-- Node1&#45;&gt;Node9 -->
<g id="edge10" class="edge"><title>Node1&#45;&gt;Node9</title>
<path fill="none" stroke="midnightblue" d="M367.925,-173.878C400.544,-169.226 440.969,-158.121 467,-132 482.27,-116.677 485.405,-89.8017 485.96,-75.8964"/>
<polygon fill="midnightblue" stroke="midnightblue" points="367.122,-170.452 357.637,-175.173 367.996,-177.397 367.122,-170.452"/>
</g>
<!-- Node5 -->
<g id="node5" class="node"><title>Node5</title>
<g id="a_node5"><a xlink:href="_d_n_s_8h.html" target="_top" xlink:title="include/DNS.h">
<polygon fill="none" stroke="black" points="73,-56.5 73,-75.5 153,-75.5 153,-56.5 73,-56.5"/>
<text text-anchor="middle" x="113" y="-63.5" font-family="Helvetica,sans-Serif" font-size="10.00">include/DNS.h</text>
</a>
</g>
</g>
<!-- Node4&#45;&gt;Node5 -->
<g id="edge4" class="edge"><title>Node4&#45;&gt;Node5</title>
<path fill="none" stroke="midnightblue" d="M273.212,-109.829C235.073,-99.6333 179.519,-84.7823 144.858,-75.5164"/>
<polygon fill="midnightblue" stroke="midnightblue" points="272.428,-113.242 282.992,-112.444 274.236,-106.48 272.428,-113.242"/>
</g>
<!-- Node6 -->
<g id="node6" class="node"><title>Node6</title>
<g id="a_node6"><a xlink:href="_listener_8h.html" target="_top" xlink:title="include/Listener.h">
<polygon fill="none" stroke="black" points="171.5,-56.5 171.5,-75.5 264.5,-75.5 264.5,-56.5 171.5,-56.5"/>
<text text-anchor="middle" x="218" y="-63.5" font-family="Helvetica,sans-Serif" font-size="10.00">include/Listener.h</text>
</a>
</g>
</g>
<!-- Node4&#45;&gt;Node6 -->
<g id="edge5" class="edge"><title>Node4&#45;&gt;Node6</title>
<path fill="none" stroke="midnightblue" d="M290.665,-107.453C272.757,-97.4835 248.946,-84.2279 233.546,-75.6545"/>
<polygon fill="midnightblue" stroke="midnightblue" points="288.975,-110.518 299.415,-112.324 292.38,-104.402 288.975,-110.518"/>
</g>
<!-- Node7 -->
<g id="node7" class="node"><title>Node7</title>
<g id="a_node7"><a xlink:href="_simple_h_t_t_p_socket_8h.html" target="_top" xlink:title="include/SimpleHTTPSocket.h">
<polygon fill="none" stroke="black" points="283,-56.5 283,-75.5 429,-75.5 429,-56.5 283,-56.5"/>
<text text-anchor="middle" x="356" y="-63.5" font-family="Helvetica,sans-Serif" font-size="10.00">include/SimpleHTTPSocket.h</text>
</a>
</g>
</g>
<!-- Node4&#45;&gt;Node7 -->
<g id="edge6" class="edge"><title>Node4&#45;&gt;Node7</title>
<path fill="none" stroke="midnightblue" d="M328.017,-103.855C335.117,-94.5048 343.604,-83.3265 349.356,-75.7511"/>
<polygon fill="midnightblue" stroke="midnightblue" points="325.03,-102.002 321.77,-112.083 330.605,-106.235 325.03,-102.002"/>
</g>
<!-- Node8&#45;&gt;Node9 -->
<g id="edge8" class="edge"><title>Node8&#45;&gt;Node9</title>
<path fill="none" stroke="midnightblue" d="M436.762,-106.101C449,-96.3824 464.559,-84.0269 474.876,-75.8339"/>
<polygon fill="midnightblue" stroke="midnightblue" points="434.58,-103.364 428.925,-112.324 438.933,-108.846 434.58,-103.364"/>
</g>
<!-- Node10 -->
<g id="node10" class="node"><title>Node10</title>
<g id="a_node10"><a xlink:href="_job_thread_8h.html" target="_top" xlink:title="include/JobThread.h">
<polygon fill="none" stroke="black" points="434,-0.5 434,-19.5 538,-19.5 538,-0.5 434,-0.5"/>
<text text-anchor="middle" x="486" y="-7.5" font-family="Helvetica,sans-Serif" font-size="10.00">include/JobThread.h</text>
</a>
</g>
</g>
<!-- Node9&#45;&gt;Node10 -->
<g id="edge9" class="edge"><title>Node9&#45;&gt;Node10</title>
<path fill="none" stroke="midnightblue" d="M486,-45.8045C486,-36.9102 486,-26.7798 486,-19.7511"/>
<polygon fill="midnightblue" stroke="midnightblue" points="482.5,-46.083 486,-56.083 489.5,-46.083 482.5,-46.083"/>
</g>
</g>
</svg>
