<?xml version="1.0" encoding="UTF-8" standalone="no"?>
<!DOCTYPE svg PUBLIC "-//W3C//DTD SVG 1.1//EN"
 "http://www.w3.org/Graphics/SVG/1.1/DTD/svg11.dtd">
<!-- Generated by graphviz version 2.34.0 (20140110.0949)
 -->
<!-- Title: trippingcyril::thread::Thread Pages: 1 -->
<svg width="259pt" height="164pt"
 viewBox="0.00 0.00 259.00 164.00" xmlns="http://www.w3.org/2000/svg" xmlns:xlink="http://www.w3.org/1999/xlink">
<g id="graph0" class="graph" transform="scale(1 1) rotate(0) translate(4 160)">
<title>trippingcyril::thread::Thread</title>
<!-- Node1 -->
<g id="node1" class="node"><title>Node1</title>
<polygon fill="#bfbfbf" stroke="black" points="84.5,-69 84.5,-99 183.5,-99 183.5,-69 84.5,-69"/>
<text text-anchor="start" x="92.5" y="-87" font-family="Helvetica,sans-Serif" font-size="10.00">trippingcyril::thread</text>
<text text-anchor="middle" x="134" y="-76" font-family="Helvetica,sans-Serif" font-size="10.00">::Thread</text>
</g>
<!-- Node3 -->
<g id="node3" class="node"><title>Node3</title>
<g id="a_node3"><a xlink:href="classtrippingcyril_1_1_module_thread.html" target="_top" xlink:title="trippingcyril::ModuleThread">
<polygon fill="none" stroke="black" points="0,-6.5 0,-25.5 134,-25.5 134,-6.5 0,-6.5"/>
<text text-anchor="middle" x="67" y="-13.5" font-family="Helvetica,sans-Serif" font-size="10.00">trippingcyril::ModuleThread</text>
</a>
</g>
</g>
<!-- Node1&#45;&gt;Node3 -->
<g id="edge2" class="edge"><title>Node1&#45;&gt;Node3</title>
<path fill="none" stroke="midnightblue" d="M112.184,-61.5094C99.8826,-49.3918 85.1786,-34.9072 75.9621,-25.8283"/>
<polygon fill="midnightblue" stroke="midnightblue" points="109.882,-64.1547 119.462,-68.679 114.794,-59.1678 109.882,-64.1547"/>
</g>
<!-- Node4 -->
<g id="node4" class="node"><title>Node4</title>
<g id="a_node4"><a xlink:href="classtrippingcyril_1_1thread_1_1_job_thread.html" target="_top" xlink:title="A job queue that will run your jobs on a seperate thread. ">
<polygon fill="none" stroke="black" points="152.5,-1 152.5,-31 251.5,-31 251.5,-1 152.5,-1"/>
<text text-anchor="start" x="160.5" y="-19" font-family="Helvetica,sans-Serif" font-size="10.00">trippingcyril::thread</text>
<text text-anchor="middle" x="202" y="-8" font-family="Helvetica,sans-Serif" font-size="10.00">::JobThread</text>
</a>
</g>
</g>
<!-- Node1&#45;&gt;Node4 -->
<g id="edge3" class="edge"><title>Node1&#45;&gt;Node4</title>
<path fill="none" stroke="midnightblue" d="M156.166,-61.4855C166.367,-51.5852 178.191,-40.1092 187.274,-31.2931"/>
<polygon fill="midnightblue" stroke="midnightblue" points="153.493,-59.2027 148.755,-68.679 158.368,-64.2257 153.493,-59.2027"/>
</g>
<!-- Node2 -->
<g id="node2" class="node"><title>Node2</title>
<g id="a_node2"><a xlink:href="classtrippingcyril_1_1_event.html" target="_top" xlink:title="Event class to automatically register and unregister event driven classes with modules, simply implement this from any event driven class. ">
<polygon fill="none" stroke="black" points="85,-136.5 85,-155.5 183,-155.5 183,-136.5 85,-136.5"/>
<text text-anchor="middle" x="134" y="-143.5" font-family="Helvetica,sans-Serif" font-size="10.00">trippingcyril::Event</text>
</a>
</g>
</g>
<!-- Node2&#45;&gt;Node1 -->
<g id="edge1" class="edge"><title>Node2&#45;&gt;Node1</title>
<path fill="none" stroke="midnightblue" d="M134,-126.371C134,-117.585 134,-107.272 134,-99.1408"/>
<polygon fill="midnightblue" stroke="midnightblue" points="130.5,-126.403 134,-136.403 137.5,-126.403 130.5,-126.403"/>
</g>
</g>
</svg>
