<?xml version="1.0" encoding="UTF-8" standalone="no"?>
<!DOCTYPE svg PUBLIC "-//W3C//DTD SVG 1.1//EN"
 "http://www.w3.org/Graphics/SVG/1.1/DTD/svg11.dtd">
<!-- Generated by graphviz version 2.34.0 (20140110.0949)
 -->
<!-- Title: trippingcyril::Compressor Pages: 1 -->
<svg width="324pt" height="196pt"
 viewBox="0.00 0.00 324.00 196.00" xmlns="http://www.w3.org/2000/svg" xmlns:xlink="http://www.w3.org/1999/xlink">
<g id="graph0" class="graph" transform="scale(1 1) rotate(0) translate(4 192)">
<title>trippingcyril::Compressor</title>
<!-- Node1 -->
<g id="node1" class="node"><title>Node1</title>
<polygon fill="#bfbfbf" stroke="black" points="93.5,-56.5 93.5,-75.5 218.5,-75.5 218.5,-56.5 93.5,-56.5"/>
<text text-anchor="middle" x="156" y="-63.5" font-family="Helvetica,sans-Serif" font-size="10.00">trippingcyril::Compressor</text>
</g>
<!-- Node4 -->
<g id="node4" class="node"><title>Node4</title>
<g id="a_node4"><a xlink:href="classtrippingcyril_1_1_g_zip_compressor.html" target="_top" xlink:title="A gzip implementation of the Compressor interface. ">
<polygon fill="none" stroke="black" points="0,-0.5 0,-19.5 146,-19.5 146,-0.5 0,-0.5"/>
<text text-anchor="middle" x="73" y="-7.5" font-family="Helvetica,sans-Serif" font-size="10.00">trippingcyril::GZipCompressor</text>
</a>
</g>
</g>
<!-- Node1&#45;&gt;Node4 -->
<g id="edge3" class="edge"><title>Node1&#45;&gt;Node4</title>
<path fill="none" stroke="midnightblue" d="M133.901,-50.6221C118.738,-40.7574 99.1172,-27.9919 86.3023,-19.6545"/>
<polygon fill="midnightblue" stroke="midnightblue" points="132.374,-53.8042 142.665,-56.324 136.191,-47.9367 132.374,-53.8042"/>
</g>
<!-- Node5 -->
<g id="node5" class="node"><title>Node5</title>
<g id="a_node5"><a xlink:href="classtrippingcyril_1_1_l_z_m_a_compressor.html" target="_top" xlink:title="A lzma implementation of the Compressor interface. ">
<polygon fill="none" stroke="black" points="164,-0.5 164,-19.5 316,-19.5 316,-0.5 164,-0.5"/>
<text text-anchor="middle" x="240" y="-7.5" font-family="Helvetica,sans-Serif" font-size="10.00">trippingcyril::LZMACompressor</text>
</a>
</g>
</g>
<!-- Node1&#45;&gt;Node5 -->
<g id="edge4" class="edge"><title>Node1&#45;&gt;Node5</title>
<path fill="none" stroke="midnightblue" d="M177.932,-50.9005C193.335,-40.9986 213.446,-28.0705 226.537,-19.6545"/>
<polygon fill="midnightblue" stroke="midnightblue" points="176.015,-47.9722 169.496,-56.324 179.801,-53.8605 176.015,-47.9722"/>
</g>
<!-- Node2 -->
<g id="node2" class="node"><title>Node2</title>
<g id="a_node2"><a xlink:href="classtrippingcyril_1_1_writer.html" target="_top" xlink:title="Writer class to provide a general writing operation so it&#39;s easier to write wrapper classes for write...">
<polygon fill="none" stroke="black" points="107,-112.5 107,-131.5 205,-131.5 205,-112.5 107,-112.5"/>
<text text-anchor="middle" x="156" y="-119.5" font-family="Helvetica,sans-Serif" font-size="10.00">trippingcyril::Writer</text>
</a>
</g>
</g>
<!-- Node2&#45;&gt;Node1 -->
<g id="edge1" class="edge"><title>Node2&#45;&gt;Node1</title>
<path fill="none" stroke="midnightblue" d="M156,-101.805C156,-92.9102 156,-82.7798 156,-75.7511"/>
<polygon fill="midnightblue" stroke="midnightblue" points="152.5,-102.083 156,-112.083 159.5,-102.083 152.5,-102.083"/>
</g>
<!-- Node3 -->
<g id="node3" class="node"><title>Node3</title>
<g id="a_node3"><a xlink:href="classtrippingcyril_1_1_should_delete.html" target="_top" xlink:title="A simple interface to determine if the object should be deleted or not. ">
<polygon fill="none" stroke="black" points="90.5,-168.5 90.5,-187.5 221.5,-187.5 221.5,-168.5 90.5,-168.5"/>
<text text-anchor="middle" x="156" y="-175.5" font-family="Helvetica,sans-Serif" font-size="10.00">trippingcyril::ShouldDelete</text>
</a>
</g>
</g>
<!-- Node3&#45;&gt;Node2 -->
<g id="edge2" class="edge"><title>Node3&#45;&gt;Node2</title>
<path fill="none" stroke="midnightblue" d="M156,-157.805C156,-148.91 156,-138.78 156,-131.751"/>
<polygon fill="midnightblue" stroke="midnightblue" points="152.5,-158.083 156,-168.083 159.5,-158.083 152.5,-158.083"/>
</g>
</g>
</svg>
