<?xml version="1.0" encoding="UTF-8" standalone="no"?>
<!DOCTYPE svg PUBLIC "-//W3C//DTD SVG 1.1//EN"
 "http://www.w3.org/Graphics/SVG/1.1/DTD/svg11.dtd">
<!-- Generated by graphviz version 2.34.0 (20140110.0949)
 -->
<!-- Title: trippingcyril::Decompressor Pages: 1 -->
<svg width="144pt" height="154pt"
 viewBox="0.00 0.00 144.00 154.00" xmlns="http://www.w3.org/2000/svg" xmlns:xlink="http://www.w3.org/1999/xlink">
<g id="graph0" class="graph" transform="scale(1 1) rotate(0) translate(4 150)">
<title>trippingcyril::Decompressor</title>
<!-- Node1 -->
<g id="node1" class="node"><title>Node1</title>
<polygon fill="#bfbfbf" stroke="black" points="0,-0.5 0,-19.5 136,-19.5 136,-0.5 0,-0.5"/>
<text text-anchor="middle" x="68" y="-7.5" font-family="Helvetica,sans-Serif" font-size="10.00">trippingcyril::Decompressor</text>
</g>
<!-- Node2 -->
<g id="node2" class="node"><title>Node2</title>
<g id="a_node2"><a xlink:href="classtrippingcyril_1_1_writer.html" target="_top" xlink:title="Writer class to provide a general writing operation so it&#39;s easier to write wrapper classes for write...">
<polygon fill="none" stroke="black" points="19,-68.5 19,-87.5 117,-87.5 117,-68.5 19,-68.5"/>
<text text-anchor="middle" x="68" y="-75.5" font-family="Helvetica,sans-Serif" font-size="10.00">trippingcyril::Writer</text>
</a>
</g>
</g>
<!-- Node2&#45;&gt;Node1 -->
<g id="edge1" class="edge"><title>Node2&#45;&gt;Node1</title>
<path fill="none" stroke="midnightblue" d="M66.4399,-58.3825C66.2572,-55.5753 66.1003,-52.7126 66,-50 65.6141,-39.5663 66.4162,-27.5725 67.1167,-19.6712"/>
<polygon fill="midnightblue" stroke="midnightblue" points="62.9607,-58.7906 67.2083,-68.4967 69.9406,-58.2602 62.9607,-58.7906"/>
</g>
<!-- Node2&#45;&gt;Node1 -->
<g id="edge3" class="edge"><title>Node2&#45;&gt;Node1</title>
<path fill="none" stroke="#9a32cd" stroke-dasharray="5,2" d="M68,-58.0413C68,-45.4724 68,-29.5631 68,-19.8411"/>
<polygon fill="#9a32cd" stroke="#9a32cd" points="64.5001,-58.3716 68,-68.3717 71.5001,-58.3717 64.5001,-58.3716"/>
<text text-anchor="middle" x="84.5" y="-41.5" font-family="Helvetica,sans-Serif" font-size="10.00"> _writer</text>
</g>
<!-- Node3 -->
<g id="node3" class="node"><title>Node3</title>
<g id="a_node3"><a xlink:href="classtrippingcyril_1_1_should_delete.html" target="_top" xlink:title="A simple interface to determine if the object should be deleted or not. ">
<polygon fill="none" stroke="black" points="2.5,-126.5 2.5,-145.5 133.5,-145.5 133.5,-126.5 2.5,-126.5"/>
<text text-anchor="middle" x="68" y="-133.5" font-family="Helvetica,sans-Serif" font-size="10.00">trippingcyril::ShouldDelete</text>
</a>
</g>
</g>
<!-- Node3&#45;&gt;Node2 -->
<g id="edge2" class="edge"><title>Node3&#45;&gt;Node2</title>
<path fill="none" stroke="midnightblue" d="M68,-115.953C68,-106.287 68,-95.0312 68,-87.5052"/>
<polygon fill="midnightblue" stroke="midnightblue" points="64.5001,-116.25 68,-126.25 71.5001,-116.25 64.5001,-116.25"/>
</g>
</g>
</svg>
