<?xml version="1.0" encoding="UTF-8" standalone="no"?>
<!DOCTYPE svg PUBLIC "-//W3C//DTD SVG 1.1//EN"
 "http://www.w3.org/Graphics/SVG/1.1/DTD/svg11.dtd">
<!-- Generated by graphviz version 2.34.0 (20140110.0949)
 -->
<!-- Title: trippingcyril::database::postgres::BlockingPostGres Pages: 1 -->
<svg width="152pt" height="164pt"
 viewBox="0.00 0.00 152.00 164.00" xmlns="http://www.w3.org/2000/svg" xmlns:xlink="http://www.w3.org/1999/xlink">
<g id="graph0" class="graph" transform="scale(1 1) rotate(0) translate(4 160)">
<title>trippingcyril::database::postgres::BlockingPostGres</title>
<!-- Node1 -->
<g id="node1" class="node"><title>Node1</title>
<polygon fill="#bfbfbf" stroke="black" points="-0.5,-1 -0.5,-31 144.5,-31 144.5,-1 -0.5,-1"/>
<text text-anchor="start" x="7.5" y="-19" font-family="Helvetica,sans-Serif" font-size="10.00">trippingcyril::database</text>
<text text-anchor="middle" x="72" y="-8" font-family="Helvetica,sans-Serif" font-size="10.00">::postgres::BlockingPostGres</text>
</g>
<!-- Node2 -->
<g id="node2" class="node"><title>Node2</title>
<g id="a_node2"><a xlink:href="classtrippingcyril_1_1database_1_1_database.html" target="_top" xlink:title="Database interface. ">
<polygon fill="none" stroke="black" points="16,-69 16,-99 128,-99 128,-69 16,-69"/>
<text text-anchor="start" x="24" y="-87" font-family="Helvetica,sans-Serif" font-size="10.00">trippingcyril::database</text>
<text text-anchor="middle" x="72" y="-76" font-family="Helvetica,sans-Serif" font-size="10.00">::Database</text>
</a>
</g>
</g>
<!-- Node2&#45;&gt;Node1 -->
<g id="edge1" class="edge"><title>Node2&#45;&gt;Node1</title>
<path fill="none" stroke="midnightblue" d="M72,-58.5322C72,-49.3606 72,-39.2449 72,-31.2931"/>
<polygon fill="midnightblue" stroke="midnightblue" points="68.5001,-58.6789 72,-68.679 75.5001,-58.679 68.5001,-58.6789"/>
</g>
<!-- Node3 -->
<g id="node3" class="node"><title>Node3</title>
<g id="a_node3"><a xlink:href="classtrippingcyril_1_1_event.html" target="_top" xlink:title="Event class to automatically register and unregister event driven classes with modules, simply implement this from any event driven class. ">
<polygon fill="none" stroke="black" points="23,-136.5 23,-155.5 121,-155.5 121,-136.5 23,-136.5"/>
<text text-anchor="middle" x="72" y="-143.5" font-family="Helvetica,sans-Serif" font-size="10.00">trippingcyril::Event</text>
</a>
</g>
</g>
<!-- Node3&#45;&gt;Node2 -->
<g id="edge2" class="edge"><title>Node3&#45;&gt;Node2</title>
<path fill="none" stroke="midnightblue" d="M72,-126.371C72,-117.585 72,-107.272 72,-99.1408"/>
<polygon fill="midnightblue" stroke="midnightblue" points="68.5001,-126.403 72,-136.403 75.5001,-126.403 68.5001,-126.403"/>
</g>
</g>
</svg>
