<?xml version="1.0" encoding="UTF-8" standalone="no"?>
<!DOCTYPE svg PUBLIC "-//W3C//DTD SVG 1.1//EN"
 "http://www.w3.org/Graphics/SVG/1.1/DTD/svg11.dtd">
<!-- Generated by graphviz version 2.34.0 (20140110.0949)
 -->
<!-- Title: trippingcyril::ShouldDelete Pages: 1 -->
<svg width="684pt" height="415pt"
 viewBox="0.00 0.00 684.00 415.00" xmlns="http://www.w3.org/2000/svg" xmlns:xlink="http://www.w3.org/1999/xlink">
<g id="graph0" class="graph" transform="scale(1 1) rotate(0) translate(4 411)">
<title>trippingcyril::ShouldDelete</title>
<!-- Node1 -->
<g id="node1" class="node"><title>Node1</title>
<polygon fill="#bfbfbf" stroke="black" points="0.5,-235.5 0.5,-254.5 131.5,-254.5 131.5,-235.5 0.5,-235.5"/>
<text text-anchor="middle" x="66" y="-242.5" font-family="Helvetica,sans-Serif" font-size="10.00">trippingcyril::ShouldDelete</text>
</g>
<!-- Node2 -->
<g id="node2" class="node"><title>Node2</title>
<g id="a_node2"><a xlink:href="classtrippingcyril_1_1database_1_1_d_b_callback.html" target="_top" xlink:title="Database callback class. ">
<polygon fill="none" stroke="black" points="183,-377 183,-407 295,-407 295,-377 183,-377"/>
<text text-anchor="start" x="191" y="-395" font-family="Helvetica,sans-Serif" font-size="10.00">trippingcyril::database</text>
<text text-anchor="middle" x="239" y="-384" font-family="Helvetica,sans-Serif" font-size="10.00">::DBCallback</text>
</a>
</g>
</g>
<!-- Node1&#45;&gt;Node2 -->
<g id="edge1" class="edge"><title>Node1&#45;&gt;Node2</title>
<path fill="none" stroke="midnightblue" d="M77.7273,-263.405C94.0342,-289.873 127.486,-338.614 168,-367 173.39,-370.776 179.411,-374.04 185.597,-376.846"/>
<polygon fill="midnightblue" stroke="midnightblue" points="80.6685,-261.505 72.5139,-254.741 74.6706,-265.114 80.6685,-261.505"/>
</g>
<!-- Node3 -->
<g id="node3" class="node"><title>Node3</title>
<g id="a_node3"><a xlink:href="classtrippingcyril_1_1database_1_1postgres_1_1_p_g_notify_listener.html" target="_top" xlink:title="Callback for listen/notify operations within PostGres, use this with PostGres::Listen. ">
<polygon fill="none" stroke="black" points="168.5,-328 168.5,-358 309.5,-358 309.5,-328 168.5,-328"/>
<text text-anchor="start" x="176.5" y="-346" font-family="Helvetica,sans-Serif" font-size="10.00">trippingcyril::database</text>
<text text-anchor="middle" x="239" y="-335" font-family="Helvetica,sans-Serif" font-size="10.00">::postgres::PGNotifyListener</text>
</a>
</g>
</g>
<!-- Node1&#45;&gt;Node3 -->
<g id="edge2" class="edge"><title>Node1&#45;&gt;Node3</title>
<path fill="none" stroke="midnightblue" d="M85.9306,-261.212C105.46,-277.307 137.313,-301.85 168,-318 174.966,-321.666 182.587,-325.004 190.155,-327.963"/>
<polygon fill="midnightblue" stroke="midnightblue" points="88.0306,-258.405 78.1139,-254.676 83.5403,-263.775 88.0306,-258.405"/>
</g>
<!-- Node4 -->
<g id="node4" class="node"><title>Node4</title>
<g id="a_node4"><a xlink:href="classtrippingcyril_1_1net_1_1dns_1_1_d_n_s_callback.html" target="_top" xlink:title="DNS callback class. ">
<polygon fill="none" stroke="black" points="187,-279 187,-309 291,-309 291,-279 187,-279"/>
<text text-anchor="start" x="195" y="-297" font-family="Helvetica,sans-Serif" font-size="10.00">trippingcyril::net</text>
<text text-anchor="middle" x="239" y="-286" font-family="Helvetica,sans-Serif" font-size="10.00">::dns::DNSCallback</text>
</a>
</g>
</g>
<!-- Node1&#45;&gt;Node4 -->
<g id="edge3" class="edge"><title>Node1&#45;&gt;Node4</title>
<path fill="none" stroke="midnightblue" d="M110.004,-257.323C133.348,-264.012 162.359,-272.325 186.856,-279.345"/>
<polygon fill="midnightblue" stroke="midnightblue" points="110.954,-253.954 100.376,-254.564 109.025,-260.683 110.954,-253.954"/>
</g>
<!-- Node5 -->
<g id="node5" class="node"><title>Node5</title>
<g id="a_node5"><a xlink:href="classtrippingcyril_1_1net_1_1dns_1_1_d_n_s_reverse_callback.html" target="_top" xlink:title="Reverse dns callback. ">
<polygon fill="none" stroke="black" points="168.5,-230 168.5,-260 309.5,-260 309.5,-230 168.5,-230"/>
<text text-anchor="start" x="176.5" y="-248" font-family="Helvetica,sans-Serif" font-size="10.00">trippingcyril::net</text>
<text text-anchor="middle" x="239" y="-237" font-family="Helvetica,sans-Serif" font-size="10.00">::dns::DNSReverseCallback</text>
</a>
</g>
</g>
<!-- Node1&#45;&gt;Node5 -->
<g id="edge4" class="edge"><title>Node1&#45;&gt;Node5</title>
<path fill="none" stroke="midnightblue" d="M141.898,-245C150.709,-245 159.673,-245 168.407,-245"/>
<polygon fill="midnightblue" stroke="midnightblue" points="141.648,-241.5 131.648,-245 141.648,-248.5 141.648,-241.5"/>
</g>
<!-- Node6 -->
<g id="node6" class="node"><title>Node6</title>
<g id="a_node6"><a xlink:href="classtrippingcyril_1_1net_1_1http_1_1_h_t_t_p_callback.html" target="_top" xlink:title="Callback class for our SimpleHTTPSocket. ">
<polygon fill="none" stroke="black" points="184,-181 184,-211 294,-211 294,-181 184,-181"/>
<text text-anchor="start" x="192" y="-199" font-family="Helvetica,sans-Serif" font-size="10.00">trippingcyril::net</text>
<text text-anchor="middle" x="239" y="-188" font-family="Helvetica,sans-Serif" font-size="10.00">::http::HTTPCallback</text>
</a>
</g>
</g>
<!-- Node1&#45;&gt;Node6 -->
<g id="edge5" class="edge"><title>Node1&#45;&gt;Node6</title>
<path fill="none" stroke="midnightblue" d="M110.154,-232.634C133.05,-226.074 161.365,-217.96 185.524,-211.037"/>
<polygon fill="midnightblue" stroke="midnightblue" points="109.025,-229.317 100.376,-235.436 110.954,-236.046 109.025,-229.317"/>
</g>
<!-- Node7 -->
<g id="node7" class="node"><title>Node7</title>
<g id="a_node7"><a xlink:href="classtrippingcyril_1_1thread_1_1_job.html" target="_top" xlink:title="Job base class With main thread we really just mean the thread the Module that the JobThread we are p...">
<polygon fill="none" stroke="black" points="178.5,-142.5 178.5,-161.5 299.5,-161.5 299.5,-142.5 178.5,-142.5"/>
<text text-anchor="middle" x="239" y="-149.5" font-family="Helvetica,sans-Serif" font-size="10.00">trippingcyril::thread::Job</text>
</a>
</g>
</g>
<!-- Node1&#45;&gt;Node7 -->
<g id="edge6" class="edge"><title>Node1&#45;&gt;Node7</title>
<path fill="none" stroke="midnightblue" d="M85.4036,-228.635C104.736,-212.214 136.637,-187.23 168,-172 176.641,-167.804 186.32,-164.337 195.661,-161.535"/>
<polygon fill="midnightblue" stroke="midnightblue" points="82.9655,-226.116 77.689,-235.304 87.5432,-231.412 82.9655,-226.116"/>
</g>
<!-- Node8 -->
<g id="node8" class="node"><title>Node8</title>
<g id="a_node8"><a xlink:href="classtrippingcyril_1_1_writer.html" target="_top" xlink:title="Writer class to provide a general writing operation so it&#39;s easier to write wrapper classes for write...">
<polygon fill="none" stroke="black" points="190,-104.5 190,-123.5 288,-123.5 288,-104.5 190,-104.5"/>
<text text-anchor="middle" x="239" y="-111.5" font-family="Helvetica,sans-Serif" font-size="10.00">trippingcyril::Writer</text>
</a>
</g>
</g>
<!-- Node1&#45;&gt;Node8 -->
<g id="edge7" class="edge"><title>Node1&#45;&gt;Node8</title>
<path fill="none" stroke="midnightblue" d="M78.5409,-226.663C95.2194,-201.688 128.439,-157.311 168,-133 174.652,-128.912 182.187,-125.69 189.789,-123.154"/>
<polygon fill="midnightblue" stroke="midnightblue" points="75.504,-224.913 72.9798,-235.202 81.3698,-228.733 75.504,-224.913"/>
</g>
<!-- Node9 -->
<g id="node9" class="node"><title>Node9</title>
<g id="a_node9"><a xlink:href="classtrippingcyril_1_1_compressor.html" target="_top" xlink:title="Abstract compressor. ">
<polygon fill="none" stroke="black" points="351.5,-202.5 351.5,-221.5 476.5,-221.5 476.5,-202.5 351.5,-202.5"/>
<text text-anchor="middle" x="414" y="-209.5" font-family="Helvetica,sans-Serif" font-size="10.00">trippingcyril::Compressor</text>
</a>
</g>
</g>
<!-- Node8&#45;&gt;Node9 -->
<g id="edge8" class="edge"><title>Node8&#45;&gt;Node9</title>
<path fill="none" stroke="midnightblue" d="M297.529,-125.587C301.959,-127.664 306.184,-130.113 310,-133 334.8,-151.764 321.306,-174.097 346,-193 351.088,-196.895 356.941,-199.992 363.025,-202.454"/>
<polygon fill="midnightblue" stroke="midnightblue" points="298.8,-122.326 288.217,-121.826 296.178,-128.816 298.8,-122.326"/>
</g>
<!-- Node12 -->
<g id="node12" class="node"><title>Node12</title>
<g id="a_node12"><a xlink:href="classtrippingcyril_1_1_decompressor.html" target="_top" xlink:title="Abstract decompressor. ">
<polygon fill="none" stroke="black" points="346,-164.5 346,-183.5 482,-183.5 482,-164.5 346,-164.5"/>
<text text-anchor="middle" x="414" y="-171.5" font-family="Helvetica,sans-Serif" font-size="10.00">trippingcyril::Decompressor</text>
</a>
</g>
</g>
<!-- Node8&#45;&gt;Node12 -->
<g id="edge11" class="edge"><title>Node8&#45;&gt;Node12</title>
<path fill="none" stroke="midnightblue" d="M292.768,-126.582C298.665,-128.499 304.518,-130.638 310,-133 327.221,-140.419 328.821,-147.484 346,-155 354.418,-158.683 363.743,-161.854 372.695,-164.492"/>
<polygon fill="midnightblue" stroke="midnightblue" points="293.444,-123.129 282.858,-123.564 291.405,-129.826 293.444,-123.129"/>
</g>
<!-- Node14 -->
<g id="node14" class="node"><title>Node14</title>
<g id="a_node14"><a xlink:href="classtrippingcyril_1_1_file.html" target="_top" xlink:title="A general file access class. ">
<polygon fill="none" stroke="black" points="370,-126.5 370,-145.5 458,-145.5 458,-126.5 370,-126.5"/>
<text text-anchor="middle" x="414" y="-133.5" font-family="Helvetica,sans-Serif" font-size="10.00">trippingcyril::File</text>
</a>
</g>
</g>
<!-- Node8&#45;&gt;Node14 -->
<g id="edge13" class="edge"><title>Node8&#45;&gt;Node14</title>
<path fill="none" stroke="midnightblue" d="M298.342,-121.419C321.723,-124.393 348.185,-127.758 369.791,-130.505"/>
<polygon fill="midnightblue" stroke="midnightblue" points="298.552,-117.918 288.19,-120.128 297.669,-124.862 298.552,-117.918"/>
</g>
<!-- Node16 -->
<g id="node16" class="node"><title>Node16</title>
<g id="a_node16"><a xlink:href="classtrippingcyril_1_1net_1_1_socket.html" target="_top" xlink:title="General tcp socket class, fully async using libevent. ">
<polygon fill="none" stroke="black" points="371,-77 371,-107 457,-107 457,-77 371,-77"/>
<text text-anchor="start" x="379" y="-95" font-family="Helvetica,sans-Serif" font-size="10.00">trippingcyril::net</text>
<text text-anchor="middle" x="414" y="-84" font-family="Helvetica,sans-Serif" font-size="10.00">::Socket</text>
</a>
</g>
</g>
<!-- Node8&#45;&gt;Node16 -->
<g id="edge15" class="edge"><title>Node8&#45;&gt;Node16</title>
<path fill="none" stroke="midnightblue" d="M298.185,-106.601C322.023,-103.569 349.087,-100.128 370.949,-97.3475"/>
<polygon fill="midnightblue" stroke="midnightblue" points="297.669,-103.138 288.19,-107.872 298.552,-110.082 297.669,-103.138"/>
</g>
<!-- Node18 -->
<g id="node18" class="node"><title>Node18</title>
<g id="a_node18"><a xlink:href="classtrippingcyril_1_1_pipe.html" target="_top" xlink:title="A wrapper class for pipes. ">
<polygon fill="none" stroke="black" points="368,-38.5 368,-57.5 460,-57.5 460,-38.5 368,-38.5"/>
<text text-anchor="middle" x="414" y="-45.5" font-family="Helvetica,sans-Serif" font-size="10.00">trippingcyril::Pipe</text>
</a>
</g>
</g>
<!-- Node8&#45;&gt;Node18 -->
<g id="edge17" class="edge"><title>Node8&#45;&gt;Node18</title>
<path fill="none" stroke="midnightblue" d="M269.384,-100.122C290.449,-90.4519 319.643,-77.6139 346,-68 356.264,-64.2562 367.592,-60.6728 377.967,-57.5998"/>
<polygon fill="midnightblue" stroke="midnightblue" points="267.634,-97.0752 260.03,-104.453 270.575,-103.427 267.634,-97.0752"/>
</g>
<!-- Node19 -->
<g id="node19" class="node"><title>Node19</title>
<g id="a_node19"><a xlink:href="classtrippingcyril_1_1_string_writer.html" target="_top" xlink:title="Simple in memory writer that just writes everything to a string. ">
<polygon fill="none" stroke="black" points="352,-0.5 352,-19.5 476,-19.5 476,-0.5 352,-0.5"/>
<text text-anchor="middle" x="414" y="-7.5" font-family="Helvetica,sans-Serif" font-size="10.00">trippingcyril::StringWriter</text>
</a>
</g>
</g>
<!-- Node8&#45;&gt;Node19 -->
<g id="edge18" class="edge"><title>Node8&#45;&gt;Node19</title>
<path fill="none" stroke="midnightblue" d="M256.524,-97.168C276.188,-78.046 310.805,-47.149 346,-29 353.307,-25.2318 361.46,-22.1249 369.493,-19.5939"/>
<polygon fill="midnightblue" stroke="midnightblue" points="253.928,-94.8133 249.286,-104.337 258.854,-99.7868 253.928,-94.8133"/>
</g>
<!-- Node10 -->
<g id="node10" class="node"><title>Node10</title>
<g id="a_node10"><a xlink:href="classtrippingcyril_1_1_g_zip_compressor.html" target="_top" xlink:title="A gzip implementation of the Compressor interface. ">
<polygon fill="none" stroke="black" points="524,-240.5 524,-259.5 670,-259.5 670,-240.5 524,-240.5"/>
<text text-anchor="middle" x="597" y="-247.5" font-family="Helvetica,sans-Serif" font-size="10.00">trippingcyril::GZipCompressor</text>
</a>
</g>
</g>
<!-- Node9&#45;&gt;Node10 -->
<g id="edge9" class="edge"><title>Node9&#45;&gt;Node10</title>
<path fill="none" stroke="midnightblue" d="M470.638,-223.681C496.307,-229.07 526.391,-235.386 550.654,-240.48"/>
<polygon fill="midnightblue" stroke="midnightblue" points="471.18,-220.218 460.674,-221.589 469.741,-227.069 471.18,-220.218"/>
</g>
<!-- Node11 -->
<g id="node11" class="node"><title>Node11</title>
<g id="a_node11"><a xlink:href="classtrippingcyril_1_1_l_z_m_a_compressor.html" target="_top" xlink:title="A lzma implementation of the Compressor interface. ">
<polygon fill="none" stroke="black" points="521,-202.5 521,-221.5 673,-221.5 673,-202.5 521,-202.5"/>
<text text-anchor="middle" x="597" y="-209.5" font-family="Helvetica,sans-Serif" font-size="10.00">trippingcyril::LZMACompressor</text>
</a>
</g>
</g>
<!-- Node9&#45;&gt;Node11 -->
<g id="edge10" class="edge"><title>Node9&#45;&gt;Node11</title>
<path fill="none" stroke="midnightblue" d="M486.703,-212C497.925,-212 509.55,-212 520.847,-212"/>
<polygon fill="midnightblue" stroke="midnightblue" points="486.531,-208.5 476.531,-212 486.531,-215.5 486.531,-208.5"/>
</g>
<!-- Node13 -->
<g id="node13" class="node"><title>Node13</title>
<g id="a_node13"><a xlink:href="classtrippingcyril_1_1_g_zip_decompressor.html" target="_top" xlink:title="A gzip implementation of the Decompressor interface. ">
<polygon fill="none" stroke="black" points="518.5,-164.5 518.5,-183.5 675.5,-183.5 675.5,-164.5 518.5,-164.5"/>
<text text-anchor="middle" x="597" y="-171.5" font-family="Helvetica,sans-Serif" font-size="10.00">trippingcyril::GZipDecompressor</text>
</a>
</g>
</g>
<!-- Node12&#45;&gt;Node13 -->
<g id="edge12" class="edge"><title>Node12&#45;&gt;Node13</title>
<path fill="none" stroke="midnightblue" d="M492.187,-174C500.827,-174 509.632,-174 518.278,-174"/>
<polygon fill="midnightblue" stroke="midnightblue" points="492.141,-170.5 482.141,-174 492.14,-177.5 492.141,-170.5"/>
</g>
<!-- Node15 -->
<g id="node15" class="node"><title>Node15</title>
<g id="a_node15"><a xlink:href="classtrippingcyril_1_1_temp_file.html" target="_top" xlink:title="An easy way to get temporary files in /tmp which will be deleted upon destruction of the object...">
<polygon fill="none" stroke="black" points="540.5,-126.5 540.5,-145.5 653.5,-145.5 653.5,-126.5 540.5,-126.5"/>
<text text-anchor="middle" x="597" y="-133.5" font-family="Helvetica,sans-Serif" font-size="10.00">trippingcyril::TempFile</text>
</a>
</g>
</g>
<!-- Node14&#45;&gt;Node15 -->
<g id="edge14" class="edge"><title>Node14&#45;&gt;Node15</title>
<path fill="none" stroke="midnightblue" d="M468.461,-136C491.087,-136 517.446,-136 540.309,-136"/>
<polygon fill="midnightblue" stroke="midnightblue" points="468.354,-132.5 458.354,-136 468.354,-139.5 468.354,-132.5"/>
</g>
<!-- Node17 -->
<g id="node17" class="node"><title>Node17</title>
<g id="a_node17"><a xlink:href="classtrippingcyril_1_1net_1_1http_1_1_simple_h_t_t_p_socket.html" target="_top" xlink:title="A simple http client. ">
<polygon fill="none" stroke="black" points="531,-77 531,-107 663,-107 663,-77 531,-77"/>
<text text-anchor="start" x="539" y="-95" font-family="Helvetica,sans-Serif" font-size="10.00">trippingcyril::net</text>
<text text-anchor="middle" x="597" y="-84" font-family="Helvetica,sans-Serif" font-size="10.00">::http::SimpleHTTPSocket</text>
</a>
</g>
</g>
<!-- Node16&#45;&gt;Node17 -->
<g id="edge16" class="edge"><title>Node16&#45;&gt;Node17</title>
<path fill="none" stroke="midnightblue" d="M467.483,-92C487.26,-92 509.998,-92 530.798,-92"/>
<polygon fill="midnightblue" stroke="midnightblue" points="467.436,-88.5001 457.436,-92 467.436,-95.5001 467.436,-88.5001"/>
</g>
</g>
</svg>
