<?xml version="1.0" encoding="UTF-8" standalone="no"?>
<!DOCTYPE svg PUBLIC "-//W3C//DTD SVG 1.1//EN"
 "http://www.w3.org/Graphics/SVG/1.1/DTD/svg11.dtd">
<!-- Generated by graphviz version 2.34.0 (20140110.0949)
 -->
<!-- Title: trippingcyril::trippingcyril::Event Pages: 1 -->
<svg width="482pt" height="483pt"
 viewBox="0.00 0.00 482.00 483.00" xmlns="http://www.w3.org/2000/svg" xmlns:xlink="http://www.w3.org/1999/xlink">
<g id="graph0" class="graph" transform="scale(1 1) rotate(0) translate(4 479)">
<title>trippingcyril::trippingcyril::Event</title>
<!-- Node1 -->
<g id="node1" class="node"><title>Node1</title>
<polygon fill="#bfbfbf" stroke="black" points="0,-203 0,-233 122,-233 122,-203 0,-203"/>
<text text-anchor="start" x="8" y="-221" font-family="Helvetica,sans-Serif" font-size="10.00">trippingcyril::trippingcyril</text>
<text text-anchor="middle" x="61" y="-210" font-family="Helvetica,sans-Serif" font-size="10.00">::Event</text>
</g>
<!-- Node2 -->
<g id="node2" class="node"><title>Node2</title>
<g id="a_node2"><a xlink:href="classtrippingcyril_1_1database_1_1_database.html" target="_top" xlink:title="Database interface. ">
<polygon fill="none" stroke="black" points="169,-421 169,-451 281,-451 281,-421 169,-421"/>
<text text-anchor="start" x="177" y="-439" font-family="Helvetica,sans-Serif" font-size="10.00">trippingcyril::database</text>
<text text-anchor="middle" x="225" y="-428" font-family="Helvetica,sans-Serif" font-size="10.00">::Database</text>
</a>
</g>
</g>
<!-- Node1&#45;&gt;Node2 -->
<g id="edge1" class="edge"><title>Node1&#45;&gt;Node2</title>
<path fill="none" stroke="midnightblue" d="M68.0523,-242.995C79.1329,-283.668 106.425,-364.317 158,-411 162.27,-414.865 167.196,-418.153 172.394,-420.946"/>
<polygon fill="midnightblue" stroke="midnightblue" points="71.3812,-241.89 65.4644,-233.101 64.609,-243.661 71.3812,-241.89"/>
</g>
<!-- Node5 -->
<g id="node5" class="node"><title>Node5</title>
<g id="a_node5"><a xlink:href="classtrippingcyril_1_1net_1_1dns_1_1_i_pv4_lookup.html" target="_top" xlink:title="A simple IPv4 lookup event. ">
<polygon fill="none" stroke="black" points="177,-372 177,-402 273,-402 273,-372 177,-372"/>
<text text-anchor="start" x="185" y="-390" font-family="Helvetica,sans-Serif" font-size="10.00">trippingcyril::net</text>
<text text-anchor="middle" x="225" y="-379" font-family="Helvetica,sans-Serif" font-size="10.00">::dns::IPv4Lookup</text>
</a>
</g>
</g>
<!-- Node1&#45;&gt;Node5 -->
<g id="edge4" class="edge"><title>Node1&#45;&gt;Node5</title>
<path fill="none" stroke="midnightblue" d="M72.6113,-242.751C87.3974,-274.517 117.065,-329.406 158,-362 163.655,-366.503 170.21,-370.258 176.948,-373.371"/>
<polygon fill="midnightblue" stroke="midnightblue" points="75.6494,-240.976 68.3381,-233.308 69.272,-243.861 75.6494,-240.976"/>
</g>
<!-- Node6 -->
<g id="node6" class="node"><title>Node6</title>
<g id="a_node6"><a xlink:href="classtrippingcyril_1_1net_1_1dns_1_1_i_pv4_reverse_lookup.html" target="_top" xlink:title="Do a reverse ipv4 lookup. ">
<polygon fill="none" stroke="black" points="158.5,-323 158.5,-353 291.5,-353 291.5,-323 158.5,-323"/>
<text text-anchor="start" x="166.5" y="-341" font-family="Helvetica,sans-Serif" font-size="10.00">trippingcyril::net</text>
<text text-anchor="middle" x="225" y="-330" font-family="Helvetica,sans-Serif" font-size="10.00">::dns::IPv4ReverseLookup</text>
</a>
</g>
</g>
<!-- Node1&#45;&gt;Node6 -->
<g id="edge5" class="edge"><title>Node1&#45;&gt;Node6</title>
<path fill="none" stroke="midnightblue" d="M80.3257,-241.006C98.2144,-262.172 127.176,-293.194 158,-313 163.773,-316.709 170.178,-319.992 176.663,-322.857"/>
<polygon fill="midnightblue" stroke="midnightblue" points="82.8863,-238.611 73.8088,-233.147 77.4979,-243.079 82.8863,-238.611"/>
</g>
<!-- Node7 -->
<g id="node7" class="node"><title>Node7</title>
<g id="a_node7"><a xlink:href="classtrippingcyril_1_1net_1_1_listener.html" target="_top" xlink:title="Generic listener class. ">
<polygon fill="none" stroke="black" points="182,-274 182,-304 268,-304 268,-274 182,-274"/>
<text text-anchor="start" x="190" y="-292" font-family="Helvetica,sans-Serif" font-size="10.00">trippingcyril::net</text>
<text text-anchor="middle" x="225" y="-281" font-family="Helvetica,sans-Serif" font-size="10.00">::Listener</text>
</a>
</g>
</g>
<!-- Node1&#45;&gt;Node7 -->
<g id="edge6" class="edge"><title>Node1&#45;&gt;Node7</title>
<path fill="none" stroke="midnightblue" d="M101.181,-237.7C118.449,-246.141 139.077,-255.9 158,-264 165.885,-267.375 174.392,-270.774 182.593,-273.931"/>
<polygon fill="midnightblue" stroke="midnightblue" points="102.483,-234.44 91.9654,-233.165 99.3925,-240.721 102.483,-234.44"/>
</g>
<!-- Node8 -->
<g id="node8" class="node"><title>Node8</title>
<g id="a_node8"><a xlink:href="classtrippingcyril_1_1net_1_1_socket.html" target="_top" xlink:title="General tcp socket class, fully async using libevent. ">
<polygon fill="none" stroke="black" points="182,-225 182,-255 268,-255 268,-225 182,-225"/>
<text text-anchor="start" x="190" y="-243" font-family="Helvetica,sans-Serif" font-size="10.00">trippingcyril::net</text>
<text text-anchor="middle" x="225" y="-232" font-family="Helvetica,sans-Serif" font-size="10.00">::Socket</text>
</a>
</g>
</g>
<!-- Node1&#45;&gt;Node8 -->
<g id="edge7" class="edge"><title>Node1&#45;&gt;Node8</title>
<path fill="none" stroke="midnightblue" d="M132.658,-227.595C149.423,-229.872 166.789,-232.231 181.82,-234.272"/>
<polygon fill="midnightblue" stroke="midnightblue" points="132.703,-224.07 122.323,-226.192 131.761,-231.006 132.703,-224.07"/>
</g>
<!-- Node10 -->
<g id="node10" class="node"><title>Node10</title>
<g id="a_node10"><a xlink:href="classtrippingcyril_1_1_pipe.html" target="_top" xlink:title="A wrapper class for pipes. ">
<polygon fill="none" stroke="black" points="179,-186.5 179,-205.5 271,-205.5 271,-186.5 179,-186.5"/>
<text text-anchor="middle" x="225" y="-193.5" font-family="Helvetica,sans-Serif" font-size="10.00">trippingcyril::Pipe</text>
</a>
</g>
</g>
<!-- Node1&#45;&gt;Node10 -->
<g id="edge9" class="edge"><title>Node1&#45;&gt;Node10</title>
<path fill="none" stroke="midnightblue" d="M132.537,-208.421C148.235,-206.289 164.467,-204.085 178.82,-202.136"/>
<polygon fill="midnightblue" stroke="midnightblue" points="131.761,-204.994 122.323,-209.808 132.703,-211.93 131.761,-204.994"/>
</g>
<!-- Node11 -->
<g id="node11" class="node"><title>Node11</title>
<g id="a_node11"><a xlink:href="classtrippingcyril_1_1thread_1_1_thread.html" target="_top" xlink:title="Simple thread class. ">
<polygon fill="none" stroke="black" points="175.5,-137 175.5,-167 274.5,-167 274.5,-137 175.5,-137"/>
<text text-anchor="start" x="183.5" y="-155" font-family="Helvetica,sans-Serif" font-size="10.00">trippingcyril::thread</text>
<text text-anchor="middle" x="225" y="-144" font-family="Helvetica,sans-Serif" font-size="10.00">::Thread</text>
</a>
</g>
</g>
<!-- Node1&#45;&gt;Node11 -->
<g id="edge10" class="edge"><title>Node1&#45;&gt;Node11</title>
<path fill="none" stroke="midnightblue" d="M105.816,-198.834C122.135,-191.815 140.855,-183.905 158,-177 166.183,-173.704 174.984,-170.285 183.408,-167.072"/>
<polygon fill="midnightblue" stroke="midnightblue" points="104.309,-195.672 96.5147,-202.849 107.083,-202.099 104.309,-195.672"/>
</g>
<!-- Node14 -->
<g id="node14" class="node"><title>Node14</title>
<g id="a_node14"><a xlink:href="classtrippingcyril_1_1timing_1_1_backoff_timer.html" target="_top" xlink:title="General backoff timer. ">
<polygon fill="none" stroke="black" points="176,-88 176,-118 274,-118 274,-88 176,-88"/>
<text text-anchor="start" x="184" y="-106" font-family="Helvetica,sans-Serif" font-size="10.00">trippingcyril::timing</text>
<text text-anchor="middle" x="225" y="-95" font-family="Helvetica,sans-Serif" font-size="10.00">::BackoffTimer</text>
</a>
</g>
</g>
<!-- Node1&#45;&gt;Node14 -->
<g id="edge13" class="edge"><title>Node1&#45;&gt;Node14</title>
<path fill="none" stroke="midnightblue" d="M81.0772,-195.224C99.106,-174.937 127.823,-145.657 158,-127 163.496,-123.602 169.546,-120.582 175.684,-117.93"/>
<polygon fill="midnightblue" stroke="midnightblue" points="78.4206,-192.945 74.4842,-202.781 83.6955,-197.547 78.4206,-192.945"/>
</g>
<!-- Node15 -->
<g id="node15" class="node"><title>Node15</title>
<g id="a_node15"><a xlink:href="classtrippingcyril_1_1timing_1_1_timer.html" target="_top" xlink:title="General timer class. ">
<polygon fill="none" stroke="black" points="176,-39 176,-69 274,-69 274,-39 176,-39"/>
<text text-anchor="start" x="184" y="-57" font-family="Helvetica,sans-Serif" font-size="10.00">trippingcyril::timing</text>
<text text-anchor="middle" x="225" y="-46" font-family="Helvetica,sans-Serif" font-size="10.00">::Timer</text>
</a>
</g>
</g>
<!-- Node1&#45;&gt;Node15 -->
<g id="edge14" class="edge"><title>Node1&#45;&gt;Node15</title>
<path fill="none" stroke="midnightblue" d="M72.9563,-193.376C87.9402,-162.339 117.641,-109.274 158,-78 163.397,-73.8179 169.591,-70.317 175.975,-67.3994"/>
<polygon fill="midnightblue" stroke="midnightblue" points="69.6963,-192.084 68.6136,-202.624 76.0324,-195.06 69.6963,-192.084"/>
</g>
<!-- Node17 -->
<g id="node17" class="node"><title>Node17</title>
<g id="a_node17"><a xlink:href="classtrippingcyril_1_1_trigger_event.html" target="_top" xlink:title="trippingcyril::TriggerEvent">
<polygon fill="none" stroke="black" points="161,-0.5 161,-19.5 289,-19.5 289,-0.5 161,-0.5"/>
<text text-anchor="middle" x="225" y="-7.5" font-family="Helvetica,sans-Serif" font-size="10.00">trippingcyril::TriggerEvent</text>
</a>
</g>
</g>
<!-- Node1&#45;&gt;Node17 -->
<g id="edge16" class="edge"><title>Node1&#45;&gt;Node17</title>
<path fill="none" stroke="midnightblue" d="M67.7906,-193.042C78.4959,-152.521 105.262,-72.5763 158,-29 162.688,-25.1265 168.127,-22.0423 173.833,-19.5867"/>
<polygon fill="midnightblue" stroke="midnightblue" points="64.3546,-192.354 65.2984,-202.906 71.1413,-194.068 64.3546,-192.354"/>
</g>
<!-- Node3 -->
<g id="node3" class="node"><title>Node3</title>
<g id="a_node3"><a xlink:href="classtrippingcyril_1_1database_1_1postgres_1_1_blocking_post_gres.html" target="_top" xlink:title="A blocking postgresql implementation of the Database interface. ">
<polygon fill="none" stroke="black" points="328.5,-445 328.5,-475 473.5,-475 473.5,-445 328.5,-445"/>
<text text-anchor="start" x="336.5" y="-463" font-family="Helvetica,sans-Serif" font-size="10.00">trippingcyril::database</text>
<text text-anchor="middle" x="401" y="-452" font-family="Helvetica,sans-Serif" font-size="10.00">::postgres::BlockingPostGres</text>
</a>
</g>
</g>
<!-- Node2&#45;&gt;Node3 -->
<g id="edge2" class="edge"><title>Node2&#45;&gt;Node3</title>
<path fill="none" stroke="midnightblue" d="M291.11,-444.981C303.279,-446.659 316.059,-448.422 328.411,-450.126"/>
<polygon fill="midnightblue" stroke="midnightblue" points="291.439,-441.493 281.055,-443.594 290.483,-448.427 291.439,-441.493"/>
</g>
<!-- Node4 -->
<g id="node4" class="node"><title>Node4</title>
<g id="a_node4"><a xlink:href="classtrippingcyril_1_1database_1_1postgres_1_1_post_gres.html" target="_top" xlink:title="A non blocking postgresql implementation of the Database interface. ">
<polygon fill="none" stroke="black" points="345,-396 345,-426 457,-426 457,-396 345,-396"/>
<text text-anchor="start" x="353" y="-414" font-family="Helvetica,sans-Serif" font-size="10.00">trippingcyril::database</text>
<text text-anchor="middle" x="401" y="-403" font-family="Helvetica,sans-Serif" font-size="10.00">::postgres::PostGres</text>
</a>
</g>
</g>
<!-- Node2&#45;&gt;Node4 -->
<g id="edge3" class="edge"><title>Node2&#45;&gt;Node4</title>
<path fill="none" stroke="midnightblue" d="M291.246,-426.626C308.843,-424.097 327.71,-421.387 344.706,-418.945"/>
<polygon fill="midnightblue" stroke="midnightblue" points="290.455,-423.203 281.055,-428.09 291.451,-430.132 290.455,-423.203"/>
</g>
<!-- Node9 -->
<g id="node9" class="node"><title>Node9</title>
<g id="a_node9"><a xlink:href="classtrippingcyril_1_1net_1_1http_1_1_simple_h_t_t_p_socket.html" target="_top" xlink:title="A simple http client. ">
<polygon fill="none" stroke="black" points="335,-225 335,-255 467,-255 467,-225 335,-225"/>
<text text-anchor="start" x="343" y="-243" font-family="Helvetica,sans-Serif" font-size="10.00">trippingcyril::net</text>
<text text-anchor="middle" x="401" y="-232" font-family="Helvetica,sans-Serif" font-size="10.00">::http::SimpleHTTPSocket</text>
</a>
</g>
</g>
<!-- Node8&#45;&gt;Node9 -->
<g id="edge8" class="edge"><title>Node8&#45;&gt;Node9</title>
<path fill="none" stroke="midnightblue" d="M278.296,-240C296.08,-240 316.177,-240 334.841,-240"/>
<polygon fill="midnightblue" stroke="midnightblue" points="278.121,-236.5 268.121,-240 278.121,-243.5 278.121,-236.5"/>
</g>
<!-- Node12 -->
<g id="node12" class="node"><title>Node12</title>
<g id="a_node12"><a xlink:href="classtrippingcyril_1_1_module_thread.html" target="_top" xlink:title="trippingcyril::ModuleThread">
<polygon fill="none" stroke="black" points="334,-164.5 334,-183.5 468,-183.5 468,-164.5 334,-164.5"/>
<text text-anchor="middle" x="401" y="-171.5" font-family="Helvetica,sans-Serif" font-size="10.00">trippingcyril::ModuleThread</text>
</a>
</g>
</g>
<!-- Node11&#45;&gt;Node12 -->
<g id="edge11" class="edge"><title>Node11&#45;&gt;Node12</title>
<path fill="none" stroke="midnightblue" d="M285.039,-159.465C300.757,-161.452 317.837,-163.612 333.906,-165.643"/>
<polygon fill="midnightblue" stroke="midnightblue" points="285.292,-155.969 274.932,-158.187 284.414,-162.914 285.292,-155.969"/>
</g>
<!-- Node13 -->
<g id="node13" class="node"><title>Node13</title>
<g id="a_node13"><a xlink:href="classtrippingcyril_1_1thread_1_1_job_thread.html" target="_top" xlink:title="A job queue that will run your jobs on a seperate thread. ">
<polygon fill="none" stroke="black" points="351.5,-115 351.5,-145 450.5,-145 450.5,-115 351.5,-115"/>
<text text-anchor="start" x="359.5" y="-133" font-family="Helvetica,sans-Serif" font-size="10.00">trippingcyril::thread</text>
<text text-anchor="middle" x="401" y="-122" font-family="Helvetica,sans-Serif" font-size="10.00">::JobThread</text>
</a>
</g>
</g>
<!-- Node11&#45;&gt;Node13 -->
<g id="edge12" class="edge"><title>Node11&#45;&gt;Node13</title>
<path fill="none" stroke="midnightblue" d="M284.988,-144.542C306.614,-141.807 330.826,-138.746 351.436,-136.14"/>
<polygon fill="midnightblue" stroke="midnightblue" points="284.414,-141.086 274.932,-145.813 285.292,-148.031 284.414,-141.086"/>
</g>
<!-- Node16 -->
<g id="node16" class="node"><title>Node16</title>
<g id="a_node16"><a xlink:href="classtrippingcyril_1_1timing_1_1_lamdba_timer.html" target="_top" xlink:title="trippingcyril::timing\l::LamdbaTimer">
<polygon fill="none" stroke="black" points="352,-39 352,-69 450,-69 450,-39 352,-39"/>
<text text-anchor="start" x="360" y="-57" font-family="Helvetica,sans-Serif" font-size="10.00">trippingcyril::timing</text>
<text text-anchor="middle" x="401" y="-46" font-family="Helvetica,sans-Serif" font-size="10.00">::LamdbaTimer</text>
</a>
</g>
</g>
<!-- Node15&#45;&gt;Node16 -->
<g id="edge15" class="edge"><title>Node15&#45;&gt;Node16</title>
<path fill="none" stroke="midnightblue" d="M284.21,-54C306.176,-54 330.902,-54 351.848,-54"/>
<polygon fill="midnightblue" stroke="midnightblue" points="284.007,-50.5001 274.007,-54 284.007,-57.5001 284.007,-50.5001"/>
</g>
</g>
</svg>
