<?xml version="1.0" encoding="UTF-8" standalone="no"?>
<!DOCTYPE svg PUBLIC "-//W3C//DTD SVG 1.1//EN"
 "http://www.w3.org/Graphics/SVG/1.1/DTD/svg11.dtd">
<!-- Generated by graphviz version 2.34.0 (20140110.0949)
 -->
<!-- Title: trippingcyril::GZipDecompressor Pages: 1 -->
<svg width="164pt" height="212pt"
 viewBox="0.00 0.00 164.00 212.00" xmlns="http://www.w3.org/2000/svg" xmlns:xlink="http://www.w3.org/1999/xlink">
<g id="graph0" class="graph" transform="scale(1 1) rotate(0) translate(4 208)">
<title>trippingcyril::GZipDecompressor</title>
<!-- Node1 -->
<g id="node1" class="node"><title>Node1</title>
<polygon fill="#bfbfbf" stroke="black" points="-0.5,-0.5 -0.5,-19.5 156.5,-19.5 156.5,-0.5 -0.5,-0.5"/>
<text text-anchor="middle" x="78" y="-7.5" font-family="Helvetica,sans-Serif" font-size="10.00">trippingcyril::GZipDecompressor</text>
</g>
<!-- Node2 -->
<g id="node2" class="node"><title>Node2</title>
<g id="a_node2"><a xlink:href="classtrippingcyril_1_1_decompressor.html" target="_top" xlink:title="Abstract decompressor. ">
<polygon fill="none" stroke="black" points="10,-58.5 10,-77.5 146,-77.5 146,-58.5 10,-58.5"/>
<text text-anchor="middle" x="78" y="-65.5" font-family="Helvetica,sans-Serif" font-size="10.00">trippingcyril::Decompressor</text>
</a>
</g>
</g>
<!-- Node2&#45;&gt;Node1 -->
<g id="edge1" class="edge"><title>Node2&#45;&gt;Node1</title>
<path fill="none" stroke="midnightblue" d="M78,-47.953C78,-38.2875 78,-27.0312 78,-19.5052"/>
<polygon fill="midnightblue" stroke="midnightblue" points="74.5001,-48.25 78,-58.25 81.5001,-48.25 74.5001,-48.25"/>
</g>
<!-- Node3 -->
<g id="node3" class="node"><title>Node3</title>
<g id="a_node3"><a xlink:href="classtrippingcyril_1_1_writer.html" target="_top" xlink:title="Writer class to provide a general writing operation so it&#39;s easier to write wrapper classes for write...">
<polygon fill="none" stroke="black" points="29,-126.5 29,-145.5 127,-145.5 127,-126.5 29,-126.5"/>
<text text-anchor="middle" x="78" y="-133.5" font-family="Helvetica,sans-Serif" font-size="10.00">trippingcyril::Writer</text>
</a>
</g>
</g>
<!-- Node3&#45;&gt;Node2 -->
<g id="edge2" class="edge"><title>Node3&#45;&gt;Node2</title>
<path fill="none" stroke="midnightblue" d="M76.4399,-116.382C76.2572,-113.575 76.1003,-110.713 76,-108 75.6141,-97.5663 76.4162,-85.5725 77.1167,-77.6712"/>
<polygon fill="midnightblue" stroke="midnightblue" points="72.9607,-116.791 77.2083,-126.497 79.9406,-116.26 72.9607,-116.791"/>
</g>
<!-- Node3&#45;&gt;Node2 -->
<g id="edge4" class="edge"><title>Node3&#45;&gt;Node2</title>
<path fill="none" stroke="#9a32cd" stroke-dasharray="5,2" d="M78,-116.041C78,-103.472 78,-87.5631 78,-77.8411"/>
<polygon fill="#9a32cd" stroke="#9a32cd" points="74.5001,-116.372 78,-126.372 81.5001,-116.372 74.5001,-116.372"/>
<text text-anchor="middle" x="94.5" y="-99.5" font-family="Helvetica,sans-Serif" font-size="10.00"> _writer</text>
</g>
<!-- Node4 -->
<g id="node4" class="node"><title>Node4</title>
<g id="a_node4"><a xlink:href="classtrippingcyril_1_1_should_delete.html" target="_top" xlink:title="A simple interface to determine if the object should be deleted or not. ">
<polygon fill="none" stroke="black" points="12.5,-184.5 12.5,-203.5 143.5,-203.5 143.5,-184.5 12.5,-184.5"/>
<text text-anchor="middle" x="78" y="-191.5" font-family="Helvetica,sans-Serif" font-size="10.00">trippingcyril::ShouldDelete</text>
</a>
</g>
</g>
<!-- Node4&#45;&gt;Node3 -->
<g id="edge3" class="edge"><title>Node4&#45;&gt;Node3</title>
<path fill="none" stroke="midnightblue" d="M78,-173.953C78,-164.287 78,-153.031 78,-145.505"/>
<polygon fill="midnightblue" stroke="midnightblue" points="74.5001,-174.25 78,-184.25 81.5001,-174.25 74.5001,-174.25"/>
</g>
</g>
</svg>
