<?xml version="1.0" encoding="UTF-8" standalone="no"?>
<!DOCTYPE svg PUBLIC "-//W3C//DTD SVG 1.1//EN"
 "http://www.w3.org/Graphics/SVG/1.1/DTD/svg11.dtd">
<!-- Generated by graphviz version 2.34.0 (20140110.0949)
 -->
<!-- Title: trippingcyril::GZipCompressor Pages: 1 -->
<svg width="154pt" height="212pt"
 viewBox="0.00 0.00 154.00 212.00" xmlns="http://www.w3.org/2000/svg" xmlns:xlink="http://www.w3.org/1999/xlink">
<g id="graph0" class="graph" transform="scale(1 1) rotate(0) translate(4 208)">
<title>trippingcyril::GZipCompressor</title>
<!-- Node1 -->
<g id="node1" class="node"><title>Node1</title>
<polygon fill="#bfbfbf" stroke="black" points="0,-0.5 0,-19.5 146,-19.5 146,-0.5 0,-0.5"/>
<text text-anchor="middle" x="73" y="-7.5" font-family="Helvetica,sans-Serif" font-size="10.00">trippingcyril::GZipCompressor</text>
</g>
<!-- Node2 -->
<g id="node2" class="node"><title>Node2</title>
<g id="a_node2"><a xlink:href="classtrippingcyril_1_1_compressor.html" target="_top" xlink:title="Abstract compressor. ">
<polygon fill="none" stroke="black" points="10.5,-58.5 10.5,-77.5 135.5,-77.5 135.5,-58.5 10.5,-58.5"/>
<text text-anchor="middle" x="73" y="-65.5" font-family="Helvetica,sans-Serif" font-size="10.00">trippingcyril::Compressor</text>
</a>
</g>
</g>
<!-- Node2&#45;&gt;Node1 -->
<g id="edge1" class="edge"><title>Node2&#45;&gt;Node1</title>
<path fill="none" stroke="midnightblue" d="M73,-47.953C73,-38.2875 73,-27.0312 73,-19.5052"/>
<polygon fill="midnightblue" stroke="midnightblue" points="69.5001,-48.25 73,-58.25 76.5001,-48.25 69.5001,-48.25"/>
</g>
<!-- Node3 -->
<g id="node3" class="node"><title>Node3</title>
<g id="a_node3"><a xlink:href="classtrippingcyril_1_1_writer.html" target="_top" xlink:title="Writer class to provide a general writing operation so it&#39;s easier to write wrapper classes for write...">
<polygon fill="none" stroke="black" points="24,-126.5 24,-145.5 122,-145.5 122,-126.5 24,-126.5"/>
<text text-anchor="middle" x="73" y="-133.5" font-family="Helvetica,sans-Serif" font-size="10.00">trippingcyril::Writer</text>
</a>
</g>
</g>
<!-- Node3&#45;&gt;Node2 -->
<g id="edge2" class="edge"><title>Node3&#45;&gt;Node2</title>
<path fill="none" stroke="midnightblue" d="M71.4399,-116.382C71.2572,-113.575 71.1003,-110.713 71,-108 70.6141,-97.5663 71.4162,-85.5725 72.1167,-77.6712"/>
<polygon fill="midnightblue" stroke="midnightblue" points="67.9607,-116.791 72.2083,-126.497 74.9406,-116.26 67.9607,-116.791"/>
</g>
<!-- Node3&#45;&gt;Node2 -->
<g id="edge4" class="edge"><title>Node3&#45;&gt;Node2</title>
<path fill="none" stroke="#9a32cd" stroke-dasharray="5,2" d="M73,-116.041C73,-103.472 73,-87.5631 73,-77.8411"/>
<polygon fill="#9a32cd" stroke="#9a32cd" points="69.5001,-116.372 73,-126.372 76.5001,-116.372 69.5001,-116.372"/>
<text text-anchor="middle" x="89.5" y="-99.5" font-family="Helvetica,sans-Serif" font-size="10.00"> _writer</text>
</g>
<!-- Node4 -->
<g id="node4" class="node"><title>Node4</title>
<g id="a_node4"><a xlink:href="classtrippingcyril_1_1_should_delete.html" target="_top" xlink:title="A simple interface to determine if the object should be deleted or not. ">
<polygon fill="none" stroke="black" points="7.5,-184.5 7.5,-203.5 138.5,-203.5 138.5,-184.5 7.5,-184.5"/>
<text text-anchor="middle" x="73" y="-191.5" font-family="Helvetica,sans-Serif" font-size="10.00">trippingcyril::ShouldDelete</text>
</a>
</g>
</g>
<!-- Node4&#45;&gt;Node3 -->
<g id="edge3" class="edge"><title>Node4&#45;&gt;Node3</title>
<path fill="none" stroke="midnightblue" d="M73,-173.953C73,-164.287 73,-153.031 73,-145.505"/>
<polygon fill="midnightblue" stroke="midnightblue" points="69.5001,-174.25 73,-184.25 76.5001,-174.25 69.5001,-174.25"/>
</g>
</g>
</svg>
