<?xml version="1.0" encoding="UTF-8" standalone="no"?>
<!DOCTYPE svg PUBLIC "-//W3C//DTD SVG 1.1//EN"
 "http://www.w3.org/Graphics/SVG/1.1/DTD/svg11.dtd">
<!-- Generated by graphviz version 2.34.0 (20140110.0949)
 -->
<!-- Title: trippingcyril::database::postgres::BlockingPostGres Pages: 1 -->
<svg width="152pt" height="248pt"
 viewBox="0.00 0.00 152.00 248.00" xmlns="http://www.w3.org/2000/svg" xmlns:xlink="http://www.w3.org/1999/xlink">
<g id="graph0" class="graph" transform="scale(1 1) rotate(0) translate(4 244)">
<title>trippingcyril::database::postgres::BlockingPostGres</title>
<!-- Node1 -->
<g id="node1" class="node"><title>Node1</title>
<polygon fill="#bfbfbf" stroke="black" points="-0.5,-1 -0.5,-31 144.5,-31 144.5,-1 -0.5,-1"/>
<text text-anchor="start" x="7.5" y="-19" font-family="Helvetica,sans-Serif" font-size="10.00">trippingcyril::database</text>
<text text-anchor="middle" x="72" y="-8" font-family="Helvetica,sans-Serif" font-size="10.00">::postgres::BlockingPostGres</text>
</g>
<!-- Node2 -->
<g id="node2" class="node"><title>Node2</title>
<g id="a_node2"><a xlink:href="classtrippingcyril_1_1database_1_1_database.html" target="_top" xlink:title="Database interface. ">
<polygon fill="none" stroke="black" points="16,-71 16,-101 128,-101 128,-71 16,-71"/>
<text text-anchor="start" x="24" y="-89" font-family="Helvetica,sans-Serif" font-size="10.00">trippingcyril::database</text>
<text text-anchor="middle" x="72" y="-78" font-family="Helvetica,sans-Serif" font-size="10.00">::Database</text>
</a>
</g>
</g>
<!-- Node2&#45;&gt;Node1 -->
<g id="edge1" class="edge"><title>Node2&#45;&gt;Node1</title>
<path fill="none" stroke="midnightblue" d="M72,-60.7688C72,-50.8141 72,-39.6384 72,-31.0716"/>
<polygon fill="midnightblue" stroke="midnightblue" points="68.5001,-60.9103 72,-70.9104 75.5001,-60.9104 68.5001,-60.9103"/>
</g>
<!-- Node3 -->
<g id="node3" class="node"><title>Node3</title>
<g id="a_node3"><a xlink:href="classtrippingcyril_1_1trippingcyril_1_1_event.html" target="_top" xlink:title="Event class to automatically register and unregister event driven classes with modules, simply implement this from any event driven class. ">
<polygon fill="none" stroke="black" points="11,-141 11,-171 133,-171 133,-141 11,-141"/>
<text text-anchor="start" x="19" y="-159" font-family="Helvetica,sans-Serif" font-size="10.00">trippingcyril::trippingcyril</text>
<text text-anchor="middle" x="72" y="-148" font-family="Helvetica,sans-Serif" font-size="10.00">::Event</text>
</a>
</g>
</g>
<!-- Node3&#45;&gt;Node2 -->
<g id="edge2" class="edge"><title>Node3&#45;&gt;Node2</title>
<path fill="none" stroke="midnightblue" d="M72,-130.769C72,-120.814 72,-109.638 72,-101.072"/>
<polygon fill="midnightblue" stroke="midnightblue" points="68.5001,-130.91 72,-140.91 75.5001,-130.91 68.5001,-130.91"/>
</g>
<!-- Node4 -->
<g id="node4" class="node"><title>Node4</title>
<g id="a_node4"><a xlink:href="classtrippingcyril_1_1_module.html" target="_top" xlink:title="Base class for modules. ">
<polygon fill="none" stroke="black" points="20,-220.5 20,-239.5 124,-239.5 124,-220.5 20,-220.5"/>
<text text-anchor="middle" x="72" y="-227.5" font-family="Helvetica,sans-Serif" font-size="10.00">trippingcyril::Module</text>
</a>
</g>
</g>
<!-- Node4&#45;&gt;Node3 -->
<g id="edge3" class="edge"><title>Node4&#45;&gt;Node3</title>
<path fill="none" stroke="#9a32cd" stroke-dasharray="5,2" d="M72,-210.085C72,-197.915 72,-182.354 72,-171.232"/>
<polygon fill="#9a32cd" stroke="#9a32cd" points="68.5001,-210.458 72,-220.458 75.5001,-210.458 68.5001,-210.458"/>
<text text-anchor="middle" x="89.5" y="-193.5" font-family="Helvetica,sans-Serif" font-size="10.00"> module</text>
</g>
</g>
</svg>
