<?xml version="1.0" encoding="UTF-8" standalone="no"?>
<!DOCTYPE svg PUBLIC "-//W3C//DTD SVG 1.1//EN"
 "http://www.w3.org/Graphics/SVG/1.1/DTD/svg11.dtd">
<!-- Generated by graphviz version 2.34.0 (20140110.0949)
 -->
<!-- Title: trippingcyril::log::Logger Pages: 1 -->
<svg width="195pt" height="108pt"
 viewBox="0.00 0.00 195.00 108.00" xmlns="http://www.w3.org/2000/svg" xmlns:xlink="http://www.w3.org/1999/xlink">
<g id="graph0" class="graph" transform="scale(1 1) rotate(0) translate(4 104)">
<title>trippingcyril::log::Logger</title>
<!-- Node1 -->
<g id="node1" class="node"><title>Node1</title>
<polygon fill="#bfbfbf" stroke="black" points="50.5,-69 50.5,-99 135.5,-99 135.5,-69 50.5,-69"/>
<text text-anchor="start" x="58.5" y="-87" font-family="Helvetica,sans-Serif" font-size="10.00">trippingcyril::log</text>
<text text-anchor="middle" x="93" y="-76" font-family="Helvetica,sans-Serif" font-size="10.00">::Logger</text>
</g>
<!-- Node2 -->
<g id="node2" class="node"><title>Node2</title>
<g id="a_node2"><a xlink:href="classtrippingcyril_1_1log_1_1_file_logger.html" target="_top" xlink:title="A simple logger implementation which logs into a file. ">
<polygon fill="none" stroke="black" points="-0.5,-1 -0.5,-31 84.5,-31 84.5,-1 -0.5,-1"/>
<text text-anchor="start" x="7.5" y="-19" font-family="Helvetica,sans-Serif" font-size="10.00">trippingcyril::log</text>
<text text-anchor="middle" x="42" y="-8" font-family="Helvetica,sans-Serif" font-size="10.00">::FileLogger</text>
</a>
</g>
</g>
<!-- Node1&#45;&gt;Node2 -->
<g id="edge1" class="edge"><title>Node1&#45;&gt;Node2</title>
<path fill="none" stroke="midnightblue" d="M75.6971,-60.608C68.2051,-50.9125 59.6567,-39.8499 53.0446,-31.2931"/>
<polygon fill="midnightblue" stroke="midnightblue" points="73.0497,-62.9062 81.9338,-68.679 78.5888,-58.626 73.0497,-62.9062"/>
</g>
<!-- Node3 -->
<g id="node3" class="node"><title>Node3</title>
<g id="a_node3"><a xlink:href="classtrippingcyril_1_1log_1_1_sys_logger.html" target="_top" xlink:title="A simple logger implementation which logs using the syslog(3) method. ">
<polygon fill="none" stroke="black" points="102.5,-1 102.5,-31 187.5,-31 187.5,-1 102.5,-1"/>
<text text-anchor="start" x="110.5" y="-19" font-family="Helvetica,sans-Serif" font-size="10.00">trippingcyril::log</text>
<text text-anchor="middle" x="145" y="-8" font-family="Helvetica,sans-Serif" font-size="10.00">::SysLogger</text>
</a>
</g>
</g>
<!-- Node1&#45;&gt;Node3 -->
<g id="edge2" class="edge"><title>Node1&#45;&gt;Node3</title>
<path fill="none" stroke="midnightblue" d="M110.642,-60.608C118.281,-50.9125 126.997,-39.8499 133.739,-31.2931"/>
<polygon fill="midnightblue" stroke="midnightblue" points="107.723,-58.658 104.283,-68.679 113.221,-62.9901 107.723,-58.658"/>
</g>
</g>
</svg>
