<?xml version="1.0" encoding="UTF-8" standalone="no"?>
<!DOCTYPE svg PUBLIC "-//W3C//DTD SVG 1.1//EN"
 "http://www.w3.org/Graphics/SVG/1.1/DTD/svg11.dtd">
<!-- Generated by graphviz version 2.34.0 (20140110.0949)
 -->
<!-- Title: trippingcyril::net::Socket Pages: 1 -->
<svg width="368pt" height="166pt"
 viewBox="0.00 0.00 368.00 166.00" xmlns="http://www.w3.org/2000/svg" xmlns:xlink="http://www.w3.org/1999/xlink">
<g id="graph0" class="graph" transform="scale(1 1) rotate(0) translate(4 162)">
<title>trippingcyril::net::Socket</title>
<!-- Node1 -->
<g id="node1" class="node"><title>Node1</title>
<polygon fill="#bfbfbf" stroke="black" points="140,-1 140,-31 226,-31 226,-1 140,-1"/>
<text text-anchor="start" x="148" y="-19" font-family="Helvetica,sans-Serif" font-size="10.00">trippingcyril::net</text>
<text text-anchor="middle" x="183" y="-8" font-family="Helvetica,sans-Serif" font-size="10.00">::Socket</text>
</g>
<!-- Node2 -->
<g id="node2" class="node"><title>Node2</title>
<g id="a_node2"><a xlink:href="classtrippingcyril_1_1_event.html" target="_top" xlink:title="Event class to automatically register and unregister event driven classes with modules, simply implement this from any event driven class. ">
<polygon fill="none" stroke="black" points="13,-70.5 13,-89.5 111,-89.5 111,-70.5 13,-70.5"/>
<text text-anchor="middle" x="62" y="-77.5" font-family="Helvetica,sans-Serif" font-size="10.00">trippingcyril::Event</text>
</a>
</g>
</g>
<!-- Node2&#45;&gt;Node1 -->
<g id="edge1" class="edge"><title>Node2&#45;&gt;Node1</title>
<path fill="none" stroke="midnightblue" d="M87.9414,-65.7077C107.877,-55.4929 135.344,-41.4187 155.628,-31.0252"/>
<polygon fill="midnightblue" stroke="midnightblue" points="86.1282,-62.704 78.8245,-70.3792 89.3203,-68.9338 86.1282,-62.704"/>
</g>
<!-- Node3 -->
<g id="node3" class="node"><title>Node3</title>
<g id="a_node3"><a xlink:href="classtrippingcyril_1_1_module.html" target="_top" xlink:title="Base class for modules. ">
<polygon fill="none" stroke="black" points="0,-138.5 0,-157.5 104,-157.5 104,-138.5 0,-138.5"/>
<text text-anchor="middle" x="52" y="-145.5" font-family="Helvetica,sans-Serif" font-size="10.00">trippingcyril::Module</text>
</a>
</g>
</g>
<!-- Node3&#45;&gt;Node2 -->
<g id="edge2" class="edge"><title>Node3&#45;&gt;Node2</title>
<path fill="none" stroke="#9a32cd" stroke-dasharray="5,2" d="M54.8144,-128.425C56.7276,-115.798 59.1724,-99.6623 60.6604,-89.8411"/>
<polygon fill="#9a32cd" stroke="#9a32cd" points="51.345,-127.96 53.3073,-138.372 58.266,-129.009 51.345,-127.96"/>
<text text-anchor="middle" x="75.5" y="-111.5" font-family="Helvetica,sans-Serif" font-size="10.00"> module</text>
</g>
<!-- Node4 -->
<g id="node4" class="node"><title>Node4</title>
<g id="a_node4"><a xlink:href="classtrippingcyril_1_1_writer.html" target="_top" xlink:title="Writer class to provide a general writing operation so it&#39;s easier to write wrapper classes for write...">
<polygon fill="none" stroke="black" points="134,-70.5 134,-89.5 232,-89.5 232,-70.5 134,-70.5"/>
<text text-anchor="middle" x="183" y="-77.5" font-family="Helvetica,sans-Serif" font-size="10.00">trippingcyril::Writer</text>
</a>
</g>
</g>
<!-- Node4&#45;&gt;Node1 -->
<g id="edge3" class="edge"><title>Node4&#45;&gt;Node1</title>
<path fill="none" stroke="midnightblue" d="M183,-60.1826C183,-50.8859 183,-39.8507 183,-31.263"/>
<polygon fill="midnightblue" stroke="midnightblue" points="179.5,-60.3791 183,-70.3792 186.5,-60.3792 179.5,-60.3791"/>
</g>
<!-- Node5 -->
<g id="node5" class="node"><title>Node5</title>
<g id="a_node5"><a xlink:href="classtrippingcyril_1_1_should_delete.html" target="_top" xlink:title="A simple interface to determine if the object should be deleted or not. ">
<polygon fill="none" stroke="black" points="122.5,-138.5 122.5,-157.5 253.5,-157.5 253.5,-138.5 122.5,-138.5"/>
<text text-anchor="middle" x="188" y="-145.5" font-family="Helvetica,sans-Serif" font-size="10.00">trippingcyril::ShouldDelete</text>
</a>
</g>
</g>
<!-- Node5&#45;&gt;Node4 -->
<g id="edge4" class="edge"><title>Node5&#45;&gt;Node4</title>
<path fill="none" stroke="midnightblue" d="M186.564,-128.041C185.612,-115.472 184.406,-99.5631 183.67,-89.8411"/>
<polygon fill="midnightblue" stroke="midnightblue" points="183.101,-128.665 187.346,-138.372 190.081,-128.136 183.101,-128.665"/>
</g>
<!-- Node6 -->
<g id="node6" class="node"><title>Node6</title>
<g id="a_node6"><a xlink:href="classtrippingcyril_1_1_closable.html" target="_top" xlink:title="Writer class to provide a general closing operation. ">
<polygon fill="none" stroke="black" points="250,-70.5 250,-89.5 360,-89.5 360,-70.5 250,-70.5"/>
<text text-anchor="middle" x="305" y="-77.5" font-family="Helvetica,sans-Serif" font-size="10.00">trippingcyril::Closable</text>
</a>
</g>
</g>
<!-- Node6&#45;&gt;Node1 -->
<g id="edge5" class="edge"><title>Node6&#45;&gt;Node1</title>
<path fill="none" stroke="midnightblue" d="M279.118,-65.8467C258.996,-55.6209 231.143,-41.466 210.598,-31.0252"/>
<polygon fill="midnightblue" stroke="midnightblue" points="277.536,-68.9688 288.036,-70.3792 280.707,-62.7284 277.536,-68.9688"/>
</g>
</g>
</svg>
