<?xml version="1.0" encoding="UTF-8" standalone="no"?>
<!DOCTYPE svg PUBLIC "-//W3C//DTD SVG 1.1//EN"
 "http://www.w3.org/Graphics/SVG/1.1/DTD/svg11.dtd">
<!-- Generated by graphviz version 2.34.0 (20140110.0949)
 -->
<!-- Title: trippingcyril::Pipe Pages: 1 -->
<svg width="268pt" height="166pt"
 viewBox="0.00 0.00 268.00 166.00" xmlns="http://www.w3.org/2000/svg" xmlns:xlink="http://www.w3.org/1999/xlink">
<g id="graph0" class="graph" transform="scale(1 1) rotate(0) translate(4 162)">
<title>trippingcyril::Pipe</title>
<!-- Node1 -->
<g id="node1" class="node"><title>Node1</title>
<polygon fill="#bfbfbf" stroke="black" points="94,-0.5 94,-19.5 186,-19.5 186,-0.5 94,-0.5"/>
<text text-anchor="middle" x="140" y="-7.5" font-family="Helvetica,sans-Serif" font-size="10.00">trippingcyril::Pipe</text>
</g>
<!-- Node2 -->
<g id="node2" class="node"><title>Node2</title>
<g id="a_node2"><a xlink:href="classtrippingcyril_1_1trippingcyril_1_1_event.html" target="_top" xlink:title="Event class to automatically register and unregister event driven classes with modules, simply implement this from any event driven class. ">
<polygon fill="none" stroke="black" points="0,-59 0,-89 122,-89 122,-59 0,-59"/>
<text text-anchor="start" x="8" y="-77" font-family="Helvetica,sans-Serif" font-size="10.00">trippingcyril::trippingcyril</text>
<text text-anchor="middle" x="61" y="-66" font-family="Helvetica,sans-Serif" font-size="10.00">::Event</text>
</a>
</g>
</g>
<!-- Node2&#45;&gt;Node1 -->
<g id="edge1" class="edge"><title>Node2&#45;&gt;Node1</title>
<path fill="none" stroke="midnightblue" d="M86.8924,-52.6793C101.055,-41.5647 117.876,-28.3634 128.734,-19.8419"/>
<polygon fill="midnightblue" stroke="midnightblue" points="84.6321,-50.0041 78.9263,-58.9312 88.9538,-55.5107 84.6321,-50.0041"/>
</g>
<!-- Node3 -->
<g id="node3" class="node"><title>Node3</title>
<g id="a_node3"><a xlink:href="classtrippingcyril_1_1_module.html" target="_top" xlink:title="Base class for modules. ">
<polygon fill="none" stroke="black" points="7,-138.5 7,-157.5 111,-157.5 111,-138.5 7,-138.5"/>
<text text-anchor="middle" x="59" y="-145.5" font-family="Helvetica,sans-Serif" font-size="10.00">trippingcyril::Module</text>
</a>
</g>
</g>
<!-- Node3&#45;&gt;Node2 -->
<g id="edge2" class="edge"><title>Node3&#45;&gt;Node2</title>
<path fill="none" stroke="#9a32cd" stroke-dasharray="5,2" d="M59.515,-128.46C59.8546,-116.236 60.2925,-100.468 60.6047,-89.2316"/>
<polygon fill="#9a32cd" stroke="#9a32cd" points="56.0164,-128.365 59.2373,-138.458 63.0137,-128.559 56.0164,-128.365"/>
<text text-anchor="middle" x="78.5" y="-111.5" font-family="Helvetica,sans-Serif" font-size="10.00"> module</text>
</g>
<!-- Node4 -->
<g id="node4" class="node"><title>Node4</title>
<g id="a_node4"><a xlink:href="classtrippingcyril_1_1_writer.html" target="_top" xlink:title="Writer class to provide a general writing operation so it&#39;s easier to write wrapper classes for write...">
<polygon fill="none" stroke="black" points="144,-64.5 144,-83.5 242,-83.5 242,-64.5 144,-64.5"/>
<text text-anchor="middle" x="193" y="-71.5" font-family="Helvetica,sans-Serif" font-size="10.00">trippingcyril::Writer</text>
</a>
</g>
</g>
<!-- Node4&#45;&gt;Node1 -->
<g id="edge3" class="edge"><title>Node4&#45;&gt;Node1</title>
<path fill="none" stroke="midnightblue" d="M178.903,-56.5097C168.738,-44.6182 155.428,-29.0483 147.307,-19.5476"/>
<polygon fill="midnightblue" stroke="midnightblue" points="176.472,-59.0522 185.631,-64.3792 181.793,-54.5037 176.472,-59.0522"/>
</g>
<!-- Node5 -->
<g id="node5" class="node"><title>Node5</title>
<g id="a_node5"><a xlink:href="classtrippingcyril_1_1_should_delete.html" target="_top" xlink:title="A simple interface to determine if the object should be deleted or not. ">
<polygon fill="none" stroke="black" points="129.5,-138.5 129.5,-157.5 260.5,-157.5 260.5,-138.5 129.5,-138.5"/>
<text text-anchor="middle" x="195" y="-145.5" font-family="Helvetica,sans-Serif" font-size="10.00">trippingcyril::ShouldDelete</text>
</a>
</g>
</g>
<!-- Node5&#45;&gt;Node4 -->
<g id="edge4" class="edge"><title>Node5&#45;&gt;Node4</title>
<path fill="none" stroke="midnightblue" d="M194.477,-128.156C194.075,-113.712 193.541,-94.4594 193.237,-83.531"/>
<polygon fill="midnightblue" stroke="midnightblue" points="190.986,-128.559 194.763,-138.458 197.984,-128.365 190.986,-128.559"/>
</g>
</g>
</svg>
