<?xml version="1.0" encoding="UTF-8" standalone="no"?>
<!DOCTYPE svg PUBLIC "-//W3C//DTD SVG 1.1//EN"
 "http://www.w3.org/Graphics/SVG/1.1/DTD/svg11.dtd">
<!-- Generated by graphviz version 2.34.0 (20140110.0949)
 -->
<!-- Title: trippingcyril::TempFile Pages: 1 -->
<svg width="250pt" height="196pt"
 viewBox="0.00 0.00 250.00 196.00" xmlns="http://www.w3.org/2000/svg" xmlns:xlink="http://www.w3.org/1999/xlink">
<g id="graph0" class="graph" transform="scale(1 1) rotate(0) translate(4 192)">
<title>trippingcyril::TempFile</title>
<!-- Node1 -->
<g id="node1" class="node"><title>Node1</title>
<polygon fill="#bfbfbf" stroke="black" points="69.5,-0.5 69.5,-19.5 182.5,-19.5 182.5,-0.5 69.5,-0.5"/>
<text text-anchor="middle" x="126" y="-7.5" font-family="Helvetica,sans-Serif" font-size="10.00">trippingcyril::TempFile</text>
</g>
<!-- Node2 -->
<g id="node2" class="node"><title>Node2</title>
<g id="a_node2"><a xlink:href="classtrippingcyril_1_1_file.html" target="_top" xlink:title="A general file access class. ">
<polygon fill="none" stroke="black" points="82,-56.5 82,-75.5 170,-75.5 170,-56.5 82,-56.5"/>
<text text-anchor="middle" x="126" y="-63.5" font-family="Helvetica,sans-Serif" font-size="10.00">trippingcyril::File</text>
</a>
</g>
</g>
<!-- Node2&#45;&gt;Node1 -->
<g id="edge1" class="edge"><title>Node2&#45;&gt;Node1</title>
<path fill="none" stroke="midnightblue" d="M126,-45.8045C126,-36.9102 126,-26.7798 126,-19.7511"/>
<polygon fill="midnightblue" stroke="midnightblue" points="122.5,-46.083 126,-56.083 129.5,-46.083 122.5,-46.083"/>
</g>
<!-- Node3 -->
<g id="node3" class="node"><title>Node3</title>
<g id="a_node3"><a xlink:href="classtrippingcyril_1_1_writer.html" target="_top" xlink:title="Writer class to provide a general writing operation so it&#39;s easier to write wrapper classes for write...">
<polygon fill="none" stroke="black" points="16,-112.5 16,-131.5 114,-131.5 114,-112.5 16,-112.5"/>
<text text-anchor="middle" x="65" y="-119.5" font-family="Helvetica,sans-Serif" font-size="10.00">trippingcyril::Writer</text>
</a>
</g>
</g>
<!-- Node3&#45;&gt;Node2 -->
<g id="edge2" class="edge"><title>Node3&#45;&gt;Node2</title>
<path fill="none" stroke="midnightblue" d="M82.4672,-105.537C93.3438,-95.9087 106.944,-83.8694 116.021,-75.8339"/>
<polygon fill="midnightblue" stroke="midnightblue" points="79.9684,-103.075 74.8007,-112.324 84.6083,-108.316 79.9684,-103.075"/>
</g>
<!-- Node4 -->
<g id="node4" class="node"><title>Node4</title>
<g id="a_node4"><a xlink:href="classtrippingcyril_1_1_should_delete.html" target="_top" xlink:title="A simple interface to determine if the object should be deleted or not. ">
<polygon fill="none" stroke="black" points="-0.5,-168.5 -0.5,-187.5 130.5,-187.5 130.5,-168.5 -0.5,-168.5"/>
<text text-anchor="middle" x="65" y="-175.5" font-family="Helvetica,sans-Serif" font-size="10.00">trippingcyril::ShouldDelete</text>
</a>
</g>
</g>
<!-- Node4&#45;&gt;Node3 -->
<g id="edge3" class="edge"><title>Node4&#45;&gt;Node3</title>
<path fill="none" stroke="midnightblue" d="M65,-157.805C65,-148.91 65,-138.78 65,-131.751"/>
<polygon fill="midnightblue" stroke="midnightblue" points="61.5001,-158.083 65,-168.083 68.5001,-158.083 61.5001,-158.083"/>
</g>
<!-- Node5 -->
<g id="node5" class="node"><title>Node5</title>
<g id="a_node5"><a xlink:href="classtrippingcyril_1_1_closable.html" target="_top" xlink:title="Writer class to provide a general closing operation. ">
<polygon fill="none" stroke="black" points="132,-112.5 132,-131.5 242,-131.5 242,-112.5 132,-112.5"/>
<text text-anchor="middle" x="187" y="-119.5" font-family="Helvetica,sans-Serif" font-size="10.00">trippingcyril::Closable</text>
</a>
</g>
</g>
<!-- Node5&#45;&gt;Node2 -->
<g id="edge4" class="edge"><title>Node5&#45;&gt;Node2</title>
<path fill="none" stroke="midnightblue" d="M169.533,-105.537C158.656,-95.9087 145.056,-83.8694 135.979,-75.8339"/>
<polygon fill="midnightblue" stroke="midnightblue" points="167.392,-108.316 177.199,-112.324 172.032,-103.075 167.392,-108.316"/>
</g>
</g>
</svg>
