<?xml version="1.0" encoding="UTF-8" standalone="no"?>
<!DOCTYPE svg PUBLIC "-//W3C//DTD SVG 1.1//EN"
 "http://www.w3.org/Graphics/SVG/1.1/DTD/svg11.dtd">
<!-- Generated by graphviz version 2.34.0 (20140110.0949)
 -->
<!-- Title: trippingcyril::thread::JobThread Pages: 1 -->
<svg width="130pt" height="248pt"
 viewBox="0.00 0.00 130.00 248.00" xmlns="http://www.w3.org/2000/svg" xmlns:xlink="http://www.w3.org/1999/xlink">
<g id="graph0" class="graph" transform="scale(1 1) rotate(0) translate(4 244)">
<title>trippingcyril::thread::JobThread</title>
<!-- Node1 -->
<g id="node1" class="node"><title>Node1</title>
<polygon fill="#bfbfbf" stroke="black" points="11.5,-1 11.5,-31 110.5,-31 110.5,-1 11.5,-1"/>
<text text-anchor="start" x="19.5" y="-19" font-family="Helvetica,sans-Serif" font-size="10.00">trippingcyril::thread</text>
<text text-anchor="middle" x="61" y="-8" font-family="Helvetica,sans-Serif" font-size="10.00">::JobThread</text>
</g>
<!-- Node2 -->
<g id="node2" class="node"><title>Node2</title>
<g id="a_node2"><a xlink:href="classtrippingcyril_1_1thread_1_1_thread.html" target="_top" xlink:title="Simple thread class. ">
<polygon fill="none" stroke="black" points="11.5,-71 11.5,-101 110.5,-101 110.5,-71 11.5,-71"/>
<text text-anchor="start" x="19.5" y="-89" font-family="Helvetica,sans-Serif" font-size="10.00">trippingcyril::thread</text>
<text text-anchor="middle" x="61" y="-78" font-family="Helvetica,sans-Serif" font-size="10.00">::Thread</text>
</a>
</g>
</g>
<!-- Node2&#45;&gt;Node1 -->
<g id="edge1" class="edge"><title>Node2&#45;&gt;Node1</title>
<path fill="none" stroke="midnightblue" d="M61,-60.7688C61,-50.8141 61,-39.6384 61,-31.0716"/>
<polygon fill="midnightblue" stroke="midnightblue" points="57.5001,-60.9103 61,-70.9104 64.5001,-60.9104 57.5001,-60.9103"/>
</g>
<!-- Node3 -->
<g id="node3" class="node"><title>Node3</title>
<g id="a_node3"><a xlink:href="classtrippingcyril_1_1trippingcyril_1_1_event.html" target="_top" xlink:title="Event class to automatically register and unregister event driven classes with modules, simply implement this from any event driven class. ">
<polygon fill="none" stroke="black" points="0,-141 0,-171 122,-171 122,-141 0,-141"/>
<text text-anchor="start" x="8" y="-159" font-family="Helvetica,sans-Serif" font-size="10.00">trippingcyril::trippingcyril</text>
<text text-anchor="middle" x="61" y="-148" font-family="Helvetica,sans-Serif" font-size="10.00">::Event</text>
</a>
</g>
</g>
<!-- Node3&#45;&gt;Node2 -->
<g id="edge2" class="edge"><title>Node3&#45;&gt;Node2</title>
<path fill="none" stroke="midnightblue" d="M61,-130.769C61,-120.814 61,-109.638 61,-101.072"/>
<polygon fill="midnightblue" stroke="midnightblue" points="57.5001,-130.91 61,-140.91 64.5001,-130.91 57.5001,-130.91"/>
</g>
<!-- Node4 -->
<g id="node4" class="node"><title>Node4</title>
<g id="a_node4"><a xlink:href="classtrippingcyril_1_1_module.html" target="_top" xlink:title="Base class for modules. ">
<polygon fill="none" stroke="black" points="9,-220.5 9,-239.5 113,-239.5 113,-220.5 9,-220.5"/>
<text text-anchor="middle" x="61" y="-227.5" font-family="Helvetica,sans-Serif" font-size="10.00">trippingcyril::Module</text>
</a>
</g>
</g>
<!-- Node4&#45;&gt;Node3 -->
<g id="edge3" class="edge"><title>Node4&#45;&gt;Node3</title>
<path fill="none" stroke="#9a32cd" stroke-dasharray="5,2" d="M61,-210.085C61,-197.915 61,-182.354 61,-171.232"/>
<polygon fill="#9a32cd" stroke="#9a32cd" points="57.5001,-210.458 61,-220.458 64.5001,-210.458 57.5001,-210.458"/>
<text text-anchor="middle" x="78.5" y="-193.5" font-family="Helvetica,sans-Serif" font-size="10.00"> module</text>
</g>
</g>
</svg>
