<?xml version="1.0" encoding="UTF-8" standalone="no"?>
<!DOCTYPE svg PUBLIC "-//W3C//DTD SVG 1.1//EN"
 "http://www.w3.org/Graphics/SVG/1.1/DTD/svg11.dtd">
<!-- Generated by graphviz version 2.34.0 (20140110.0949)
 -->
<!-- Title: trippingcyril::timing::Timer Pages: 1 -->
<svg width="130pt" height="176pt"
 viewBox="0.00 0.00 130.00 176.00" xmlns="http://www.w3.org/2000/svg" xmlns:xlink="http://www.w3.org/1999/xlink">
<g id="graph0" class="graph" transform="scale(1 1) rotate(0) translate(4 172)">
<title>trippingcyril::timing::Timer</title>
<!-- Node1 -->
<g id="node1" class="node"><title>Node1</title>
<polygon fill="#bfbfbf" stroke="black" points="12,-69 12,-99 110,-99 110,-69 12,-69"/>
<text text-anchor="start" x="20" y="-87" font-family="Helvetica,sans-Serif" font-size="10.00">trippingcyril::timing</text>
<text text-anchor="middle" x="61" y="-76" font-family="Helvetica,sans-Serif" font-size="10.00">::Timer</text>
</g>
<!-- Node3 -->
<g id="node3" class="node"><title>Node3</title>
<g id="a_node3"><a xlink:href="classtrippingcyril_1_1timing_1_1_lamdba_timer.html" target="_top" xlink:title="trippingcyril::timing\l::LamdbaTimer">
<polygon fill="none" stroke="black" points="12,-1 12,-31 110,-31 110,-1 12,-1"/>
<text text-anchor="start" x="20" y="-19" font-family="Helvetica,sans-Serif" font-size="10.00">trippingcyril::timing</text>
<text text-anchor="middle" x="61" y="-8" font-family="Helvetica,sans-Serif" font-size="10.00">::LamdbaTimer</text>
</a>
</g>
</g>
<!-- Node1&#45;&gt;Node3 -->
<g id="edge2" class="edge"><title>Node1&#45;&gt;Node3</title>
<path fill="none" stroke="midnightblue" d="M61,-58.5322C61,-49.3606 61,-39.2449 61,-31.2931"/>
<polygon fill="midnightblue" stroke="midnightblue" points="57.5001,-58.6789 61,-68.679 64.5001,-58.679 57.5001,-58.6789"/>
</g>
<!-- Node2 -->
<g id="node2" class="node"><title>Node2</title>
<g id="a_node2"><a xlink:href="classtrippingcyril_1_1trippingcyril_1_1_event.html" target="_top" xlink:title="Event class to automatically register and unregister event driven classes with modules, simply implement this from any event driven class. ">
<polygon fill="none" stroke="black" points="0,-137 0,-167 122,-167 122,-137 0,-137"/>
<text text-anchor="start" x="8" y="-155" font-family="Helvetica,sans-Serif" font-size="10.00">trippingcyril::trippingcyril</text>
<text text-anchor="middle" x="61" y="-144" font-family="Helvetica,sans-Serif" font-size="10.00">::Event</text>
</a>
</g>
</g>
<!-- Node2&#45;&gt;Node1 -->
<g id="edge1" class="edge"><title>Node2&#45;&gt;Node1</title>
<path fill="none" stroke="midnightblue" d="M61,-126.532C61,-117.361 61,-107.245 61,-99.2931"/>
<polygon fill="midnightblue" stroke="midnightblue" points="57.5001,-126.679 61,-136.679 64.5001,-126.679 57.5001,-126.679"/>
</g>
</g>
</svg>
