<?xml version="1.0" encoding="UTF-8" standalone="no"?>
<!DOCTYPE svg PUBLIC "-//W3C//DTD SVG 1.1//EN"
 "http://www.w3.org/Graphics/SVG/1.1/DTD/svg11.dtd">
<!-- Generated by graphviz version 2.34.0 (20140110.0949)
 -->
<!-- Title: trippingcyril::net::Socket Pages: 1 -->
<svg width="374pt" height="232pt"
 viewBox="0.00 0.00 374.00 232.00" xmlns="http://www.w3.org/2000/svg" xmlns:xlink="http://www.w3.org/1999/xlink">
<g id="graph0" class="graph" transform="scale(1 1) rotate(0) translate(4 228)">
<title>trippingcyril::net::Socket</title>
<!-- Node1 -->
<g id="node1" class="node"><title>Node1</title>
<polygon fill="#bfbfbf" stroke="black" points="146,-69 146,-99 232,-99 232,-69 146,-69"/>
<text text-anchor="start" x="154" y="-87" font-family="Helvetica,sans-Serif" font-size="10.00">trippingcyril::net</text>
<text text-anchor="middle" x="189" y="-76" font-family="Helvetica,sans-Serif" font-size="10.00">::Socket</text>
</g>
<!-- Node6 -->
<g id="node6" class="node"><title>Node6</title>
<g id="a_node6"><a xlink:href="classtrippingcyril_1_1net_1_1http_1_1_simple_h_t_t_p_socket.html" target="_top" xlink:title="A simple http client. ">
<polygon fill="none" stroke="black" points="123,-1 123,-31 255,-31 255,-1 123,-1"/>
<text text-anchor="start" x="131" y="-19" font-family="Helvetica,sans-Serif" font-size="10.00">trippingcyril::net</text>
<text text-anchor="middle" x="189" y="-8" font-family="Helvetica,sans-Serif" font-size="10.00">::http::SimpleHTTPSocket</text>
</a>
</g>
</g>
<!-- Node1&#45;&gt;Node6 -->
<g id="edge5" class="edge"><title>Node1&#45;&gt;Node6</title>
<path fill="none" stroke="midnightblue" d="M189,-58.5322C189,-49.3606 189,-39.2449 189,-31.2931"/>
<polygon fill="midnightblue" stroke="midnightblue" points="185.5,-58.6789 189,-68.679 192.5,-58.679 185.5,-58.6789"/>
</g>
<!-- Node2 -->
<g id="node2" class="node"><title>Node2</title>
<g id="a_node2"><a xlink:href="classtrippingcyril_1_1trippingcyril_1_1_event.html" target="_top" xlink:title="Event class to automatically register and unregister event driven classes with modules, simply implement this from any event driven class. ">
<polygon fill="none" stroke="black" points="0,-137 0,-167 122,-167 122,-137 0,-137"/>
<text text-anchor="start" x="8" y="-155" font-family="Helvetica,sans-Serif" font-size="10.00">trippingcyril::trippingcyril</text>
<text text-anchor="middle" x="61" y="-144" font-family="Helvetica,sans-Serif" font-size="10.00">::Event</text>
</a>
</g>
</g>
<!-- Node2&#45;&gt;Node1 -->
<g id="edge1" class="edge"><title>Node2&#45;&gt;Node1</title>
<path fill="none" stroke="midnightblue" d="M97.4668,-132.197C117.863,-121.68 142.868,-108.787 161.586,-99.1352"/>
<polygon fill="midnightblue" stroke="midnightblue" points="95.7432,-129.148 88.4592,-136.841 98.9513,-135.369 95.7432,-129.148"/>
</g>
<!-- Node3 -->
<g id="node3" class="node"><title>Node3</title>
<g id="a_node3"><a xlink:href="classtrippingcyril_1_1_writer.html" target="_top" xlink:title="Writer class to provide a general writing operation so it&#39;s easier to write wrapper classes for write...">
<polygon fill="none" stroke="black" points="140,-142.5 140,-161.5 238,-161.5 238,-142.5 140,-142.5"/>
<text text-anchor="middle" x="189" y="-149.5" font-family="Helvetica,sans-Serif" font-size="10.00">trippingcyril::Writer</text>
</a>
</g>
</g>
<!-- Node3&#45;&gt;Node1 -->
<g id="edge2" class="edge"><title>Node3&#45;&gt;Node1</title>
<path fill="none" stroke="midnightblue" d="M189,-132.174C189,-121.678 189,-108.821 189,-99.1815"/>
<polygon fill="midnightblue" stroke="midnightblue" points="185.5,-132.372 189,-142.372 192.5,-132.372 185.5,-132.372"/>
</g>
<!-- Node4 -->
<g id="node4" class="node"><title>Node4</title>
<g id="a_node4"><a xlink:href="classtrippingcyril_1_1_should_delete.html" target="_top" xlink:title="A simple interface to determine if the object should be deleted or not. ">
<polygon fill="none" stroke="black" points="123.5,-204.5 123.5,-223.5 254.5,-223.5 254.5,-204.5 123.5,-204.5"/>
<text text-anchor="middle" x="189" y="-211.5" font-family="Helvetica,sans-Serif" font-size="10.00">trippingcyril::ShouldDelete</text>
</a>
</g>
</g>
<!-- Node4&#45;&gt;Node3 -->
<g id="edge3" class="edge"><title>Node4&#45;&gt;Node3</title>
<path fill="none" stroke="midnightblue" d="M189,-194.16C189,-183.248 189,-170.04 189,-161.581"/>
<polygon fill="midnightblue" stroke="midnightblue" points="185.5,-194.403 189,-204.403 192.5,-194.403 185.5,-194.403"/>
</g>
<!-- Node5 -->
<g id="node5" class="node"><title>Node5</title>
<g id="a_node5"><a xlink:href="classtrippingcyril_1_1_closable.html" target="_top" xlink:title="Writer class to provide a general closing operation. ">
<polygon fill="none" stroke="black" points="256,-142.5 256,-161.5 366,-161.5 366,-142.5 256,-142.5"/>
<text text-anchor="middle" x="311" y="-149.5" font-family="Helvetica,sans-Serif" font-size="10.00">trippingcyril::Closable</text>
</a>
</g>
</g>
<!-- Node5&#45;&gt;Node1 -->
<g id="edge4" class="edge"><title>Node5&#45;&gt;Node1</title>
<path fill="none" stroke="midnightblue" d="M286.237,-137.603C265.59,-126.434 236.255,-110.564 215.214,-99.1815"/>
<polygon fill="midnightblue" stroke="midnightblue" points="284.59,-140.692 295.051,-142.372 287.921,-134.535 284.59,-140.692"/>
</g>
</g>
</svg>
