<?xml version="1.0" encoding="UTF-8" standalone="no"?>
<!DOCTYPE svg PUBLIC "-//W3C//DTD SVG 1.1//EN"
 "http://www.w3.org/Graphics/SVG/1.1/DTD/svg11.dtd">
<!-- Generated by graphviz version 2.34.0 (20140110.0949)
 -->
<!-- Title: trippingcyril::net::dns::IPv4ReverseLookup Pages: 1 -->
<svg width="140pt" height="178pt"
 viewBox="0.00 0.00 140.00 178.00" xmlns="http://www.w3.org/2000/svg" xmlns:xlink="http://www.w3.org/1999/xlink">
<g id="graph0" class="graph" transform="scale(1 1) rotate(0) translate(4 174)">
<title>trippingcyril::net::dns::IPv4ReverseLookup</title>
<!-- Node1 -->
<g id="node1" class="node"><title>Node1</title>
<polygon fill="#bfbfbf" stroke="black" points="-0.5,-1 -0.5,-31 132.5,-31 132.5,-1 -0.5,-1"/>
<text text-anchor="start" x="7.5" y="-19" font-family="Helvetica,sans-Serif" font-size="10.00">trippingcyril::net</text>
<text text-anchor="middle" x="66" y="-8" font-family="Helvetica,sans-Serif" font-size="10.00">::dns::IPv4ReverseLookup</text>
</g>
<!-- Node2 -->
<g id="node2" class="node"><title>Node2</title>
<g id="a_node2"><a xlink:href="classtrippingcyril_1_1trippingcyril_1_1_event.html" target="_top" xlink:title="Event class to automatically register and unregister event driven classes with modules, simply implement this from any event driven class. ">
<polygon fill="none" stroke="black" points="5,-71 5,-101 127,-101 127,-71 5,-71"/>
<text text-anchor="start" x="13" y="-89" font-family="Helvetica,sans-Serif" font-size="10.00">trippingcyril::trippingcyril</text>
<text text-anchor="middle" x="66" y="-78" font-family="Helvetica,sans-Serif" font-size="10.00">::Event</text>
</a>
</g>
</g>
<!-- Node2&#45;&gt;Node1 -->
<g id="edge1" class="edge"><title>Node2&#45;&gt;Node1</title>
<path fill="none" stroke="midnightblue" d="M66,-60.7688C66,-50.8141 66,-39.6384 66,-31.0716"/>
<polygon fill="midnightblue" stroke="midnightblue" points="62.5001,-60.9103 66,-70.9104 69.5001,-60.9104 62.5001,-60.9103"/>
</g>
<!-- Node3 -->
<g id="node3" class="node"><title>Node3</title>
<g id="a_node3"><a xlink:href="classtrippingcyril_1_1_module.html" target="_top" xlink:title="Base class for modules. ">
<polygon fill="none" stroke="black" points="14,-150.5 14,-169.5 118,-169.5 118,-150.5 14,-150.5"/>
<text text-anchor="middle" x="66" y="-157.5" font-family="Helvetica,sans-Serif" font-size="10.00">trippingcyril::Module</text>
</a>
</g>
</g>
<!-- Node3&#45;&gt;Node2 -->
<g id="edge2" class="edge"><title>Node3&#45;&gt;Node2</title>
<path fill="none" stroke="#9a32cd" stroke-dasharray="5,2" d="M66,-140.085C66,-127.915 66,-112.354 66,-101.232"/>
<polygon fill="#9a32cd" stroke="#9a32cd" points="62.5001,-140.458 66,-150.458 69.5001,-140.458 62.5001,-140.458"/>
<text text-anchor="middle" x="83.5" y="-123.5" font-family="Helvetica,sans-Serif" font-size="10.00"> module</text>
</g>
</g>
</svg>
