<?xml version="1.0" encoding="UTF-8" standalone="no"?>
<!DOCTYPE svg PUBLIC "-//W3C//DTD SVG 1.1//EN"
 "http://www.w3.org/Graphics/SVG/1.1/DTD/svg11.dtd">
<!-- Generated by graphviz version 2.34.0 (20140110.0949)
 -->
<!-- Title: trippingcyril::net::Listener Pages: 1 -->
<svg width="233pt" height="188pt"
 viewBox="0.00 0.00 233.00 188.00" xmlns="http://www.w3.org/2000/svg" xmlns:xlink="http://www.w3.org/1999/xlink">
<g id="graph0" class="graph" transform="scale(1 1) rotate(0) translate(4 184)">
<title>trippingcyril::net::Listener</title>
<!-- Node1 -->
<g id="node1" class="node"><title>Node1</title>
<polygon fill="#bfbfbf" stroke="black" points="109,-1 109,-31 195,-31 195,-1 109,-1"/>
<text text-anchor="start" x="117" y="-19" font-family="Helvetica,sans-Serif" font-size="10.00">trippingcyril::net</text>
<text text-anchor="middle" x="152" y="-8" font-family="Helvetica,sans-Serif" font-size="10.00">::Listener</text>
</g>
<!-- Node2 -->
<g id="node2" class="node"><title>Node2</title>
<g id="a_node2"><a xlink:href="classtrippingcyril_1_1trippingcyril_1_1_event.html" target="_top" xlink:title="Event class to automatically register and unregister event driven classes with modules, simply implement this from any event driven class. ">
<polygon fill="none" stroke="black" points="0,-81 0,-111 122,-111 122,-81 0,-81"/>
<text text-anchor="start" x="8" y="-99" font-family="Helvetica,sans-Serif" font-size="10.00">trippingcyril::trippingcyril</text>
<text text-anchor="middle" x="61" y="-88" font-family="Helvetica,sans-Serif" font-size="10.00">::Event</text>
</a>
</g>
</g>
<!-- Node2&#45;&gt;Node1 -->
<g id="edge1" class="edge"><title>Node2&#45;&gt;Node1</title>
<path fill="none" stroke="midnightblue" d="M85.5088,-73.9924C101.321,-60.4394 121.464,-43.1736 135.415,-31.2157"/>
<polygon fill="midnightblue" stroke="midnightblue" points="83.0056,-71.5282 77.6908,-80.6936 87.5612,-76.8431 83.0056,-71.5282"/>
</g>
<!-- Node3 -->
<g id="node3" class="node"><title>Node3</title>
<g id="a_node3"><a xlink:href="classtrippingcyril_1_1_module.html" target="_top" xlink:title="Base class for modules. ">
<polygon fill="none" stroke="black" points="9,-160.5 9,-179.5 113,-179.5 113,-160.5 9,-160.5"/>
<text text-anchor="middle" x="61" y="-167.5" font-family="Helvetica,sans-Serif" font-size="10.00">trippingcyril::Module</text>
</a>
</g>
</g>
<!-- Node3&#45;&gt;Node2 -->
<g id="edge2" class="edge"><title>Node3&#45;&gt;Node2</title>
<path fill="none" stroke="#9a32cd" stroke-dasharray="5,2" d="M61,-150.085C61,-137.915 61,-122.354 61,-111.232"/>
<polygon fill="#9a32cd" stroke="#9a32cd" points="57.5001,-150.458 61,-160.458 64.5001,-150.458 57.5001,-150.458"/>
<text text-anchor="middle" x="78.5" y="-133.5" font-family="Helvetica,sans-Serif" font-size="10.00"> module</text>
</g>
<!-- Node4 -->
<g id="node4" class="node"><title>Node4</title>
<g id="a_node4"><a xlink:href="classtrippingcyril_1_1log_1_1_logger.html" target="_top" xlink:title="Base class to provide logging. ">
<polygon fill="none" stroke="black" points="140.5,-81 140.5,-111 225.5,-111 225.5,-81 140.5,-81"/>
<text text-anchor="start" x="148.5" y="-99" font-family="Helvetica,sans-Serif" font-size="10.00">trippingcyril::log</text>
<text text-anchor="middle" x="183" y="-88" font-family="Helvetica,sans-Serif" font-size="10.00">::Logger</text>
</a>
</g>
</g>
<!-- Node4&#45;&gt;Node1 -->
<g id="edge3" class="edge"><title>Node4&#45;&gt;Node1</title>
<path fill="none" stroke="#9a32cd" stroke-dasharray="5,2" d="M173.596,-71.3377C168.392,-58.2436 162.097,-42.4057 157.65,-31.2157"/>
<polygon fill="#9a32cd" stroke="#9a32cd" points="170.368,-72.6933 177.314,-80.6936 176.873,-70.1079 170.368,-72.6933"/>
<text text-anchor="middle" x="185" y="-53.5" font-family="Helvetica,sans-Serif" font-size="10.00"> logger</text>
</g>
</g>
</svg>
