<?xml version="1.0" encoding="UTF-8" standalone="no"?>
<!DOCTYPE svg PUBLIC "-//W3C//DTD SVG 1.1//EN"
 "http://www.w3.org/Graphics/SVG/1.1/DTD/svg11.dtd">
<!-- Generated by graphviz version 2.34.0 (20140110.0949)
 -->
<!-- Title: trippingcyril::net::Listener Pages: 1 -->
<svg width="212pt" height="188pt"
 viewBox="0.00 0.00 212.00 188.00" xmlns="http://www.w3.org/2000/svg" xmlns:xlink="http://www.w3.org/1999/xlink">
<g id="graph0" class="graph" transform="scale(1 1) rotate(0) translate(4 184)">
<title>trippingcyril::net::Listener</title>
<!-- Node1 -->
<g id="node1" class="node"><title>Node1</title>
<polygon fill="#bfbfbf" stroke="black" points="91,-1 91,-31 177,-31 177,-1 91,-1"/>
<text text-anchor="start" x="99" y="-19" font-family="Helvetica,sans-Serif" font-size="10.00">trippingcyril::net</text>
<text text-anchor="middle" x="134" y="-8" font-family="Helvetica,sans-Serif" font-size="10.00">::Listener</text>
</g>
<!-- Node2 -->
<g id="node2" class="node"><title>Node2</title>
<g id="a_node2"><a xlink:href="classtrippingcyril_1_1_event.html" target="_top" xlink:title="Event class to automatically register and unregister event driven classes with modules, simply implement this from any event driven class. ">
<polygon fill="none" stroke="black" points="3,-86.5 3,-105.5 101,-105.5 101,-86.5 3,-86.5"/>
<text text-anchor="middle" x="52" y="-93.5" font-family="Helvetica,sans-Serif" font-size="10.00">trippingcyril::Event</text>
</a>
</g>
</g>
<!-- Node2&#45;&gt;Node1 -->
<g id="edge1" class="edge"><title>Node2&#45;&gt;Node1</title>
<path fill="none" stroke="midnightblue" d="M68.5211,-79.2848C83.2972,-65.2294 104.765,-44.8085 119.043,-31.227"/>
<polygon fill="midnightblue" stroke="midnightblue" points="65.9221,-76.9265 61.0887,-86.3546 70.7466,-81.9984 65.9221,-76.9265"/>
</g>
<!-- Node3 -->
<g id="node3" class="node"><title>Node3</title>
<g id="a_node3"><a xlink:href="classtrippingcyril_1_1_module.html" target="_top" xlink:title="Base class for modules. ">
<polygon fill="none" stroke="black" points="0,-160.5 0,-179.5 104,-179.5 104,-160.5 0,-160.5"/>
<text text-anchor="middle" x="52" y="-167.5" font-family="Helvetica,sans-Serif" font-size="10.00">trippingcyril::Module</text>
</a>
</g>
</g>
<!-- Node3&#45;&gt;Node2 -->
<g id="edge2" class="edge"><title>Node3&#45;&gt;Node2</title>
<path fill="none" stroke="#9a32cd" stroke-dasharray="5,2" d="M52,-150.156C52,-135.712 52,-116.459 52,-105.531"/>
<polygon fill="#9a32cd" stroke="#9a32cd" points="48.5001,-150.458 52,-160.458 55.5001,-150.458 48.5001,-150.458"/>
<text text-anchor="middle" x="69.5" y="-133.5" font-family="Helvetica,sans-Serif" font-size="10.00"> module</text>
</g>
<!-- Node4 -->
<g id="node4" class="node"><title>Node4</title>
<g id="a_node4"><a xlink:href="classtrippingcyril_1_1log_1_1_logger.html" target="_top" xlink:title="Base class to provide logging. ">
<polygon fill="none" stroke="black" points="119.5,-81 119.5,-111 204.5,-111 204.5,-81 119.5,-81"/>
<text text-anchor="start" x="127.5" y="-99" font-family="Helvetica,sans-Serif" font-size="10.00">trippingcyril::log</text>
<text text-anchor="middle" x="162" y="-88" font-family="Helvetica,sans-Serif" font-size="10.00">::Logger</text>
</a>
</g>
</g>
<!-- Node4&#45;&gt;Node1 -->
<g id="edge3" class="edge"><title>Node4&#45;&gt;Node1</title>
<path fill="none" stroke="#9a32cd" stroke-dasharray="5,2" d="M153.367,-70.9518C148.694,-57.9335 143.081,-42.296 139.103,-31.2157"/>
<polygon fill="#9a32cd" stroke="#9a32cd" points="150.191,-72.4642 156.864,-80.6936 156.78,-70.0991 150.191,-72.4642"/>
<text text-anchor="middle" x="165" y="-53.5" font-family="Helvetica,sans-Serif" font-size="10.00"> logger</text>
</g>
</g>
</svg>
