<?xml version="1.0" encoding="UTF-8" standalone="no"?>
<!DOCTYPE svg PUBLIC "-//W3C//DTD SVG 1.1//EN"
 "http://www.w3.org/Graphics/SVG/1.1/DTD/svg11.dtd">
<!-- Generated by graphviz version 2.34.0 (20140110.0949)
 -->
<!-- Title: trippingcyril::Closable Pages: 1 -->
<svg width="271pt" height="164pt"
 viewBox="0.00 0.00 271.00 164.00" xmlns="http://www.w3.org/2000/svg" xmlns:xlink="http://www.w3.org/1999/xlink">
<g id="graph0" class="graph" transform="scale(1 1) rotate(0) translate(4 160)">
<title>trippingcyril::Closable</title>
<!-- Node1 -->
<g id="node1" class="node"><title>Node1</title>
<polygon fill="#bfbfbf" stroke="black" points="71,-136.5 71,-155.5 181,-155.5 181,-136.5 71,-136.5"/>
<text text-anchor="middle" x="126" y="-143.5" font-family="Helvetica,sans-Serif" font-size="10.00">trippingcyril::Closable</text>
</g>
<!-- Node2 -->
<g id="node2" class="node"><title>Node2</title>
<g id="a_node2"><a xlink:href="classtrippingcyril_1_1_file.html" target="_top" xlink:title="A general file access class. ">
<polygon fill="none" stroke="black" points="21,-74.5 21,-93.5 109,-93.5 109,-74.5 21,-74.5"/>
<text text-anchor="middle" x="65" y="-81.5" font-family="Helvetica,sans-Serif" font-size="10.00">trippingcyril::File</text>
</a>
</g>
</g>
<!-- Node1&#45;&gt;Node2 -->
<g id="edge1" class="edge"><title>Node1&#45;&gt;Node2</title>
<path fill="none" stroke="midnightblue" d="M109.929,-129.193C98.34,-117.793 83.1388,-102.841 73.7236,-93.5806"/>
<polygon fill="midnightblue" stroke="midnightblue" points="107.677,-131.886 117.26,-136.403 112.585,-126.896 107.677,-131.886"/>
</g>
<!-- Node4 -->
<g id="node4" class="node"><title>Node4</title>
<g id="a_node4"><a xlink:href="classtrippingcyril_1_1net_1_1_socket.html" target="_top" xlink:title="General tcp socket class, fully async using libevent. ">
<polygon fill="none" stroke="black" points="145,-69 145,-99 231,-99 231,-69 145,-69"/>
<text text-anchor="start" x="153" y="-87" font-family="Helvetica,sans-Serif" font-size="10.00">trippingcyril::net</text>
<text text-anchor="middle" x="188" y="-76" font-family="Helvetica,sans-Serif" font-size="10.00">::Socket</text>
</a>
</g>
</g>
<!-- Node1&#45;&gt;Node4 -->
<g id="edge3" class="edge"><title>Node1&#45;&gt;Node4</title>
<path fill="none" stroke="midnightblue" d="M142.288,-129.238C151.933,-119.904 164.052,-108.176 173.388,-99.1408"/>
<polygon fill="midnightblue" stroke="midnightblue" points="139.635,-126.934 134.883,-136.403 144.503,-131.964 139.635,-126.934"/>
</g>
<!-- Node3 -->
<g id="node3" class="node"><title>Node3</title>
<g id="a_node3"><a xlink:href="classtrippingcyril_1_1_temp_file.html" target="_top" xlink:title="An easy way to get temporary files in /tmp which will be deleted upon destruction of the object...">
<polygon fill="none" stroke="black" points="-0.5,-6.5 -0.5,-25.5 112.5,-25.5 112.5,-6.5 -0.5,-6.5"/>
<text text-anchor="middle" x="56" y="-13.5" font-family="Helvetica,sans-Serif" font-size="10.00">trippingcyril::TempFile</text>
</a>
</g>
</g>
<!-- Node2&#45;&gt;Node3 -->
<g id="edge2" class="edge"><title>Node2&#45;&gt;Node3</title>
<path fill="none" stroke="midnightblue" d="M62.467,-64.425C60.7452,-51.7978 58.5449,-35.6623 57.2056,-25.8411"/>
<polygon fill="midnightblue" stroke="midnightblue" points="59.0043,-64.9363 63.8234,-74.3717 65.9401,-63.9904 59.0043,-64.9363"/>
</g>
<!-- Node5 -->
<g id="node5" class="node"><title>Node5</title>
<g id="a_node5"><a xlink:href="classtrippingcyril_1_1net_1_1http_1_1_simple_h_t_t_p_socket.html" target="_top" xlink:title="A simple http client. ">
<polygon fill="none" stroke="black" points="131,-1 131,-31 263,-31 263,-1 131,-1"/>
<text text-anchor="start" x="139" y="-19" font-family="Helvetica,sans-Serif" font-size="10.00">trippingcyril::net</text>
<text text-anchor="middle" x="197" y="-8" font-family="Helvetica,sans-Serif" font-size="10.00">::http::SimpleHTTPSocket</text>
</a>
</g>
</g>
<!-- Node4&#45;&gt;Node5 -->
<g id="edge4" class="edge"><title>Node4&#45;&gt;Node5</title>
<path fill="none" stroke="midnightblue" d="M191.337,-58.5322C192.587,-49.3606 193.967,-39.2449 195.051,-31.2931"/>
<polygon fill="midnightblue" stroke="midnightblue" points="187.836,-58.2978 189.953,-68.679 194.772,-59.2436 187.836,-58.2978"/>
</g>
</g>
</svg>
