<?xml version="1.0" encoding="UTF-8" standalone="no"?>
<!DOCTYPE svg PUBLIC "-//W3C//DTD SVG 1.1//EN"
 "http://www.w3.org/Graphics/SVG/1.1/DTD/svg11.dtd">
<!-- Generated by graphviz version 2.34.0 (20140110.0949)
 -->
<!-- Title: trippingcyril::net::http::SimpleHTTPSocket Pages: 1 -->
<svg width="368pt" height="236pt"
 viewBox="0.00 0.00 368.00 236.00" xmlns="http://www.w3.org/2000/svg" xmlns:xlink="http://www.w3.org/1999/xlink">
<g id="graph0" class="graph" transform="scale(1 1) rotate(0) translate(4 232)">
<title>trippingcyril::net::http::SimpleHTTPSocket</title>
<!-- Node1 -->
<g id="node1" class="node"><title>Node1</title>
<polygon fill="#bfbfbf" stroke="black" points="117,-1 117,-31 249,-31 249,-1 117,-1"/>
<text text-anchor="start" x="125" y="-19" font-family="Helvetica,sans-Serif" font-size="10.00">trippingcyril::net</text>
<text text-anchor="middle" x="183" y="-8" font-family="Helvetica,sans-Serif" font-size="10.00">::http::SimpleHTTPSocket</text>
</g>
<!-- Node2 -->
<g id="node2" class="node"><title>Node2</title>
<g id="a_node2"><a xlink:href="classtrippingcyril_1_1net_1_1_socket.html" target="_top" xlink:title="General tcp socket class, fully async using libevent. ">
<polygon fill="none" stroke="black" points="140,-71 140,-101 226,-101 226,-71 140,-71"/>
<text text-anchor="start" x="148" y="-89" font-family="Helvetica,sans-Serif" font-size="10.00">trippingcyril::net</text>
<text text-anchor="middle" x="183" y="-78" font-family="Helvetica,sans-Serif" font-size="10.00">::Socket</text>
</a>
</g>
</g>
<!-- Node2&#45;&gt;Node1 -->
<g id="edge1" class="edge"><title>Node2&#45;&gt;Node1</title>
<path fill="none" stroke="midnightblue" d="M183,-60.7688C183,-50.8141 183,-39.6384 183,-31.0716"/>
<polygon fill="midnightblue" stroke="midnightblue" points="179.5,-60.9103 183,-70.9104 186.5,-60.9104 179.5,-60.9103"/>
</g>
<!-- Node3 -->
<g id="node3" class="node"><title>Node3</title>
<g id="a_node3"><a xlink:href="classtrippingcyril_1_1_event.html" target="_top" xlink:title="Event class to automatically register and unregister event driven classes with modules, simply implement this from any event driven class. ">
<polygon fill="none" stroke="black" points="13,-140.5 13,-159.5 111,-159.5 111,-140.5 13,-140.5"/>
<text text-anchor="middle" x="62" y="-147.5" font-family="Helvetica,sans-Serif" font-size="10.00">trippingcyril::Event</text>
</a>
</g>
</g>
<!-- Node3&#45;&gt;Node2 -->
<g id="edge2" class="edge"><title>Node3&#45;&gt;Node2</title>
<path fill="none" stroke="midnightblue" d="M87.9414,-135.708C107.877,-125.493 135.344,-111.419 155.628,-101.025"/>
<polygon fill="midnightblue" stroke="midnightblue" points="86.1282,-132.704 78.8245,-140.379 89.3203,-138.934 86.1282,-132.704"/>
</g>
<!-- Node4 -->
<g id="node4" class="node"><title>Node4</title>
<g id="a_node4"><a xlink:href="classtrippingcyril_1_1_module.html" target="_top" xlink:title="Base class for modules. ">
<polygon fill="none" stroke="black" points="0,-208.5 0,-227.5 104,-227.5 104,-208.5 0,-208.5"/>
<text text-anchor="middle" x="52" y="-215.5" font-family="Helvetica,sans-Serif" font-size="10.00">trippingcyril::Module</text>
</a>
</g>
</g>
<!-- Node4&#45;&gt;Node3 -->
<g id="edge3" class="edge"><title>Node4&#45;&gt;Node3</title>
<path fill="none" stroke="#9a32cd" stroke-dasharray="5,2" d="M54.8144,-198.425C56.7276,-185.798 59.1724,-169.662 60.6604,-159.841"/>
<polygon fill="#9a32cd" stroke="#9a32cd" points="51.345,-197.96 53.3073,-208.372 58.266,-199.009 51.345,-197.96"/>
<text text-anchor="middle" x="75.5" y="-181.5" font-family="Helvetica,sans-Serif" font-size="10.00"> module</text>
</g>
<!-- Node5 -->
<g id="node5" class="node"><title>Node5</title>
<g id="a_node5"><a xlink:href="classtrippingcyril_1_1_writer.html" target="_top" xlink:title="Writer class to provide a general writing operation so it&#39;s easier to write wrapper classes for write...">
<polygon fill="none" stroke="black" points="134,-140.5 134,-159.5 232,-159.5 232,-140.5 134,-140.5"/>
<text text-anchor="middle" x="183" y="-147.5" font-family="Helvetica,sans-Serif" font-size="10.00">trippingcyril::Writer</text>
</a>
</g>
</g>
<!-- Node5&#45;&gt;Node2 -->
<g id="edge4" class="edge"><title>Node5&#45;&gt;Node2</title>
<path fill="none" stroke="midnightblue" d="M183,-130.183C183,-120.886 183,-109.851 183,-101.263"/>
<polygon fill="midnightblue" stroke="midnightblue" points="179.5,-130.379 183,-140.379 186.5,-130.379 179.5,-130.379"/>
</g>
<!-- Node6 -->
<g id="node6" class="node"><title>Node6</title>
<g id="a_node6"><a xlink:href="classtrippingcyril_1_1_should_delete.html" target="_top" xlink:title="A simple interface to determine if the object should be deleted or not. ">
<polygon fill="none" stroke="black" points="122.5,-208.5 122.5,-227.5 253.5,-227.5 253.5,-208.5 122.5,-208.5"/>
<text text-anchor="middle" x="188" y="-215.5" font-family="Helvetica,sans-Serif" font-size="10.00">trippingcyril::ShouldDelete</text>
</a>
</g>
</g>
<!-- Node6&#45;&gt;Node5 -->
<g id="edge5" class="edge"><title>Node6&#45;&gt;Node5</title>
<path fill="none" stroke="midnightblue" d="M186.564,-198.041C185.612,-185.472 184.406,-169.563 183.67,-159.841"/>
<polygon fill="midnightblue" stroke="midnightblue" points="183.101,-198.665 187.346,-208.372 190.081,-198.136 183.101,-198.665"/>
</g>
<!-- Node7 -->
<g id="node7" class="node"><title>Node7</title>
<g id="a_node7"><a xlink:href="classtrippingcyril_1_1_closable.html" target="_top" xlink:title="Writer class to provide a general closing operation. ">
<polygon fill="none" stroke="black" points="250,-140.5 250,-159.5 360,-159.5 360,-140.5 250,-140.5"/>
<text text-anchor="middle" x="305" y="-147.5" font-family="Helvetica,sans-Serif" font-size="10.00">trippingcyril::Closable</text>
</a>
</g>
</g>
<!-- Node7&#45;&gt;Node2 -->
<g id="edge6" class="edge"><title>Node7&#45;&gt;Node2</title>
<path fill="none" stroke="midnightblue" d="M279.118,-135.847C258.996,-125.621 231.143,-111.466 210.598,-101.025"/>
<polygon fill="midnightblue" stroke="midnightblue" points="277.536,-138.969 288.036,-140.379 280.707,-132.728 277.536,-138.969"/>
</g>
</g>
</svg>
