<?xml version="1.0" encoding="UTF-8" standalone="no"?>
<!DOCTYPE svg PUBLIC "-//W3C//DTD SVG 1.1//EN"
 "http://www.w3.org/Graphics/SVG/1.1/DTD/svg11.dtd">
<!-- Generated by graphviz version 2.34.0 (20140110.0949)
 -->
<!-- Title: trippingcyril::LZMACompressor Pages: 1 -->
<svg width="160pt" height="212pt"
 viewBox="0.00 0.00 160.00 212.00" xmlns="http://www.w3.org/2000/svg" xmlns:xlink="http://www.w3.org/1999/xlink">
<g id="graph0" class="graph" transform="scale(1 1) rotate(0) translate(4 208)">
<title>trippingcyril::LZMACompressor</title>
<!-- Node1 -->
<g id="node1" class="node"><title>Node1</title>
<polygon fill="#bfbfbf" stroke="black" points="0,-0.5 0,-19.5 152,-19.5 152,-0.5 0,-0.5"/>
<text text-anchor="middle" x="76" y="-7.5" font-family="Helvetica,sans-Serif" font-size="10.00">trippingcyril::LZMACompressor</text>
</g>
<!-- Node2 -->
<g id="node2" class="node"><title>Node2</title>
<g id="a_node2"><a xlink:href="classtrippingcyril_1_1_compressor.html" target="_top" xlink:title="Abstract compressor. ">
<polygon fill="none" stroke="black" points="13.5,-58.5 13.5,-77.5 138.5,-77.5 138.5,-58.5 13.5,-58.5"/>
<text text-anchor="middle" x="76" y="-65.5" font-family="Helvetica,sans-Serif" font-size="10.00">trippingcyril::Compressor</text>
</a>
</g>
</g>
<!-- Node2&#45;&gt;Node1 -->
<g id="edge1" class="edge"><title>Node2&#45;&gt;Node1</title>
<path fill="none" stroke="midnightblue" d="M76,-47.953C76,-38.2875 76,-27.0312 76,-19.5052"/>
<polygon fill="midnightblue" stroke="midnightblue" points="72.5001,-48.25 76,-58.25 79.5001,-48.25 72.5001,-48.25"/>
</g>
<!-- Node3 -->
<g id="node3" class="node"><title>Node3</title>
<g id="a_node3"><a xlink:href="classtrippingcyril_1_1_writer.html" target="_top" xlink:title="Writer class to provide a general writing operation so it&#39;s easier to write wrapper classes for write...">
<polygon fill="none" stroke="black" points="27,-126.5 27,-145.5 125,-145.5 125,-126.5 27,-126.5"/>
<text text-anchor="middle" x="76" y="-133.5" font-family="Helvetica,sans-Serif" font-size="10.00">trippingcyril::Writer</text>
</a>
</g>
</g>
<!-- Node3&#45;&gt;Node2 -->
<g id="edge2" class="edge"><title>Node3&#45;&gt;Node2</title>
<path fill="none" stroke="midnightblue" d="M74.4399,-116.382C74.2572,-113.575 74.1003,-110.713 74,-108 73.6141,-97.5663 74.4162,-85.5725 75.1167,-77.6712"/>
<polygon fill="midnightblue" stroke="midnightblue" points="70.9607,-116.791 75.2083,-126.497 77.9406,-116.26 70.9607,-116.791"/>
</g>
<!-- Node3&#45;&gt;Node2 -->
<g id="edge4" class="edge"><title>Node3&#45;&gt;Node2</title>
<path fill="none" stroke="#9a32cd" stroke-dasharray="5,2" d="M76,-116.041C76,-103.472 76,-87.5631 76,-77.8411"/>
<polygon fill="#9a32cd" stroke="#9a32cd" points="72.5001,-116.372 76,-126.372 79.5001,-116.372 72.5001,-116.372"/>
<text text-anchor="middle" x="90" y="-99.5" font-family="Helvetica,sans-Serif" font-size="10.00"> writer</text>
</g>
<!-- Node4 -->
<g id="node4" class="node"><title>Node4</title>
<g id="a_node4"><a xlink:href="classtrippingcyril_1_1_should_delete.html" target="_top" xlink:title="A simple interface to determine if the object should be deleted or not. ">
<polygon fill="none" stroke="black" points="10.5,-184.5 10.5,-203.5 141.5,-203.5 141.5,-184.5 10.5,-184.5"/>
<text text-anchor="middle" x="76" y="-191.5" font-family="Helvetica,sans-Serif" font-size="10.00">trippingcyril::ShouldDelete</text>
</a>
</g>
</g>
<!-- Node4&#45;&gt;Node3 -->
<g id="edge3" class="edge"><title>Node4&#45;&gt;Node3</title>
<path fill="none" stroke="midnightblue" d="M76,-173.953C76,-164.287 76,-153.031 76,-145.505"/>
<polygon fill="midnightblue" stroke="midnightblue" points="72.5001,-174.25 76,-184.25 79.5001,-174.25 72.5001,-174.25"/>
</g>
</g>
</svg>
