<?xml version="1.0" encoding="UTF-8" standalone="no"?>
<!DOCTYPE svg PUBLIC "-//W3C//DTD SVG 1.1//EN"
 "http://www.w3.org/Graphics/SVG/1.1/DTD/svg11.dtd">
<!-- Generated by graphviz version 2.34.0 (20140110.0949)
 -->
<!-- Title: trippingcyril::timing::LamdbaTimer Pages: 1 -->
<svg width="106pt" height="164pt"
 viewBox="0.00 0.00 106.00 164.00" xmlns="http://www.w3.org/2000/svg" xmlns:xlink="http://www.w3.org/1999/xlink">
<g id="graph0" class="graph" transform="scale(1 1) rotate(0) translate(4 160)">
<title>trippingcyril::timing::LamdbaTimer</title>
<!-- Node1 -->
<g id="node1" class="node"><title>Node1</title>
<polygon fill="#bfbfbf" stroke="black" points="0,-1 0,-31 98,-31 98,-1 0,-1"/>
<text text-anchor="start" x="8" y="-19" font-family="Helvetica,sans-Serif" font-size="10.00">trippingcyril::timing</text>
<text text-anchor="middle" x="49" y="-8" font-family="Helvetica,sans-Serif" font-size="10.00">::LamdbaTimer</text>
</g>
<!-- Node2 -->
<g id="node2" class="node"><title>Node2</title>
<g id="a_node2"><a xlink:href="classtrippingcyril_1_1timing_1_1_timer.html" target="_top" xlink:title="General timer class. ">
<polygon fill="none" stroke="black" points="0,-69 0,-99 98,-99 98,-69 0,-69"/>
<text text-anchor="start" x="8" y="-87" font-family="Helvetica,sans-Serif" font-size="10.00">trippingcyril::timing</text>
<text text-anchor="middle" x="49" y="-76" font-family="Helvetica,sans-Serif" font-size="10.00">::Timer</text>
</a>
</g>
</g>
<!-- Node2&#45;&gt;Node1 -->
<g id="edge1" class="edge"><title>Node2&#45;&gt;Node1</title>
<path fill="none" stroke="midnightblue" d="M49,-58.5322C49,-49.3606 49,-39.2449 49,-31.2931"/>
<polygon fill="midnightblue" stroke="midnightblue" points="45.5001,-58.6789 49,-68.679 52.5001,-58.679 45.5001,-58.6789"/>
</g>
<!-- Node3 -->
<g id="node3" class="node"><title>Node3</title>
<g id="a_node3"><a xlink:href="classtrippingcyril_1_1_event.html" target="_top" xlink:title="Event class to automatically register and unregister event driven classes with modules, simply implement this from any event driven class. ">
<polygon fill="none" stroke="black" points="0,-136.5 0,-155.5 98,-155.5 98,-136.5 0,-136.5"/>
<text text-anchor="middle" x="49" y="-143.5" font-family="Helvetica,sans-Serif" font-size="10.00">trippingcyril::Event</text>
</a>
</g>
</g>
<!-- Node3&#45;&gt;Node2 -->
<g id="edge2" class="edge"><title>Node3&#45;&gt;Node2</title>
<path fill="none" stroke="midnightblue" d="M49,-126.371C49,-117.585 49,-107.272 49,-99.1408"/>
<polygon fill="midnightblue" stroke="midnightblue" points="45.5001,-126.403 49,-136.403 52.5001,-126.403 45.5001,-126.403"/>
</g>
</g>
</svg>
