<?xml version="1.0" encoding="UTF-8" standalone="no"?>
<!DOCTYPE svg PUBLIC "-//W3C//DTD SVG 1.1//EN"
 "http://www.w3.org/Graphics/SVG/1.1/DTD/svg11.dtd">
<!-- Generated by graphviz version 2.34.0 (20140110.0949)
 -->
<!-- Title: trippingcyril::net::dns::IPv4ReverseLookup Pages: 1 -->
<svg width="140pt" height="166pt"
 viewBox="0.00 0.00 140.00 166.00" xmlns="http://www.w3.org/2000/svg" xmlns:xlink="http://www.w3.org/1999/xlink">
<g id="graph0" class="graph" transform="scale(1 1) rotate(0) translate(4 162)">
<title>trippingcyril::net::dns::IPv4ReverseLookup</title>
<!-- Node1 -->
<g id="node1" class="node"><title>Node1</title>
<polygon fill="#bfbfbf" stroke="black" points="-0.5,-1 -0.5,-31 132.5,-31 132.5,-1 -0.5,-1"/>
<text text-anchor="start" x="7.5" y="-19" font-family="Helvetica,sans-Serif" font-size="10.00">trippingcyril::net</text>
<text text-anchor="middle" x="66" y="-8" font-family="Helvetica,sans-Serif" font-size="10.00">::dns::IPv4ReverseLookup</text>
</g>
<!-- Node2 -->
<g id="node2" class="node"><title>Node2</title>
<g id="a_node2"><a xlink:href="classtrippingcyril_1_1_event.html" target="_top" xlink:title="Event class to automatically register and unregister event driven classes with modules, simply implement this from any event driven class. ">
<polygon fill="none" stroke="black" points="17,-70.5 17,-89.5 115,-89.5 115,-70.5 17,-70.5"/>
<text text-anchor="middle" x="66" y="-77.5" font-family="Helvetica,sans-Serif" font-size="10.00">trippingcyril::Event</text>
</a>
</g>
</g>
<!-- Node2&#45;&gt;Node1 -->
<g id="edge1" class="edge"><title>Node2&#45;&gt;Node1</title>
<path fill="none" stroke="midnightblue" d="M66,-60.1826C66,-50.8859 66,-39.8507 66,-31.263"/>
<polygon fill="midnightblue" stroke="midnightblue" points="62.5001,-60.3791 66,-70.3792 69.5001,-60.3792 62.5001,-60.3791"/>
</g>
<!-- Node3 -->
<g id="node3" class="node"><title>Node3</title>
<g id="a_node3"><a xlink:href="classtrippingcyril_1_1_module.html" target="_top" xlink:title="Base class for modules. ">
<polygon fill="none" stroke="black" points="14,-138.5 14,-157.5 118,-157.5 118,-138.5 14,-138.5"/>
<text text-anchor="middle" x="66" y="-145.5" font-family="Helvetica,sans-Serif" font-size="10.00">trippingcyril::Module</text>
</a>
</g>
</g>
<!-- Node3&#45;&gt;Node2 -->
<g id="edge2" class="edge"><title>Node3&#45;&gt;Node2</title>
<path fill="none" stroke="#9a32cd" stroke-dasharray="5,2" d="M66,-128.041C66,-115.472 66,-99.5631 66,-89.8411"/>
<polygon fill="#9a32cd" stroke="#9a32cd" points="62.5001,-128.372 66,-138.372 69.5001,-128.372 62.5001,-128.372"/>
<text text-anchor="middle" x="83.5" y="-111.5" font-family="Helvetica,sans-Serif" font-size="10.00"> module</text>
</g>
</g>
</svg>
