<?xml version="1.0" encoding="UTF-8" standalone="no"?>
<!DOCTYPE svg PUBLIC "-//W3C//DTD SVG 1.1//EN"
 "http://www.w3.org/Graphics/SVG/1.1/DTD/svg11.dtd">
<!-- Generated by graphviz version 2.34.0 (20140110.0949)
 -->
<!-- Title: trippingcyril::Writer Pages: 1 -->
<svg width="640pt" height="268pt"
 viewBox="0.00 0.00 640.00 268.00" xmlns="http://www.w3.org/2000/svg" xmlns:xlink="http://www.w3.org/1999/xlink">
<g id="graph0" class="graph" transform="scale(1 1) rotate(0) translate(4 264)">
<title>trippingcyril::Writer</title>
<!-- Node1 -->
<g id="node1" class="node"><title>Node1</title>
<polygon fill="#bfbfbf" stroke="black" points="168,-104.5 168,-123.5 266,-123.5 266,-104.5 168,-104.5"/>
<text text-anchor="middle" x="217" y="-111.5" font-family="Helvetica,sans-Serif" font-size="10.00">trippingcyril::Writer</text>
</g>
<!-- Node3 -->
<g id="node3" class="node"><title>Node3</title>
<g id="a_node3"><a xlink:href="classtrippingcyril_1_1_compressor.html" target="_top" xlink:title="Abstract compressor. ">
<polygon fill="none" stroke="black" points="307.5,-202.5 307.5,-221.5 432.5,-221.5 432.5,-202.5 307.5,-202.5"/>
<text text-anchor="middle" x="370" y="-209.5" font-family="Helvetica,sans-Serif" font-size="10.00">trippingcyril::Compressor</text>
</a>
</g>
</g>
<!-- Node1&#45;&gt;Node3 -->
<g id="edge2" class="edge"><title>Node1&#45;&gt;Node3</title>
<path fill="none" stroke="midnightblue" d="M232.126,-131.525C247.504,-149.48 273.71,-176.97 302,-193 308.732,-196.815 316.286,-199.91 323.83,-202.406"/>
<polygon fill="midnightblue" stroke="midnightblue" points="234.58,-129.002 225.485,-123.568 229.206,-133.488 234.58,-129.002"/>
</g>
<!-- Node6 -->
<g id="node6" class="node"><title>Node6</title>
<g id="a_node6"><a xlink:href="classtrippingcyril_1_1_decompressor.html" target="_top" xlink:title="Abstract decompressor. ">
<polygon fill="none" stroke="black" points="302,-164.5 302,-183.5 438,-183.5 438,-164.5 302,-164.5"/>
<text text-anchor="middle" x="370" y="-171.5" font-family="Helvetica,sans-Serif" font-size="10.00">trippingcyril::Decompressor</text>
</a>
</g>
</g>
<!-- Node1&#45;&gt;Node6 -->
<g id="edge5" class="edge"><title>Node1&#45;&gt;Node6</title>
<path fill="none" stroke="midnightblue" d="M244.231,-128.302C260.533,-136.811 282.107,-147.394 302,-155 311.148,-158.498 321.214,-161.684 330.702,-164.406"/>
<polygon fill="midnightblue" stroke="midnightblue" points="245.769,-125.156 235.294,-123.57 242.494,-131.343 245.769,-125.156"/>
</g>
<!-- Node8 -->
<g id="node8" class="node"><title>Node8</title>
<g id="a_node8"><a xlink:href="classtrippingcyril_1_1_file.html" target="_top" xlink:title="A general file access class. ">
<polygon fill="none" stroke="black" points="326,-126.5 326,-145.5 414,-145.5 414,-126.5 326,-126.5"/>
<text text-anchor="middle" x="370" y="-133.5" font-family="Helvetica,sans-Serif" font-size="10.00">trippingcyril::File</text>
</a>
</g>
</g>
<!-- Node1&#45;&gt;Node8 -->
<g id="edge7" class="edge"><title>Node1&#45;&gt;Node8</title>
<path fill="none" stroke="midnightblue" d="M276.283,-122.491C292.777,-124.895 310.429,-127.466 325.857,-129.714"/>
<polygon fill="midnightblue" stroke="midnightblue" points="276.593,-119 266.193,-121.021 275.583,-125.927 276.593,-119"/>
</g>
<!-- Node10 -->
<g id="node10" class="node"><title>Node10</title>
<g id="a_node10"><a xlink:href="classtrippingcyril_1_1net_1_1_socket.html" target="_top" xlink:title="General tcp socket class, fully async using libevent. ">
<polygon fill="none" stroke="black" points="327,-77 327,-107 413,-107 413,-77 327,-77"/>
<text text-anchor="start" x="335" y="-95" font-family="Helvetica,sans-Serif" font-size="10.00">trippingcyril::net</text>
<text text-anchor="middle" x="370" y="-84" font-family="Helvetica,sans-Serif" font-size="10.00">::Socket</text>
</a>
</g>
</g>
<!-- Node1&#45;&gt;Node10 -->
<g id="edge9" class="edge"><title>Node1&#45;&gt;Node10</title>
<path fill="none" stroke="midnightblue" d="M276.468,-105.482C293.268,-103.034 311.255,-100.413 326.861,-98.1394"/>
<polygon fill="midnightblue" stroke="midnightblue" points="275.583,-102.073 266.193,-106.979 276.593,-109 275.583,-102.073"/>
</g>
<!-- Node12 -->
<g id="node12" class="node"><title>Node12</title>
<g id="a_node12"><a xlink:href="classtrippingcyril_1_1_pipe.html" target="_top" xlink:title="A wrapper class for pipes. ">
<polygon fill="none" stroke="black" points="324,-38.5 324,-57.5 416,-57.5 416,-38.5 324,-38.5"/>
<text text-anchor="middle" x="370" y="-45.5" font-family="Helvetica,sans-Serif" font-size="10.00">trippingcyril::Pipe</text>
</a>
</g>
</g>
<!-- Node1&#45;&gt;Node12 -->
<g id="edge11" class="edge"><title>Node1&#45;&gt;Node12</title>
<path fill="none" stroke="midnightblue" d="M241.536,-98.8651C257.977,-88.7904 280.71,-75.8318 302,-67 310.711,-63.3864 320.334,-60.211 329.504,-57.5423"/>
<polygon fill="midnightblue" stroke="midnightblue" points="239.276,-96.1498 232.642,-104.411 242.979,-102.09 239.276,-96.1498"/>
</g>
<!-- Node13 -->
<g id="node13" class="node"><title>Node13</title>
<g id="a_node13"><a xlink:href="classtrippingcyril_1_1_string_writer.html" target="_top" xlink:title="Simple in memory writer that just writes everything to a string. ">
<polygon fill="none" stroke="black" points="308,-0.5 308,-19.5 432,-19.5 432,-0.5 308,-0.5"/>
<text text-anchor="middle" x="370" y="-7.5" font-family="Helvetica,sans-Serif" font-size="10.00">trippingcyril::StringWriter</text>
</a>
</g>
</g>
<!-- Node1&#45;&gt;Node13 -->
<g id="edge12" class="edge"><title>Node1&#45;&gt;Node13</title>
<path fill="none" stroke="midnightblue" d="M230.953,-96.2392C245.951,-76.9266 272.417,-46.4853 302,-29 308.557,-25.1242 315.945,-22.0054 323.357,-19.5056"/>
<polygon fill="midnightblue" stroke="midnightblue" points="228.14,-94.1561 224.898,-104.243 233.723,-98.3791 228.14,-94.1561"/>
</g>
<!-- Node2 -->
<g id="node2" class="node"><title>Node2</title>
<g id="a_node2"><a xlink:href="classtrippingcyril_1_1_should_delete.html" target="_top" xlink:title="A simple interface to determine if the object should be deleted or not. ">
<polygon fill="none" stroke="black" points="0.5,-104.5 0.5,-123.5 131.5,-123.5 131.5,-104.5 0.5,-104.5"/>
<text text-anchor="middle" x="66" y="-111.5" font-family="Helvetica,sans-Serif" font-size="10.00">trippingcyril::ShouldDelete</text>
</a>
</g>
</g>
<!-- Node2&#45;&gt;Node1 -->
<g id="edge1" class="edge"><title>Node2&#45;&gt;Node1</title>
<path fill="none" stroke="midnightblue" d="M142.162,-114C150.907,-114 159.64,-114 167.878,-114"/>
<polygon fill="midnightblue" stroke="midnightblue" points="141.92,-110.5 131.92,-114 141.92,-117.5 141.92,-110.5"/>
</g>
<!-- Node4 -->
<g id="node4" class="node"><title>Node4</title>
<g id="a_node4"><a xlink:href="classtrippingcyril_1_1_g_zip_compressor.html" target="_top" xlink:title="A gzip implementation of the Compressor interface. ">
<polygon fill="none" stroke="black" points="480,-240.5 480,-259.5 626,-259.5 626,-240.5 480,-240.5"/>
<text text-anchor="middle" x="553" y="-247.5" font-family="Helvetica,sans-Serif" font-size="10.00">trippingcyril::GZipCompressor</text>
</a>
</g>
</g>
<!-- Node3&#45;&gt;Node4 -->
<g id="edge3" class="edge"><title>Node3&#45;&gt;Node4</title>
<path fill="none" stroke="midnightblue" d="M426.638,-223.681C452.307,-229.07 482.391,-235.386 506.654,-240.48"/>
<polygon fill="midnightblue" stroke="midnightblue" points="427.18,-220.218 416.674,-221.589 425.741,-227.069 427.18,-220.218"/>
</g>
<!-- Node5 -->
<g id="node5" class="node"><title>Node5</title>
<g id="a_node5"><a xlink:href="classtrippingcyril_1_1_l_z_m_a_compressor.html" target="_top" xlink:title="A lzma implementation of the Compressor interface. ">
<polygon fill="none" stroke="black" points="477,-202.5 477,-221.5 629,-221.5 629,-202.5 477,-202.5"/>
<text text-anchor="middle" x="553" y="-209.5" font-family="Helvetica,sans-Serif" font-size="10.00">trippingcyril::LZMACompressor</text>
</a>
</g>
</g>
<!-- Node3&#45;&gt;Node5 -->
<g id="edge4" class="edge"><title>Node3&#45;&gt;Node5</title>
<path fill="none" stroke="midnightblue" d="M442.703,-212C453.925,-212 465.55,-212 476.847,-212"/>
<polygon fill="midnightblue" stroke="midnightblue" points="442.531,-208.5 432.531,-212 442.531,-215.5 442.531,-208.5"/>
</g>
<!-- Node7 -->
<g id="node7" class="node"><title>Node7</title>
<g id="a_node7"><a xlink:href="classtrippingcyril_1_1_g_zip_decompressor.html" target="_top" xlink:title="A gzip implementation of the Decompressor interface. ">
<polygon fill="none" stroke="black" points="474.5,-164.5 474.5,-183.5 631.5,-183.5 631.5,-164.5 474.5,-164.5"/>
<text text-anchor="middle" x="553" y="-171.5" font-family="Helvetica,sans-Serif" font-size="10.00">trippingcyril::GZipDecompressor</text>
</a>
</g>
</g>
<!-- Node6&#45;&gt;Node7 -->
<g id="edge6" class="edge"><title>Node6&#45;&gt;Node7</title>
<path fill="none" stroke="midnightblue" d="M448.187,-174C456.827,-174 465.632,-174 474.278,-174"/>
<polygon fill="midnightblue" stroke="midnightblue" points="448.141,-170.5 438.141,-174 448.14,-177.5 448.141,-170.5"/>
</g>
<!-- Node9 -->
<g id="node9" class="node"><title>Node9</title>
<g id="a_node9"><a xlink:href="classtrippingcyril_1_1_temp_file.html" target="_top" xlink:title="An easy way to get temporary files in /tmp which will be deleted upon destruction of the object...">
<polygon fill="none" stroke="black" points="496.5,-126.5 496.5,-145.5 609.5,-145.5 609.5,-126.5 496.5,-126.5"/>
<text text-anchor="middle" x="553" y="-133.5" font-family="Helvetica,sans-Serif" font-size="10.00">trippingcyril::TempFile</text>
</a>
</g>
</g>
<!-- Node8&#45;&gt;Node9 -->
<g id="edge8" class="edge"><title>Node8&#45;&gt;Node9</title>
<path fill="none" stroke="midnightblue" d="M424.461,-136C447.087,-136 473.446,-136 496.309,-136"/>
<polygon fill="midnightblue" stroke="midnightblue" points="424.354,-132.5 414.354,-136 424.354,-139.5 424.354,-132.5"/>
</g>
<!-- Node11 -->
<g id="node11" class="node"><title>Node11</title>
<g id="a_node11"><a xlink:href="classtrippingcyril_1_1net_1_1http_1_1_simple_h_t_t_p_socket.html" target="_top" xlink:title="A simple http client. ">
<polygon fill="none" stroke="black" points="487,-77 487,-107 619,-107 619,-77 487,-77"/>
<text text-anchor="start" x="495" y="-95" font-family="Helvetica,sans-Serif" font-size="10.00">trippingcyril::net</text>
<text text-anchor="middle" x="553" y="-84" font-family="Helvetica,sans-Serif" font-size="10.00">::http::SimpleHTTPSocket</text>
</a>
</g>
</g>
<!-- Node10&#45;&gt;Node11 -->
<g id="edge10" class="edge"><title>Node10&#45;&gt;Node11</title>
<path fill="none" stroke="midnightblue" d="M423.483,-92C443.26,-92 465.998,-92 486.798,-92"/>
<polygon fill="midnightblue" stroke="midnightblue" points="423.436,-88.5001 413.436,-92 423.436,-95.5001 423.436,-88.5001"/>
</g>
</g>
</svg>
