<?xml version="1.0" encoding="UTF-8" standalone="no"?>
<!DOCTYPE svg PUBLIC "-//W3C//DTD SVG 1.1//EN"
 "http://www.w3.org/Graphics/SVG/1.1/DTD/svg11.dtd">
<!-- Generated by graphviz version 2.34.0 (20140110.0949)
 -->
<!-- Title: trippingcyril::database::Database Pages: 1 -->
<svg width="460pt" height="87pt"
 viewBox="0.00 0.00 460.00 87.00" xmlns="http://www.w3.org/2000/svg" xmlns:xlink="http://www.w3.org/1999/xlink">
<g id="graph0" class="graph" transform="scale(1 1) rotate(0) translate(4 83)">
<title>trippingcyril::database::Database</title>
<!-- Node1 -->
<g id="node1" class="node"><title>Node1</title>
<polygon fill="#bfbfbf" stroke="black" points="158,-24 158,-54 270,-54 270,-24 158,-24"/>
<text text-anchor="start" x="166" y="-42" font-family="Helvetica,sans-Serif" font-size="10.00">trippingcyril::database</text>
<text text-anchor="middle" x="214" y="-31" font-family="Helvetica,sans-Serif" font-size="10.00">::Database</text>
</g>
<!-- Node3 -->
<g id="node3" class="node"><title>Node3</title>
<g id="a_node3"><a xlink:href="classtrippingcyril_1_1database_1_1postgres_1_1_blocking_post_gres.html" target="_top" xlink:title="A blocking postgresql implementation of the Database interface. ">
<polygon fill="none" stroke="black" points="306.5,-49 306.5,-79 451.5,-79 451.5,-49 306.5,-49"/>
<text text-anchor="start" x="314.5" y="-67" font-family="Helvetica,sans-Serif" font-size="10.00">trippingcyril::database</text>
<text text-anchor="middle" x="379" y="-56" font-family="Helvetica,sans-Serif" font-size="10.00">::postgres::BlockingPostGres</text>
</a>
</g>
</g>
<!-- Node1&#45;&gt;Node3 -->
<g id="edge2" class="edge"><title>Node1&#45;&gt;Node3</title>
<path fill="none" stroke="midnightblue" d="M280.169,-48.9953C288.795,-50.3182 297.675,-51.6803 306.402,-53.0187"/>
<polygon fill="midnightblue" stroke="midnightblue" points="280.599,-45.5204 270.184,-47.4639 279.538,-52.4395 280.599,-45.5204"/>
</g>
<!-- Node4 -->
<g id="node4" class="node"><title>Node4</title>
<g id="a_node4"><a xlink:href="classtrippingcyril_1_1database_1_1postgres_1_1_post_gres.html" target="_top" xlink:title="A non blocking postgresql implementation of the Database interface. ">
<polygon fill="none" stroke="black" points="323,-0 323,-30 435,-30 435,-0 323,-0"/>
<text text-anchor="start" x="331" y="-18" font-family="Helvetica,sans-Serif" font-size="10.00">trippingcyril::database</text>
<text text-anchor="middle" x="379" y="-7" font-family="Helvetica,sans-Serif" font-size="10.00">::postgres::PostGres</text>
</a>
</g>
</g>
<!-- Node1&#45;&gt;Node4 -->
<g id="edge3" class="edge"><title>Node1&#45;&gt;Node4</title>
<path fill="none" stroke="midnightblue" d="M280.312,-29.3835C294.419,-27.3064 309.201,-25.13 322.872,-23.1169"/>
<polygon fill="midnightblue" stroke="midnightblue" points="279.568,-25.9553 270.184,-30.8747 280.588,-32.8806 279.568,-25.9553"/>
</g>
<!-- Node2 -->
<g id="node2" class="node"><title>Node2</title>
<g id="a_node2"><a xlink:href="classtrippingcyril_1_1trippingcyril_1_1_event.html" target="_top" xlink:title="Event class to automatically register and unregister event driven classes with modules, simply implement this from any event driven class. ">
<polygon fill="none" stroke="black" points="0,-24 0,-54 122,-54 122,-24 0,-24"/>
<text text-anchor="start" x="8" y="-42" font-family="Helvetica,sans-Serif" font-size="10.00">trippingcyril::trippingcyril</text>
<text text-anchor="middle" x="61" y="-31" font-family="Helvetica,sans-Serif" font-size="10.00">::Event</text>
</a>
</g>
</g>
<!-- Node2&#45;&gt;Node1 -->
<g id="edge1" class="edge"><title>Node2&#45;&gt;Node1</title>
<path fill="none" stroke="midnightblue" d="M132.203,-39C140.859,-39 149.608,-39 157.992,-39"/>
<polygon fill="midnightblue" stroke="midnightblue" points="132.113,-35.5001 122.113,-39 132.113,-42.5001 132.113,-35.5001"/>
</g>
</g>
</svg>
