<?xml version="1.0" encoding="UTF-8" standalone="no"?>
<!DOCTYPE svg PUBLIC "-//W3C//DTD SVG 1.1//EN"
 "http://www.w3.org/Graphics/SVG/1.1/DTD/svg11.dtd">
<!-- Generated by graphviz version 2.34.0 (20140110.0949)
 -->
<!-- Title: trippingcyril::Compressor Pages: 1 -->
<svg width="138pt" height="154pt"
 viewBox="0.00 0.00 138.00 154.00" xmlns="http://www.w3.org/2000/svg" xmlns:xlink="http://www.w3.org/1999/xlink">
<g id="graph0" class="graph" transform="scale(1 1) rotate(0) translate(4 150)">
<title>trippingcyril::Compressor</title>
<!-- Node1 -->
<g id="node1" class="node"><title>Node1</title>
<polygon fill="#bfbfbf" stroke="black" points="2.5,-0.5 2.5,-19.5 127.5,-19.5 127.5,-0.5 2.5,-0.5"/>
<text text-anchor="middle" x="65" y="-7.5" font-family="Helvetica,sans-Serif" font-size="10.00">trippingcyril::Compressor</text>
</g>
<!-- Node2 -->
<g id="node2" class="node"><title>Node2</title>
<g id="a_node2"><a xlink:href="classtrippingcyril_1_1_writer.html" target="_top" xlink:title="Writer class to provide a general writing operation so it&#39;s easier to write wrapper classes for write...">
<polygon fill="none" stroke="black" points="16,-68.5 16,-87.5 114,-87.5 114,-68.5 16,-68.5"/>
<text text-anchor="middle" x="65" y="-75.5" font-family="Helvetica,sans-Serif" font-size="10.00">trippingcyril::Writer</text>
</a>
</g>
</g>
<!-- Node2&#45;&gt;Node1 -->
<g id="edge1" class="edge"><title>Node2&#45;&gt;Node1</title>
<path fill="none" stroke="midnightblue" d="M63.4399,-58.3825C63.2572,-55.5753 63.1003,-52.7126 63,-50 62.6141,-39.5663 63.4162,-27.5725 64.1167,-19.6712"/>
<polygon fill="midnightblue" stroke="midnightblue" points="59.9607,-58.7906 64.2083,-68.4967 66.9406,-58.2602 59.9607,-58.7906"/>
</g>
<!-- Node2&#45;&gt;Node1 -->
<g id="edge3" class="edge"><title>Node2&#45;&gt;Node1</title>
<path fill="none" stroke="#9a32cd" stroke-dasharray="5,2" d="M65,-58.0413C65,-45.4724 65,-29.5631 65,-19.8411"/>
<polygon fill="#9a32cd" stroke="#9a32cd" points="61.5001,-58.3716 65,-68.3717 68.5001,-58.3717 61.5001,-58.3716"/>
<text text-anchor="middle" x="79" y="-41.5" font-family="Helvetica,sans-Serif" font-size="10.00"> writer</text>
</g>
<!-- Node3 -->
<g id="node3" class="node"><title>Node3</title>
<g id="a_node3"><a xlink:href="classtrippingcyril_1_1_should_delete.html" target="_top" xlink:title="A simple interface to determine if the object should be deleted or not. ">
<polygon fill="none" stroke="black" points="-0.5,-126.5 -0.5,-145.5 130.5,-145.5 130.5,-126.5 -0.5,-126.5"/>
<text text-anchor="middle" x="65" y="-133.5" font-family="Helvetica,sans-Serif" font-size="10.00">trippingcyril::ShouldDelete</text>
</a>
</g>
</g>
<!-- Node3&#45;&gt;Node2 -->
<g id="edge2" class="edge"><title>Node3&#45;&gt;Node2</title>
<path fill="none" stroke="midnightblue" d="M65,-115.953C65,-106.287 65,-95.0312 65,-87.5052"/>
<polygon fill="midnightblue" stroke="midnightblue" points="61.5001,-116.25 65,-126.25 68.5001,-116.25 61.5001,-116.25"/>
</g>
</g>
</svg>
