<?xml version="1.0" encoding="UTF-8" standalone="no"?>
<!DOCTYPE svg PUBLIC "-//W3C//DTD SVG 1.1//EN"
 "http://www.w3.org/Graphics/SVG/1.1/DTD/svg11.dtd">
<!-- Generated by graphviz version 2.34.0 (20140110.0949)
 -->
<!-- Title: trippingcyril::net::http::SimpleHTTPSocket Pages: 1 -->
<svg width="376pt" height="248pt"
 viewBox="0.00 0.00 376.00 248.00" xmlns="http://www.w3.org/2000/svg" xmlns:xlink="http://www.w3.org/1999/xlink">
<g id="graph0" class="graph" transform="scale(1 1) rotate(0) translate(4 244)">
<title>trippingcyril::net::http::SimpleHTTPSocket</title>
<!-- Node1 -->
<g id="node1" class="node"><title>Node1</title>
<polygon fill="#bfbfbf" stroke="black" points="125,-1 125,-31 257,-31 257,-1 125,-1"/>
<text text-anchor="start" x="133" y="-19" font-family="Helvetica,sans-Serif" font-size="10.00">trippingcyril::net</text>
<text text-anchor="middle" x="191" y="-8" font-family="Helvetica,sans-Serif" font-size="10.00">::http::SimpleHTTPSocket</text>
</g>
<!-- Node2 -->
<g id="node2" class="node"><title>Node2</title>
<g id="a_node2"><a xlink:href="classtrippingcyril_1_1net_1_1_socket.html" target="_top" xlink:title="General tcp socket class, fully async using libevent. ">
<polygon fill="none" stroke="black" points="148,-71 148,-101 234,-101 234,-71 148,-71"/>
<text text-anchor="start" x="156" y="-89" font-family="Helvetica,sans-Serif" font-size="10.00">trippingcyril::net</text>
<text text-anchor="middle" x="191" y="-78" font-family="Helvetica,sans-Serif" font-size="10.00">::Socket</text>
</a>
</g>
</g>
<!-- Node2&#45;&gt;Node1 -->
<g id="edge1" class="edge"><title>Node2&#45;&gt;Node1</title>
<path fill="none" stroke="midnightblue" d="M191,-60.7688C191,-50.8141 191,-39.6384 191,-31.0716"/>
<polygon fill="midnightblue" stroke="midnightblue" points="187.5,-60.9103 191,-70.9104 194.5,-60.9104 187.5,-60.9103"/>
</g>
<!-- Node3 -->
<g id="node3" class="node"><title>Node3</title>
<g id="a_node3"><a xlink:href="classtrippingcyril_1_1trippingcyril_1_1_event.html" target="_top" xlink:title="Event class to automatically register and unregister event driven classes with modules, simply implement this from any event driven class. ">
<polygon fill="none" stroke="black" points="0,-141 0,-171 122,-171 122,-141 0,-141"/>
<text text-anchor="start" x="8" y="-159" font-family="Helvetica,sans-Serif" font-size="10.00">trippingcyril::trippingcyril</text>
<text text-anchor="middle" x="61" y="-148" font-family="Helvetica,sans-Serif" font-size="10.00">::Event</text>
</a>
</g>
</g>
<!-- Node3&#45;&gt;Node2 -->
<g id="edge2" class="edge"><title>Node3&#45;&gt;Node2</title>
<path fill="none" stroke="midnightblue" d="M96.9852,-136.177C118.227,-125.066 144.672,-111.233 164.098,-101.072"/>
<polygon fill="midnightblue" stroke="midnightblue" points="95.1748,-133.174 87.9361,-140.91 98.4193,-139.377 95.1748,-133.174"/>
</g>
<!-- Node4 -->
<g id="node4" class="node"><title>Node4</title>
<g id="a_node4"><a xlink:href="classtrippingcyril_1_1_module.html" target="_top" xlink:title="Base class for modules. ">
<polygon fill="none" stroke="black" points="5,-220.5 5,-239.5 109,-239.5 109,-220.5 5,-220.5"/>
<text text-anchor="middle" x="57" y="-227.5" font-family="Helvetica,sans-Serif" font-size="10.00">trippingcyril::Module</text>
</a>
</g>
</g>
<!-- Node4&#45;&gt;Node3 -->
<g id="edge3" class="edge"><title>Node4&#45;&gt;Node3</title>
<path fill="none" stroke="#9a32cd" stroke-dasharray="5,2" d="M58.03,-210.46C58.7091,-198.236 59.5851,-182.468 60.2094,-171.232"/>
<polygon fill="#9a32cd" stroke="#9a32cd" points="54.5347,-210.279 57.4746,-220.458 61.524,-210.667 54.5347,-210.279"/>
<text text-anchor="middle" x="77.5" y="-193.5" font-family="Helvetica,sans-Serif" font-size="10.00"> module</text>
</g>
<!-- Node5 -->
<g id="node5" class="node"><title>Node5</title>
<g id="a_node5"><a xlink:href="classtrippingcyril_1_1_writer.html" target="_top" xlink:title="Writer class to provide a general writing operation so it&#39;s easier to write wrapper classes for write...">
<polygon fill="none" stroke="black" points="142,-146.5 142,-165.5 240,-165.5 240,-146.5 142,-146.5"/>
<text text-anchor="middle" x="191" y="-153.5" font-family="Helvetica,sans-Serif" font-size="10.00">trippingcyril::Writer</text>
</a>
</g>
</g>
<!-- Node5&#45;&gt;Node2 -->
<g id="edge4" class="edge"><title>Node5&#45;&gt;Node2</title>
<path fill="none" stroke="midnightblue" d="M191,-136.107C191,-125.063 191,-111.349 191,-101.223"/>
<polygon fill="midnightblue" stroke="midnightblue" points="187.5,-136.388 191,-146.388 194.5,-136.388 187.5,-136.388"/>
</g>
<!-- Node6 -->
<g id="node6" class="node"><title>Node6</title>
<g id="a_node6"><a xlink:href="classtrippingcyril_1_1_should_delete.html" target="_top" xlink:title="A simple interface to determine if the object should be deleted or not. ">
<polygon fill="none" stroke="black" points="127.5,-220.5 127.5,-239.5 258.5,-239.5 258.5,-220.5 127.5,-220.5"/>
<text text-anchor="middle" x="193" y="-227.5" font-family="Helvetica,sans-Serif" font-size="10.00">trippingcyril::ShouldDelete</text>
</a>
</g>
</g>
<!-- Node6&#45;&gt;Node5 -->
<g id="edge5" class="edge"><title>Node6&#45;&gt;Node5</title>
<path fill="none" stroke="midnightblue" d="M192.477,-210.156C192.075,-195.712 191.541,-176.459 191.237,-165.531"/>
<polygon fill="midnightblue" stroke="midnightblue" points="188.986,-210.559 192.763,-220.458 195.984,-210.365 188.986,-210.559"/>
</g>
<!-- Node7 -->
<g id="node7" class="node"><title>Node7</title>
<g id="a_node7"><a xlink:href="classtrippingcyril_1_1_closable.html" target="_top" xlink:title="Writer class to provide a general closing operation. ">
<polygon fill="none" stroke="black" points="258,-146.5 258,-165.5 368,-165.5 368,-146.5 258,-146.5"/>
<text text-anchor="middle" x="313" y="-153.5" font-family="Helvetica,sans-Serif" font-size="10.00">trippingcyril::Closable</text>
</a>
</g>
</g>
<!-- Node7&#45;&gt;Node2 -->
<g id="edge6" class="edge"><title>Node7&#45;&gt;Node2</title>
<path fill="none" stroke="midnightblue" d="M288.654,-141.43C267.759,-129.784 237.744,-113.054 216.517,-101.223"/>
<polygon fill="midnightblue" stroke="midnightblue" points="287.11,-144.576 297.549,-146.388 290.518,-138.462 287.11,-144.576"/>
</g>
</g>
</svg>
