<?xml version="1.0" encoding="UTF-8" standalone="no"?>
<!DOCTYPE svg PUBLIC "-//W3C//DTD SVG 1.1//EN"
 "http://www.w3.org/Graphics/SVG/1.1/DTD/svg11.dtd">
<!-- Generated by graphviz version 2.34.0 (20140110.0949)
 -->
<!-- Title: trippingcyril::Pipe Pages: 1 -->
<svg width="262pt" height="152pt"
 viewBox="0.00 0.00 262.00 152.00" xmlns="http://www.w3.org/2000/svg" xmlns:xlink="http://www.w3.org/1999/xlink">
<g id="graph0" class="graph" transform="scale(1 1) rotate(0) translate(4 148)">
<title>trippingcyril::Pipe</title>
<!-- Node1 -->
<g id="node1" class="node"><title>Node1</title>
<polygon fill="#bfbfbf" stroke="black" points="79,-0.5 79,-19.5 171,-19.5 171,-0.5 79,-0.5"/>
<text text-anchor="middle" x="125" y="-7.5" font-family="Helvetica,sans-Serif" font-size="10.00">trippingcyril::Pipe</text>
</g>
<!-- Node2 -->
<g id="node2" class="node"><title>Node2</title>
<g id="a_node2"><a xlink:href="classtrippingcyril_1_1trippingcyril_1_1_event.html" target="_top" xlink:title="Event class to automatically register and unregister event driven classes with modules, simply implement this from any event driven class. ">
<polygon fill="none" stroke="black" points="0,-57 0,-87 122,-87 122,-57 0,-57"/>
<text text-anchor="start" x="8" y="-75" font-family="Helvetica,sans-Serif" font-size="10.00">trippingcyril::trippingcyril</text>
<text text-anchor="middle" x="61" y="-64" font-family="Helvetica,sans-Serif" font-size="10.00">::Event</text>
</a>
</g>
</g>
<!-- Node2&#45;&gt;Node1 -->
<g id="edge1" class="edge"><title>Node2&#45;&gt;Node1</title>
<path fill="none" stroke="midnightblue" d="M83.4837,-49.9216C94.5432,-39.5533 107.271,-27.6209 115.687,-19.7305"/>
<polygon fill="midnightblue" stroke="midnightblue" points="81.0687,-47.388 76.1671,-56.7808 85.8563,-52.4948 81.0687,-47.388"/>
</g>
<!-- Node3 -->
<g id="node3" class="node"><title>Node3</title>
<g id="a_node3"><a xlink:href="classtrippingcyril_1_1_writer.html" target="_top" xlink:title="Writer class to provide a general writing operation so it&#39;s easier to write wrapper classes for write...">
<polygon fill="none" stroke="black" points="140,-62.5 140,-81.5 238,-81.5 238,-62.5 140,-62.5"/>
<text text-anchor="middle" x="189" y="-69.5" font-family="Helvetica,sans-Serif" font-size="10.00">trippingcyril::Writer</text>
</a>
</g>
</g>
<!-- Node3&#45;&gt;Node1 -->
<g id="edge2" class="edge"><title>Node3&#45;&gt;Node1</title>
<path fill="none" stroke="midnightblue" d="M172.489,-55.5206C160.287,-44.0815 144.126,-28.9305 134.153,-19.5806"/>
<polygon fill="midnightblue" stroke="midnightblue" points="170.141,-58.1174 179.83,-62.4035 174.929,-53.0106 170.141,-58.1174"/>
</g>
<!-- Node4 -->
<g id="node4" class="node"><title>Node4</title>
<g id="a_node4"><a xlink:href="classtrippingcyril_1_1_should_delete.html" target="_top" xlink:title="A simple interface to determine if the object should be deleted or not. ">
<polygon fill="none" stroke="black" points="123.5,-124.5 123.5,-143.5 254.5,-143.5 254.5,-124.5 123.5,-124.5"/>
<text text-anchor="middle" x="189" y="-131.5" font-family="Helvetica,sans-Serif" font-size="10.00">trippingcyril::ShouldDelete</text>
</a>
</g>
</g>
<!-- Node4&#45;&gt;Node3 -->
<g id="edge3" class="edge"><title>Node4&#45;&gt;Node3</title>
<path fill="none" stroke="midnightblue" d="M189,-114.16C189,-103.248 189,-90.04 189,-81.5806"/>
<polygon fill="midnightblue" stroke="midnightblue" points="185.5,-114.403 189,-124.403 192.5,-114.403 185.5,-114.403"/>
</g>
</g>
</svg>
