<?xml version="1.0" encoding="UTF-8" standalone="no"?>
<!DOCTYPE svg PUBLIC "-//W3C//DTD SVG 1.1//EN"
 "http://www.w3.org/Graphics/SVG/1.1/DTD/svg11.dtd">
<!-- Generated by graphviz version 2.34.0 (20140110.0949)
 -->
<!-- Title: trippingcyril::Pipe Pages: 1 -->
<svg width="261pt" height="154pt"
 viewBox="0.00 0.00 261.00 154.00" xmlns="http://www.w3.org/2000/svg" xmlns:xlink="http://www.w3.org/1999/xlink">
<g id="graph0" class="graph" transform="scale(1 1) rotate(0) translate(4 150)">
<title>trippingcyril::Pipe</title>
<!-- Node1 -->
<g id="node1" class="node"><title>Node1</title>
<polygon fill="#bfbfbf" stroke="black" points="86,-0.5 86,-19.5 178,-19.5 178,-0.5 86,-0.5"/>
<text text-anchor="middle" x="132" y="-7.5" font-family="Helvetica,sans-Serif" font-size="10.00">trippingcyril::Pipe</text>
</g>
<!-- Node2 -->
<g id="node2" class="node"><title>Node2</title>
<g id="a_node2"><a xlink:href="classtrippingcyril_1_1_event.html" target="_top" xlink:title="Event class to automatically register and unregister event driven classes with modules, simply implement this from any event driven class. ">
<polygon fill="none" stroke="black" points="8,-58.5 8,-77.5 106,-77.5 106,-58.5 8,-58.5"/>
<text text-anchor="middle" x="57" y="-65.5" font-family="Helvetica,sans-Serif" font-size="10.00">trippingcyril::Event</text>
</a>
</g>
</g>
<!-- Node2&#45;&gt;Node1 -->
<g id="edge1" class="edge"><title>Node2&#45;&gt;Node1</title>
<path fill="none" stroke="midnightblue" d="M76.4265,-52.4949C90.4051,-42.0575 108.787,-28.3321 120.502,-19.5852"/>
<polygon fill="midnightblue" stroke="midnightblue" points="74.3097,-49.7074 68.3909,-58.4948 78.4977,-55.3164 74.3097,-49.7074"/>
</g>
<!-- Node3 -->
<g id="node3" class="node"><title>Node3</title>
<g id="a_node3"><a xlink:href="classtrippingcyril_1_1_module.html" target="_top" xlink:title="Base class for modules. ">
<polygon fill="none" stroke="black" points="0,-126.5 0,-145.5 104,-145.5 104,-126.5 0,-126.5"/>
<text text-anchor="middle" x="52" y="-133.5" font-family="Helvetica,sans-Serif" font-size="10.00">trippingcyril::Module</text>
</a>
</g>
</g>
<!-- Node3&#45;&gt;Node2 -->
<g id="edge2" class="edge"><title>Node3&#45;&gt;Node2</title>
<path fill="none" stroke="#9a32cd" stroke-dasharray="5,2" d="M53.4363,-116.041C54.3885,-103.472 55.5937,-87.5631 56.3302,-77.8411"/>
<polygon fill="#9a32cd" stroke="#9a32cd" points="49.9192,-116.136 52.6537,-126.372 56.8992,-116.665 49.9192,-116.136"/>
<text text-anchor="middle" x="72.5" y="-99.5" font-family="Helvetica,sans-Serif" font-size="10.00"> module</text>
</g>
<!-- Node4 -->
<g id="node4" class="node"><title>Node4</title>
<g id="a_node4"><a xlink:href="classtrippingcyril_1_1_writer.html" target="_top" xlink:title="Writer class to provide a general writing operation so it&#39;s easier to write wrapper classes for write...">
<polygon fill="none" stroke="black" points="134,-58.5 134,-77.5 232,-77.5 232,-58.5 134,-58.5"/>
<text text-anchor="middle" x="183" y="-65.5" font-family="Helvetica,sans-Serif" font-size="10.00">trippingcyril::Writer</text>
</a>
</g>
</g>
<!-- Node4&#45;&gt;Node1 -->
<g id="edge3" class="edge"><title>Node4&#45;&gt;Node1</title>
<path fill="none" stroke="midnightblue" d="M168.191,-50.739C158.889,-40.5255 147.27,-27.7674 139.746,-19.5052"/>
<polygon fill="midnightblue" stroke="midnightblue" points="165.71,-53.2132 175.031,-58.25 170.886,-48.4999 165.71,-53.2132"/>
</g>
<!-- Node5 -->
<g id="node5" class="node"><title>Node5</title>
<g id="a_node5"><a xlink:href="classtrippingcyril_1_1_should_delete.html" target="_top" xlink:title="A simple interface to determine if the object should be deleted or not. ">
<polygon fill="none" stroke="black" points="122.5,-126.5 122.5,-145.5 253.5,-145.5 253.5,-126.5 122.5,-126.5"/>
<text text-anchor="middle" x="188" y="-133.5" font-family="Helvetica,sans-Serif" font-size="10.00">trippingcyril::ShouldDelete</text>
</a>
</g>
</g>
<!-- Node5&#45;&gt;Node4 -->
<g id="edge4" class="edge"><title>Node5&#45;&gt;Node4</title>
<path fill="none" stroke="midnightblue" d="M186.564,-116.041C185.612,-103.472 184.406,-87.5631 183.67,-77.8411"/>
<polygon fill="midnightblue" stroke="midnightblue" points="183.101,-116.665 187.346,-126.372 190.081,-116.136 183.101,-116.665"/>
</g>
</g>
</svg>
