<?xml version="1.0" encoding="UTF-8" standalone="no"?>
<!DOCTYPE svg PUBLIC "-//W3C//DTD SVG 1.1//EN"
 "http://www.w3.org/Graphics/SVG/1.1/DTD/svg11.dtd">
<!-- Generated by graphviz version 2.34.0 (20140110.0949)
 -->
<!-- Title: trippingcyril::net::http::SimpleHTTPSocket Pages: 1 -->
<svg width="350pt" height="220pt"
 viewBox="0.00 0.00 350.00 220.00" xmlns="http://www.w3.org/2000/svg" xmlns:xlink="http://www.w3.org/1999/xlink">
<g id="graph0" class="graph" transform="scale(1 1) rotate(0) translate(4 216)">
<title>trippingcyril::net::http::SimpleHTTPSocket</title>
<!-- Node1 -->
<g id="node1" class="node"><title>Node1</title>
<polygon fill="#bfbfbf" stroke="black" points="99,-1 99,-31 231,-31 231,-1 99,-1"/>
<text text-anchor="start" x="107" y="-19" font-family="Helvetica,sans-Serif" font-size="10.00">trippingcyril::net</text>
<text text-anchor="middle" x="165" y="-8" font-family="Helvetica,sans-Serif" font-size="10.00">::http::SimpleHTTPSocket</text>
</g>
<!-- Node2 -->
<g id="node2" class="node"><title>Node2</title>
<g id="a_node2"><a xlink:href="classtrippingcyril_1_1net_1_1_socket.html" target="_top" xlink:title="General tcp socket class, fully async using libevent. ">
<polygon fill="none" stroke="black" points="122,-69 122,-99 208,-99 208,-69 122,-69"/>
<text text-anchor="start" x="130" y="-87" font-family="Helvetica,sans-Serif" font-size="10.00">trippingcyril::net</text>
<text text-anchor="middle" x="165" y="-76" font-family="Helvetica,sans-Serif" font-size="10.00">::Socket</text>
</a>
</g>
</g>
<!-- Node2&#45;&gt;Node1 -->
<g id="edge1" class="edge"><title>Node2&#45;&gt;Node1</title>
<path fill="none" stroke="midnightblue" d="M165,-58.5322C165,-49.3606 165,-39.2449 165,-31.2931"/>
<polygon fill="midnightblue" stroke="midnightblue" points="161.5,-58.6789 165,-68.679 168.5,-58.679 161.5,-58.6789"/>
</g>
<!-- Node3 -->
<g id="node3" class="node"><title>Node3</title>
<g id="a_node3"><a xlink:href="classtrippingcyril_1_1_event.html" target="_top" xlink:title="Event class to automatically register and unregister event driven classes with modules, simply implement this from any event driven class. ">
<polygon fill="none" stroke="black" points="0,-136.5 0,-155.5 98,-155.5 98,-136.5 0,-136.5"/>
<text text-anchor="middle" x="49" y="-143.5" font-family="Helvetica,sans-Serif" font-size="10.00">trippingcyril::Event</text>
</a>
</g>
</g>
<!-- Node3&#45;&gt;Node2 -->
<g id="edge2" class="edge"><title>Node3&#45;&gt;Node2</title>
<path fill="none" stroke="midnightblue" d="M74.7212,-131.696C93.3962,-122.036 118.622,-108.989 137.661,-99.1408"/>
<polygon fill="midnightblue" stroke="midnightblue" points="72.8942,-128.7 65.62,-136.403 76.1102,-134.918 72.8942,-128.7"/>
</g>
<!-- Node4 -->
<g id="node4" class="node"><title>Node4</title>
<g id="a_node4"><a xlink:href="classtrippingcyril_1_1_writer.html" target="_top" xlink:title="Writer class to provide a general writing operation so it&#39;s easier to write wrapper classes for write...">
<polygon fill="none" stroke="black" points="116,-136.5 116,-155.5 214,-155.5 214,-136.5 116,-136.5"/>
<text text-anchor="middle" x="165" y="-143.5" font-family="Helvetica,sans-Serif" font-size="10.00">trippingcyril::Writer</text>
</a>
</g>
</g>
<!-- Node4&#45;&gt;Node2 -->
<g id="edge3" class="edge"><title>Node4&#45;&gt;Node2</title>
<path fill="none" stroke="midnightblue" d="M165,-126.371C165,-117.585 165,-107.272 165,-99.1408"/>
<polygon fill="midnightblue" stroke="midnightblue" points="161.5,-126.403 165,-136.403 168.5,-126.403 161.5,-126.403"/>
</g>
<!-- Node5 -->
<g id="node5" class="node"><title>Node5</title>
<g id="a_node5"><a xlink:href="classtrippingcyril_1_1_should_delete.html" target="_top" xlink:title="A simple interface to determine if the object should be deleted or not. ">
<polygon fill="none" stroke="black" points="99.5,-192.5 99.5,-211.5 230.5,-211.5 230.5,-192.5 99.5,-192.5"/>
<text text-anchor="middle" x="165" y="-199.5" font-family="Helvetica,sans-Serif" font-size="10.00">trippingcyril::ShouldDelete</text>
</a>
</g>
</g>
<!-- Node5&#45;&gt;Node4 -->
<g id="edge4" class="edge"><title>Node5&#45;&gt;Node4</title>
<path fill="none" stroke="midnightblue" d="M165,-181.805C165,-172.91 165,-162.78 165,-155.751"/>
<polygon fill="midnightblue" stroke="midnightblue" points="161.5,-182.083 165,-192.083 168.5,-182.083 161.5,-182.083"/>
</g>
<!-- Node6 -->
<g id="node6" class="node"><title>Node6</title>
<g id="a_node6"><a xlink:href="classtrippingcyril_1_1_closable.html" target="_top" xlink:title="Writer class to provide a general closing operation. ">
<polygon fill="none" stroke="black" points="232,-136.5 232,-155.5 342,-155.5 342,-136.5 232,-136.5"/>
<text text-anchor="middle" x="287" y="-143.5" font-family="Helvetica,sans-Serif" font-size="10.00">trippingcyril::Closable</text>
</a>
</g>
</g>
<!-- Node6&#45;&gt;Node2 -->
<g id="edge5" class="edge"><title>Node6&#45;&gt;Node2</title>
<path fill="none" stroke="midnightblue" d="M260.487,-131.961C240.795,-122.276 213.961,-109.079 193.753,-99.1408"/>
<polygon fill="midnightblue" stroke="midnightblue" points="259.002,-135.131 269.52,-136.403 262.092,-128.849 259.002,-135.131"/>
</g>
</g>
</svg>
