<?xml version="1.0" encoding="UTF-8" standalone="no"?>
<!DOCTYPE svg PUBLIC "-//W3C//DTD SVG 1.1//EN"
 "http://www.w3.org/Graphics/SVG/1.1/DTD/svg11.dtd">
<!-- Generated by graphviz version 2.34.0 (20140110.0949)
 -->
<!-- Title: trippingcyril::Event Pages: 1 -->
<svg width="458pt" height="444pt"
 viewBox="0.00 0.00 458.00 444.00" xmlns="http://www.w3.org/2000/svg" xmlns:xlink="http://www.w3.org/1999/xlink">
<g id="graph0" class="graph" transform="scale(1 1) rotate(0) translate(4 440)">
<title>trippingcyril::Event</title>
<!-- Node1 -->
<g id="node1" class="node"><title>Node1</title>
<polygon fill="#bfbfbf" stroke="black" points="0,-191.5 0,-210.5 98,-210.5 98,-191.5 0,-191.5"/>
<text text-anchor="middle" x="49" y="-198.5" font-family="Helvetica,sans-Serif" font-size="10.00">trippingcyril::Event</text>
</g>
<!-- Node2 -->
<g id="node2" class="node"><title>Node2</title>
<g id="a_node2"><a xlink:href="classtrippingcyril_1_1database_1_1_database.html" target="_top" xlink:title="Database interface. ">
<polygon fill="none" stroke="black" points="145,-382 145,-412 257,-412 257,-382 145,-382"/>
<text text-anchor="start" x="153" y="-400" font-family="Helvetica,sans-Serif" font-size="10.00">trippingcyril::database</text>
<text text-anchor="middle" x="201" y="-389" font-family="Helvetica,sans-Serif" font-size="10.00">::Database</text>
</a>
</g>
</g>
<!-- Node1&#45;&gt;Node2 -->
<g id="edge1" class="edge"><title>Node1&#45;&gt;Node2</title>
<path fill="none" stroke="midnightblue" d="M54.5444,-220.586C63.6606,-255.695 87.4161,-329.623 134,-372 138.26,-375.875 143.18,-379.17 148.375,-381.967"/>
<polygon fill="midnightblue" stroke="midnightblue" points="57.8838,-219.51 52.0885,-210.64 51.0879,-221.188 57.8838,-219.51"/>
</g>
<!-- Node5 -->
<g id="node5" class="node"><title>Node5</title>
<g id="a_node5"><a xlink:href="classtrippingcyril_1_1net_1_1dns_1_1_i_pv4_lookup.html" target="_top" xlink:title="A simple IPv4 lookup event. ">
<polygon fill="none" stroke="black" points="153,-333 153,-363 249,-363 249,-333 153,-333"/>
<text text-anchor="start" x="161" y="-351" font-family="Helvetica,sans-Serif" font-size="10.00">trippingcyril::net</text>
<text text-anchor="middle" x="201" y="-340" font-family="Helvetica,sans-Serif" font-size="10.00">::dns::IPv4Lookup</text>
</a>
</g>
</g>
<!-- Node1&#45;&gt;Node5 -->
<g id="edge4" class="edge"><title>Node1&#45;&gt;Node5</title>
<path fill="none" stroke="midnightblue" d="M58.5394,-220.063C71.341,-246.63 97.9121,-294.705 134,-323 139.593,-327.385 146.039,-331.066 152.665,-334.138"/>
<polygon fill="midnightblue" stroke="midnightblue" points="61.5788,-218.299 54.1793,-210.717 55.2351,-221.259 61.5788,-218.299"/>
</g>
<!-- Node6 -->
<g id="node6" class="node"><title>Node6</title>
<g id="a_node6"><a xlink:href="classtrippingcyril_1_1net_1_1dns_1_1_i_pv4_reverse_lookup.html" target="_top" xlink:title="Do a reverse ipv4 lookup. ">
<polygon fill="none" stroke="black" points="134.5,-284 134.5,-314 267.5,-314 267.5,-284 134.5,-284"/>
<text text-anchor="start" x="142.5" y="-302" font-family="Helvetica,sans-Serif" font-size="10.00">trippingcyril::net</text>
<text text-anchor="middle" x="201" y="-291" font-family="Helvetica,sans-Serif" font-size="10.00">::dns::IPv4ReverseLookup</text>
</a>
</g>
</g>
<!-- Node1&#45;&gt;Node6 -->
<g id="edge5" class="edge"><title>Node1&#45;&gt;Node6</title>
<path fill="none" stroke="midnightblue" d="M65.9473,-217.979C81.9005,-234.163 107.777,-258.325 134,-274 140.205,-277.709 147.056,-281.036 153.925,-283.961"/>
<polygon fill="midnightblue" stroke="midnightblue" points="68.4221,-215.503 58.9549,-210.747 63.3897,-220.369 68.4221,-215.503"/>
</g>
<!-- Node7 -->
<g id="node7" class="node"><title>Node7</title>
<g id="a_node7"><a xlink:href="classtrippingcyril_1_1net_1_1_listener.html" target="_top" xlink:title="Generic listener class. ">
<polygon fill="none" stroke="black" points="158,-235 158,-265 244,-265 244,-235 158,-235"/>
<text text-anchor="start" x="166" y="-253" font-family="Helvetica,sans-Serif" font-size="10.00">trippingcyril::net</text>
<text text-anchor="middle" x="201" y="-242" font-family="Helvetica,sans-Serif" font-size="10.00">::Listener</text>
</a>
</g>
</g>
<!-- Node1&#45;&gt;Node7 -->
<g id="edge6" class="edge"><title>Node1&#45;&gt;Node7</title>
<path fill="none" stroke="midnightblue" d="M88.8925,-213.705C110.003,-220.601 136.126,-229.135 157.738,-236.194"/>
<polygon fill="midnightblue" stroke="midnightblue" points="89.8701,-210.342 79.2776,-210.564 87.6964,-216.996 89.8701,-210.342"/>
</g>
<!-- Node8 -->
<g id="node8" class="node"><title>Node8</title>
<g id="a_node8"><a xlink:href="classtrippingcyril_1_1net_1_1_socket.html" target="_top" xlink:title="General tcp socket class, fully async using libevent. ">
<polygon fill="none" stroke="black" points="158,-186 158,-216 244,-216 244,-186 158,-186"/>
<text text-anchor="start" x="166" y="-204" font-family="Helvetica,sans-Serif" font-size="10.00">trippingcyril::net</text>
<text text-anchor="middle" x="201" y="-193" font-family="Helvetica,sans-Serif" font-size="10.00">::Socket</text>
</a>
</g>
</g>
<!-- Node1&#45;&gt;Node8 -->
<g id="edge7" class="edge"><title>Node1&#45;&gt;Node8</title>
<path fill="none" stroke="midnightblue" d="M108.386,-201C124.889,-201 142.522,-201 157.867,-201"/>
<polygon fill="midnightblue" stroke="midnightblue" points="108.287,-197.5 98.2866,-201 108.287,-204.5 108.287,-197.5"/>
</g>
<!-- Node10 -->
<g id="node10" class="node"><title>Node10</title>
<g id="a_node10"><a xlink:href="classtrippingcyril_1_1_pipe.html" target="_top" xlink:title="A wrapper class for pipes. ">
<polygon fill="none" stroke="black" points="155,-147.5 155,-166.5 247,-166.5 247,-147.5 155,-147.5"/>
<text text-anchor="middle" x="201" y="-154.5" font-family="Helvetica,sans-Serif" font-size="10.00">trippingcyril::Pipe</text>
</a>
</g>
</g>
<!-- Node1&#45;&gt;Node10 -->
<g id="edge9" class="edge"><title>Node1&#45;&gt;Node10</title>
<path fill="none" stroke="midnightblue" d="M91.837,-188.468C105.292,-184.459 120.269,-180.02 134,-176 144.642,-172.885 156.263,-169.525 166.746,-166.51"/>
<polygon fill="midnightblue" stroke="midnightblue" points="90.4724,-185.223 81.8904,-191.436 92.4736,-191.931 90.4724,-185.223"/>
</g>
<!-- Node11 -->
<g id="node11" class="node"><title>Node11</title>
<g id="a_node11"><a xlink:href="classtrippingcyril_1_1thread_1_1_thread.html" target="_top" xlink:title="Simple thread class. ">
<polygon fill="none" stroke="black" points="151.5,-98 151.5,-128 250.5,-128 250.5,-98 151.5,-98"/>
<text text-anchor="start" x="159.5" y="-116" font-family="Helvetica,sans-Serif" font-size="10.00">trippingcyril::thread</text>
<text text-anchor="middle" x="201" y="-105" font-family="Helvetica,sans-Serif" font-size="10.00">::Thread</text>
</a>
</g>
</g>
<!-- Node1&#45;&gt;Node11 -->
<g id="edge10" class="edge"><title>Node1&#45;&gt;Node11</title>
<path fill="none" stroke="midnightblue" d="M68.4413,-184.751C84.799,-170.949 109.788,-151.315 134,-138 140.657,-134.339 147.96,-130.985 155.207,-128.004"/>
<polygon fill="midnightblue" stroke="midnightblue" points="66.0341,-182.205 60.7239,-191.373 70.5923,-187.517 66.0341,-182.205"/>
</g>
<!-- Node14 -->
<g id="node14" class="node"><title>Node14</title>
<g id="a_node14"><a xlink:href="classtrippingcyril_1_1timing_1_1_backoff_timer.html" target="_top" xlink:title="General backoff timer. ">
<polygon fill="none" stroke="black" points="152,-49 152,-79 250,-79 250,-49 152,-49"/>
<text text-anchor="start" x="160" y="-67" font-family="Helvetica,sans-Serif" font-size="10.00">trippingcyril::timing</text>
<text text-anchor="middle" x="201" y="-56" font-family="Helvetica,sans-Serif" font-size="10.00">::BackoffTimer</text>
</a>
</g>
</g>
<!-- Node1&#45;&gt;Node14 -->
<g id="edge13" class="edge"><title>Node1&#45;&gt;Node14</title>
<path fill="none" stroke="midnightblue" d="M59.4237,-182.228C72.7984,-157.363 99.5388,-113.667 134,-88 139.378,-83.9944 145.492,-80.6022 151.776,-77.7447"/>
<polygon fill="midnightblue" stroke="midnightblue" points="56.1941,-180.851 54.6714,-191.336 62.4002,-184.089 56.1941,-180.851"/>
</g>
<!-- Node15 -->
<g id="node15" class="node"><title>Node15</title>
<g id="a_node15"><a xlink:href="classtrippingcyril_1_1timing_1_1_timer.html" target="_top" xlink:title="General timer class. ">
<polygon fill="none" stroke="black" points="152,-0 152,-30 250,-30 250,-0 152,-0"/>
<text text-anchor="start" x="160" y="-18" font-family="Helvetica,sans-Serif" font-size="10.00">trippingcyril::timing</text>
<text text-anchor="middle" x="201" y="-7" font-family="Helvetica,sans-Serif" font-size="10.00">::Timer</text>
</a>
</g>
</g>
<!-- Node1&#45;&gt;Node15 -->
<g id="edge14" class="edge"><title>Node1&#45;&gt;Node15</title>
<path fill="none" stroke="midnightblue" d="M55.0545,-181.462C64.7491,-147.739 89.0861,-78.4408 134,-39 139.222,-34.4143 145.391,-30.6809 151.825,-27.6475"/>
<polygon fill="midnightblue" stroke="midnightblue" points="51.5876,-180.871 52.3195,-191.44 58.3386,-182.721 51.5876,-180.871"/>
</g>
<!-- Node3 -->
<g id="node3" class="node"><title>Node3</title>
<g id="a_node3"><a xlink:href="classtrippingcyril_1_1database_1_1postgres_1_1_blocking_post_gres.html" target="_top" xlink:title="A blocking postgresql implementation of the Database interface. ">
<polygon fill="none" stroke="black" points="304.5,-406 304.5,-436 449.5,-436 449.5,-406 304.5,-406"/>
<text text-anchor="start" x="312.5" y="-424" font-family="Helvetica,sans-Serif" font-size="10.00">trippingcyril::database</text>
<text text-anchor="middle" x="377" y="-413" font-family="Helvetica,sans-Serif" font-size="10.00">::postgres::BlockingPostGres</text>
</a>
</g>
</g>
<!-- Node2&#45;&gt;Node3 -->
<g id="edge2" class="edge"><title>Node2&#45;&gt;Node3</title>
<path fill="none" stroke="midnightblue" d="M267.11,-405.981C279.279,-407.659 292.059,-409.422 304.411,-411.126"/>
<polygon fill="midnightblue" stroke="midnightblue" points="267.439,-402.493 257.055,-404.594 266.483,-409.427 267.439,-402.493"/>
</g>
<!-- Node4 -->
<g id="node4" class="node"><title>Node4</title>
<g id="a_node4"><a xlink:href="classtrippingcyril_1_1database_1_1postgres_1_1_post_gres.html" target="_top" xlink:title="A non blocking postgresql implementation of the Database interface. ">
<polygon fill="none" stroke="black" points="321,-357 321,-387 433,-387 433,-357 321,-357"/>
<text text-anchor="start" x="329" y="-375" font-family="Helvetica,sans-Serif" font-size="10.00">trippingcyril::database</text>
<text text-anchor="middle" x="377" y="-364" font-family="Helvetica,sans-Serif" font-size="10.00">::postgres::PostGres</text>
</a>
</g>
</g>
<!-- Node2&#45;&gt;Node4 -->
<g id="edge3" class="edge"><title>Node2&#45;&gt;Node4</title>
<path fill="none" stroke="midnightblue" d="M267.246,-387.626C284.843,-385.097 303.71,-382.387 320.706,-379.945"/>
<polygon fill="midnightblue" stroke="midnightblue" points="266.455,-384.203 257.055,-389.09 267.451,-391.132 266.455,-384.203"/>
</g>
<!-- Node9 -->
<g id="node9" class="node"><title>Node9</title>
<g id="a_node9"><a xlink:href="classtrippingcyril_1_1net_1_1http_1_1_simple_h_t_t_p_socket.html" target="_top" xlink:title="A simple http client. ">
<polygon fill="none" stroke="black" points="311,-186 311,-216 443,-216 443,-186 311,-186"/>
<text text-anchor="start" x="319" y="-204" font-family="Helvetica,sans-Serif" font-size="10.00">trippingcyril::net</text>
<text text-anchor="middle" x="377" y="-193" font-family="Helvetica,sans-Serif" font-size="10.00">::http::SimpleHTTPSocket</text>
</a>
</g>
</g>
<!-- Node8&#45;&gt;Node9 -->
<g id="edge8" class="edge"><title>Node8&#45;&gt;Node9</title>
<path fill="none" stroke="midnightblue" d="M254.296,-201C272.08,-201 292.177,-201 310.841,-201"/>
<polygon fill="midnightblue" stroke="midnightblue" points="254.121,-197.5 244.121,-201 254.121,-204.5 254.121,-197.5"/>
</g>
<!-- Node12 -->
<g id="node12" class="node"><title>Node12</title>
<g id="a_node12"><a xlink:href="classtrippingcyril_1_1_module_thread.html" target="_top" xlink:title="trippingcyril::ModuleThread">
<polygon fill="none" stroke="black" points="310,-125.5 310,-144.5 444,-144.5 444,-125.5 310,-125.5"/>
<text text-anchor="middle" x="377" y="-132.5" font-family="Helvetica,sans-Serif" font-size="10.00">trippingcyril::ModuleThread</text>
</a>
</g>
</g>
<!-- Node11&#45;&gt;Node12 -->
<g id="edge11" class="edge"><title>Node11&#45;&gt;Node12</title>
<path fill="none" stroke="midnightblue" d="M261.039,-120.465C276.757,-122.452 293.837,-124.612 309.906,-126.643"/>
<polygon fill="midnightblue" stroke="midnightblue" points="261.292,-116.969 250.932,-119.187 260.414,-123.914 261.292,-116.969"/>
</g>
<!-- Node13 -->
<g id="node13" class="node"><title>Node13</title>
<g id="a_node13"><a xlink:href="classtrippingcyril_1_1thread_1_1_job_thread.html" target="_top" xlink:title="A job queue that will run your jobs on a seperate thread. ">
<polygon fill="none" stroke="black" points="327.5,-76 327.5,-106 426.5,-106 426.5,-76 327.5,-76"/>
<text text-anchor="start" x="335.5" y="-94" font-family="Helvetica,sans-Serif" font-size="10.00">trippingcyril::thread</text>
<text text-anchor="middle" x="377" y="-83" font-family="Helvetica,sans-Serif" font-size="10.00">::JobThread</text>
</a>
</g>
</g>
<!-- Node11&#45;&gt;Node13 -->
<g id="edge12" class="edge"><title>Node11&#45;&gt;Node13</title>
<path fill="none" stroke="midnightblue" d="M260.988,-105.542C282.614,-102.807 306.826,-99.7462 327.436,-97.1403"/>
<polygon fill="midnightblue" stroke="midnightblue" points="260.414,-102.086 250.932,-106.813 261.292,-109.031 260.414,-102.086"/>
</g>
<!-- Node16 -->
<g id="node16" class="node"><title>Node16</title>
<g id="a_node16"><a xlink:href="classtrippingcyril_1_1timing_1_1_lamdba_timer.html" target="_top" xlink:title="trippingcyril::timing\l::LamdbaTimer">
<polygon fill="none" stroke="black" points="328,-0 328,-30 426,-30 426,-0 328,-0"/>
<text text-anchor="start" x="336" y="-18" font-family="Helvetica,sans-Serif" font-size="10.00">trippingcyril::timing</text>
<text text-anchor="middle" x="377" y="-7" font-family="Helvetica,sans-Serif" font-size="10.00">::LamdbaTimer</text>
</a>
</g>
</g>
<!-- Node15&#45;&gt;Node16 -->
<g id="edge15" class="edge"><title>Node15&#45;&gt;Node16</title>
<path fill="none" stroke="midnightblue" d="M260.21,-15C282.176,-15 306.902,-15 327.848,-15"/>
<polygon fill="midnightblue" stroke="midnightblue" points="260.007,-11.5001 250.007,-15 260.007,-18.5001 260.007,-11.5001"/>
</g>
</g>
</svg>
