<?xml version="1.0" encoding="UTF-8" standalone="no"?>
<!DOCTYPE svg PUBLIC "-//W3C//DTD SVG 1.1//EN"
 "http://www.w3.org/Graphics/SVG/1.1/DTD/svg11.dtd">
<!-- Generated by graphviz version 2.34.0 (20140110.0949)
 -->
<!-- Title: trippingcyril::net::Socket Pages: 1 -->
<svg width="376pt" height="178pt"
 viewBox="0.00 0.00 376.00 178.00" xmlns="http://www.w3.org/2000/svg" xmlns:xlink="http://www.w3.org/1999/xlink">
<g id="graph0" class="graph" transform="scale(1 1) rotate(0) translate(4 174)">
<title>trippingcyril::net::Socket</title>
<!-- Node1 -->
<g id="node1" class="node"><title>Node1</title>
<polygon fill="#bfbfbf" stroke="black" points="148,-1 148,-31 234,-31 234,-1 148,-1"/>
<text text-anchor="start" x="156" y="-19" font-family="Helvetica,sans-Serif" font-size="10.00">trippingcyril::net</text>
<text text-anchor="middle" x="191" y="-8" font-family="Helvetica,sans-Serif" font-size="10.00">::Socket</text>
</g>
<!-- Node2 -->
<g id="node2" class="node"><title>Node2</title>
<g id="a_node2"><a xlink:href="classtrippingcyril_1_1trippingcyril_1_1_event.html" target="_top" xlink:title="Event class to automatically register and unregister event driven classes with modules, simply implement this from any event driven class. ">
<polygon fill="none" stroke="black" points="0,-71 0,-101 122,-101 122,-71 0,-71"/>
<text text-anchor="start" x="8" y="-89" font-family="Helvetica,sans-Serif" font-size="10.00">trippingcyril::trippingcyril</text>
<text text-anchor="middle" x="61" y="-78" font-family="Helvetica,sans-Serif" font-size="10.00">::Event</text>
</a>
</g>
</g>
<!-- Node2&#45;&gt;Node1 -->
<g id="edge1" class="edge"><title>Node2&#45;&gt;Node1</title>
<path fill="none" stroke="midnightblue" d="M96.9852,-66.177C118.227,-55.0656 144.672,-41.2333 164.098,-31.0716"/>
<polygon fill="midnightblue" stroke="midnightblue" points="95.1748,-63.174 87.9361,-70.9104 98.4193,-69.3767 95.1748,-63.174"/>
</g>
<!-- Node3 -->
<g id="node3" class="node"><title>Node3</title>
<g id="a_node3"><a xlink:href="classtrippingcyril_1_1_module.html" target="_top" xlink:title="Base class for modules. ">
<polygon fill="none" stroke="black" points="5,-150.5 5,-169.5 109,-169.5 109,-150.5 5,-150.5"/>
<text text-anchor="middle" x="57" y="-157.5" font-family="Helvetica,sans-Serif" font-size="10.00">trippingcyril::Module</text>
</a>
</g>
</g>
<!-- Node3&#45;&gt;Node2 -->
<g id="edge2" class="edge"><title>Node3&#45;&gt;Node2</title>
<path fill="none" stroke="#9a32cd" stroke-dasharray="5,2" d="M58.03,-140.46C58.7091,-128.236 59.5851,-112.468 60.2094,-101.232"/>
<polygon fill="#9a32cd" stroke="#9a32cd" points="54.5347,-140.279 57.4746,-150.458 61.524,-140.667 54.5347,-140.279"/>
<text text-anchor="middle" x="77.5" y="-123.5" font-family="Helvetica,sans-Serif" font-size="10.00"> module</text>
</g>
<!-- Node4 -->
<g id="node4" class="node"><title>Node4</title>
<g id="a_node4"><a xlink:href="classtrippingcyril_1_1_writer.html" target="_top" xlink:title="Writer class to provide a general writing operation so it&#39;s easier to write wrapper classes for write...">
<polygon fill="none" stroke="black" points="142,-76.5 142,-95.5 240,-95.5 240,-76.5 142,-76.5"/>
<text text-anchor="middle" x="191" y="-83.5" font-family="Helvetica,sans-Serif" font-size="10.00">trippingcyril::Writer</text>
</a>
</g>
</g>
<!-- Node4&#45;&gt;Node1 -->
<g id="edge3" class="edge"><title>Node4&#45;&gt;Node1</title>
<path fill="none" stroke="midnightblue" d="M191,-66.107C191,-55.0626 191,-41.3487 191,-31.2227"/>
<polygon fill="midnightblue" stroke="midnightblue" points="187.5,-66.3877 191,-76.3878 194.5,-66.3878 187.5,-66.3877"/>
</g>
<!-- Node5 -->
<g id="node5" class="node"><title>Node5</title>
<g id="a_node5"><a xlink:href="classtrippingcyril_1_1_should_delete.html" target="_top" xlink:title="A simple interface to determine if the object should be deleted or not. ">
<polygon fill="none" stroke="black" points="127.5,-150.5 127.5,-169.5 258.5,-169.5 258.5,-150.5 127.5,-150.5"/>
<text text-anchor="middle" x="193" y="-157.5" font-family="Helvetica,sans-Serif" font-size="10.00">trippingcyril::ShouldDelete</text>
</a>
</g>
</g>
<!-- Node5&#45;&gt;Node4 -->
<g id="edge4" class="edge"><title>Node5&#45;&gt;Node4</title>
<path fill="none" stroke="midnightblue" d="M192.477,-140.156C192.075,-125.712 191.541,-106.459 191.237,-95.531"/>
<polygon fill="midnightblue" stroke="midnightblue" points="188.986,-140.559 192.763,-150.458 195.984,-140.365 188.986,-140.559"/>
</g>
<!-- Node6 -->
<g id="node6" class="node"><title>Node6</title>
<g id="a_node6"><a xlink:href="classtrippingcyril_1_1_closable.html" target="_top" xlink:title="Writer class to provide a general closing operation. ">
<polygon fill="none" stroke="black" points="258,-76.5 258,-95.5 368,-95.5 368,-76.5 258,-76.5"/>
<text text-anchor="middle" x="313" y="-83.5" font-family="Helvetica,sans-Serif" font-size="10.00">trippingcyril::Closable</text>
</a>
</g>
</g>
<!-- Node6&#45;&gt;Node1 -->
<g id="edge5" class="edge"><title>Node6&#45;&gt;Node1</title>
<path fill="none" stroke="midnightblue" d="M288.654,-71.4302C267.759,-59.7838 237.744,-43.0542 216.517,-31.2227"/>
<polygon fill="midnightblue" stroke="midnightblue" points="287.11,-74.5763 297.549,-76.3878 290.518,-68.4619 287.11,-74.5763"/>
</g>
</g>
</svg>
