<?xml version="1.0" encoding="UTF-8" standalone="no"?>
<!DOCTYPE svg PUBLIC "-//W3C//DTD SVG 1.1//EN"
 "http://www.w3.org/Graphics/SVG/1.1/DTD/svg11.dtd">
<!-- Generated by graphviz version 2.34.0 (20140110.0949)
 -->
<!-- Title: include/defines.h Pages: 1 -->
<svg width="696pt" height="252pt"
 viewBox="0.00 0.00 696.00 252.00" xmlns="http://www.w3.org/2000/svg" xmlns:xlink="http://www.w3.org/1999/xlink">
<g id="graph0" class="graph" transform="scale(1 1) rotate(0) translate(4 248)">
<title>include/defines.h</title>
<!-- Node1 -->
<g id="node1" class="node"><title>Node1</title>
<polygon fill="#bfbfbf" stroke="black" points="361,-224.5 361,-243.5 451,-243.5 451,-224.5 361,-224.5"/>
<text text-anchor="middle" x="406" y="-231.5" font-family="Helvetica,sans-Serif" font-size="10.00">include/defines.h</text>
</g>
<!-- Node2 -->
<g id="node2" class="node"><title>Node2</title>
<g id="a_node2"><a xlink:href="_compressor_8h.html" target="_top" xlink:title="include/Compressor.h">
<polygon fill="none" stroke="black" points="0,-112.5 0,-131.5 112,-131.5 112,-112.5 0,-112.5"/>
<text text-anchor="middle" x="56" y="-119.5" font-family="Helvetica,sans-Serif" font-size="10.00">include/Compressor.h</text>
</a>
</g>
</g>
<!-- Node1&#45;&gt;Node2 -->
<g id="edge1" class="edge"><title>Node1&#45;&gt;Node2</title>
<path fill="none" stroke="midnightblue" d="M358.98,-222.083C323.988,-213.641 275.188,-201.199 233,-188 175.983,-170.162 110.306,-144.723 77.293,-131.586"/>
<polygon fill="midnightblue" stroke="midnightblue" points="358.379,-225.538 368.919,-224.463 360.009,-218.73 358.379,-225.538"/>
</g>
<!-- Node3 -->
<g id="node3" class="node"><title>Node3</title>
<g id="a_node3"><a xlink:href="_writer_8h.html" target="_top" xlink:title="include/Writer.h">
<polygon fill="none" stroke="black" points="272.5,-168.5 272.5,-187.5 357.5,-187.5 357.5,-168.5 272.5,-168.5"/>
<text text-anchor="middle" x="315" y="-175.5" font-family="Helvetica,sans-Serif" font-size="10.00">include/Writer.h</text>
</a>
</g>
</g>
<!-- Node1&#45;&gt;Node3 -->
<g id="edge2" class="edge"><title>Node1&#45;&gt;Node3</title>
<path fill="none" stroke="midnightblue" d="M382.706,-219.177C365.961,-209.241 343.9,-196.149 329.584,-187.655"/>
<polygon fill="midnightblue" stroke="midnightblue" points="380.993,-222.231 391.379,-224.324 384.566,-216.211 380.993,-222.231"/>
</g>
<!-- Node4 -->
<g id="node4" class="node"><title>Node4</title>
<g id="a_node4"><a xlink:href="_decompressor_8h.html" target="_top" xlink:title="include/Decompressor.h">
<polygon fill="none" stroke="black" points="130,-112.5 130,-131.5 252,-131.5 252,-112.5 130,-112.5"/>
<text text-anchor="middle" x="191" y="-119.5" font-family="Helvetica,sans-Serif" font-size="10.00">include/Decompressor.h</text>
</a>
</g>
</g>
<!-- Node1&#45;&gt;Node4 -->
<g id="edge13" class="edge"><title>Node1&#45;&gt;Node4</title>
<path fill="none" stroke="midnightblue" d="M352.749,-222.037C324.833,-214.888 290.766,-203.884 263,-188 236.104,-172.614 210.676,-145.766 198.5,-131.882"/>
<polygon fill="midnightblue" stroke="midnightblue" points="352.186,-225.503 362.733,-224.499 353.862,-218.707 352.186,-225.503"/>
</g>
<!-- Node5 -->
<g id="node5" class="node"><title>Node5</title>
<g id="a_node5"><a xlink:href="_socket_8h.html" target="_top" xlink:title="include/Socket.h">
<polygon fill="none" stroke="black" points="270.5,-112.5 270.5,-131.5 359.5,-131.5 359.5,-112.5 270.5,-112.5"/>
<text text-anchor="middle" x="315" y="-119.5" font-family="Helvetica,sans-Serif" font-size="10.00">include/Socket.h</text>
</a>
</g>
</g>
<!-- Node1&#45;&gt;Node5 -->
<g id="edge14" class="edge"><title>Node1&#45;&gt;Node5</title>
<path fill="none" stroke="midnightblue" d="M396.944,-215.235C389.568,-201.607 378.376,-182.701 366,-168 354.137,-153.908 337.794,-140.28 326.836,-131.784"/>
<polygon fill="midnightblue" stroke="midnightblue" points="394.048,-217.247 401.799,-224.471 400.244,-213.991 394.048,-217.247"/>
</g>
<!-- Node8 -->
<g id="node8" class="node"><title>Node8</title>
<g id="a_node8"><a xlink:href="_simple_h_t_t_p_socket_8h.html" target="_top" xlink:title="include/SimpleHTTPSocket.h">
<polygon fill="none" stroke="black" points="353,-56.5 353,-75.5 499,-75.5 499,-56.5 353,-56.5"/>
<text text-anchor="middle" x="426" y="-63.5" font-family="Helvetica,sans-Serif" font-size="10.00">include/SimpleHTTPSocket.h</text>
</a>
</g>
</g>
<!-- Node1&#45;&gt;Node8 -->
<g id="edge18" class="edge"><title>Node1&#45;&gt;Node8</title>
<path fill="none" stroke="midnightblue" d="M408.298,-213.93C412.636,-177.92 421.876,-101.231 424.968,-75.5681"/>
<polygon fill="midnightblue" stroke="midnightblue" points="404.797,-213.728 407.075,-224.075 411.746,-214.566 404.797,-213.728"/>
</g>
<!-- Node9 -->
<g id="node9" class="node"><title>Node9</title>
<g id="a_node9"><a xlink:href="_files_8h.html" target="_top" xlink:title="include/Files.h">
<polygon fill="none" stroke="black" points="454,-112.5 454,-131.5 534,-131.5 534,-112.5 454,-112.5"/>
<text text-anchor="middle" x="494" y="-119.5" font-family="Helvetica,sans-Serif" font-size="10.00">include/Files.h</text>
</a>
</g>
</g>
<!-- Node1&#45;&gt;Node9 -->
<g id="edge15" class="edge"><title>Node1&#45;&gt;Node9</title>
<path fill="none" stroke="midnightblue" d="M419.382,-216.272C438.405,-192.494 472.569,-149.789 487.127,-131.591"/>
<polygon fill="midnightblue" stroke="midnightblue" points="416.419,-214.373 412.905,-224.368 421.885,-218.746 416.419,-214.373"/>
</g>
<!-- Node10 -->
<g id="node10" class="node"><title>Node10</title>
<g id="a_node10"><a xlink:href="_pipe_8h.html" target="_top" xlink:title="include/Pipe.h">
<polygon fill="none" stroke="black" points="517,-56.5 517,-75.5 595,-75.5 595,-56.5 517,-56.5"/>
<text text-anchor="middle" x="556" y="-63.5" font-family="Helvetica,sans-Serif" font-size="10.00">include/Pipe.h</text>
</a>
</g>
</g>
<!-- Node1&#45;&gt;Node10 -->
<g id="edge16" class="edge"><title>Node1&#45;&gt;Node10</title>
<path fill="none" stroke="midnightblue" d="M434.702,-219.892C466.436,-203.843 516.557,-173.578 543,-132 554.24,-114.327 556.069,-88.9294 556.187,-75.7235"/>
<polygon fill="midnightblue" stroke="midnightblue" points="432.926,-216.865 425.491,-224.413 436.01,-223.149 432.926,-216.865"/>
</g>
<!-- Node12 -->
<g id="node12" class="node"><title>Node12</title>
<g id="a_node12"><a xlink:href="_postgres_8h.html" target="_top" xlink:title="include/Postgres.h">
<polygon fill="none" stroke="black" points="590,-168.5 590,-187.5 688,-187.5 688,-168.5 590,-168.5"/>
<text text-anchor="middle" x="639" y="-175.5" font-family="Helvetica,sans-Serif" font-size="10.00">include/Postgres.h</text>
</a>
</g>
</g>
<!-- Node1&#45;&gt;Node12 -->
<g id="edge17" class="edge"><title>Node1&#45;&gt;Node12</title>
<path fill="none" stroke="midnightblue" d="M452.803,-222.153C496.827,-211.95 561.847,-196.881 602.253,-187.516"/>
<polygon fill="midnightblue" stroke="midnightblue" points="451.871,-218.776 442.92,-224.444 453.452,-225.595 451.871,-218.776"/>
</g>
<!-- Node3&#45;&gt;Node2 -->
<g id="edge3" class="edge"><title>Node3&#45;&gt;Node2</title>
<path fill="none" stroke="midnightblue" d="M263.898,-166.346C214.952,-156.141 142.046,-140.94 96.8473,-131.516"/>
<polygon fill="midnightblue" stroke="midnightblue" points="263.457,-169.829 273.961,-168.444 264.886,-162.976 263.457,-169.829"/>
</g>
<!-- Node3&#45;&gt;Node4 -->
<g id="edge4" class="edge"><title>Node3&#45;&gt;Node4</title>
<path fill="none" stroke="midnightblue" d="M285.993,-164.368C262.771,-154.255 230.837,-140.349 210.556,-131.516"/>
<polygon fill="midnightblue" stroke="midnightblue" points="284.786,-167.66 295.352,-168.444 287.581,-161.242 284.786,-167.66"/>
</g>
<!-- Node3&#45;&gt;Node5 -->
<g id="edge5" class="edge"><title>Node3&#45;&gt;Node5</title>
<path fill="none" stroke="midnightblue" d="M315,-157.805C315,-148.91 315,-138.78 315,-131.751"/>
<polygon fill="midnightblue" stroke="midnightblue" points="311.5,-158.083 315,-168.083 318.5,-158.083 311.5,-158.083"/>
</g>
<!-- Node3&#45;&gt;Node9 -->
<g id="edge9" class="edge"><title>Node3&#45;&gt;Node9</title>
<path fill="none" stroke="midnightblue" d="M353.331,-165.436C387.08,-155.255 435.447,-140.664 465.77,-131.516"/>
<polygon fill="midnightblue" stroke="midnightblue" points="351.926,-162.204 343.363,-168.444 353.948,-168.906 351.926,-162.204"/>
</g>
<!-- Node3&#45;&gt;Node10 -->
<g id="edge12" class="edge"><title>Node3&#45;&gt;Node10</title>
<path fill="none" stroke="midnightblue" d="M340.37,-163.573C366.367,-149.991 408.094,-128.676 445,-112 475.13,-98.3855 510.652,-84.3237 533.245,-75.6221"/>
<polygon fill="midnightblue" stroke="midnightblue" points="338.448,-160.629 331.219,-168.375 341.7,-166.828 338.448,-160.629"/>
</g>
<!-- Node6 -->
<g id="node6" class="node"><title>Node6</title>
<g id="a_node6"><a xlink:href="_d_n_s_8h.html" target="_top" xlink:title="include/DNS.h">
<polygon fill="none" stroke="black" points="143,-56.5 143,-75.5 223,-75.5 223,-56.5 143,-56.5"/>
<text text-anchor="middle" x="183" y="-63.5" font-family="Helvetica,sans-Serif" font-size="10.00">include/DNS.h</text>
</a>
</g>
</g>
<!-- Node5&#45;&gt;Node6 -->
<g id="edge6" class="edge"><title>Node5&#45;&gt;Node6</title>
<path fill="none" stroke="midnightblue" d="M284.781,-108.638C260.01,-98.504 225.6,-84.4274 203.818,-75.5164"/>
<polygon fill="midnightblue" stroke="midnightblue" points="283.503,-111.897 294.084,-112.444 286.154,-105.418 283.503,-111.897"/>
</g>
<!-- Node7 -->
<g id="node7" class="node"><title>Node7</title>
<g id="a_node7"><a xlink:href="_listener_8h.html" target="_top" xlink:title="include/Listener.h">
<polygon fill="none" stroke="black" points="241.5,-56.5 241.5,-75.5 334.5,-75.5 334.5,-56.5 241.5,-56.5"/>
<text text-anchor="middle" x="288" y="-63.5" font-family="Helvetica,sans-Serif" font-size="10.00">include/Listener.h</text>
</a>
</g>
</g>
<!-- Node5&#45;&gt;Node7 -->
<g id="edge7" class="edge"><title>Node5&#45;&gt;Node7</title>
<path fill="none" stroke="midnightblue" d="M305.991,-102.983C301.408,-93.8168 296.046,-83.0922 292.376,-75.7511"/>
<polygon fill="midnightblue" stroke="midnightblue" points="302.939,-104.704 310.541,-112.083 309.2,-101.573 302.939,-104.704"/>
</g>
<!-- Node5&#45;&gt;Node8 -->
<g id="edge8" class="edge"><title>Node5&#45;&gt;Node8</title>
<path fill="none" stroke="midnightblue" d="M342.005,-107.862C362.588,-97.8492 390.345,-84.3458 408.21,-75.6545"/>
<polygon fill="midnightblue" stroke="midnightblue" points="340.295,-104.802 332.834,-112.324 343.358,-111.097 340.295,-104.802"/>
</g>
<!-- Node9&#45;&gt;Node10 -->
<g id="edge10" class="edge"><title>Node9&#45;&gt;Node10</title>
<path fill="none" stroke="midnightblue" d="M511.754,-105.537C522.808,-95.9087 536.631,-83.8694 545.857,-75.8339"/>
<polygon fill="midnightblue" stroke="midnightblue" points="509.203,-103.117 503.961,-112.324 513.801,-108.395 509.203,-103.117"/>
</g>
<!-- Node11 -->
<g id="node11" class="node"><title>Node11</title>
<g id="a_node11"><a xlink:href="_job_thread_8h.html" target="_top" xlink:title="include/JobThread.h">
<polygon fill="none" stroke="black" points="504,-0.5 504,-19.5 608,-19.5 608,-0.5 504,-0.5"/>
<text text-anchor="middle" x="556" y="-7.5" font-family="Helvetica,sans-Serif" font-size="10.00">include/JobThread.h</text>
</a>
</g>
</g>
<!-- Node10&#45;&gt;Node11 -->
<g id="edge11" class="edge"><title>Node10&#45;&gt;Node11</title>
<path fill="none" stroke="midnightblue" d="M556,-45.8045C556,-36.9102 556,-26.7798 556,-19.7511"/>
<polygon fill="midnightblue" stroke="midnightblue" points="552.5,-46.083 556,-56.083 559.5,-46.083 552.5,-46.083"/>
</g>
</g>
</svg>
