<?xml version="1.0" encoding="UTF-8" standalone="no"?>
<!DOCTYPE svg PUBLIC "-//W3C//DTD SVG 1.1//EN"
 "http://www.w3.org/Graphics/SVG/1.1/DTD/svg11.dtd">
<!-- Generated by graphviz version 2.34.0 (20140110.0949)
 -->
<!-- Title: include/defines.h Pages: 1 -->
<svg width="696pt" height="252pt"
 viewBox="0.00 0.00 696.00 252.00" xmlns="http://www.w3.org/2000/svg" xmlns:xlink="http://www.w3.org/1999/xlink">
<g id="graph0" class="graph" transform="scale(1 1) rotate(0) translate(4 248)">
<title>include/defines.h</title>
<!-- Node1 -->
<g id="node1" class="node"><title>Node1</title>
<polygon fill="#bfbfbf" stroke="black" points="324,-224.5 324,-243.5 414,-243.5 414,-224.5 324,-224.5"/>
<text text-anchor="middle" x="369" y="-231.5" font-family="Helvetica,sans-Serif" font-size="10.00">include/defines.h</text>
</g>
<!-- Node2 -->
<g id="node2" class="node"><title>Node2</title>
<g id="a_node2"><a xlink:href="_compressor_8h.html" target="_top" xlink:title="include/Compressor.h">
<polygon fill="none" stroke="black" points="0,-112.5 0,-131.5 112,-131.5 112,-112.5 0,-112.5"/>
<text text-anchor="middle" x="56" y="-119.5" font-family="Helvetica,sans-Serif" font-size="10.00">include/Compressor.h</text>
</a>
</g>
</g>
<!-- Node1&#45;&gt;Node2 -->
<g id="edge1" class="edge"><title>Node1&#45;&gt;Node2</title>
<path fill="none" stroke="midnightblue" d="M323.11,-222.022C290.39,-213.767 245.548,-201.58 207,-188 157.738,-170.645 101.744,-144.887 73.8156,-131.608"/>
<polygon fill="midnightblue" stroke="midnightblue" points="322.305,-225.428 332.855,-224.454 324,-218.636 322.305,-225.428"/>
</g>
<!-- Node3 -->
<g id="node3" class="node"><title>Node3</title>
<g id="a_node3"><a xlink:href="_writer_8h.html" target="_top" xlink:title="include/Writer.h">
<polygon fill="none" stroke="black" points="236.5,-168.5 236.5,-187.5 321.5,-187.5 321.5,-168.5 236.5,-168.5"/>
<text text-anchor="middle" x="279" y="-175.5" font-family="Helvetica,sans-Serif" font-size="10.00">include/Writer.h</text>
</a>
</g>
</g>
<!-- Node1&#45;&gt;Node3 -->
<g id="edge2" class="edge"><title>Node1&#45;&gt;Node3</title>
<path fill="none" stroke="midnightblue" d="M345.962,-219.177C329.401,-209.241 307.582,-196.149 293.424,-187.655"/>
<polygon fill="midnightblue" stroke="midnightblue" points="344.164,-222.18 354.54,-224.324 347.766,-216.178 344.164,-222.18"/>
</g>
<!-- Node4 -->
<g id="node4" class="node"><title>Node4</title>
<g id="a_node4"><a xlink:href="_decompressor_8h.html" target="_top" xlink:title="include/Decompressor.h">
<polygon fill="none" stroke="black" points="130,-112.5 130,-131.5 252,-131.5 252,-112.5 130,-112.5"/>
<text text-anchor="middle" x="191" y="-119.5" font-family="Helvetica,sans-Serif" font-size="10.00">include/Decompressor.h</text>
</a>
</g>
</g>
<!-- Node1&#45;&gt;Node4 -->
<g id="edge16" class="edge"><title>Node1&#45;&gt;Node4</title>
<path fill="none" stroke="midnightblue" d="M314.082,-225.564C285.601,-219.404 251.704,-208.221 227,-188 208.433,-172.802 197.842,-145.376 193.438,-131.513"/>
<polygon fill="midnightblue" stroke="midnightblue" points="313.412,-228.999 323.906,-227.54 314.792,-222.137 313.412,-228.999"/>
</g>
<!-- Node5 -->
<g id="node5" class="node"><title>Node5</title>
<g id="a_node5"><a xlink:href="_socket_8h.html" target="_top" xlink:title="include/Socket.h">
<polygon fill="none" stroke="black" points="270.5,-112.5 270.5,-131.5 359.5,-131.5 359.5,-112.5 270.5,-112.5"/>
<text text-anchor="middle" x="315" y="-119.5" font-family="Helvetica,sans-Serif" font-size="10.00">include/Socket.h</text>
</a>
</g>
</g>
<!-- Node1&#45;&gt;Node5 -->
<g id="edge17" class="edge"><title>Node1&#45;&gt;Node5</title>
<path fill="none" stroke="midnightblue" d="M360.321,-215.32C348.563,-191.37 328.033,-149.548 319.218,-131.591"/>
<polygon fill="midnightblue" stroke="midnightblue" points="357.214,-216.934 364.763,-224.368 363.498,-213.849 357.214,-216.934"/>
</g>
<!-- Node8 -->
<g id="node8" class="node"><title>Node8</title>
<g id="a_node8"><a xlink:href="_simple_h_t_t_p_socket_8h.html" target="_top" xlink:title="include/SimpleHTTPSocket.h">
<polygon fill="none" stroke="black" points="286,-56.5 286,-75.5 432,-75.5 432,-56.5 286,-56.5"/>
<text text-anchor="middle" x="359" y="-63.5" font-family="Helvetica,sans-Serif" font-size="10.00">include/SimpleHTTPSocket.h</text>
</a>
</g>
</g>
<!-- Node1&#45;&gt;Node8 -->
<g id="edge21" class="edge"><title>Node1&#45;&gt;Node8</title>
<path fill="none" stroke="midnightblue" d="M369.934,-214.381C370.878,-190.57 371.725,-148.096 368,-112 366.675,-99.1613 363.423,-84.5512 361.213,-75.553"/>
<polygon fill="midnightblue" stroke="midnightblue" points="366.433,-214.314 369.482,-224.461 373.426,-214.628 366.433,-214.314"/>
</g>
<!-- Node10 -->
<g id="node10" class="node"><title>Node10</title>
<g id="a_node10"><a xlink:href="_files_8h.html" target="_top" xlink:title="include/Files.h">
<polygon fill="none" stroke="black" points="454,-112.5 454,-131.5 534,-131.5 534,-112.5 454,-112.5"/>
<text text-anchor="middle" x="494" y="-119.5" font-family="Helvetica,sans-Serif" font-size="10.00">include/Files.h</text>
</a>
</g>
</g>
<!-- Node1&#45;&gt;Node10 -->
<g id="edge18" class="edge"><title>Node1&#45;&gt;Node10</title>
<path fill="none" stroke="midnightblue" d="M386.6,-217.512C413.31,-194.007 463.194,-150.11 484.237,-131.591"/>
<polygon fill="midnightblue" stroke="midnightblue" points="384.003,-215.135 378.809,-224.368 388.628,-220.39 384.003,-215.135"/>
</g>
<!-- Node11 -->
<g id="node11" class="node"><title>Node11</title>
<g id="a_node11"><a xlink:href="_pipe_8h.html" target="_top" xlink:title="include/Pipe.h">
<polygon fill="none" stroke="black" points="556,-56.5 556,-75.5 634,-75.5 634,-56.5 556,-56.5"/>
<text text-anchor="middle" x="595" y="-63.5" font-family="Helvetica,sans-Serif" font-size="10.00">include/Pipe.h</text>
</a>
</g>
</g>
<!-- Node1&#45;&gt;Node11 -->
<g id="edge19" class="edge"><title>Node1&#45;&gt;Node11</title>
<path fill="none" stroke="midnightblue" d="M398.303,-220.131C434.694,-203.263 497.52,-171.17 543,-132 562.929,-114.836 580.804,-89.2239 589.473,-75.8512"/>
<polygon fill="midnightblue" stroke="midnightblue" points="396.421,-217.142 388.777,-224.478 399.327,-223.511 396.421,-217.142"/>
</g>
<!-- Node14 -->
<g id="node14" class="node"><title>Node14</title>
<g id="a_node14"><a xlink:href="_postgres_8h.html" target="_top" xlink:title="include/Postgres.h">
<polygon fill="none" stroke="black" points="590,-168.5 590,-187.5 688,-187.5 688,-168.5 590,-168.5"/>
<text text-anchor="middle" x="639" y="-175.5" font-family="Helvetica,sans-Serif" font-size="10.00">include/Postgres.h</text>
</a>
</g>
</g>
<!-- Node1&#45;&gt;Node14 -->
<g id="edge20" class="edge"><title>Node1&#45;&gt;Node14</title>
<path fill="none" stroke="midnightblue" d="M421.633,-222.473C472.661,-212.268 549.103,-196.979 596.418,-187.516"/>
<polygon fill="midnightblue" stroke="midnightblue" points="420.902,-219.05 411.782,-224.444 422.275,-225.914 420.902,-219.05"/>
</g>
<!-- Node3&#45;&gt;Node2 -->
<g id="edge3" class="edge"><title>Node3&#45;&gt;Node2</title>
<path fill="none" stroke="midnightblue" d="M233.939,-166.088C191.809,-155.887 129.76,-140.861 91.1697,-131.516"/>
<polygon fill="midnightblue" stroke="midnightblue" points="233.122,-169.492 243.665,-168.444 234.77,-162.688 233.122,-169.492"/>
</g>
<!-- Node3&#45;&gt;Node4 -->
<g id="edge4" class="edge"><title>Node3&#45;&gt;Node4</title>
<path fill="none" stroke="midnightblue" d="M256.023,-162.901C239.887,-152.999 218.819,-140.071 205.104,-131.655"/>
<polygon fill="midnightblue" stroke="midnightblue" points="254.507,-166.077 264.861,-168.324 258.169,-160.111 254.507,-166.077"/>
</g>
<!-- Node3&#45;&gt;Node5 -->
<g id="edge5" class="edge"><title>Node3&#45;&gt;Node5</title>
<path fill="none" stroke="midnightblue" d="M290.623,-159.566C296.817,-150.275 304.168,-139.248 309.166,-131.751"/>
<polygon fill="midnightblue" stroke="midnightblue" points="287.58,-157.821 284.945,-168.083 293.404,-161.704 287.58,-157.821"/>
</g>
<!-- Node3&#45;&gt;Node10 -->
<g id="edge10" class="edge"><title>Node3&#45;&gt;Node10</title>
<path fill="none" stroke="midnightblue" d="M322.96,-165.959C363.567,-155.76 423.043,-140.822 460.092,-131.516"/>
<polygon fill="midnightblue" stroke="midnightblue" points="321.914,-162.613 313.067,-168.444 323.619,-169.402 321.914,-162.613"/>
</g>
<!-- Node3&#45;&gt;Node11 -->
<g id="edge15" class="edge"><title>Node3&#45;&gt;Node11</title>
<path fill="none" stroke="midnightblue" d="M308.752,-164.499C341.763,-150.83 396.745,-128.655 445,-112 485.607,-97.985 533.228,-84.1284 563.737,-75.5732"/>
<polygon fill="midnightblue" stroke="midnightblue" points="307.135,-161.382 299.245,-168.453 309.822,-167.845 307.135,-161.382"/>
</g>
<!-- Node6 -->
<g id="node6" class="node"><title>Node6</title>
<g id="a_node6"><a xlink:href="_d_n_s_8h.html" target="_top" xlink:title="include/DNS.h">
<polygon fill="none" stroke="black" points="18,-56.5 18,-75.5 98,-75.5 98,-56.5 18,-56.5"/>
<text text-anchor="middle" x="58" y="-63.5" font-family="Helvetica,sans-Serif" font-size="10.00">include/DNS.h</text>
</a>
</g>
</g>
<!-- Node5&#45;&gt;Node6 -->
<g id="edge6" class="edge"><title>Node5&#45;&gt;Node6</title>
<path fill="none" stroke="midnightblue" d="M264.262,-110.339C215.541,-100.102 142.916,-84.8422 98.1088,-75.4275"/>
<polygon fill="midnightblue" stroke="midnightblue" points="263.772,-113.812 274.278,-112.444 265.211,-106.962 263.772,-113.812"/>
</g>
<!-- Node7 -->
<g id="node7" class="node"><title>Node7</title>
<g id="a_node7"><a xlink:href="_listener_8h.html" target="_top" xlink:title="include/Listener.h">
<polygon fill="none" stroke="black" points="255.5,-0.5 255.5,-19.5 348.5,-19.5 348.5,-0.5 255.5,-0.5"/>
<text text-anchor="middle" x="302" y="-7.5" font-family="Helvetica,sans-Serif" font-size="10.00">include/Listener.h</text>
</a>
</g>
</g>
<!-- Node5&#45;&gt;Node7 -->
<g id="edge7" class="edge"><title>Node5&#45;&gt;Node7</title>
<path fill="none" stroke="midnightblue" d="M262.37,-110.424C215.211,-100.416 152.345,-85.5429 145,-76 113.51,-35.0899 198.439,-19.7371 255.336,-14.1172"/>
<polygon fill="midnightblue" stroke="midnightblue" points="261.663,-113.852 272.169,-112.482 263.102,-107.002 261.663,-113.852"/>
</g>
<!-- Node5&#45;&gt;Node8 -->
<g id="edge8" class="edge"><title>Node5&#45;&gt;Node8</title>
<path fill="none" stroke="midnightblue" d="M328.735,-104.144C336.401,-94.7357 345.633,-83.4046 351.869,-75.7511"/>
<polygon fill="midnightblue" stroke="midnightblue" points="325.869,-102.12 322.266,-112.083 331.296,-106.541 325.869,-102.12"/>
</g>
<!-- Node9 -->
<g id="node9" class="node"><title>Node9</title>
<g id="a_node9"><a xlink:href="_statsd_client_8h.html" target="_top" xlink:title="include/StatsdClient.h">
<polygon fill="none" stroke="black" points="154.5,-56.5 154.5,-75.5 267.5,-75.5 267.5,-56.5 154.5,-56.5"/>
<text text-anchor="middle" x="211" y="-63.5" font-family="Helvetica,sans-Serif" font-size="10.00">include/StatsdClient.h</text>
</a>
</g>
</g>
<!-- Node5&#45;&gt;Node9 -->
<g id="edge9" class="edge"><title>Node5&#45;&gt;Node9</title>
<path fill="none" stroke="midnightblue" d="M289.172,-107.59C269.943,-97.6052 244.255,-84.2672 227.668,-75.6545"/>
<polygon fill="midnightblue" stroke="midnightblue" points="287.803,-110.822 298.291,-112.324 291.029,-104.61 287.803,-110.822"/>
</g>
<!-- Node10&#45;&gt;Node11 -->
<g id="edge11" class="edge"><title>Node10&#45;&gt;Node11</title>
<path fill="none" stroke="midnightblue" d="M519.083,-107.59C537.757,-97.6052 562.704,-84.2672 578.813,-75.6545"/>
<polygon fill="midnightblue" stroke="midnightblue" points="517.396,-104.522 510.227,-112.324 520.696,-110.696 517.396,-104.522"/>
</g>
<!-- Node13 -->
<g id="node13" class="node"><title>Node13</title>
<g id="a_node13"><a xlink:href="_logger_8h.html" target="_top" xlink:title="include/Logger.h">
<polygon fill="none" stroke="black" points="450,-56.5 450,-75.5 538,-75.5 538,-56.5 450,-56.5"/>
<text text-anchor="middle" x="494" y="-63.5" font-family="Helvetica,sans-Serif" font-size="10.00">include/Logger.h</text>
</a>
</g>
</g>
<!-- Node10&#45;&gt;Node13 -->
<g id="edge13" class="edge"><title>Node10&#45;&gt;Node13</title>
<path fill="none" stroke="midnightblue" d="M494,-101.805C494,-92.9102 494,-82.7798 494,-75.7511"/>
<polygon fill="midnightblue" stroke="midnightblue" points="490.5,-102.083 494,-112.083 497.5,-102.083 490.5,-102.083"/>
</g>
<!-- Node12 -->
<g id="node12" class="node"><title>Node12</title>
<g id="a_node12"><a xlink:href="_job_thread_8h.html" target="_top" xlink:title="include/JobThread.h">
<polygon fill="none" stroke="black" points="543,-0.5 543,-19.5 647,-19.5 647,-0.5 543,-0.5"/>
<text text-anchor="middle" x="595" y="-7.5" font-family="Helvetica,sans-Serif" font-size="10.00">include/JobThread.h</text>
</a>
</g>
</g>
<!-- Node11&#45;&gt;Node12 -->
<g id="edge12" class="edge"><title>Node11&#45;&gt;Node12</title>
<path fill="none" stroke="midnightblue" d="M595,-45.8045C595,-36.9102 595,-26.7798 595,-19.7511"/>
<polygon fill="midnightblue" stroke="midnightblue" points="591.5,-46.083 595,-56.083 598.5,-46.083 591.5,-46.083"/>
</g>
<!-- Node13&#45;&gt;Node7 -->
<g id="edge14" class="edge"><title>Node13&#45;&gt;Node7</title>
<path fill="none" stroke="midnightblue" d="M453.817,-53.6986C417.581,-43.507 365.086,-28.7429 332.281,-19.5164"/>
<polygon fill="midnightblue" stroke="midnightblue" points="453.003,-57.1053 463.577,-56.4435 454.898,-50.3667 453.003,-57.1053"/>
</g>
</g>
</svg>
