<?xml version="1.0" encoding="UTF-8" standalone="no"?>
<!DOCTYPE svg PUBLIC "-//W3C//DTD SVG 1.1//EN"
 "http://www.w3.org/Graphics/SVG/1.1/DTD/svg11.dtd">
<!-- Generated by graphviz version 2.34.0 (20140110.0949)
 -->
<!-- Title: include/defines.h Pages: 1 -->
<svg width="696pt" height="252pt"
 viewBox="0.00 0.00 696.00 252.00" xmlns="http://www.w3.org/2000/svg" xmlns:xlink="http://www.w3.org/1999/xlink">
<g id="graph0" class="graph" transform="scale(1 1) rotate(0) translate(4 248)">
<title>include/defines.h</title>
<!-- Node1 -->
<g id="node1" class="node"><title>Node1</title>
<polygon fill="#bfbfbf" stroke="black" points="361,-224.5 361,-243.5 451,-243.5 451,-224.5 361,-224.5"/>
<text text-anchor="middle" x="406" y="-231.5" font-family="Helvetica,sans-Serif" font-size="10.00">include/defines.h</text>
</g>
<!-- Node2 -->
<g id="node2" class="node"><title>Node2</title>
<g id="a_node2"><a xlink:href="_compressor_8h.html" target="_top" xlink:title="include/Compressor.h">
<polygon fill="none" stroke="black" points="0,-112.5 0,-131.5 112,-131.5 112,-112.5 0,-112.5"/>
<text text-anchor="middle" x="56" y="-119.5" font-family="Helvetica,sans-Serif" font-size="10.00">include/Compressor.h</text>
</a>
</g>
</g>
<!-- Node1&#45;&gt;Node2 -->
<g id="edge1" class="edge"><title>Node1&#45;&gt;Node2</title>
<path fill="none" stroke="midnightblue" d="M358.98,-222.083C323.988,-213.641 275.188,-201.199 233,-188 175.983,-170.162 110.306,-144.723 77.293,-131.586"/>
<polygon fill="midnightblue" stroke="midnightblue" points="358.379,-225.538 368.919,-224.463 360.009,-218.73 358.379,-225.538"/>
</g>
<!-- Node3 -->
<g id="node3" class="node"><title>Node3</title>
<g id="a_node3"><a xlink:href="_writer_8h.html" target="_top" xlink:title="include/Writer.h">
<polygon fill="none" stroke="black" points="272.5,-168.5 272.5,-187.5 357.5,-187.5 357.5,-168.5 272.5,-168.5"/>
<text text-anchor="middle" x="315" y="-175.5" font-family="Helvetica,sans-Serif" font-size="10.00">include/Writer.h</text>
</a>
</g>
</g>
<!-- Node1&#45;&gt;Node3 -->
<g id="edge2" class="edge"><title>Node1&#45;&gt;Node3</title>
<path fill="none" stroke="midnightblue" d="M382.706,-219.177C365.961,-209.241 343.9,-196.149 329.584,-187.655"/>
<polygon fill="midnightblue" stroke="midnightblue" points="380.993,-222.231 391.379,-224.324 384.566,-216.211 380.993,-222.231"/>
</g>
<!-- Node4 -->
<g id="node4" class="node"><title>Node4</title>
<g id="a_node4"><a xlink:href="_decompressor_8h.html" target="_top" xlink:title="include/Decompressor.h">
<polygon fill="none" stroke="black" points="130,-112.5 130,-131.5 252,-131.5 252,-112.5 130,-112.5"/>
<text text-anchor="middle" x="191" y="-119.5" font-family="Helvetica,sans-Serif" font-size="10.00">include/Decompressor.h</text>
</a>
</g>
</g>
<!-- Node1&#45;&gt;Node4 -->
<g id="edge14" class="edge"><title>Node1&#45;&gt;Node4</title>
<path fill="none" stroke="midnightblue" d="M352.749,-222.037C324.833,-214.888 290.766,-203.884 263,-188 236.104,-172.614 210.676,-145.766 198.5,-131.882"/>
<polygon fill="midnightblue" stroke="midnightblue" points="352.186,-225.503 362.733,-224.499 353.862,-218.707 352.186,-225.503"/>
</g>
<!-- Node5 -->
<g id="node5" class="node"><title>Node5</title>
<g id="a_node5"><a xlink:href="_socket_8h.html" target="_top" xlink:title="include/Socket.h">
<polygon fill="none" stroke="black" points="270.5,-112.5 270.5,-131.5 359.5,-131.5 359.5,-112.5 270.5,-112.5"/>
<text text-anchor="middle" x="315" y="-119.5" font-family="Helvetica,sans-Serif" font-size="10.00">include/Socket.h</text>
</a>
</g>
</g>
<!-- Node1&#45;&gt;Node5 -->
<g id="edge15" class="edge"><title>Node1&#45;&gt;Node5</title>
<path fill="none" stroke="midnightblue" d="M396.944,-215.235C389.568,-201.607 378.376,-182.701 366,-168 354.137,-153.908 337.794,-140.28 326.836,-131.784"/>
<polygon fill="midnightblue" stroke="midnightblue" points="394.048,-217.247 401.799,-224.471 400.244,-213.991 394.048,-217.247"/>
</g>
<!-- Node8 -->
<g id="node8" class="node"><title>Node8</title>
<g id="a_node8"><a xlink:href="_simple_h_t_t_p_socket_8h.html" target="_top" xlink:title="include/SimpleHTTPSocket.h">
<polygon fill="none" stroke="black" points="356,-56.5 356,-75.5 502,-75.5 502,-56.5 356,-56.5"/>
<text text-anchor="middle" x="429" y="-63.5" font-family="Helvetica,sans-Serif" font-size="10.00">include/SimpleHTTPSocket.h</text>
</a>
</g>
</g>
<!-- Node1&#45;&gt;Node8 -->
<g id="edge19" class="edge"><title>Node1&#45;&gt;Node8</title>
<path fill="none" stroke="midnightblue" d="M408.642,-213.93C413.632,-177.92 424.257,-101.231 427.813,-75.5681"/>
<polygon fill="midnightblue" stroke="midnightblue" points="405.142,-213.689 407.237,-224.075 412.076,-214.65 405.142,-213.689"/>
</g>
<!-- Node10 -->
<g id="node10" class="node"><title>Node10</title>
<g id="a_node10"><a xlink:href="_files_8h.html" target="_top" xlink:title="include/Files.h">
<polygon fill="none" stroke="black" points="454,-112.5 454,-131.5 534,-131.5 534,-112.5 454,-112.5"/>
<text text-anchor="middle" x="494" y="-119.5" font-family="Helvetica,sans-Serif" font-size="10.00">include/Files.h</text>
</a>
</g>
</g>
<!-- Node1&#45;&gt;Node10 -->
<g id="edge16" class="edge"><title>Node1&#45;&gt;Node10</title>
<path fill="none" stroke="midnightblue" d="M419.382,-216.272C438.405,-192.494 472.569,-149.789 487.127,-131.591"/>
<polygon fill="midnightblue" stroke="midnightblue" points="416.419,-214.373 412.905,-224.368 421.885,-218.746 416.419,-214.373"/>
</g>
<!-- Node11 -->
<g id="node11" class="node"><title>Node11</title>
<g id="a_node11"><a xlink:href="_pipe_8h.html" target="_top" xlink:title="include/Pipe.h">
<polygon fill="none" stroke="black" points="520,-56.5 520,-75.5 598,-75.5 598,-56.5 520,-56.5"/>
<text text-anchor="middle" x="559" y="-63.5" font-family="Helvetica,sans-Serif" font-size="10.00">include/Pipe.h</text>
</a>
</g>
</g>
<!-- Node1&#45;&gt;Node11 -->
<g id="edge17" class="edge"><title>Node1&#45;&gt;Node11</title>
<path fill="none" stroke="midnightblue" d="M433.861,-219.94C465.261,-203.761 515.501,-173.209 543,-132 554.74,-114.406 557.874,-88.9755 558.705,-75.7435"/>
<polygon fill="midnightblue" stroke="midnightblue" points="432.14,-216.888 424.767,-224.496 435.275,-223.146 432.14,-216.888"/>
</g>
<!-- Node13 -->
<g id="node13" class="node"><title>Node13</title>
<g id="a_node13"><a xlink:href="_postgres_8h.html" target="_top" xlink:title="include/Postgres.h">
<polygon fill="none" stroke="black" points="590,-168.5 590,-187.5 688,-187.5 688,-168.5 590,-168.5"/>
<text text-anchor="middle" x="639" y="-175.5" font-family="Helvetica,sans-Serif" font-size="10.00">include/Postgres.h</text>
</a>
</g>
</g>
<!-- Node1&#45;&gt;Node13 -->
<g id="edge18" class="edge"><title>Node1&#45;&gt;Node13</title>
<path fill="none" stroke="midnightblue" d="M452.803,-222.153C496.827,-211.95 561.847,-196.881 602.253,-187.516"/>
<polygon fill="midnightblue" stroke="midnightblue" points="451.871,-218.776 442.92,-224.444 453.452,-225.595 451.871,-218.776"/>
</g>
<!-- Node3&#45;&gt;Node2 -->
<g id="edge3" class="edge"><title>Node3&#45;&gt;Node2</title>
<path fill="none" stroke="midnightblue" d="M263.898,-166.346C214.952,-156.141 142.046,-140.94 96.8473,-131.516"/>
<polygon fill="midnightblue" stroke="midnightblue" points="263.457,-169.829 273.961,-168.444 264.886,-162.976 263.457,-169.829"/>
</g>
<!-- Node3&#45;&gt;Node4 -->
<g id="edge4" class="edge"><title>Node3&#45;&gt;Node4</title>
<path fill="none" stroke="midnightblue" d="M285.993,-164.368C262.771,-154.255 230.837,-140.349 210.556,-131.516"/>
<polygon fill="midnightblue" stroke="midnightblue" points="284.786,-167.66 295.352,-168.444 287.581,-161.242 284.786,-167.66"/>
</g>
<!-- Node3&#45;&gt;Node5 -->
<g id="edge5" class="edge"><title>Node3&#45;&gt;Node5</title>
<path fill="none" stroke="midnightblue" d="M315,-157.805C315,-148.91 315,-138.78 315,-131.751"/>
<polygon fill="midnightblue" stroke="midnightblue" points="311.5,-158.083 315,-168.083 318.5,-158.083 311.5,-158.083"/>
</g>
<!-- Node3&#45;&gt;Node10 -->
<g id="edge10" class="edge"><title>Node3&#45;&gt;Node10</title>
<path fill="none" stroke="midnightblue" d="M353.331,-165.436C387.08,-155.255 435.447,-140.664 465.77,-131.516"/>
<polygon fill="midnightblue" stroke="midnightblue" points="351.926,-162.204 343.363,-168.444 353.948,-168.906 351.926,-162.204"/>
</g>
<!-- Node3&#45;&gt;Node11 -->
<g id="edge13" class="edge"><title>Node3&#45;&gt;Node11</title>
<path fill="none" stroke="midnightblue" d="M340.338,-163.502C366.31,-149.864 408.018,-128.507 445,-112 475.894,-98.2108 512.388,-84.1913 535.609,-75.5468"/>
<polygon fill="midnightblue" stroke="midnightblue" points="338.408,-160.563 331.197,-168.325 341.675,-166.754 338.408,-160.563"/>
</g>
<!-- Node6 -->
<g id="node6" class="node"><title>Node6</title>
<g id="a_node6"><a xlink:href="_d_n_s_8h.html" target="_top" xlink:title="include/DNS.h">
<polygon fill="none" stroke="black" points="15,-56.5 15,-75.5 95,-75.5 95,-56.5 15,-56.5"/>
<text text-anchor="middle" x="55" y="-63.5" font-family="Helvetica,sans-Serif" font-size="10.00">include/DNS.h</text>
</a>
</g>
</g>
<!-- Node5&#45;&gt;Node6 -->
<g id="edge6" class="edge"><title>Node5&#45;&gt;Node6</title>
<path fill="none" stroke="midnightblue" d="M263.949,-110.397C214.503,-100.128 140.531,-84.764 95.1507,-75.339"/>
<polygon fill="midnightblue" stroke="midnightblue" points="263.299,-113.837 273.802,-112.444 264.723,-106.983 263.299,-113.837"/>
</g>
<!-- Node7 -->
<g id="node7" class="node"><title>Node7</title>
<g id="a_node7"><a xlink:href="_listener_8h.html" target="_top" xlink:title="include/Listener.h">
<polygon fill="none" stroke="black" points="113.5,-56.5 113.5,-75.5 206.5,-75.5 206.5,-56.5 113.5,-56.5"/>
<text text-anchor="middle" x="160" y="-63.5" font-family="Helvetica,sans-Serif" font-size="10.00">include/Listener.h</text>
</a>
</g>
</g>
<!-- Node5&#45;&gt;Node7 -->
<g id="edge7" class="edge"><title>Node5&#45;&gt;Node7</title>
<path fill="none" stroke="midnightblue" d="M280.668,-109.039C251.503,-98.8786 210.363,-84.5457 184.445,-75.5164"/>
<polygon fill="midnightblue" stroke="midnightblue" points="279.845,-112.459 290.44,-112.444 282.148,-105.848 279.845,-112.459"/>
</g>
<!-- Node5&#45;&gt;Node8 -->
<g id="edge8" class="edge"><title>Node5&#45;&gt;Node8</title>
<path fill="none" stroke="midnightblue" d="M342.242,-108.096C363.54,-98.0073 392.542,-84.2697 411.021,-75.5164"/>
<polygon fill="midnightblue" stroke="midnightblue" points="340.603,-105 333.064,-112.444 343.599,-111.326 340.603,-105"/>
</g>
<!-- Node9 -->
<g id="node9" class="node"><title>Node9</title>
<g id="a_node9"><a xlink:href="_statsd_client_8h.html" target="_top" xlink:title="include/StatsdClient.h">
<polygon fill="none" stroke="black" points="224.5,-56.5 224.5,-75.5 337.5,-75.5 337.5,-56.5 224.5,-56.5"/>
<text text-anchor="middle" x="281" y="-63.5" font-family="Helvetica,sans-Serif" font-size="10.00">include/StatsdClient.h</text>
</a>
</g>
</g>
<!-- Node5&#45;&gt;Node9 -->
<g id="edge9" class="edge"><title>Node5&#45;&gt;Node9</title>
<path fill="none" stroke="midnightblue" d="M304.023,-103.566C298.173,-94.2747 291.23,-83.2484 286.51,-75.7511"/>
<polygon fill="midnightblue" stroke="midnightblue" points="301.096,-105.486 309.386,-112.083 307.019,-101.756 301.096,-105.486"/>
</g>
<!-- Node10&#45;&gt;Node11 -->
<g id="edge11" class="edge"><title>Node10&#45;&gt;Node11</title>
<path fill="none" stroke="midnightblue" d="M512.273,-105.82C523.918,-96.1452 538.599,-83.9481 548.367,-75.8339"/>
<polygon fill="midnightblue" stroke="midnightblue" points="509.899,-103.242 504.443,-112.324 514.372,-108.626 509.899,-103.242"/>
</g>
<!-- Node12 -->
<g id="node12" class="node"><title>Node12</title>
<g id="a_node12"><a xlink:href="_job_thread_8h.html" target="_top" xlink:title="include/JobThread.h">
<polygon fill="none" stroke="black" points="507,-0.5 507,-19.5 611,-19.5 611,-0.5 507,-0.5"/>
<text text-anchor="middle" x="559" y="-7.5" font-family="Helvetica,sans-Serif" font-size="10.00">include/JobThread.h</text>
</a>
</g>
</g>
<!-- Node11&#45;&gt;Node12 -->
<g id="edge12" class="edge"><title>Node11&#45;&gt;Node12</title>
<path fill="none" stroke="midnightblue" d="M559,-45.8045C559,-36.9102 559,-26.7798 559,-19.7511"/>
<polygon fill="midnightblue" stroke="midnightblue" points="555.5,-46.083 559,-56.083 562.5,-46.083 555.5,-46.083"/>
</g>
</g>
</svg>
