<?xml version="1.0" encoding="UTF-8" standalone="no"?>
<!DOCTYPE svg PUBLIC "-//W3C//DTD SVG 1.1//EN"
 "http://www.w3.org/Graphics/SVG/1.1/DTD/svg11.dtd">
<!-- Generated by graphviz version 2.34.0 (20140110.0949)
 -->
<!-- Title: include/defines.h Pages: 1 -->
<svg width="697pt" height="252pt"
 viewBox="0.00 0.00 697.00 252.00" xmlns="http://www.w3.org/2000/svg" xmlns:xlink="http://www.w3.org/1999/xlink">
<g id="graph0" class="graph" transform="scale(1 1) rotate(0) translate(4 248)">
<title>include/defines.h</title>
<!-- Node1 -->
<g id="node1" class="node"><title>Node1</title>
<polygon fill="#bfbfbf" stroke="black" points="373,-224.5 373,-243.5 463,-243.5 463,-224.5 373,-224.5"/>
<text text-anchor="middle" x="418" y="-231.5" font-family="Helvetica,sans-Serif" font-size="10.00">include/defines.h</text>
</g>
<!-- Node2 -->
<g id="node2" class="node"><title>Node2</title>
<g id="a_node2"><a xlink:href="_compressor_8h.html" target="_top" xlink:title="include/Compressor.h">
<polygon fill="none" stroke="black" points="12,-112.5 12,-131.5 124,-131.5 124,-112.5 12,-112.5"/>
<text text-anchor="middle" x="68" y="-119.5" font-family="Helvetica,sans-Serif" font-size="10.00">include/Compressor.h</text>
</a>
</g>
</g>
<!-- Node1&#45;&gt;Node2 -->
<g id="edge1" class="edge"><title>Node1&#45;&gt;Node2</title>
<path fill="none" stroke="midnightblue" d="M370.98,-222.083C335.988,-213.641 287.188,-201.199 245,-188 187.983,-170.162 122.306,-144.723 89.293,-131.586"/>
<polygon fill="midnightblue" stroke="midnightblue" points="370.379,-225.538 380.919,-224.463 372.009,-218.73 370.379,-225.538"/>
</g>
<!-- Node3 -->
<g id="node3" class="node"><title>Node3</title>
<g id="a_node3"><a xlink:href="_writer_8h.html" target="_top" xlink:title="include/Writer.h">
<polygon fill="none" stroke="black" points="284.5,-168.5 284.5,-187.5 369.5,-187.5 369.5,-168.5 284.5,-168.5"/>
<text text-anchor="middle" x="327" y="-175.5" font-family="Helvetica,sans-Serif" font-size="10.00">include/Writer.h</text>
</a>
</g>
</g>
<!-- Node1&#45;&gt;Node3 -->
<g id="edge2" class="edge"><title>Node1&#45;&gt;Node3</title>
<path fill="none" stroke="midnightblue" d="M394.706,-219.177C377.961,-209.241 355.9,-196.149 341.584,-187.655"/>
<polygon fill="midnightblue" stroke="midnightblue" points="392.993,-222.231 403.379,-224.324 396.566,-216.211 392.993,-222.231"/>
</g>
<!-- Node4 -->
<g id="node4" class="node"><title>Node4</title>
<g id="a_node4"><a xlink:href="_decompressor_8h.html" target="_top" xlink:title="include/Decompressor.h">
<polygon fill="none" stroke="black" points="142,-112.5 142,-131.5 264,-131.5 264,-112.5 142,-112.5"/>
<text text-anchor="middle" x="203" y="-119.5" font-family="Helvetica,sans-Serif" font-size="10.00">include/Decompressor.h</text>
</a>
</g>
</g>
<!-- Node1&#45;&gt;Node4 -->
<g id="edge15" class="edge"><title>Node1&#45;&gt;Node4</title>
<path fill="none" stroke="midnightblue" d="M364.749,-222.037C336.833,-214.888 302.766,-203.884 275,-188 248.104,-172.614 222.676,-145.766 210.5,-131.882"/>
<polygon fill="midnightblue" stroke="midnightblue" points="364.186,-225.503 374.733,-224.499 365.862,-218.707 364.186,-225.503"/>
</g>
<!-- Node5 -->
<g id="node5" class="node"><title>Node5</title>
<g id="a_node5"><a xlink:href="_socket_8h.html" target="_top" xlink:title="include/Socket.h">
<polygon fill="none" stroke="black" points="282.5,-112.5 282.5,-131.5 371.5,-131.5 371.5,-112.5 282.5,-112.5"/>
<text text-anchor="middle" x="327" y="-119.5" font-family="Helvetica,sans-Serif" font-size="10.00">include/Socket.h</text>
</a>
</g>
</g>
<!-- Node1&#45;&gt;Node5 -->
<g id="edge16" class="edge"><title>Node1&#45;&gt;Node5</title>
<path fill="none" stroke="midnightblue" d="M408.944,-215.235C401.568,-201.607 390.376,-182.701 378,-168 366.137,-153.908 349.794,-140.28 338.836,-131.784"/>
<polygon fill="midnightblue" stroke="midnightblue" points="406.048,-217.247 413.799,-224.471 412.244,-213.991 406.048,-217.247"/>
</g>
<!-- Node8 -->
<g id="node8" class="node"><title>Node8</title>
<g id="a_node8"><a xlink:href="_simple_h_t_t_p_socket_8h.html" target="_top" xlink:title="include/SimpleHTTPSocket.h">
<polygon fill="none" stroke="black" points="341,-56.5 341,-75.5 487,-75.5 487,-56.5 341,-56.5"/>
<text text-anchor="middle" x="414" y="-63.5" font-family="Helvetica,sans-Serif" font-size="10.00">include/SimpleHTTPSocket.h</text>
</a>
</g>
</g>
<!-- Node1&#45;&gt;Node8 -->
<g id="edge20" class="edge"><title>Node1&#45;&gt;Node8</title>
<path fill="none" stroke="midnightblue" d="M417.54,-213.93C416.673,-177.92 414.825,-101.231 414.206,-75.5681"/>
<polygon fill="midnightblue" stroke="midnightblue" points="414.045,-214.162 417.785,-224.075 421.043,-213.994 414.045,-214.162"/>
</g>
<!-- Node10 -->
<g id="node10" class="node"><title>Node10</title>
<g id="a_node10"><a xlink:href="_files_8h.html" target="_top" xlink:title="include/Files.h">
<polygon fill="none" stroke="black" points="504,-112.5 504,-131.5 584,-131.5 584,-112.5 504,-112.5"/>
<text text-anchor="middle" x="544" y="-119.5" font-family="Helvetica,sans-Serif" font-size="10.00">include/Files.h</text>
</a>
</g>
</g>
<!-- Node1&#45;&gt;Node10 -->
<g id="edge17" class="edge"><title>Node1&#45;&gt;Node10</title>
<path fill="none" stroke="midnightblue" d="M443.911,-219.49C458.261,-211.37 475.977,-200.252 490,-188 510.108,-170.432 528.918,-144.991 538.113,-131.75"/>
<polygon fill="midnightblue" stroke="midnightblue" points="442.112,-216.485 435.04,-224.374 445.489,-222.617 442.112,-216.485"/>
</g>
<!-- Node11 -->
<g id="node11" class="node"><title>Node11</title>
<g id="a_node11"><a xlink:href="_pipe_8h.html" target="_top" xlink:title="include/Pipe.h">
<polygon fill="none" stroke="black" points="505,-56.5 505,-75.5 583,-75.5 583,-56.5 505,-56.5"/>
<text text-anchor="middle" x="544" y="-63.5" font-family="Helvetica,sans-Serif" font-size="10.00">include/Pipe.h</text>
</a>
</g>
</g>
<!-- Node1&#45;&gt;Node11 -->
<g id="edge18" class="edge"><title>Node1&#45;&gt;Node11</title>
<path fill="none" stroke="midnightblue" d="M427.265,-215.418C440.565,-190.968 466.612,-145.887 495,-112 506.719,-98.011 522.637,-84.1482 533.108,-75.5846"/>
<polygon fill="midnightblue" stroke="midnightblue" points="424.162,-213.799 422.521,-224.266 430.331,-217.107 424.162,-213.799"/>
</g>
<!-- Node14 -->
<g id="node14" class="node"><title>Node14</title>
<g id="a_node14"><a xlink:href="_postgres_8h.html" target="_top" xlink:title="include/Postgres.h">
<polygon fill="none" stroke="black" points="542,-168.5 542,-187.5 640,-187.5 640,-168.5 542,-168.5"/>
<text text-anchor="middle" x="591" y="-175.5" font-family="Helvetica,sans-Serif" font-size="10.00">include/Postgres.h</text>
</a>
</g>
</g>
<!-- Node1&#45;&gt;Node14 -->
<g id="edge19" class="edge"><title>Node1&#45;&gt;Node14</title>
<path fill="none" stroke="midnightblue" d="M455.047,-221.436C487.664,-211.255 534.41,-196.664 563.716,-187.516"/>
<polygon fill="midnightblue" stroke="midnightblue" points="453.915,-218.123 445.412,-224.444 456.001,-224.805 453.915,-218.123"/>
</g>
<!-- Node3&#45;&gt;Node2 -->
<g id="edge3" class="edge"><title>Node3&#45;&gt;Node2</title>
<path fill="none" stroke="midnightblue" d="M275.898,-166.346C226.952,-156.141 154.046,-140.94 108.847,-131.516"/>
<polygon fill="midnightblue" stroke="midnightblue" points="275.457,-169.829 285.961,-168.444 276.886,-162.976 275.457,-169.829"/>
</g>
<!-- Node3&#45;&gt;Node4 -->
<g id="edge4" class="edge"><title>Node3&#45;&gt;Node4</title>
<path fill="none" stroke="midnightblue" d="M297.993,-164.368C274.771,-154.255 242.837,-140.349 222.556,-131.516"/>
<polygon fill="midnightblue" stroke="midnightblue" points="296.786,-167.66 307.352,-168.444 299.581,-161.242 296.786,-167.66"/>
</g>
<!-- Node3&#45;&gt;Node5 -->
<g id="edge5" class="edge"><title>Node3&#45;&gt;Node5</title>
<path fill="none" stroke="midnightblue" d="M327,-157.805C327,-148.91 327,-138.78 327,-131.751"/>
<polygon fill="midnightblue" stroke="midnightblue" points="323.5,-158.083 327,-168.083 330.5,-158.083 323.5,-158.083"/>
</g>
<!-- Node3&#45;&gt;Node10 -->
<g id="edge10" class="edge"><title>Node3&#45;&gt;Node10</title>
<path fill="none" stroke="midnightblue" d="M371.108,-166.024C412.1,-155.823 472.304,-140.841 509.777,-131.516"/>
<polygon fill="midnightblue" stroke="midnightblue" points="370.243,-162.632 361.384,-168.444 371.934,-169.425 370.243,-162.632"/>
</g>
<!-- Node3&#45;&gt;Node11 -->
<g id="edge14" class="edge"><title>Node3&#45;&gt;Node11</title>
<path fill="none" stroke="midnightblue" d="M353.168,-163.735C398.247,-140.884 489.334,-94.7108 527.051,-75.5914"/>
<polygon fill="midnightblue" stroke="midnightblue" points="351.365,-160.725 344.028,-168.368 354.53,-166.969 351.365,-160.725"/>
</g>
<!-- Node6 -->
<g id="node6" class="node"><title>Node6</title>
<g id="a_node6"><a xlink:href="_d_n_s_8h.html" target="_top" xlink:title="include/DNS.h">
<polygon fill="none" stroke="black" points="0,-56.5 0,-75.5 80,-75.5 80,-56.5 0,-56.5"/>
<text text-anchor="middle" x="40" y="-63.5" font-family="Helvetica,sans-Serif" font-size="10.00">include/DNS.h</text>
</a>
</g>
</g>
<!-- Node5&#45;&gt;Node6 -->
<g id="edge6" class="edge"><title>Node5&#45;&gt;Node6</title>
<path fill="none" stroke="midnightblue" d="M272.349,-110.717C216.194,-100.152 130.109,-83.9542 80.0005,-74.5262"/>
<polygon fill="midnightblue" stroke="midnightblue" points="271.996,-114.212 282.471,-112.622 273.291,-107.333 271.996,-114.212"/>
</g>
<!-- Node7 -->
<g id="node7" class="node"><title>Node7</title>
<g id="a_node7"><a xlink:href="_listener_8h.html" target="_top" xlink:title="include/Listener.h">
<polygon fill="none" stroke="black" points="98.5,-56.5 98.5,-75.5 191.5,-75.5 191.5,-56.5 98.5,-56.5"/>
<text text-anchor="middle" x="145" y="-63.5" font-family="Helvetica,sans-Serif" font-size="10.00">include/Listener.h</text>
</a>
</g>
</g>
<!-- Node5&#45;&gt;Node7 -->
<g id="edge7" class="edge"><title>Node5&#45;&gt;Node7</title>
<path fill="none" stroke="midnightblue" d="M288.469,-109.568C254.136,-99.381 204.667,-84.7034 173.704,-75.5164"/>
<polygon fill="midnightblue" stroke="midnightblue" points="287.579,-112.954 298.162,-112.444 289.57,-106.244 287.579,-112.954"/>
</g>
<!-- Node5&#45;&gt;Node8 -->
<g id="edge8" class="edge"><title>Node5&#45;&gt;Node8</title>
<path fill="none" stroke="midnightblue" d="M349.716,-106.901C365.669,-96.9986 386.497,-84.0705 400.057,-75.6545"/>
<polygon fill="midnightblue" stroke="midnightblue" points="347.629,-104.077 340.978,-112.324 351.32,-110.024 347.629,-104.077"/>
</g>
<!-- Node9 -->
<g id="node9" class="node"><title>Node9</title>
<g id="a_node9"><a xlink:href="_statsd_client_8h.html" target="_top" xlink:title="include/StatsdClient.h">
<polygon fill="none" stroke="black" points="209.5,-56.5 209.5,-75.5 322.5,-75.5 322.5,-56.5 209.5,-56.5"/>
<text text-anchor="middle" x="266" y="-63.5" font-family="Helvetica,sans-Serif" font-size="10.00">include/StatsdClient.h</text>
</a>
</g>
</g>
<!-- Node5&#45;&gt;Node9 -->
<g id="edge9" class="edge"><title>Node5&#45;&gt;Node9</title>
<path fill="none" stroke="midnightblue" d="M309.533,-105.537C298.656,-95.9087 285.056,-83.8694 275.979,-75.8339"/>
<polygon fill="midnightblue" stroke="midnightblue" points="307.392,-108.316 317.199,-112.324 312.032,-103.075 307.392,-108.316"/>
</g>
<!-- Node10&#45;&gt;Node11 -->
<g id="edge11" class="edge"><title>Node10&#45;&gt;Node11</title>
<path fill="none" stroke="midnightblue" d="M544,-101.805C544,-92.9102 544,-82.7798 544,-75.7511"/>
<polygon fill="midnightblue" stroke="midnightblue" points="540.5,-102.083 544,-112.083 547.5,-102.083 540.5,-102.083"/>
</g>
<!-- Node13 -->
<g id="node13" class="node"><title>Node13</title>
<g id="a_node13"><a xlink:href="_logger_8h.html" target="_top" xlink:title="include/Logger.h">
<polygon fill="none" stroke="black" points="601,-56.5 601,-75.5 689,-75.5 689,-56.5 601,-56.5"/>
<text text-anchor="middle" x="645" y="-63.5" font-family="Helvetica,sans-Serif" font-size="10.00">include/Logger.h</text>
</a>
</g>
</g>
<!-- Node10&#45;&gt;Node13 -->
<g id="edge13" class="edge"><title>Node10&#45;&gt;Node13</title>
<path fill="none" stroke="midnightblue" d="M569.083,-107.59C587.757,-97.6052 612.704,-84.2672 628.813,-75.6545"/>
<polygon fill="midnightblue" stroke="midnightblue" points="567.396,-104.522 560.227,-112.324 570.696,-110.696 567.396,-104.522"/>
</g>
<!-- Node12 -->
<g id="node12" class="node"><title>Node12</title>
<g id="a_node12"><a xlink:href="_job_thread_8h.html" target="_top" xlink:title="include/JobThread.h">
<polygon fill="none" stroke="black" points="492,-0.5 492,-19.5 596,-19.5 596,-0.5 492,-0.5"/>
<text text-anchor="middle" x="544" y="-7.5" font-family="Helvetica,sans-Serif" font-size="10.00">include/JobThread.h</text>
</a>
</g>
</g>
<!-- Node11&#45;&gt;Node12 -->
<g id="edge12" class="edge"><title>Node11&#45;&gt;Node12</title>
<path fill="none" stroke="midnightblue" d="M544,-45.8045C544,-36.9102 544,-26.7798 544,-19.7511"/>
<polygon fill="midnightblue" stroke="midnightblue" points="540.5,-46.083 544,-56.083 547.5,-46.083 540.5,-46.083"/>
</g>
</g>
</svg>
