<?xml version="1.0" encoding="UTF-8" standalone="no"?>
<!DOCTYPE svg PUBLIC "-//W3C//DTD SVG 1.1//EN"
 "http://www.w3.org/Graphics/SVG/1.1/DTD/svg11.dtd">
<!-- Generated by graphviz version 2.34.0 (20140110.0949)
 -->
<!-- Title: include/defines.h Pages: 1 -->
<svg width="1038pt" height="252pt"
 viewBox="0.00 0.00 1038.00 252.00" xmlns="http://www.w3.org/2000/svg" xmlns:xlink="http://www.w3.org/1999/xlink">
<g id="graph0" class="graph" transform="scale(1 1) rotate(0) translate(4 248)">
<title>include/defines.h</title>
<!-- Node1 -->
<g id="node1" class="node"><title>Node1</title>
<polygon fill="#bfbfbf" stroke="black" points="375,-224.5 375,-243.5 465,-243.5 465,-224.5 375,-224.5"/>
<text text-anchor="middle" x="420" y="-231.5" font-family="Helvetica,sans-Serif" font-size="10.00">include/defines.h</text>
</g>
<!-- Node2 -->
<g id="node2" class="node"><title>Node2</title>
<g id="a_node2"><a xlink:href="_timer_8h.html" target="_top" xlink:title="include/Timer.h">
<polygon fill="none" stroke="black" points="25.5,-168.5 25.5,-187.5 108.5,-187.5 108.5,-168.5 25.5,-168.5"/>
<text text-anchor="middle" x="67" y="-175.5" font-family="Helvetica,sans-Serif" font-size="10.00">include/Timer.h</text>
</a>
</g>
</g>
<!-- Node1&#45;&gt;Node2 -->
<g id="edge1" class="edge"><title>Node1&#45;&gt;Node2</title>
<path fill="none" stroke="midnightblue" d="M364.843,-224.562C293.863,-213.704 172.141,-195.084 108.509,-185.35"/>
<polygon fill="midnightblue" stroke="midnightblue" points="364.519,-228.054 374.934,-226.106 365.578,-221.134 364.519,-228.054"/>
</g>
<!-- Node4 -->
<g id="node4" class="node"><title>Node4</title>
<g id="a_node4"><a xlink:href="_postgres_8h.html" target="_top" xlink:title="include/Postgres.h">
<polygon fill="none" stroke="black" points="53,-56.5 53,-75.5 151,-75.5 151,-56.5 53,-56.5"/>
<text text-anchor="middle" x="102" y="-63.5" font-family="Helvetica,sans-Serif" font-size="10.00">include/Postgres.h</text>
</a>
</g>
</g>
<!-- Node1&#45;&gt;Node4 -->
<g id="edge23" class="edge"><title>Node1&#45;&gt;Node4</title>
<path fill="none" stroke="midnightblue" d="M375.111,-221.76C321.634,-206.967 231.106,-177.396 164,-132 140.232,-115.922 118.601,-89.377 108.314,-75.7172"/>
<polygon fill="midnightblue" stroke="midnightblue" points="374.405,-225.195 384.973,-224.436 376.239,-218.439 374.405,-225.195"/>
</g>
<!-- Node5 -->
<g id="node5" class="node"><title>Node5</title>
<g id="a_node5"><a xlink:href="_compressor_8h.html" target="_top" xlink:title="include/Compressor.h">
<polygon fill="none" stroke="black" points="173,-112.5 173,-131.5 285,-131.5 285,-112.5 173,-112.5"/>
<text text-anchor="middle" x="229" y="-119.5" font-family="Helvetica,sans-Serif" font-size="10.00">include/Compressor.h</text>
</a>
</g>
</g>
<!-- Node1&#45;&gt;Node5 -->
<g id="edge4" class="edge"><title>Node1&#45;&gt;Node5</title>
<path fill="none" stroke="midnightblue" d="M396.214,-219.301C356.283,-196.304 276.907,-150.591 243.918,-131.591"/>
<polygon fill="midnightblue" stroke="midnightblue" points="394.6,-222.411 405.013,-224.368 398.094,-216.345 394.6,-222.411"/>
</g>
<!-- Node6 -->
<g id="node6" class="node"><title>Node6</title>
<g id="a_node6"><a xlink:href="_writer_8h.html" target="_top" xlink:title="include/Writer.h">
<polygon fill="none" stroke="black" points="377.5,-168.5 377.5,-187.5 462.5,-187.5 462.5,-168.5 377.5,-168.5"/>
<text text-anchor="middle" x="420" y="-175.5" font-family="Helvetica,sans-Serif" font-size="10.00">include/Writer.h</text>
</a>
</g>
</g>
<!-- Node1&#45;&gt;Node6 -->
<g id="edge5" class="edge"><title>Node1&#45;&gt;Node6</title>
<path fill="none" stroke="midnightblue" d="M420,-213.805C420,-204.91 420,-194.78 420,-187.751"/>
<polygon fill="midnightblue" stroke="midnightblue" points="416.5,-214.083 420,-224.083 423.5,-214.083 416.5,-214.083"/>
</g>
<!-- Node7 -->
<g id="node7" class="node"><title>Node7</title>
<g id="a_node7"><a xlink:href="_decompressor_8h.html" target="_top" xlink:title="include/Decompressor.h">
<polygon fill="none" stroke="black" points="303,-112.5 303,-131.5 425,-131.5 425,-112.5 303,-112.5"/>
<text text-anchor="middle" x="364" y="-119.5" font-family="Helvetica,sans-Serif" font-size="10.00">include/Decompressor.h</text>
</a>
</g>
</g>
<!-- Node1&#45;&gt;Node7 -->
<g id="edge19" class="edge"><title>Node1&#45;&gt;Node7</title>
<path fill="none" stroke="midnightblue" d="M396.186,-218.717C385.625,-211.029 374.204,-200.54 368,-188 358.875,-169.557 360.703,-144.484 362.522,-131.531"/>
<polygon fill="midnightblue" stroke="midnightblue" points="394.48,-221.788 404.722,-224.499 398.406,-215.993 394.48,-221.788"/>
</g>
<!-- Node8 -->
<g id="node8" class="node"><title>Node8</title>
<g id="a_node8"><a xlink:href="_socket_8h.html" target="_top" xlink:title="include/Socket.h">
<polygon fill="none" stroke="black" points="633.5,-112.5 633.5,-131.5 722.5,-131.5 722.5,-112.5 633.5,-112.5"/>
<text text-anchor="middle" x="678" y="-119.5" font-family="Helvetica,sans-Serif" font-size="10.00">include/Socket.h</text>
</a>
</g>
</g>
<!-- Node1&#45;&gt;Node8 -->
<g id="edge20" class="edge"><title>Node1&#45;&gt;Node8</title>
<path fill="none" stroke="midnightblue" d="M450.38,-220.646C472.283,-211.694 502.525,-199.238 529,-188 575.762,-168.15 630.428,-144.079 658.765,-131.536"/>
<polygon fill="midnightblue" stroke="midnightblue" points="448.883,-217.477 440.947,-224.496 451.529,-223.958 448.883,-217.477"/>
</g>
<!-- Node11 -->
<g id="node11" class="node"><title>Node11</title>
<g id="a_node11"><a xlink:href="_simple_h_t_t_p_socket_8h.html" target="_top" xlink:title="include/SimpleHTTPSocket.h">
<polygon fill="none" stroke="black" points="884,-56.5 884,-75.5 1030,-75.5 1030,-56.5 884,-56.5"/>
<text text-anchor="middle" x="957" y="-63.5" font-family="Helvetica,sans-Serif" font-size="10.00">include/SimpleHTTPSocket.h</text>
</a>
</g>
</g>
<!-- Node1&#45;&gt;Node11 -->
<g id="edge24" class="edge"><title>Node1&#45;&gt;Node11</title>
<path fill="none" stroke="midnightblue" d="M457.597,-221.425C487.085,-212.343 529.161,-199.377 566,-188 702.467,-145.854 865.678,-95.2973 929.509,-75.5193"/>
<polygon fill="midnightblue" stroke="midnightblue" points="456.247,-218.178 447.72,-224.466 458.308,-224.868 456.247,-218.178"/>
</g>
<!-- Node13 -->
<g id="node13" class="node"><title>Node13</title>
<g id="a_node13"><a xlink:href="_files_8h.html" target="_top" xlink:title="include/Files.h">
<polygon fill="none" stroke="black" points="519,-112.5 519,-131.5 599,-131.5 599,-112.5 519,-112.5"/>
<text text-anchor="middle" x="559" y="-119.5" font-family="Helvetica,sans-Serif" font-size="10.00">include/Files.h</text>
</a>
</g>
</g>
<!-- Node1&#45;&gt;Node13 -->
<g id="edge21" class="edge"><title>Node1&#45;&gt;Node13</title>
<path fill="none" stroke="midnightblue" d="M451.11,-220.121C468.026,-212.266 488.749,-201.201 505,-188 525.724,-171.164 544.275,-145.414 553.267,-131.933"/>
<polygon fill="midnightblue" stroke="midnightblue" points="449.342,-217.078 441.652,-224.366 452.208,-223.464 449.342,-217.078"/>
</g>
<!-- Node14 -->
<g id="node14" class="node"><title>Node14</title>
<g id="a_node14"><a xlink:href="_pipe_8h.html" target="_top" xlink:title="include/Pipe.h">
<polygon fill="none" stroke="black" points="414,-56.5 414,-75.5 492,-75.5 492,-56.5 414,-56.5"/>
<text text-anchor="middle" x="453" y="-63.5" font-family="Helvetica,sans-Serif" font-size="10.00">include/Pipe.h</text>
</a>
</g>
</g>
<!-- Node1&#45;&gt;Node14 -->
<g id="edge22" class="edge"><title>Node1&#45;&gt;Node14</title>
<path fill="none" stroke="midnightblue" d="M444.121,-218.473C454.437,-210.828 465.384,-200.445 471,-188 488.646,-148.896 467.237,-96.1661 457.42,-75.6605"/>
<polygon fill="midnightblue" stroke="midnightblue" points="441.994,-215.688 435.734,-224.236 445.958,-221.457 441.994,-215.688"/>
</g>
<!-- Node3 -->
<g id="node3" class="node"><title>Node3</title>
<g id="a_node3"><a xlink:href="_backoff_timer_8h.html" target="_top" xlink:title="include/BackoffTimer.h">
<polygon fill="none" stroke="black" points="-0.5,-112.5 -0.5,-131.5 116.5,-131.5 116.5,-112.5 -0.5,-112.5"/>
<text text-anchor="middle" x="58" y="-119.5" font-family="Helvetica,sans-Serif" font-size="10.00">include/BackoffTimer.h</text>
</a>
</g>
</g>
<!-- Node2&#45;&gt;Node3 -->
<g id="edge2" class="edge"><title>Node2&#45;&gt;Node3</title>
<path fill="none" stroke="midnightblue" d="M63.8501,-158.101C62.356,-149.136 60.643,-138.858 59.4585,-131.751"/>
<polygon fill="midnightblue" stroke="midnightblue" points="60.4174,-158.794 65.5138,-168.083 67.3221,-157.644 60.4174,-158.794"/>
</g>
<!-- Node3&#45;&gt;Node4 -->
<g id="edge3" class="edge"><title>Node3&#45;&gt;Node4</title>
<path fill="none" stroke="midnightblue" d="M71.7345,-104.144C79.4005,-94.7357 88.6333,-83.4046 94.8695,-75.7511"/>
<polygon fill="midnightblue" stroke="midnightblue" points="68.8691,-102.12 65.2657,-112.083 74.2958,-106.541 68.8691,-102.12"/>
</g>
<!-- Node6&#45;&gt;Node5 -->
<g id="edge6" class="edge"><title>Node6&#45;&gt;Node5</title>
<path fill="none" stroke="midnightblue" d="M380.027,-165.699C343.979,-155.507 291.757,-140.743 259.123,-131.516"/>
<polygon fill="midnightblue" stroke="midnightblue" points="379.16,-169.091 389.735,-168.444 381.065,-162.355 379.16,-169.091"/>
</g>
<!-- Node6&#45;&gt;Node7 -->
<g id="edge7" class="edge"><title>Node6&#45;&gt;Node7</title>
<path fill="none" stroke="midnightblue" d="M403.67,-161.253C393.735,-151.673 381.412,-139.791 373.161,-131.834"/>
<polygon fill="midnightblue" stroke="midnightblue" points="401.375,-163.902 411.003,-168.324 406.234,-158.863 401.375,-163.902"/>
</g>
<!-- Node6&#45;&gt;Node8 -->
<g id="edge8" class="edge"><title>Node6&#45;&gt;Node8</title>
<path fill="none" stroke="midnightblue" d="M470.904,-166.346C519.662,-156.141 592.287,-140.94 637.31,-131.516"/>
<polygon fill="midnightblue" stroke="midnightblue" points="469.952,-162.969 460.881,-168.444 471.386,-169.821 469.952,-162.969"/>
</g>
<!-- Node6&#45;&gt;Node13 -->
<g id="edge13" class="edge"><title>Node6&#45;&gt;Node13</title>
<path fill="none" stroke="midnightblue" d="M451.476,-164.772C477.585,-154.629 514.039,-140.467 537.078,-131.516"/>
<polygon fill="midnightblue" stroke="midnightblue" points="450.079,-161.56 442.025,-168.444 452.614,-168.085 450.079,-161.56"/>
</g>
<!-- Node6&#45;&gt;Node14 -->
<g id="edge18" class="edge"><title>Node6&#45;&gt;Node14</title>
<path fill="none" stroke="midnightblue" d="M425.75,-158.771C428.308,-150.594 431.338,-140.823 434,-132 440.044,-111.965 446.869,-88.366 450.467,-75.8457"/>
<polygon fill="midnightblue" stroke="midnightblue" points="422.387,-157.797 422.728,-168.387 429.065,-159.896 422.387,-157.797"/>
</g>
<!-- Node9 -->
<g id="node9" class="node"><title>Node9</title>
<g id="a_node9"><a xlink:href="_d_n_s_8h.html" target="_top" xlink:title="include/DNS.h">
<polygon fill="none" stroke="black" points="654,-56.5 654,-75.5 734,-75.5 734,-56.5 654,-56.5"/>
<text text-anchor="middle" x="694" y="-63.5" font-family="Helvetica,sans-Serif" font-size="10.00">include/DNS.h</text>
</a>
</g>
</g>
<!-- Node8&#45;&gt;Node9 -->
<g id="edge9" class="edge"><title>Node8&#45;&gt;Node9</title>
<path fill="none" stroke="midnightblue" d="M683.512,-102.396C686.189,-93.362 689.278,-82.936 691.407,-75.7511"/>
<polygon fill="midnightblue" stroke="midnightblue" points="680.127,-101.501 680.642,-112.083 686.839,-103.489 680.127,-101.501"/>
</g>
<!-- Node10 -->
<g id="node10" class="node"><title>Node10</title>
<g id="a_node10"><a xlink:href="_listener_8h.html" target="_top" xlink:title="include/Listener.h">
<polygon fill="none" stroke="black" points="551.5,-0.5 551.5,-19.5 644.5,-19.5 644.5,-0.5 551.5,-0.5"/>
<text text-anchor="middle" x="598" y="-7.5" font-family="Helvetica,sans-Serif" font-size="10.00">include/Listener.h</text>
</a>
</g>
</g>
<!-- Node8&#45;&gt;Node10 -->
<g id="edge10" class="edge"><title>Node8&#45;&gt;Node10</title>
<path fill="none" stroke="midnightblue" d="M665.589,-104.131C659.39,-95.6931 651.785,-85.3172 645,-76 630.408,-55.962 613.386,-32.3645 604.367,-19.8449"/>
<polygon fill="midnightblue" stroke="midnightblue" points="662.913,-106.402 671.657,-112.386 668.553,-102.256 662.913,-106.402"/>
</g>
<!-- Node8&#45;&gt;Node11 -->
<g id="edge11" class="edge"><title>Node8&#45;&gt;Node11</title>
<path fill="none" stroke="midnightblue" d="M732.058,-110.537C784.787,-100.332 864.004,-84.9992 912.998,-75.5164"/>
<polygon fill="midnightblue" stroke="midnightblue" points="731.361,-107.107 722.208,-112.444 732.691,-113.979 731.361,-107.107"/>
</g>
<!-- Node12 -->
<g id="node12" class="node"><title>Node12</title>
<g id="a_node12"><a xlink:href="_statsd_client_8h.html" target="_top" xlink:title="include/StatsdClient.h">
<polygon fill="none" stroke="black" points="752.5,-56.5 752.5,-75.5 865.5,-75.5 865.5,-56.5 752.5,-56.5"/>
<text text-anchor="middle" x="809" y="-63.5" font-family="Helvetica,sans-Serif" font-size="10.00">include/StatsdClient.h</text>
</a>
</g>
</g>
<!-- Node8&#45;&gt;Node12 -->
<g id="edge12" class="edge"><title>Node8&#45;&gt;Node12</title>
<path fill="none" stroke="midnightblue" d="M708.317,-108.503C732.876,-98.3795 766.818,-84.388 788.34,-75.5164"/>
<polygon fill="midnightblue" stroke="midnightblue" points="706.669,-105.397 698.757,-112.444 709.337,-111.868 706.669,-105.397"/>
</g>
<!-- Node13&#45;&gt;Node14 -->
<g id="edge14" class="edge"><title>Node13&#45;&gt;Node14</title>
<path fill="none" stroke="midnightblue" d="M532.944,-107.726C513.316,-97.7271 486.972,-84.3065 469.988,-75.6545"/>
<polygon fill="midnightblue" stroke="midnightblue" points="531.47,-110.903 541.969,-112.324 534.648,-104.666 531.47,-110.903"/>
</g>
<!-- Node16 -->
<g id="node16" class="node"><title>Node16</title>
<g id="a_node16"><a xlink:href="_logger_8h.html" target="_top" xlink:title="include/Logger.h">
<polygon fill="none" stroke="black" points="510,-56.5 510,-75.5 598,-75.5 598,-56.5 510,-56.5"/>
<text text-anchor="middle" x="554" y="-63.5" font-family="Helvetica,sans-Serif" font-size="10.00">include/Logger.h</text>
</a>
</g>
</g>
<!-- Node13&#45;&gt;Node16 -->
<g id="edge16" class="edge"><title>Node13&#45;&gt;Node16</title>
<path fill="none" stroke="midnightblue" d="M557.25,-102.101C556.42,-93.1357 555.468,-82.8579 554.81,-75.7511"/>
<polygon fill="midnightblue" stroke="midnightblue" points="553.767,-102.448 558.174,-112.083 560.737,-101.803 553.767,-102.448"/>
</g>
<!-- Node15 -->
<g id="node15" class="node"><title>Node15</title>
<g id="a_node15"><a xlink:href="_job_thread_8h.html" target="_top" xlink:title="include/JobThread.h">
<polygon fill="none" stroke="black" points="401,-0.5 401,-19.5 505,-19.5 505,-0.5 401,-0.5"/>
<text text-anchor="middle" x="453" y="-7.5" font-family="Helvetica,sans-Serif" font-size="10.00">include/JobThread.h</text>
</a>
</g>
</g>
<!-- Node14&#45;&gt;Node15 -->
<g id="edge15" class="edge"><title>Node14&#45;&gt;Node15</title>
<path fill="none" stroke="midnightblue" d="M453,-45.8045C453,-36.9102 453,-26.7798 453,-19.7511"/>
<polygon fill="midnightblue" stroke="midnightblue" points="449.5,-46.083 453,-56.083 456.5,-46.083 449.5,-46.083"/>
</g>
<!-- Node16&#45;&gt;Node10 -->
<g id="edge17" class="edge"><title>Node16&#45;&gt;Node10</title>
<path fill="none" stroke="midnightblue" d="M567.735,-48.144C575.401,-38.7357 584.633,-27.4046 590.869,-19.7511"/>
<polygon fill="midnightblue" stroke="midnightblue" points="564.869,-46.1198 561.266,-56.083 570.296,-50.5415 564.869,-46.1198"/>
</g>
</g>
</svg>
