<?xml version="1.0" encoding="UTF-8" standalone="no"?>
<!DOCTYPE svg PUBLIC "-//W3C//DTD SVG 1.1//EN"
 "http://www.w3.org/Graphics/SVG/1.1/DTD/svg11.dtd">
<!-- Generated by graphviz version 2.34.0 (20140110.0949)
 -->
<!-- Title: Graphical Class Hierarchy Pages: 1 -->
<svg width="684pt" height="645pt"
 viewBox="0.00 0.00 684.00 645.00" xmlns="http://www.w3.org/2000/svg" xmlns:xlink="http://www.w3.org/1999/xlink">
<g id="graph0" class="graph" transform="scale(1 1) rotate(0) translate(4 641)">
<title>Graphical Class Hierarchy</title>
<!-- Node1 -->
<g id="node1" class="node"><title>Node1</title>
<g id="a_node1"><a xlink:href="classtrippingcyril_1_1_closable.html" target="_top" xlink:title="Writer class to provide a general closing operation. ">
<polygon fill="none" stroke="black" points="184,-366.5 184,-385.5 294,-385.5 294,-366.5 184,-366.5"/>
<text text-anchor="middle" x="239" y="-373.5" font-family="Helvetica,sans-Serif" font-size="10.00">trippingcyril::Closable</text>
</a>
</g>
</g>
<!-- Node2 -->
<g id="node2" class="node"><title>Node2</title>
<g id="a_node2"><a xlink:href="classtrippingcyril_1_1_file.html" target="_top" xlink:title="A general file access class. ">
<polygon fill="none" stroke="black" points="370,-148.5 370,-167.5 458,-167.5 458,-148.5 370,-148.5"/>
<text text-anchor="middle" x="414" y="-155.5" font-family="Helvetica,sans-Serif" font-size="10.00">trippingcyril::File</text>
</a>
</g>
</g>
<!-- Node1&#45;&gt;Node2 -->
<g id="edge1" class="edge"><title>Node1&#45;&gt;Node2</title>
<path fill="none" stroke="midnightblue" d="M303.085,-362.069C305.584,-360.278 307.91,-358.264 310,-356 365.045,-296.375 290.896,-236.57 346,-177 352.322,-170.166 360.902,-165.724 369.81,-162.853"/>
<polygon fill="midnightblue" stroke="midnightblue" points="300.903,-359.289 294.016,-367.34 304.42,-365.341 300.903,-359.289"/>
</g>
<!-- Node4 -->
<g id="node4" class="node"><title>Node4</title>
<g id="a_node4"><a xlink:href="classtrippingcyril_1_1net_1_1_socket.html" target="_top" xlink:title="General tcp socket class, fully async using libevent. ">
<polygon fill="none" stroke="black" points="371,-225 371,-255 457,-255 457,-225 371,-225"/>
<text text-anchor="start" x="379" y="-243" font-family="Helvetica,sans-Serif" font-size="10.00">trippingcyril::net</text>
<text text-anchor="middle" x="414" y="-232" font-family="Helvetica,sans-Serif" font-size="10.00">::Socket</text>
</a>
</g>
</g>
<!-- Node1&#45;&gt;Node4 -->
<g id="edge3" class="edge"><title>Node1&#45;&gt;Node4</title>
<path fill="none" stroke="midnightblue" d="M302.514,-361.668C305.174,-359.982 307.69,-358.101 310,-356 342.482,-326.457 314.505,-294.594 346,-264 352.913,-257.285 361.833,-252.434 370.896,-248.934"/>
<polygon fill="midnightblue" stroke="midnightblue" points="300.785,-358.623 293.599,-366.409 304.071,-364.803 300.785,-358.623"/>
</g>
<!-- Node3 -->
<g id="node3" class="node"><title>Node3</title>
<g id="a_node3"><a xlink:href="classtrippingcyril_1_1_temp_file.html" target="_top" xlink:title="An easy way to get temporary files in /tmp which will be deleted upon destruction of the object...">
<polygon fill="none" stroke="black" points="540.5,-150.5 540.5,-169.5 653.5,-169.5 653.5,-150.5 540.5,-150.5"/>
<text text-anchor="middle" x="597" y="-157.5" font-family="Helvetica,sans-Serif" font-size="10.00">trippingcyril::TempFile</text>
</a>
</g>
</g>
<!-- Node2&#45;&gt;Node3 -->
<g id="edge2" class="edge"><title>Node2&#45;&gt;Node3</title>
<path fill="none" stroke="midnightblue" d="M468.461,-158.591C491.087,-158.841 517.446,-159.132 540.309,-159.385"/>
<polygon fill="midnightblue" stroke="midnightblue" points="468.392,-155.09 458.354,-158.479 468.315,-162.089 468.392,-155.09"/>
</g>
<!-- Node5 -->
<g id="node5" class="node"><title>Node5</title>
<g id="a_node5"><a xlink:href="classtrippingcyril_1_1net_1_1http_1_1_simple_h_t_t_p_socket.html" target="_top" xlink:title="A simple http client. ">
<polygon fill="none" stroke="black" points="531,-225 531,-255 663,-255 663,-225 531,-225"/>
<text text-anchor="start" x="539" y="-243" font-family="Helvetica,sans-Serif" font-size="10.00">trippingcyril::net</text>
<text text-anchor="middle" x="597" y="-232" font-family="Helvetica,sans-Serif" font-size="10.00">::http::SimpleHTTPSocket</text>
</a>
</g>
</g>
<!-- Node4&#45;&gt;Node5 -->
<g id="edge4" class="edge"><title>Node4&#45;&gt;Node5</title>
<path fill="none" stroke="midnightblue" d="M467.483,-240C487.26,-240 509.998,-240 530.798,-240"/>
<polygon fill="midnightblue" stroke="midnightblue" points="467.436,-236.5 457.436,-240 467.436,-243.5 467.436,-236.5"/>
</g>
<!-- Node6 -->
<g id="node6" class="node"><title>Node6</title>
<g id="a_node6"><a xlink:href="classtrippingcyril_1_1trippingcyril_1_1_event.html" target="_top" xlink:title="Event class to automatically register and unregister event driven classes with modules, simply implement this from any event driven class. ">
<polygon fill="none" stroke="black" points="178,-418 178,-448 300,-448 300,-418 178,-418"/>
<text text-anchor="start" x="186" y="-436" font-family="Helvetica,sans-Serif" font-size="10.00">trippingcyril::trippingcyril</text>
<text text-anchor="middle" x="239" y="-425" font-family="Helvetica,sans-Serif" font-size="10.00">::Event</text>
</a>
</g>
</g>
<!-- Node6&#45;&gt;Node4 -->
<g id="edge11" class="edge"><title>Node6&#45;&gt;Node4</title>
<path fill="none" stroke="midnightblue" d="M289.79,-412.629C297.38,-407.768 304.501,-401.929 310,-395 347.534,-347.703 304.952,-308.282 346,-264 352.636,-256.841 361.556,-251.816 370.72,-248.288"/>
<polygon fill="midnightblue" stroke="midnightblue" points="287.621,-409.841 280.734,-417.892 291.139,-415.893 287.621,-409.841"/>
</g>
<!-- Node7 -->
<g id="node7" class="node"><title>Node7</title>
<g id="a_node7"><a xlink:href="classtrippingcyril_1_1database_1_1_database.html" target="_top" xlink:title="Database interface. ">
<polygon fill="none" stroke="black" points="358,-568 358,-598 470,-598 470,-568 358,-568"/>
<text text-anchor="start" x="366" y="-586" font-family="Helvetica,sans-Serif" font-size="10.00">trippingcyril::database</text>
<text text-anchor="middle" x="414" y="-575" font-family="Helvetica,sans-Serif" font-size="10.00">::Database</text>
</a>
</g>
</g>
<!-- Node6&#45;&gt;Node7 -->
<g id="edge5" class="edge"><title>Node6&#45;&gt;Node7</title>
<path fill="none" stroke="midnightblue" d="M254.802,-456.968C273.096,-484.79 306.671,-530.377 346,-558 351.385,-561.782 357.412,-565.069 363.584,-567.905"/>
<polygon fill="midnightblue" stroke="midnightblue" points="257.555,-454.778 249.198,-448.266 251.67,-458.568 257.555,-454.778"/>
</g>
<!-- Node10 -->
<g id="node10" class="node"><title>Node10</title>
<g id="a_node10"><a xlink:href="classtrippingcyril_1_1net_1_1dns_1_1_i_pv4_lookup.html" target="_top" xlink:title="A simple IPv4 lookup event. ">
<polygon fill="none" stroke="black" points="366,-519 366,-549 462,-549 462,-519 366,-519"/>
<text text-anchor="start" x="374" y="-537" font-family="Helvetica,sans-Serif" font-size="10.00">trippingcyril::net</text>
<text text-anchor="middle" x="414" y="-526" font-family="Helvetica,sans-Serif" font-size="10.00">::dns::IPv4Lookup</text>
</a>
</g>
</g>
<!-- Node6&#45;&gt;Node10 -->
<g id="edge8" class="edge"><title>Node6&#45;&gt;Node10</title>
<path fill="none" stroke="midnightblue" d="M265.776,-454.46C286.491,-470.951 316.844,-493.464 346,-509 352.793,-512.62 360.226,-515.953 367.59,-518.925"/>
<polygon fill="midnightblue" stroke="midnightblue" points="267.773,-451.574 257.791,-448.021 263.379,-457.023 267.773,-451.574"/>
</g>
<!-- Node11 -->
<g id="node11" class="node"><title>Node11</title>
<g id="a_node11"><a xlink:href="classtrippingcyril_1_1net_1_1dns_1_1_i_pv4_reverse_lookup.html" target="_top" xlink:title="Do a reverse ipv4 lookup. ">
<polygon fill="none" stroke="black" points="347.5,-470 347.5,-500 480.5,-500 480.5,-470 347.5,-470"/>
<text text-anchor="start" x="355.5" y="-488" font-family="Helvetica,sans-Serif" font-size="10.00">trippingcyril::net</text>
<text text-anchor="middle" x="414" y="-477" font-family="Helvetica,sans-Serif" font-size="10.00">::dns::IPv4ReverseLookup</text>
</a>
</g>
</g>
<!-- Node6&#45;&gt;Node11 -->
<g id="edge9" class="edge"><title>Node6&#45;&gt;Node11</title>
<path fill="none" stroke="midnightblue" d="M299.666,-450.934C320.335,-457.147 343.271,-464.041 363.074,-469.993"/>
<polygon fill="midnightblue" stroke="midnightblue" points="300.623,-447.567 290.039,-448.041 298.608,-454.271 300.623,-447.567"/>
</g>
<!-- Node12 -->
<g id="node12" class="node"><title>Node12</title>
<g id="a_node12"><a xlink:href="classtrippingcyril_1_1net_1_1_listener.html" target="_top" xlink:title="Generic listener class. ">
<polygon fill="none" stroke="black" points="371,-421 371,-451 457,-451 457,-421 371,-421"/>
<text text-anchor="start" x="379" y="-439" font-family="Helvetica,sans-Serif" font-size="10.00">trippingcyril::net</text>
<text text-anchor="middle" x="414" y="-428" font-family="Helvetica,sans-Serif" font-size="10.00">::Listener</text>
</a>
</g>
</g>
<!-- Node6&#45;&gt;Node12 -->
<g id="edge10" class="edge"><title>Node6&#45;&gt;Node12</title>
<path fill="none" stroke="midnightblue" d="M310.29,-434.219C330.807,-434.575 352.587,-434.952 370.786,-435.268"/>
<polygon fill="midnightblue" stroke="midnightblue" points="310.081,-430.715 300.021,-434.041 309.959,-437.714 310.081,-430.715"/>
</g>
<!-- Node13 -->
<g id="node13" class="node"><title>Node13</title>
<g id="a_node13"><a xlink:href="classtrippingcyril_1_1_pipe.html" target="_top" xlink:title="A wrapper class for pipes. ">
<polygon fill="none" stroke="black" points="368,-186.5 368,-205.5 460,-205.5 460,-186.5 368,-186.5"/>
<text text-anchor="middle" x="414" y="-193.5" font-family="Helvetica,sans-Serif" font-size="10.00">trippingcyril::Pipe</text>
</a>
</g>
</g>
<!-- Node6&#45;&gt;Node13 -->
<g id="edge12" class="edge"><title>Node6&#45;&gt;Node13</title>
<path fill="none" stroke="midnightblue" d="M290.717,-412.618C298.067,-407.786 304.868,-401.959 310,-395 358.422,-329.339 290.632,-274.92 346,-215 351.826,-208.695 359.574,-204.426 367.729,-201.549"/>
<polygon fill="midnightblue" stroke="midnightblue" points="288.723,-409.732 281.906,-417.842 292.293,-415.753 288.723,-409.732"/>
</g>
<!-- Node14 -->
<g id="node14" class="node"><title>Node14</title>
<g id="a_node14"><a xlink:href="classtrippingcyril_1_1thread_1_1_thread.html" target="_top" xlink:title="Simple thread class. ">
<polygon fill="none" stroke="black" points="364.5,-372 364.5,-402 463.5,-402 463.5,-372 364.5,-372"/>
<text text-anchor="start" x="372.5" y="-390" font-family="Helvetica,sans-Serif" font-size="10.00">trippingcyril::thread</text>
<text text-anchor="middle" x="414" y="-379" font-family="Helvetica,sans-Serif" font-size="10.00">::Thread</text>
</a>
</g>
</g>
<!-- Node6&#45;&gt;Node14 -->
<g id="edge13" class="edge"><title>Node6&#45;&gt;Node14</title>
<path fill="none" stroke="midnightblue" d="M306.559,-415.302C325.798,-410.187 346.429,-404.701 364.357,-399.934"/>
<polygon fill="midnightblue" stroke="midnightblue" points="305.411,-411.986 296.647,-417.938 307.21,-418.751 305.411,-411.986"/>
</g>
<!-- Node17 -->
<g id="node17" class="node"><title>Node17</title>
<g id="a_node17"><a xlink:href="classtrippingcyril_1_1timing_1_1_backoff_timer.html" target="_top" xlink:title="General backoff timer. ">
<polygon fill="none" stroke="black" points="365,-323 365,-353 463,-353 463,-323 365,-323"/>
<text text-anchor="start" x="373" y="-341" font-family="Helvetica,sans-Serif" font-size="10.00">trippingcyril::timing</text>
<text text-anchor="middle" x="414" y="-330" font-family="Helvetica,sans-Serif" font-size="10.00">::BackoffTimer</text>
</a>
</g>
</g>
<!-- Node6&#45;&gt;Node17 -->
<g id="edge16" class="edge"><title>Node6&#45;&gt;Node17</title>
<path fill="none" stroke="midnightblue" d="M280.571,-413.156C290.486,-407.721 300.864,-401.517 310,-395 327.67,-382.395 327.416,-373.214 346,-362 351.818,-358.489 358.229,-355.379 364.709,-352.659"/>
<polygon fill="midnightblue" stroke="midnightblue" points="278.82,-410.123 271.644,-417.917 282.115,-416.299 278.82,-410.123"/>
</g>
<!-- Node18 -->
<g id="node18" class="node"><title>Node18</title>
<g id="a_node18"><a xlink:href="classtrippingcyril_1_1timing_1_1_timer.html" target="_top" xlink:title="General timer class. ">
<polygon fill="none" stroke="black" points="365,-274 365,-304 463,-304 463,-274 365,-274"/>
<text text-anchor="start" x="373" y="-292" font-family="Helvetica,sans-Serif" font-size="10.00">trippingcyril::timing</text>
<text text-anchor="middle" x="414" y="-281" font-family="Helvetica,sans-Serif" font-size="10.00">::Timer</text>
</a>
</g>
</g>
<!-- Node6&#45;&gt;Node18 -->
<g id="edge17" class="edge"><title>Node6&#45;&gt;Node18</title>
<path fill="none" stroke="midnightblue" d="M287.401,-412.882C295.643,-407.898 303.607,-401.951 310,-395 336.943,-365.704 316.892,-340.146 346,-313 351.422,-307.944 357.982,-303.939 364.85,-300.771"/>
<polygon fill="midnightblue" stroke="midnightblue" points="285.427,-409.976 278.41,-417.914 288.846,-416.084 285.427,-409.976"/>
</g>
<!-- Node20 -->
<g id="node20" class="node"><title>Node20</title>
<g id="a_node20"><a xlink:href="classtrippingcyril_1_1_trigger_event.html" target="_top" xlink:title="trippingcyril::TriggerEvent">
<polygon fill="none" stroke="black" points="350,-617.5 350,-636.5 478,-636.5 478,-617.5 350,-617.5"/>
<text text-anchor="middle" x="414" y="-624.5" font-family="Helvetica,sans-Serif" font-size="10.00">trippingcyril::TriggerEvent</text>
</a>
</g>
</g>
<!-- Node6&#45;&gt;Node20 -->
<g id="edge19" class="edge"><title>Node6&#45;&gt;Node20</title>
<path fill="none" stroke="midnightblue" d="M248.481,-457.851C262.665,-495.69 294.791,-567.513 346,-607 351.672,-611.373 358.288,-614.793 365.112,-617.467"/>
<polygon fill="midnightblue" stroke="midnightblue" points="251.656,-456.341 244.955,-448.134 245.076,-458.728 251.656,-456.341"/>
</g>
<!-- Node8 -->
<g id="node8" class="node"><title>Node8</title>
<g id="a_node8"><a xlink:href="classtrippingcyril_1_1database_1_1postgres_1_1_blocking_post_gres.html" target="_top" xlink:title="A blocking postgresql implementation of the Database interface. ">
<polygon fill="none" stroke="black" points="524.5,-543 524.5,-573 669.5,-573 669.5,-543 524.5,-543"/>
<text text-anchor="start" x="532.5" y="-561" font-family="Helvetica,sans-Serif" font-size="10.00">trippingcyril::database</text>
<text text-anchor="middle" x="597" y="-550" font-family="Helvetica,sans-Serif" font-size="10.00">::postgres::BlockingPostGres</text>
</a>
</g>
</g>
<!-- Node7&#45;&gt;Node8 -->
<g id="edge6" class="edge"><title>Node7&#45;&gt;Node8</title>
<path fill="none" stroke="midnightblue" d="M480.483,-573.955C494.731,-571.987 509.877,-569.895 524.35,-567.896"/>
<polygon fill="midnightblue" stroke="midnightblue" points="479.717,-570.528 470.289,-575.363 480.674,-577.462 479.717,-570.528"/>
</g>
<!-- Node9 -->
<g id="node9" class="node"><title>Node9</title>
<g id="a_node9"><a xlink:href="classtrippingcyril_1_1database_1_1postgres_1_1_post_gres.html" target="_top" xlink:title="A non blocking postgresql implementation of the Database interface. ">
<polygon fill="none" stroke="black" points="541,-592 541,-622 653,-622 653,-592 541,-592"/>
<text text-anchor="start" x="549" y="-610" font-family="Helvetica,sans-Serif" font-size="10.00">trippingcyril::database</text>
<text text-anchor="middle" x="597" y="-599" font-family="Helvetica,sans-Serif" font-size="10.00">::postgres::PostGres</text>
</a>
</g>
</g>
<!-- Node7&#45;&gt;Node9 -->
<g id="edge7" class="edge"><title>Node7&#45;&gt;Node9</title>
<path fill="none" stroke="midnightblue" d="M480.445,-591.678C500.21,-594.299 521.706,-597.149 540.737,-599.672"/>
<polygon fill="midnightblue" stroke="midnightblue" points="480.663,-588.176 470.289,-590.331 479.743,-595.115 480.663,-588.176"/>
</g>
<!-- Node15 -->
<g id="node15" class="node"><title>Node15</title>
<g id="a_node15"><a xlink:href="classtrippingcyril_1_1_module_thread.html" target="_top" xlink:title="trippingcyril::ModuleThread">
<polygon fill="none" stroke="black" points="530,-355.5 530,-374.5 664,-374.5 664,-355.5 530,-355.5"/>
<text text-anchor="middle" x="597" y="-362.5" font-family="Helvetica,sans-Serif" font-size="10.00">trippingcyril::ModuleThread</text>
</a>
</g>
</g>
<!-- Node14&#45;&gt;Node15 -->
<g id="edge14" class="edge"><title>Node14&#45;&gt;Node15</title>
<path fill="none" stroke="midnightblue" d="M473.521,-379.887C491.436,-377.709 511.27,-375.299 529.666,-373.063"/>
<polygon fill="midnightblue" stroke="midnightblue" points="473.009,-376.423 463.505,-381.104 473.854,-383.372 473.009,-376.423"/>
</g>
<!-- Node16 -->
<g id="node16" class="node"><title>Node16</title>
<g id="a_node16"><a xlink:href="classtrippingcyril_1_1thread_1_1_job_thread.html" target="_top" xlink:title="A job queue that will run your jobs on a seperate thread. ">
<polygon fill="none" stroke="black" points="547.5,-394 547.5,-424 646.5,-424 646.5,-394 547.5,-394"/>
<text text-anchor="start" x="555.5" y="-412" font-family="Helvetica,sans-Serif" font-size="10.00">trippingcyril::thread</text>
<text text-anchor="middle" x="597" y="-401" font-family="Helvetica,sans-Serif" font-size="10.00">::JobThread</text>
</a>
</g>
</g>
<!-- Node14&#45;&gt;Node16 -->
<g id="edge15" class="edge"><title>Node14&#45;&gt;Node16</title>
<path fill="none" stroke="midnightblue" d="M473.498,-394.11C497.356,-397.01 524.62,-400.324 547.361,-403.088"/>
<polygon fill="midnightblue" stroke="midnightblue" points="473.854,-390.628 463.505,-392.896 473.009,-397.577 473.854,-390.628"/>
</g>
<!-- Node19 -->
<g id="node19" class="node"><title>Node19</title>
<g id="a_node19"><a xlink:href="classtrippingcyril_1_1timing_1_1_lamdba_timer.html" target="_top" xlink:title="trippingcyril::timing\l::LamdbaTimer">
<polygon fill="none" stroke="black" points="548,-274 548,-304 646,-304 646,-274 548,-274"/>
<text text-anchor="start" x="556" y="-292" font-family="Helvetica,sans-Serif" font-size="10.00">trippingcyril::timing</text>
<text text-anchor="middle" x="597" y="-281" font-family="Helvetica,sans-Serif" font-size="10.00">::LamdbaTimer</text>
</a>
</g>
</g>
<!-- Node18&#45;&gt;Node19 -->
<g id="edge18" class="edge"><title>Node18&#45;&gt;Node19</title>
<path fill="none" stroke="midnightblue" d="M473.112,-289C497.196,-289 524.806,-289 547.746,-289"/>
<polygon fill="midnightblue" stroke="midnightblue" points="473.03,-285.5 463.029,-289 473.029,-292.5 473.03,-285.5"/>
</g>
<!-- Node21 -->
<g id="node21" class="node"><title>Node21</title>
<g id="a_node21"><a xlink:href="classtrippingcyril_1_1_should_delete.html" target="_top" xlink:title="A simple interface to determine if the object should be deleted or not. ">
<polygon fill="none" stroke="black" points="0.5,-175.5 0.5,-194.5 131.5,-194.5 131.5,-175.5 0.5,-175.5"/>
<text text-anchor="middle" x="66" y="-182.5" font-family="Helvetica,sans-Serif" font-size="10.00">trippingcyril::ShouldDelete</text>
</a>
</g>
</g>
<!-- Node22 -->
<g id="node22" class="node"><title>Node22</title>
<g id="a_node22"><a xlink:href="classtrippingcyril_1_1database_1_1_d_b_callback.html" target="_top" xlink:title="Database callback class. ">
<polygon fill="none" stroke="black" points="183,-317 183,-347 295,-347 295,-317 183,-317"/>
<text text-anchor="start" x="191" y="-335" font-family="Helvetica,sans-Serif" font-size="10.00">trippingcyril::database</text>
<text text-anchor="middle" x="239" y="-324" font-family="Helvetica,sans-Serif" font-size="10.00">::DBCallback</text>
</a>
</g>
</g>
<!-- Node21&#45;&gt;Node22 -->
<g id="edge20" class="edge"><title>Node21&#45;&gt;Node22</title>
<path fill="none" stroke="midnightblue" d="M77.7273,-203.405C94.0342,-229.873 127.486,-278.614 168,-307 173.39,-310.776 179.411,-314.04 185.597,-316.846"/>
<polygon fill="midnightblue" stroke="midnightblue" points="80.6685,-201.505 72.5139,-194.741 74.6706,-205.114 80.6685,-201.505"/>
</g>
<!-- Node23 -->
<g id="node23" class="node"><title>Node23</title>
<g id="a_node23"><a xlink:href="classtrippingcyril_1_1database_1_1postgres_1_1_p_g_notify_listener.html" target="_top" xlink:title="Callback for listen/notify operations within PostGres, use this with PostGres::Listen. ">
<polygon fill="none" stroke="black" points="168.5,-268 168.5,-298 309.5,-298 309.5,-268 168.5,-268"/>
<text text-anchor="start" x="176.5" y="-286" font-family="Helvetica,sans-Serif" font-size="10.00">trippingcyril::database</text>
<text text-anchor="middle" x="239" y="-275" font-family="Helvetica,sans-Serif" font-size="10.00">::postgres::PGNotifyListener</text>
</a>
</g>
</g>
<!-- Node21&#45;&gt;Node23 -->
<g id="edge21" class="edge"><title>Node21&#45;&gt;Node23</title>
<path fill="none" stroke="midnightblue" d="M85.9306,-201.212C105.46,-217.307 137.313,-241.85 168,-258 174.966,-261.666 182.587,-265.004 190.155,-267.963"/>
<polygon fill="midnightblue" stroke="midnightblue" points="88.0306,-198.405 78.1139,-194.676 83.5403,-203.775 88.0306,-198.405"/>
</g>
<!-- Node24 -->
<g id="node24" class="node"><title>Node24</title>
<g id="a_node24"><a xlink:href="classtrippingcyril_1_1net_1_1dns_1_1_d_n_s_callback.html" target="_top" xlink:title="DNS callback class. ">
<polygon fill="none" stroke="black" points="187,-219 187,-249 291,-249 291,-219 187,-219"/>
<text text-anchor="start" x="195" y="-237" font-family="Helvetica,sans-Serif" font-size="10.00">trippingcyril::net</text>
<text text-anchor="middle" x="239" y="-226" font-family="Helvetica,sans-Serif" font-size="10.00">::dns::DNSCallback</text>
</a>
</g>
</g>
<!-- Node21&#45;&gt;Node24 -->
<g id="edge22" class="edge"><title>Node21&#45;&gt;Node24</title>
<path fill="none" stroke="midnightblue" d="M110.004,-197.323C133.348,-204.012 162.359,-212.325 186.856,-219.345"/>
<polygon fill="midnightblue" stroke="midnightblue" points="110.954,-193.954 100.376,-194.564 109.025,-200.683 110.954,-193.954"/>
</g>
<!-- Node25 -->
<g id="node25" class="node"><title>Node25</title>
<g id="a_node25"><a xlink:href="classtrippingcyril_1_1net_1_1dns_1_1_d_n_s_reverse_callback.html" target="_top" xlink:title="Reverse dns callback. ">
<polygon fill="none" stroke="black" points="168.5,-170 168.5,-200 309.5,-200 309.5,-170 168.5,-170"/>
<text text-anchor="start" x="176.5" y="-188" font-family="Helvetica,sans-Serif" font-size="10.00">trippingcyril::net</text>
<text text-anchor="middle" x="239" y="-177" font-family="Helvetica,sans-Serif" font-size="10.00">::dns::DNSReverseCallback</text>
</a>
</g>
</g>
<!-- Node21&#45;&gt;Node25 -->
<g id="edge23" class="edge"><title>Node21&#45;&gt;Node25</title>
<path fill="none" stroke="midnightblue" d="M141.898,-185C150.709,-185 159.673,-185 168.407,-185"/>
<polygon fill="midnightblue" stroke="midnightblue" points="141.648,-181.5 131.648,-185 141.648,-188.5 141.648,-181.5"/>
</g>
<!-- Node26 -->
<g id="node26" class="node"><title>Node26</title>
<g id="a_node26"><a xlink:href="classtrippingcyril_1_1net_1_1http_1_1_h_t_t_p_callback.html" target="_top" xlink:title="Callback class for our SimpleHTTPSocket. ">
<polygon fill="none" stroke="black" points="184,-121 184,-151 294,-151 294,-121 184,-121"/>
<text text-anchor="start" x="192" y="-139" font-family="Helvetica,sans-Serif" font-size="10.00">trippingcyril::net</text>
<text text-anchor="middle" x="239" y="-128" font-family="Helvetica,sans-Serif" font-size="10.00">::http::HTTPCallback</text>
</a>
</g>
</g>
<!-- Node21&#45;&gt;Node26 -->
<g id="edge24" class="edge"><title>Node21&#45;&gt;Node26</title>
<path fill="none" stroke="midnightblue" d="M110.154,-172.634C133.05,-166.074 161.365,-157.96 185.524,-151.037"/>
<polygon fill="midnightblue" stroke="midnightblue" points="109.025,-169.317 100.376,-175.436 110.954,-176.046 109.025,-169.317"/>
</g>
<!-- Node27 -->
<g id="node27" class="node"><title>Node27</title>
<g id="a_node27"><a xlink:href="classtrippingcyril_1_1thread_1_1_job.html" target="_top" xlink:title="Job base class With main thread we really just mean the thread the Module that the JobThread we are p...">
<polygon fill="none" stroke="black" points="178.5,-82.5 178.5,-101.5 299.5,-101.5 299.5,-82.5 178.5,-82.5"/>
<text text-anchor="middle" x="239" y="-89.5" font-family="Helvetica,sans-Serif" font-size="10.00">trippingcyril::thread::Job</text>
</a>
</g>
</g>
<!-- Node21&#45;&gt;Node27 -->
<g id="edge25" class="edge"><title>Node21&#45;&gt;Node27</title>
<path fill="none" stroke="midnightblue" d="M85.01,-168.581C104.244,-151.859 136.266,-126.278 168,-111 175.829,-107.231 184.523,-104.113 193.047,-101.57"/>
<polygon fill="midnightblue" stroke="midnightblue" points="82.5199,-166.111 77.3536,-175.361 87.1606,-171.352 82.5199,-166.111"/>
</g>
<!-- Node28 -->
<g id="node28" class="node"><title>Node28</title>
<g id="a_node28"><a xlink:href="classtrippingcyril_1_1_writer.html" target="_top" xlink:title="Writer class to provide a general writing operation so it&#39;s easier to write wrapper classes for write...">
<polygon fill="none" stroke="black" points="190,-44.5 190,-63.5 288,-63.5 288,-44.5 190,-44.5"/>
<text text-anchor="middle" x="239" y="-51.5" font-family="Helvetica,sans-Serif" font-size="10.00">trippingcyril::Writer</text>
</a>
</g>
</g>
<!-- Node21&#45;&gt;Node28 -->
<g id="edge26" class="edge"><title>Node21&#45;&gt;Node28</title>
<path fill="none" stroke="midnightblue" d="M78.5409,-166.663C95.2194,-141.688 128.439,-97.3108 168,-73 174.652,-68.9124 182.187,-65.6903 189.789,-63.1542"/>
<polygon fill="midnightblue" stroke="midnightblue" points="75.504,-164.913 72.9798,-175.202 81.3698,-168.733 75.504,-164.913"/>
</g>
<!-- Node28&#45;&gt;Node2 -->
<g id="edge32" class="edge"><title>Node28&#45;&gt;Node2</title>
<path fill="none" stroke="midnightblue" d="M296.675,-66.9156C301.289,-68.704 305.791,-70.7234 310,-73 328.829,-83.185 329.599,-91.2427 346,-105 364.636,-120.631 386.891,-137.986 400.481,-148.441"/>
<polygon fill="midnightblue" stroke="midnightblue" points="297.695,-63.5647 287.1,-63.5608 295.38,-70.1708 297.695,-63.5647"/>
</g>
<!-- Node28&#45;&gt;Node4 -->
<g id="edge33" class="edge"><title>Node28&#45;&gt;Node4</title>
<path fill="none" stroke="midnightblue" d="M297.381,-63.8272C302.033,-66.2657 306.341,-69.2795 310,-73 355.651,-119.422 302.534,-166.526 346,-215 352.631,-222.395 361.66,-227.609 370.942,-231.284"/>
<polygon fill="midnightblue" stroke="midnightblue" points="298.661,-60.5673 288.093,-59.8124 295.884,-66.9928 298.661,-60.5673"/>
</g>
<!-- Node28&#45;&gt;Node13 -->
<g id="edge34" class="edge"><title>Node28&#45;&gt;Node13</title>
<path fill="none" stroke="midnightblue" d="M297.263,-64.2666C301.903,-66.6174 306.243,-69.4906 310,-73 345.746,-106.387 310.443,-143.411 346,-177 352.065,-182.729 359.727,-186.75 367.686,-189.567"/>
<polygon fill="midnightblue" stroke="midnightblue" points="298.616,-61.0387 288.043,-60.36 295.885,-67.484 298.616,-61.0387"/>
</g>
<!-- Node29 -->
<g id="node29" class="node"><title>Node29</title>
<g id="a_node29"><a xlink:href="classtrippingcyril_1_1_compressor.html" target="_top" xlink:title="Abstract compressor. ">
<polygon fill="none" stroke="black" points="351.5,-76.5 351.5,-95.5 476.5,-95.5 476.5,-76.5 351.5,-76.5"/>
<text text-anchor="middle" x="414" y="-83.5" font-family="Helvetica,sans-Serif" font-size="10.00">trippingcyril::Compressor</text>
</a>
</g>
</g>
<!-- Node28&#45;&gt;Node29 -->
<g id="edge27" class="edge"><title>Node28&#45;&gt;Node29</title>
<path fill="none" stroke="midnightblue" d="M298.047,-64.7371C318.568,-68.5328 341.493,-72.7732 361.438,-76.4626"/>
<polygon fill="midnightblue" stroke="midnightblue" points="298.66,-61.2911 288.19,-62.9138 297.387,-68.1743 298.66,-61.2911"/>
</g>
<!-- Node32 -->
<g id="node32" class="node"><title>Node32</title>
<g id="a_node32"><a xlink:href="classtrippingcyril_1_1_decompressor.html" target="_top" xlink:title="Abstract decompressor. ">
<polygon fill="none" stroke="black" points="346,-38.5 346,-57.5 482,-57.5 482,-38.5 346,-38.5"/>
<text text-anchor="middle" x="414" y="-45.5" font-family="Helvetica,sans-Serif" font-size="10.00">trippingcyril::Decompressor</text>
</a>
</g>
</g>
<!-- Node28&#45;&gt;Node32 -->
<g id="edge30" class="edge"><title>Node28&#45;&gt;Node32</title>
<path fill="none" stroke="midnightblue" d="M298.519,-51.9704C313.778,-51.4412 330.338,-50.8669 346,-50.3237"/>
<polygon fill="midnightblue" stroke="midnightblue" points="298.063,-48.4841 288.19,-52.3287 298.305,-55.4799 298.063,-48.4841"/>
</g>
<!-- Node34 -->
<g id="node34" class="node"><title>Node34</title>
<g id="a_node34"><a xlink:href="classtrippingcyril_1_1_string_writer.html" target="_top" xlink:title="Simple in memory writer that just writes everything to a string. ">
<polygon fill="none" stroke="black" points="352,-0.5 352,-19.5 476,-19.5 476,-0.5 352,-0.5"/>
<text text-anchor="middle" x="414" y="-7.5" font-family="Helvetica,sans-Serif" font-size="10.00">trippingcyril::StringWriter</text>
</a>
</g>
</g>
<!-- Node28&#45;&gt;Node34 -->
<g id="edge35" class="edge"><title>Node28&#45;&gt;Node34</title>
<path fill="none" stroke="midnightblue" d="M287.425,-41.9383C315.17,-34.8815 349.707,-26.0976 375.535,-19.5287"/>
<polygon fill="midnightblue" stroke="midnightblue" points="286.367,-38.5957 277.538,-44.4527 288.093,-45.3797 286.367,-38.5957"/>
</g>
<!-- Node30 -->
<g id="node30" class="node"><title>Node30</title>
<g id="a_node30"><a xlink:href="classtrippingcyril_1_1_g_zip_compressor.html" target="_top" xlink:title="A gzip implementation of the Compressor interface. ">
<polygon fill="none" stroke="black" points="524,-74.5 524,-93.5 670,-93.5 670,-74.5 524,-74.5"/>
<text text-anchor="middle" x="597" y="-81.5" font-family="Helvetica,sans-Serif" font-size="10.00">trippingcyril::GZipCompressor</text>
</a>
</g>
</g>
<!-- Node29&#45;&gt;Node30 -->
<g id="edge28" class="edge"><title>Node29&#45;&gt;Node30</title>
<path fill="none" stroke="midnightblue" d="M486.638,-85.2084C498.829,-85.0737 511.498,-84.9337 523.706,-84.7988"/>
<polygon fill="midnightblue" stroke="midnightblue" points="486.492,-81.7097 476.531,-85.3201 486.569,-88.7093 486.492,-81.7097"/>
</g>
<!-- Node31 -->
<g id="node31" class="node"><title>Node31</title>
<g id="a_node31"><a xlink:href="classtrippingcyril_1_1_l_z_m_a_compressor.html" target="_top" xlink:title="A lzma implementation of the Compressor interface. ">
<polygon fill="none" stroke="black" points="521,-112.5 521,-131.5 673,-131.5 673,-112.5 521,-112.5"/>
<text text-anchor="middle" x="597" y="-119.5" font-family="Helvetica,sans-Serif" font-size="10.00">trippingcyril::LZMACompressor</text>
</a>
</g>
</g>
<!-- Node29&#45;&gt;Node31 -->
<g id="edge29" class="edge"><title>Node29&#45;&gt;Node31</title>
<path fill="none" stroke="midnightblue" d="M473.153,-97.5663C497.338,-102.377 525.071,-107.893 548.06,-112.465"/>
<polygon fill="midnightblue" stroke="midnightblue" points="473.52,-94.0709 463.029,-95.5528 472.155,-100.936 473.52,-94.0709"/>
</g>
<!-- Node33 -->
<g id="node33" class="node"><title>Node33</title>
<g id="a_node33"><a xlink:href="classtrippingcyril_1_1_g_zip_decompressor.html" target="_top" xlink:title="A gzip implementation of the Decompressor interface. ">
<polygon fill="none" stroke="black" points="518.5,-36.5 518.5,-55.5 675.5,-55.5 675.5,-36.5 518.5,-36.5"/>
<text text-anchor="middle" x="597" y="-43.5" font-family="Helvetica,sans-Serif" font-size="10.00">trippingcyril::GZipDecompressor</text>
</a>
</g>
</g>
<!-- Node32&#45;&gt;Node33 -->
<g id="edge31" class="edge"><title>Node32&#45;&gt;Node33</title>
<path fill="none" stroke="midnightblue" d="M492.187,-47.1471C500.827,-47.0516 509.632,-46.9543 518.278,-46.8588"/>
<polygon fill="midnightblue" stroke="midnightblue" points="492.101,-43.6477 482.141,-47.2581 492.179,-50.6473 492.101,-43.6477"/>
</g>
</g>
</svg>
