<?xml version="1.0" encoding="UTF-8" standalone="no"?>
<!DOCTYPE svg PUBLIC "-//W3C//DTD SVG 1.1//EN"
 "http://www.w3.org/Graphics/SVG/1.1/DTD/svg11.dtd">
<!-- Generated by graphviz version 2.34.0 (20140110.0949)
 -->
<!-- Title: Graphical Class Hierarchy Pages: 1 -->
<svg width="216pt" height="87pt"
 viewBox="0.00 0.00 216.00 87.00" xmlns="http://www.w3.org/2000/svg" xmlns:xlink="http://www.w3.org/1999/xlink">
<g id="graph0" class="graph" transform="scale(1 1) rotate(0) translate(4 83)">
<title>Graphical Class Hierarchy</title>
<!-- Node1 -->
<g id="node1" class="node"><title>Node1</title>
<g id="a_node1"><a xlink:href="classtrippingcyril_1_1log_1_1_logger.html" target="_top" xlink:title="Base class to provide logging. ">
<polygon fill="none" stroke="black" points="0.5,-24 0.5,-54 85.5,-54 85.5,-24 0.5,-24"/>
<text text-anchor="start" x="8.5" y="-42" font-family="Helvetica,sans-Serif" font-size="10.00">trippingcyril::log</text>
<text text-anchor="middle" x="43" y="-31" font-family="Helvetica,sans-Serif" font-size="10.00">::Logger</text>
</a>
</g>
</g>
<!-- Node2 -->
<g id="node2" class="node"><title>Node2</title>
<g id="a_node2"><a xlink:href="classtrippingcyril_1_1log_1_1_file_logger.html" target="_top" xlink:title="A simple logger implementation which logs into a file. ">
<polygon fill="none" stroke="black" points="122.5,-49 122.5,-79 207.5,-79 207.5,-49 122.5,-49"/>
<text text-anchor="start" x="130.5" y="-67" font-family="Helvetica,sans-Serif" font-size="10.00">trippingcyril::log</text>
<text text-anchor="middle" x="165" y="-56" font-family="Helvetica,sans-Serif" font-size="10.00">::FileLogger</text>
</a>
</g>
</g>
<!-- Node1&#45;&gt;Node2 -->
<g id="edge1" class="edge"><title>Node1&#45;&gt;Node2</title>
<path fill="none" stroke="midnightblue" d="M95.6026,-49.7505C104.567,-51.6182 113.787,-53.539 122.44,-55.3417"/>
<polygon fill="midnightblue" stroke="midnightblue" points="96.1371,-46.2868 85.6334,-47.6736 94.7093,-53.1397 96.1371,-46.2868"/>
</g>
<!-- Node3 -->
<g id="node3" class="node"><title>Node3</title>
<g id="a_node3"><a xlink:href="classtrippingcyril_1_1log_1_1_sys_logger.html" target="_top" xlink:title="A simple logger implementation which logs using the syslog(3) method. ">
<polygon fill="none" stroke="black" points="122.5,-0 122.5,-30 207.5,-30 207.5,-0 122.5,-0"/>
<text text-anchor="start" x="130.5" y="-18" font-family="Helvetica,sans-Serif" font-size="10.00">trippingcyril::log</text>
<text text-anchor="middle" x="165" y="-7" font-family="Helvetica,sans-Serif" font-size="10.00">::SysLogger</text>
</a>
</g>
</g>
<!-- Node1&#45;&gt;Node3 -->
<g id="edge2" class="edge"><title>Node1&#45;&gt;Node3</title>
<path fill="none" stroke="midnightblue" d="M95.6026,-28.6795C104.567,-26.8865 113.787,-25.0426 122.44,-23.312"/>
<polygon fill="midnightblue" stroke="midnightblue" points="94.7528,-25.28 85.6334,-30.6733 96.1256,-32.1441 94.7528,-25.28"/>
</g>
</g>
</svg>
