<?xml version="1.0" encoding="UTF-8" standalone="no"?>
<!DOCTYPE svg PUBLIC "-//W3C//DTD SVG 1.1//EN"
 "http://www.w3.org/Graphics/SVG/1.1/DTD/svg11.dtd">
<!-- Generated by graphviz version 2.34.0 (20140110.0949)
 -->
<!-- Title: Graphical Class Hierarchy Pages: 1 -->
<svg width="684pt" height="641pt"
 viewBox="0.00 0.00 684.00 641.00" xmlns="http://www.w3.org/2000/svg" xmlns:xlink="http://www.w3.org/1999/xlink">
<g id="graph0" class="graph" transform="scale(1 1) rotate(0) translate(4 637)">
<title>Graphical Class Hierarchy</title>
<!-- Node1 -->
<g id="node1" class="node"><title>Node1</title>
<g id="a_node1"><a xlink:href="classtrippingcyril_1_1_closable.html" target="_top" xlink:title="Writer class to provide a general closing operation. ">
<polygon fill="none" stroke="black" points="184,-360.5 184,-379.5 294,-379.5 294,-360.5 184,-360.5"/>
<text text-anchor="middle" x="239" y="-367.5" font-family="Helvetica,sans-Serif" font-size="10.00">trippingcyril::Closable</text>
</a>
</g>
</g>
<!-- Node2 -->
<g id="node2" class="node"><title>Node2</title>
<g id="a_node2"><a xlink:href="classtrippingcyril_1_1_file.html" target="_top" xlink:title="A general file access class. ">
<polygon fill="none" stroke="black" points="370,-154.5 370,-173.5 458,-173.5 458,-154.5 370,-154.5"/>
<text text-anchor="middle" x="414" y="-161.5" font-family="Helvetica,sans-Serif" font-size="10.00">trippingcyril::File</text>
</a>
</g>
</g>
<!-- Node1&#45;&gt;Node2 -->
<g id="edge1" class="edge"><title>Node1&#45;&gt;Node2</title>
<path fill="none" stroke="midnightblue" d="M303.163,-355.904C305.625,-354.155 307.924,-352.195 310,-350 359.789,-297.361 299.036,-246.174 346,-191 352.666,-183.169 361.935,-177.585 371.457,-173.611"/>
<polygon fill="midnightblue" stroke="midnightblue" points="301.145,-353.028 294.251,-361.074 304.657,-359.083 301.145,-353.028"/>
</g>
<!-- Node4 -->
<g id="node4" class="node"><title>Node4</title>
<g id="a_node4"><a xlink:href="classtrippingcyril_1_1net_1_1_socket.html" target="_top" xlink:title="General tcp socket class, fully async using libevent. ">
<polygon fill="none" stroke="black" points="371,-243 371,-273 457,-273 457,-243 371,-243"/>
<text text-anchor="start" x="379" y="-261" font-family="Helvetica,sans-Serif" font-size="10.00">trippingcyril::net</text>
<text text-anchor="middle" x="414" y="-250" font-family="Helvetica,sans-Serif" font-size="10.00">::Socket</text>
</a>
</g>
</g>
<!-- Node1&#45;&gt;Node4 -->
<g id="edge3" class="edge"><title>Node1&#45;&gt;Node4</title>
<path fill="none" stroke="midnightblue" d="M301.008,-356.036C304.189,-354.259 307.215,-352.257 310,-350 336.566,-328.468 320.155,-304.392 346,-282 353.097,-275.851 361.885,-271.238 370.735,-267.79"/>
<polygon fill="midnightblue" stroke="midnightblue" points="299.229,-353.006 291.707,-360.468 302.241,-359.325 299.229,-353.006"/>
</g>
<!-- Node3 -->
<g id="node3" class="node"><title>Node3</title>
<g id="a_node3"><a xlink:href="classtrippingcyril_1_1_temp_file.html" target="_top" xlink:title="An easy way to get temporary files in /tmp which will be deleted upon destruction of the object...">
<polygon fill="none" stroke="black" points="540.5,-154.5 540.5,-173.5 653.5,-173.5 653.5,-154.5 540.5,-154.5"/>
<text text-anchor="middle" x="597" y="-161.5" font-family="Helvetica,sans-Serif" font-size="10.00">trippingcyril::TempFile</text>
</a>
</g>
</g>
<!-- Node2&#45;&gt;Node3 -->
<g id="edge2" class="edge"><title>Node2&#45;&gt;Node3</title>
<path fill="none" stroke="midnightblue" d="M468.461,-164C491.087,-164 517.446,-164 540.309,-164"/>
<polygon fill="midnightblue" stroke="midnightblue" points="468.354,-160.5 458.354,-164 468.354,-167.5 468.354,-160.5"/>
</g>
<!-- Node5 -->
<g id="node5" class="node"><title>Node5</title>
<g id="a_node5"><a xlink:href="classtrippingcyril_1_1net_1_1http_1_1_simple_h_t_t_p_socket.html" target="_top" xlink:title="A simple http client. ">
<polygon fill="none" stroke="black" points="531,-243 531,-273 663,-273 663,-243 531,-243"/>
<text text-anchor="start" x="539" y="-261" font-family="Helvetica,sans-Serif" font-size="10.00">trippingcyril::net</text>
<text text-anchor="middle" x="597" y="-250" font-family="Helvetica,sans-Serif" font-size="10.00">::http::SimpleHTTPSocket</text>
</a>
</g>
</g>
<!-- Node4&#45;&gt;Node5 -->
<g id="edge4" class="edge"><title>Node4&#45;&gt;Node5</title>
<path fill="none" stroke="midnightblue" d="M467.483,-258C487.26,-258 509.998,-258 530.798,-258"/>
<polygon fill="midnightblue" stroke="midnightblue" points="467.436,-254.5 457.436,-258 467.436,-261.5 467.436,-254.5"/>
</g>
<!-- Node6 -->
<g id="node6" class="node"><title>Node6</title>
<g id="a_node6"><a xlink:href="classtrippingcyril_1_1_event.html" target="_top" xlink:title="Event class to automatically register and unregister event driven classes with modules, simply implement this from any event driven class. ">
<polygon fill="none" stroke="black" points="190,-398.5 190,-417.5 288,-417.5 288,-398.5 190,-398.5"/>
<text text-anchor="middle" x="239" y="-405.5" font-family="Helvetica,sans-Serif" font-size="10.00">trippingcyril::Event</text>
</a>
</g>
</g>
<!-- Node6&#45;&gt;Node4 -->
<g id="edge11" class="edge"><title>Node6&#45;&gt;Node4</title>
<path fill="none" stroke="midnightblue" d="M297.296,-397.768C301.929,-395.41 306.258,-392.526 310,-389 346.519,-354.592 310.867,-317.822 346,-282 352.748,-275.119 361.604,-270.204 370.657,-266.694"/>
<polygon fill="midnightblue" stroke="midnightblue" points="295.918,-394.55 288.084,-401.684 298.657,-400.993 295.918,-394.55"/>
</g>
<!-- Node7 -->
<g id="node7" class="node"><title>Node7</title>
<g id="a_node7"><a xlink:href="classtrippingcyril_1_1database_1_1_database.html" target="_top" xlink:title="Database interface. ">
<polygon fill="none" stroke="black" points="358,-439 358,-469 470,-469 470,-439 358,-439"/>
<text text-anchor="start" x="366" y="-457" font-family="Helvetica,sans-Serif" font-size="10.00">trippingcyril::database</text>
<text text-anchor="middle" x="414" y="-446" font-family="Helvetica,sans-Serif" font-size="10.00">::Database</text>
</a>
</g>
</g>
<!-- Node6&#45;&gt;Node7 -->
<g id="edge5" class="edge"><title>Node6&#45;&gt;Node7</title>
<path fill="none" stroke="midnightblue" d="M285.654,-420.139C307.773,-426.021 334.518,-433.132 357.777,-439.316"/>
<polygon fill="midnightblue" stroke="midnightblue" points="286.409,-416.719 275.846,-417.531 284.611,-423.483 286.409,-416.719"/>
</g>
<!-- Node10 -->
<g id="node10" class="node"><title>Node10</title>
<g id="a_node10"><a xlink:href="classtrippingcyril_1_1net_1_1dns_1_1_i_pv4_lookup.html" target="_top" xlink:title="A simple IPv4 lookup event. ">
<polygon fill="none" stroke="black" points="366,-390 366,-420 462,-420 462,-390 366,-390"/>
<text text-anchor="start" x="374" y="-408" font-family="Helvetica,sans-Serif" font-size="10.00">trippingcyril::net</text>
<text text-anchor="middle" x="414" y="-397" font-family="Helvetica,sans-Serif" font-size="10.00">::dns::IPv4Lookup</text>
</a>
</g>
</g>
<!-- Node6&#45;&gt;Node10 -->
<g id="edge8" class="edge"><title>Node6&#45;&gt;Node10</title>
<path fill="none" stroke="midnightblue" d="M298.412,-406.987C320.412,-406.606 345.132,-406.177 365.964,-405.816"/>
<polygon fill="midnightblue" stroke="midnightblue" points="298.128,-403.491 288.19,-407.164 298.249,-410.49 298.128,-403.491"/>
</g>
<!-- Node11 -->
<g id="node11" class="node"><title>Node11</title>
<g id="a_node11"><a xlink:href="classtrippingcyril_1_1net_1_1dns_1_1_i_pv4_reverse_lookup.html" target="_top" xlink:title="Do a reverse ipv4 lookup. ">
<polygon fill="none" stroke="black" points="347.5,-341 347.5,-371 480.5,-371 480.5,-341 347.5,-341"/>
<text text-anchor="start" x="355.5" y="-359" font-family="Helvetica,sans-Serif" font-size="10.00">trippingcyril::net</text>
<text text-anchor="middle" x="414" y="-348" font-family="Helvetica,sans-Serif" font-size="10.00">::dns::IPv4ReverseLookup</text>
</a>
</g>
</g>
<!-- Node6&#45;&gt;Node11 -->
<g id="edge9" class="edge"><title>Node6&#45;&gt;Node11</title>
<path fill="none" stroke="midnightblue" d="M286.291,-395.751C294.218,-393.564 302.358,-391.26 310,-389 328.907,-383.408 349.631,-376.852 367.502,-371.063"/>
<polygon fill="midnightblue" stroke="midnightblue" points="285.143,-392.436 276.419,-398.448 286.988,-399.189 285.143,-392.436"/>
</g>
<!-- Node12 -->
<g id="node12" class="node"><title>Node12</title>
<g id="a_node12"><a xlink:href="classtrippingcyril_1_1net_1_1_listener.html" target="_top" xlink:title="Generic listener class. ">
<polygon fill="none" stroke="black" points="371,-292 371,-322 457,-322 457,-292 371,-292"/>
<text text-anchor="start" x="379" y="-310" font-family="Helvetica,sans-Serif" font-size="10.00">trippingcyril::net</text>
<text text-anchor="middle" x="414" y="-299" font-family="Helvetica,sans-Serif" font-size="10.00">::Listener</text>
</a>
</g>
</g>
<!-- Node6&#45;&gt;Node12 -->
<g id="edge10" class="edge"><title>Node6&#45;&gt;Node12</title>
<path fill="none" stroke="midnightblue" d="M297.482,-396.35C301.922,-394.287 306.162,-391.858 310,-389 334.332,-370.877 322.402,-350.069 346,-331 353.208,-325.176 361.943,-320.704 370.692,-317.293"/>
<polygon fill="midnightblue" stroke="midnightblue" points="296.133,-393.12 288.155,-400.092 298.74,-399.616 296.133,-393.12"/>
</g>
<!-- Node13 -->
<g id="node13" class="node"><title>Node13</title>
<g id="a_node13"><a xlink:href="classtrippingcyril_1_1_pipe.html" target="_top" xlink:title="A wrapper class for pipes. ">
<polygon fill="none" stroke="black" points="368,-200.5 368,-219.5 460,-219.5 460,-200.5 368,-200.5"/>
<text text-anchor="middle" x="414" y="-207.5" font-family="Helvetica,sans-Serif" font-size="10.00">trippingcyril::Pipe</text>
</a>
</g>
</g>
<!-- Node6&#45;&gt;Node13 -->
<g id="edge12" class="edge"><title>Node6&#45;&gt;Node13</title>
<path fill="none" stroke="midnightblue" d="M297.466,-398.255C302.1,-395.8 306.382,-392.76 310,-389 359.343,-337.733 298.365,-285.859 346,-233 351.845,-226.514 359.602,-221.856 367.76,-218.512"/>
<polygon fill="midnightblue" stroke="midnightblue" points="295.97,-395.089 288.2,-402.291 298.765,-401.507 295.97,-395.089"/>
</g>
<!-- Node14 -->
<g id="node14" class="node"><title>Node14</title>
<g id="a_node14"><a xlink:href="classtrippingcyril_1_1thread_1_1_thread.html" target="_top" xlink:title="Simple thread class. ">
<polygon fill="none" stroke="black" points="364.5,-586 364.5,-616 463.5,-616 463.5,-586 364.5,-586"/>
<text text-anchor="start" x="372.5" y="-604" font-family="Helvetica,sans-Serif" font-size="10.00">trippingcyril::thread</text>
<text text-anchor="middle" x="414" y="-593" font-family="Helvetica,sans-Serif" font-size="10.00">::Thread</text>
</a>
</g>
</g>
<!-- Node6&#45;&gt;Node14 -->
<g id="edge13" class="edge"><title>Node6&#45;&gt;Node14</title>
<path fill="none" stroke="midnightblue" d="M247.296,-427.33C261.282,-461.909 295.07,-534.601 346,-576 351.491,-580.464 357.859,-584.179 364.44,-587.258"/>
<polygon fill="midnightblue" stroke="midnightblue" points="250.506,-425.928 243.594,-417.899 243.99,-428.486 250.506,-425.928"/>
</g>
<!-- Node17 -->
<g id="node17" class="node"><title>Node17</title>
<g id="a_node17"><a xlink:href="classtrippingcyril_1_1timing_1_1_backoff_timer.html" target="_top" xlink:title="General backoff timer. ">
<polygon fill="none" stroke="black" points="365,-537 365,-567 463,-567 463,-537 365,-537"/>
<text text-anchor="start" x="373" y="-555" font-family="Helvetica,sans-Serif" font-size="10.00">trippingcyril::timing</text>
<text text-anchor="middle" x="414" y="-544" font-family="Helvetica,sans-Serif" font-size="10.00">::BackoffTimer</text>
</a>
</g>
</g>
<!-- Node6&#45;&gt;Node17 -->
<g id="edge16" class="edge"><title>Node6&#45;&gt;Node17</title>
<path fill="none" stroke="midnightblue" d="M251.903,-426.224C269.583,-451.987 305.125,-499.029 346,-527 351.738,-530.926 358.171,-534.331 364.722,-537.255"/>
<polygon fill="midnightblue" stroke="midnightblue" points="254.704,-424.116 246.221,-417.769 248.894,-428.021 254.704,-424.116"/>
</g>
<!-- Node18 -->
<g id="node18" class="node"><title>Node18</title>
<g id="a_node18"><a xlink:href="classtrippingcyril_1_1timing_1_1_timer.html" target="_top" xlink:title="General timer class. ">
<polygon fill="none" stroke="black" points="365,-488 365,-518 463,-518 463,-488 365,-488"/>
<text text-anchor="start" x="373" y="-506" font-family="Helvetica,sans-Serif" font-size="10.00">trippingcyril::timing</text>
<text text-anchor="middle" x="414" y="-495" font-family="Helvetica,sans-Serif" font-size="10.00">::Timer</text>
</a>
</g>
</g>
<!-- Node6&#45;&gt;Node18 -->
<g id="edge17" class="edge"><title>Node6&#45;&gt;Node18</title>
<path fill="none" stroke="midnightblue" d="M260.562,-423.617C281.318,-438.881 314.694,-462.083 346,-478 353.083,-481.601 360.812,-484.964 368.421,-487.983"/>
<polygon fill="midnightblue" stroke="midnightblue" points="262.594,-420.766 252.482,-417.605 258.416,-426.383 262.594,-420.766"/>
</g>
<!-- Node8 -->
<g id="node8" class="node"><title>Node8</title>
<g id="a_node8"><a xlink:href="classtrippingcyril_1_1database_1_1postgres_1_1_blocking_post_gres.html" target="_top" xlink:title="A blocking postgresql implementation of the Database interface. ">
<polygon fill="none" stroke="black" points="524.5,-390 524.5,-420 669.5,-420 669.5,-390 524.5,-390"/>
<text text-anchor="start" x="532.5" y="-408" font-family="Helvetica,sans-Serif" font-size="10.00">trippingcyril::database</text>
<text text-anchor="middle" x="597" y="-397" font-family="Helvetica,sans-Serif" font-size="10.00">::postgres::BlockingPostGres</text>
</a>
</g>
</g>
<!-- Node7&#45;&gt;Node8 -->
<g id="edge6" class="edge"><title>Node7&#45;&gt;Node8</title>
<path fill="none" stroke="midnightblue" d="M480.127,-436.369C499.871,-431.024 521.369,-425.204 540.425,-420.045"/>
<polygon fill="midnightblue" stroke="midnightblue" points="479.027,-433.041 470.289,-439.032 480.857,-439.797 479.027,-433.041"/>
</g>
<!-- Node9 -->
<g id="node9" class="node"><title>Node9</title>
<g id="a_node9"><a xlink:href="classtrippingcyril_1_1database_1_1postgres_1_1_post_gres.html" target="_top" xlink:title="A non blocking postgresql implementation of the Database interface. ">
<polygon fill="none" stroke="black" points="541,-439 541,-469 653,-469 653,-439 541,-439"/>
<text text-anchor="start" x="549" y="-457" font-family="Helvetica,sans-Serif" font-size="10.00">trippingcyril::database</text>
<text text-anchor="middle" x="597" y="-446" font-family="Helvetica,sans-Serif" font-size="10.00">::postgres::PostGres</text>
</a>
</g>
</g>
<!-- Node7&#45;&gt;Node9 -->
<g id="edge7" class="edge"><title>Node7&#45;&gt;Node9</title>
<path fill="none" stroke="midnightblue" d="M480.445,-454C500.21,-454 521.706,-454 540.737,-454"/>
<polygon fill="midnightblue" stroke="midnightblue" points="480.289,-450.5 470.289,-454 480.289,-457.5 480.289,-450.5"/>
</g>
<!-- Node15 -->
<g id="node15" class="node"><title>Node15</title>
<g id="a_node15"><a xlink:href="classtrippingcyril_1_1_module_thread.html" target="_top" xlink:title="trippingcyril::ModuleThread">
<polygon fill="none" stroke="black" points="530,-613.5 530,-632.5 664,-632.5 664,-613.5 530,-613.5"/>
<text text-anchor="middle" x="597" y="-620.5" font-family="Helvetica,sans-Serif" font-size="10.00">trippingcyril::ModuleThread</text>
</a>
</g>
</g>
<!-- Node14&#45;&gt;Node15 -->
<g id="edge14" class="edge"><title>Node14&#45;&gt;Node15</title>
<path fill="none" stroke="midnightblue" d="M473.521,-608.113C491.436,-610.291 511.27,-612.701 529.666,-614.937"/>
<polygon fill="midnightblue" stroke="midnightblue" points="473.854,-604.628 463.505,-606.896 473.009,-611.577 473.854,-604.628"/>
</g>
<!-- Node16 -->
<g id="node16" class="node"><title>Node16</title>
<g id="a_node16"><a xlink:href="classtrippingcyril_1_1thread_1_1_job_thread.html" target="_top" xlink:title="A job queue that will run your jobs on a seperate thread. ">
<polygon fill="none" stroke="black" points="547.5,-564 547.5,-594 646.5,-594 646.5,-564 547.5,-564"/>
<text text-anchor="start" x="555.5" y="-582" font-family="Helvetica,sans-Serif" font-size="10.00">trippingcyril::thread</text>
<text text-anchor="middle" x="597" y="-571" font-family="Helvetica,sans-Serif" font-size="10.00">::JobThread</text>
</a>
</g>
</g>
<!-- Node14&#45;&gt;Node16 -->
<g id="edge15" class="edge"><title>Node14&#45;&gt;Node16</title>
<path fill="none" stroke="midnightblue" d="M473.498,-593.89C497.356,-590.99 524.62,-587.676 547.361,-584.912"/>
<polygon fill="midnightblue" stroke="midnightblue" points="473.009,-590.423 463.505,-595.104 473.854,-597.372 473.009,-590.423"/>
</g>
<!-- Node19 -->
<g id="node19" class="node"><title>Node19</title>
<g id="a_node19"><a xlink:href="classtrippingcyril_1_1timing_1_1_lamdba_timer.html" target="_top" xlink:title="trippingcyril::timing\l::LamdbaTimer">
<polygon fill="none" stroke="black" points="548,-488 548,-518 646,-518 646,-488 548,-488"/>
<text text-anchor="start" x="556" y="-506" font-family="Helvetica,sans-Serif" font-size="10.00">trippingcyril::timing</text>
<text text-anchor="middle" x="597" y="-495" font-family="Helvetica,sans-Serif" font-size="10.00">::LamdbaTimer</text>
</a>
</g>
</g>
<!-- Node18&#45;&gt;Node19 -->
<g id="edge18" class="edge"><title>Node18&#45;&gt;Node19</title>
<path fill="none" stroke="midnightblue" d="M473.112,-503C497.196,-503 524.806,-503 547.746,-503"/>
<polygon fill="midnightblue" stroke="midnightblue" points="473.03,-499.5 463.029,-503 473.029,-506.5 473.03,-499.5"/>
</g>
<!-- Node20 -->
<g id="node20" class="node"><title>Node20</title>
<g id="a_node20"><a xlink:href="classtrippingcyril_1_1_should_delete.html" target="_top" xlink:title="A simple interface to determine if the object should be deleted or not. ">
<polygon fill="none" stroke="black" points="0.5,-169.5 0.5,-188.5 131.5,-188.5 131.5,-169.5 0.5,-169.5"/>
<text text-anchor="middle" x="66" y="-176.5" font-family="Helvetica,sans-Serif" font-size="10.00">trippingcyril::ShouldDelete</text>
</a>
</g>
</g>
<!-- Node21 -->
<g id="node21" class="node"><title>Node21</title>
<g id="a_node21"><a xlink:href="classtrippingcyril_1_1database_1_1_d_b_callback.html" target="_top" xlink:title="Database callback class. ">
<polygon fill="none" stroke="black" points="183,-311 183,-341 295,-341 295,-311 183,-311"/>
<text text-anchor="start" x="191" y="-329" font-family="Helvetica,sans-Serif" font-size="10.00">trippingcyril::database</text>
<text text-anchor="middle" x="239" y="-318" font-family="Helvetica,sans-Serif" font-size="10.00">::DBCallback</text>
</a>
</g>
</g>
<!-- Node20&#45;&gt;Node21 -->
<g id="edge19" class="edge"><title>Node20&#45;&gt;Node21</title>
<path fill="none" stroke="midnightblue" d="M77.7273,-197.405C94.0342,-223.873 127.486,-272.614 168,-301 173.39,-304.776 179.411,-308.04 185.597,-310.846"/>
<polygon fill="midnightblue" stroke="midnightblue" points="80.6685,-195.505 72.5139,-188.741 74.6706,-199.114 80.6685,-195.505"/>
</g>
<!-- Node22 -->
<g id="node22" class="node"><title>Node22</title>
<g id="a_node22"><a xlink:href="classtrippingcyril_1_1database_1_1postgres_1_1_p_g_notify_listener.html" target="_top" xlink:title="Callback for listen/notify operations within PostGres, use this with PostGres::Listen. ">
<polygon fill="none" stroke="black" points="168.5,-262 168.5,-292 309.5,-292 309.5,-262 168.5,-262"/>
<text text-anchor="start" x="176.5" y="-280" font-family="Helvetica,sans-Serif" font-size="10.00">trippingcyril::database</text>
<text text-anchor="middle" x="239" y="-269" font-family="Helvetica,sans-Serif" font-size="10.00">::postgres::PGNotifyListener</text>
</a>
</g>
</g>
<!-- Node20&#45;&gt;Node22 -->
<g id="edge20" class="edge"><title>Node20&#45;&gt;Node22</title>
<path fill="none" stroke="midnightblue" d="M85.9306,-195.212C105.46,-211.307 137.313,-235.85 168,-252 174.966,-255.666 182.587,-259.004 190.155,-261.963"/>
<polygon fill="midnightblue" stroke="midnightblue" points="88.0306,-192.405 78.1139,-188.676 83.5403,-197.775 88.0306,-192.405"/>
</g>
<!-- Node23 -->
<g id="node23" class="node"><title>Node23</title>
<g id="a_node23"><a xlink:href="classtrippingcyril_1_1net_1_1dns_1_1_d_n_s_callback.html" target="_top" xlink:title="DNS callback class. ">
<polygon fill="none" stroke="black" points="187,-213 187,-243 291,-243 291,-213 187,-213"/>
<text text-anchor="start" x="195" y="-231" font-family="Helvetica,sans-Serif" font-size="10.00">trippingcyril::net</text>
<text text-anchor="middle" x="239" y="-220" font-family="Helvetica,sans-Serif" font-size="10.00">::dns::DNSCallback</text>
</a>
</g>
</g>
<!-- Node20&#45;&gt;Node23 -->
<g id="edge21" class="edge"><title>Node20&#45;&gt;Node23</title>
<path fill="none" stroke="midnightblue" d="M110.004,-191.323C133.348,-198.012 162.359,-206.325 186.856,-213.345"/>
<polygon fill="midnightblue" stroke="midnightblue" points="110.954,-187.954 100.376,-188.564 109.025,-194.683 110.954,-187.954"/>
</g>
<!-- Node24 -->
<g id="node24" class="node"><title>Node24</title>
<g id="a_node24"><a xlink:href="classtrippingcyril_1_1net_1_1dns_1_1_d_n_s_reverse_callback.html" target="_top" xlink:title="Reverse dns callback. ">
<polygon fill="none" stroke="black" points="168.5,-164 168.5,-194 309.5,-194 309.5,-164 168.5,-164"/>
<text text-anchor="start" x="176.5" y="-182" font-family="Helvetica,sans-Serif" font-size="10.00">trippingcyril::net</text>
<text text-anchor="middle" x="239" y="-171" font-family="Helvetica,sans-Serif" font-size="10.00">::dns::DNSReverseCallback</text>
</a>
</g>
</g>
<!-- Node20&#45;&gt;Node24 -->
<g id="edge22" class="edge"><title>Node20&#45;&gt;Node24</title>
<path fill="none" stroke="midnightblue" d="M141.898,-179C150.709,-179 159.673,-179 168.407,-179"/>
<polygon fill="midnightblue" stroke="midnightblue" points="141.648,-175.5 131.648,-179 141.648,-182.5 141.648,-175.5"/>
</g>
<!-- Node25 -->
<g id="node25" class="node"><title>Node25</title>
<g id="a_node25"><a xlink:href="classtrippingcyril_1_1net_1_1http_1_1_h_t_t_p_callback.html" target="_top" xlink:title="Callback class for our SimpleHTTPSocket. ">
<polygon fill="none" stroke="black" points="184,-115 184,-145 294,-145 294,-115 184,-115"/>
<text text-anchor="start" x="192" y="-133" font-family="Helvetica,sans-Serif" font-size="10.00">trippingcyril::net</text>
<text text-anchor="middle" x="239" y="-122" font-family="Helvetica,sans-Serif" font-size="10.00">::http::HTTPCallback</text>
</a>
</g>
</g>
<!-- Node20&#45;&gt;Node25 -->
<g id="edge23" class="edge"><title>Node20&#45;&gt;Node25</title>
<path fill="none" stroke="midnightblue" d="M110.154,-166.634C133.05,-160.074 161.365,-151.96 185.524,-145.037"/>
<polygon fill="midnightblue" stroke="midnightblue" points="109.025,-163.317 100.376,-169.436 110.954,-170.046 109.025,-163.317"/>
</g>
<!-- Node26 -->
<g id="node26" class="node"><title>Node26</title>
<g id="a_node26"><a xlink:href="classtrippingcyril_1_1thread_1_1_job.html" target="_top" xlink:title="Job base class With main thread we really just mean the thread the Module that the JobThread we are p...">
<polygon fill="none" stroke="black" points="178.5,-76.5 178.5,-95.5 299.5,-95.5 299.5,-76.5 178.5,-76.5"/>
<text text-anchor="middle" x="239" y="-83.5" font-family="Helvetica,sans-Serif" font-size="10.00">trippingcyril::thread::Job</text>
</a>
</g>
</g>
<!-- Node20&#45;&gt;Node26 -->
<g id="edge24" class="edge"><title>Node20&#45;&gt;Node26</title>
<path fill="none" stroke="midnightblue" d="M85.01,-162.581C104.244,-145.859 136.266,-120.278 168,-105 175.829,-101.231 184.523,-98.1134 193.047,-95.5699"/>
<polygon fill="midnightblue" stroke="midnightblue" points="82.5199,-160.111 77.3536,-169.361 87.1606,-165.352 82.5199,-160.111"/>
</g>
<!-- Node27 -->
<g id="node27" class="node"><title>Node27</title>
<g id="a_node27"><a xlink:href="classtrippingcyril_1_1_writer.html" target="_top" xlink:title="Writer class to provide a general writing operation so it&#39;s easier to write wrapper classes for write...">
<polygon fill="none" stroke="black" points="190,-38.5 190,-57.5 288,-57.5 288,-38.5 190,-38.5"/>
<text text-anchor="middle" x="239" y="-45.5" font-family="Helvetica,sans-Serif" font-size="10.00">trippingcyril::Writer</text>
</a>
</g>
</g>
<!-- Node20&#45;&gt;Node27 -->
<g id="edge25" class="edge"><title>Node20&#45;&gt;Node27</title>
<path fill="none" stroke="midnightblue" d="M78.5409,-160.663C95.2194,-135.688 128.439,-91.3108 168,-67 174.652,-62.9124 182.187,-59.6903 189.789,-57.1542"/>
<polygon fill="midnightblue" stroke="midnightblue" points="75.504,-158.913 72.9798,-169.202 81.3698,-162.733 75.504,-158.913"/>
</g>
<!-- Node27&#45;&gt;Node2 -->
<g id="edge31" class="edge"><title>Node27&#45;&gt;Node2</title>
<path fill="none" stroke="midnightblue" d="M297.671,-60.849C301.964,-62.6446 306.126,-64.6843 310,-67 329.969,-78.9358 329.253,-88.8515 346,-105 364.744,-123.074 387.741,-142.835 401.337,-154.285"/>
<polygon fill="midnightblue" stroke="midnightblue" points="298.718,-57.5041 288.126,-57.2956 296.276,-64.0644 298.718,-57.5041"/>
</g>
<!-- Node27&#45;&gt;Node4 -->
<g id="edge32" class="edge"><title>Node27&#45;&gt;Node4</title>
<path fill="none" stroke="midnightblue" d="M297.498,-57.7139C302.126,-60.1755 306.397,-63.2258 310,-67 360.93,-120.349 299.024,-172.139 346,-229 352.458,-236.817 361.423,-242.581 370.697,-246.811"/>
<polygon fill="midnightblue" stroke="midnightblue" points="298.805,-54.4655 288.24,-53.6696 296.003,-60.8801 298.805,-54.4655"/>
</g>
<!-- Node27&#45;&gt;Node13 -->
<g id="edge33" class="edge"><title>Node27&#45;&gt;Node13</title>
<path fill="none" stroke="midnightblue" d="M297.739,-58.3228C302.22,-60.6659 306.395,-63.5219 310,-67 348.849,-104.48 309.429,-143.294 346,-183 353.222,-190.841 363.034,-196.451 372.921,-200.448"/>
<polygon fill="midnightblue" stroke="midnightblue" points="298.765,-54.9532 288.197,-54.1983 295.987,-61.3787 298.765,-54.9532"/>
</g>
<!-- Node28 -->
<g id="node28" class="node"><title>Node28</title>
<g id="a_node28"><a xlink:href="classtrippingcyril_1_1_compressor.html" target="_top" xlink:title="Abstract compressor. ">
<polygon fill="none" stroke="black" points="351.5,-76.5 351.5,-95.5 476.5,-95.5 476.5,-76.5 351.5,-76.5"/>
<text text-anchor="middle" x="414" y="-83.5" font-family="Helvetica,sans-Serif" font-size="10.00">trippingcyril::Compressor</text>
</a>
</g>
</g>
<!-- Node27&#45;&gt;Node28 -->
<g id="edge26" class="edge"><title>Node27&#45;&gt;Node28</title>
<path fill="none" stroke="midnightblue" d="M293.505,-59.7526C317.967,-65.1258 346.571,-71.4086 369.659,-76.4799"/>
<polygon fill="midnightblue" stroke="midnightblue" points="294.173,-56.316 283.655,-57.589 292.671,-63.153 294.173,-56.316"/>
</g>
<!-- Node31 -->
<g id="node31" class="node"><title>Node31</title>
<g id="a_node31"><a xlink:href="classtrippingcyril_1_1_decompressor.html" target="_top" xlink:title="Abstract decompressor. ">
<polygon fill="none" stroke="black" points="346,-38.5 346,-57.5 482,-57.5 482,-38.5 346,-38.5"/>
<text text-anchor="middle" x="414" y="-45.5" font-family="Helvetica,sans-Serif" font-size="10.00">trippingcyril::Decompressor</text>
</a>
</g>
</g>
<!-- Node27&#45;&gt;Node31 -->
<g id="edge29" class="edge"><title>Node27&#45;&gt;Node31</title>
<path fill="none" stroke="midnightblue" d="M298.519,-48C313.778,-48 330.338,-48 346,-48"/>
<polygon fill="midnightblue" stroke="midnightblue" points="298.19,-44.5001 288.19,-48 298.19,-51.5001 298.19,-44.5001"/>
</g>
<!-- Node33 -->
<g id="node33" class="node"><title>Node33</title>
<g id="a_node33"><a xlink:href="classtrippingcyril_1_1_string_writer.html" target="_top" xlink:title="Simple in memory writer that just writes everything to a string. ">
<polygon fill="none" stroke="black" points="352,-0.5 352,-19.5 476,-19.5 476,-0.5 352,-0.5"/>
<text text-anchor="middle" x="414" y="-7.5" font-family="Helvetica,sans-Serif" font-size="10.00">trippingcyril::StringWriter</text>
</a>
</g>
</g>
<!-- Node27&#45;&gt;Node33 -->
<g id="edge34" class="edge"><title>Node27&#45;&gt;Node33</title>
<path fill="none" stroke="midnightblue" d="M293.505,-36.2474C317.967,-30.8742 346.571,-24.5914 369.659,-19.5201"/>
<polygon fill="midnightblue" stroke="midnightblue" points="292.671,-32.847 283.655,-38.411 294.173,-39.684 292.671,-32.847"/>
</g>
<!-- Node29 -->
<g id="node29" class="node"><title>Node29</title>
<g id="a_node29"><a xlink:href="classtrippingcyril_1_1_g_zip_compressor.html" target="_top" xlink:title="A gzip implementation of the Compressor interface. ">
<polygon fill="none" stroke="black" points="524,-76.5 524,-95.5 670,-95.5 670,-76.5 524,-76.5"/>
<text text-anchor="middle" x="597" y="-83.5" font-family="Helvetica,sans-Serif" font-size="10.00">trippingcyril::GZipCompressor</text>
</a>
</g>
</g>
<!-- Node28&#45;&gt;Node29 -->
<g id="edge27" class="edge"><title>Node28&#45;&gt;Node29</title>
<path fill="none" stroke="midnightblue" d="M486.638,-86C498.829,-86 511.498,-86 523.706,-86"/>
<polygon fill="midnightblue" stroke="midnightblue" points="486.531,-82.5001 476.531,-86 486.531,-89.5001 486.531,-82.5001"/>
</g>
<!-- Node30 -->
<g id="node30" class="node"><title>Node30</title>
<g id="a_node30"><a xlink:href="classtrippingcyril_1_1_l_z_m_a_compressor.html" target="_top" xlink:title="A lzma implementation of the Compressor interface. ">
<polygon fill="none" stroke="black" points="521,-114.5 521,-133.5 673,-133.5 673,-114.5 521,-114.5"/>
<text text-anchor="middle" x="597" y="-121.5" font-family="Helvetica,sans-Serif" font-size="10.00">trippingcyril::LZMACompressor</text>
</a>
</g>
</g>
<!-- Node28&#45;&gt;Node30 -->
<g id="edge28" class="edge"><title>Node28&#45;&gt;Node30</title>
<path fill="none" stroke="midnightblue" d="M470.638,-97.681C496.307,-103.07 526.391,-109.386 550.654,-114.48"/>
<polygon fill="midnightblue" stroke="midnightblue" points="471.18,-94.2184 460.674,-95.589 469.741,-101.069 471.18,-94.2184"/>
</g>
<!-- Node32 -->
<g id="node32" class="node"><title>Node32</title>
<g id="a_node32"><a xlink:href="classtrippingcyril_1_1_g_zip_decompressor.html" target="_top" xlink:title="A gzip implementation of the Decompressor interface. ">
<polygon fill="none" stroke="black" points="518.5,-38.5 518.5,-57.5 675.5,-57.5 675.5,-38.5 518.5,-38.5"/>
<text text-anchor="middle" x="597" y="-45.5" font-family="Helvetica,sans-Serif" font-size="10.00">trippingcyril::GZipDecompressor</text>
</a>
</g>
</g>
<!-- Node31&#45;&gt;Node32 -->
<g id="edge30" class="edge"><title>Node31&#45;&gt;Node32</title>
<path fill="none" stroke="midnightblue" d="M492.187,-48C500.827,-48 509.632,-48 518.278,-48"/>
<polygon fill="midnightblue" stroke="midnightblue" points="492.141,-44.5001 482.141,-48 492.14,-51.5001 492.141,-44.5001"/>
</g>
</g>
</svg>
